<?xml version="1.0" encoding="UTF-8"?>
<!-- Created with Inkscape (http://www.inkscape.org/) -->
<svg id="svg1" width="210mm" height="130mm" inkscape:version="1.4 (86a8ad7, 2024-10-11)" sodipodi:docname="1.svg" version="1.1" viewBox="0 0 210 130" xmlns="http://www.w3.org/2000/svg" xmlns:cc="http://creativecommons.org/ns#" xmlns:dc="http://purl.org/dc/elements/1.1/" xmlns:inkscape="http://www.inkscape.org/namespaces/inkscape" xmlns:rdf="http://www.w3.org/1999/02/22-rdf-syntax-ns#" xmlns:sodipodi="http://sodipodi.sourceforge.net/DTD/sodipodi-0.dtd">
 <title id="title2">Los Secretos de las Catedrales. La Catedral Nacional de Washignton D.C</title>
 <sodipodi:namedview id="namedview1" bordercolor="#000000" borderopacity="0.25" inkscape:current-layer="layer1" inkscape:cx="396.84014" inkscape:cy="561.25984" inkscape:deskcolor="#d1d1d1" inkscape:document-units="mm" inkscape:pagecheckerboard="0" inkscape:pageopacity="0.0" inkscape:showpageshadow="2" inkscape:window-height="664" inkscape:window-maximized="1" inkscape:window-width="1366" inkscape:window-x="-8" inkscape:window-y="-8" inkscape:zoom="0.49264169" pagecolor="#ffffff"/>
 <defs id="defs1">
  <pattern id="WMFhbasepattern" width="6" height="6" patternUnits="userSpaceOnUse"/>
 </defs>
 <g id="layer1" inkscape:groupmode="layer" inkscape:label="Capa 1">
  <g id="g2" transform="matrix(.83613 0 0 .83613 133.91 -13.476)" stroke-width=".1196">
   <g id="g1" transform="matrix(.26458 0 0 .26458 -219.02 -26.986)" stroke-width=".45203">
    <g fill="none" stroke-linecap="round" stroke-linejoin="round" stroke-width=".45203">
     <path id="path1" d="m424.81 648.66v-310.16h309.71v310.16z" stroke="#f0f"/>
     <g stroke="#991b1e">
      <path id="path2" d="m424.81 338.5 1.7514 1.7921"/>
      <path id="path3" d="m430.51 344.25 2.6067 2.6474"/>
      <path id="path4" d="m437.07 350.81 2.6067 2.6474"/>
      <path id="path5" d="m443.63 357.4 2.6474 2.6067"/>
      <path id="path6" d="m450.19 363.96 2.6474 2.6474"/>
      <path id="path7" d="m456.74 370.56 2.6474 2.6067"/>
      <path id="path8" d="m463.34 377.12 2.6067 2.6474"/>
      <path id="path9" d="m469.9 383.67 2.6067 2.6474"/>
      <path id="path10" d="m476.46 390.27 2.6067 2.6067"/>
      <path id="path11" d="m483.01 396.83 2.6474 2.6474"/>
      <path id="path12" d="m489.57 403.43 2.6474 2.6067"/>
      <path id="path13" d="m496.17 409.99 2.6067 2.6474"/>
      <path id="path14" d="m502.73 416.58 2.6067 2.6067"/>
      <path id="path15" d="m509.28 423.14 2.6067 2.6067"/>
      <path id="path16" d="m515.84 429.7 2.6474 2.6474"/>
      <path id="path17" d="m522.4 436.3 2.6474 2.6067"/>
      <path id="path18" d="m528.96 442.85 2.6474 2.6474"/>
      <path id="path19" d="m535.56 449.45 2.6067 2.6067"/>
      <path id="path20" d="m542.11 456.01 2.6067 2.6474"/>
      <path id="path21" d="m548.67 462.57 2.6067 2.6474"/>
      <path id="path22" d="m555.23 469.17 2.6474 2.6067"/>
      <path id="path23" d="m561.79 475.72 2.6474 2.6474"/>
      <path id="path24" d="m568.38 482.32 2.6067 2.6067"/>
      <path id="path25" d="m574.94 488.88 2.6067 2.6474"/>
      <path id="path26" d="m581.5 495.44 2.6067 2.6474"/>
      <path id="path27" d="m588.06 502.03 2.6474 2.6067"/>
      <path id="path28" d="m594.61 508.59 2.6474 2.6474"/>
      <path id="path29" d="m601.17 515.19 2.6474 2.6067"/>
      <path id="path30" d="m607.77 521.75 2.6067 2.6474"/>
      <path id="path31" d="m614.33 528.35 2.6067 2.6067"/>
      <path id="path32" d="m620.88 534.9 2.6067 2.6474"/>
      <path id="path33" d="m627.44 541.46 2.6474 2.6474"/>
      <path id="path34" d="m634 548.06 2.6474 2.6067"/>
      <path id="path35" d="m640.6 554.62 2.6067 2.6474"/>
      <path id="path36" d="m647.15 561.22 2.6067 2.6067"/>
      <path id="path37" d="m653.71 567.77 2.6067 2.6474"/>
      <path id="path38" d="m660.27 574.33 2.6474 2.6474"/>
      <path id="path39" d="m666.83 580.93 2.6474 2.6067"/>
      <path id="path40" d="m673.38 587.49 2.6474 2.6474"/>
      <path id="path41" d="m679.98 594.08 2.6067 2.6067"/>
      <path id="path42" d="m686.54 600.64 2.6067 2.6474"/>
      <path id="path43" d="m693.1 607.24 2.6067 2.6067"/>
      <path id="path44" d="m699.66 613.8 2.6474 2.6067"/>
      <path id="path45" d="m706.21 620.35 2.6474 2.6474"/>
      <path id="path46" d="m712.81 626.95 2.6067 2.6067"/>
      <path id="path47" d="m719.37 633.51 2.6067 2.6474"/>
      <path id="path48" d="m725.93 640.11 2.6067 2.6067"/>
      <path id="path49" d="m732.48 646.67 0.24437 0.24438 1.7514 1.7921"/>
      <path id="path50" d="m734.52 338.5-1.7921 1.7921"/>
      <path id="path51" d="m728.78 344.25-2.6067 2.6474"/>
      <path id="path52" d="m722.22 350.81-2.6067 2.6474"/>
      <path id="path53" d="m715.66 357.4-2.6474 2.6067"/>
      <path id="path54" d="m709.1 363.96-2.6474 2.6474"/>
      <path id="path55" d="m702.55 370.56-2.6474 2.6067"/>
      <path id="path56" d="m695.95 377.12-2.6067 2.6474"/>
      <path id="path57" d="m689.39 383.67-2.6067 2.6474"/>
      <path id="path58" d="m682.83 390.27-2.6067 2.6067"/>
      <path id="path59" d="m676.28 396.83-2.6474 2.6474"/>
      <path id="path60" d="m669.72 403.43-2.6474 2.6067"/>
      <path id="path61" d="m663.12 409.99-2.6067 2.6474"/>
      <path id="path62" d="m656.56 416.58-2.6067 2.6067"/>
      <path id="path63" d="m650.01 423.14-2.6067 2.6067"/>
      <path id="path64" d="m643.45 429.7-2.6474 2.6474"/>
      <path id="path65" d="m636.89 436.3-2.6474 2.6067"/>
      <path id="path66" d="m630.33 442.85-2.6474 2.6474"/>
      <path id="path67" d="m623.74 449.45-2.6067 2.6067"/>
      <path id="path68" d="m617.18 456.01-2.6067 2.6474"/>
      <path id="path69" d="m610.62 462.57-2.6067 2.6474"/>
      <path id="path70" d="m604.06 469.17-2.6474 2.6067"/>
      <path id="path71" d="m597.51 475.72-2.6474 2.6474"/>
      <path id="path72" d="m590.91 482.32-2.6067 2.6067"/>
      <path id="path73" d="m584.35 488.88-2.6067 2.6474"/>
      <path id="path74" d="m577.79 495.44-2.6067 2.6474"/>
      <path id="path75" d="m571.23 502.03-2.6474 2.6067"/>
      <path id="path76" d="m564.68 508.59-2.6474 2.6474"/>
      <path id="path77" d="m558.12 515.19-2.6474 2.6067"/>
      <path id="path78" d="m551.52 521.75-2.6067 2.6474"/>
      <path id="path79" d="m544.96 528.35-2.6067 2.6067"/>
      <path id="path80" d="m538.41 534.9-2.6067 2.6474"/>
      <path id="path81" d="m531.85 541.46-2.6474 2.6474"/>
      <path id="path82" d="m525.29 548.06-2.6474 2.6067"/>
      <path id="path83" d="m518.69 554.62-2.6067 2.6474"/>
      <path id="path84" d="m512.14 561.22-2.6067 2.6067"/>
      <path id="path85" d="m505.58 567.77-2.6067 2.6474"/>
      <path id="path86" d="m499.02 574.33-2.6474 2.6474"/>
      <path id="path87" d="m492.46 580.93-2.6474 2.6067"/>
      <path id="path88" d="m485.91 587.49-2.6474 2.6474"/>
      <path id="path89" d="m479.31 594.08-2.6067 2.6067"/>
      <path id="path90" d="m472.75 600.64-2.6067 2.6474"/>
      <path id="path91" d="m466.19 607.24-2.6067 2.6067"/>
      <path id="path92" d="m459.64 613.8-2.6474 2.6067"/>
      <path id="path93" d="m453.08 620.35-2.6474 2.6474"/>
      <path id="path94" d="m446.48 626.95-2.6067 2.6067"/>
      <path id="path95" d="m439.92 633.51-2.6067 2.6474"/>
      <path id="path96" d="m433.36 640.11-2.6067 2.6067"/>
      <path id="path97" d="m426.81 646.67-0.24438 0.24438-1.7514 1.7921"/>
      <path id="path98" d="m734.48 493.56-0.0407-3.91-0.16292-3.9508-0.24437-3.91-0.36657-3.9101-0.4073-3.91-0.57022-3.8693-0.65167-3.91-0.73314-3.8286-0.81459-3.8693-0.93679-3.7879-1.059-3.7879-1.0997-3.7879-1.2219-3.7064-1.3441-3.7064-1.3848-3.6657-1.507-3.625-1.5885-3.5842-1.6699-3.5842-1.7921-3.5028-1.8736-3.462-1.9143-3.3806-2.0365-3.3806-2.1179-3.2991-2.1994-3.2584-2.2809-3.1769-2.3623-3.1362-2.4438-3.0955-2.5252-3.014-2.6067-2.9326-2.6474-2.8918-2.7289-2.8104-2.8104-2.7289-2.8918-2.6882-2.9325-2.6067-3.014-2.4845-3.0547-2.4438-3.1362-2.403-3.2176-2.2809-3.2176-2.1994-3.2991-2.118-3.3806-2.0365-3.3806-1.955-3.462-1.8328-3.5028-1.7921-3.5435-1.6699-3.5842-1.5885-3.625-1.507-3.6657-1.4255-3.7064-1.3034-3.7064-1.2219-3.7471-1.1404-3.7879-1.0182-3.8286-0.93679-3.8286-0.85532-3.8286-0.73314-3.8693-0.65167-3.9101-0.52949-3.8693-0.44803-3.9101-0.36656-3.91-0.24438-3.9508-0.16292-3.91-0.0407-3.9101 0.0407-3.9508 0.16292-3.9101 0.24438-3.91 0.36656-3.8693 0.44803-3.91 0.52949-3.8693 0.65167-3.8286 0.73314-3.8286 0.85532-3.8286 0.93679-3.7879 1.0182-3.7471 1.1404-3.7064 1.2219-3.7064 1.3034-3.6657 1.4255-3.625 1.507-3.5842 1.5885-3.5435 1.6699-3.5028 1.7921-3.462 1.8328-3.3806 1.955-3.3806 2.0365-3.2991 2.118-3.2176 2.1994-3.2176 2.2809-3.1362 2.403-3.0547 2.4438-3.014 2.4845-2.9325 2.6067-2.8918 2.6882-2.8104 2.7289-2.7289 2.8104-2.6474 2.8918-2.6067 2.9326-2.5252 3.014-2.4438 3.0955-2.3623 3.1362-2.2809 3.1769-2.1994 3.2584-2.118 3.2991-2.0365 3.3806-1.9143 3.3806-1.8736 3.462-1.7921 3.5028-1.6699 3.5842-1.5885 3.5842-1.507 3.625-1.3848 3.6657-1.3441 3.7064-1.2219 3.7064-1.0997 3.7879-1.059 3.7879-0.93678 3.7879-0.8146 3.8693-0.73314 3.8286-0.65167 3.91-0.57022 3.8693-0.40729 3.91-0.36657 3.9101-0.24438 3.91-0.16292 3.9508-0.0407 3.91 0.0407 3.9101 0.16292 3.9508 0.24438 3.9101 0.36657 3.91 0.40729 3.9101 0.57022 3.8693 0.65167 3.9101 0.73314 3.8286 0.8146 3.8693 0.93678 3.7879 1.059 3.7879 1.0997 3.7879 1.2219 3.7064 1.3441 3.7064 1.3848 3.6657 1.507 3.625 1.5885 3.5842 1.6699 3.5842 1.7921 3.5028 1.8736 3.462 1.9143 3.3806 2.0365 3.3806 2.118 3.2991 2.1994 3.2584 2.2809 3.1769 2.3623 3.1362 2.4438 3.0955 2.5252 3.014 2.6067 2.9325 2.6474 2.8918 2.7289 2.8104 2.8104 2.7289 2.8918 2.6882 2.9325 2.6067 3.014 2.4845 3.0547 2.4438 3.1362 2.4031 3.2176 2.2809 3.2176 2.1994 3.2991 2.118 3.3806 2.0365 3.3806 1.955 3.462 1.8328 3.5028 1.7921 3.5435 1.6699 3.5842 1.5885 3.625 1.507 3.6657 1.4255 3.7064 1.3034 3.7064 1.2219 3.7471 1.1404 3.7879 1.0182 3.8286 0.93678 3.8286 0.85533 3.8286 0.73313 3.8693 0.65168 3.91 0.52949 3.8693 0.44802 3.91 0.36657 3.9101 0.24438 3.9508 0.16292 3.9101 0.0407 3.91-0.0407 3.9508-0.16292 3.91-0.24438 3.9101-0.36657 3.8693-0.44802 3.9101-0.52949 3.8693-0.65168 3.8286-0.73313 3.8286-0.85533 3.8286-0.93678 3.7879-1.0182 3.7471-1.1404 3.7064-1.2219 3.7064-1.3034 3.6657-1.4255 3.625-1.507 3.5842-1.5885 3.5435-1.6699 3.5028-1.7921 3.462-1.8328 3.3806-1.955 3.3806-2.0365 3.2991-2.118 3.2176-2.1994 3.2176-2.2809 3.1362-2.4031 3.0547-2.4438 3.014-2.4845 2.9325-2.6067 2.8918-2.6882 2.8104-2.7289 2.7289-2.8104 2.6474-2.8918 2.6067-2.9325 2.5252-3.014 2.4438-3.0955 2.3623-3.1362 2.2809-3.1769 2.1994-3.2584 2.1179-3.2991 2.0365-3.3806 1.9143-3.3806 1.8736-3.462 1.7921-3.5028 1.6699-3.5842 1.5885-3.5842 1.507-3.625 1.3848-3.6657 1.3441-3.7064 1.2219-3.7064 1.0997-3.7879 1.059-3.7879 0.93679-3.7879 0.81459-3.8693 0.73314-3.8286 0.65167-3.9101 0.57022-3.8693 0.4073-3.9101 0.36657-3.91 0.24437-3.9101 0.16292-3.9508z"/>
     </g>
     <path id="path99" d="m579.67 338.5-128.26 310.16" stroke="#0ff"/>
     <path id="path100" d="m579.67 338.5 128.3 310.16" stroke="#0ff"/>
     <g stroke="#212830">
      <path id="path101" d="m451.41 668.05v34.742"/>
      <path id="path102" d="m707.96 668.05v34.742"/>
      <path id="path103" d="m432.83 687.27h-18.613"/>
      <path id="path104" d="m726.54 687.27h18.573"/>
     </g>
    </g>
    <g fill="#212830" fill-rule="evenodd">
     <path id="path105" d="m432.83 684.18v6.1909l18.573-3.0955z"/>
     <path id="path106" d="m726.54 684.18v6.1909l-18.573-3.0955z"/>
     <path id="path107" d="m520.49 679.17-4.1544 0.20365 1.3848 0.32584 1.3848 1.2219 0.28511 0.48876 0.44803 1.4255 0.24438 1.955 0.12218 2.4438-0.0407 1.2219-0.16291 2.2401-0.36657 1.6699-0.52949 1.1812-1.0997 1.059-1.6699 0.48875 3.625 0.73314 1.1404-1.3441 0.81459-1.7921 0.36657-1.4663 0.24438-1.8328 0.0815-2.1587v-0.97751l-0.16292-1.9958-0.28511-1.5885-0.36657-1.2219-0.81459-1.6292z"/>
     <path id="path108" d="m516.33 677.42-1.9143 0.2851-1.5477 0.8146-0.0815 0.12219-1.1812 1.3034-0.8146 1.7921-0.36656 1.507-0.24438 1.8328-0.0815 2.1587v0.97752l0.16292 2.1994 0.4073 1.8328 0.57021 1.5477 0.73314 1.2626 0.93678 0.93679 1.5477 0.77386 1.8736 0.28511h0.0815l1.8736-0.28511 1.5477-0.85532 0.12219-0.0815-3.625-0.73314-1.3441-0.2851-1.3848-1.2626-0.28511-0.48875-0.44803-1.4255-0.28511-1.955-0.0815-2.4438 0.0407-1.4663 0.20365-2.1587 0.4073-1.6699 0.57022-1.1812 0.89605-0.89605 1.7106-0.48876 4.1544-0.20365-1.4255-1.1404-0.81459-0.36657z"/>
     <path id="path109" d="m526.31 696.72v-2.6882h2.6882v2.6882z"/>
     <path id="path110" d="m543.17 687.15-4.4803 0.16292 1.3034 0.20365 1.5477 0.89606 0.73313 1.0182 0.4073 1.8328-0.20365 1.2219-0.89605 1.5477-0.97752 0.69241-1.8328 0.36656-4.6025 0.24438 1.0182 0.8146 1.6292 0.65167 1.955 0.24438 1.4255-0.12219 1.7106-0.57021 1.4255-0.97752 0.65167-0.73313 0.8146-1.5885 0.28511-1.8328-0.16292-1.4255-0.77387-1.6292z"/>
     <path id="path111" d="m534.5 679.05-0.97751 1.507-0.32584 1.8328 0.0407 0.69241 0.69241 1.6699 0.48875 0.57022 1.6699 0.97751-1.3848 0.52949-1.3034 1.1812-0.6924 1.2626-0.28511 1.8736 0.0815 1.059 0.57021 1.7106 1.0997 1.4255 4.6025-0.24438h-0.24438l-1.7921-0.52948-0.16292-0.0815-1.2219-1.3441-0.0815-0.16292-0.4073-1.7921 0.16292-1.2219 0.93678-1.5477 0.93679-0.69241 1.7921-0.4073 4.4803-0.16292-1.7106-0.85532 0.81459-0.36657-3.5028-0.52949-0.73314-0.0815-1.5477-0.8146-0.4073-0.44803-0.48875-1.7514 0.0407-0.48875 0.85532-1.5885 0.48876-0.4073 1.7514-0.48876z"/>
     <path id="path112" d="m538.73 677.42-0.77387 0.0407-1.7921 0.44802-1.4663 0.93679-0.20365 0.20365 4.2359 0.2851 0.65167 0.0815 1.5885 0.8146 0.4073 0.44802 0.48876 1.7514-0.0407 0.48876-0.8146 1.5885-0.48875 0.4073-1.7514 0.48875 3.5028 0.52949 1.3441-1.1812 0.2851-0.48876 0.4073-1.8328-0.0407-0.32583-0.4073-1.7514-1.0997-1.4663-0.52949-0.44803-1.5885-0.77387z"/>
     <path id="path113" d="m558.12 678.92-4.4395 0.44802 1.0997 0.12219 1.5477 0.8146 0.48875 0.65167 0.48876 1.7514-0.16292 1.059-0.93678 1.7514-0.0815 0.12219-0.97752 1.0997-1.3848 1.3441-1.7921 1.507-0.40729 0.36657-1.507 1.3441-1.1404 1.2219-0.73313 0.93678-0.8146 1.6292-0.28511 1.6292h12.667v-2.2809h-9.4086l1.0182-1.2626 0.93678-0.89606 1.7514-1.5477 1.1812-0.97751 1.4255-1.3441 1.059-1.059 0.65167-0.81459 0.89606-1.507 0.16292-0.44803 0.32583-1.8328-0.0407-0.61094-0.48875-1.7514z"/>
     <path id="path114" d="m553.76 677.42-1.1404 0.0407-1.7921 0.48875-1.4255 0.89606-0.65168 0.65167-0.81459 1.5477-0.4073 1.9143 2.4031 0.24438 0.20364-1.3034 0.85533-1.507 0.85532-0.65168 1.8328-0.36657 4.4395-0.44802-0.77386-0.61095-1.6292-0.69241z"/>
     <path id="path115" d="m573.03 687.15-4.4803 0.16292 1.3034 0.20365 1.5477 0.89606 0.73313 1.0182 0.36657 1.8328-0.16292 1.2219-0.93678 1.5477-0.97751 0.69241-1.7921 0.36656-4.6025 0.24438 0.97751 0.8146 1.6699 0.65167 1.9143 0.24438 1.4255-0.12219 1.7514-0.57021 1.4255-0.97752 0.61094-0.73313 0.85533-1.5885 0.24438-1.8328-0.16292-1.4255-0.73314-1.6292z"/>
     <path id="path116" d="m564.35 679.05-0.97751 1.507-0.32584 1.8328 0.0407 0.69241 0.65168 1.6699 0.52948 0.57022 1.6699 0.97751-1.3848 0.52949-1.3441 1.1812-0.65167 1.2626-0.28511 1.8736 0.0815 1.059 0.57021 1.7106 1.0997 1.4255 4.6025-0.24438h-0.28511l-1.7514-0.52948-0.20365-0.0815-1.2219-1.3441-0.0815-0.16292-0.4073-1.7921 0.20365-1.2219 0.89605-1.5477 0.97752-0.69241 1.7921-0.4073 4.4803-0.16292-1.7106-0.85532 0.77386-0.36657-3.5028-0.52949-0.69241-0.0815-1.5885-0.8146-0.36657-0.44803-0.48875-1.7514 0.0407-0.48875 0.85532-1.5885 0.48876-0.4073 1.7514-0.48876z"/>
     <path id="path117" d="m568.55 677.42-0.77387 0.0407-1.7921 0.44802-1.4255 0.93679-0.20365 0.20365 4.2359 0.2851 0.65167 0.0815 1.5885 0.8146 0.36657 0.44802 0.52949 1.7514-0.0407 0.48876-0.85533 1.5885-0.44802 0.4073-1.7921 0.48875 3.5028 0.52949 1.3441-1.1812 0.2851-0.48876 0.4073-1.8328v-0.32583l-0.44803-1.7514-1.059-1.4663-0.57021-0.44803-1.5885-0.77387z"/>
     <path id="path118" d="m587.12 677.5h-1.9143l-8.7569 12.463v2.1587h8.3089v4.6025h2.3623v-4.6025h2.6067v-2.1587h-10.956l5.9873-8.6754z"/>
     <path id="path119" d="m587.12 677.5-2.3623 3.7879v8.6754h-5.9873 8.3496z"/>
     <path id="path120" d="m602.88 678.92-4.4395 0.44802 1.0997 0.12219 1.5477 0.8146 0.48876 0.65167 0.48875 1.7514-0.16291 1.059-0.93679 1.7514-0.0815 0.12219-0.97751 1.0997-1.3848 1.3441-1.7921 1.507-0.44803 0.36657-1.507 1.3441-1.0997 1.2219-0.73314 0.93678-0.85532 1.6292-0.24438 1.6292h12.667v-2.2809h-9.4086l0.97751-1.2626 0.93679-0.89606 1.7921-1.5477 1.1404-0.97751 1.4663-1.3441 1.059-1.059 0.65168-0.81459 0.89605-1.507 0.16292-0.44803 0.32584-1.8328-0.0407-0.61094-0.48876-1.7514z"/>
     <path id="path121" d="m598.52 677.42-1.1404 0.0407-1.7921 0.48875-1.4663 0.89606-0.61094 0.65167-0.8146 1.5477-0.40729 1.9143 2.403 0.24438 0.16292-1.3034 0.85532-1.507 0.89606-0.65168 1.8328-0.36657 4.4395-0.44802-0.77387-0.61095-1.6292-0.69241z"/>
     <path id="path122" d="m619.62 677.74h-12.423v2.2809h9.4086l-0.24438 0.28511-1.0997 1.3848-1.0182 1.5885-1.0182 1.7514-0.48875 0.93678-0.77387 1.7106-0.65167 1.7514-0.52949 1.7921-0.48876 1.9958-0.28511 1.8736-0.12219 1.6292h2.4438l0.16292-1.6699 0.28511-1.8736 0.44802-1.7514 0.44803-1.507 0.69241-1.7514 0.73313-1.7106 0.89606-1.7106 0.40729-0.69241 1.059-1.7106 1.0997-1.507 1.059-1.2626z"/>
     <path id="path123" d="m625.45 681.33-1.6699 0.89606v2.2809l0.73313-0.28511 1.7514-0.93678 0.8146-0.48876 1.4255-1.1404z"/>
     <path id="path124" d="m630.86 677.42h-1.5477l-0.6924 1.0997-1.3848 1.4663-0.2851 0.24438-1.507 1.0997 3.0547 0.32584v15.07h2.3623z"/>
     <path id="path125" d="m647.64 678.92-4.4395 0.44802 1.059 0.12219 1.5477 0.8146 0.52948 0.65167 0.48876 1.7514-0.16292 1.059-0.93678 1.7514-0.0815 0.12219-0.97752 1.0997-1.3848 1.3441-1.7921 1.507-0.44802 0.36657-1.507 1.3441-1.1404 1.2219-0.6924 0.93678-0.85533 1.6292-0.2851 1.6292h12.708v-2.2809h-9.4086l0.97752-1.2626 0.93678-0.89606 1.7921-1.5477 1.1404-0.97751 1.4663-1.3441 1.0182-1.059 0.6924-0.81459 0.89606-1.507 0.16292-0.44803 0.2851-1.8328v-0.61094l-0.48875-1.7514z"/>
     <path id="path126" d="m643.24 677.42-1.0997 0.0407-1.7921 0.48875-1.4663 0.89606-0.61095 0.65167-0.85532 1.5477-0.4073 1.9143 2.4438 0.24438 0.16292-1.3034 0.85532-1.507 0.89605-0.65168 1.8328-0.36657 4.4395-0.44802-0.81459-0.61095-1.5885-0.69241z"/>
    </g>
    <g fill="none" stroke="#212830" stroke-linecap="round" stroke-linejoin="round" stroke-width=".45203">
     <path id="path127" d="m433.53 641.25-196.24-81.419"/>
     <path id="path128" d="m561.79 331.09-196.24-81.419"/>
     <path id="path129" d="m258.72 548.59 41.422-100.15"/>
     <path id="path130" d="m372.76 272.81-41.422 100.15"/>
    </g>
    <g fill="#212830" fill-rule="evenodd">
     <path id="path131" d="m255.82 547.41 5.7429 2.3623-9.9788 16.007z"/>
     <path id="path132" d="m369.91 271.63 5.7022 2.3623 4.2766-18.369z"/>
     <path id="path133" d="m248.66 404.73-1.6699 0.93678v2.2809l0.73314-0.32584 1.7514-0.89605 0.8146-0.52949 1.4255-1.0997z"/>
     <path id="path134" d="m254.03 400.82h-1.507l-0.69241 1.0997-1.3848 1.4663-0.28511 0.24438-1.507 1.0997 3.0547 0.36657v15.029h2.3216z"/>
     <path id="path135" d="m261.4 420.13v-2.6882h2.6882v2.6882z"/>
     <path id="path136" d="m277.94 402.57-4.1544 0.20365 1.3848 0.32584 1.3848 1.2219 0.28511 0.52949 0.44803 1.3848 0.24438 1.955 0.12219 2.4438-0.0407 1.2626-0.16292 2.1994-0.36657 1.6699-0.52949 1.1812-1.0997 1.0997-1.6699 0.48876 3.625 0.69241 1.1404-1.3441 0.81459-1.7921 0.36657-1.4255 0.24438-1.8736 0.0815-2.1587v-0.97751l-0.16292-1.955-0.28511-1.5885-0.36656-1.2626-0.8146-1.6292z"/>
     <path id="path137" d="m273.79 400.82-1.9143 0.28511-1.5477 0.85533-0.0815 0.0815-1.1812 1.3441-0.81459 1.7514-0.36657 1.507-0.24438 1.8328-0.0815 2.1587v1.0182l0.16292 2.1587 0.4073 1.8736 0.57021 1.5477 0.73314 1.2219 0.93678 0.93679 1.5477 0.81459 1.8736 0.24438h0.0815l1.8736-0.28511 1.5477-0.85532 0.12219-0.0815-3.625-0.69241-1.3441-0.32584-1.3848-1.2626-0.28511-0.48876-0.44803-1.4255-0.28511-1.9143-0.0815-2.4845 0.0407-1.4663 0.20365-2.118 0.4073-1.6699 0.57022-1.2219 0.89605-0.89605 1.7106-0.48876 4.1544-0.20365-1.4255-1.1404-0.81459-0.32584z"/>
     <path id="path138" d="m293.17 410.56-4.4803 0.16292 1.3441 0.20365 1.507 0.93678 0.73313 1.0182 0.4073 1.7921-0.20365 1.2626-0.89605 1.507-0.97752 0.6924-1.8328 0.4073-4.6025 0.24438 1.0182 0.77386 1.6292 0.69241 1.955 0.20365 1.4255-0.12219 1.7106-0.52949 1.4255-1.0182 0.65167-0.73314 0.8146-1.5885 0.2851-1.8328-0.16291-1.4256-0.77387-1.6292z"/>
     <path id="path139" d="m284.5 402.45-0.97751 1.5477-0.32584 1.7921 0.0407 0.69241 0.69241 1.6699 0.48875 0.61094 1.6699 0.93679-1.3848 0.57021-1.3034 1.1404-0.69241 1.2626-0.2851 1.9143 0.0815 1.0182 0.57022 1.7106 1.0997 1.4663 4.6025-0.24438-0.24438-0.0407-1.7921-0.48876-0.16292-0.12219-1.2219-1.3441-0.0815-0.16292-0.4073-1.7921 0.16292-1.2219 0.93678-1.5477 0.93679-0.6924 1.7921-0.4073 4.4803-0.16292-1.7106-0.85532 0.81459-0.36657-3.5028-0.52949-0.69241-0.0815-1.5885-0.77386-0.4073-0.48876-0.48875-1.7514 0.0407-0.48875 0.85532-1.5885 0.48876-0.36657 1.7514-0.48876z"/>
     <path id="path140" d="m288.73 400.82-0.77387 0.0407-1.7921 0.44803-1.4663 0.93678-0.20365 0.20365 4.2359 0.32584 0.65167 0.0407 1.5885 0.8146 0.4073 0.48875 0.48876 1.7106-0.0407 0.52949-0.8146 1.5885-0.48876 0.36657-1.7514 0.48875 3.5028 0.52949 1.3441-1.1812 0.28511-0.48876 0.4073-1.8328-0.0407-0.32584-0.4073-1.7514-1.0997-1.4663-0.52949-0.44802-1.5885-0.77387z"/>
     <path id="path141" d="m308.12 402.37-4.3988 0.4073 1.059 0.12219 1.5477 0.85532 0.48876 0.61095 0.48876 1.7514-0.16292 1.0997-0.93679 1.7106-0.0815 0.16292-0.97751 1.0997-1.3848 1.3034-1.7921 1.5477-0.4073 0.36656-1.507 1.3441-1.1404 1.1812-0.73313 0.97751-0.8146 1.5885-0.28511 1.6292h12.667v-2.2809h-9.4086l1.0182-1.2626 0.93678-0.89605 1.7921-1.507 1.1404-1.0182 1.4255-1.3034 1.059-1.059 0.65168-0.8146 0.89605-1.5477 0.16292-0.44802 0.32584-1.8328-0.0407-0.61095-0.48875-1.7106z"/>
     <path id="path142" d="m303.76 400.82-1.1404 0.0815-1.7921 0.44803-1.4255 0.89605-0.65168 0.65168-0.81459 1.5477-0.4073 1.955 2.403 0.24438 0.20365-1.3441 0.85533-1.507 0.85532-0.61094 1.8736-0.4073 4.3988-0.4073-0.77386-0.61094-1.6292-0.69241z"/>
     <path id="path143" d="m314.68 414.75-2.3623 0.32584 0.12218 0.77387 0.65168 1.7106 1.1404 1.4255 0.65168 0.48875 1.6292 0.73314 1.9143 0.28511 1.4663-0.16292 1.7106-0.57022 1.4255-1.059-4.6025-0.16292-0.77387-0.0815-1.5885-0.81459-0.73313-0.97752z"/>
     <path id="path144" d="m323.03 410.47-4.3988 0.28511 1.1404 0.16292 1.5477 0.89605 0.65167 0.89606 0.4073 1.7921-0.20365 1.3441-0.93678 1.507-1.0182 0.77386-1.7921 0.4073 4.6025 0.16292 0.77386-0.8146 0.8146-1.6292 0.24438-1.7921-0.16292-1.5477-0.77387-1.5885z"/>
     <path id="path145" d="m317.2 408.97-0.24437 2.0772 1.6699-0.28511 4.3988-0.28511-1.7514-0.77386 0.6924-0.36657-4.3581-0.36657z"/>
     <path id="path146" d="m322.7 402.61-4.3174 0.16292 0.6924 0.0407 1.5477 0.8146 0.36657 0.40729 0.52949 1.7514-0.16292 1.059-1.059 1.3441-0.85532 0.44802-1.8328 0.32584 4.3581 0.36657 1.3034-1.2219 0.24437-0.48876 0.4073-1.7921-0.0407-0.73313-0.65167-1.7514z"/>
     <path id="path147" d="m318.3 400.82h-0.44803l-1.8328 0.4073-1.507 0.89605-0.4073 0.36657-0.97751 1.4663-0.57022 1.8328 2.3216 0.44803 0.28511-1.1404 0.89605-1.4663 0.52949-0.4073 1.7921-0.44803 4.3174-0.16292-1.507-1.0997-1.0182-0.44803z"/>
     <path id="path148" d="m329.83 415.48-2.2809 0.20365 0.0815 0.36657 0.57021 1.7921 1.0997 1.3441 0.20365 0.20365 1.5477 0.81459 1.9143 0.24438h0.24438l1.8328-0.32584 1.6292-0.81459 0.32584-0.24438-3.9915-0.52949-0.44802-0.0407-1.6292-0.6924-0.4073-0.48876z"/>
     <path id="path149" d="m336.18 410.39-0.93678 0.73314-1.7921 0.4073-4.6025 0.36656 0.65168 0.57022 1.5885 0.85532 1.7921 0.28511 0.93679-0.0815 1.7514-0.61094 0.6924-0.48876 1.2219-1.3441z"/>
     <path id="path150" d="m328.93 402.61-0.85532 1.0997-0.65168 1.6699-0.20365 1.955 0.0815 1.3848 0.57022 1.7106 0.97751 1.4663 4.6025-0.36656-1.1812-0.20365-1.507-0.93679-0.77387-1.1404-0.36656-1.8736 0.2851-1.7921 0.89606-1.507 1.0182-0.85532 1.7106-0.44803z"/>
     <path id="path151" d="m333.25 400.82-1.1812 0.12219-1.6699 0.57022-1.4663 1.0997 4.6025 0.16292 1.0997 0.16292 1.507 1.0182 0.77387 1.3034 0.28511 1.955-0.20365 1.6699-0.8146 1.507 1.3034 0.69241v0.48875l-0.0407 1.0182-0.32584 1.8328-0.16292 0.61094-0.69241 1.6292-1.344 1.344-0.12219 0.0815-1.7921 0.44803 3.9915 0.52949 1.1812-1.3441 0.85533-1.7514 0.0815-0.20365 0.40729-1.5885 0.24438-1.8736 0.0815-2.1994-0.0815-2.0772-0.28511-1.8328-0.44802-1.507v-0.0407l-1.0182-1.6292-1.3441-1.1812-1.5885-0.73314z"/>
     <path id="path152" d="m352.88 402.37-4.4395 0.4073 1.0997 0.12219 1.5477 0.85532 0.48876 0.61095 0.48875 1.7514-0.16292 1.0997-0.93678 1.7106-0.0815 0.16292-0.97751 1.0997-1.3848 1.3034-1.7921 1.5477-0.44803 0.36656-1.507 1.3441-1.0997 1.1812-0.73314 0.97751-0.85532 1.5885-0.24438 1.6292h12.667v-2.2809h-9.4086l0.97751-1.2626 0.93678-0.89605 1.7921-1.507 1.1404-1.0182 1.4663-1.3034 1.059-1.059 0.65168-0.8146 0.89605-1.5477 0.16292-0.44802 0.32584-1.8328-0.0407-0.61095-0.48876-1.7106z"/>
     <path id="path153" d="m348.52 400.82-1.1404 0.0815-1.7921 0.44803-1.4255 0.89605-0.65167 0.65168-0.8146 1.5477-0.40729 1.955 2.403 0.24438 0.16292-1.3441 0.85532-1.507 0.89606-0.61094 1.8328-0.4073 4.4395-0.4073-0.77387-0.61094-1.6292-0.69241z"/>
     <path id="path154" d="m367.79 402.37-4.3988 0.4073 1.059 0.12219 1.5477 0.85532 0.52949 0.61095 0.44803 1.7514-0.16292 1.0997-0.93678 1.7106-0.0815 0.16292-0.97752 1.0997-1.3848 1.3034-1.7921 1.5477-0.4073 0.36656-1.507 1.3441-1.1404 1.1812-0.73313 0.97751-0.8146 1.5885-0.28511 1.6292h12.667v-2.2809h-9.4086l1.0182-1.2626 0.93678-0.89605 1.7921-1.507 1.1404-1.0182 1.4255-1.3034 1.059-1.059 0.65167-0.8146 0.89606-1.5477 0.16291-0.44802 0.32584-1.8328-0.0407-0.61095-0.48875-1.7106z"/>
     <path id="path155" d="m363.43 400.82-1.1404 0.0815-1.7921 0.44803-1.4255 0.89605-0.61095 0.65168-0.85532 1.5477-0.4073 1.955 2.4031 0.24438 0.20364-1.3441 0.85533-1.507 0.89605-0.61094 1.8328-0.4073 4.3988-0.4073-0.77386-0.61094-1.6292-0.69241z"/>
     <path id="path156" d="m382.37 402.57-4.1544 0.20365 1.3441 0.32584 1.3848 1.2219 0.28511 0.52949 0.48875 1.3848 0.24438 1.955 0.0815 2.4438v1.2626l-0.16292 2.1994-0.36656 1.6699-0.57022 1.1812-1.0997 1.0997-1.6292 0.48876 3.6249 0.69241 1.1404-1.3441 0.81459-1.7921 0.36657-1.4255 0.24438-1.8736 0.0815-2.1587v-0.97751l-0.16292-1.955-0.28511-1.5885-0.36657-1.2626-0.81459-1.6292z"/>
     <path id="path157" d="m378.22 400.82h-0.0407l-1.8736 0.28511-1.5477 0.85533-0.12219 0.0815-1.1404 1.3441-0.8146 1.7514-0.4073 1.507-0.20364 1.8328-0.0815 2.1587v1.0182l0.16292 2.1587 0.36656 1.8736 0.57022 1.5477 0.77386 1.2219 0.93679 0.93679 1.5477 0.81459 1.8736 0.24438h0.0815l1.8736-0.28511 1.5477-0.85532 0.12219-0.0815-3.6249-0.69241-1.3441-0.32584-1.3848-1.2626-0.2851-0.48876-0.44803-1.4255-0.28511-1.9143-0.0815-2.4845 0.0407-1.4663 0.20365-2.118 0.4073-1.6699 0.57021-1.2219 0.89606-0.89605 1.7106-0.48876 4.1544-0.20365-1.4255-1.1404-0.8146-0.32584z"/>
    </g>
    <g fill="#0ff" fill-rule="evenodd">
     <path id="path158" d="m946.44 369.46h3.014z"/>
     <path id="path159" d="m927.5 369.3v0.12219l1.3034 0.0407 1.0182-0.0407 1.507-0.0407z"/>
     <path id="path160" d="m944.4 357.44h-5.7836l1.3034 0.0407z"/>
     <path id="path161" d="m948.96 357.24-4.5617 0.20365 1.4663 0.12219 0.81459 2.1587 0.93679 2.6474 0.48876 1.3848 0.65167 1.955 0.52949 1.955-0.12219 0.57022-1.3034 0.20365-2.1587 0.16292-0.48876 0.12219-0.0815 0.57021 0.4073 0.12219h0.44803l0.44803 0.0407h3.014l2.0772 0.0407 1.5885 0.0407h3.0955l0.0407-0.32584-0.0815-0.36656-1.3034-0.44803-0.93678-0.24438-0.77387-0.24438-0.77386-1.2219h-0.0407l-0.61095-1.6699-1.0997-3.1769z"/>
     <path id="path162" d="m944.56 345.47-3.2176 0.28511 0.20365 0.36657 1.8736 4.8061 0.32583 0.85532 1.1812 3.1362 0.44802 1.507-0.24438 0.0407-2.566 0.0815h-0.0407l6.4353 0.69241-3.1769-8.5532-0.4073-1.059z"/>
     <path id="path163" d="m942.28 341.64-0.61094 0.0407-0.28511 0.85532-0.77387 2.2809-0.65167 1.6699-0.97752 2.6474-0.57021 1.5477-1.955 5.4985-0.0815 0.24438-0.93678 2.3623-0.77387 2.2401-0.61095 1.6292-0.93678 2.4438-0.89605 1.955-1.2626 1.3441-1.8736 0.28511-0.48876 0.0407h-0.48876l-0.52948 0.16292-0.0815 0.40729 3.8286 0.0815 1.4663 0.0407 1.4255 0.0815 2.4031 0.0407 1.4663-0.0407 0.0407-0.28511-0.20365-0.36656-2.8511-0.24438-1.1404-0.20365-0.20365-0.65168 0.12219-0.52948 1.059-3.0547 1.7921-5.7022 0.36657-0.89605 1.5477-0.12219h5.7836l4.5617-0.20365-6.4353-0.69241-2.6474-0.0407-2.4031-0.0815-0.12219-0.0815 0.24438-0.65168 0.36657-1.1404 0.52949-1.5885 0.0815-0.24438 0.77386-2.118 1.059-2.6882 0.93679-2.1587 3.2176-0.28511-0.57022-1.5477-1.0182-2.2809z"/>
    </g>
    <g fill="#212830" fill-rule="evenodd">
     <path id="path164" d="m982.2 360.21h-22.238v1.8328h22.238z"/>
     <path id="path165" d="m982.2 350.56h-22.238v1.8328h22.238z"/>
     <path id="path166" d="m993.19 347.55-6.2316 3.0955 0.6924 1.3441 4.1137-1.8736z"/>
     <path id="path167" d="m993.19 347.55-1.4255 2.566 10.182 21.057-0.448-6.639z"/>
     <path id="path168" d="m1008.4 331.01h-1.507l-5.3763 33.521 0.448 6.639z"/>
     <path id="path169" d="m1027 341.6-6.9648 0.65168 1.7106 0.20364 2.4438 1.3034 0.8146 1.0182 0.7331 2.7289-0.2851 1.7106-1.4255 2.7289-0.1629 0.20365-1.507 1.7514-2.1994 2.0772-2.8104 2.403-0.6924 0.57022-2.3623 2.118-1.7921 1.8736-1.1405 1.507-1.3033 2.5252-0.4073 2.566h19.958v-3.5435h-14.826l1.5478-2.0365 1.507-1.3848 2.8103-2.4031 1.7921-1.5477 2.2809-2.118 1.6292-1.6699 1.059-1.2626 1.3848-2.403 0.2851-0.69241 0.4887-2.8918-0.081-0.97751-0.7739-2.7289z"/>
     <path id="path170" d="m1020.2 339.2-1.7514 0.0815-2.8103 0.73314-2.2809 1.4255-0.9775 1.0182-1.3033 2.4031-0.6517 3.0955 3.7879 0.36657 0.2851-2.118 1.344-2.3216 1.4256-1.0182 2.8511-0.61094 6.9648-0.65168-1.2219-0.97751-2.566-1.059z"/>
    </g>
    <g fill="#0ff" fill-rule="evenodd">
     <path id="path171" d="m936.13 416.99-5.8244 0.0815 2.1587 0.0407z"/>
     <path id="path172" d="m940.82 416.79-4.6839 0.20365h0.20365l2.6067 0.16292 1.1404 0.12219 0.52948-0.12219z"/>
     <path id="path173" d="m938.01 403.88-0.24438 0.20365 0.48876 0.57022 2.1179-0.4073-1.7921-0.24438z"/>
     <path id="path174" d="m928.23 391.09 1.9958 0.36657 1.8328 0.77387 0.48875 1.8736v5.4578l0.0815 2.5252v0.44802l0.0815 3.462 0.0407 2.8511 0.0407 2.1587 0.0407 1.507-0.0407 1.2219v0.77387l-0.20365 1.1812-0.81459 0.36657-2.7289 0.48875 0.0407 0.57022 1.2219-0.0407 5.8244-0.0815 4.6839-0.20365-0.28511-0.28511-1.2219-0.32583-0.6924-0.16292-2.1994-0.52949-0.16292-1.507 0.0407-0.97751 0.0407-0.77387-0.24438-9.4493v-1.1812l-0.0407-0.0815-0.0815-1.8736v-3.3398l0.0407-1.7106v-0.40729l-0.0407-2.3623v-0.28506l0.28511-0.12219 2.7696-0.24438z"/>
     <path id="path175" d="m928.72 390.27-0.44803 0.0407-0.12219 0.4073 4.073-0.36657h-1.1812z"/>
     <path id="path176" d="m940.9 389.95h-0.77386l-2.4438 0.12219-3.5435 0.20365-1.9143 0.0815-4.073 0.36657 0.0815 0.36656 10.793 0.0815 2.3216 0.36657 2.2401 0.85533 0.52949 0.44802 1.5477 1.9958 0.32584 0.69241 0.44803 2.4438-0.0407 0.77387-0.69241 2.3623-0.4073 0.65168-1.7921 1.6699-0.6924 0.32583-2.4438 0.48876-2.1179 0.4073 1.6292 0.81459 1.8328 0.24438 1.9958-0.20365 2.2809-0.77386 1.8736-1.4255 0.81459-0.97752 1.0997-2.1994 0.36657-2.4031-0.16292-1.5477-0.89605-2.403-1.0182-1.4663-1.955-1.4255-0.20365-0.12219-2.1994-0.61095z"/>
    </g>
    <g fill="#212830" fill-rule="evenodd">
     <path id="path177" d="m976.54 407.5h-22.238v1.8328h22.238z"/>
     <path id="path178" d="m976.54 397.89h-22.238v1.8328h22.238z"/>
     <path id="path179" d="m980.53 416.71 0.69241 0.12219 1.6292-0.0815z"/>
     <path id="path180" d="m997.76 416.38-8.3903 0.32584h3.7879l2.4438 0.0407 2.118 0.0815z"/>
     <path id="path181" d="m992.22 414.26-1.4256 0.0407-1.2219 0.0407 5.5392-0.0407z"/>
     <path id="path182" d="m997.92 411.25-0.48876 0.0407-0.24438 0.57021-1.0997 1.9958-0.97751 0.44803-5.5392 0.0407-8.1052 0.77386-0.93678 1.5885 2.3216 0.0407 1.9958 0.0815 4.521-0.12219 8.3903-0.32584 0.24438-2.403 0.28511-2.1994 0.0407-0.20365-0.0815-0.2851z"/>
     <path id="path183" d="m995.19 391.94-6.2316 0.12219 1.5885 0.24438 2.0772 1.2626 0.93679 1.3034 0.52948 2.4031v0.24437l-0.40729 2.3216-1.059 2.4438-0.77386 1.2219-1.3441 1.7514-1.7514 2.0772-2.2401 2.3216-1.955 1.9958-1.7514 1.8736-1.3441 1.5885 8.1052-0.77386h-0.65167l-2.4438-0.0407-2.6882-0.0815 1.5885-1.7921 1.3441-1.4663 0.4073-0.4073 2.0365-1.9143 2.1994-2.0772 1.9958-2.0365 1.507-1.6699 0.97751-1.3848 1.0997-2.2401 0.36656-2.3623-0.0407-0.61095-0.61094-2.3216z"/>
     <path id="path184" d="m989.85 389.87-1.9958 0.24438-2.2401 0.93679-1.3848 1.1404-1.3848 2.0772-0.36656 0.77387-0.61095 2.1994 0.16292 0.44802 0.32584 0.20365 0.28511-0.16292 0.52948-1.059 0.12219-0.28511 1.1404-2.1587 1.955-1.5477 0.12219-0.0407 2.4438-0.57022 6.2316-0.12219-0.69241-0.61095-2.118-1.0997z"/>
     <path id="path185" d="m1002 415.16 0.6924-1.5885 1.5884-0.6924 1.4663 0.65167 0.6109 1.6292-0.6516 1.6292-1.507 0.65168-1.5478-0.65168z"/>
     <path id="path186" d="m1019.3 404.89-0.1629 0.0407-0.9775 0.12219 1.507 0.0407z"/>
     <path id="path187" d="m1015 390.56-1.9958 1.5477-1.0183 1.3034-0.9775 2.1994-0.3258 2.5252 0.081 1.507 0.6924 2.3623 1.2626 1.9958 0.3258 0.36657 2.0365 1.4663 2.2809 0.48876 1.3033-0.0815 1.059-0.32584 0.2036-0.16292-0.2443-0.65167-1.507-0.0407-0.8961-0.0815-1.9957-1.2219-0.2444-0.36656-0.9368-2.118-0.3258-2.6882 0.1221-1.9958 0.5295-2.4438 0.9775-1.955 0.6517-0.73314 2.1587-0.81459z"/>
     <path id="path188" d="m1018.5 389.7-1.3033 0.0815-2.2401 0.77387 3.2176 0.0815h0.2851l2.3623 0.89605 0.8146 0.73314 1.3034 2.2401 0.081 0.32584 0.4888 2.2401 0.1629 2.8104-0.081 2.3623-0.3666 2.4845-0.611 2.3216-0.6109 1.507-1.2219 2.1994-1.507 2.0365-1.4663 1.3441-2.3216 1.3848-0.3258 0.16292-2.2809 0.77386-0.5295 0.12219-0.1221 0.44803 0.2443 0.44803h0.163l1.2626-0.16292 2.566-0.89606 1.8735-0.93678 1.955-1.3441 1.3034-1.1812 1.7106-2.0365 0.082-0.12219 1.2626-2.0365 1.059-2.4438 0.3258-0.97752 0.4888-2.403 0.1629-2.6882v-0.4073l-0.2444-2.6067-0.6109-2.2809-0.611-1.1812-1.6291-2.0772-0.5703-0.44803-2.0772-1.1812z"/>
     <path id="path189" d="m1039.2 404.89-0.1629 0.0407-0.9368 0.12219 1.4663 0.0407z"/>
     <path id="path190" d="m1034.9 390.56-1.9958 1.5477-1.0182 1.3034-0.9775 2.1994-0.3259 2.5252 0.1222 1.507 0.6517 2.3623 1.3034 1.9958 0.3258 0.36657 2.0365 1.4663 2.2401 0.48876 1.3034-0.0815 1.0589-0.32584 0.2037-0.16292-0.2444-0.65167-1.4663-0.0407-0.9367-0.0815-1.9958-1.2219-0.2444-0.36656-0.9368-2.118-0.2851-2.6882 0.082-1.9958 0.5295-2.4438 0.9775-1.955 0.6924-0.73314 2.1179-0.81459z"/>
     <path id="path191" d="m1038.4 389.7-1.3034 0.0815-2.2401 0.77387 3.2176 0.0815h0.3259l2.3216 0.89605 0.8146 0.73314 1.3033 2.2401 0.082 0.32584 0.4887 2.2401 0.163 2.8104-0.081 2.3623-0.3666 2.4845-0.6109 2.3216-0.611 1.507-1.2219 2.1994-1.507 2.0365-1.4662 1.3441-2.3216 1.3848-0.3259 0.16292-2.2808 0.77386-0.5295 0.12219-0.1222 0.44803 0.2851 0.44803h0.1629l1.2219-0.16292 2.566-0.89606 1.8736-0.93678 1.9957-1.3441 1.3034-1.1812 1.6699-2.0365 0.082-0.12219 1.2626-2.0365 1.0589-2.4438 0.3259-0.97752 0.5295-2.403 0.1629-2.6882-0.041-0.4073-0.2444-2.6067-0.611-2.2809-0.6109-1.1812-1.5885-2.0772-0.6109-0.44803-2.0772-1.1812z"/>
     <path id="path192" d="m1051.6 413.98-0.8961 0.36657-0.3666 0.77386 0.8961 1.3034 0.1222 0.12219 5.9058-0.0407-1.6292-0.36656-2.3623-1.3848z"/>
     <path id="path193" d="m1057.2 401.72-1.8736 1.507 0.4888 0.81459 1.0182-0.73313 2.1994-0.69241z"/>
     <path id="path194" d="m1060.3 400.62h-0.4888l2.8918 0.44803z"/>
     <path id="path195" d="m1054.3 391.29-1.507 1.7514-1.2627 2.4845 0.6924 0.36656 1.5885-2.1587 1.8328-1.3848 2.0365-0.44803z"/>
     <path id="path196" d="m1058.9 389.74-2.0365 0.24438-2.1994 1.059-0.3258 0.24437 3.3805 0.61095 0.9368 0.0815 2.1179 1.0182 0.4481 0.48876 0.7331 2.3216-0.896 2.2401-0.1222 0.16292-1.5478 1.7106-2.1179 1.7921 1.8328 0.89605 1.4663 0.24438 1.9143 1.4663 0.9775 1.955 0.3666 2.566-0.041 1.0997-0.6517 2.3623-1.3034 1.9958-0.2444 0.24438-2.0364 1.4663-2.2809 0.48875-5.9058 0.0407 2.0772 0.65168 2.8511 0.24438 0.9368-0.0407 2.4845-0.4073 2.1994-0.97751 1.8736-1.4663 0.2443-0.20365 1.507-1.955 0.8961-2.2401 0.2851-2.4438-0.082-1.3848-0.7738-2.3623-0.5702-0.93678-1.7922-1.6292-0.7331-0.32584-2.8918-0.44803 2.1587-1.7921 1.4255-1.6699 0.448-0.69241 0.5703-2.3623-0.3259-1.4256-1.6699-1.9143-1.059-0.57022z"/>
     <path id="path197" d="m1069.5 416.71 0.6924 0.12219 1.6292-0.0815z"/>
     <path id="path198" d="m1086.8 416.38-8.3904 0.32584h3.7879l2.4438 0.0407 2.1179 0.0815z"/>
     <path id="path199" d="m1081.2 414.26-1.4255 0.0407-1.2219 0.0407 5.5392-0.0407z"/>
     <path id="path200" d="m1086.9 411.25-0.4888 0.0407-0.2444 0.57021-1.0997 1.9958-0.9775 0.44803-5.5392 0.0407-8.1052 0.77386-0.9368 1.5885 2.3216 0.0407 1.9957 0.0815 4.521-0.12219 8.3904-0.32584 0.2443-2.403 0.2851-2.1994 0.041-0.20365-0.082-0.2851z"/>
     <path id="path201" d="m1084.2 391.94-6.2724 0.12219 1.6292 0.24438 2.0772 1.2626 0.9368 1.3034 0.5295 2.4031v0.24437l-0.4073 2.3216-1.059 2.4438-0.7739 1.2219-1.344 1.7514-1.7921 2.0772-2.1995 2.3216-1.955 1.9958-1.7514 1.8736-1.344 1.5885 8.1052-0.77386h-0.6517l-2.4438-0.0407-2.6881-0.0815 1.5884-1.7921 1.3441-1.4663 0.4073-0.4073 2.0365-1.9143 2.1994-2.0772 1.9957-2.0365 1.507-1.6699 0.9776-1.3848 1.0589-2.2401 0.4073-2.3623-0.041-0.61095-0.6109-2.3216z"/>
     <path id="path202" d="m1078.8 389.87-1.9958 0.24438-2.2401 0.93679-1.3848 1.1404-1.3848 2.0772-0.3666 0.77387-0.6109 2.1994 0.1629 0.44802 0.3258 0.20365 0.2851-0.16292 0.5295-1.059 0.1222-0.28511 1.1404-2.1587 1.9551-1.5477 0.1221-0.0407 2.4031-0.57022 6.2724-0.12219-0.6924-0.61095-2.118-1.0997z"/>
     <path id="path203" d="m1096.8 391.78-2.1587 1.8328-1.4255 1.1404-1.3848 0.89606-0.1629 0.32583 0.2036 0.32584 0.3666 0.16292 0.2851-0.0815 1.7514-1.0997 3.0954-2.1587z"/>
     <path id="path204" d="m1099.4 389.87-0.611 0.0407-1.1404 1.059-0.8146 0.81459 0.5702 1.3441v1.9958l-0.041 1.9143 0.041 2.8511-0.041 4.8876v4.7246l-0.041 1.3848-0.041 2.118v1.2626l-0.2036 0.85532-1.955 0.61095-0.9368 0.28511-0.1222 0.48875v0.32584h9.5307v-0.28511l-0.2036-0.57021-0.9775-0.28511-1.4256-0.32584-0.7738-0.36657-0.1629-0.97751v-0.97751l0.041-1.3441v-1.8328l0.1222-18.532-0.1222-1.2626z"/>
     <path id="path205" d="m1116.7 391.78-2.1586 1.8328-1.4256 1.1404-1.3848 0.89606-0.1629 0.32583 0.2036 0.32584 0.3666 0.16292 0.3259-0.0815 1.7106-1.0997 3.1362-2.1587z"/>
     <path id="path206" d="m1119.3 389.87-0.6516 0.0407-1.1405 1.059-0.8146 0.81459 0.611 1.3441-0.041 1.9958v1.9143l0.041 2.8511-0.041 4.8876-0.041 1.7106v4.3988l-0.081 2.118v1.2626l-0.2037 0.85532-1.955 0.61095-0.8961 0.28511-0.1629 0.48875 0.041 0.32584h9.49v-0.28511l-0.2037-0.57021-0.9775-0.28511-1.4255-0.32584-0.7739-0.36657-0.1629-0.97751v-0.97751l0.041-1.3441v-1.8328l0.1222-18.532-0.1222-1.2626z"/>
     <path id="path207" d="m1132.1 413.85-1.1404 0.4073-0.4481 0.73313 0.1629 0.69241 1.2627 0.89605 5.8243-0.24438-1.3033-0.16291-0.611-0.12219-1.4255-0.93679-1.6292-1.059z"/>
     <path id="path208" d="m1142.3 401.07-5.0912 1.3441h0.2037l2.3623 0.52949 1.9957 1.4255 0.3259 0.36657 1.1811 2.0772 0.3666 2.5252v0.6924l-0.6517 2.3623-0.1629 0.28511-1.4663 2.0365-2.0364 1.2626-1.5478 0.36656-5.8243 0.24438 2.1586 0.69241 3.014 0.24438 2.4031-0.52949 0.8961-0.32584 2.1586-1.1812 0.2037-0.16292 1.7921-1.7514 1.0997-2.2809 0.1222-0.4073 0.3258-2.5252v-0.32584l-0.448-2.4845-0.2851-0.6924-1.0997-2.0772-0.082-0.0815z"/>
     <path id="path209" d="m1138.1 399.76-2.2808 0.20365-1.7921 0.6924 7.983 0.20365-2.4845-0.97751z"/>
     <path id="path210" d="m1144.1 392.84-6.7204 0.0815 0.7739 0.0407 2.2401 0.0815 1.0182-0.0407z"/>
     <path id="path211" d="m1137.3 390.35-2.6067 0.0407 5.1727 0.0815z"/>
     <path id="path212" d="m1134.1 390.31-0.4887 0.36657 6.3538-0.20365h-0.081l-5.1727-0.0815-0.1222-0.0407z"/>
     <path id="path213" d="m1144 389.66-0.8961 0.52949-0.4887 0.12219-2.6475 0.16292-6.3538 0.20365-0.082 0.16292-0.2444 1.7921-0.1221 3.5435-0.1222 1.4663 0.041 1.0182-0.2036 1.955-0.163 2.118-0.041 0.52949 0.041 0.57021 0.2851 0.0815 0.3259-0.12219 0.3258-0.12219 1.3848-0.85532 2.1587-0.4073 5.0912-1.3441-0.3258-0.20365-7.983-0.20365 0.2443-3.8286 0.2037-2.566 0.081-1.0182 0.1222-0.20365v-0.0407l2.6882-0.0815 6.7204-0.0815 0.2036-0.61094 0.1222-1.3848 0.163-0.89606-0.082-0.24438z"/>
     <path id="path214" d="m1151.2 413.98-0.896 0.36657-0.3666 0.77386 0.896 1.3034 0.1222 0.12219 5.9058-0.0407-1.6292-0.36656-2.403-1.3848z"/>
     <path id="path215" d="m1156.8 401.72-1.8735 1.507 0.4887 0.81459 1.0183-0.73313 2.1994-0.69241z"/>
     <path id="path216" d="m1159.9 400.62h-0.5295l2.9326 0.44803z"/>
     <path id="path217" d="m1153.9 391.29-1.507 1.7514-1.2626 2.4845 0.6517 0.36656 1.6291-2.1587 1.8329-1.3848 2.0365-0.44803z"/>
     <path id="path218" d="m1158.5 389.74-2.0365 0.24438-2.1994 1.059-0.3258 0.24437 3.3806 0.61095 0.9368 0.0815 2.1179 1.0182 0.4073 0.48876 0.7331 2.3216-0.8553 2.2401-0.1222 0.16292-1.5477 1.7106-2.118 1.7921 1.8329 0.89605 1.4662 0.24438 1.9143 1.4663 0.9776 1.955 0.3665 2.566-0.081 1.0997-0.611 2.3623-1.3033 1.9958-0.2444 0.24438-2.0365 1.4663-2.2809 0.48875-5.9058 0.0407 2.0772 0.65168 2.8511 0.24438 0.9368-0.0407 2.4845-0.4073 2.1587-0.97751 1.9143-1.4663 0.2036-0.20365 1.507-1.955 0.9368-2.2401 0.2851-2.4438-0.1222-1.3848-0.7331-2.3623-0.5702-0.93678-1.7921-1.6292-0.7331-0.32584-2.9326-0.44803 2.1994-1.7921 1.4256-1.6699 0.448-0.69241 0.5702-2.3623-0.3258-1.4256-1.67-1.9143-1.0589-0.57022z"/>
     <path id="path219" d="m644.59 491.4-1.4663 0.48875 1.2626-0.97751z"/>
    </g>
    <path id="path220" d="m644.47 491.16 279.94-145.85h2.4845" fill="none" stroke="#212830" stroke-linecap="round" stroke-linejoin="round" stroke-width=".45203"/>
    <path id="path221" d="m769.59 265.31h-9.2864l-78.69 99.421" fill="none" stroke="#991b1e" stroke-linecap="round" stroke-linejoin="round" stroke-width=".45203"/>
    <g fill="#991b1e" fill-rule="evenodd">
     <path id="path222" d="m802.38 265.84-3.5842 0.20365 1.1404 0.0407 0.93678 0.44803 1.059 1.0182 0.48876 0.65168 0.97752 1.4663 2.0365 3.2584h2.6067l-2.7289-4.2359-0.65167-0.93678-1.0182-1.1404z"/>
     <path id="path223" d="m805.68 258.72-4.3581 0.40729 1.2626 0.12219 1.2626 0.57022 0.32584 0.36657 0.48876 1.4663-0.44803 1.3848-1.1812 0.93678-0.48876 0.12219-1.7106 0.16292h-4.3988l9.2456 0.16292 0.77387-1.2219 0.2851-1.5477-0.0815-0.89606-0.52948-1.4663z"/>
     <path id="path224" d="m801.24 257.41h-6.8833v15.518h2.0772v-6.8833h2.3623l3.5842-0.20365 0.61095-0.0815 1.5477-0.52949 1.1404-0.81459-9.2456-0.16292v-5.132h4.8876l4.3581-0.40729-1.3034-0.89606-1.3034-0.32584z"/>
     <path id="path225" d="m817.57 258.76-3.3398 0.16291 1.0997 0.24438 1.0997 1.0182 0.24438 0.40729 0.36657 1.1404 0.20365 1.5477 0.0815 1.9958v0.97752l-0.16292 1.7921-0.28511 1.3441-0.44803 0.97751-0.85532 0.85533-1.3441 0.40729 2.9325 0.57022 0.89605-1.0997 0.65168-1.4255 0.32584-1.1812 0.20364-1.507 0.0407-1.7106v-0.81459l-0.12219-1.5885-0.20364-1.2626-0.32584-1.0182-0.65168-1.3034z"/>
     <path id="path226" d="m814.23 257.33-1.5477 0.24438-1.2219 0.69241-0.12219 0.0407-0.89605 1.0997-0.69241 1.4255-0.2851 1.2219-0.20365 1.4663-0.0815 1.7514 0.0407 0.8146 0.12219 1.7514 0.32584 1.4663 0.44802 1.2626 0.61095 1.0182 0.73313 0.73314 1.2626 0.65168 1.507 0.20364h0.0815l1.507-0.24437 1.2626-0.65168 0.0815-0.0815-2.9325-0.57022-1.059-0.2851-1.1404-0.97752-0.20365-0.4073-0.36657-1.1404-0.24437-1.5477-0.0815-1.9958 0.0407-1.2219 0.16291-1.7106 0.32584-1.3441 0.44803-0.97751 0.73314-0.69241 1.3848-0.4073 3.3398-0.16291-1.1404-0.89606-0.65167-0.28511z"/>
     <path id="path227" d="m822.29 272.93v-2.1994h2.1587v2.1994z"/>
     <path id="path228" d="m829.22 268.69-1.9958 0.16292 0.0815 0.44803 0.48876 1.507 0.97751 1.1812 3.4213-0.36657-0.57021-0.0815-1.3441-0.65167-0.52948-0.65168z"/>
     <path id="path229" d="m836.1 264.05-3.9101 0.28511 1.0997 0.12219 1.2626 0.81459 0.65167 0.93679 0.28511 1.6292-0.20365 1.4663-0.77386 1.2626-0.8146 0.69241-1.507 0.36656-3.4213 0.36657 0.4073 0.32584 1.3848 0.65168 1.6292 0.20364 1.5885-0.20364 1.3848-0.61095 1.0997-1.059 0.44802-0.61095 0.57022-1.4255 0.20365-1.5885-0.0407-0.89606-0.44803-1.507z"/>
     <path id="path230" d="m832.68 262.63-1.4663 0.24438-1.4663 0.73314 6.3538 0.44802-0.48876-0.44802-1.3441-0.73314z"/>
     <path id="path231" d="m836.75 257.62h-7.6979l-1.4663 7.983 1.7514 0.20365 1.1812-1.059 0.12219-0.0815 1.5477-0.32584 3.9101-0.28511-6.3538-0.44802 0.85532-4.1544h6.1502z"/>
     <path id="path232" d="m847.67 258.76-3.3806 0.16291 1.0997 0.24438 1.1404 1.0182 0.20365 0.40729 0.36657 1.1404 0.24438 1.5477 0.0815 1.9958-0.0407 0.97752-0.12219 1.7921-0.28511 1.3441-0.44803 0.97751-0.89605 0.85533-1.3034 0.40729 2.8918 0.57022 0.89605-1.0997 0.69241-1.4255 0.2851-1.1812 0.20365-1.507 0.0815-1.7106-0.0407-0.81459-0.0815-1.5885-0.24437-1.2626-0.32584-1.0182-0.65168-1.3034z"/>
     <path id="path233" d="m844.33 257.33h-0.0407l-1.5477 0.24438-1.2219 0.69241-0.0815 0.0407-0.93678 1.0997-0.65168 1.4255-0.32583 1.2219-0.20365 1.4663-0.0407 1.7514v0.8146l0.12219 1.7514 0.32583 1.4663 0.44803 1.2626 0.61095 1.0182 0.77386 0.73314 1.2219 0.65168 1.5477 0.20364h0.0407l1.507-0.24437 1.2626-0.65168 0.0815-0.0815-2.8918-0.57022-1.0997-0.2851-1.0997-0.97752-0.24438-0.4073-0.36657-1.1404-0.24438-1.5477-0.0407-1.9958v-1.2219l0.16292-1.7106 0.32584-1.3441 0.48876-0.97751 0.73313-0.69241 1.3441-0.4073 3.3806-0.16291-1.1812-0.89606-0.65167-0.28511z"/>
     <path id="path234" d="m859.68 258.76-3.3806 0.16291 1.1404 0.24438 1.0997 1.0182 0.24438 0.40729 0.36657 1.1404 0.20365 1.5477 0.0815 1.9958v0.97752l-0.16292 1.7921-0.28511 1.3441-0.44803 0.97751-0.89605 0.85533-1.3034 0.40729 2.8918 0.57022 0.93678-1.0997 0.65168-1.4255 0.32584-1.1812 0.16292-1.507 0.0815-1.7106v-0.81459l-0.12219-1.5885-0.24438-1.2626-0.28511-1.0182-0.65168-1.3034z"/>
     <path id="path235" d="m856.34 257.33h-0.0407l-1.507 0.24438-1.2626 0.69241-0.0815 0.0407-0.93679 1.0997-0.65167 1.4255-0.32584 1.2219-0.16292 1.4663-0.0815 1.7514v0.8146l0.16292 1.7514 0.28511 1.4663 0.48875 1.2626 0.61095 1.0182 0.73314 0.73314 1.2626 0.65168 1.507 0.20364h0.0407l1.5477-0.24437 1.2219-0.65168 0.0815-0.0815-2.8918-0.57022-1.0997-0.2851-1.0997-0.97752-0.24438-0.4073-0.36656-1.1404-0.20365-1.5477-0.0815-1.9958 0.0407-1.2219 0.16292-1.7106 0.32583-1.3441 0.44803-0.97751 0.73314-0.69241 1.3441-0.4073 3.3806-0.16291-1.1404-0.89606-0.6924-0.28511z"/>
     <path id="path236" d="m871.7 258.76-3.3398 0.16291 1.0997 0.24438 1.1404 1.0182 0.20365 0.40729 0.36656 1.1404 0.24438 1.5477 0.0407 1.9958v0.97752l-0.16292 1.7921-0.2851 1.3441-0.4073 0.97751-0.89606 0.85533-1.3441 0.40729 2.9325 0.57022 0.89606-1.0997 0.6924-1.4255 0.28511-1.1812 0.20365-1.507 0.0407-1.7106v-0.81459l-0.12219-1.5885-0.20365-1.2626-0.32584-1.0182-0.65167-1.3034z"/>
     <path id="path237" d="m868.36 257.33-1.5477 0.24438-1.2219 0.69241-0.0815 0.0407-0.93678 1.0997-0.69241 1.4255-0.28511 1.2219-0.20365 1.4663-0.0815 1.7514 0.0407 0.8146 0.12219 1.7514 0.32584 1.4663 0.44803 1.2626 0.61094 1.0182 0.73314 0.73314 1.2626 0.65168 1.507 0.20364h0.0815l1.507-0.24437 1.2626-0.65168 0.0815-0.0815-2.9325-0.57022-1.059-0.2851-1.1404-0.97752-0.20365-0.4073-0.36657-1.1404-0.24438-1.5477-0.0815-1.9958 0.0407-1.2219 0.16292-1.7106 0.32584-1.3441 0.44803-0.97751 0.73313-0.69241 1.3848-0.4073 3.3398-0.16291-1.1404-0.89606-0.65168-0.28511z"/>
     <path id="path238" d="m680.39 363.76 2.4438 1.955-7.0055 6.3131z"/>
    </g>
    <g fill="none" stroke="#212830" stroke-linecap="round" stroke-linejoin="round" stroke-width=".45203">
     <path id="path239" d="m424.81 332.31v-155.38"/>
     <path id="path240" d="m734.52 332.31v-155.38"/>
     <path id="path241" d="m434.14 183.16h89.361"/>
     <path id="path242" d="m725.23 183.16h-89.402"/>
    </g>
    <g fill="#212830" fill-rule="evenodd">
     <path id="path243" d="m434.14 181.57v3.1362l-9.3271-1.5477z"/>
     <path id="path244" d="m725.23 181.57v3.1362l9.2864-1.5477z"/>
     <path id="path245" d="m549.65 178.36-1.3441 0.73313v1.8328l0.57021-0.24438 1.4255-0.73313 0.65168-0.4073 1.1404-0.89606z"/>
     <path id="path246" d="m554.01 175.18h-1.2219l-0.57022 0.89605-1.1404 1.1812-0.20365 0.20365-1.2219 0.89606 2.4438 0.2851v12.137h1.9143z"/>
     <path id="path247" d="m559.91 190.78v-2.1994h2.1994v2.1994z"/>
     <path id="path248" d="m573.27 176.6-3.3806 0.16292 1.1404 0.24438 1.0997 1.0182 0.24438 0.4073 0.36657 1.1404 0.20365 1.5477 0.0815 1.9958-0.0407 0.97751-0.12219 1.7921-0.28511 1.3441-0.44803 0.97751-0.89605 0.85533-1.3034 0.4073 2.8918 0.57021 0.93678-1.0997 0.65168-1.4255 0.28511-1.1812 0.20365-1.507 0.0815-1.7106v-0.8146l-0.12219-1.5885-0.24438-1.2626-0.32584-1.0182-0.61095-1.3034z"/>
     <path id="path249" d="m569.93 175.18h-0.0407l-1.507 0.24438-1.2626 0.6924-0.0815 0.0407-0.93679 1.0997-0.65167 1.4255-0.32584 1.2219-0.20365 1.4663-0.0407 1.7514v0.81459l0.16292 1.7514 0.28511 1.4663 0.44802 1.2626 0.61095 1.0182 0.77387 0.73313 1.2626 0.65168 1.507 0.20365h0.0407l1.5477-0.24438 1.2219-0.65168 0.0815-0.0815-2.8918-0.57021-1.0997-0.28511-1.0997-0.97752-0.24438-0.40729-0.36656-1.1404-0.20365-1.5477-0.0815-1.9958v-1.2219l0.20365-1.7106 0.28511-1.3441 0.48875-0.97751 0.73314-0.69241 1.3441-0.40729 3.3806-0.16292-1.1404-0.89606-0.6924-0.2851z"/>
     <path id="path250" d="m585.29 176.6-3.3398 0.16292 1.0997 0.24438 1.0997 1.0182 0.24438 0.4073 0.36656 1.1404 0.20365 1.5477 0.0815 1.9958v0.97751l-0.16292 1.7921-0.2851 1.3441-0.44803 0.97751-0.85533 0.85533-1.3441 0.4073 2.9325 0.57021 0.89606-1.0997 0.65167-1.4255 0.32584-1.1812 0.20365-1.507 0.0407-1.7106v-0.8146l-0.12219-1.5885-0.20365-1.2626-0.32584-1.0182-0.65167-1.3034z"/>
     <path id="path251" d="m581.95 175.18-1.5477 0.24438-1.2626 0.6924-0.0815 0.0407-0.89605 1.0997-0.69241 1.4255-0.28511 1.2219-0.20365 1.4663-0.0815 1.7514 0.0407 0.81459 0.12219 1.7514 0.28511 1.4663 0.48876 1.2626 0.61094 1.0182 0.73314 0.73313 1.2626 0.65168 1.507 0.20365h0.0407l1.5477-0.24438 1.2219-0.65168 0.12219-0.0815-2.9325-0.57021-1.059-0.28511-1.1404-0.97752-0.20365-0.40729-0.4073-1.1404-0.20365-1.5477-0.0815-1.9958 0.0407-1.2219 0.16292-1.7106 0.32584-1.3441 0.44803-0.97751 0.73313-0.69241 1.3848-0.40729 3.3398-0.16292-1.1404-0.89606-0.65168-0.2851z"/>
     <path id="path252" d="m597.34 176.6-3.3806 0.16292 1.0997 0.24438 1.1404 1.0182 0.20365 0.4073 0.36657 1.1404 0.24438 1.5477 0.0815 1.9958-0.0407 0.97751-0.12219 1.7921-0.28511 1.3441-0.44803 0.97751-0.89605 0.85533-1.3034 0.4073 2.8918 0.57021 0.89605-1.0997 0.69241-1.4255 0.28511-1.1812 0.20364-1.507 0.0815-1.7106-0.0407-0.8146-0.0815-1.5885-0.24437-1.2626-0.32584-1.0182-0.65168-1.3034z"/>
     <path id="path253" d="m594 175.18h-0.0407l-1.5477 0.24438-1.2219 0.6924-0.0815 0.0407-0.93678 1.0997-0.65168 1.4255-0.32583 1.2219-0.20365 1.4663-0.0407 1.7514v0.81459l0.12219 1.7514 0.32583 1.4663 0.44803 1.2626 0.61095 1.0182 0.77386 0.73313 1.2219 0.65168 1.5477 0.20365h0.0407l1.507-0.24438 1.2626-0.65168 0.0815-0.0815-2.8918-0.57021-1.0997-0.28511-1.0997-0.97752-0.24438-0.40729-0.36657-1.1404-0.24437-1.5477-0.0407-1.9958v-1.2219l0.16291-1.7106 0.32584-1.3441 0.48876-0.97751 0.73313-0.69241 1.3441-0.40729 3.3806-0.16292-1.1812-0.89606-0.65167-0.2851z"/>
     <path id="path254" d="m609.36 176.6-3.3806 0.16292 1.1404 0.24438 1.0997 1.0182 0.24437 0.4073 0.36657 1.1404 0.20365 1.5477 0.0815 1.9958v0.97751l-0.16292 1.7921-0.28511 1.3441-0.44802 0.97751-0.89606 0.85533-1.3034 0.4073 2.8918 0.57021 0.93678-1.0997 0.65168-1.4255 0.32584-1.1812 0.16292-1.507 0.0815-1.7106v-0.8146l-0.12219-1.5885-0.24438-1.2626-0.28511-1.0182-0.65167-1.3034z"/>
     <path id="path255" d="m606.02 175.18h-0.0407l-1.507 0.24438-1.2626 0.6924-0.0815 0.0407-0.93679 1.0997-0.65167 1.4255-0.32584 1.2219-0.16292 1.4663-0.0815 1.7514v0.81459l0.16292 1.7514 0.28511 1.4663 0.44803 1.2626 0.65167 1.0182 0.73314 0.73313 1.2626 0.65168 1.507 0.20365h0.0407l1.5477-0.24438 1.2219-0.65168 0.0815-0.0815-2.8918-0.57021-1.0997-0.28511-1.0997-0.97752-0.24438-0.40729-0.36656-1.1404-0.20365-1.5477-0.0815-1.9958 0.0407-1.2219 0.16292-1.7106 0.32584-1.3441 0.44802-0.97751 0.73314-0.69241 1.3441-0.40729 3.3806-0.16292-1.1404-0.89606-0.69241-0.2851z"/>
    </g>
    <path id="path256" d="m533.64 401.64 1.8736 1.3441 1.955 1.2626 1.955 1.2219 2.0365 1.1812" fill="none" stroke="#212830" stroke-linecap="round" stroke-linejoin="round" stroke-width=".45203"/>
    <path id="path257" d="m617.87 406.65 2.0365-1.1812 1.955-1.2219 1.955-1.2626 1.8736-1.3441" fill="none" stroke="#212830" stroke-linecap="round" stroke-linejoin="round" stroke-width=".45203"/>
    <g fill="#212830" fill-rule="evenodd">
     <path id="path258" d="m542.11 405.26-1.3441 2.8104 9.042 2.6474z"/>
     <path id="path259" d="m618.6 408.07-1.3848-2.8104-7.6572 5.4578z"/>
     <path id="path260" d="m566.51 411.94h-0.89605l-4.2766 6.028v1.059h4.0322v2.2401h1.1404v-2.2401h1.2626v-1.059h-5.2949l2.8918-4.1952z"/>
     <path id="path261" d="m566.51 411.94-1.1404 1.8328v4.1952h-2.8918 4.0322z"/>
     <path id="path262" d="m570.13 418.7-1.1812 0.12219 0.0407 0.28511 0.28511 0.89605 0.57022 0.69241 2.0772-0.20365-0.32584-0.0407-0.8146-0.4073-0.32583-0.36657z"/>
     <path id="path263" d="m574.29 415.93-2.3623 0.16292 0.65167 0.0815 0.77387 0.48875 0.36656 0.57022 0.16292 0.97751-0.12219 0.85533-0.44802 0.77386-0.48876 0.4073-0.89605 0.24438-2.0772 0.20365 0.28511 0.20365 0.81459 0.40729 0.97752 0.12219 0.93678-0.12219 0.85532-0.40729 0.65168-0.61095 0.24438-0.36657 0.36657-0.85532 0.12219-0.97752-0.0407-0.52948-0.24438-0.89606z"/>
     <path id="path264" d="m572.21 415.08-0.89605 0.16292-0.85532 0.44803 3.8286 0.24438-0.32584-0.28511-0.81459-0.4073z"/>
     <path id="path265" d="m574.66 412.06h-4.6025l-0.89606 4.8061 1.059 0.12219 0.6924-0.65168 0.0815-0.0407 0.93679-0.20364 2.3623-0.16292-3.8286-0.24438 0.48875-2.5252h3.7064z"/>
     <path id="path266" d="m576.81 421.27v-1.3034h1.3034v1.3034z"/>
     <path id="path267" d="m584.8 412.76-1.9958 0.12219 0.65167 0.12219 0.69241 0.61094 0.12219 0.24438 0.20365 0.69241 0.16292 0.93678 0.0407 1.1812-0.0407 0.61095-0.0815 1.059-0.16292 0.8146-0.24438 0.57021-0.57022 0.52949-0.77386 0.24438 1.7514 0.32584 0.52948-0.65168 0.4073-0.85532 0.20365-0.69241 0.0815-0.89605 0.0407-1.059v-0.48875l-0.0407-0.93679-0.16292-0.77386-0.16292-0.61095-0.4073-0.77386z"/>
     <path id="path268" d="m582.8 411.9-0.93679 0.16292-0.73313 0.4073-0.0407 0.0407-0.57022 0.65167-0.4073 0.85533-0.20364 0.73313-0.0815 0.89606-0.0407 1.0182v0.48876l0.0815 1.059 0.16291 0.89606 0.28511 0.73313 0.36657 0.61095 0.44803 0.44803 0.77386 0.36656 0.89606 0.16292h0.0407l0.89605-0.16292 0.77387-0.40729 0.0407-0.0407-1.7514-0.32584-0.65168-0.16292-0.65167-0.61095-0.16292-0.24438-0.20365-0.6924-0.12219-0.93679-0.0815-1.1812 0.0407-0.73313 0.0815-1.0182 0.20365-0.81459 0.2851-0.57022 0.44803-0.44802 0.8146-0.20365 1.9958-0.12219-0.6924-0.52949-0.4073-0.16292z"/>
     <path id="path269" d="m592.05 412.76-2.0365 0.12219 0.65168 0.12219 0.6924 0.61094 0.12219 0.24438 0.24438 0.69241 0.12219 0.93678 0.0407 1.1812v0.61095l-0.12219 1.059-0.16292 0.8146-0.24438 0.57021-0.52948 0.52949-0.8146 0.24438 1.7514 0.32584 0.57022-0.65168 0.36656-0.85532 0.20365-0.69241 0.12219-0.89605 0.0407-1.059-0.0407-0.48875-0.0407-0.93679-0.16292-0.77386-0.16292-0.61095-0.40729-0.77386z"/>
     <path id="path270" d="m590.01 411.9-0.93678 0.16292-0.73314 0.4073-0.0407 0.0407-0.57021 0.65167-0.4073 0.85533-0.16292 0.73313-0.12219 0.89606-0.0407 1.0182v0.48876l0.0815 1.059 0.20365 0.89606 0.24438 0.73313 0.36656 0.61095 0.48876 0.44803 0.73314 0.36656 0.89605 0.16292h0.0407l0.89606-0.16292 0.77386-0.40729 0.0407-0.0407-1.7514-0.32584-0.65167-0.16292-0.65168-0.61095-0.16292-0.24438-0.20365-0.6924-0.12219-0.93679-0.0407-1.1812v-0.73313l0.12219-1.0182 0.16292-0.81459 0.28511-0.57022 0.44803-0.44802 0.81459-0.20365 2.0365-0.12219-0.73314-0.52949-0.36656-0.16292z"/>
     <path id="path271" d="m595.02 412.31-0.24438 0.24438-0.28511 1.0182 0.0407 0.32584 0.48876 0.89605 0.24438 0.24438 0.97751 0.28511 0.32584-0.0407 0.93678-0.48876-1.2626-0.16291-0.73313-0.32584-0.32584-0.73314 0.32584-0.77386 0.73313-0.32584z"/>
     <path id="path272" d="m596.24 411.78-0.32584 0.0407-0.89605 0.48876 1.2219 0.16292 0.77387 0.32584 0.2851 0.77386-0.2851 0.73314-0.77387 0.32584 1.2626 0.16291 0.20365-0.24437 0.28511-0.97752-0.0407-0.36657-0.44803-0.89605-0.2851-0.20365z"/>
    </g>
    <g fill="none" stroke="#212830" stroke-linecap="round" stroke-linejoin="round" stroke-width=".45203">
     <path id="path273" d="m552.21 534.25-1.507-1.7514-1.5477-1.7514-1.5885-1.7106-1.6292-1.6699"/>
     <path id="path274" d="m552.21 534.21h9.2864"/>
     <path id="path275" d="m539.1 521.1-2.2809-1.8736-2.3216-1.7921-2.3623-1.7106-2.4438-1.6699-2.4438-1.5885-2.5252-1.5477-2.5252-1.4663-2.6067-1.3848"/>
    </g>
    <g fill="#212830" fill-rule="evenodd">
     <path id="path276" d="m540.12 519.92-2.0772 2.3216 7.9016 5.132z"/>
     <path id="path277" d="m518.94 509.45 1.3034-2.8104-9.042-2.5252z"/>
     <path id="path278" d="m569.97 530.18-2.1587 0.20365 0.52949 0.0815 0.73313 0.4073 0.28511 0.2851 0.20365 0.85533-0.0815 0.52949-0.44803 0.85532-0.0407 0.0407-0.44802 0.52949-0.69241 0.65167-0.85532 0.73314-0.20365 0.16292-0.73314 0.6924-0.57021 0.57022-0.32584 0.44803-0.4073 0.77386-0.12219 0.8146h6.1095v-1.0997h-4.5617l0.48876-0.65167 0.44803-0.4073 0.89605-0.73314 0.52949-0.48875 0.73313-0.65168 0.48876-0.52948 0.32584-0.36657 0.40729-0.73314 0.0815-0.24438 0.16292-0.85532v-0.32584l-0.24438-0.81459z"/>
     <path id="path279" d="m567.85 529.45-0.52948 0.0407-0.89606 0.20364-0.6924 0.44803-0.28511 0.32584-0.4073 0.73313-0.20365 0.93679 1.1812 0.12219 0.0815-0.65168 0.4073-0.6924 0.44803-0.32584 0.85532-0.20365 2.1587-0.20365-0.36657-0.28511-0.81459-0.32583z"/>
     <path id="path280" d="m577.18 530.18-2.1179 0.20365 0.48875 0.0815 0.77387 0.4073 0.24438 0.2851 0.20365 0.85533-0.0815 0.52949-0.44803 0.85532-0.0407 0.0407-0.44803 0.52949-0.6924 0.65167-0.85533 0.73314-0.20365 0.16292-0.73313 0.6924-0.52949 0.57022-0.36657 0.44803-0.40729 0.77386-0.12219 0.8146h6.1502v-1.0997h-4.5617l0.48875-0.65167 0.44803-0.4073 0.85532-0.73314 0.57022-0.48875 0.69241-0.65168 0.48875-0.52948 0.32584-0.36657 0.44803-0.73314 0.0815-0.24438 0.12219-0.85532v-0.32584l-0.24438-0.81459z"/>
     <path id="path281" d="m575.06 529.45-0.52949 0.0407-0.85533 0.20364-0.73313 0.44803-0.28511 0.32584-0.4073 0.73313-0.20364 0.93679 1.1812 0.12219 0.0815-0.65168 0.40729-0.6924 0.44803-0.32584 0.89606-0.20365 2.1179-0.20365-0.36657-0.28511-0.77386-0.32583z"/>
     <path id="path282" d="m579.83 538.81v-1.3034h1.3034v1.3034z"/>
     <path id="path283" d="m584.02 536.25-1.2219 0.12219 0.0407 0.24438 0.32583 0.89605 0.57022 0.73314 2.0365-0.24438h-0.32584l-0.81459-0.4073-0.32584-0.40729z"/>
     <path id="path284" d="m588.14 533.48-2.3623 0.16292 0.65167 0.0815 0.77387 0.48876 0.36657 0.57021 0.20365 0.97752-0.12219 0.85532-0.44803 0.77387-0.52949 0.40729-0.89605 0.20365-2.0365 0.24438 0.24438 0.20365 0.81459 0.36657 0.97752 0.12219 0.97751-0.12219 0.8146-0.36657 0.65167-0.61095 0.28511-0.36657 0.32584-0.85532 0.12219-0.97751-0.0407-0.52949-0.24438-0.89605z"/>
     <path id="path285" d="m586.06 532.62-0.85533 0.16291-0.89605 0.4073 3.8286 0.28511-0.32584-0.28511-0.77386-0.4073z"/>
     <path id="path286" d="m588.54 529.61h-4.6432l-0.89605 4.8061 1.059 0.12219 0.73313-0.65167 0.0407-0.0407 0.93679-0.20365 2.3623-0.16292-3.8286-0.28511 0.52948-2.4845h3.7064z"/>
     <path id="path287" d="m595.06 530.3-2.0365 0.0815 0.69241 0.16292 0.65167 0.61094 0.16292 0.24438 0.20365 0.69241 0.12219 0.93678 0.0407 1.1812v0.61094l-0.0815 1.059-0.16292 0.8146-0.28511 0.57022-0.52948 0.52948-0.77387 0.20365 1.7514 0.36657 0.52949-0.65168 0.40729-0.85532 0.16292-0.73314 0.12219-0.89605 0.0407-1.0182v-0.48876l-0.0815-0.93679-0.12219-0.77386-0.20365-0.61095-0.36656-0.77386z"/>
     <path id="path288" d="m593.07 529.45h-0.0407l-0.89605 0.16291-0.73314 0.4073-0.0815 0.0407-0.52948 0.65168-0.4073 0.85532-0.20365 0.69241-0.12219 0.89605-0.0407 1.059 0.0407 0.48875 0.0815 1.059 0.16292 0.89605 0.28511 0.73314 0.36657 0.61094 0.44802 0.44803 0.73314 0.36657 0.93678 0.12219h0.0407l0.89606-0.12219 0.73313-0.4073 0.0815-0.0407-1.7514-0.36657-0.65167-0.12219-0.69241-0.61094-0.12219-0.24438-0.20365-0.69241-0.16292-0.93678-0.0407-1.1812 0.0407-0.73314 0.0815-1.0182 0.20365-0.8146 0.28511-0.57021 0.4073-0.44803 0.81459-0.24438 2.0365-0.0815-0.69241-0.52949-0.40729-0.20364z"/>
     <path id="path289" d="m598.03 529.85-0.20365 0.24438-0.32584 0.97752 0.0407 0.36656 0.48876 0.89606 0.24438 0.20365 0.97751 0.32583 0.36657-0.0407 0.89605-0.48875-1.2219-0.16292-0.77386-0.32584-0.32584-0.77386 0.32584-0.73314 0.77386-0.32584z"/>
     <path id="path290" d="m599.26 529.32-0.32584 0.0407-0.89605 0.48875 1.2626 0.16292 0.73314 0.32584 0.32584 0.73314-0.32584 0.77386-0.73314 0.32584 1.2219 0.16292 0.20365-0.24438 0.32584-1.0182-0.0407-0.32584-0.48876-0.89606-0.24437-0.20365z"/>
    </g>
    <path id="path291" d="m488.31 535.03-2.6882-0.93678-2.6882-0.89606" fill="none" stroke="#212830" stroke-linecap="round" stroke-linejoin="round" stroke-width=".45203"/>
    <path id="path292" d="m440.29 524.64-3.0955-0.24438-3.0955-0.16292" fill="none" stroke="#212830" stroke-linecap="round" stroke-linejoin="round" stroke-width=".45203"/>
    <g fill="#212830" fill-rule="evenodd">
     <path id="path293" d="m488.92 533.52-1.0997 2.9325 9.2049 1.8736z"/>
     <path id="path294" d="m434.1 525.74 0.0407-3.0955-9.3271 1.3034z"/>
     <path id="path295" d="m448.8 523.54-2.1587 0.20365 0.52949 0.0815 0.73313 0.4073 0.24438 0.28511 0.24438 0.85532-0.0815 0.52949-0.44803 0.85532-0.0407 0.0407-0.48875 0.52949-0.65168 0.65168-0.85532 0.73313-0.24438 0.16292-0.73314 0.65168-0.52948 0.61094-0.36657 0.44803-0.36657 0.77386-0.16292 0.77387h6.1502v-1.059h-4.5617l0.48876-0.65168 0.44803-0.4073 1.4255-1.2219 0.6924-0.65168 0.52949-0.52948 0.28511-0.36657 0.44802-0.77387 0.0815-0.20364 0.16292-0.85533-0.0407-0.32584-0.20365-0.81459z"/>
     <path id="path296" d="m446.68 522.81-0.57021 0.0407-0.85533 0.20365-0.6924 0.44802-0.32584 0.32584-0.4073 0.73314-0.16292 0.93678 1.1404 0.12219 0.0815-0.65168 0.44803-0.73313 0.4073-0.28511 0.89605-0.20365 2.1587-0.20365-0.4073-0.2851-0.77386-0.32584z"/>
     <path id="path297" d="m456.01 523.54-2.1587 0.20365 0.52948 0.0815 0.73314 0.4073 0.24438 0.28511 0.24438 0.85532-0.0815 0.52949-0.44803 0.85532-0.0407 0.0407-0.44803 0.52949-0.6924 0.65168-0.85533 0.73313-0.20365 0.16292-0.73313 0.65168-0.57022 0.61094-0.32584 0.44803-0.40729 0.77386-0.16292 0.77387h6.1502v-1.059h-4.5617l0.48875-0.65168 0.44803-0.4073 0.89605-0.73313 0.52949-0.48876 0.69241-0.65168 0.52948-0.52948 0.32584-0.36657 0.4073-0.77387 0.0815-0.20364 0.16292-0.85533v-0.32584l-0.24438-0.81459z"/>
     <path id="path298" d="m453.89 522.81-0.52949 0.0407-0.89606 0.20365-0.6924 0.44802-0.28511 0.32584-0.4073 0.73314-0.20364 0.93678 1.1812 0.12219 0.0815-0.65168 0.40729-0.73313 0.4073-0.28511 0.89606-0.20365 2.1587-0.20365-0.40729-0.2851-0.77387-0.32584z"/>
     <path id="path299" d="m458.66 532.13v-1.2626h1.3034v1.2626z"/>
     <path id="path300" d="m462.81 529.61-1.1812 0.12219 0.0407 0.24438 0.2851 0.89606 0.57022 0.73313 2.0772-0.24438h-0.32584l-0.85532-0.44802-0.28511-0.36657z"/>
     <path id="path301" d="m466.97 526.84-2.3623 0.16292 0.65167 0.0815 0.77387 0.48876 0.36657 0.57021 0.16292 0.97752-0.12219 0.85532-0.44803 0.77387-0.48876 0.40729-0.89605 0.20365-2.0772 0.24438 0.28511 0.20365 0.81459 0.36657 0.97752 0.12219 0.93678-0.12219 0.8146-0.36657 0.6924-0.61095 0.24438-0.36656 0.36657-0.85533 0.12219-0.97751-0.0407-0.52949-0.24438-0.89605z"/>
     <path id="path302" d="m464.89 525.98-0.89606 0.12219-0.85532 0.44802 3.8286 0.28511-0.32584-0.28511-0.81459-0.40729z"/>
     <path id="path303" d="m467.33 522.97h-4.6025l-0.89605 4.7654 1.059 0.16292 0.6924-0.65168 0.0815-0.0407 0.93679-0.20365 2.3623-0.16292-3.8286-0.28511 0.48875-2.4845h3.7064z"/>
     <path id="path304" d="m473.89 523.66-2.0365 0.0815 0.69241 0.16292 0.65167 0.61095 0.12219 0.24438 0.24438 0.6924 0.12219 0.93679 0.0407 1.1812v0.57021l-0.0815 1.0997-0.20365 0.81459-0.24438 0.57022-0.52948 0.52948-0.8146 0.20365 1.7514 0.36657 0.57022-0.65167 0.40729-0.85533 0.16292-0.73313 0.12219-0.89606 0.0407-1.0182v-0.48876l-0.0815-0.93678-0.12219-0.77387-0.20365-0.61094-0.36656-0.77387z"/>
     <path id="path305" d="m471.85 522.81-0.89605 0.16292-0.77387 0.40729-0.0407 0.0407-0.57021 0.61095-0.4073 0.89605-0.16292 0.69241-0.12219 0.89605-0.0407 1.059v0.48875l0.0815 1.0182 0.20365 0.93678 0.28511 0.73314 0.36656 0.61094 0.44803 0.44803 0.73314 0.36657 0.89605 0.12219h0.0407l0.93679-0.12219 0.73313-0.4073 0.0407-0.0407-1.7514-0.36657-0.65167-0.12219-0.65168-0.61094-0.12219-0.24438-0.24438-0.69241-0.12219-0.93678-0.0407-1.1812v-0.73314l0.12219-1.0182 0.16292-0.8146 0.28511-0.57021 0.44803-0.44803 0.81459-0.24438 2.0365-0.0815-0.69241-0.57021-0.40729-0.16292z"/>
     <path id="path306" d="m476.86 523.21-0.24438 0.24437-0.28511 0.97752 0.0407 0.36657 0.48876 0.89605 0.24438 0.20365 0.97751 0.32584 0.32584-0.0407 0.93678-0.48876-1.2626-0.16292-0.73313-0.32584-0.32584-0.77386 0.32584-0.73314 0.73313-0.32584z"/>
     <path id="path307" d="m478.09 522.68-0.32584 0.0407-0.89605 0.48876 1.2219 0.16291 0.77387 0.32584 0.28511 0.73314-0.28511 0.77386-0.77387 0.32584 1.2626 0.16292 0.20365-0.24438 0.28511-1.0182v-0.32584l-0.48876-0.89605-0.2851-0.24438z"/>
    </g>
    <path id="path308" d="m464.2 641.9 1.7921 0.20365 1.8328 0.16292 1.7921 0.0815 1.8328-0.0407 1.8328-0.0815 1.7921-0.20365 1.8328-0.24438 1.7921-0.36657 1.7514-0.44802 1.7514-0.52949 1.7106-0.57022 1.7106-0.6924 1.6699-0.77387 1.5885-0.81459 1.5885-0.93679 1.5477-0.97751 1.507-1.059 1.4256-1.0997 1.3848-1.2219 1.3034-1.2219 1.2626-1.3441 1.2219-1.3441 1.1404-1.4255 1.059-1.507 1.0182-1.507 0.93679-1.5885 0.85532-1.5885 0.77387-1.6699 0.6924-1.6699 0.61095-1.7514" fill="none" stroke="#212830" stroke-linecap="round" stroke-linejoin="round" stroke-width=".45203"/>
    <path id="path309" d="m509.12 599.99-0.20364-1.7921-0.28511-1.7921-0.36657-1.7921-0.4073-1.7514-0.52948-1.7514-0.61095-1.7106-0.69241-1.6699-0.73313-1.6292-0.85533-1.6292-0.89605-1.5477" fill="none" stroke="#212830" stroke-linecap="round" stroke-linejoin="round" stroke-width=".45203"/>
    <g fill="#212830" fill-rule="evenodd">
     <path id="path310" d="m463.75 643.41 0.85533-2.9733-9.3678-1.059z"/>
     <path id="path311" d="m502.36 583.82 2.403-1.9143-6.924-6.3538z"/>
     <path id="path312" d="m488.51 604.96-0.8146 0.44802v1.0997l0.36657-0.16292 0.81459-0.44803 0.4073-0.24438 0.69241-0.52949z"/>
     <path id="path313" d="m491.12 603.04h-0.73314l-0.36656 0.57021-0.65168 0.69241-0.12219 0.12219-0.73313 0.52949 1.4663 0.16291v7.2906h1.1404z"/>
     <path id="path314" d="m495.23 609.89-1.1812 0.0815v0.28511l0.32584 0.89606 0.57022 0.6924 2.0772-0.20365-0.36657-0.0407-0.81459-0.40729-0.28511-0.36657z"/>
     <path id="path315" d="m499.35 607.08-2.3623 0.16292 0.69241 0.0815 0.77386 0.48876 0.36657 0.57021 0.16292 0.97752-0.12219 0.85532-0.44803 0.77387-0.48875 0.4073-0.89606 0.24437-2.0772 0.20365 0.24437 0.20365 0.85533 0.4073 0.97751 0.12219 0.93679-0.12219 0.81459-0.36657 0.69241-0.65168 0.24437-0.36656 0.36657-0.85533 0.12219-0.97751-0.0407-0.52949-0.28511-0.89605z"/>
     <path id="path316" d="m497.31 606.22-0.89605 0.16292-0.85533 0.44802 3.7879 0.24438-0.28511-0.24438-0.8146-0.44802z"/>
     <path id="path317" d="m499.75 603.25h-4.6025l-0.89605 4.7654 1.059 0.12219 0.69241-0.65168 0.0815-0.0407 0.89605-0.20365 2.3623-0.16292-3.7879-0.24438 0.48876-2.5252h3.7064z"/>
     <path id="path318" d="m507.33 603.21h-5.9873v1.0997h4.521l-0.12219 0.16292-0.48876 0.65167-0.52949 0.77387-0.48875 0.85532-0.20365 0.44803-0.4073 0.85533-0.28511 0.81459-0.28511 0.89606-0.20365 0.93678-0.16291 0.89605-0.0407 0.8146h1.1404l0.0815-0.8146 0.16292-0.89605 0.20365-0.85533 0.24437-0.73313 0.32584-0.8146 0.36657-0.85532 0.4073-0.81459 0.20365-0.32584 0.52948-0.85533 0.48876-0.73313 0.52949-0.61095z"/>
     <path id="path319" d="m509.12 612.41v-1.3034h1.3034v1.3034z"/>
     <path id="path320" d="m513.28 609.89-1.1812 0.0815v0.28511l0.32583 0.89606 0.57022 0.6924 2.0772-0.20365-0.36657-0.0407-0.8146-0.40729-0.2851-0.36657z"/>
     <path id="path321" d="m517.39 607.08-2.3623 0.16292 0.6924 0.0815 0.77387 0.48876 0.36657 0.57021 0.16291 0.97752-0.12218 0.85532-0.44803 0.77387-0.48876 0.4073-0.89605 0.24437-2.0772 0.20365 0.24438 0.20365 0.85532 0.4073 0.97752 0.12219 0.93678-0.12219 0.8146-0.36657 0.6924-0.65168 0.24438-0.36656 0.36657-0.85533 0.12219-0.97751-0.0407-0.52949-0.28511-0.89605z"/>
     <path id="path322" d="m515.35 606.22-0.89606 0.16292-0.85532 0.44802 3.7879 0.24438-0.28511-0.24438-0.81459-0.44802z"/>
     <path id="path323" d="m517.8 603.25h-4.6025l-0.89606 4.7654 1.059 0.12219 0.6924-0.65168 0.0815-0.0407 0.89606-0.20365 2.3623-0.16292-3.7879-0.24438 0.48875-2.5252h3.7064z"/>
     <path id="path324" d="m524.31 603.9-1.9958 0.12219 0.65168 0.12219 0.6924 0.61095 0.12219 0.24438 0.20365 0.6924 0.16292 0.93679 0.0407 1.1812v0.61094l-0.12219 1.059-0.16292 0.81459-0.24438 0.57022-0.52948 0.52949-0.8146 0.24437 1.7514 0.32584 0.52949-0.65167 0.40729-0.85533 0.20365-0.6924 0.12219-0.89606 0.0407-1.059-0.0407-0.44803-0.0407-0.97751-0.16292-0.77387-0.16292-0.61094-0.40729-0.77387z"/>
     <path id="path325" d="m522.32 603.04-0.93678 0.16292-0.73314 0.40729-0.0407 0.0407-0.57021 0.65168-0.4073 0.85532-0.16292 0.73314-0.12219 0.89605-0.0407 1.0182v0.48875l0.0815 1.059 0.20365 0.89605 0.24438 0.73314 0.36656 0.61094 0.44803 0.44803 0.77387 0.4073 0.89605 0.12219h0.0407l0.89606-0.16292 0.77386-0.4073 0.0407-0.0407-1.7514-0.32584-0.65167-0.16292-0.65168-0.61094-0.16292-0.24438-0.20365-0.69241-0.12219-0.93678-0.0407-1.1812v-0.69241l0.0815-1.059 0.20365-0.8146 0.28511-0.57021 0.44803-0.44803 0.81459-0.20365 1.9958-0.12219-0.69241-0.52948-0.36656-0.16292z"/>
     <path id="path326" d="m527.29 603.45-0.20365 0.24437-0.28511 1.0182v0.32584l0.48876 0.89605 0.28511 0.24438 0.97751 0.28511 0.32584-0.0407 0.89605-0.48876-1.2219-0.16292-0.77386-0.32584-0.28511-0.73313 0.28511-0.77387 0.77386-0.32584z"/>
     <path id="path327" d="m528.55 602.96h-0.32584l-0.93678 0.48876 1.2626 0.16291 0.73314 0.32584 0.32583 0.77387-0.32583 0.73313-0.73314 0.32584 1.2219 0.16292 0.24438-0.24438 0.28511-0.97751-0.0407-0.36657-0.48876-0.89605-0.24437-0.20365z"/>
    </g>
    <path id="path328" d="m508.63 435.36-0.61095 1.2626-0.52948 1.2626-0.44803 1.3034-0.4073 1.3034-0.32584 1.3441-0.24438 1.3441-0.20364 1.3848-0.16292 1.3441" fill="none" stroke="#212830" stroke-linecap="round" stroke-linejoin="round" stroke-width=".45203"/>
    <path id="path329" d="m508.96 461.59 0.65167 1.1812 0.69241 1.0997 0.73313 1.0997 0.77387 1.059 0.85532 0.97751 0.89606 0.97752 0.93678 0.93678 0.97751 0.89605" fill="none" stroke="#212830" stroke-linecap="round" stroke-linejoin="round" stroke-width=".45203"/>
    <g fill="#212830" fill-rule="evenodd">
     <path id="path330" d="m507.33 434.46 2.5252 1.7921 4.1544-8.4718z"/>
     <path id="path331" d="m516.25 468.51-1.6292 2.6474 8.7162 3.5842z"/>
     <path id="path332" d="m485.66 450.88-0.81459 0.44802v1.0997l0.32584-0.12219 0.85532-0.44803 0.4073-0.24438 0.6924-0.52949z"/>
     <path id="path333" d="m488.27 449h-0.73314l-0.36657 0.52948-0.65167 0.69241-0.16292 0.12219-0.69241 0.52949 1.4663 0.20364v7.2499h1.1404z"/>
     <path id="path334" d="m492.87 450.88-0.8146 0.44802v1.0997l0.36657-0.12219 0.8146-0.44803 0.40729-0.24438 0.69241-0.52949z"/>
     <path id="path335" d="m495.48 449h-0.73313l-0.36657 0.52948-0.65168 0.69241-0.12219 0.12219-0.73313 0.52949 1.4663 0.20364v7.2499h1.1404z"/>
     <path id="path336" d="m503.58 449.74-2.118 0.20365 0.48876 0.0815 0.77387 0.36657 0.24437 0.32584 0.24438 0.85532-0.0815 0.52949-0.44802 0.81459-0.0815 0.0815-0.44803 0.52949-0.65168 0.65167-0.89605 0.73314-0.20365 0.16292-0.73314 0.65167-0.52948 0.57022-0.36657 0.48876-0.4073 0.77386-0.12219 0.77387h6.1502v-1.0997h-4.5617l0.48876-0.61094 0.44803-0.4073 0.85532-0.77386 0.57022-0.44803 0.6924-0.65168 0.48876-0.52948 0.32584-0.4073 0.44803-0.73314 0.0815-0.20365 0.12219-0.89605v-0.28511l-0.24438-0.85532z"/>
     <path id="path337" d="m501.46 449-0.52948 0.0407-0.85533 0.20365-0.6924 0.44802-0.32584 0.32584-0.4073 0.73314-0.20365 0.93678 1.1812 0.12219 0.0815-0.65168 0.4073-0.73313 0.44803-0.28511 0.89605-0.20365 2.118-0.20365-0.36657-0.28511-0.77386-0.32583z"/>
     <path id="path338" d="m506.27 458.33v-1.3034h1.2626v1.3034z"/>
     <path id="path339" d="m510.43 455.81-1.2219 0.0815 0.0407 0.28511 0.32584 0.89606 0.57022 0.73313 2.0772-0.24438-0.36657-0.0407-0.8146-0.40729-0.28511-0.36657z"/>
     <path id="path340" d="m514.54 453.04-2.3623 0.16292 0.65167 0.0815 0.77387 0.44803 0.40729 0.57021 0.16292 0.97752-0.12219 0.89605-0.44802 0.77387-0.48876 0.40729-0.89605 0.20365-2.0772 0.24438 0.24438 0.20365 0.81459 0.36657 1.0182 0.12219 0.93678-0.12219 0.81459-0.36657 0.69241-0.65168 0.24438-0.32583 0.36657-0.85533 0.12219-0.97751-0.0407-0.52949-0.28511-0.89605z"/>
     <path id="path341" d="m512.5 452.18-0.89605 0.12219-0.85533 0.44802 3.7879 0.28511-0.28511-0.28511-0.81459-0.44802z"/>
     <path id="path342" d="m514.95 449.17h-4.6432l-0.89606 4.7654 1.0997 0.16291 0.6924-0.65167 0.0407-0.0407 0.93679-0.20365 2.3623-0.16292-3.7879-0.28511 0.48876-2.4845h3.7064z"/>
     <path id="path343" d="m521.46 449.86-1.9958 0.0815 0.65168 0.16292 0.65167 0.61095 0.16292 0.24437 0.20365 0.65168 0.12219 0.93678 0.0815 1.2219-0.0407 0.57021-0.0815 1.0997-0.16292 0.81459-0.28511 0.52949-0.52949 0.52948-0.77386 0.24438 1.7514 0.36657 0.52948-0.65168 0.4073-0.89605 0.16292-0.69241 0.12219-0.89605 0.0407-1.0182v-0.48876l-0.0407-0.97751-0.16292-0.73314-0.16292-0.61095-0.4073-0.77386z"/>
     <path id="path344" d="m519.47 449-0.93678 0.12219-0.73314 0.40729-0.0815 0.0407-0.52949 0.65168-0.40729 0.85532-0.20365 0.73314-0.0815 0.89605-0.0407 1.059v0.44802l0.0815 1.059 0.16292 0.89605 0.28511 0.77387 0.36656 0.57021 0.44803 0.44803 0.77386 0.4073 0.89606 0.12219h0.0407l0.89605-0.12219 0.73314-0.4073 0.0815-0.0407-1.7514-0.36657-0.65168-0.16292-0.65167-0.61094-0.16292-0.20365-0.20365-0.69241-0.16292-0.93678-0.0407-1.1812 0.0407-0.73314 0.0815-1.0182 0.20365-0.8146 0.28511-0.61094 0.44802-0.4073 0.8146-0.24438 1.9958-0.0815-0.69241-0.57021-0.4073-0.16292z"/>
     <path id="path345" d="m524.44 449.41-0.20365 0.24438-0.32584 0.97752 0.0407 0.36656 0.48876 0.89606 0.24438 0.20365 1.0182 0.28511h0.32584l0.89605-0.48876-1.2219-0.20365-0.77387-0.28511-0.32583-0.77386 0.32583-0.77387 0.77387-0.28511z"/>
     <path id="path346" d="m525.7 448.88-0.32584 0.0407-0.93678 0.48875 1.2626 0.16292 0.73313 0.28511 0.32584 0.77387-0.32584 0.77386-0.73313 0.28511 1.2219 0.20365 0.24438-0.28511 0.28511-0.97751-0.0407-0.32584-0.48876-0.89606-0.24438-0.24437z"/>
    </g>
    <path id="path347" d="m676.89 422.12-0.73314-1.3848-0.73313-1.3441-0.77387-1.3441-0.81459-1.3034-0.85533-1.3034-0.89605-1.2626" fill="none" stroke="#212830" stroke-linecap="round" stroke-linejoin="round" stroke-width=".45203"/>
    <path id="path348" d="m594.57 398.74-1.3034 0.81459-1.3034 0.85533-1.2626 0.89605-1.2219 0.93678-1.2219 0.97752-1.1812 1.0182" fill="none" stroke="#212830" stroke-linecap="round" stroke-linejoin="round" stroke-width=".45203"/>
    <g fill="#212830" fill-rule="evenodd">
     <path id="path349" d="m670.9 415.16 2.3623-1.9958-7.2092-6.0687z"/>
     <path id="path350" d="m593.84 397.36 1.4255 2.7289 7.5757-5.58z"/>
     <path id="path351" d="m623.53 390.56-2.1994 0.16292 0.4073 0.0407 0.89605 0.52948 0.32584 0.44803 0.20365 1.059-0.0815 0.69241-0.44803 0.89605-0.2851 0.28511-0.93679 0.28511 1.8736 0.24438 0.65168-0.85533 0.24437-0.52948 0.12219-1.0997v-0.2851l-0.24438-1.0182z"/>
     <path id="path352" d="m621.58 389.7-0.24438 0.0407-1.0182 0.28511-0.24438 0.16292-0.73314 0.77387 1.0182 0.0407 0.97751-0.28511 2.1994-0.16292-0.0815-0.0407-0.85533-0.61095z"/>
     <path id="path353" d="m623.33 387.01-1.8736 0.32584 0.24438 0.0407 0.89605 0.44803 0.44803 0.97751 1.0997-0.0815-0.24437-0.89605z"/>
     <path id="path354" d="m621.54 386.4-0.61095 0.0407-0.97751 0.36657-0.77386 0.65168-0.4073 0.65167-0.32584 0.89606-0.20365 1.0997-0.0407 1.3034v0.57022l0.16292 1.1812 0.28511 0.97752 0.44803 0.73313 0.40729 0.36657 0.85533 0.48876 1.059 0.20364 0.52949-0.0407 0.97751-0.36656 0.36657-0.32584-1.8736-0.24438-0.97751-0.28511-0.69241-0.81459-0.0407-0.0815-0.20365-1.0182 0.0815-0.57021 0.44803-0.89606 0.32584-0.2851-1.0182-0.0407v-0.0407l0.0815-1.2219 0.24438-0.89605 0.16292-0.36657 0.65168-0.77386 0.97751-0.32584 1.8736-0.32584-0.73314-0.4073z"/>
     <path id="path355" d="m631.56 386.57h-6.028v1.0997h4.5617l-0.12219 0.16292-0.52949 0.65167-0.48876 0.77387-0.48875 0.85532-0.24438 0.44803-0.36657 0.81459-0.32584 0.85533-0.24438 0.85532-0.24437 0.97752-0.16292 0.89605-0.0407 0.8146h1.1812l0.0815-0.8146 0.12219-0.89605 0.24438-0.85533 0.20365-0.73313 0.32583-0.85533 0.36657-0.81459 0.44803-0.8146 0.16292-0.36657 0.52948-0.81459 0.52949-0.73314 0.52949-0.61094z"/>
     <path id="path356" d="m633.31 395.77v-1.3034h1.3034v1.3034z"/>
     <path id="path357" d="m637.46 393.2-1.1812 0.12219 0.0407 0.24438 0.2851 0.89605 0.61095 0.73314 2.0365-0.24438h-0.32584l-0.81459-0.4073-0.32584-0.40729z"/>
     <path id="path358" d="m641.62 390.44-2.3623 0.16292 0.65167 0.0815 0.77387 0.48875 0.36657 0.57022 0.20365 0.97751-0.16292 0.85533-0.4073 0.77386-0.52949 0.4073-0.89605 0.20365-2.0365 0.24438 0.24438 0.20365 0.81459 0.36657 0.97752 0.16291 0.97751-0.12219 0.8146-0.40729 0.65167-0.61095 0.24438-0.36657 0.36657-0.85532 0.12219-0.97751-0.0407-0.52949-0.24438-0.89606z"/>
     <path id="path359" d="m639.54 389.58-0.85533 0.16292-0.89605 0.44803 3.8286 0.24438-0.32583-0.28511-0.8146-0.4073z"/>
     <path id="path360" d="m642.02 386.57h-4.6432l-0.89605 4.8061 1.059 0.12219 0.6924-0.65167 0.0815-0.0407 0.93679-0.20365 2.3623-0.16292-3.8286-0.24438 0.52948-2.5252h3.7064z"/>
     <path id="path361" d="m648.54 387.26-2.0365 0.0815 0.69241 0.16292 0.65167 0.61094 0.16292 0.24438 0.20365 0.69241 0.12219 0.93678 0.0407 1.1812v0.61095l-0.0815 1.059-0.16292 0.8146-0.28511 0.57022-0.52948 0.52948-0.77387 0.20365 1.7106 0.36657 0.57022-0.65168 0.40729-0.85532 0.16292-0.73314 0.12219-0.85532 0.0407-1.059v-0.48875l-0.0815-0.93679-0.12219-0.77386-0.20364-0.61095-0.36657-0.77386z"/>
     <path id="path362" d="m646.54 386.4h-0.0407l-0.89605 0.16292-0.77387 0.4073-0.0407 0.0407-0.57021 0.65168-0.36657 0.85532-0.20365 0.69241-0.12219 0.89605-0.0407 1.059v0.48876l0.12219 1.059 0.16292 0.89606 0.28511 0.73313 0.36657 0.61095 0.44802 0.44803 0.73314 0.36657 0.93678 0.16291 0.93679-0.16291 0.73313-0.4073 0.0407-0.0407-1.7106-0.36657-0.65167-0.12219-0.69241-0.61094-0.12219-0.24438-0.24438-0.69241-0.12219-0.93678-0.0407-1.1812v-0.73313l0.12219-1.0182 0.20365-0.8146 0.28511-0.57022 0.4073-0.44802 0.81459-0.24438 2.0365-0.0815-0.69241-0.52949-0.40729-0.20365z"/>
     <path id="path363" d="m651.51 386.81-0.20365 0.24438-0.32584 0.97751 0.0407 0.36657 0.48876 0.89606 0.24438 0.20365 0.97751 0.32583 0.36657-0.0407 0.89605-0.48875-1.2626-0.16292-0.73313-0.32584-0.32584-0.77387 0.32584-0.73313 0.73313-0.32584z"/>
     <path id="path364" d="m652.73 386.28-0.32584 0.0407-0.89605 0.48875 1.2219 0.16292 0.77387 0.32584 0.32584 0.73313-0.32584 0.77387-0.77387 0.32584 1.2626 0.16292 0.20365-0.24438 0.32584-1.0182-0.0407-0.32583-0.48876-0.89606-0.24437-0.20365z"/>
    </g>
    <g fill="none" stroke="#212830" stroke-linecap="round" stroke-linejoin="round" stroke-width=".45203">
     <path id="path365" d="m708.53 383.92h116.49"/>
     <path id="path366" d="m708.53 603.25h116.49"/>
     <path id="path367" d="m809.54 402.53v48.957"/>
     <path id="path368" d="m809.54 584.63v-48.957"/>
    </g>
    <g fill="#212830" fill-rule="evenodd">
     <path id="path369" d="m806.45 402.53h6.1909l-3.0955-18.613z"/>
     <path id="path370" d="m806.45 584.63h6.1909l-3.0955 18.613z"/>
     <path id="path371" d="m701.9 485.29-4.1544 0.20365 1.3848 0.32583 1.3848 1.2219 0.28511 0.52948 0.44802 1.3848 0.28511 1.955 0.0815 2.4438-0.0407 1.2626-0.16292 2.1994-0.36656 1.6699-0.52949 1.1812-1.0997 1.0997-1.6292 0.48875 3.5842 0.69241 1.1404-1.3441 0.81459-1.7921 0.36657-1.4663 0.24438-1.8328 0.0815-2.1587v-0.97752l-0.12219-1.9958-0.28511-1.5477-0.4073-1.2626-0.81459-1.6292z"/>
     <path id="path372" d="m697.78 483.54h-0.0407l-1.9143 0.28511-1.5477 0.85532-0.0815 0.0815-1.1404 1.3441-0.85533 1.7514-0.36657 1.507-0.24437 1.8328-0.0815 2.1587v1.0182l0.20364 2.1587 0.36657 1.8736 0.57022 1.5477 0.73313 1.2219 0.93679 0.93678 1.5885 0.81459 1.8736 0.24438h0.0407l1.9143-0.28511 1.507-0.85532 0.12219-0.0815-3.5842-0.69241-1.3848-0.32583-1.3441-1.2626-0.2851-0.48875-0.48876-1.4255-0.24438-1.9143-0.12219-2.4845 0.0407-1.4663 0.20365-2.1179 0.4073-1.6699 0.57021-1.2219 0.89606-0.89606 1.7106-0.48875 4.1544-0.20365-1.4255-1.1404-0.8146-0.32583z"/>
     <path id="path373" d="m707.76 502.85v-2.6882h2.6882v2.6882z"/>
     <path id="path374" d="m726.46 483.87h-12.423v2.2809h9.4086l-0.24438 0.28511-1.0997 1.3848-1.0182 1.5885-1.0182 1.7514-0.48875 0.93678-0.77387 1.7106-0.65167 1.7514-0.52949 1.8328-0.48876 1.955-0.2851 1.8736-0.12219 1.6292h2.403l0.16292-1.6699 0.32584-1.8736 0.44802-1.7514 0.44803-1.4663 0.65168-1.7514 0.77386-1.7514 0.89606-1.6699 0.40729-0.73313 1.059-1.7106 1.0997-1.507 1.059-1.2626z"/>
     <path id="path375" d="m739.2 485.29-4.1952 0.20365 1.3848 0.32583 1.3848 1.2219 0.28511 0.52948 0.44803 1.3848 0.28511 1.955 0.0815 2.4438v1.2626l-0.20365 2.1994-0.32584 1.6699-0.57022 1.1812-1.0997 1.0997-1.6292 0.48875 3.625 0.69241 1.1404-1.3441 0.81459-1.7921 0.36657-1.4663 0.24438-1.8328 0.0815-2.1587-0.0407-0.97752-0.12219-1.9958-0.28511-1.5477-0.36657-1.2626-0.81459-1.6292z"/>
     <path id="path376" d="m735.05 483.54h-0.0407l-1.8736 0.28511-1.5477 0.85532-0.12219 0.0815-1.1404 1.3441-0.8146 1.7514-0.40729 1.507-0.24438 1.8328-0.0815 2.1587 0.0407 1.0182 0.16292 2.1587 0.36657 1.8736 0.57021 1.5477 0.77387 1.2219 0.93678 0.93678 1.5477 0.81459 1.8736 0.24438h0.0815l1.8736-0.28511 1.5477-0.85532 0.12219-0.0815-3.625-0.69241-1.3441-0.32583-1.3848-1.2626-0.28511-0.48875-0.44803-1.4255-0.28511-1.9143-0.0815-2.4845 0.0407-1.4663 0.20365-2.1179 0.36657-1.6699 0.61095-1.2219 0.89605-0.89606 1.6699-0.48875 4.1952-0.20365-1.4255-1.1404-0.85532-0.32583z"/>
     <path id="path377" d="m756.31 483.87h-12.423v2.2809h9.3678l-0.24437 0.28511-1.059 1.3848-1.059 1.5885-1.0182 1.7514-0.44803 0.93678-0.77387 1.7106-0.65167 1.7514-0.57022 1.8328-0.44803 1.955-0.32583 1.8736-0.12219 1.6292h2.4438l0.16292-1.6699 0.28511-1.8736 0.44803-1.7514 0.48875-1.4663 0.65168-1.7514 0.77386-1.7514 0.89606-1.6699 0.36656-0.73313 1.0997-1.7106 1.059-1.507 1.0997-1.2626z"/>
     <path id="path378" d="m762.13 487.45-1.7106 0.93679v2.2809l0.73313-0.32584 1.7514-0.89605 0.85533-0.52949 1.3848-1.0997z"/>
     <path id="path379" d="m767.51 483.54h-1.507l-0.73313 1.0997-1.3848 1.4663-0.28511 0.24438-1.4663 1.0997 3.014 0.36657v15.029h2.3623z"/>
     <path id="path380" d="m783.97 485.29-4.1952 0.20365 1.3848 0.32583 1.3848 1.2219 0.28511 0.52948 0.44802 1.3848 0.28511 1.955 0.0815 2.4438v1.2626l-0.20365 2.1994-0.36657 1.6699-0.52948 1.1812-1.0997 1.0997-1.6292 0.48875 3.5842 0.69241 1.1404-1.3441 0.85533-1.7921 0.36657-1.4663 0.24438-1.8328 0.0815-2.1587-0.0407-0.97752-0.12219-1.9958-0.28511-1.5477-0.4073-1.2626-0.77386-1.6292z"/>
     <path id="path381" d="m779.81 483.54h-0.0407l-1.8736 0.28511-1.5477 0.85532-0.12219 0.0815-1.1404 1.3441-0.81459 1.7514-0.4073 1.507-0.24438 1.8328-0.0815 2.1587 0.0407 1.0182 0.16292 2.1587 0.36657 1.8736 0.57022 1.5477 0.77386 1.2219 0.93679 0.93678 1.5477 0.81459 1.8736 0.24438h0.0815l1.8736-0.28511 1.5477-0.85532 0.0815-0.0815-3.5842-0.69241-1.3441-0.32583-1.3848-1.2626-0.28511-0.48875-0.44802-1.4255-0.28511-1.9143-0.0815-2.4845 0.0407-1.4663 0.20365-2.1179 0.36657-1.6699 0.61094-1.2219 0.89606-0.89606 1.6699-0.48875 4.1952-0.20365-1.4663-1.1404-0.8146-0.32583z"/>
     <path id="path382" d="m799.4 492.1-4.521 0.36657 0.85532 0.0815 1.8328 1.059 0.61095 0.93679 0.44803 2.1994-0.16292 1.4663-0.89606 1.8328-0.61094 0.52949-1.955 0.6924 3.9508 0.48876 1.3034-1.7921 0.44802-1.1404 0.32584-2.1994v-0.61094l-0.48876-2.1587z"/>
     <path id="path383" d="m795.37 490.39h-0.48876l-2.0772 0.61095-0.57021 0.32584-1.5477 1.6292 2.1587 0.12219 2.0365-0.61095 4.521-0.36657-0.12219-0.12219-1.7921-1.1812z"/>
     <path id="path384" d="m798.95 484.81-3.8286 0.69241 0.44802 0.0407 1.8736 0.97752h0.0407l0.85533 1.9958 2.3623-0.16292-0.48875-1.8328z"/>
     <path id="path385" d="m795.25 483.54-1.2626 0.12219-1.955 0.6924-1.6292 1.3848-0.8146 1.3034-0.6924 1.8736-0.4073 2.2809-0.12219 2.6474 0.0407 1.2219 0.28511 2.4438 0.61094 1.9958 0.93679 1.507 0.81459 0.77386 1.7921 1.059 2.1994 0.32584 1.059-0.0815 1.9958-0.73313 0.85532-0.61095-3.9508-0.48876-1.955-0.61094-0.0407-0.0407-1.4255-1.6699-0.0815-0.16292-0.44803-2.1587 0.16292-1.1812 0.97752-1.8328 0.65167-0.52948-2.1587-0.12219v-0.12219l0.20364-2.4845 0.48876-1.8736 0.36657-0.73314 1.3848-1.6292 1.9958-0.61094 3.8286-0.69241-1.4663-0.89605z"/>
     <path id="path386" d="m815.98 483.87h-12.423v2.2809h9.3678l-0.24437 0.28511-1.059 1.3848-1.059 1.5885-0.97751 1.7514-0.48876 0.93678-0.77387 1.7106-0.65167 1.7514-0.57022 1.8328-0.44803 1.955-0.32583 1.8736-0.0815 1.6292h2.403l0.16292-1.6699 0.32584-1.8736 0.4073-1.7514 0.48875-1.4663 0.65168-1.7514 0.77386-1.7514 0.89606-1.6699 0.36657-0.73313 1.0997-1.7106 1.059-1.507 1.0997-1.2626z"/>
     <path id="path387" d="m829.01 493.28-4.4803 0.16291 1.3441 0.20365 1.507 0.93679 0.73314 1.0182 0.4073 1.7921-0.16292 1.2219-0.93679 1.5477-0.97751 0.69241-1.8328 0.40729-4.6025 0.24438 1.0182 0.77387 1.6292 0.6924 1.955 0.20365 1.4255-0.12219 1.7106-0.52948 1.4255-1.0182 0.65168-0.73313 0.81459-1.5885 0.28511-1.8328-0.16292-1.4255-0.77386-1.6292z"/>
     <path id="path388" d="m820.34 485.17-0.97752 1.507-0.32583 1.8328 0.0815 0.6924 0.65167 1.6699 0.48876 0.61095 1.6699 0.93678-1.3441 0.57022-1.3441 1.1404-0.65167 1.2626-0.32584 1.9143 0.0815 1.0182 0.57022 1.7106 1.0997 1.4663 4.6025-0.24438-0.24438-0.0407-1.7921-0.48876-0.16292-0.12219-1.2219-1.3441-0.0815-0.16292-0.40729-1.7921 0.16291-1.2219 0.93679-1.5477 0.93678-0.69241 1.7921-0.4073 4.4803-0.16291-1.7106-0.85533 0.8146-0.36657-3.5028-0.52948-0.69241-0.0815-1.5885-0.77387-0.40729-0.48875-0.44803-1.7514v-0.48876l0.85532-1.5885 0.48876-0.36657 1.7514-0.48875z"/>
     <path id="path389" d="m824.57 483.54-0.77386 0.0407-1.7921 0.44802-1.4663 0.93679-0.20365 0.20365 4.2359 0.32584 0.65168 0.0407 1.5885 0.8146 0.40729 0.48876 0.48876 1.7106-0.0407 0.52948-0.81459 1.5885-0.48876 0.36657-1.7514 0.48876 3.5028 0.52948 1.3441-1.1812 0.28511-0.48876 0.4073-1.8328-0.0407-0.32584-0.4073-1.7514-1.0997-1.4663-0.52948-0.44803-1.5885-0.77386z"/>
     <path id="path390" d="m843.88 493.64-0.48876 0.0407-1.7514 0.44803-1.4255 1.0997v2.6882l0.44803-0.4073 1.4255-1.0182 1.5477-0.36657 6.5982-0.69241-0.89606-0.12219-1.3441-0.52948-0.85532-0.32584-1.6292-0.57022z"/>
     <path id="path391" d="m853.61 493.6-0.12219 0.16292-1.4663 1.1404-1.7921 0.52948-6.5982 0.69241 0.69241 0.0815 1.9143 0.61094 0.65168 0.28511 1.6292 0.61095 1.4663 0.16292h0.12219l1.8328-0.32584 0.12219-0.0815 1.5477-1.059z"/>
     <path id="path392" d="m843.88 488.92h-0.48876l-1.7514 0.48876-1.4255 1.059v2.6882l0.44803-0.36657 1.4255-1.059 1.5477-0.32584 6.5982-0.73314-0.89606-0.12219-1.3441-0.48875-0.85532-0.36657-1.6292-0.57022z"/>
     <path id="path393" d="m853.61 488.88-0.12219 0.12219-1.4663 1.1404-1.7921 0.52948-6.5982 0.73314 0.69241 0.0407 1.9143 0.65167 0.65168 0.28511 1.6292 0.57022 1.4663 0.20365h0.12219l1.8328-0.36657 0.12219-0.0407 1.5477-1.0997z"/>
     <path id="path394" d="m868.36 492.1-5.1727 2.6474 0.61094 1.059 3.4213-1.5885z"/>
     <path id="path395" d="m868.36 492.1-1.1404 2.118 6.9241 12.382-0.20365-4.6025z"/>
     <path id="path396" d="m881.11 478.21h-1.2219l-5.9058 23.786h-0.0407l0.20365 4.6025z"/>
     <path id="path397" d="m898.62 482.53-5.8651 0.48876 1.7106 0.24438 1.7106 0.97751 0.89605 1.2219 0.44803 1.9958-0.0407 0.73314-0.61095 1.8328-1.3034 1.8328-1.3034 1.3848-1.507 1.4255-1.6699 1.4255-1.507 1.2219-1.7106 1.5885-1.3441 1.4255-1.0182 1.2626-0.2851 0.44803-0.89606 1.955-0.28511 1.9143h16.74v-3.014h-12.463l0.44802-0.65167 1.3034-1.4663 1.9143-1.6699 1.3034-1.059 1.9143-1.6292 1.5885-1.507 1.2626-1.3034 0.89606-1.1812 0.6924-1.059 0.8146-1.955 0.24438-1.9143-0.12219-1.4255-0.69241-1.9143z"/>
     <path id="path398" d="m892.84 480.45-2.0772 0.20365-1.955 0.61094-1.6292 1.059-1.3034 1.4663-0.81459 1.7921-0.44803 2.1994 3.2176 0.36657v-0.16292l0.36657-2.118 1.059-1.5885 1.4255-0.89605 2.0772-0.36657 5.8651-0.48876-0.0815-0.12219-1.5477-1.059-1.9143-0.6924z"/>
     <path id="path399" d="m913.2 498.29h-9.49v-3.0955h9.49z"/>
     <path id="path400" d="m920.37 485.7-2.1179 1.1404v2.9733l1.059-0.4073 1.9958-1.0182 1.7106-1.0997 1.4663-1.2219z"/>
     <path id="path401" d="m927.62 480.45h-2.0365l-0.69241 1.1812-1.2219 1.4663-1.507 1.3441-1.7921 1.2626 4.1137 0.36657v19.835h3.1362z"/>
    </g>
    <path id="path402" d="m672.53 587.28-1.9143 1.1404-1.8736 1.2219-1.8736 1.2626-1.7921 1.3441-1.7921 1.3848-1.7106 1.4663-1.6699 1.507-1.6292 1.5477-1.5885 1.5885-1.507 1.6699" fill="none" stroke="#212830" stroke-linecap="round" stroke-linejoin="round" stroke-width=".45203"/>
    <path id="path403" d="m644.55 617.14-0.97751 2.0772-0.93678 2.1587-0.85533 2.1587-0.81459 2.1994-0.69241 2.2401-0.65167 2.2401-0.57022 2.2809-0.48876 2.2809-0.44802 2.2809-0.32584 2.3216" fill="none" stroke="#212830" stroke-linecap="round" stroke-linejoin="round" stroke-width=".45203"/>
    <g fill="#212830" fill-rule="evenodd">
     <path id="path404" d="m671.84 585.86 1.3848 2.8104 7.6572-5.5392z"/>
     <path id="path405" d="m639.29 639.46-3.0955-0.20365 0.93678 9.4086z"/>
     <path id="path406" d="m636.28 608.62-2.1994 0.16292 0.4073 0.0407 0.89605 0.52949 0.28511 0.44803 0.20365 1.059-0.0407 0.73313-0.44803 0.85533-0.28511 0.28511-0.97751 0.32583 1.9143 0.24438 0.65167-0.85532 0.20365-0.57022 0.16292-1.059v-0.28511l-0.24438-1.059z"/>
     <path id="path407" d="m634.32 607.81h-0.24438l-1.0182 0.28511-0.24438 0.16292-0.77387 0.77386 1.059 0.0407 0.97751-0.28511 2.1994-0.16292-0.0815-0.0407-0.85533-0.61094z"/>
     <path id="path408" d="m636.08 605.12-1.8736 0.28511 0.20365 0.0407 0.93678 0.44803v0.0407l0.4073 0.93678 1.1404-0.0815-0.24438-0.85532z"/>
     <path id="path409" d="m634.24 604.47-0.57022 0.0815-0.97751 0.32584-0.77387 0.6924-0.40729 0.61095-0.32584 0.89605-0.20365 1.0997-0.0815 1.3034 0.0407 0.57021 0.12219 1.2219 0.32584 0.93678 0.44803 0.73314 0.36656 0.36656 0.89606 0.52949 1.059 0.16292 0.48876-0.0407 0.97751-0.36657 0.4073-0.28511-1.9143-0.24438-0.93678-0.2851v-0.0407l-0.69241-0.77387-0.0407-0.12219-0.20365-1.0182 0.0407-0.57022 0.48876-0.89605 0.32584-0.28511-1.059-0.0407v-0.0407l0.12219-1.2219 0.20365-0.89606 0.20365-0.36656 0.65168-0.77387 0.97751-0.32584 1.8736-0.28511-0.73314-0.44802z"/>
     <path id="path410" d="m644.26 604.63h-5.9873v1.0997h4.5617l-0.12219 0.16292-0.52949 0.65168-0.52949 0.77386-0.48875 0.85533-0.20365 0.44802-0.36657 0.85533-0.32584 0.81459-0.28511 0.89606-0.20365 0.93678-0.16291 0.89605-0.0407 0.8146h1.1812l0.0407-0.8146 0.16292-0.89605 0.20365-0.85532 0.24437-0.73314 0.32584-0.85532 0.36657-0.8146 0.4073-0.81459 0.20365-0.36657 0.52948-0.8146 0.52949-0.73313 0.48876-0.61095z"/>
     <path id="path411" d="m646.06 613.84v-1.3034h1.3034v1.3034z"/>
     <path id="path412" d="m650.21 611.27-1.1812 0.12219 0.0407 0.2851 0.2851 0.89606 0.57022 0.6924 2.0772-0.20365-0.32584-0.0407-0.85533-0.40729-0.2851-0.36657z"/>
     <path id="path413" d="m654.32 608.5-2.3216 0.16292 0.65167 0.0815 0.77387 0.48876 0.36657 0.57022 0.16291 0.97751-0.12218 0.85532-0.44803 0.77387-0.48876 0.4073-0.89605 0.24437-2.0772 0.20365 0.28511 0.20365 0.81459 0.4073 0.97752 0.12219 0.93678-0.12219 0.8146-0.4073 0.6924-0.61094 0.24438-0.36657 0.36657-0.85533 0.12219-0.97751-0.0407-0.52949-0.28511-0.89605z"/>
     <path id="path414" d="m652.29 607.65-0.89606 0.16292-0.85532 0.44803 3.7879 0.24437-0.28511-0.24437-0.81459-0.44803z"/>
     <path id="path415" d="m654.73 604.63h-4.6025l-0.89606 4.8061 1.059 0.12219 0.6924-0.65168 0.0815-0.0407 0.93679-0.20365 2.3216-0.16292-3.7879-0.24437 0.48875-2.5252h3.7064z"/>
     <path id="path416" d="m661.29 605.33-2.0365 0.12219 0.65168 0.12219 0.6924 0.61095 0.12219 0.24438 0.24438 0.6924 0.12219 0.93679 0.0407 1.1812v0.61094l-0.0815 1.059-0.20365 0.81459-0.24438 0.57022-0.52948 0.52949-0.8146 0.24437 1.7514 0.32584 0.57022-0.65167 0.36656-0.85533 0.20365-0.6924 0.12219-0.89606 0.0407-1.059v-0.48876l-0.0815-0.93678-0.12219-0.77387-0.20365-0.61094-0.40729-0.77387z"/>
     <path id="path417" d="m659.25 604.47-0.93678 0.16292-0.73314 0.4073-0.0407 0.0407-0.57021 0.65167-0.4073 0.85533-0.16292 0.73313-0.12219 0.89606-0.0407 1.0182v0.48876l0.0815 1.059 0.20365 0.89605 0.24438 0.73314 0.40729 0.61094 0.44803 0.44803 0.73314 0.4073 0.89605 0.12219h0.0407l0.93678-0.16292 0.73314-0.4073 0.0407-0.0407-1.7514-0.32584-0.65167-0.16291-0.65168-0.61095-0.12219-0.24438-0.24438-0.6924-0.12219-0.93679-0.0407-1.1812v-0.69241l0.12219-1.059 0.16292-0.81459 0.28511-0.57022 0.44803-0.44803 0.81459-0.20365 2.0365-0.12219-0.69241-0.52948-0.40729-0.16292z"/>
     <path id="path418" d="m664.26 604.88-0.24438 0.24437-0.28511 1.0182 0.0407 0.32584 0.48876 0.89605 0.24438 0.24438 0.97751 0.28511 0.32584-0.0407 0.93678-0.48876-1.2626-0.16292-0.73313-0.32584-0.32584-0.73313 0.32584-0.77387 0.73313-0.32583z"/>
     <path id="path419" d="m665.48 604.35-0.32584 0.0407-0.89605 0.48876 1.2219 0.16292 0.77387 0.32583 0.2851 0.77387-0.2851 0.73313-0.77387 0.32584 1.2626 0.16292 0.20365-0.24438 0.28511-0.97751v-0.36657l-0.48876-0.89605-0.2851-0.20365z"/>
    </g>
   </g>
  </g>
 </g>
 <metadata id="metadata2">
  <rdf:RDF>
   <cc:Work rdf:about="">
    <dc:title>Los Secretos de las Catedrales. La Catedral Nacional de Washignton D.C</dc:title>
    <dc:date>16-01-2025</dc:date>
    <dc:creator>
     <cc:Agent>
      <dc:title>Miguel Hernando Ibáñez Sánchez</dc:title>
     </cc:Agent>
    </dc:creator>
    <dc:rights>
     <cc:Agent>
      <dc:title>Secretos de las catedrales. La Catedral Nacional de Washington D.C © 2025 by ISAN atelier is licensed under Creative Commons Attribution-NoDerivatives 4.0 International</dc:title>
     </cc:Agent>
    </dc:rights>
    <dc:publisher>
     <cc:Agent>
      <dc:title>ISAN atelier</dc:title>
     </cc:Agent>
    </dc:publisher>
    <dc:source>Sáchica, Boyacá - Colombia</dc:source>
    <dc:relation>En Búsqueda de las Claves Sacras de la Ciudad de Washignton D.C</dc:relation>
    <dc:language>Español</dc:language>
    <dc:subject>
     <rdf:Bag>
      <rdf:li>arquitectura sagrada</rdf:li>
      <rdf:li>geometria sagrada</rdf:li>
      <rdf:li>sacred architecture</rdf:li>
      <rdf:li>sacred geometry</rdf:li>
     </rdf:Bag>
    </dc:subject>
    <dc:coverage>Global</dc:coverage>
    <dc:description>Estudios geometricos y sus misterios</dc:description>
    <cc:license rdf:resource="http://creativecommons.org/licenses/by-nd/4.0/"/>
    <dc:identifier>10.5281/zenodo.14675978</dc:identifier>
   </cc:Work>
   <cc:License rdf:about="http://creativecommons.org/licenses/by-nd/4.0/">
    <cc:permits rdf:resource="http://creativecommons.org/ns#Reproduction"/>
    <cc:permits rdf:resource="http://creativecommons.org/ns#Distribution"/>
    <cc:requires rdf:resource="http://creativecommons.org/ns#Notice"/>
    <cc:requires rdf:resource="http://creativecommons.org/ns#Attribution"/>
   </cc:License>
  </rdf:RDF>
 </metadata>
</svg>
