<?xml version="1.0" encoding="UTF-8"?>
<!-- Created with Inkscape (http://www.inkscape.org/) -->
<svg id="svg1" width="210mm" height="111mm" inkscape:version="1.4 (86a8ad7, 2024-10-11)" sodipodi:docname="3.svg" version="1.1" viewBox="0 0 210 111" xmlns="http://www.w3.org/2000/svg" xmlns:cc="http://creativecommons.org/ns#" xmlns:dc="http://purl.org/dc/elements/1.1/" xmlns:inkscape="http://www.inkscape.org/namespaces/inkscape" xmlns:rdf="http://www.w3.org/1999/02/22-rdf-syntax-ns#" xmlns:sodipodi="http://sodipodi.sourceforge.net/DTD/sodipodi-0.dtd">
 <title id="title2">Los Secretos de las Catedrales. La Catedral Nacional de Washignton D.C</title>
 <sodipodi:namedview id="namedview1" bordercolor="#000000" borderopacity="0.25" inkscape:current-layer="layer1" inkscape:cx="396.85039" inkscape:cy="560.83816" inkscape:deskcolor="#d1d1d1" inkscape:document-units="mm" inkscape:pagecheckerboard="0" inkscape:pageopacity="0.0" inkscape:showpageshadow="2" inkscape:window-height="664" inkscape:window-maximized="1" inkscape:window-width="1366" inkscape:window-x="-8" inkscape:window-y="-8" inkscape:zoom="0.45735119" pagecolor="#ffffff"/>
 <defs id="defs1">
  <pattern id="WMFhbasepattern" width="6" height="6" patternUnits="userSpaceOnUse"/>
  <pattern id="WMFhbasepattern-4" width="6" height="6" patternUnits="userSpaceOnUse"/>
 </defs>
 <g id="layer1" inkscape:groupmode="layer" inkscape:label="Capa 1">
  <g id="g2" transform="matrix(.28498 0 0 .28498 -134.87 -51.419)" stroke-width=".3509">
   <g fill="none" stroke-linecap="round" stroke-linejoin="round" stroke-width=".3509">
    <g stroke="#0ff">
     <path id="path1" d="m667.07 259 0.36657-0.36656"/>
     <path id="path2" d="m672.65 253.42 0.24437-0.24438"/>
     <path id="path3" d="m667.44 258.63 5.2134-5.2134"/>
     <path id="path4" d="m669.56 266.7 0.85532-0.85533"/>
     <path id="path5" d="m681.82 254.4 1.2626-1.2219"/>
     <path id="path6" d="m670.41 265.84 11.404-11.445"/>
     <path id="path7" d="m672.04 274.4 1.3441-1.3441"/>
     <path id="path8" d="m690.41 256.03 2.8104-2.8511"/>
     <path id="path9" d="m673.38 273.05 17.025-17.025"/>
     <path id="path10" d="m674.57 282.05 1.7921-1.7921"/>
     <path id="path11" d="m698.43 258.19 4.969-5.0098"/>
     <path id="path12" d="m676.36 280.26 22.076-22.076"/>
     <path id="path13" d="m677.05 289.75 2.3216-2.2809"/>
     <path id="path14" d="m705.97 260.79 7.6165-7.6165"/>
     <path id="path15" d="m679.37 287.47 26.597-26.678"/>
     <path id="path16" d="m679.54 297.45 2.8104-2.8104"/>
     <path id="path17" d="m713.14 263.85 10.63-10.671"/>
     <path id="path18" d="m682.35 294.64 30.792-30.792"/>
     <path id="path19" d="m682.06 305.15 3.2584-3.2991"/>
     <path id="path20" d="m719.86 267.27 14.092-14.092"/>
     <path id="path21" d="m685.32 301.85 34.539-34.58"/>
     <path id="path22" d="m684.54 312.85 3.7471-3.7879"/>
     <path id="path23" d="m726.25 271.06 17.88-17.88"/>
     <path id="path24" d="m688.29 309.06 37.96-38.001"/>
     <path id="path25" d="m687.03 320.54 4.2359-4.2766"/>
     <path id="path26" d="m732.28 275.21 21.994-22.035"/>
     <path id="path27" d="m691.27 316.27 41.015-41.056"/>
     <path id="path28" d="m689.51 328.24 4.7654-4.7654"/>
     <path id="path29" d="m737.98 279.69 26.474-26.515"/>
     <path id="path30" d="m694.28 323.48 43.703-43.784"/>
     <path id="path31" d="m692.04 335.9 5.2134-5.2134"/>
     <path id="path32" d="m743.36 284.5 31.28-31.321"/>
     <path id="path33" d="m697.25 330.68 46.106-46.188"/>
     <path id="path34" d="m694.52 343.6 5.7022-5.7022"/>
     <path id="path35" d="m748.41 289.63 30.099-30.14"/>
     <path id="path36" d="m700.23 337.89 48.183-48.265"/>
     <path id="path37" d="m697.01 351.29 6.1909-6.1909"/>
     <path id="path38" d="m753.13 295.09 25.375-25.375"/>
     <path id="path39" d="m703.2 345.1 49.935-50.016"/>
     <path id="path40" d="m699.49 358.99 6.6797-6.6797"/>
     <path id="path41" d="m757.53 300.87 20.976-20.976"/>
     <path id="path42" d="m706.17 352.31 51.36-51.442"/>
     <path id="path43" d="m702.02 366.69 7.1277-7.1684"/>
     <path id="path44" d="m761.56 307.02 16.944-16.944"/>
     <path id="path45" d="m709.15 359.52 52.419-52.501"/>
     <path id="path46" d="m704.5 374.39 7.6572-7.6572"/>
     <path id="path47" d="m765.27 313.5 13.237-13.237"/>
     <path id="path48" d="m712.16 366.73 53.112-53.234"/>
     <path id="path49" d="m706.99 382.04 8.146-8.1052"/>
     <path id="path50" d="m768.61 320.34 9.8973-9.8973"/>
     <path id="path51" d="m715.13 373.94 53.478-53.6"/>
     <path id="path52" d="m709.47 389.74 8.6347-8.594"/>
     <path id="path53" d="m771.58 327.59 6.924-6.9241"/>
     <path id="path54" d="m718.11 381.15 53.478-53.56"/>
     <path id="path55" d="m712 397.44 9.0827-9.0827"/>
     <path id="path56" d="m774.07 335.29 4.4395-4.4395"/>
     <path id="path57" d="m721.08 388.36 52.989-53.071"/>
     <path id="path58" d="m714.48 405.14 9.5715-9.6122"/>
     <path id="path59" d="m776.11 343.43 2.403-2.4031"/>
     <path id="path60" d="m724.05 395.53 52.053-52.093"/>
     <path id="path61" d="m716.97 412.84 10.06-10.101"/>
     <path id="path62" d="m777.57 352.15 0.93678-0.93678"/>
     <path id="path63" d="m727.03 402.74 50.546-50.586"/>
     <path id="path64" d="m719.49 420.53 10.549-10.59"/>
     <path id="path65" d="m778.39 361.52 0.12219-0.0815"/>
     <path id="path66" d="m730.04 409.94 48.346-48.428"/>
     <path id="path67" d="m721.98 428.23 11.038-11.078"/>
     <path id="path68" d="m778.39 371.74 0.12219-0.12219"/>
     <path id="path69" d="m733.01 417.15 45.373-45.414"/>
     <path id="path70" d="m724.46 435.89 11.527-11.527"/>
     <path id="path71" d="m777.33 382.98 1.1812-1.1812"/>
     <path id="path72" d="m735.99 424.36 41.341-41.381"/>
     <path id="path73" d="m726.94 443.59 12.015-12.015"/>
     <path id="path74" d="m774.68 395.81 3.8286-3.8286"/>
     <path id="path75" d="m738.96 431.57 35.72-35.761"/>
     <path id="path76" d="m729.47 451.29 12.463-12.504"/>
     <path id="path77" d="m769.34 411.37 9.1642-9.2049"/>
     <path id="path78" d="m741.93 438.78 27.411-27.411"/>
     <path id="path79" d="m731.95 458.98 2.566-2.566"/>
     <path id="path80" d="m754.8 436.09 23.705-23.705"/>
     <path id="path81" d="m734.52 456.42 10.386-10.427 9.8973-9.8973"/>
     <path id="path82" d="m734.44 466.68 13.482-13.482 30.588-30.629"/>
     <path id="path83" d="m736.92 474.38 13.97-13.97 27.615-27.655"/>
     <path id="path84" d="m741.36 480.12 12.504-12.504 24.641-24.682"/>
     <path id="path85" d="m751.55 480.12 5.2949-5.2949 21.668-21.709"/>
     <path id="path86" d="m761.69 480.12 16.821-16.781"/>
     <path id="path87" d="m771.87 480.12 6.6389-6.5982"/>
    </g>
    <g stroke="#f0f">
     <path id="path88" d="m778.51 366.65-0.0407-3.3806-0.16292-3.3398-0.24437-3.3398-0.36657-3.3806-0.4073-3.2991-0.57022-3.3398-0.65167-3.2991-0.73314-3.2584-0.81459-3.2584-0.93679-3.2584-1.059-3.1769-1.0997-3.1769-1.2219-3.1362-1.3034-3.0955-1.3848-3.0547-1.507-3.014-1.5885-2.9733-1.6699-2.9325-1.7514-2.8511-1.8328-2.8104-1.9143-2.7696-1.9958-2.7289-2.0772-2.6067-2.1587-2.6067-2.1994-2.5252-2.3216-2.4438-2.3623-2.3623-2.4438-2.3216-2.5252-2.1994-2.566-2.1587-2.6474-2.0772-2.6882-2.0365-2.7696-1.9143-2.8104-1.8328-2.8511-1.7514-2.9325-1.6699-2.9733-1.5885-3.014-1.4663-3.0547-1.4255-3.0547-1.3034-3.1362-1.2219-3.1769-1.0997-3.1769-1.059-3.2584-0.89605-3.2584-0.85533-3.2584-0.73313-3.2991-0.65168-3.2991-0.52949-3.3398-0.44802-3.3398-0.36657-3.3398-0.24438-3.3806-0.16292-3.3398-0.0407-3.3398 0.0407-3.3806 0.16292-3.3398 0.24438-3.3398 0.36657-3.3398 0.44802-3.2991 0.52949-3.2991 0.65168-3.2584 0.73313-3.2584 0.85533-3.2584 0.89605-3.1769 1.059-3.1769 1.0997-3.1362 1.2219-3.0547 1.3034-3.0547 1.4255-3.014 1.4663-2.9733 1.5885-2.9325 1.6699-2.8511 1.7514-2.8104 1.8328-2.7696 1.9143-2.6882 2.0365-2.6474 2.0772-2.566 2.1587-2.5252 2.1994-2.4438 2.3216-2.3623 2.3623-2.3216 2.4438-2.1994 2.5252-2.1587 2.6067-2.0772 2.6067-1.9958 2.7289-1.9143 2.7696-1.8328 2.8104-1.7514 2.8511-1.6699 2.9325-1.5885 2.9733-1.507 3.014-1.3848 3.0547-1.3034 3.0955-1.2219 3.1362-1.0997 3.1769-1.059 3.1769-0.93678 3.2584-0.8146 3.2584-0.73313 3.2584-0.65168 3.2991-0.57021 3.3398-0.4073 3.2991-0.36657 3.3806-0.24438 3.3398-0.16292 3.3398-0.0407 3.3806 0.0407 3.3806 0.16292 3.3398 0.24438 3.3398 0.36657 3.3806 0.4073 3.2991 0.57021 3.3398 0.65168 3.2991 0.73313 3.2584 0.8146 3.2584 0.93678 3.2584 1.059 3.1769 1.0997 3.1769 1.2219 3.1362 1.3034 3.0955 1.3848 3.0547 1.507 3.014 1.5885 2.9733 1.6699 2.9325 1.7514 2.8511 1.8328 2.8104 1.9143 2.7696 1.9958 2.7289 2.0772 2.6067 2.1587 2.6067 2.1994 2.5252 2.3216 2.4438 2.3623 2.3623 2.4438 2.3216 2.5252 2.1994 2.566 2.1587 2.6474 2.0772 2.6882 2.0365 2.7696 1.9143 2.8104 1.8328 2.8511 1.7514 2.9325 1.6699 2.9733 1.5885 3.014 1.4663 3.0547 1.4255 3.0547 1.3034 3.1362 1.2219 3.1769 1.0997 3.1769 1.059 3.2584 0.89605 3.2584 0.85533 3.2584 0.73313 3.2991 0.65168 3.2991 0.52949 3.3398 0.44802 3.3398 0.36657 3.3398 0.24438 3.3806 0.16292 3.3398 0.0407 3.3398-0.0407 3.3806-0.16292 3.3398-0.24438 3.3398-0.36657 3.3398-0.44802 3.2991-0.52949 3.2991-0.65168 3.2584-0.73313 3.2584-0.85533 3.2584-0.89605 3.1769-1.059 3.1769-1.0997 3.1362-1.2219 3.0547-1.3034 3.0547-1.4255 3.014-1.4663 2.9733-1.5885 2.9325-1.6699 2.8511-1.7514 2.8104-1.8328 2.7696-1.9143 2.6882-2.0365 2.6474-2.0772 2.566-2.1587 2.5252-2.1994 2.4438-2.3216 2.3623-2.3623 2.3216-2.4438 2.1994-2.5252 2.1587-2.6067 2.0772-2.6067 1.9958-2.7289 1.9143-2.7696 1.8328-2.8104 1.7514-2.8511 1.6699-2.9325 1.5885-2.9733 1.507-3.014 1.3848-3.0547 1.3034-3.0955 1.2219-3.1362 1.0997-3.1769 1.059-3.1769 0.93679-3.2584 0.81459-3.2584 0.73314-3.2584 0.65167-3.2991 0.57022-3.3398 0.4073-3.2991 0.36657-3.3806 0.24437-3.3398 0.16292-3.3398z"/>
     <path id="path89" d="m778.51 253.18h-226.66v226.95h226.66z"/>
     <path id="path90" d="m665.2 253.18 73.599 226.95"/>
     <path id="path91" d="m665.2 253.18-73.639 226.95"/>
    </g>
    <g stroke="#212830">
     <path id="path92" d="m591.56 484.68v42.318"/>
     <path id="path93" d="m738.8 484.68v42.318"/>
     <path id="path94" d="m598.36 522.48h38.938"/>
     <path id="path95" d="m731.99 522.48h-38.938"/>
    </g>
   </g>
   <g fill="#212830" fill-rule="evenodd">
    <path id="path96" d="m598.36 521.34v2.2809l-6.8019-1.1404z"/>
    <path id="path97" d="m731.99 521.34v2.2809l6.8019-1.1404z"/>
    <path id="path98" d="m647.11 515.84-3.5028 0.12219 1.059 0.20365 1.2219 1.059 0.12219 0.24438 0.44802 1.1812 0.24438 1.6699 0.0815 2.118v0.69241l-0.16292 1.9958-0.28511 1.507-0.44802 1.0182-0.85533 0.85532-1.4255 0.44803-2.9733 0.61095 1.3441 0.73313 1.6292 0.24438 1.5477-0.20365 1.3441-0.73314 0.97752-1.0997 0.73313-1.5477 0.28511-1.059 0.20365-1.5885 0.0815-1.8736v-0.61095l-0.12219-1.7514-0.24438-1.3848-0.28511-0.93678-0.6924-1.4255z"/>
    <path id="path99" d="m643.61 514.34-1.507 0.20365-1.3441 0.73314-1.0182 1.0997-0.73313 1.5477-0.28511 1.059-0.20365 1.5885-0.0815 1.8736v0.4073l0.12219 1.9143 0.32584 1.6699 0.44803 1.3848 0.6924 1.0997 0.61095 0.65168 2.9733-0.61095-1.059-0.24438-1.1812-1.059-0.16291-0.24438-0.4073-1.1812-0.28511-1.6292-0.0815-2.1587 0.0407-0.89605 0.12219-1.9143 0.36657-1.4663 0.48875-1.0997 0.69241-0.6924 1.4663-0.4073 3.5028-0.12219-1.2626-1.0182-0.61095-0.24438z"/>
    <path id="path100" d="m651.84 530.3v-2.2401h2.2401v2.2401z"/>
    <path id="path101" d="m665.93 521.42-3.7064 0.2851 0.89606 0.12219 1.3034 0.8146 0.61094 0.93678 0.28511 1.6699-0.16292 1.3848-0.73313 1.3034-0.65168 0.57021-1.4663 0.44803 3.4213 0.28511 0.93678-1.3441 0.44803-1.1404 0.20365-1.6292-0.0815-0.93678-0.4073-1.507z"/>
    <path id="path102" d="m662.63 520h-0.57022l-1.5477 0.48875-0.61094 0.4073-1.1404 1.1812 1.2219 0.57022 0.73313-0.57022 1.507-0.36657 3.7064-0.2851-0.36657-0.4073-1.3848-0.77387z"/>
    <path id="path103" d="m665.61 515.39-3.1769 0.52948 0.57022 0.0815 1.3441 0.77387 0.12219 0.12219 0.61094 1.5477 1.955-0.16292v-0.0815l-0.48876-1.6292z"/>
    <path id="path104" d="m662.51 514.34-1.3848 0.16292-1.4255 0.61095-1.1812 1.059-0.24438 0.32584-0.65168 1.2219-0.4073 1.4255-0.2851 1.7106-0.0815 1.9958 0.0815 1.7106 0.24437 1.7106 0.48876 1.3848 0.69241 1.0997 0.97751 0.89605 1.3848 0.69241 1.6292 0.20365 1.059-0.0815 1.507-0.61095 0.81459-0.61094-3.4213-0.28511h-0.0815l-1.507-0.48876-0.20365-0.12219-1.0182-1.2626-0.12219-0.36657-0.28511-1.5885 0.16292-1.1404 0.73314-1.3441-1.2219-0.57022 0.0407-0.57021 0.16292-1.7514 0.36657-1.3441 0.4073-0.8146 1.0182-1.1404 0.12219-0.0815 1.5477-0.44803 3.1769-0.52948-0.0815-0.0815-1.3441-0.73314z"/>
    <path id="path105" d="m671.31 525.94-2.0772 0.16292 0.0815 0.48875 0.52948 1.5477 0.97752 1.1812 3.5435-0.36657-0.61094-0.0407-1.3848-0.73314-0.52949-0.65167z"/>
    <path id="path106" d="m678.35 521.18-4.0322 0.28511 1.1404 0.16292 1.3034 0.81459 0.65168 0.97751 0.2851 1.6699-0.20364 1.507-0.77387 1.3034-0.85532 0.6924-1.507 0.36657-3.5435 0.36657 0.44802 0.36656 1.3848 0.65168 1.7106 0.20365 1.6292-0.20365 1.3848-0.65168 1.1404-1.059 0.44803-0.65167 0.61094-1.4256 0.20365-1.6699-0.0815-0.93678-0.44803-1.507z"/>
    <path id="path107" d="m674.85 519.75-1.5477 0.24438-1.4663 0.73313 6.5168 0.44803-0.52949-0.44803-1.3848-0.73313z"/>
    <path id="path108" d="m679.01 514.62h-7.8608l-1.5477 8.146 1.8328 0.24438 1.1812-1.0997 0.12219-0.0815 1.5885-0.36656 4.0322-0.28511-6.5168-0.44803 0.85533-4.2359h6.3131z"/>
    <path id="path109" d="m690.25 515.84-3.5028 0.12219 1.059 0.20365 1.2219 1.059 0.12219 0.24438 0.44803 1.1812 0.24438 1.6699 0.0815 2.118v0.69241l-0.16292 1.9958-0.28511 1.507-0.44803 1.0182-0.85532 0.85532-1.4255 0.44803-2.9733 0.61095 1.3441 0.73313 1.6292 0.24438 1.5477-0.20365 1.3441-0.73314 0.97751-1.0997 0.73314-1.5477 0.28511-1.059 0.20364-1.5885 0.0815-1.8736v-0.61095l-0.12219-1.7514-0.24437-1.3848-0.28511-0.93678-0.69241-1.4255z"/>
    <path id="path110" d="m686.74 514.34-1.507 0.20365-1.3441 0.73314-1.0182 1.0997-0.73313 1.5477-0.28511 1.059-0.20365 1.5885-0.0815 1.8736v0.4073l0.12219 1.9143 0.32584 1.6699 0.44802 1.3848 0.69241 1.0997 0.61095 0.65168 2.9733-0.61095-1.059-0.24438-1.1812-1.059-0.16292-0.24438-0.4073-1.1812-0.2851-1.6292-0.0815-2.1587 0.0407-0.89605 0.12219-1.9143 0.36656-1.4663 0.48876-1.0997 0.69241-0.6924 1.4663-0.4073 3.5028-0.12219-1.2626-1.0182-0.61094-0.24438z"/>
   </g>
   <path id="path111" d="m610.25 335.45 1.8736 1.2219 1.955 1.2219 1.955 1.1404 1.955 1.0997 2.0365 1.059 1.9958 1.0182" fill="none" stroke="#212830" stroke-linecap="round" stroke-linejoin="round" stroke-width=".3509"/>
   <path id="path112" d="m708.37 342.21 1.9958-1.0182 2.0365-1.059 1.955-1.0997 1.955-1.1404 1.955-1.2219 1.8736-1.2219" fill="none" stroke="#212830" stroke-linecap="round" stroke-linejoin="round" stroke-width=".3509"/>
   <g fill="#212830" fill-rule="evenodd">
    <path id="path113" d="m622.88 340.13-1.7106 4.2359 13.441 2.9733z"/>
    <path id="path114" d="m709.19 344.37-1.7106-4.2359-11.73 7.2092z"/>
    <path id="path115" d="m653.51 355.04-1.6699 0.24438 0.0407 0.28511 0.44803 1.3848 0.85532 1.0997 0.28511 0.20365 1.2219 0.65168 1.4663 0.20365 0.8146-0.0407 1.3441-0.4073 1.1404-0.81459-3.2584-0.12219-0.44803-0.0407-1.2626-0.61095-0.44803-0.57022z"/>
    <path id="path116" d="m659.54 352.11-3.2176 0.12219 0.69241 0.0815 1.2219 0.65168 0.40729 0.52948 0.32584 1.3848-0.0815 0.81459-0.6924 1.2219-0.65168 0.48876-1.3441 0.32584 3.2584 0.12219 0.36657-0.4073 0.6924-1.1812 0.24438-1.4255-0.12219-0.93679-0.57021-1.2626z"/>
    <path id="path117" d="m655.34 350.97-0.20365 1.4663 1.1812-0.20365 3.2176-0.12219-1.3441-0.61094 0.4073-0.20365-3.014-0.32584z"/>
    <path id="path118" d="m659.29 346.57h-3.1362l0.32584 0.0407 1.2626 0.57021 0.16292 0.20365 0.44803 1.3034-0.0815 0.65168-0.77387 1.059-0.48875 0.28511-1.4256 0.28511 3.014 0.32584 1.0182-0.93679 0.12219-0.24437 0.32584-1.3848v-0.40729l-0.48876-1.3441z"/>
    <path id="path119" d="m656.12 345.18h-0.0407l-1.4663 0.24438-1.2219 0.6924-0.0815 0.0815-0.8146 1.0997-0.48875 1.4255 1.6699 0.28511 0.16292-0.6924 0.6924-1.1404 0.24438-0.20364 1.3848-0.4073h3.1362l-1.1404-0.89606-0.61095-0.24437z"/>
    <path id="path120" d="m670.13 351.25-3.1769 0.24438 0.77387 0.12219 1.1404 0.6924 0.48876 0.8146 0.24438 1.4255-0.16292 1.1812-0.61095 1.1404-0.52949 0.48876-1.2626 0.36657 2.8918 0.24438 0.85533-1.1404 0.36657-0.97751 0.16291-1.4255-0.0407-0.77387-0.40729-1.3034z"/>
    <path id="path121" d="m667.28 350.03-0.48876 0.0407-1.3441 0.40729-0.48876 0.32584-0.97751 1.059 1.059 0.44803 0.61095-0.48876 1.3034-0.32583 3.1769-0.24438-0.32584-0.32584-1.1812-0.65168z"/>
    <path id="path122" d="m669.84 346.08-2.7289 0.48876 0.48876 0.0407 1.1812 0.6924 0.0815 0.0815 0.52949 1.3441 1.6699-0.16291v-0.0815l-0.4073-1.3441z"/>
    <path id="path123" d="m667.19 345.18-1.1812 0.16292-1.2219 0.48875-1.0182 0.93679-0.20365 0.2851-0.57021 1.0182-0.36657 1.2626-0.24438 1.4663-0.0407 1.7106 0.0407 1.4663 0.24438 1.4663 0.4073 1.1812 0.61094 0.93679 0.8146 0.77386 1.2219 0.57022 1.3441 0.20365 0.93679-0.12219 1.2626-0.48876 0.6924-0.52948-2.8918-0.24438h-0.0815l-1.3034-0.4073-0.16292-0.12219-0.85532-1.0997-0.12219-0.28511-0.24438-1.3441 0.12219-1.0182 0.65167-1.1404-1.059-0.44803 0.0407-0.52948 0.12219-1.507 0.32584-1.1404 0.36657-0.6924 0.85532-0.97752 0.12219-0.0814 1.3034-0.36657 2.7289-0.48876-0.0815-0.0407-1.1404-0.65167z"/>
    <path id="path124" d="m674.12 345.75-0.36657 0.48876-0.36657 1.3441 0.0407 0.61095 0.69241 1.2219 0.48875 0.36657 1.3441 0.36657 0.61095-0.0407 1.1812-0.69241-1.7921-0.24438-1.0997-0.48876-0.48876-1.0997 0.48876-1.0997 1.0997-0.44803z"/>
    <path id="path125" d="m675.95 345.02-0.61094 0.0407-1.2219 0.6924 1.8328 0.28511 1.0997 0.44803 0.44803 1.0997-0.44803 1.0997-1.0997 0.48876 1.7921 0.24438 0.4073-0.48876 0.36657-1.3441-0.0815-0.61094-0.69241-1.2219-0.44802-0.36656z"/>
   </g>
   <g fill="none" stroke="#212830" stroke-linecap="round" stroke-linejoin="round" stroke-width=".3509">
    <path id="path126" d="m669.47 251.75 162.31-52.786"/>
    <path id="path127" d="m743.11 478.74 162.31-52.826"/>
    <path id="path128" d="m829.54 206.83 35.924 110.62"/>
    <path id="path129" d="m898.99 420.86-27.533-84.922"/>
   </g>
   <g fill="#212830" fill-rule="evenodd">
    <path id="path130" d="m830.64 206.5-2.1587 0.6924-1.0182-6.8426z"/>
    <path id="path131" d="m900.09 420.49-2.1587 0.6924 3.1769 6.1502z"/>
    <path id="path132" d="m813.17 321.72-1.4663 0.81459v1.8736l0.52949-0.20365 1.507-0.77387 0.61095-0.40729 1.2626-0.93679z"/>
    <path id="path133" d="m817.53 318.55h-1.2219l-0.57021 0.85532-1.1812 1.2626-0.12219 0.12219-1.2626 0.93679 2.4438 0.36656v12.423h1.9143z"/>
    <path id="path134" d="m823.64 334.51v-2.2401h2.1994v2.2401z"/>
    <path id="path135" d="m837.32 320.1-3.5028 0.0815 1.0997 0.20364 1.2219 1.059 0.12219 0.28511 0.44802 1.1404 0.24438 1.6699 0.0815 2.1179v0.69241l-0.16292 1.9958-0.28511 1.507-0.44802 1.0182-0.85533 0.85533-1.4255 0.44802-2.9733 0.61095 1.3441 0.73313 1.6292 0.24438 1.5477-0.20365 1.3441-0.73313 0.97752-1.0997 0.73313-1.5477 0.28511-1.059 0.20365-1.5885 0.0815-1.8736v-0.61094l-0.12219-1.7514-0.24438-1.3848-0.28511-0.93679-0.6924-1.4255z"/>
    <path id="path136" d="m833.86 318.55-1.507 0.20364-1.3441 0.73314-1.0182 1.0997-0.73314 1.5477-0.28511 1.059-0.20365 1.6292-0.0815 1.8328v0.4073l0.12219 1.955 0.28511 1.6292 0.48876 1.3848 0.6924 1.0997 0.61095 0.65168 2.9733-0.61095-1.059-0.20365-1.1812-1.0997-0.16292-0.24438-0.44803-1.1812-0.24438-1.6292-0.0815-2.1587v-0.89605l0.16292-1.9143 0.32584-1.4663 0.52949-1.059 0.65167-0.69241 1.4663-0.44802 3.5028-0.0815-1.2219-1.0182-0.61095-0.28511z"/>
    <path id="path137" d="m843.06 330.16-2.0365 0.20365 0.0407 0.48876 0.52948 1.507 0.97752 1.2219 3.5435-0.4073-0.61094-0.0407-1.3848-0.73313-0.52949-0.61095z"/>
    <path id="path138" d="m850.11 325.43-4.0322 0.28511 1.1404 0.12219 1.3034 0.81459 0.65167 0.97752 0.28511 1.6699-0.20365 1.507-0.77386 1.3034-0.85533 0.69241-1.507 0.36656-3.5435 0.4073 0.44802 0.32584 1.3848 0.65167 1.7106 0.20365 1.6292-0.20365 1.3848-0.65167 1.1404-1.059 0.44802-0.61095 0.61095-1.4663 0.20365-1.6292-0.0815-0.93679-0.44803-1.507z"/>
    <path id="path139" d="m846.61 323.96-1.5477 0.24438-1.4663 0.77387 6.5168 0.44802-0.52949-0.48875-1.3848-0.73314z"/>
    <path id="path140" d="m850.8 318.83h-7.9016l-1.5477 8.146 1.8328 0.24438 1.1812-1.0997 0.12219-0.0815 1.5885-0.32584 4.0322-0.28511-6.5168-0.44802 0.85532-4.2766h6.3538z"/>
    <path id="path141" d="m856.3 321.72-1.4663 0.81459v1.8736l0.52948-0.20365 1.507-0.77387 0.61094-0.40729 1.2626-0.93679z"/>
    <path id="path142" d="m860.66 318.55h-1.2219l-0.57022 0.85532-1.1812 1.2626-0.12219 0.12219-1.2626 0.93679 2.4438 0.36656v12.423h1.9143z"/>
    <path id="path143" d="m873.86 318.63h-1.5885l-7.2499 10.305v1.7514h6.8833v3.8286h1.955v-3.8286h2.1587v-1.7514h-9.0827l4.969-7.1684z"/>
    <path id="path144" d="m873.86 318.63-1.955 3.1362v7.1684h-4.969 6.9241z"/>
    <path id="path145" d="m887.01 325.63-3.7064 0.28511 0.89605 0.12219 1.3034 0.81459 0.61095 0.93679 0.28511 1.6699-0.20365 1.3848-0.69241 1.3441-0.65167 0.52949-1.4663 0.44802 3.3806 0.28511 0.97751-1.3441 0.4073-1.1404 0.20365-1.6292-0.0407-0.89606-0.44803-1.5477z"/>
    <path id="path146" d="m883.67 324.21-0.57021 0.0407-1.5477 0.48876-0.61095 0.36656-1.0997 1.2219 1.2219 0.52948 0.69241-0.52948 1.5477-0.4073 3.7064-0.28511-0.40729-0.36657-1.3441-0.81459z"/>
    <path id="path147" d="m886.69 319.61-3.2176 0.57022 0.61094 0.0407 1.3441 0.77386 0.12219 0.12219 0.61095 1.5477 1.955-0.16292-0.0407-0.0815-0.48876-1.5885z"/>
    <path id="path148" d="m883.59 318.55-1.4256 0.16291-1.3848 0.61095-1.1812 1.059-0.28511 0.36657-0.61094 1.1812-0.44803 1.4256-0.24438 1.7514-0.12219 1.955 0.0815 1.7106 0.28511 1.7106 0.48876 1.4255 0.6924 1.059 0.97752 0.89606 1.3848 0.6924 1.6292 0.20365 1.059-0.0815 1.4663-0.57021 0.8146-0.65168-3.3806-0.28511h-0.0815l-1.5477-0.48875-0.20365-0.12219-0.97752-1.2626-0.16291-0.32583-0.28511-1.6292 0.16292-1.1404 0.77386-1.3441-1.2219-0.52948v-0.57022l0.16292-1.7921 0.36657-1.3441 0.40729-0.77387 1.059-1.1812 0.12219-0.0815 1.507-0.40729 3.2176-0.57022-0.0815-0.0815-1.3441-0.73314z"/>
    <path id="path149" d="m891.57 320.14-0.77386 1.3441-0.36657 1.6699 1.9958 0.20365 0.12219-1.0182 0.73313-1.3034 0.65168-0.48876 1.5885-0.36656z"/>
    <path id="path150" d="m895.57 318.55-0.73314 0.0407-1.5885 0.36656-1.2626 0.77387-0.4073 0.4073 3.9508 0.0407 0.81459 0.0815 1.3441 0.6924 0.40729 0.44803 0.44803 1.507-0.12219 0.85532-0.81459 1.507-0.77387 0.89606-1.1404 1.1404-1.5477 1.3441-0.20365 0.16292-1.3441 1.1812-1.0182 1.059-0.52948 0.6924-0.73314 1.4255-0.24438 1.3441h10.468v-1.8736h-7.7794l0.85532-1.059 0.69241-0.6924 1.5477-1.3034 0.77386-0.69241 1.3034-1.1812 0.93679-0.93679 0.48876-0.61094 0.77386-1.3441 0.12219-0.24438 0.28511-1.6292v-0.32584l-0.4073-1.507-0.93678-1.3034-0.52949-0.4073-1.3848-0.65168z"/>
    <path id="path151" d="m903.87 320.14-0.73314 1.3441-0.36657 1.6699 1.9958 0.20365 0.12219-1.0182 0.73314-1.3034 0.65167-0.48876 1.5885-0.36656z"/>
    <path id="path152" d="m907.91 318.55-0.73313 0.0407-1.5885 0.36656-1.2626 0.77387-0.44802 0.4073 3.9915 0.0407 0.8146 0.0815 1.3441 0.6924 0.36657 0.44803 0.44802 1.507-0.12219 0.85532-0.77386 1.507-0.77387 0.89606-1.1812 1.1404-1.5477 1.3441-0.20365 0.16292-1.3441 1.1812-0.97751 1.059-0.57022 0.6924-0.73314 1.4255-0.20364 1.3441h10.468v-1.8736h-7.7794l0.81459-1.059 0.73314-0.6924 1.507-1.3034 0.81459-0.69241 1.3034-1.1812 0.89605-0.93679 0.48876-0.61094 0.81459-1.3441 0.12219-0.24438 0.24438-1.6292v-0.32584l-0.36657-1.507-0.93678-1.3034-0.52949-0.4073-1.3848-0.65168z"/>
    <path id="path153" d="m916.22 320.14-0.77387 1.3441-0.36656 1.6699 1.9958 0.20365 0.12219-1.0182 0.73314-1.3034 0.6924-0.48876 1.5885-0.36656z"/>
    <path id="path154" d="m920.25 318.55-0.73313 0.0407-1.6292 0.36656-1.2626 0.77387-0.4073 0.4073 3.9915 0.0407 0.77387 0.0815 1.3848 0.6924 0.36657 0.44803 0.44802 1.507-0.12219 0.85532-0.77386 1.507-0.77387 0.89606-1.1812 1.1404-1.5477 1.3441-0.20365 0.16292-1.3441 1.1812-1.0182 1.059-0.52949 0.6924-0.73313 1.4255-0.24438 1.3441h10.508v-1.8736h-7.7794l0.8146-1.059 0.6924-0.6924 1.5477-1.3034 0.77387-0.69241 1.3034-1.1812 0.93678-0.93679 0.48876-0.61094 0.77386-1.3441 0.12219-0.24438 0.28511-1.6292v-0.32584l-0.4073-1.507-0.93678-1.3034-0.48876-0.4073-1.3848-0.65168z"/>
   </g>
   <path id="path155" d="m557.83 214.89h24.153l22.116 40.363" fill="none" stroke="#212830" stroke-linecap="round" stroke-linejoin="round" stroke-width=".3509"/>
   <g fill="#212830" fill-rule="evenodd">
    <path id="path156" d="m496.17 215.38-3.1362 0.16292 0.97751 0.0815 0.85533 0.32584 0.89605 0.93678 0.4073 0.52949 0.89605 1.3441 1.7921 2.8104h2.2809l-2.4031-3.7064-0.52949-0.73314-0.93678-1.059z"/>
    <path id="path157" d="m499.06 209.15-3.8286 0.32584 1.059 0.0815 1.1812 0.52949 0.24438 0.2851 0.44802 1.3034-0.36656 1.2219-1.059 0.81459-0.40729 0.12219-1.5477 0.16292h-3.8286l8.1052 0.12219 0.6924-1.0182 0.24438-1.4256-0.0407-0.6924-0.52948-1.3441z"/>
    <path id="path158" d="m495.15 207.97h-6.028v13.604h1.8328v-6.028h2.0772l3.1362-0.16292 0.40729-0.0407 1.4663-0.44803 1.0182-0.77386-8.1052-0.12219v-4.521h4.2766l3.8286-0.32584-1.1404-0.81459-1.0997-0.24438z"/>
    <path id="path159" d="m509.57 209.23-3.014 0.0815 0.93679 0.20365 1.0182 0.89605 0.16292 0.20365 0.32584 1.0182 0.24437 1.4255 0.0407 1.8328v0.57022l-0.12219 1.7106-0.24437 1.2626-0.4073 0.89606-0.69241 0.73313-1.2219 0.36657-2.566 0.52949 1.1404 0.65167 1.4255 0.20365 1.3034-0.16292 1.1404-0.65167 0.85532-0.93679 0.61095-1.3441 0.24437-0.89605 0.20365-1.3441 0.0815-1.5885-0.0407-0.52948-0.0815-1.507-0.20365-1.2219-0.24437-0.8146-0.61095-1.1812z"/>
    <path id="path160" d="m506.6 207.93-1.3034 0.16292-1.1812 0.61094-0.8146 0.97752-0.65167 1.3034-0.24438 0.93678-0.20365 1.3441-0.0407 1.6292v0.32584l0.0815 1.6699 0.28511 1.4255 0.40729 1.1812 0.57022 0.89605 0.52949 0.57022 2.566-0.52949-0.89605-0.16292-1.059-0.93678-0.12219-0.20365-0.36656-1.0182-0.20365-1.4255-0.0815-1.7921v-0.77386l0.16292-1.6699 0.28511-1.2626 0.40729-0.89606 0.57022-0.61094 1.2626-0.36657 3.014-0.0815-1.059-0.89605-0.52949-0.20365z"/>
    <path id="path161" d="m513.64 221.57v-1.8736h1.9143v1.8736z"/>
    <path id="path162" d="m519.75 217.86-1.7514 0.16291 0.0407 0.4073 0.44803 1.3034 0.85532 1.059 3.014-0.36657-0.48876-0.0407-1.2219-0.61095-0.44803-0.52948z"/>
    <path id="path163" d="m525.78 213.79-3.462 0.24438 0.97751 0.12219 1.1404 0.6924 0.52948 0.85533 0.28511 1.4255-0.20365 1.2626-0.65167 1.1404-0.73314 0.61094-1.3034 0.28511-3.014 0.36657 0.36657 0.28511 1.2219 0.57021 1.4255 0.16292 1.3848-0.16292 1.2219-0.57021 0.97752-0.89606 0.36657-0.57022 0.52948-1.2219 0.16292-1.4255-0.0407-0.77386-0.4073-1.3034z"/>
    <path id="path164" d="m522.77 212.57-1.3034 0.20365-1.2626 0.65167 5.58 0.36657-0.44803-0.4073-1.1812-0.61094z"/>
    <path id="path165" d="m526.35 208.17h-6.7611l-1.3034 6.9648 1.5885 0.20365 1.0182-0.93678 0.0815-0.0407 1.3441-0.32584 3.462-0.24438-5.58-0.36657 0.73314-3.6657h5.4171z"/>
    <path id="path166" d="m535.96 209.23-2.9733 0.0815 0.89606 0.20365 1.059 0.89605 0.12219 0.20365 0.36657 1.0182 0.20365 1.4255 0.0815 1.8328v0.57022l-0.12219 1.7106-0.28511 1.2626-0.36657 0.89606-0.73313 0.73313-1.2219 0.36657-2.5252 0.52949 1.1404 0.65167 1.3848 0.20365 1.3034-0.16292 1.1812-0.65167 0.85532-0.93679 0.61095-1.3441 0.24438-0.89605 0.16292-1.3441 0.0815-1.5885v-0.52948l-0.12219-1.507-0.20365-1.2219-0.24438-0.8146-0.57022-1.1812z"/>
    <path id="path167" d="m532.99 207.93-1.3034 0.16292-1.1404 0.61094-0.85533 0.97752-0.65167 1.3034-0.24438 0.93678-0.16292 1.3441-0.0815 1.6292v0.32584l0.12219 1.6699 0.24438 1.4255 0.4073 1.1812 0.57021 0.89605 0.57022 0.57022 2.5252-0.52949-0.89605-0.16292-1.0182-0.93678-0.16292-0.20365-0.36657-1.0182-0.20365-1.4255-0.0815-1.7921 0.0407-0.77386 0.12219-1.6699 0.28511-1.2626 0.4073-0.89606 0.61094-0.61094 1.2626-0.36657 2.9733-0.0815-1.059-0.89605-0.52949-0.20365z"/>
    <path id="path168" d="m606.1 254.15-3.9915 2.1994 8.5532 10.834z"/>
   </g>
   <path id="path169" d="m709.72 434.18-1.7106 1.0997-1.6699 1.1812-1.5885 1.2626-1.5885 1.3034" fill="none" stroke="#212830" stroke-linecap="round" stroke-linejoin="round" stroke-width=".3509"/>
   <path id="path170" d="m689.51 457.23-0.69241 1.5477-0.61094 1.507-0.61095 1.5477-0.52949 1.5885-0.48875 1.5885-0.4073 1.5885" fill="none" stroke="#212830" stroke-linecap="round" stroke-linejoin="round" stroke-width=".3509"/>
   <g fill="#212830" fill-rule="evenodd">
    <path id="path171" d="m708.74 432.1 1.955 4.1137 11.323-7.8201z"/>
    <path id="path172" d="m688.41 466.93-4.4803-0.57021 0.52949 13.767z"/>
    <path id="path173" d="m690.37 441.51h-8.7976v1.6292h6.639l-0.77387 0.97752-0.81459 1.2219-0.77387 1.3441-0.81459 1.6292-0.48876 1.3848-0.44803 1.3848-0.28511 1.1404-0.24437 1.4663-0.0815 1.2626h1.7106l0.0815-0.89606 0.20364-1.4663 0.36657-1.3848 0.20365-0.6924 0.48876-1.3441 0.57021-1.3441 0.69241-1.3441 0.0815-0.0815 0.81459-1.3848 0.8146-1.2219 0.85532-0.97751z"/>
    <path id="path174" d="m693.1 442.65-0.65168 1.1404-0.32584 1.4255 1.7106 0.16292 0.12219-0.85532 0.61095-1.1404 0.57021-0.40729 1.3848-0.32584z"/>
    <path id="path175" d="m696.56 441.27-0.65167 0.0407-1.3441 0.32583-1.0997 0.65168-0.36656 0.36657h3.4213l0.69241 0.0815 1.1404 0.61094 0.32584 0.4073 0.36657 1.2626-0.0815 0.73314-0.69241 1.3034-0.65167 0.77386-1.0182 0.93679-1.3034 1.1812-0.20365 0.12219-1.1404 1.0182-0.85532 0.89606-0.44803 0.61094-0.65168 1.2219-0.20365 1.1404h9.0013v-1.5885h-6.6797l0.73313-0.93678 0.61095-0.57022 1.3034-1.1404 0.69241-0.57022 1.0997-1.0182 0.77387-0.77387 0.44802-0.52949 0.65168-1.1404 0.12219-0.24438 0.24438-1.3848-0.0407-0.28511-0.32584-1.3034-0.77387-1.0997-0.44802-0.36657-1.2219-0.52949z"/>
    <path id="path176" d="m703.73 441.88-0.36657 0.44803-0.36657 1.3441 0.0407 0.61095 0.69241 1.2219 0.48876 0.36657 1.3441 0.40729 0.61094-0.0815 1.2219-0.6924-1.8328-0.24438-1.0997-0.48876-0.44802-1.0997 0.44802-1.0997 1.0997-0.44803z"/>
    <path id="path177" d="m705.56 441.1-0.61095 0.0815-1.2219 0.6924 1.8328 0.24438 1.0997 0.44803 0.44803 1.0997-0.44803 1.0997-1.0997 0.48876 1.8328 0.24438 0.36656-0.48876 0.36657-1.3441-0.0407-0.61095-0.6924-1.1812-0.48876-0.4073z"/>
   </g>
   <g fill="none" stroke="#212830" stroke-linecap="round" stroke-linejoin="round" stroke-width=".3509">
    <path id="path178" d="m551.85 484.68v42.318"/>
    <path id="path179" d="m591.56 484.68v42.318"/>
    <path id="path180" d="m584.76 522.48h-26.108"/>
    <path id="path181" d="m551.85 522.48h-12.993"/>
   </g>
   <g fill="#212830" fill-rule="evenodd">
    <path id="path182" d="m584.76 521.34v2.2809l6.8019-1.1404z"/>
    <path id="path183" d="m558.65 521.34v2.2809l-6.8019-1.1404z"/>
    <path id="path184" d="m505.13 515.84-3.5028 0.12219 1.0997 0.20365 1.1812 1.059 0.16292 0.24438 0.44802 1.1812 0.24438 1.6699 0.0815 2.118v0.69241l-0.16292 1.9958-0.28511 1.507-0.48875 1.0182-0.8146 0.85532-1.4255 0.44803-2.9733 0.61095 1.3441 0.73313 1.6292 0.24438 1.5477-0.20365 1.3441-0.73314 0.97752-1.0997 0.73313-1.5477 0.28511-1.059 0.20365-1.5885 0.0815-1.8736v-0.61095l-0.12219-1.7514-0.24438-1.3848-0.28511-0.93678-0.6924-1.4255z"/>
    <path id="path185" d="m501.67 514.34-1.507 0.20365-1.3848 0.73314-0.97751 1.0997-0.73314 1.5477-0.28511 1.059-0.20365 1.5885-0.0815 1.8736v0.4073l0.12218 1.9143 0.28511 1.6699 0.48876 1.3848 0.65168 1.0997 0.65167 0.65168 2.9733-0.61095-1.059-0.24438-1.1812-1.059-0.16292-0.24438-0.44803-1.1812-0.24438-1.6292-0.0815-2.1587v-0.89605l0.16292-1.9143 0.32584-1.4663 0.52949-1.0997 0.65167-0.6924 1.4663-0.4073 3.5028-0.12219-1.2219-1.0182-0.61095-0.24438z"/>
    <path id="path186" d="m509.9 530.3v-2.2401h2.2401v2.2401z"/>
    <path id="path187" d="m517.92 517.51-1.4663 0.8146v1.8736l0.52949-0.20364 1.5477-0.8146 0.61094-0.36657 1.2219-0.97751z"/>
    <path id="path188" d="m522.32 514.34h-1.2626l-0.52949 0.85533-1.2219 1.2626-0.0815 0.0815-1.3034 0.97751 2.4438 0.32584v12.463h1.955z"/>
    <path id="path189" d="m536.21 522.44-3.7471 0.0815 1.0182 0.12219 1.3441 0.77386 0.57022 0.77387 0.36657 1.5885-0.12219 0.93678-0.8146 1.3441-0.73313 0.52949-1.5477 0.36657-3.8286 0.20365 0.69241 0.57021 1.4255 0.61095 1.6699 0.20365 1.0182-0.0815 1.507-0.44803 1.2626-0.85532 0.44803-0.44803 0.73313-1.3848 0.24438-1.5885-0.12219-1.0997-0.61094-1.4255z"/>
    <path id="path190" d="m529.12 515.56-0.89606 1.3034-0.32583 1.5477 0.0407 0.52948 0.57021 1.4663 0.36657 0.4073 1.4255 0.85533-1.059 0.40729-1.1812 1.0182-0.52948 0.93678-0.24438 1.6699 0.0407 0.69241 0.44803 1.507 0.93678 1.2626 3.8286-0.20365h-0.16292l-1.5477-0.44803-0.0407-0.0407-1.0997-1.1404-0.0407-0.0407-0.36656-1.5885 0.12219-0.93678 0.77386-1.3441 0.73314-0.52948 1.5477-0.36657 3.7471-0.0815-1.4663-0.77386 0.57022-0.24438-2.8104-0.48876-0.48876-0.0407-1.3848-0.69241-0.28511-0.32583-0.44803-1.507 0.0407-0.32584 0.69241-1.3848 0.32584-0.28511 1.5477-0.44803z"/>
    <path id="path191" d="m532.46 514.34h-0.44803l-1.5885 0.36657-1.2626 0.81459-0.0407 0.0407 3.3806 0.36657 0.44802 0.0407 1.3848 0.69241 0.28511 0.32584 0.44803 1.507v0.32583l-0.69241 1.3848-0.32583 0.28511-1.5477 0.44803 2.8104 0.48876 1.1812-1.0182 0.24438-0.36656 0.32584-1.5477v-0.12219l-0.32584-1.5477-0.93678-1.3034-0.28511-0.24437-1.3848-0.69241z"/>
   </g>
   <g fill="none" stroke="#212830" stroke-linecap="round" stroke-linejoin="round" stroke-width=".3509">
    <path id="path192" d="m738.8 484.68v42.318"/>
    <path id="path193" d="m778.51 484.68v42.318"/>
    <path id="path194" d="m745.6 522.48h26.108"/>
    <path id="path195" d="m778.51 522.48h6.7611"/>
   </g>
   <g fill="#212830" fill-rule="evenodd">
    <path id="path196" d="m745.6 521.34v2.2809l-6.8019-1.1404z"/>
    <path id="path197" d="m771.71 521.34v2.2809l6.8019-1.1404z"/>
    <path id="path198" d="m795.09 515.84-3.5028 0.0815 1.059 0.24438 1.2219 1.059 0.16291 0.24438 0.4073 1.1812 0.24438 1.6699 0.0815 2.118v0.69241l-0.12219 1.955-0.32584 1.507-0.44802 1.059-0.85533 0.85532-1.4255 0.44803-2.9325 0.61095 1.3034 0.73313 1.6292 0.24438 1.5477-0.20365 1.3441-0.73314 0.97752-1.0997 0.73313-1.5477 0.28511-1.059 0.24438-1.5885 0.0407-1.8736v-0.61095l-0.0815-1.7514-0.24438-1.3848-0.32584-0.97751-0.6924-1.3848z"/>
    <path id="path199" d="m791.58 514.34-1.507 0.20365-1.3441 0.73314-0.97752 1.0997-0.73313 1.5477-0.28511 1.059-0.24438 1.5885-0.0815 1.8736v0.4073l0.12219 1.9143 0.32584 1.6699 0.48876 1.3848 0.65167 1.0997 0.65168 0.65168 2.9325-0.61095-1.0182-0.24438-1.2219-1.059-0.16291-0.24438-0.4073-1.1812-0.24438-1.6699-0.12219-2.118 0.0407-0.89605 0.16292-1.9143 0.32584-1.507 0.48875-1.059 0.69241-0.6924 1.4663-0.44803 3.5028-0.0815-1.2626-1.0182-0.57022-0.24438z"/>
    <path id="path200" d="m799.85 530.26v-2.1994h2.1994v2.1994z"/>
    <path id="path201" d="m807.87 517.51-1.4663 0.8146v1.8736l0.52948-0.20364 1.507-0.8146 0.61095-0.36657 1.2219-0.97751z"/>
    <path id="path202" d="m812.23 514.34h-1.2626l-0.52949 0.85533-1.1812 1.2626-0.12219 0.0815-1.2626 0.97751 2.403 0.32584v12.423h1.955z"/>
    <path id="path203" d="m827.63 514.58h-10.264v1.8736h7.7794l-0.93679 1.1812-0.93678 1.3848-0.93679 1.5885-0.20364 0.36657-0.69241 1.5477-0.61095 1.5885-0.52948 1.6292-0.28511 1.3441-0.32584 1.7106-0.12219 1.4663h2.0365l0.0815-1.059 0.24438-1.7106 0.40729-1.5885 0.24438-0.8146 0.57022-1.5885 0.69241-1.5477 0.77386-1.5477 0.0815-0.12219 0.97751-1.6292 0.97752-1.3848 0.97751-1.1404z"/>
    <path id="path204" d="m831.62 525.94-2.0772 0.16292 0.0815 0.48875 0.52949 1.507 0.97751 1.2219 3.5028-0.36657-0.57022-0.0815-1.3848-0.69241-0.52949-0.65167z"/>
    <path id="path205" d="m838.63 521.18-3.9915 0.28511 1.1404 0.16292 1.3034 0.81459 0.65168 0.97751 0.28511 1.6292-0.24438 1.507-0.73314 1.3441-0.85532 0.65167-1.5477 0.4073-3.5028 0.36657 0.44803 0.36656 1.3848 0.65168 1.6699 0.20365 1.6699-0.20365 1.3848-0.65168 1.1404-1.059 0.44803-0.65167 0.61094-1.4663 0.20365-1.6292-0.0815-0.93678-0.44802-1.507z"/>
    <path id="path206" d="m835.12 519.75-1.507 0.24438-1.4663 0.73313 6.476 0.44803-0.48876-0.44803-1.3848-0.73313z"/>
    <path id="path207" d="m839.32 514.62h-7.8608l-1.5477 8.146 1.8328 0.24438v-0.0407l1.1812-1.0997 0.12219-0.0407 1.5885-0.36656 3.9915-0.28511-6.476-0.44803 0.85533-4.2766h6.3131z"/>
    <path id="path208" d="m850.52 515.84-3.5028 0.0815 1.0997 0.24438 1.1812 1.059 0.16292 0.24438 0.44803 1.1812 0.24438 1.6699 0.0815 2.118v0.69241l-0.16292 1.955-0.28511 1.507-0.48876 1.059-0.81459 0.85532-1.4255 0.44803-2.9733 0.61095 1.3441 0.73313 1.6292 0.24438 1.5477-0.20365 1.3441-0.73314 0.97751-1.0997 0.73314-1.5477 0.28511-1.059 0.20365-1.5885 0.0815-1.8736v-0.61095l-0.12218-1.7514-0.24438-1.3848-0.28511-0.97751-0.69241-1.3848z"/>
    <path id="path209" d="m847.06 514.34-1.507 0.20365-1.3441 0.73314-1.0182 1.0997-0.73313 1.5477-0.28511 1.059-0.20365 1.5885-0.0815 1.8736v0.4073l0.12219 1.9143 0.28511 1.6699 0.48875 1.3848 0.65168 1.0997 0.65168 0.65168 2.9733-0.61095-1.059-0.24438-1.1812-1.059-0.16292-0.24438-0.44802-1.1812-0.24438-1.6699-0.0815-2.118v-0.89605l0.16292-1.9143 0.32583-1.507 0.52949-1.059 0.65168-0.6924 1.4663-0.44803 3.5028-0.0815-1.2219-1.0182-0.61094-0.24438z"/>
    <path id="path210" d="m863.14 522.44-3.7879 0.0815 1.0182 0.12219 1.3441 0.77386 0.57022 0.77387 0.36657 1.5477-0.12219 0.97751-0.8146 1.3441-0.73313 0.52949-1.5477 0.36657-3.8286 0.20365 0.69241 0.57021 1.4255 0.61095 1.6699 0.20365 1.0182-0.0815 1.5477-0.44803 1.2219-0.85532 0.44802-0.44803 0.73314-1.3848 0.28511-1.5885-0.12219-1.0997-0.65168-1.4255z"/>
    <path id="path211" d="m856.02 515.56-0.89605 1.3034-0.28511 1.5477v0.52948l0.57021 1.4663 0.36657 0.4073 1.4255 0.85533-1.059 0.40729-1.1812 1.0182-0.48876 0.93678-0.28511 1.6699 0.0407 0.69241 0.44803 1.507 0.93678 1.2626 3.8286-0.20365h-0.12219l-1.5477-0.44803-0.0815-0.0407-1.0997-1.1404-0.0407-0.0815-0.36657-1.5477 0.12219-0.93678 0.77386-1.3441 0.73314-0.52948 1.5477-0.36657 3.7879-0.0815-1.507-0.77386 0.61094-0.28511-2.8104-0.44803-0.52949-0.0407-1.3848-0.69241-0.24438-0.32583-0.44802-1.507v-0.32584l0.73313-1.3848 0.32584-0.28511 1.507-0.44803z"/>
    <path id="path212" d="m859.4 514.34h-0.44803l-1.6292 0.36657-1.2626 0.81459-0.0407 0.0407 3.3806 0.36657 0.44803 0.0407 1.4255 0.69241 0.24438 0.32584 0.48875 1.4663-0.0407 0.36656-0.6924 1.3848-0.32584 0.28511-1.507 0.44803 2.8104 0.44803 1.1812-0.97752 0.20365-0.36656 0.36651-1.5477v-0.12219l-0.36657-1.5477-0.89605-1.3034-0.32584-0.24437-1.3441-0.73314z"/>
    <path id="path213" d="m875.2 515.84-3.5028 0.0815 1.059 0.24438 1.2219 1.059 0.16292 0.24438 0.40729 1.1812 0.24438 1.6699 0.0815 2.118v0.69241l-0.12219 1.955-0.32584 1.507-0.44802 1.059-0.85533 0.85532-1.4255 0.44803-2.9733 0.61095 1.3441 0.73313 1.6292 0.24438 1.5477-0.20365 1.3441-0.73314 0.97752-1.0997 0.73313-1.5477 0.28511-1.059 0.20365-1.5885 0.0815-1.8736v-0.61095l-0.12219-1.7514-0.24438-1.3848-0.28511-0.97751-0.6924-1.3848z"/>
    <path id="path214" d="m871.7 514.34-1.507 0.20365-1.3441 0.73314-1.0182 1.0997-0.69241 1.5477-0.32584 1.059-0.20365 1.5885-0.0815 1.8736v0.4073l0.12219 1.9143 0.32584 1.6699 0.44803 1.3848 0.6924 1.0997 0.61095 0.65168 2.9733-0.61095-1.0182-0.24438-1.2219-1.059-0.16292-0.24438-0.4073-1.1812-0.28511-1.6699-0.0815-2.118 0.0407-0.89605 0.16292-1.9143 0.32584-1.507 0.48875-1.059 0.69241-0.6924 1.4663-0.44803 3.5028-0.0815-1.2626-1.0182-0.61095-0.24438z"/>
    <path id="path215" d="m880.82 525.82-1.955 0.24438 0.0407 0.36656 0.52948 1.5885 1.0182 1.3034 0.32583 0.24438 1.4255 0.73313 1.7106 0.24438 0.89606-0.0407 1.5885-0.48876 1.3441-0.89605-3.8286-0.16292-0.48875-0.0407-1.4663-0.69241-0.52949-0.6924z"/>
    <path id="path216" d="m887.83 522.36-3.7471 0.16292 0.8146 0.12219 1.4255 0.77386 0.44803 0.61095 0.40729 1.5885-0.12219 0.97751-0.81459 1.3848-0.73314 0.57021-1.5885 0.4073 3.8286 0.16292 0.44803-0.48876 0.77386-1.4255 0.28511-1.6292-0.12219-1.0997-0.65168-1.4663z"/>
    <path id="path217" d="m882.94 521.06-0.24438 1.7106 1.3848-0.24438 3.7471-0.16292-1.5477-0.6924 0.44803-0.20365-3.5028-0.4073z"/>
    <path id="path218" d="m887.54 515.92h-3.6657l0.4073 0.0407 1.4663 0.65168 0.20365 0.24438 0.52949 1.5477-0.0815 0.73313-0.93679 1.2626-0.57021 0.32584-1.6699 0.32584 3.5028 0.4073 1.1812-1.1404 0.16292-0.24437 0.40729-1.6292-0.0407-0.44803-0.52948-1.5885z"/>
    <path id="path219" d="m883.84 514.34h-0.0407l-1.7106 0.28511-1.3848 0.77387-0.12219 0.12218-0.97751 1.2626-0.52949 1.6699 1.955 0.32583 0.16292-0.77386 0.8146-1.3441 0.2851-0.28511 1.5885-0.44803h3.6657l-1.3034-1.059-0.73314-0.28511z"/>
    <path id="path220" d="m899.84 515.84-3.5028 0.0815 1.059 0.24438 1.2219 1.059 0.16292 0.24438 0.4073 1.1812 0.24437 1.6699 0.0815 2.118v0.69241l-0.12218 1.955-0.32584 1.507-0.44803 1.059-0.85532 0.85532-1.4256 0.44803-2.9325 0.61095 1.3034 0.73313 1.6292 0.24438 1.5477-0.20365 1.3441-0.73314 0.97751-1.0997 0.73314-1.5477 0.2851-1.059 0.24438-1.5885 0.0407-1.8736v-0.61095l-0.0815-1.7514-0.24438-1.3848-0.32583-0.97751-0.69241-1.3848z"/>
    <path id="path221" d="m896.34 514.34-1.507 0.20365-1.3441 0.73314-0.97751 1.0997-0.73314 1.5477-0.2851 1.059-0.24438 1.5885-0.0815 1.8736v0.4073l0.12219 1.9143 0.32583 1.6699 0.48876 1.3848 0.65168 1.0997 0.65167 0.65168 2.9325-0.61095-1.0182-0.24438-1.2219-1.059-0.16292-0.24438-0.4073-1.1812-0.24438-1.6699-0.0815-2.118v-0.89605l0.16292-1.9143 0.32584-1.507 0.48876-1.059 0.6924-0.6924 1.4663-0.44803 3.5028-0.0815-1.2626-1.0182-0.57022-0.24438z"/>
   </g>
   <g stroke-width=".3509">
    <text id="text222" transform="translate(910.84 287.63)" fill="#000000" font-family="Arial" font-size="68.688px" font-weight="400" letter-spacing="0px" word-spacing="0px" style="line-height:125%" xml:space="preserve"><tspan id="tspan222" x="0" y="0" sodipodi:role="line"><tspan id="tspan221" dx="0" dy="0" fill="#212830" font-family="Arial" font-size="68.688px" font-weight="400" stroke-width=".3509">1+v</tspan></tspan></text>
    <text id="text224" transform="translate(1026.7 287.63)" fill="#000000" font-family="Arial" font-size="63.438px" font-weight="400" letter-spacing="0px" word-spacing="0px" style="line-height:125%" xml:space="preserve"><tspan id="tspan224" x="0" y="0" sodipodi:role="line"><tspan id="tspan223" dx="0" dy="0" fill="#212830" font-family="Arial" font-size="63.438px" font-weight="400" stroke-width=".3509">3</tspan></tspan></text>
    <path id="path224" d="m778.51 295.7 94.493-46.758h22.646" fill="none" stroke="#212830" stroke-linecap="round" stroke-linejoin="round"/>
   </g>
   <g fill="#212830" fill-rule="evenodd">
    <path id="path225" d="m966.76 348.12-5.9873 0.16292 1.8328 0.40729 2.0772 1.8328 0.24438 0.4073 0.73313 2.0365 0.4073 2.8104 0.16292 3.6657v1.1404l-0.24438 3.4213-0.52948 2.6067-0.77387 1.7514-1.4663 1.4663-2.4031 0.77387-5.0912 1.059 2.2809 1.2626 2.8104 0.4073 2.6067-0.36657 2.3216-1.2219 1.7106-1.9143 1.2219-2.6474 0.48876-1.7921 0.36657-2.7289 0.12219-3.2176v-1.059l-0.20365-3.014-0.4073-2.3623-0.48875-1.6292-1.1812-2.4438z"/>
    <path id="path226" d="m960.81 345.51-2.6067 0.36657-2.3216 1.2626-1.7106 1.8736-1.2626 2.6474-0.48876 1.8328-0.36657 2.7289-0.12219 3.2176v0.65167l0.20365 3.3398 0.52949 2.8511 0.81459 2.3623 1.1404 1.8736 1.0997 1.1404 5.0912-1.059-1.7921-0.4073-2.0772-1.8328-0.28511-0.44803-0.73313-1.9958-0.4073-2.8104-0.16292-3.6657 0.0407-1.5477 0.24438-3.2584 0.57021-2.566 0.85533-1.8328 1.1812-1.1812 2.5252-0.77386 5.9873-0.16292-2.118-1.7106-1.059-0.44803z"/>
    <path id="path227" d="m974.95 372.88v-3.8286h3.7879v3.8286z"/>
    <path id="path228" d="m988.67 350.97-2.4845 1.3848v3.2584l0.89606-0.4073 2.6067-1.3441 1.059-0.65167 2.118-1.6292z"/>
    <path id="path229" d="m996.21 345.51h-2.1587l-0.93678 1.4663-2.0365 2.1994-0.20365 0.16292-2.1994 1.6292 4.1952 0.61095v21.302h3.3398z"/>
    <path id="path230" d="m1022.6 346h-17.595v3.2176h13.319l-1.5885 1.955-1.6292 2.4438-1.5884 2.6882-0.2852 0.65167-1.2626 2.6474-1.059 2.7289-0.8553 2.7696-0.5295 2.2809-0.5295 2.9325-0.2036 2.566h3.462l0.1629-1.8328 0.4481-2.9325 0.6517-2.7289 0.4072-1.3848 1.0183-2.7289 1.1404-2.6882 1.3848-2.6474 0.1222-0.20365 1.6699-2.7696 1.67-2.3623 1.6699-1.9958z"/>
    <path id="path231" d="m1029.4 365.43-3.5027 0.32584 0.1222 0.81459 0.896 2.6067 1.67 2.0772 6.0687-0.65167-1.0183-0.12219-2.403-1.1812-0.8961-1.0997z"/>
    <path id="path232" d="m1041.5 357.28-6.9241 0.48876 1.9958 0.2851 2.2401 1.3848 1.0997 1.6699 0.4888 2.8104-0.3666 2.6067-1.3033 2.2401-1.4663 1.1812-2.6067 0.65168-6.0687 0.65167 0.7738 0.61095 2.4031 1.0997 2.8918 0.36657 2.8103-0.36657 2.3624-1.0997 1.955-1.8328 0.7739-1.0997 1.0182-2.4845 0.3666-2.8104-0.1222-1.5885-0.7739-2.6067z"/>
    <path id="path233" d="m1035.4 354.8-2.6067 0.44802-2.5253 1.2626 11.16 0.77387-0.8961-0.8146-2.3623-1.2219z"/>
    <path id="path234" d="m1042.6 346h-13.522l-2.6475 14.011 3.1362 0.4073v-0.0407l2.0365-1.8736 0.2037-0.12219 2.6881-0.61094 6.9241-0.48876-11.16-0.77387 1.4663-7.2906h10.875z"/>
    <path id="path235" d="m1054.2 351.66-1.5884 1.0997 1.3848 2.2809 1.1811 1.7106 2.1994-1.5477v-0.0407l-1.8328-2.1179z"/>
    <path id="path236" d="m1047.4 347.99-0.8554 2.6474 5.1727-0.85532-1.7106-0.8146z"/>
    <path id="path237" d="m1058 347.99-2.3623 0.85532-2.0365 0.93679h-1.8736l-5.1727 0.85532 2.1994 0.52949 2.3624 0.48876-1.2219 1.3034-1.8736 2.2401 2.1994 1.5477 1.0997-1.6292 1.3034-2.3623 1.5884-1.0997 2.2809-0.36657 2.3623-0.65168z"/>
    <path id="path238" d="m1054.1 345.18h-2.6882l0.082 1.7106 0.2851 2.8918h1.8736l0.2851-2.4845z"/>
    <path id="path239" d="m1063.9 348.24-1.3034 2.2809-0.6516 2.8918 3.4213 0.32584 0.2036-1.7514 1.2626-2.2401 1.1405-0.85533 2.7289-0.61094z"/>
    <path id="path240" d="m1070.8 345.51-1.2626 0.0815-2.7289 0.61095-2.1994 1.3441-0.6924 0.69241 6.8019 0.0407 1.3848 0.16292 2.3216 1.2219 0.6516 0.77386 0.7739 2.566-0.2036 1.4255-1.3848 2.6067-1.3034 1.5477-1.9958 1.9143-2.6881 2.3216-0.3259 0.28511-2.3216 2.0365-1.7106 1.7921-0.9368 1.2219-1.2626 2.4031-0.3666 2.3216h17.962v-3.2176h-13.359l1.4255-1.8328 1.2219-1.1404 2.6475-2.2809 1.344-1.1404 2.2402-2.0365 1.5477-1.5885 0.8553-1.059 1.3848-2.2809 0.163-0.48876 0.4887-2.7289v-0.57022l-0.6924-2.6067-1.5885-2.1994-0.896-0.73313-2.3623-1.0997z"/>
    <path id="path241" d="m1101.4 362.01h-17.962v3.1362h17.962z"/>
    <path id="path242" d="m1101.4 353.74h-17.962v3.1362h17.962z"/>
    <path id="path243" d="m1119.9 348.12-6.028 0.16292 1.8328 0.40729 2.0772 1.8328 0.2852 0.4073 0.7331 2.0365 0.4073 2.8104 0.1629 3.6657-0.041 1.1404-0.2037 3.4213-0.5295 2.6067-0.8146 1.7514-1.4255 1.4663-2.4438 0.77387-5.0505 1.059 2.2809 1.2626 2.7696 0.4073 2.6475-0.36657 2.3216-1.2219 1.6699-1.9143 1.2626-2.6474 0.448-1.7921 0.4073-2.7289 0.1222-3.2176v-1.059l-0.2036-3.014-0.4073-2.3623-0.5295-1.6292-1.1812-2.4438z"/>
    <path id="path244" d="m1114 345.51-2.6067 0.36657-2.2808 1.2626-1.7107 1.8736-1.2626 2.6474-0.4888 1.8328-0.3665 2.7289-0.163 3.2176 0.041 0.65167 0.2036 3.3398 0.4888 2.8511 0.8553 2.3623 1.1404 1.8736 1.0997 1.1404 5.0505-1.059-1.7921-0.4073-2.0772-1.8328-0.2444-0.44803-0.7331-1.9958-0.448-2.8104-0.1222-3.6657v-1.5477l0.2851-3.2584 0.5702-2.566 0.8553-1.8328 1.1812-1.1812 2.4845-0.77386 6.028-0.16292-2.1587-1.7106-1.0182-0.44803z"/>
    <path id="path245" d="m1128.1 372.88v-3.8286h3.8286v3.8286z"/>
    <path id="path246" d="m1140.1 365.22-3.3398 0.44803 0.082 0.61094 0.896 2.7289 1.7107 2.1994 0.5702 0.44803 2.4438 1.2626 2.9325 0.44803 1.5885-0.12219 2.6881-0.8146 2.2809-1.5477-6.5168-0.2851-0.8553-0.0815-2.5252-1.1812-0.9368-1.1812z"/>
    <path id="path247" d="m1152.2 359.32-6.4353 0.28511 1.4256 0.16291 2.403 1.3441 0.8146 1.0182 0.6924 2.7696-0.2036 1.6699-1.4256 2.4031-1.2219 0.93678-2.7289 0.69241 6.5168 0.2851 0.7739-0.81459 1.3848-2.4438 0.448-2.8104-0.2036-1.8736-1.1405-2.5252z"/>
    <path id="path248" d="m1143.8 357.04-0.3666 2.9325 2.3216-0.36656 6.4353-0.28511-2.6474-1.1812 0.7739-0.40729-5.9873-0.65168z"/>
    <path id="path249" d="m1151.7 348.28h-6.3131l0.6924 0.0407 2.5252 1.1812 0.3259 0.36657 0.896 2.6474-0.1629 1.3034-1.5477 2.1587-1.0183 0.52948-2.8103 0.57022 5.9873 0.65168 2.0364-1.9143 0.2444-0.44803 0.6924-2.7696-0.041-0.77387-0.9368-2.7289z"/>
    <path id="path250" d="m1145.3 345.51h-0.081l-2.9326 0.48876-2.403 1.3848-0.2037 0.16292-1.6292 2.1587-0.9368 2.8918 3.3399 0.57022 0.3258-1.3441 1.3441-2.3216 0.5295-0.44803 2.7289-0.77386h6.3131l-2.2809-1.7921-1.2219-0.52949z"/>
    <path id="path251" d="m1161.4 365.43-3.5028 0.32584 0.1222 0.81459 0.8961 2.6067 1.6699 2.0772 6.0687-0.65167-1.0182-0.12219-2.4031-1.1812-0.896-1.0997z"/>
    <path id="path252" d="m1173.5 357.28-6.9241 0.48876 1.9958 0.2851 2.2401 1.3848 1.0997 1.6699 0.4888 2.8104-0.3666 2.6067-1.3033 2.2401-1.4663 1.1812-2.6067 0.65168-6.0687 0.65167 0.7738 0.61095 2.4031 1.0997 2.8918 0.36657 2.7696-0.36657 2.4031-1.0997 1.955-1.8328 0.7739-1.0997 1.0182-2.4845 0.3666-2.8104-0.1222-1.5885-0.7739-2.6067z"/>
    <path id="path253" d="m1167.5 354.8-2.6067 0.44802-2.5252 1.2626 11.16 0.77387-0.9368-0.8146-2.3623-1.2219z"/>
    <path id="path254" d="m1174.6 346h-13.522l-2.6067 14.011 3.1361 0.4073v-0.0407l2.0365-1.8736 0.2037-0.12219 2.6881-0.61094 6.9241-0.48876-11.16-0.77387 1.4662-7.2906h10.834z"/>
    <path id="path255" d="m961.22 420.62-9.2864 4.6839 1.059 1.955 6.0687-2.8104z"/>
    <path id="path256" d="m961.22 420.62-2.1587 3.8286 15.314 31.525-0.69241-9.938z"/>
    <path id="path257" d="m983.99 395.85h-2.2809l-8.0238 50.179 0.69241 9.938z"/>
    <path id="path258" d="m989.33 445.26-3.6249 0.48876 0.0815 0.65167 0.97751 2.9733 1.8736 2.3623 0.61094 0.52949 2.6474 1.3441 3.2176 0.44802 1.7106-0.0815 2.9325-0.89606 2.4844-1.7106-7.1276-0.28511-0.89606-0.0815-2.7289-1.3034-1.0182-1.2626z"/>
    <path id="path259" d="m1002.4 438.82-6.9648 0.32584 1.507 0.16292 2.6067 1.4255 0.89602 1.1404 0.7739 3.014-0.2444 1.7921-1.507 2.6067-1.3848 1.059-2.9733 0.73313 7.1277 0.28511 0.8146-0.85532 1.507-2.6474 0.4888-3.0547-0.2037-2.0772-1.2626-2.6882z"/>
    <path id="path260" d="m993.28 436.34-0.4073 3.2176 2.566-0.4073 6.9648-0.32584-2.8511-1.3034 0.77382-0.4073-6.476-0.73313z"/>
    <path id="path261" d="m1001.9 426.81-6.8426 0.0407 0.77386 0.0407 2.7289 1.2626 0.36656 0.4073 0.97752 2.8918-0.16292 1.3848-1.7106 2.3623-1.0997 0.57022-3.0547 0.61095 6.476 0.73313 2.2402-2.0772 0.2851-0.48876 0.7331-3.014-0.041-0.85533-1.0183-2.9733z"/>
    <path id="path262" d="m994.95 423.83h-0.0815l-3.1769 0.52948-2.6067 1.4663-0.20365 0.20365-1.7921 2.3623-1.0182 3.1362 3.625 0.61094 0.32584-1.4663 1.507-2.5252 0.57022-0.44803 2.9325-0.85532 6.8427-0.0407-2.4438-1.9143-1.3441-0.57022z"/>
    <path id="path263" d="m1026.5 442.41-7.8201 11.16h4.3988l5.6207-8.4718z"/>
    <path id="path264" d="m1023.8 432.1h-4.5617l7.2499 10.305 2.1994 2.6882 1.1404 1.7921 4.3988 6.6797h4.4803l-7.983-11.364-2.1587-2.6474-0.1629-0.24438-1.3441-2.1587z"/>
    <path id="path265" d="m1038.2 432.1h-4.3581l-3.5842 5.0912-0.2037 0.28511-1.4255 2.0772 2.1587 2.6474z"/>
    <path id="path266" d="m1054.5 426.81-1.4255 2.4438-0.6924 3.1362 3.7064 0.4073 0.2444-1.9143 1.3848-2.4438 1.2219-0.93679 2.9325-0.65167z"/>
    <path id="path267" d="m1062 423.83-1.3441 0.0815-2.9733 0.6924-2.3623 1.4255-0.7739 0.77387 7.3721 0.0407 1.507 0.16292 2.5253 1.3034 0.7331 0.85532 0.8146 2.8104-0.2444 1.5477-1.4663 2.8104-1.4255 1.6699-2.1587 2.1179-2.8918 2.4845-0.4073 0.32584-2.4845 2.1994-1.8736 1.955-1.0182 1.3441-1.3441 2.6067-0.448 2.5252h19.51v-3.5028h-14.459l1.507-1.9958 1.344-1.2219 2.8511-2.4845 1.507-1.2626 2.4031-2.1994 1.7106-1.7514 0.8961-1.0997 1.507-2.4845 0.2036-0.52948 0.5295-2.9733-0.041-0.61094-0.7331-2.8511-1.7107-2.4031-0.9775-0.77386-2.6067-1.1812z"/>
    <path id="path268" d="m1106.7 441.75h-19.51v3.3806h19.51z"/>
    <path id="path269" d="m1106.7 432.75h-19.51v3.4213h19.51z"/>
    <path id="path270" d="m1125.8 445.26-3.625 0.48876 0.082 0.65167 0.9775 2.9733 1.8736 2.3623 0.6109 0.52949 2.6475 1.3441 3.1769 0.44802 1.7513-0.0815 2.9326-0.89606 2.4845-1.7106-7.1277-0.28511-0.9368-0.0815-2.7289-1.3034-0.9775-1.2626z"/>
    <path id="path271" d="m1138.9 438.82-7.0055 0.32584 1.5477 0.16292 2.6067 1.4255 0.8961 1.1404 0.7331 3.014-0.2036 1.7921-1.5477 2.6067-1.3441 1.059-2.9733 0.73313 7.1277 0.28511 0.8146-0.85532 1.507-2.6474 0.4888-3.0547-0.2037-2.0772-1.2626-2.6882z"/>
    <path id="path272" d="m1129.7 436.34-0.3665 3.2176 2.5252-0.4073 7.0055-0.32584-2.8918-1.3034 0.8146-0.4073-6.476-0.73313z"/>
    <path id="path273" d="m1138.4 426.81-6.8426 0.0407 0.7739 0.0407 2.7289 1.2626 0.3666 0.4073 0.9775 2.8918-0.1629 1.3848-1.7107 2.3623-1.0997 0.57022-3.0547 0.61095 6.476 0.73313 2.2401-2.0772 0.2852-0.48876 0.7331-3.014-0.041-0.85533-1.0183-2.9733z"/>
    <path id="path274" d="m1131.4 423.83h-0.1222l-3.1362 0.52948-2.6067 1.4663-0.2037 0.20365-1.7921 2.3623-1.0182 3.1362 3.6249 0.61094 0.3259-1.4663 1.4663-2.5252 0.6109-0.44803 2.9325-0.85532 6.8426-0.0407-2.4845-1.9143-1.3033-0.57022z"/>
    <path id="path275" d="m1147.2 453.57v-4.1544h4.1137v4.1544z"/>
    <path id="path276" d="m1160.4 445.46-3.8286 0.32584 0.1222 0.93678 0.9775 2.8104 1.8329 2.2401 6.5575-0.69241-1.0997-0.12219-2.6067-1.3034-0.9776-1.1812z"/>
    <path id="path277" d="m1173.5 436.62-7.4943 0.52948 2.118 0.28511 2.4438 1.507 1.1811 1.8328 0.5702 3.0547-0.4073 2.8104-1.4255 2.4438-1.5885 1.2626-2.851 0.73313-6.5575 0.69241 0.8553 0.6924 2.566 1.1812 3.1362 0.40729 3.0547-0.40729 2.6067-1.1812 2.1179-1.9958 0.8146-1.1812 1.1405-2.7289 0.3665-3.0547-0.1222-1.7106-0.8553-2.8104z"/>
    <path id="path278" d="m1167 433.93-2.851 0.44803-2.7289 1.4255 12.097 0.8146-0.9775-0.85533-2.566-1.3848z"/>
    <path id="path279" d="m1174.8 424.36h-14.703l-2.8511 15.192 3.4213 0.44802v-0.0407l2.1994-2.0365 0.2444-0.12219 2.9325-0.65168 7.4943-0.52948-12.097-0.8146 1.5884-7.983h11.771z"/>
   </g>
   <g fill="none" stroke-linecap="round" stroke-linejoin="round" stroke-width=".3509">
    <path id="path280" d="m932.43 487.21h265.8v-161.9h-265.8z" stroke="#212830"/>
    <path id="path281" d="m665.2 253.18-93.882 226.95" stroke="#0ff"/>
    <path id="path282" d="m665.2 253.18 93.841 226.95" stroke="#0ff"/>
    <path id="path283" d="m631.51 299.36 1.3848 0.97751 1.4255 0.93679 1.4255 0.89605 1.4663 0.85532" stroke="#212830"/>
    <path id="path284" d="m693.18 303.03 1.4663-0.85532 1.4255-0.89605 1.4255-0.93679 1.3848-0.97751" stroke="#212830"/>
   </g>
   <g fill="#212830" fill-rule="evenodd">
    <path id="path285" d="m637.71 302.05-1.0182 2.0365 6.639 1.955z"/>
    <path id="path286" d="m693.67 304.09-1.0182-2.0365-5.6207 3.9915z"/>
    <path id="path287" d="m655.55 306.94h-0.65167l-3.1362 4.3988v0.77387h2.9733v1.6292h0.81459v-1.6292h0.93679v-0.77387h-3.8693l2.118-3.0547z"/>
    <path id="path288" d="m655.55 306.94-0.81459 1.3441v3.0547h-2.118 2.9325z"/>
    <path id="path289" d="m658.19 311.87-0.85533 0.0815v0.20365l0.24438 0.65167 0.4073 0.52949 1.507-0.16292-0.24438-0.0407-0.61095-0.28511-0.20364-0.28511z"/>
    <path id="path290" d="m661.21 309.83-1.7106 0.12219 0.48876 0.0815 0.57021 0.32584 0.28511 0.44803 0.12219 0.6924-0.12219 0.65168-0.32584 0.57021-0.36656 0.28511-0.65168 0.16292-1.507 0.16292 0.20365 0.16292 0.61094 0.24438 0.69241 0.12219 0.73313-0.12219 0.57022-0.24438 0.48876-0.48876 0.20365-0.24438 0.24438-0.65167 0.0814-0.69241v-0.4073l-0.20364-0.65167z"/>
    <path id="path291" d="m659.74 309.22-0.65168 0.12218-0.65167 0.28511 2.7696 0.20365-0.20365-0.20365-0.61095-0.28511z"/>
    <path id="path292" d="m661.53 307.02h-3.3806l-0.69241 3.5028 0.8146 0.0815 0.48875-0.44803 0.0407-0.0407 0.69241-0.16292 1.7106-0.12219-2.7696-0.20365 0.36656-1.7921h2.7289z"/>
    <path id="path293" d="m663.08 313.74v-0.97752h0.93678v0.97752z"/>
    <path id="path294" d="m668.95 307.55-1.507 0.0407 0.48876 0.0815 0.57025 0.57026 0.20365 0.48876 0.0815 0.73313 0.0407 0.89606v0.28511l-0.0407 0.85532-0.16292 0.65168-0.20365 0.44802-0.32584 0.36657-0.61094 0.20365-1.2626 0.24438 0.57021 0.32584 0.69241 0.12219 0.65167-0.12219 0.57022-0.28511 0.4073-0.48876 0.32584-0.65167 0.12219-0.44803 0.0815-0.69241 0.0407-0.81459v-0.24438l-0.0407-0.77387-0.12219-0.57021-0.12219-0.4073-0.28511-0.61095z"/>
    <path id="path295" d="m667.48 306.9-0.65168 0.0815-0.57021 0.32584-0.44803 0.44802-0.32584 0.69241-0.12219 0.44803-0.0815 0.6924-0.0407 0.77387v0.16292l0.0815 0.85532 0.12219 0.69241 0.20365 0.61094 0.28511 0.44803 0.28511 0.28511 1.2626-0.24438-0.44803-0.12219-0.52949-0.44803-0.0815-0.12219-0.16292-0.48875-0.12219-0.69241-0.0407-0.93678v-0.36657l0.0815-0.81459 0.16292-0.65168 0.20364-0.44803 0.28511-0.28511 0.61095-0.20364 1.507-0.0407-0.52949-0.44803-0.24438-0.0815z"/>
    <path id="path296" d="m674.24 307.55-1.507 0.0407 0.44802 0.0815 0.52949 0.48876 0.0815 0.0815 0.16292 0.48876 0.12219 0.73313 0.0407 0.89606v0.28511l-0.0815 0.85532-0.12219 0.65168-0.20365 0.44802-0.36657 0.36657-0.61094 0.20365-1.2626 0.24438 0.57022 0.32584 0.69241 0.12219 0.6924-0.12219 0.57022-0.28511 0.40729-0.48876 0.32584-0.65167 0.12219-0.44803 0.0815-0.69241 0.0407-0.81459v-0.24438l-0.0407-0.77387-0.12219-0.57021-0.12219-0.4073-0.28511-0.61095z"/>
    <path id="path297" d="m672.73 306.9-0.65168 0.0815-0.57022 0.32584-0.40729 0.44802-0.32584 0.69241-0.12219 0.44803-0.0815 0.6924-0.0407 0.77387v0.16292l0.0407 0.85532 0.12219 0.69241 0.24438 0.61094 0.24438 0.44803 0.2851 0.28511 1.2626-0.24438-0.44803-0.12219-0.48876-0.44803-0.0815-0.12219-0.16292-0.48875-0.12219-0.69241-0.0407-0.93678v-0.36657l0.0815-0.81459 0.12219-0.65168 0.24438-0.44803 0.28511-0.28511 0.61095-0.20364 1.507-0.0407-0.52949-0.44803-0.24438-0.0815z"/>
    <path id="path298" d="m676.4 307.18-0.20365 0.24438-0.16292 0.65167v0.32584l0.36657 0.61095 0.24438 0.16292 0.65168 0.20364 0.32583-0.0407 0.61095-0.32583-0.93678-0.12219-0.52949-0.24438-0.24438-0.57022 0.24438-0.52948 0.52949-0.24438z"/>
    <path id="path299" d="m677.29 306.82-0.28511 0.0407-0.61095 0.32584 0.89606 0.12219 0.57021 0.24438 0.20365 0.52948-0.20365 0.57022-0.57021 0.24438 0.93678 0.12219 0.16292-0.24438 0.20365-0.69241-0.0407-0.28511-0.32584-0.61094-0.24438-0.20365z"/>
   </g>
   <g fill="none" stroke="#212830" stroke-linecap="round" stroke-linejoin="round" stroke-width=".3509">
    <path id="path300" d="m568.63 415.69 2.9325 1.7106 2.9733 1.6699 3.014 1.5885 3.014 1.5477 3.0547 1.507 3.0955 1.4663 3.0955 1.3848 3.1362 1.3441"/>
    <path id="path301" d="m568.59 415.69h-13.563"/>
    <path id="path302" d="m568.63 415.69 2.9733 1.7106 2.9325 1.6699 6.028 3.1769"/>
    <path id="path303" d="m619.91 436.79 3.3398 0.77387 3.2991 0.73314 3.3398 0.65167 3.3398 0.61095"/>
   </g>
   <g fill="#212830" fill-rule="evenodd">
    <path id="path304" d="m581.5 420.17-1.8736 4.1137 13.278 3.625z"/>
    <path id="path305" d="m619.3 438.94 1.2219-4.3581-13.685-1.5477z"/>
    <path id="path306" d="m527.82 408.76h-1.3848l-6.1909 8.8384v1.507h5.9058v3.2584h1.6699v-3.2584h1.8328v-1.507h-7.7794l4.2766-6.1502z"/>
    <path id="path307" d="m527.82 408.76-1.6699 2.6882v6.1502h-4.2766 5.9466z"/>
    <path id="path308" d="m532.3 422.37v-1.8736h1.8736v1.8736z"/>
    <path id="path309" d="m538.37 418.66-1.7514 0.16292 0.0815 0.4073 0.44803 1.3034 0.81459 1.059 3.0547-0.36657-0.52948-0.0407-1.1812-0.61094-0.44802-0.52949z"/>
    <path id="path310" d="m544.43 414.59-3.462 0.24437 0.97752 0.12219 1.1404 0.69241 0.52949 0.85532 0.24437 1.4255-0.16291 1.2626-0.65168 1.1404-0.73314 0.57022-1.3034 0.32583-3.0547 0.36657 0.4073 0.28511 1.1812 0.57022 1.4663 0.16291 1.3848-0.16291 1.1812-0.57022 0.97751-0.93678 0.4073-0.52949 0.48875-1.2219 0.20365-1.4255-0.0815-0.8146-0.36656-1.2626z"/>
    <path id="path311" d="m541.42 413.37-1.3034 0.20365-1.2626 0.65168 5.58 0.36657-0.44803-0.4073-1.1812-0.61095z"/>
    <path id="path312" d="m545 408.97h-6.7611l-1.3034 6.9648 1.5477 0.20365 1.0182-0.93679 0.12219-0.0815 1.3441-0.28511 3.462-0.24437-5.58-0.36657 0.73313-3.6657h5.4171z"/>
    <path id="path313" d="m548.34 409.29-0.36657 0.44803-0.36657 1.3441 0.0407 0.65167 0.69241 1.1812 0.48875 0.40729 1.3441 0.36657 0.61095-0.0815 1.1812-0.6924-1.7921-0.24438-1.0997-0.44803-0.48876-1.1404 0.48876-1.0997 1.0997-0.44802z"/>
    <path id="path314" d="m550.18 408.52-0.61094 0.0815-1.2219 0.69241 1.8328 0.24438 1.0997 0.44802 0.44802 1.0997-0.44802 1.1404-1.0997 0.44803 1.7921 0.24438 0.4073-0.44803 0.36657-1.3848-0.0815-0.57022-0.69241-1.2219-0.44802-0.4073z"/>
   </g>
  </g>
 </g>
 <metadata id="metadata2">
  <rdf:RDF>
   <cc:Work rdf:about="">
    <dc:title>Los Secretos de las Catedrales. La Catedral Nacional de Washignton D.C</dc:title>
    <dc:date>16-01-2025</dc:date>
    <dc:creator>
     <cc:Agent>
      <dc:title>Miguel Hernando Ibáñez Sánchez</dc:title>
     </cc:Agent>
    </dc:creator>
    <dc:rights>
     <cc:Agent>
      <dc:title>Secretos de las catedrales. La Catedral Nacional de Washington D.C © 2025 by ISAN atelier is licensed under Creative Commons Attribution-NoDerivatives 4.0 International</dc:title>
     </cc:Agent>
    </dc:rights>
    <dc:publisher>
     <cc:Agent>
      <dc:title>ISAN atelier</dc:title>
     </cc:Agent>
    </dc:publisher>
    <dc:identifier>10.5281/zenodo.14675978</dc:identifier>
    <dc:source>Sáchica, Boyacá - Colombia</dc:source>
    <dc:relation>En Búsqueda de las Claves Sacras de la Ciudad de Washignton D.C</dc:relation>
    <dc:language>Español</dc:language>
    <dc:subject>
     <rdf:Bag>
      <rdf:li>arquitectura sagrada</rdf:li>
      <rdf:li>geometria sagrada</rdf:li>
      <rdf:li>sacred architecture</rdf:li>
      <rdf:li>sacred geometry</rdf:li>
     </rdf:Bag>
    </dc:subject>
    <dc:coverage>Global</dc:coverage>
    <dc:description>Estudios geometricos y sus misterios</dc:description>
    <cc:license rdf:resource="http://creativecommons.org/licenses/by-nd/4.0/"/>
   </cc:Work>
   <cc:License rdf:about="http://creativecommons.org/licenses/by-nd/4.0/">
    <cc:permits rdf:resource="http://creativecommons.org/ns#Reproduction"/>
    <cc:permits rdf:resource="http://creativecommons.org/ns#Distribution"/>
    <cc:requires rdf:resource="http://creativecommons.org/ns#Notice"/>
    <cc:requires rdf:resource="http://creativecommons.org/ns#Attribution"/>
   </cc:License>
  </rdf:RDF>
 </metadata>
</svg>
