<?xml version="1.0" encoding="UTF-8"?>
<!-- Created with Inkscape (http://www.inkscape.org/) -->
<svg id="svg1" width="210mm" height="140mm" inkscape:version="1.4 (86a8ad7, 2024-10-11)" sodipodi:docname="4.svg" version="1.1" viewBox="0 0 210 140" xmlns="http://www.w3.org/2000/svg" xmlns:cc="http://creativecommons.org/ns#" xmlns:dc="http://purl.org/dc/elements/1.1/" xmlns:inkscape="http://www.inkscape.org/namespaces/inkscape" xmlns:rdf="http://www.w3.org/1999/02/22-rdf-syntax-ns#" xmlns:sodipodi="http://sodipodi.sourceforge.net/DTD/sodipodi-0.dtd">
 <title id="title2">Los Secretos de las Catedrales. La Catedral Nacional de Washignton D.C</title>
 <sodipodi:namedview id="namedview1" bordercolor="#000000" borderopacity="0.25" inkscape:current-layer="layer1" inkscape:cx="396.84014" inkscape:cy="561.25984" inkscape:deskcolor="#d1d1d1" inkscape:document-units="mm" inkscape:pagecheckerboard="0" inkscape:pageopacity="0.0" inkscape:showpageshadow="2" inkscape:window-height="664" inkscape:window-maximized="1" inkscape:window-width="1366" inkscape:window-x="-8" inkscape:window-y="-8" inkscape:zoom="0.49264169" pagecolor="#ffffff"/>
 <defs id="defs1">
  <pattern id="WMFhbasepattern" width="6" height="6" patternUnits="userSpaceOnUse"/>
 </defs>
 <g id="layer1" inkscape:groupmode="layer" inkscape:label="Capa 1">
  <g id="g2" transform="matrix(1.0441 0 0 1.0441 188.28 -24.804)" stroke-width=".095777">
   <g id="g1" transform="matrix(.26458 0 0 .26458 -277.34 -27.72)" stroke-width=".36199">
    <g fill="none" stroke-linecap="round" stroke-linejoin="round" stroke-width=".36199">
     <g stroke="#f0f">
      <path id="path1" d="m510.79 526.39 2.4845 2.9733 2.566 2.9733 2.6474 2.8918 2.7289 2.8104 2.7696 2.7289 2.8511 2.6882 2.8918 2.6067 2.9733 2.5252 3.0547 2.4845 3.0955 2.3623 3.1362 2.3216 3.2176 2.2401 3.2991 2.118 3.2991 2.0772 3.3806 1.9958 3.4213 1.8736 3.462 1.8328 3.5028 1.7106 3.5435 1.6699 3.5842 1.5477 3.625 1.4663 3.6657 1.3441 3.6657 1.3034 3.7471 1.1812 3.7471 1.0997 3.7471 1.0182 3.8286 0.89606 3.8286 0.81459 3.8286 0.73314 3.8286 0.61094 3.9101 0.52949 3.8693 0.44803 3.8693 0.32584 3.91 0.24437 3.9101 0.16292 3.91 0.0407 3.9101-0.0407 3.91-0.16292 3.9101-0.24437 3.8693-0.32584 3.8693-0.44803 3.9101-0.52949 3.8286-0.61094 3.8286-0.73314 3.8286-0.81459 3.8286-0.89606 3.7471-1.0182 3.7471-1.0997 3.7471-1.1812 3.6657-1.3034 3.6657-1.3441 3.625-1.4663 3.5842-1.5477 3.5435-1.6699 3.5028-1.7106 3.462-1.8328 3.4213-1.8736 3.3806-1.9958 3.2991-2.0772 3.2991-2.118 3.2176-2.2401 3.1362-2.3216 3.0955-2.3623 3.0547-2.4845 2.9733-2.5252 2.8918-2.6067 2.8511-2.6882 2.7696-2.7289 2.7289-2.8104 2.6474-2.8918 2.566-2.9733 2.4845-2.9733"/>
      <path id="path2" d="m756.39 526.39 2.4438-3.1362 2.403-3.1769 2.2809-3.2176 2.1994-3.2584 2.118-3.3398 2.0772-3.4213 1.955-3.4213 1.8736-3.5028 1.7514-3.5028 1.7106-3.5842 1.5885-3.625 1.5477-3.6657 1.3848-3.7064 1.3441-3.7064 1.2219-3.7471 1.1404-3.8286 1.059-3.7879 0.93679-3.8693 0.85532-3.8693 0.77387-3.8693 0.65167-3.9101 0.57022-3.91 0.48876-3.9508 0.36656-3.91 0.24438-3.9508 0.16292-3.9508 0.0815-3.9915-0.0407-3.9508-0.12219-3.9508-0.20365-3.9508-0.32584-3.9508-0.44802-3.9508-0.52949-3.9101-0.61095-3.91-0.6924-3.9101-0.8146-3.8693-0.93678-3.8286-1.0182-3.8286-1.0997-3.8286-1.1812-3.7471-1.3034-3.7471-1.3848-3.7064-1.4663-3.6657-1.5477-3.6657-1.6699-3.5842-1.7514-3.5435-1.8328-3.5028-1.9143-3.462-1.9958-3.4213-2.118-3.3398-2.1587-3.3398-2.2809-3.2176-2.3216-3.2176-2.403-3.1362-2.5252-3.0547-2.566-3.014-2.6474-2.9325-2.6882-2.8918-2.8104-2.8104-2.8511-2.7289-2.9325-2.6474-2.9733-2.6067-3.0547-2.5252-3.1362-2.4438-3.1769-2.3216-3.2176-2.2809-3.2991-2.1994-3.3398-2.1179-3.3806-2.0365-3.462-1.955-3.462-1.8328-3.5435-1.7921-3.5842-1.6699-3.625-1.5885-3.6657-1.507-3.7064-1.3848-3.7064-1.3034-3.7879-1.2219-3.7879-1.1404-3.7879-1.0182-3.8693-0.93678-3.8693-0.8146-3.8693-0.77386-3.9101-0.61095-3.91-0.57021-3.9101-0.44803-3.9508-0.32584-3.9508-0.24438-3.9508-0.16292-3.9508-0.0407-3.9508 0.0407-3.9508 0.16292-3.9508 0.24438-3.9508 0.32584-3.91 0.44803-3.9101 0.57021-3.91 0.61095-3.8693 0.77386-3.8693 0.8146-3.8693 0.93678-3.7879 1.0182-3.7879 1.1404-3.7879 1.2219-3.7064 1.3034-3.7064 1.3848-3.6657 1.507-3.625 1.5885-3.5842 1.6699-3.5435 1.7921-3.462 1.8328-3.462 1.955-3.3806 2.0365-3.3398 2.1179-3.2991 2.1994-3.2176 2.2809-3.1769 2.3216-3.1362 2.4438-3.0547 2.5252-2.9733 2.6067-2.9325 2.6474-2.8511 2.7289-2.8104 2.8104-2.6882 2.8918-2.6474 2.9325-2.566 3.014-2.5252 3.0547-2.403 3.1362-2.3216 3.2176-2.2809 3.2176-2.1587 3.3398-2.118 3.3398-1.9958 3.4213-1.9143 3.462-1.8328 3.5028-1.7514 3.5435-1.6699 3.5842-1.5477 3.6657-1.4663 3.6657-1.3848 3.7064-1.3034 3.7471-1.1812 3.7471-1.0997 3.8286-1.0182 3.8286-0.93679 3.8286-0.81459 3.8693-0.69241 3.9101-0.61094 3.91-0.52949 3.9101-0.44803 3.9508-0.32583 3.9508-0.20365 3.9508-0.12219 3.9508-0.0407 3.9508 0.0815 3.9915 0.16292 3.9508 0.24438 3.9508 0.36656 3.91 0.48876 3.9508 0.57022 3.91 0.65167 3.9101 0.77387 3.8693 0.85532 3.8693 0.93679 3.8693 1.059 3.7879 1.1404 3.8286 1.2219 3.7471 1.3441 3.7064 1.3848 3.7064 1.5477 3.6657 1.5885 3.625 1.7106 3.5842 1.7514 3.5028 1.8736 3.5028 1.955 3.4213 2.0772 3.4213 2.1179 3.3398 2.1994 3.2584 2.2809 3.2176 2.403 3.1769 2.4438 3.1362"/>
      <path id="path3" d="m791.66 268.45h-316.14v316.59h316.14z"/>
      <path id="path4" d="m633.59 268.45 102.72 316.59"/>
      <path id="path5" d="m633.59 268.45-102.72 316.59"/>
     </g>
     <path id="path6" d="m556.94 383.23 2.6474 1.7106 2.6882 1.6699 2.7289 1.6292 2.7696 1.5477 2.8104 1.4663 2.8104 1.4255" stroke="#212830"/>
     <path id="path7" d="m693.79 392.68 2.8104-1.4255 2.8104-1.4663 2.7696-1.5477 2.7289-1.6292 2.6882-1.6699 2.6474-1.7106" stroke="#212830"/>
    </g>
    <g fill="#212830" fill-rule="evenodd">
     <path id="path8" d="m574.57 389.78-2.3623 5.8651 18.776 4.1544z"/>
     <path id="path9" d="m694.97 395.65-2.3623-5.8651-16.414 10.02z"/>
     <path id="path10" d="m617.34 410.56-2.3623 0.32584 0.12219 0.77386 0.65168 1.7106 1.1404 1.3848 0.65168 0.48876 1.5885 0.73314 1.8736 0.24438 1.4663-0.12219 1.7106-0.57022 1.4255-1.0182-4.5617-0.20365-0.77386-0.0815-1.5885-0.8146-0.73314-0.93678z"/>
     <path id="path11" d="m625.57 406.36-4.3174 0.28511 1.1404 0.16292 1.507 0.85532 0.65167 0.89605 0.4073 1.7921-0.20365 1.3034-0.93678 1.507-1.0182 0.73314-1.7514 0.4073 4.5617 0.20365 0.73314-0.85533 0.81459-1.5477 0.24438-1.8328-0.16292-1.4663-0.73313-1.5885z"/>
     <path id="path12" d="m619.87 404.85-0.28511 2.0365 1.6699-0.24437 4.3174-0.28511-1.7106-0.73314 0.6924-0.36657-4.3174-0.36656z"/>
     <path id="path13" d="m625.28 398.62-4.2766 0.12219 0.65168 0.0407 1.5477 0.81459 0.36657 0.4073 0.52948 1.7106-0.16291 1.059-1.0182 1.3441-0.89605 0.44803-1.7921 0.32584 4.3174 0.36656 1.2626-1.2626 0.28511-0.44802 0.4073-1.7921-0.0815-0.73314-0.61095-1.7106z"/>
     <path id="path14" d="m620.92 396.83h-0.44802l-1.7921 0.36657-1.507 0.89605-0.36657 0.36657-1.0182 1.4255-0.57022 1.8736 2.3216 0.40729 0.2851-1.1404 0.89606-1.4255 0.48876-0.4073 1.7921-0.44802 4.2766-0.12219-1.507-1.1404-0.97752-0.40729z"/>
     <path id="path15" d="m640.52 405.3-4.4395 0.32584 1.1404 0.16292 1.507 0.97752 0.73314 1.2219 0.2851 1.8736-0.20364 1.7514-0.85533 1.507-0.81459 0.69241-1.7106 0.48876 4.1544 0.28511 1.059-1.5477 0.52949-1.4663 0.24438-1.8328-0.12219-1.3034-0.52949-1.7106z"/>
     <path id="path16" d="m636.52 403.59-0.77387 0.0407-1.7514 0.57021-0.81459 0.48876-1.2626 1.4255 1.4663 0.65168 0.93678-0.73314 1.7514-0.4073 4.4395-0.32584-0.61095-0.57021-1.5885-0.85533z"/>
     <path id="path17" d="m640.11 398.09-3.8286 0.65168 0.81459 0.0815 1.507 0.89605 0.16292 0.24438 0.73314 1.7514 2.3216-0.16292-0.0815-0.32584-0.57021-1.7921z"/>
     <path id="path18" d="m636.4 396.83-1.8328 0.24438-1.5885 0.73313-1.3441 1.1812-0.48876 0.69241-0.65168 1.3848-0.48875 1.7106-0.28511 1.955-0.12219 2.2809v0.12219l0.12219 2.2401 0.36657 1.9143 0.57021 1.5477 0.8146 1.2219 1.3034 1.1812 1.5885 0.73314 1.8328 0.24438 1.3848-0.16292 1.6699-0.65168 1.059-0.81459-4.1544-0.28511h-0.20365l-1.7106-0.57022-0.32584-0.24438-1.0997-1.4255-0.20365-0.48876-0.32584-1.8328 0.20365-1.4663 0.89606-1.507-1.4663-0.65168 0.0407-0.93678 0.20365-1.955 0.4073-1.507 0.57022-1.059 1.1812-1.3034 0.20365-0.12219 1.7514-0.48875 3.8286-0.65168-0.24438-0.20365-1.5477-0.81459z"/>
     <path id="path19" d="m646.06 397.64-0.61094 0.77387-0.44803 1.7514 0.16292 1.0182 0.89605 1.5477 0.8146 0.61095 1.7106 0.40729 1.0182-0.12218 1.5477-0.93679-2.5252-0.32584-1.5477-0.65167-0.65168-1.5477 0.65168-1.5477 1.5477-0.65168z"/>
     <path id="path20" d="m648.58 396.59-0.97751 0.12219-1.5477 0.93678 2.566 0.32584 1.5477 0.65168 0.61094 1.5477-0.61094 1.5477-1.5477 0.65167 2.5252 0.32584 0.61095-0.77386 0.44803-1.7514-0.16292-1.0182-0.89606-1.507-0.81459-0.65167z"/>
    </g>
    <path id="path21" d="m483.83 215.05h33.724l30.832 56.289" fill="none" stroke="#212830" stroke-linecap="round" stroke-linejoin="round" stroke-width=".36199"/>
    <g fill="#212830" fill-rule="evenodd">
     <path id="path22" d="m397.85 215.75-4.3988 0.20365 1.3848 0.12219 1.1812 0.48875 1.2626 1.2626 0.65167 0.89605 1.1404 1.7514 2.5252 3.9508h3.1362l-3.2991-5.1727-0.85533-1.2219-1.2219-1.3034z"/>
     <path id="path23" d="m401.8 206.91-5.2541 0.61094 1.6292 0.16292 1.4663 0.69241 0.44803 0.52948 0.52948 1.6699-0.52948 1.7106-0.0407 0.0407-1.4255 1.0997-0.69241 0.20365-1.9958 0.16292h-5.3763l11.404 0.12219 0.93678-1.507 0.28511-1.8328-0.12219-1.1404-0.65168-1.7106z"/>
     <path id="path24" d="m396.42 205.4h-8.3903v19.021h2.5252v-8.4718h2.8918l4.3988-0.20365 0.93679-0.16292 1.7921-0.61095 1.3034-0.97751 0.0815-0.0815-11.404-0.12219v-6.2724h5.9873l5.2541-0.61094-1.507-0.97752-0.12219-0.0815-1.5885-0.32584z"/>
     <path id="path25" d="m416.46 207.07-4.1137 0.20365 1.3441 0.28511 1.3848 1.2626 0.28511 0.44803 0.44803 1.3848 0.24438 1.955 0.12219 2.4438-0.0407 1.1812-0.16292 2.1994-0.36657 1.6699-0.52949 1.1404-1.0997 1.0997-1.6292 0.44802 3.5842 0.73314 1.0997-1.3441 0.81459-1.7514 0.36657-1.4255 0.24438-1.8328 0.0815-2.118v-0.97751l-0.12219-1.955-0.28511-1.5885-0.40729-1.2219-0.77387-1.5885z"/>
     <path id="path26" d="m412.35 205.32-1.8736 0.2851-1.5477 0.85533-0.0815 0.0815-1.1404 1.3034-0.8146 1.7514-0.40729 1.4663-0.20365 1.8328-0.0815 2.1587v0.93679l0.16292 2.1587 0.36657 1.8328 0.57021 1.5477 0.77387 1.2219 0.89605 0.89606 1.5477 0.81459 1.8328 0.24438h0.0815l1.8736-0.28511 1.507-0.81459 0.12219-0.0815-3.5842-0.73314-1.3034-0.2851-1.3848-1.2626-0.24438-0.44802-0.48876-1.4255-0.24438-1.9143-0.12219-2.4031 0.0407-1.4663 0.20365-2.1179 0.4073-1.6699 0.57022-1.1812 0.89605-0.89605 1.6699-0.44803 4.1137-0.20365-1.4255-1.1404-0.81459-0.32584z"/>
     <path id="path27" d="m422.2 224.42v-2.6882h2.6882v2.6882z"/>
     <path id="path28" d="m430.72 219.21-2.4438 0.20365 0.12219 0.77386 0.65167 1.7106 1.0997 1.3848 4.2359-0.48876-0.81459-0.0815-1.5885-0.81459-0.65168-0.85532z"/>
     <path id="path29" d="m439.15 213.55-4.8061 0.32584 1.4663 0.20365 1.4663 0.93678 0.77387 1.2626 0.32583 1.9143-0.2851 1.8736-0.85533 1.4663-1.1404 0.85533-1.7106 0.40729-4.2359 0.48876 0.6924 0.52949 1.6292 0.6924 1.9143 0.20365h0.28511l1.8328-0.28511 1.5477-0.77386 1.3034-1.2219 0.61094-0.93679 0.69241-1.6699 0.20365-1.8736-0.12219-1.3034-0.57022-1.6699z"/>
     <path id="path30" d="m434.95 211.79h-0.16292l-1.7514 0.32584-1.6699 0.89606 7.7794 0.52948-0.77387-0.6924-1.5885-0.77387z"/>
     <path id="path31" d="m439.96 205.69h-9.4493l-1.8328 9.7344 2.1994 0.28511 0.0815-0.0815 1.3441-1.2626 0.24438-0.12219 1.7921-0.36657 4.8061-0.32584-7.7794-0.52948 1.0182-5.132h7.5757z"/>
     <path id="path32" d="m453.28 207.07-4.1137 0.20365 1.3848 0.28511 1.3441 1.2626 0.28511 0.44803 0.44802 1.3848 0.28511 1.955 0.0815 2.4438-0.0407 1.1812-0.16292 2.1994-0.36656 1.6699-0.52949 1.1404-1.059 1.0997-1.6292 0.44802 3.5435 0.73314 1.1404-1.3441 0.81459-1.7514 0.36657-1.4255 0.24438-1.8328 0.0815-2.118-0.0407-0.97751-0.12219-1.955-0.28511-1.5885-0.36657-1.2219-0.81459-1.5885z"/>
     <path id="path33" d="m449.21 205.32h-0.0407l-1.8736 0.2851-1.507 0.85533-0.12219 0.0815-1.1404 1.3034-0.8146 1.7514-0.36657 1.4663-0.24438 1.8328-0.0815 2.1587v0.93679l0.20365 2.1587 0.36657 1.8328 0.52949 1.5477 0.77386 1.2219 0.89606 0.89606 1.5477 0.81459 1.8736 0.24438h0.0407l1.8736-0.28511 1.5477-0.81459 0.0815-0.0815-3.5435-0.73314-1.3441-0.2851-1.3441-1.2626-0.28511-0.44802-0.44802-1.4255-0.28511-1.9143-0.0815-2.4031 0.0407-1.4663 0.16292-2.1179 0.4073-1.6699 0.57021-1.1812 0.89606-0.89605 1.6699-0.44803 4.1137-0.20365-1.3848-1.1404-0.8146-0.32584z"/>
     <path id="path34" d="m551.15 269.83-5.5392 3.0547 11.893 15.111z"/>
    </g>
    <g fill="none" stroke-linecap="round" stroke-linejoin="round" stroke-width=".36199">
     <path id="path35" d="m633.59 268.45 150.78 316.59" stroke="#f0f"/>
     <path id="path36" d="m633.59 268.45-150.78 316.59" stroke="#f0f"/>
     <g stroke="#212830">
      <path id="path37" d="m475.52 591.4v34.132"/>
      <path id="path38" d="m482.81 591.4v34.132"/>
      <path id="path39" d="m492.3 619.21h9.49"/>
      <path id="path40" d="m466.03 619.21h-11.852"/>
     </g>
    </g>
    <g fill="#212830" fill-rule="evenodd">
     <path id="path41" d="m492.3 617.63v3.1362l-9.49-1.5477z"/>
     <path id="path42" d="m466.03 617.63v3.1362l9.49-1.5477z"/>
     <path id="path43" d="m389.91 609.89-4.8061 0.20365 1.5885 0.36657 1.5885 1.4255 0.32584 0.57022 0.52949 1.6292 0.32584 2.2401 0.12218 2.8104-0.0407 1.4255-0.20364 2.5252-0.4073 1.955-0.65168 1.3848-1.2626 1.2626-1.8736 0.52949 4.1544 0.85532 1.3034-1.5477 0.93678-2.0772 0.44803-1.6699 0.28511-2.118 0.0815-2.5252v-1.0997l-0.16292-2.2809-0.32584-1.8328-0.44803-1.4663-0.93678-1.8328z"/>
     <path id="path44" d="m385.14 607.81h-0.0407l-2.1587 0.36657-1.7921 0.93678-0.12219 0.12219-1.3441 1.5477-0.93679 2.0365-0.44802 1.7106-0.28511 2.1179-0.0815 2.4845v1.1404l0.20365 2.4845 0.44802 2.1587 0.65168 1.7921 0.89605 1.4663 1.059 1.059 1.7921 0.89606 2.1587 0.32583h0.0407l2.1994-0.32583 1.7921-0.97752 0.12219-0.0815-4.1544-0.85532-1.5477-0.36657-1.5885-1.4255-0.32584-0.57022-0.52948-1.6292-0.32584-2.2401-0.12219-2.8511 0.0407-1.6699 0.24438-2.4438 0.44803-1.955 0.6924-1.3848 1.0182-1.0182 1.955-0.57022 4.8061-0.20365-1.6292-1.3441-0.97751-0.40729z"/>
     <path id="path45" d="m396.63 630.09v-3.0955h3.0955v3.0955z"/>
     <path id="path46" d="m415.69 609.89-4.8061 0.20365 1.5885 0.36657 1.5885 1.4255 0.32584 0.57022 0.52948 1.6292 0.32584 2.2401 0.0815 2.8104v1.4255l-0.20365 2.5252-0.4073 1.955-0.65167 1.3848-1.2626 1.2626-1.8736 0.52949 4.1544 0.85532 1.3034-1.5477 0.93679-2.0772 0.44803-1.6699 0.2851-2.118 0.0815-2.5252v-1.0997l-0.16292-2.2809-0.32583-1.8328-0.44803-1.4663-0.93678-1.8328z"/>
     <path id="path47" d="m410.92 607.81h-0.0407l-2.1587 0.36657-1.7921 0.93678-0.12218 0.12219-1.3441 1.5477-0.93678 2.0365-0.44803 1.7106-0.28511 2.1179-0.0815 2.4845v1.1404l0.20365 2.4845 0.44803 2.1587 0.65168 1.7921 0.85532 1.4663 1.0997 1.059 1.7921 0.89606 2.1587 0.32583h0.0407l2.1994-0.32583 1.7921-0.97752 0.12219-0.0815-4.1544-0.85532-1.5477-0.36657-1.5885-1.4255-0.32584-0.57022-0.52949-1.6292-0.32583-2.2401-0.12219-2.8511 0.0407-1.6699 0.24438-2.4438 0.44802-1.955 0.69241-1.3848 1.0182-1.0182 1.955-0.57022 4.8061-0.20365-1.6292-1.3441-0.97751-0.40729z"/>
     <path id="path48" d="m433.28 609.6-5.0912 0.48875 1.3034 0.16292 1.7106 0.93679 0.65168 0.81459 0.48875 1.9143-0.20365 1.3441-1.059 1.9143-0.24438 0.32584-1.0997 1.2219-1.5477 1.4663-1.9958 1.7106-0.65167 0.57021-1.6292 1.4663-1.2626 1.3034-0.89605 1.1812-0.89605 1.7514-0.32584 1.9143h14.622v-2.6067h-10.834l1.1404-1.507h0.0407l1.0997-1.059 1.9958-1.7106 1.507-1.3034 1.5477-1.4255 1.1404-1.1812 0.81459-1.0182 0.97752-1.6699 0.24438-0.61094 0.32583-1.9958-0.0814-0.89606-0.57022-1.9143z"/>
     <path id="path49" d="m428.23 607.81-1.4663 0.12219-1.955 0.52948-1.5885 1.0182-0.81459 0.89605-0.89606 1.7106-0.44803 2.1587 2.8104 0.28511 0.20365-1.6292 0.97751-1.6292 1.0997-0.77387 2.0365-0.4073 5.0912-0.48875-1.059-0.8146-1.7921-0.73313z"/>
     <path id="path50" d="m440.82 623.86-2.7289 0.36656 0.16292 0.93679 0.73313 1.955 1.3034 1.6292 0.77387 0.57022 1.8736 0.85533 2.1994 0.2851 1.7106-0.12219 1.955-0.6924 1.6699-1.1812-5.3356-0.24438-0.85532-0.0815-1.8736-0.93679-0.8146-1.0997z"/>
     <path id="path51" d="m450.47 618.93-5.0912 0.36656 1.3441 0.16292 1.7514 1.059 0.77387 1.0182 0.44802 2.0772-0.20365 1.507-1.0997 1.7921-1.1812 0.85532-2.0772 0.44803 5.3356 0.24438 0.85532-0.97752 0.93679-1.8328 0.32583-2.1179-0.20364-1.7514-0.89606-1.8328z"/>
     <path id="path52" d="m443.75 617.22-0.28511 2.3623 1.9143-0.28511 5.0912-0.36656-1.9958-0.85533 0.77387-0.40729-5.0505-0.44803z"/>
     <path id="path53" d="m450.1 609.93-5.0098 0.12219 0.77387 0.0815 1.8328 0.93679 0.40729 0.44802 0.61095 1.9958-0.20365 1.2626-1.1812 1.5477-1.0182 0.52949-2.1179 0.36657 5.0505 0.44803 1.507-1.4663 0.2851-0.52948 0.44803-2.0772-0.0407-0.85532-0.73313-1.9958z"/>
     <path id="path54" d="m445.01 607.81-0.48875 0.0407-2.118 0.44802-1.7514 1.0182-0.44803 0.4073-1.1404 1.7106-0.69241 2.1587 2.7289 0.44803 0.28511-1.3034 1.059-1.6699 0.61094-0.44803 2.0365-0.57022 5.0098-0.12219-1.7514-1.3441-1.1812-0.44802z"/>
    </g>
    <g fill="none" stroke="#212830" stroke-linecap="round" stroke-linejoin="round" stroke-width=".36199">
     <path id="path55" d="m482.81 591.4v34.132"/>
     <path id="path56" d="m784.37 591.4v34.132"/>
     <path id="path57" d="m492.3 619.21h59.384"/>
     <path id="path58" d="m774.88 619.21h-59.384"/>
    </g>
    <g fill="#212830" fill-rule="evenodd">
     <path id="path59" d="m492.3 617.63v3.1362l-9.49-1.5477z"/>
     <path id="path60" d="m774.88 617.63v3.1362l9.49-1.5477z"/>
     <path id="path61" d="m565.29 609.89-4.8061 0.20365 1.5477 0.36657 1.6292 1.4255 0.32584 0.57022 0.48875 1.6292 0.32584 2.2401 0.12219 2.8104-0.0407 1.4255-0.20365 2.5252-0.4073 1.955-0.61094 1.3848-1.2626 1.2626-1.9143 0.52949 4.1544 0.85532 1.3034-1.5477 0.97752-2.0772 0.4073-1.6699 0.2851-2.118 0.0815-2.5252v-1.0997l-0.16292-2.2809-0.32583-1.8328-0.44803-1.4663-0.93679-1.8328z"/>
     <path id="path62" d="m560.48 607.81-2.1994 0.36657-1.7921 0.93678-0.12219 0.12219-1.3034 1.5477-0.97751 2.0365-0.44803 1.7106-0.28511 2.1179-0.0815 2.4845 0.0407 1.1404 0.20365 2.4845 0.4073 2.1587 0.65168 1.7921 0.89605 1.4663 1.059 1.059 1.7921 0.89606 2.1587 0.32583h0.0815l2.1587-0.32583 1.7921-0.97752 0.12219-0.0815-4.1544-0.85532-1.5477-0.36657-1.5885-1.4255-0.32584-0.57022-0.52949-1.6292-0.32583-2.2401-0.0815-2.8511 0.0407-1.6699 0.20365-2.4438 0.48875-1.955 0.65168-1.3848 1.0182-1.0182 1.9958-0.57022 4.8061-0.20365-1.6699-1.3441-0.93679-0.40729z"/>
     <path id="path63" d="m572.01 630.09v-3.0955h3.0955v3.0955z"/>
     <path id="path64" d="m582.07 624.71-2.6067 0.24438 0.0815 0.61095 0.6924 1.955 1.2219 1.4663 0.36656 0.32584 1.7514 0.85533 2.118 0.2851h0.48876l1.9958-0.40729 1.7921-0.89606 0.48876-0.4073-4.7246-0.52948-0.61095-0.0407-1.7921-0.77387-0.52948-0.65167z"/>
     <path id="path65" d="m589.4 618.85-1.1812 0.85532-1.955 0.44803-5.2949 0.4073 0.89605 0.81459 1.7514 0.89606 1.9958 0.2851 1.1404-0.0815 1.9143-0.73313 0.89605-0.57022 1.3441-1.507z"/>
     <path id="path66" d="m581.05 609.89-1.059 1.4256-0.6924 1.8328-0.24438 2.1587 0.16292 1.8328 0.65168 1.8736 1.0997 1.5477 5.2949-0.4073-1.4663-0.24438-1.6699-1.059-0.89605-1.3848-0.36657-2.0772v-0.0815l0.32584-2.0772 1.0182-1.6699 1.2626-1.0182 1.8736-0.44803z"/>
     <path id="path67" d="m586.02 607.81-1.5477 0.16292-1.8328 0.6924-1.5885 1.2219 5.2949 0.20365 1.3441 0.20365 1.6699 1.1812 0.89605 1.5885 0.32584 2.118-0.28511 2.0365-0.89606 1.6292 1.507 0.81459v0.52949l-0.0407 1.3034-0.36657 2.0365-0.20365 0.77386-0.8146 1.7921-0.0815 0.12219-1.4663 1.4255-0.20364 0.12219-1.9958 0.44803 4.7246 0.52948 1.2626-1.507 0.97751-1.9143 0.16292-0.48876 0.4073-1.7921 0.24438-2.0772 0.0815-2.403v-0.20365l-0.0815-2.4438-0.32584-1.9958-0.48876-1.6292-0.12219-0.24438-1.0997-1.7514-1.507-1.3034-0.0815-0.0407-1.8328-0.85532z"/>
     <path id="path68" d="m599.09 624.02-2.8511 0.24438 0.16292 0.93679 0.73314 1.955 1.3034 1.6292 4.9283-0.57021-0.93679-0.0815-1.8328-0.97752-0.81459-0.97751z"/>
     <path id="path69" d="m608.95 617.38-5.6207 0.40729 1.6699 0.24438 1.7514 1.0997 0.93679 1.4663 0.36657 2.1994-0.36657 2.1994-1.0182 1.7514-1.3034 1.0182-1.9958 0.44803-4.9283 0.57021 0.81459 0.57022 1.8736 0.8146 2.2401 0.2851h0.32583l2.1587-0.36656 1.7921-0.89606 1.507-1.4255 0.73313-1.059 0.77387-1.955 0.24438-2.1994-0.12219-1.507-0.65168-1.9958z"/>
     <path id="path70" d="m604.02 615.39h-0.16292l-2.0365 0.36657-1.955 1.0182 9.0827 0.61095-0.93678-0.77387-1.8328-0.89605z"/>
     <path id="path71" d="m609.89 608.22h-10.997l-2.1587 11.404 2.566 0.32584 0.0815-0.12219 1.5477-1.4255 0.28511-0.16292 2.118-0.44803 5.6207-0.40729-9.0827-0.61095 1.1812-5.9465h8.8384z"/>
     <path id="path72" d="m616.16 623.86-2.6882 0.36656 0.12219 0.93679 0.73314 1.955 1.3441 1.6292 0.73313 0.57022 1.8736 0.85533 2.1994 0.2851 1.7106-0.12219 1.955-0.6924 1.7106-1.1812-5.3356-0.24438-0.89606-0.0815-1.8328-0.93679-0.85532-1.0997z"/>
     <path id="path73" d="m625.81 618.93-5.0912 0.36656 1.3441 0.16292 1.7921 1.059 0.73313 1.0182 0.48876 2.0772-0.24438 1.507-1.0997 1.7921-1.1812 0.85532-2.0365 0.44803 5.3356 0.24438 0.85533-0.97752 0.93678-1.8328 0.28511-2.1179-0.20365-1.7514-0.85532-1.8328z"/>
     <path id="path74" d="m619.13 617.22-0.32584 2.3623 1.9143-0.28511 5.0912-0.36656-1.9958-0.85533 0.77386-0.40729-5.0505-0.44803z"/>
     <path id="path75" d="m625.45 609.93-5.0098 0.12219 0.81459 0.0815 1.7921 0.93679 0.4073 0.44802 0.61094 1.9958-0.16291 1.2626-1.2219 1.5477-1.0182 0.52949-2.118 0.36657 5.0505 0.44803 1.507-1.4663 0.28511-0.52948 0.48876-2.0772-0.0815-0.85532-0.73314-1.9958z"/>
     <path id="path76" d="m620.4 607.81-0.52949 0.0407-2.118 0.44802-1.7514 1.0182-0.44803 0.4073-1.1404 1.7106-0.69241 2.1587 2.7289 0.44803 0.32584-1.3034 1.0182-1.6699 0.61095-0.44803 2.0365-0.57022 5.0098-0.12219-1.7106-1.3441-1.1812-0.44802z"/>
     <path id="path77" d="m633.67 624.71-2.6474 0.24438 0.12219 0.61095 0.69241 1.955 1.1812 1.4663 0.4073 0.32584 1.7106 0.85533 2.118 0.2851h0.48876l2.0365-0.40729 1.7514-0.89606 0.48876-0.4073-4.6839-0.52948-0.61095-0.0407-1.7921-0.77387-0.57022-0.65167z"/>
     <path id="path78" d="m640.96 618.85-1.1404 0.85532-1.955 0.44803-5.3356 0.4073 0.89606 0.81459 1.7514 0.89606 1.9958 0.2851 1.1812-0.0815 1.9143-0.73313 0.85533-0.57022 1.3441-1.507z"/>
     <path id="path79" d="m632.61 609.89-1.059 1.4256-0.69241 1.8328-0.24438 2.1587 0.16292 1.8328 0.65168 1.8736 1.0997 1.5477 5.3356-0.4073-1.507-0.24438-1.6292-1.059-0.93679-1.3848-0.36656-2.0772v-0.0815l0.36656-2.0772 0.97752-1.6699 1.2626-1.0182 1.8736-0.44803z"/>
     <path id="path80" d="m637.58 607.81-1.507 0.16292-1.8736 0.6924-1.5885 1.2219 5.2949 0.20365 1.3848 0.20365 1.6292 1.1812 0.93678 1.5885 0.32584 2.118-0.28511 2.0365-0.93678 1.6292 1.507 0.81459v0.52949l-0.0407 1.3034-0.36657 2.0365-0.20365 0.77386-0.77386 1.7921-0.0815 0.12219-1.4663 1.4255-0.24438 0.12219-1.955 0.44803 4.6839 0.52948 1.3034-1.507 0.93679-1.9143 0.16292-0.48876 0.40729-1.7921 0.28511-2.0772 0.0815-2.403v-0.20365l-0.12219-2.4438-0.32584-1.9958-0.48875-1.6292-0.12219-0.24438-1.0997-1.7514-1.507-1.3034-0.0407-0.0407-1.8736-0.85532z"/>
     <path id="path81" d="m650.7 624.02-2.8511 0.24438 0.12219 0.93679 0.73314 1.955 1.3034 1.6292 4.9283-0.57021-0.93679-0.0815-1.8328-0.97752-0.77387-0.97751z"/>
     <path id="path82" d="m660.51 617.38-5.6207 0.40729 1.7106 0.24438 1.7106 1.0997 0.93678 1.4663 0.36657 2.1994-0.32584 2.1994-1.0182 1.7514-1.3034 1.0182-2.0365 0.44803-4.9283 0.57021 0.81459 0.57022 1.8736 0.8146 2.2401 0.2851h0.36657l2.1179-0.36656 1.8328-0.89606 1.507-1.4255 0.73314-1.059 0.73313-1.955 0.28511-2.1994-0.12219-1.507-0.65167-1.9958z"/>
     <path id="path83" d="m655.63 615.39h-0.20364l-2.0365 0.36657-1.955 1.0182 9.0827 0.61095-0.93678-0.77387-1.8328-0.89605z"/>
     <path id="path84" d="m661.45 608.22h-10.997l-2.1587 11.404 2.566 0.32584 0.0815-0.12219 1.5885-1.4255 0.24438-0.16292 2.118-0.44803 5.6207-0.40729-9.0827-0.61095 1.1812-5.9465h8.8384z"/>
     <path id="path85" d="m668.99 612.37-1.8736 1.0182v2.6474l0.93679-0.4073 1.9143-1.0182 1.059-0.65167 1.507-1.2219z"/>
     <path id="path86" d="m675.26 607.81h-1.7514l-0.85532 1.3848-1.5477 1.5885-0.48876 0.4073-1.6292 1.1812 3.5435 0.36657v17.351h2.7289z"/>
     <path id="path87" d="m694.2 609.89-4.8061 0.20365 1.5885 0.36657 1.5885 1.4255 0.32584 0.57022 0.52948 1.6292 0.32584 2.2401 0.12219 2.8104-0.0407 1.4255-0.20365 2.5252-0.40729 1.955-0.65168 1.3848-1.2626 1.2626-1.8736 0.52949 4.1544 0.85532 1.3034-1.5477 0.93679-2.0772 0.44803-1.6699 0.2851-2.118 0.0815-2.5252v-1.0997l-0.16292-2.2809-0.32583-1.8328-0.44803-1.4663-0.93678-1.8328z"/>
     <path id="path88" d="m689.43 607.81h-0.0407l-2.1587 0.36657-1.7921 0.93678-0.12218 0.12219-1.3441 1.5477-0.93678 2.0365-0.44803 1.7106-0.28511 2.1179-0.0815 2.4845v1.1404l0.20364 2.4845 0.44803 2.1587 0.65168 1.7921 0.89605 1.4663 1.059 1.059 1.7921 0.89606 2.1587 0.32583h0.0407l2.1994-0.32583 1.7921-0.97752 0.12219-0.0815-4.1544-0.85532-1.5477-0.36657-1.5885-1.4255-0.32584-0.57022-0.52949-1.6292-0.32583-2.2401-0.12219-2.8511 0.0407-1.6699 0.24438-2.4438 0.44802-1.955 0.69241-1.3848 1.0182-1.0182 1.955-0.57022 4.8061-0.20365-1.6292-1.3441-0.93678-0.40729z"/>
     <path id="path89" d="m713.91 608.22h-14.337v2.6067h10.834l-0.44803 0.52949-1.1812 1.5477-1.1404 1.7514-1.0997 1.955-0.69241 1.3441-0.81459 1.9143-0.73314 1.9143-0.57021 1.9958-0.0815 0.20365-0.52949 2.2809-0.32584 2.0365-0.12218 1.7921h2.8104l0.20365-2.118 0.36656-2.0772 0.44803-1.9143 0.0407-0.0407 0.61095-1.955 0.73313-1.9143 0.85533-1.8736 0.97751-1.8736 0.65168-1.0997 1.1812-1.8736 1.1812-1.6292 1.1812-1.3848z"/>
    </g>
    <g fill="none" stroke="#212830" stroke-linecap="round" stroke-linejoin="round" stroke-width=".36199">
     <path id="path90" d="m784.37 591.4v34.132"/>
     <path id="path91" d="m791.66 591.4v34.132"/>
     <path id="path92" d="m774.88 619.21h-9.49"/>
     <path id="path93" d="m801.15 619.21h9.49"/>
    </g>
    <g fill="#212830" fill-rule="evenodd">
     <path id="path94" d="m774.88 617.63v3.1362l9.49-1.5477z"/>
     <path id="path95" d="m801.15 617.63v3.1362l-9.49-1.5477z"/>
     <path id="path96" d="m824.21 609.89-4.8061 0.20365 1.5885 0.36657 1.5885 1.4255 0.32584 0.57022 0.52949 1.6292 0.28511 2.2401 0.12219 2.8104v1.4255l-0.20365 2.5252-0.44803 1.955-0.61095 1.3848-1.2626 1.2626-1.9143 0.52949 4.1544 0.85532 1.3441-1.5477 0.93678-2.0772 0.4073-1.6699 0.28511-2.118 0.12219-2.5252-0.0407-1.0997-0.16292-2.2809-0.32584-1.8328-0.44803-1.4663-0.89605-1.8328z"/>
     <path id="path97" d="m819.4 607.81-2.1994 0.36657-1.7921 0.93678-0.0815 0.12219-1.3441 1.5477-0.97752 2.0365-0.40729 1.7106-0.28511 2.1179-0.12219 2.4845 0.0407 1.1404 0.20365 2.4845 0.4073 2.1587 0.65167 1.7921 0.89606 1.4663 1.059 1.059 1.7921 0.89606 2.1587 0.32583h0.0815l2.1994-0.32583 1.7514-0.97752 0.12219-0.0815-4.1544-0.85532-1.5477-0.36657-1.5885-1.4255-0.32583-0.57022-0.52949-1.6292-0.28511-2.2401-0.12219-2.8511 0.0407-1.6699 0.24438-2.4438 0.44803-1.955 0.65167-1.3848 1.059-1.0182 1.955-0.57022 4.8061-0.20365-1.6699-1.3441-0.93678-0.40729z"/>
     <path id="path98" d="m830.93 630.09v-3.0955h3.0955v3.0955z"/>
     <path id="path99" d="m849.99 609.89-4.8061 0.20365 1.5885 0.36657 1.5885 1.4255 0.32584 0.57022 0.52948 1.6292 0.28511 2.2401 0.12219 2.8104-0.0407 1.4255-0.20365 2.5252-0.40729 1.955-0.61095 1.3848-1.2626 1.2626-1.9143 0.52949 4.1544 0.85532 1.3441-1.5477 0.93679-2.0772 0.4073-1.6699 0.2851-2.118 0.12219-2.5252-0.0407-1.0997-0.16292-2.2809-0.32583-1.8328-0.44803-1.4663-0.89605-1.8328z"/>
     <path id="path100" d="m845.18 607.81-2.1994 0.36657-1.7921 0.93678-0.0815 0.12219-1.3441 1.5477-0.97751 2.0365-0.4073 1.7106-0.28511 2.1179-0.12218 2.4845 0.0407 1.1404 0.20364 2.4845 0.4073 2.1587 0.65168 1.7921 0.89605 1.4663 1.059 1.059 1.7921 0.89606 2.1587 0.32583h0.0815l2.1994-0.32583 1.7514-0.97752 0.12219-0.0815-4.1544-0.85532-1.5477-0.36657-1.5885-1.4255-0.32584-0.57022-0.52949-1.6292-0.32583-2.2401-0.0815-2.8511 0.0407-1.6699 0.24438-2.4438 0.44802-1.955 0.65168-1.3848 1.059-1.0182 1.955-0.57022 4.8061-0.20365-1.6699-1.3441-0.93678-0.40729z"/>
     <path id="path101" d="m867.58 609.6-5.132 0.48875 1.3441 0.16292 1.7106 0.93679 0.61095 0.81459 0.52948 1.9143-0.24438 1.3441-1.0182 1.9143-0.24438 0.32584-1.0997 1.2219-1.5477 1.4663-1.9958 1.7106-0.6924 0.57021-1.6292 1.4663-1.2219 1.3034-0.89605 1.1812-0.89605 1.7514-0.32584 1.9143h14.622v-2.6067h-10.834l1.1404-1.507 1.1404-1.059 1.9958-1.7106 1.4663-1.3034 1.5885-1.4255 1.1404-1.1812 0.8146-1.0182 0.97751-1.6699 0.20365-0.61094 0.32584-1.9958-0.0407-0.89606-0.57022-1.9143z"/>
     <path id="path102" d="m862.53 607.81-1.507 0.12219-1.9143 0.52948-1.5885 1.0182-0.85532 0.89605-0.89606 1.7106-0.4073 2.1587 2.7696 0.28511 0.24438-1.6292 0.93678-1.6292 1.1404-0.77387 1.9958-0.4073 5.132-0.48875-1.059-0.8146-1.8328-0.73313z"/>
     <path id="path103" d="m875.12 623.86-2.7289 0.36656 0.12219 0.93679 0.77386 1.955 1.3034 1.6292 0.77387 0.57022 1.8736 0.85533 2.1994 0.2851 1.6699-0.12219 1.9958-0.6924 1.6699-1.1812-5.3356-0.24438-0.89605-0.0815-1.8328-0.93679-0.85533-1.0997z"/>
     <path id="path104" d="m884.73 618.93-5.0505 0.36656 1.3034 0.16292 1.7921 1.059 0.73314 1.0182 0.48875 2.0772-0.24438 1.507-1.059 1.7921-1.2219 0.85532-2.0365 0.44803 5.3356 0.24438 0.85532-0.97752 0.93679-1.8328 0.32583-2.1179-0.20364-1.7514-0.89606-1.8328z"/>
     <path id="path105" d="m878.05 617.22-0.32584 2.3623 1.955-0.28511 5.0505-0.36656-1.9958-0.85533 0.77387-0.40729-5.0098-0.44803z"/>
     <path id="path106" d="m884.36 609.93-4.969 0.12219 0.77387 0.0815 1.8328 0.93679 0.40729 0.44802 0.57022 1.9958-0.16292 1.2626-1.2219 1.5477-0.97752 0.52949-2.1179 0.36657 5.0098 0.44803 1.507-1.4663 0.32583-0.52948 0.44803-2.0772-0.0815-0.85532-0.73313-1.9958z"/>
     <path id="path107" d="m879.31 607.81-0.52948 0.0407-2.0772 0.44802-1.7921 1.0182-0.4073 0.4073-1.1812 1.7106-0.65168 2.1587 2.6882 0.44803 0.32584-1.3034 1.059-1.6699 0.57022-0.44803 2.0772-0.57022 4.969-0.12219-1.7106-1.3441-1.1812-0.44802z"/>
     <path id="path108" d="m901.55 609.89-4.8061 0.20365 1.5885 0.36657 1.5885 1.4255 0.32584 0.57022 0.52949 1.6292 0.32583 2.2401 0.0815 2.8104v1.4255l-0.20364 2.5252-0.4073 1.955-0.65168 1.3848-1.2626 1.2626-1.8736 0.52949 4.1137 0.85532 1.3441-1.5477 0.93678-2.0772 0.44803-1.6699 0.28511-2.118 0.0815-2.5252v-1.0997l-0.16292-2.2809-0.32584-1.8328-0.44803-1.4663-0.93678-1.8328z"/>
     <path id="path109" d="m896.79 607.81h-0.0407l-2.1994 0.36657-1.7514 0.93678-0.12219 0.12219-1.3441 1.5477-0.93679 2.0365-0.44802 1.7106-0.28511 2.1179-0.0815 2.4845v1.1404l0.20365 2.4845 0.44802 2.1587 0.65168 1.7921 0.85532 1.4663 1.0997 1.059 1.7921 0.89606 2.1587 0.32583h0.0407l2.1994-0.32583 1.7921-0.97752 0.0815-0.0815-4.1137-0.85532-1.5477-0.36657-1.5885-1.4255-0.32584-0.57022-0.52948-1.6292-0.32584-2.2401-0.12219-2.8511 0.0407-1.6699 0.24438-2.4438 0.44803-1.955 0.6924-1.3848 1.0182-1.0182 1.955-0.57022 4.8061-0.20365-1.6292-1.3441-0.97751-0.40729z"/>
     <path id="path110" d="m919.15 609.6-5.0912 0.48875 1.3034 0.16292 1.7106 0.93679 0.65168 0.81459 0.48876 1.9143-0.24438 1.3441-1.0182 1.9143-0.24437 0.32584-1.0997 1.2219-1.5477 1.4663-1.9958 1.7106-0.65167 0.57021-1.6699 1.4663-1.2219 1.3034-0.89606 1.1812-0.89605 1.7514-0.32584 1.9143h14.622v-2.6067h-10.834l1.1404-1.507 1.1404-1.059 1.9958-1.7106 1.507-1.3034 1.5477-1.4255 1.1404-1.1812 0.8146-1.0182 0.97751-1.6699 0.24438-0.61094 0.32584-1.9958-0.0815-0.89606-0.57022-1.9143z"/>
     <path id="path111" d="m914.1 607.81-1.4663 0.12219-1.955 0.52948-1.5885 1.0182-0.81459 0.89605-0.89606 1.7106-0.44802 2.1587 2.7696 0.28511 0.24438-1.6292 0.97751-1.6292 1.0997-0.77387 2.0365-0.4073 5.0912-0.48875-1.059-0.8146-1.7921-0.73313z"/>
     <path id="path112" d="m935.36 607.93h-2.1994l-10.101 14.337v2.5252h9.6122v5.2949h2.6882v-5.2949h3.014v-2.5252h-12.626l6.924-9.9788z"/>
     <path id="path113" d="m935.36 607.93-2.6882 4.3581v9.9788h-6.924 9.6122z"/>
     <path id="path114" d="m952.59 607.93h-2.2401l-10.101 14.337v2.5252h9.6122v5.2949h2.7289v-5.2949h2.9733v-2.5252h-12.626l6.924-9.9788z"/>
     <path id="path115" d="m952.59 607.93-2.7289 4.3581v9.9788h-6.924 9.653z"/>
     <path id="path116" d="m972.83 608.22h-14.296v2.6067h10.834l-0.44803 0.52949-1.2219 1.5477-1.1404 1.7514-1.0997 1.955-0.69241 1.3441-0.8146 1.9143-0.73313 1.9143-0.57022 1.9958-0.0815 0.20365-0.48875 2.2809-0.32584 2.0365-0.12219 1.7921h2.7696l0.20365-2.118 0.36657-2.0772 0.48876-1.9143v-0.0407l0.61094-1.955 0.77387-1.9143 0.85532-1.8736 0.97751-1.8736 0.61095-1.0997 1.1812-1.8736 1.1812-1.6292 1.1812-1.3848z"/>
    </g>
    <path id="path117" d="m560.52 465.95 3.1362 1.1404 3.1362 1.059 3.1769 1.059 3.1769 0.97751 3.2176 0.93679 3.2176 0.89605 3.2176 0.8146 3.2584 0.77386" fill="none" stroke="#212830" stroke-linecap="round" stroke-linejoin="round" stroke-width=".36199"/>
    <path id="path118" d="m681.12 473.61 3.2584-0.77386 3.2176-0.8146 3.2176-0.89605 3.2176-0.93679 3.1769-0.97751 3.1769-1.059 3.1362-1.059 3.1362-1.1404" fill="none" stroke="#212830" stroke-linecap="round" stroke-linejoin="round" stroke-width=".36199"/>
    <g fill="#212830" fill-rule="evenodd">
     <path id="path119" d="m559.3 468.88 2.4438-5.8244-18.695-4.4803z"/>
     <path id="path120" d="m705.44 463.06 2.4438 5.8244 16.251-10.305z"/>
     <path id="path121" d="m591.64 483.26-2.4438 0.20365 0.12219 0.77386 0.65167 1.7106 1.0997 1.3441 4.2359-0.44802-0.8146-0.0815-1.5885-0.8146-0.65167-0.85532z"/>
     <path id="path122" d="m600.07 477.56-4.8061 0.32583 1.4663 0.24438 1.4663 0.93679 0.81459 1.2626 0.28511 1.8736-0.28511 1.8736-0.85532 1.507-1.1404 0.85533-1.7106 0.4073-4.2359 0.44802 0.69241 0.52949 1.6292 0.69241 1.9143 0.24437h0.28511l1.8328-0.32583 1.5477-0.73314 1.3034-1.2626 0.61094-0.89606 0.69241-1.6699 0.20365-1.8736-0.12219-1.3034-0.52949-1.7106z"/>
     <path id="path123" d="m595.88 475.85h-0.16292l-1.7514 0.32583-1.6699 0.85533 7.7794 0.52949-0.77387-0.65168-1.5885-0.8146z"/>
     <path id="path124" d="m600.89 469.7h-9.4493l-1.8328 9.7751 2.1994 0.28511 0.0815-0.12219 1.3441-1.2219 0.24438-0.12219 1.7921-0.4073 4.8061-0.32583-7.7794-0.52949 1.0182-5.0912h7.5757z"/>
     <path id="path125" d="m607.32 473.24-1.5885 0.89606v2.2401l0.77387-0.32583 1.6699-0.85533 0.89605-0.57022 1.3034-1.059z"/>
     <path id="path126" d="m612.7 469.37h-1.4663l-0.77387 1.1404-1.3034 1.3848-0.4073 0.36657-1.4255 0.97751 3.0547 0.32584v14.866h2.3216z"/>
     <path id="path127" d="m619.99 488.43v-2.6474h2.6474v2.6474z"/>
     <path id="path128" d="m636.32 471.12-4.1137 0.16292 1.3441 0.32583 1.3848 1.2219 0.2851 0.48875 0.44803 1.3848 0.24438 1.9143 0.0815 2.4438v1.1812l-0.16292 2.1994-0.36657 1.6699-0.52948 1.1812-1.0997 1.059-1.6292 0.48876 3.5842 0.6924 1.0997-1.3034 0.8146-1.7921 0.36657-1.4255 0.24437-1.8328 0.0815-2.1179v-0.93679l-0.12219-1.9958-0.2851-1.5477-0.4073-1.2626-0.77387-1.5885z"/>
     <path id="path129" d="m632.21 469.37-1.8736 0.28511-1.5477 0.81459-0.0815 0.0815-1.1404 1.3441-0.81459 1.7514-0.4073 1.4663-0.20365 1.8328-0.0815 2.118v0.93674l0.16292 2.1587 0.36657 1.8736 0.57021 1.507 0.77387 1.2626 0.89605 0.89605 1.5477 0.8146 1.8328 0.24437h0.0815l1.8736-0.2851 1.507-0.85533 0.12219-0.0815-3.5842-0.6924-1.3034-0.32584-1.3848-1.2219-0.24438-0.48876-0.48876-1.3848-0.24437-1.9143-0.12219-2.4438 0.0407-1.4255 0.20365-2.118 0.40729-1.6699 0.57022-1.1812 0.89605-0.89606 1.6699-0.48875 4.1137-0.16292-1.4255-1.1404-0.8146-0.36656z"/>
     <path id="path130" d="m651.06 471.12-4.1137 0.16292 1.3441 0.32583 1.3848 1.2219 0.24438 0.48875 0.44803 1.3848 0.28511 1.9143 0.0815 2.4438v1.1812l-0.16292 2.1994-0.36657 1.6699-0.52949 1.1812-1.0997 1.059-1.6292 0.48876 3.5435 0.6924 1.1404-1.3034 0.81459-1.7921 0.36657-1.4255 0.24438-1.8328 0.0815-2.1179v-0.93679l-0.16292-1.9958-0.24438-1.5477-0.40729-1.2626-0.77387-1.5885z"/>
     <path id="path131" d="m646.95 469.37-1.8736 0.28511-1.5477 0.81459-0.0815 0.0815-1.1404 1.3441-0.8146 1.7514-0.40729 1.4663-0.24438 1.8328-0.0815 2.118 0.0407 0.93678 0.16292 2.1587 0.36656 1.8736 0.57022 1.507 0.73314 1.2626 0.93678 0.89605 1.5477 0.8146 1.8328 0.24437h0.0407l1.9143-0.2851 1.507-0.85533 0.0815-0.0815-3.5435-0.6924-1.3034-0.32584-1.3848-1.2219-0.28511-0.48876-0.44803-1.3848-0.28511-1.9143-0.0815-2.4438 0.0407-1.4255 0.20365-2.118 0.36657-1.6699 0.61095-1.1812 0.85532-0.89606 1.7106-0.48875 4.1137-0.16292-1.4255-1.1404-0.81459-0.36656z"/>
     <path id="path132" d="m665.81 471.12-4.1544 0.16292 1.3848 0.32583 1.3441 1.2219 0.28511 0.48875 0.44802 1.3848 0.28511 1.9143 0.0815 2.4438v1.1812l-0.20365 2.1994-0.32584 1.6699-0.57021 1.1812-1.059 1.059-1.6292 0.48876 3.5435 0.6924 1.1404-1.3034 0.81459-1.7921 0.36657-1.4255 0.24438-1.8328 0.0815-2.1179v-0.93679l-0.16292-1.9958-0.28511-1.5477-0.36657-1.2626-0.81459-1.5885z"/>
     <path id="path133" d="m661.7 469.37-1.9143 0.28511-1.507 0.81459-0.0815 0.0815-1.1404 1.3441-0.85532 1.7514-0.36657 1.4663-0.24438 1.8328-0.0815 2.118 0.0407 0.93678 0.16292 2.1587 0.36657 1.8736 0.57022 1.507 0.73313 1.2626 0.93679 0.89605 1.507 0.8146 1.8736 0.24437h0.0407l1.8736-0.2851 1.5477-0.85533 0.0815-0.0815-3.5435-0.6924-1.3441-0.32584-1.3441-1.2219-0.28511-0.48876-0.44802-1.3848-0.28511-1.9143-0.0815-2.4438 0.0407-1.4255 0.20365-2.118 0.36657-1.6699 0.61094-1.1812 0.85533-0.89606 1.6699-0.48875 4.1544-0.16292-1.4255-1.1404-0.8146-0.36656z"/>
     <path id="path134" d="m671.88 470.18-0.65168 0.77387-0.40729 1.7514 0.12219 1.0182 0.93678 1.5477 0.77387 0.57022 1.7514 0.44802 1.0182-0.12219 1.507-0.93678-2.5252-0.32584-1.5477-0.65167-0.65167-1.5477 0.65167-1.5477 1.5477-0.65168z"/>
     <path id="path135" d="m674.4 469.13-1.0182 0.12219-1.507 0.93678 2.5252 0.32584 1.5477 0.65168 0.61095 1.5477-0.61095 1.5477-1.5477 0.65167 2.5252 0.32584 0.61094-0.77386 0.44803-1.7514-0.12219-1.0182-0.93678-1.507-0.8146-0.65167z"/>
    </g>
    <path id="path136" d="m715.66 498.9 2.8511-1.0182 5.6207-2.1994 5.5392-2.2809 2.7696-1.2219" fill="none" stroke="#212830" stroke-linecap="round" stroke-linejoin="round" stroke-width=".36199"/>
    <g fill="#212830" fill-rule="evenodd">
     <path id="path137" d="m716.03 500-0.73314-2.1994-6.1909 3.3398z"/>
     <path id="path138" d="m731.95 491.16 0.97751 2.118 5.8244-3.9915z"/>
     <path id="path139" d="m681.37 501.67h-7.1277v1.3034h5.417l-0.24438 0.28511-0.57021 0.77387-0.61095 0.89605-0.52949 0.97752-0.32583 0.65167-0.44803 0.93679-0.36657 0.97751-0.28511 0.97751v0.12219l-0.28511 1.1404-0.16291 1.0182-0.0407 0.89605h1.3848l0.12219-1.059 0.16292-1.0182 0.24437-0.97752 0.32584-0.97751 0.36657-0.97752 0.4073-0.93678 0.48875-0.93678 0.32584-0.57022 0.57022-0.93678 0.61094-0.8146 0.57022-0.6924z"/>
     <path id="path140" d="m683.49 512.62v-1.5477h1.5477v1.5477z"/>
     <path id="path141" d="m688.45 509.61-1.4256 0.12219 0.0815 0.44803 0.36657 0.97751 0.65168 0.8146 2.4438-0.28511-0.44803-0.0407-0.93678-0.48876-0.4073-0.48875z"/>
     <path id="path142" d="m693.38 506.27-2.8104 0.20365 0.85533 0.12219 0.85532 0.57022 0.44803 0.73313 0.20365 1.0997-0.20365 1.0997-0.48876 0.85532-0.65167 0.48876-1.0182 0.24438-2.4438 0.28511 0.40729 0.28511 0.93679 0.40729 1.0997 0.16292 0.20365-0.0407 1.059-0.16292 0.89606-0.44802 0.77386-0.73314 0.32584-0.52949 0.4073-0.97751 0.12219-1.059-0.0815-0.77387-0.32584-0.97751z"/>
     <path id="path143" d="m690.94 505.25-0.12219 0.0407-1.0182 0.16292-0.97752 0.52948 4.5617 0.28511-0.48875-0.36656-0.89606-0.48876z"/>
     <path id="path144" d="m693.83 501.71h-5.4985l-1.059 5.6614 1.2626 0.16292 0.0407-0.0407 0.8146-0.73314 0.12219-0.0407 1.059-0.24438 2.8104-0.20365-4.5617-0.28511 0.61095-3.014h4.3988z"/>
     <path id="path145" d="m696.56 501.95-0.36656 0.48876-0.24438 1.0182 0.0815 0.57022 0.52948 0.89605 0.44803 0.36657 1.0182 0.24438 0.61095-0.0815 0.89606-0.52949-1.507-0.20365-0.89605-0.36656-0.36657-0.89606 0.36657-0.93678 0.89605-0.36657z"/>
     <path id="path146" d="m698.03 501.34-0.57021 0.0815-0.89606 0.52949 1.4663 0.20365 0.89606 0.36657 0.4073 0.93678-0.4073 0.89606-0.89606 0.36656 1.507 0.20365 0.36656-0.48876 0.24438-0.97751-0.0815-0.61095-0.52948-0.89605-0.48876-0.36657z"/>
    </g>
    <g fill="none" stroke="#212830" stroke-linecap="round" stroke-linejoin="round" stroke-width=".36199">
     <path id="path147" d="m515.8 499.63 3.0955 1.5477 3.1362 1.507"/>
     <path id="path148" d="m515.8 499.63h-6.9648"/>
     <path id="path149" d="m528.35 505.62 3.0547 1.3441 6.1909 2.5252 3.0955 1.2219 3.0955 1.1812 3.1362 1.1404"/>
    </g>
    <g fill="#212830" fill-rule="evenodd">
     <path id="path150" d="m527.86 506.68 0.97751-2.0772-6.8019-1.8736z"/>
     <path id="path151" d="m547.29 511.97-0.73313 2.1994 6.9648 1.1404z"/>
     <path id="path152" d="m486.92 494.13h-7.1684v1.3034h5.4171l-0.20365 0.28511-0.61095 0.77387-0.57021 0.89605-0.57022 0.97751-0.32584 0.65168-0.4073 0.93678-0.36656 0.97752-0.28511 0.97751-0.0407 0.12219-0.24438 1.1404-0.16292 1.0182-0.0815 0.89605h1.3848l0.12219-1.059 0.16292-1.0182 0.24438-0.97751 0.32584-0.97751 0.36657-0.97752 0.44802-0.93678 0.48876-0.93679 0.28511-0.57021 0.61094-0.89606 0.57022-0.85532 0.61095-0.69241z"/>
     <path id="path153" d="m489.04 505.09v-1.5477h1.5477v1.5477z"/>
     <path id="path154" d="m493.97 502.08-1.4255 0.12219 0.0815 0.44803 0.36657 0.97751 0.65167 0.81459 2.4845-0.2851-0.48876-0.0407-0.89605-0.48876-0.4073-0.48876z"/>
     <path id="path155" d="m498.9 498.74-2.8104 0.20365 0.85532 0.12219 0.85533 0.57022 0.48875 0.73313 0.16292 1.0997-0.16292 1.0997-0.52948 0.85532-0.61095 0.48876-1.0182 0.24438-2.4845 0.2851 0.4073 0.28511 0.93678 0.4073 1.1404 0.16292 0.16292-0.0407 1.059-0.16292 0.93678-0.44803 0.73314-0.6924 0.36657-0.57022 0.36656-0.97751 0.16292-1.059-0.0815-0.77386-0.32583-0.97751z"/>
     <path id="path156" d="m496.45 497.76h-0.0815l-1.0182 0.16292-0.97751 0.52948 4.521 0.28511-0.44803-0.36657-0.93678-0.48875z"/>
     <path id="path157" d="m499.39 494.17h-5.4985l-1.0997 5.6614 1.3034 0.16292 0.0407-0.0407 0.77387-0.73313 0.12218-0.0407 1.059-0.24438 2.8104-0.20365-4.521-0.28511 0.57022-3.014h4.4395z"/>
     <path id="path158" d="m502.12 494.42-0.36657 0.48876-0.28511 1.0182 0.0815 0.57022 0.57022 0.89605 0.44803 0.36657 1.0182 0.24438 0.57022-0.0815 0.89605-0.52949-1.4663-0.20365-0.89605-0.36657-0.36657-0.89605 0.36657-0.93679 0.89605-0.36656z"/>
     <path id="path159" d="m503.58 493.81-0.57022 0.0815-0.89605 0.52949 1.4663 0.20365 0.89605 0.36656 0.36657 0.93679-0.36657 0.89605-0.89605 0.36657 1.4663 0.20365 0.36657-0.44803 0.24438-1.0182-0.0815-0.61095-0.52949-0.89605-0.44803-0.36657z"/>
    </g>
    <g fill="none" stroke-linecap="round" stroke-linejoin="round" stroke-width=".36199">
     <g stroke="#0ff">
      <path id="path160" d="m510.75 526.39h6.1502"/>
      <path id="path161" d="m522.6 526.39h3.7879"/>
      <path id="path162" d="m532.09 526.39h3.7879"/>
      <path id="path163" d="m541.58 526.39h3.7879"/>
      <path id="path164" d="m551.07 526.39h3.7879"/>
      <path id="path165" d="m560.56 526.39h3.7879"/>
      <path id="path166" d="m570.01 526.39h3.7879"/>
      <path id="path167" d="m579.5 526.39h3.7879"/>
      <path id="path168" d="m588.99 526.39h3.7879"/>
      <path id="path169" d="m598.48 526.39h3.7879"/>
      <path id="path170" d="m607.97 526.39h3.7879"/>
      <path id="path171" d="m617.46 526.39h3.7879"/>
      <path id="path172" d="m626.91 526.39h3.8286"/>
      <path id="path173" d="m636.4 526.39h3.7879"/>
      <path id="path174" d="m645.89 526.39h3.7879"/>
      <path id="path175" d="m655.38 526.39h3.7879"/>
      <path id="path176" d="m664.87 526.39h3.7879"/>
      <path id="path177" d="m674.36 526.39h3.7879"/>
      <path id="path178" d="m683.81 526.39h3.8286"/>
      <path id="path179" d="m693.3 526.39h3.7879"/>
      <path id="path180" d="m702.79 526.39h3.7879"/>
      <path id="path181" d="m712.28 526.39h3.7879"/>
      <path id="path182" d="m721.77 526.39h3.7879"/>
      <path id="path183" d="m731.26 526.39h3.7879"/>
      <path id="path184" d="m740.75 526.39h3.7879"/>
      <path id="path185" d="m750.2 526.39h6.2316"/>
     </g>
     <g stroke="#212830">
      <path id="path186" d="m510.75 532.7v128.58"/>
      <path id="path187" d="m756.43 532.7v128.58"/>
      <path id="path188" d="m520.24 654.93h57.144"/>
      <path id="path189" d="m746.94 654.93h-57.144"/>
     </g>
    </g>
    <g fill="#212830" fill-rule="evenodd">
     <path id="path190" d="m520.24 653.35v3.1769l-9.49-1.5885z"/>
     <path id="path191" d="m746.94 653.35v3.1769l9.49-1.5885z"/>
     <path id="path192" d="m590.99 645.61-4.8061 0.20365 1.5885 0.36656 1.5885 1.4663 0.32583 0.52949 0.52949 1.6292 0.28511 2.2401 0.12219 2.8511-0.0407 1.3848-0.20365 2.566-0.4073 1.955-0.61094 1.3441-1.2626 1.2626-1.9143 0.57022 4.1544 0.8146 1.3034-1.5477 0.97751-2.0365 0.4073-1.6699 0.28511-2.1587 0.12219-2.4845-0.0407-1.0997-0.16292-2.3216-0.32584-1.8328-0.44802-1.4255-0.89606-1.8736z"/>
     <path id="path193" d="m586.18 643.57-2.1994 0.32584-1.7921 0.97751-0.12219 0.0815-1.3034 1.5477-0.97751 2.0772-0.44803 1.7106-0.24438 2.1179-0.12219 2.4845 0.0407 1.0997 0.20365 2.5252 0.4073 2.1587 0.65167 1.7921 0.89606 1.4255 1.059 1.059 1.7921 0.93679 2.1587 0.32584h0.0814l2.1994-0.32584 1.7514-1.0182 0.12219-0.0815-4.1544-0.8146-1.5477-0.36657-1.5885-1.4663-0.32584-0.52948-0.52949-1.6292-0.32584-2.2401-0.0815-2.8511 0.0407-1.6699 0.24438-2.4845 0.44803-1.9143 0.65167-1.4255 1.059-1.0182 1.955-0.57021 4.8061-0.20365-1.6699-1.3034-0.93679-0.4073z"/>
     <path id="path194" d="m597.71 665.85v-3.1362h3.0955v3.1362z"/>
     <path id="path195" d="m619.25 643.94h-14.296v2.6474h10.834l-0.44803 0.52949-1.2219 1.5477-1.1404 1.7514-1.0997 1.955-0.65167 1.3441-0.85533 1.8736-0.73313 1.955-0.57022 1.955-0.0815 0.24438-0.48876 2.2401-0.32583 2.0365-0.12219 1.8328h2.7696l0.20365-2.1587 0.36657-2.0365 0.48875-1.9143v-0.0407l0.61095-1.955 0.77386-1.9143 0.85533-1.9143 0.97751-1.8736 0.61095-1.059 1.1812-1.8736 1.1812-1.6292 1.1812-1.4256z"/>
     <path id="path196" d="m636.44 643.94h-14.296v2.6474h10.834l-0.44803 0.52949-1.1812 1.5477-1.1812 1.7514-1.0997 1.955-0.65167 1.3441-0.85533 1.8736-0.73313 1.955-0.57022 1.955-0.0407 0.24438-0.52949 2.2401-0.32583 2.0365-0.12219 1.8328h2.7696l0.24438-2.1587 0.32584-2.0365 0.48875-1.9143v-0.0407l0.65168-1.955 0.73313-1.9143 0.85533-1.9143 0.97751-1.8736 0.61095-1.059 1.1812-1.8736 1.1812-1.6292 1.1812-1.4256z"/>
     <path id="path197" d="m653.67 643.94h-14.337v2.6474h10.834l-0.44803 0.52949-1.1812 1.5477-1.1404 1.7514-1.1404 1.955-0.65167 1.3441-0.85533 1.8736-0.6924 1.955-0.61095 1.955-0.0407 0.24438-0.52948 2.2401-0.32584 2.0365-0.12219 1.8328h2.7696l0.24438-2.1587 0.32584-2.0365 0.48875-1.9143v-0.0407l0.65168-1.955 0.73313-1.9143 0.85533-1.9143 0.97751-1.8736 0.61095-1.059 1.1812-1.8736 1.1812-1.6292 1.2219-1.4256z"/>
     <path id="path198" d="m660.31 648.13-1.8736 1.0182v2.6067l0.93678-0.36657 1.9143-1.0182 1.059-0.65168 1.507-1.2219z"/>
     <path id="path199" d="m666.58 643.57h-1.7514l-0.89606 1.3441-1.507 1.6292-0.48876 0.4073-1.6292 1.1812 3.5435 0.36657v17.351h2.7289z"/>
     <path id="path200" d="m676.4 659.78-2.8511 0.24438 0.12219 0.89605 0.73313 1.9958 1.3034 1.5885 4.9283-0.52949-0.93679-0.0815-1.8328-0.97751-0.77386-0.97752z"/>
     <path id="path201" d="m686.21 653.14-5.6207 0.4073 1.7106 0.24438 1.7106 1.0997 0.93679 1.4663 0.36657 2.1994-0.32584 2.1994-1.0182 1.7106-1.3034 1.0182-2.0365 0.48876-4.9283 0.52949 0.81459 0.61094 1.8736 0.8146 2.2401 0.28511h0.36656l2.118-0.36657 1.8328-0.89606 1.507-1.4255 0.73313-1.0997 0.77387-1.9143 0.24438-2.1994-0.12219-1.507-0.65168-1.9958z"/>
     <path id="path202" d="m681.33 651.15h-0.16292l-2.0772 0.36657-1.955 1.0182 9.0827 0.61095-0.89605-0.77387-1.8736-0.93678z"/>
     <path id="path203" d="m687.15 643.98h-10.997l-2.1179 11.364 2.5252 0.32583 0.0815-0.0815 1.5885-1.4663 0.28511-0.12219 2.0772-0.44802 5.6207-0.4073-9.0827-0.61095 1.2219-5.9465h8.7976z"/>
    </g>
    <g fill="none" stroke="#212830" stroke-linecap="round" stroke-linejoin="round" stroke-width=".36199">
     <path id="path204" d="m762.75 327.14h84.555"/>
     <path id="path205" d="m762.75 526.39h84.555"/>
     <path id="path206" d="m840.99 336.63v77.224"/>
     <path id="path207" d="m840.99 516.86v-77.183"/>
    </g>
    <g fill="#212830" fill-rule="evenodd">
     <path id="path208" d="m839.4 336.63h3.1769l-1.5885-9.49z"/>
     <path id="path209" d="m839.4 516.86h3.1769l-1.5885 9.5308z"/>
     <path id="path210" d="m824.25 417.44-4.8061 0.20365 1.5885 0.36656 1.5885 1.4255 0.32584 0.57022 0.52949 1.6292 0.32584 2.2401 0.0815 2.8511v1.3848l-0.20364 2.566-0.44803 1.955-0.61095 1.3441-1.2626 1.2626-1.8736 0.52949 4.1137 0.85533 1.3441-1.5477 0.93678-2.0772 0.44803-1.6699 0.24438-2.118 0.12219-2.4845-0.0407-1.1404-0.12219-2.2809-0.32584-1.8328-0.48876-1.4255-0.89605-1.8736z"/>
     <path id="path211" d="m819.48 415.4h-0.0407l-2.1994 0.32584-1.7921 0.97751-0.0815 0.0815-1.3441 1.5477-0.97752 2.0365-0.40729 1.7106-0.28511 2.1587-0.12219 2.4845 0.0407 1.0997 0.20365 2.5252 0.40729 2.1179 0.69241 1.8328 0.85532 1.4255 1.059 1.059 1.7921 0.93679 2.1994 0.28511h0.0407l2.1994-0.32584 1.7921-0.97751 0.0815-0.0815-4.1137-0.85533-1.5477-0.32584-1.5885-1.4663-0.32584-0.57021-0.52948-1.6292-0.32584-2.2401-0.12219-2.8104 0.0407-1.7106 0.24438-2.4438 0.44803-1.955 0.6924-1.3848 1.0182-1.0182 1.955-0.57021 4.8061-0.20365-1.6699-1.3441-0.93678-0.4073z"/>
     <path id="path212" d="m830.97 437.64v-3.0955h3.0955v3.0955z"/>
     <path id="path213" d="m850.64 425.26-5.2134 0.4073 1.3441 0.20364 1.7514 1.0997 0.85532 1.4255 0.36657 2.1994-0.28511 2.0772-0.93678 1.7106-1.0182 0.85532-1.955 0.52949 4.8061 0.32584 1.2626-1.7921 0.65167-1.7106 0.24438-2.1587-0.12219-1.507-0.61094-1.9958z"/>
     <path id="path214" d="m846 423.26-0.93678 0.0815-2.0365 0.65168-0.93678 0.61094-1.4663 1.5885 1.7106 0.77387 1.059-0.8146 2.0365-0.48875 5.2134-0.4073-0.73313-0.65168-1.8328-1.0182z"/>
     <path id="path215" d="m850.15 416.87-4.4803 0.77387 0.93678 0.0815 1.7921 1.059 0.20365 0.24438 0.81459 2.0772 2.7289-0.20364-0.0815-0.36657-0.69241-2.0772z"/>
     <path id="path216" d="m845.83 415.4-2.1587 0.28511-1.8736 0.81459-1.507 1.4255-0.57022 0.8146-0.81459 1.6292-0.52949 1.955-0.36656 2.3216-0.0815 2.6067v0.16291l0.12218 2.6474 0.4073 2.1994 0.65168 1.8328 0.93678 1.4255 1.5477 1.3441 1.8736 0.85533 2.118 0.28511 1.6292-0.16292 1.955-0.77387 1.1812-0.97751-4.8061-0.32584h-0.24438l-1.9958-0.65167-0.36657-0.24438-1.3034-1.7106-0.24438-0.57022-0.36656-2.118 0.24437-1.7514 1.059-1.7514-1.7106-0.77387 0.0407-1.059 0.24438-2.2809 0.48875-1.7514 0.61095-1.2626 1.3848-1.507 0.24438-0.16292 2.0365-0.52948 4.4803-0.77387-0.28511-0.24438-1.7921-0.93678z"/>
     <path id="path217" d="m857.97 431.41-2.7289 0.36657 0.12218 0.93678 0.77387 1.955 1.3034 1.6292 0.77387 0.61094 1.8736 0.85533 2.1994 0.28511 1.6699-0.16292 1.9958-0.69241 1.6699-1.1812-5.3356-0.24438-0.89605-0.0815-1.8328-0.93678-0.85533-1.0997z"/>
     <path id="path218" d="m867.58 426.48-5.0505 0.36657 1.3034 0.16292 1.7921 1.059 0.73313 1.0182 0.48876 2.0772-0.24438 1.507-1.059 1.7921-1.2219 0.85532-2.0365 0.44803 5.3356 0.24438 0.85532-0.97751 0.93679-1.8328 0.32583-2.118-0.20365-1.7106-0.89605-1.8736z"/>
     <path id="path219" d="m860.9 424.77-0.28511 2.3623 1.9143-0.28511 5.0505-0.36657-1.9958-0.85532 0.81459-0.4073-5.0505-0.4073z"/>
     <path id="path220" d="m867.22 417.48-4.969 0.16292 0.77387 0.0407 1.8328 0.93678 0.4073 0.44803 0.57022 2.0365-0.16292 1.2219-1.2219 1.5477-0.97752 0.52948-2.1179 0.4073 5.0505 0.4073 1.4663-1.4663 0.32583-0.52949 0.44803-2.0772-0.0815-0.85532-0.73313-1.9958z"/>
     <path id="path221" d="m862.17 415.4h-0.52948l-2.0772 0.44803-1.7921 1.0182-0.4073 0.4073-1.1812 1.7106-0.65168 2.1587 2.6882 0.48876 0.32583-1.3441 1.059-1.6699 0.57021-0.44803 2.0772-0.52948 4.969-0.16292-1.7106-1.3034-1.1812-0.48876z"/>
    </g>
    <text id="text222" transform="translate(838.75 562.44)" fill="#000000" font-family="Arial" font-size="35.375px" font-weight="400" letter-spacing="0px" stroke-width=".36199" word-spacing="0px" style="line-height:125%" xml:space="preserve"><tspan id="tspan222" x="0" y="0" sodipodi:role="line"><tspan id="tspan221" dx="0" dy="0" fill="#00ffff" font-family="Arial" font-size="35.375px" font-weight="400" stroke-width=".36199">Arc = 0.89011792</tspan></tspan></text>
    <path id="path222" d="m732.93 566.8-31.891 3.1362 29.162-13.319z" fill="#0ff" fill-rule="evenodd"/>
    <g fill="none" stroke-linecap="round" stroke-linejoin="round" stroke-width=".36199">
     <path id="path223" d="m731.59 561.7 43.947-11.812h31.647" stroke="#0ff"/>
     <path id="path224" d="m591.56 578.08-0.24438-2.0772-0.36656-2.0772-0.4073-2.0772-0.48876-2.0772-0.57022-2.0365-0.65167-1.9958-0.69241-1.9958-0.77386-1.9958-0.8146-1.9143-0.93678-1.9143" stroke="#212830"/>
     <path id="path225" d="m572.5 540.28-1.4663-1.3441-1.507-1.2626-1.507-1.2219-1.5885-1.1812-1.6292-1.0997-1.6292-1.059-1.7106-1.0182-1.7106-0.97751-1.7514-0.89606-1.7514-0.85532" stroke="#212830"/>
    </g>
    <g fill="#212830" fill-rule="evenodd">
     <path id="path226" d="m592.74 578.04-2.2809 0.12219 1.5477 6.8833z"/>
     <path id="path227" d="m555.84 530.46 0.81459-2.1587-6.8833-1.4663z"/>
     <path id="path228" d="m570.22 543.58h-7.1277v1.3034h5.4171l-0.24438 0.28511-0.61095 0.77386-0.57021 0.89606-0.52949 0.93678-0.32584 0.6924-0.44803 0.93679-0.36656 0.97751-0.28511 0.97752-0.0407 0.12219-0.24438 1.1404-0.16292 1.0182-0.0407 0.89606h1.3848l0.0815-1.059 0.20365-1.0182 0.24438-0.97751v-0.0407l0.28511-0.97752 0.4073-0.93678 0.40729-0.93679 0.48876-0.93678 0.32584-0.57022 0.57021-0.93678 0.61095-0.8146 0.57022-0.6924z"/>
     <path id="path229" d="m577.79 544.27-2.566 0.24438 0.65168 0.0815 0.85533 0.48876 0.32583 0.40729 0.24438 0.93679-0.12219 0.6924-0.48875 0.93679-0.12219 0.16292-0.57022 0.61094-0.77387 0.73314-0.97751 0.85532-0.36657 0.28511-0.81459 0.73314-0.61095 0.65167-0.44802 0.61095-0.44803 0.89605-0.16292 0.93679h7.3314v-1.3034h-5.417l0.57021-0.77386 0.57022-0.52949 0.97751-0.85532 0.73314-0.65168 0.81459-0.6924 0.57022-0.61095 0.4073-0.48876 0.48875-0.85532 0.0815-0.28511 0.16292-1.0182v-0.44803l-0.32584-0.93678z"/>
     <path id="path230" d="m575.27 543.42-0.77386 0.0407-0.97751 0.24438-0.77387 0.52948-0.4073 0.44803-0.44802 0.85532-0.24438 1.059 1.4255 0.16292 0.12219-0.8146 0.44803-0.81459 0.57021-0.4073 1.0182-0.20365 2.566-0.24438-0.52949-0.4073-0.93678-0.32583z"/>
     <path id="path231" d="m580.93 554.54v-1.5477h1.5477v1.5477z"/>
     <path id="path232" d="m590.46 544.43-2.4031 0.0815 0.8146 0.20365 0.77386 0.6924 0.16292 0.28511 0.28511 0.8146 0.16292 1.1404 0.0407 1.4255v0.69241l-0.12219 1.2626-0.20365 0.97751-0.32584 0.69241-0.61094 0.61094-0.93679 0.28511 2.0365 0.4073 0.69241-0.77387 0.44802-1.0182 0.24438-0.85532 0.12219-1.059 0.0407-1.2219v-0.57022l-0.0815-1.1404-0.16292-0.93678-0.24438-0.69241-0.44802-0.93678z"/>
     <path id="path233" d="m588.1 543.42h-0.0407l-1.0997 0.16292-0.89605 0.44802-0.0407 0.0815-0.65168 0.77387-0.48876 1.0182-0.20365 0.85533-0.16291 1.059-0.0407 1.2626v0.52949l0.12219 1.2626 0.20364 1.059 0.32584 0.89606 0.44803 0.73313 0.52949 0.52949 0.89605 0.48876 1.0997 0.12219 1.0997-0.16292 0.89605-0.48876 0.0407-0.0407-2.0365-0.4073-0.77386-0.20365-0.8146-0.6924-0.16292-0.28511-0.2851-0.81459-0.12219-1.1404-0.0815-1.3848 0.0407-0.85532 0.12219-1.2219 0.20365-0.97751 0.32583-0.69241 0.52949-0.52948 0.97751-0.28511 2.4031-0.0815-0.8146-0.69241-0.48875-0.20364z"/>
     <path id="path234" d="m594 543.86-0.36657 0.48876-0.24438 0.97751 0.0815 0.61095 0.52949 0.89606 0.44802 0.36656 1.0182 0.24438 0.61094-0.0815 0.89606-0.52948-1.507-0.20365-0.89606-0.4073-0.36657-0.89606 0.36657-0.89605 0.89606-0.36657z"/>
     <path id="path235" d="m595.47 543.25-0.57022 0.0815-0.89605 0.52948 1.4663 0.20365 0.93678 0.36657 0.36657 0.89605-0.36657 0.89606-0.93678 0.4073 1.507 0.20365 0.36656-0.48876 0.24438-1.0182-0.0815-0.57021-0.52948-0.89606-0.48876-0.36656z"/>
    </g>
   </g>
  </g>
 </g>
 <metadata id="metadata2">
  <rdf:RDF>
   <cc:Work rdf:about="">
    <dc:title>Los Secretos de las Catedrales. La Catedral Nacional de Washignton D.C</dc:title>
    <dc:date>16-01-2025</dc:date>
    <dc:creator>
     <cc:Agent>
      <dc:title>Miguel Hernando Ibáñez Sánchez</dc:title>
     </cc:Agent>
    </dc:creator>
    <dc:rights>
     <cc:Agent>
      <dc:title>Secretos de las catedrales. La Catedral Nacional de Washington D.C © 2025 by ISAN atelier is licensed under Creative Commons Attribution-NoDerivatives 4.0 International</dc:title>
     </cc:Agent>
    </dc:rights>
    <dc:publisher>
     <cc:Agent>
      <dc:title>ISAN atelier</dc:title>
     </cc:Agent>
    </dc:publisher>
    <dc:identifier>10.5281/zenodo.14675978</dc:identifier>
    <dc:source>Sáchica, Boyacá - Colombia</dc:source>
    <dc:relation>En Búsqueda de las Claves Sacras de la Ciudad de Washignton D.C</dc:relation>
    <dc:language>Español</dc:language>
    <dc:subject>
     <rdf:Bag>
      <rdf:li>arquitectura sagrada</rdf:li>
      <rdf:li>geometria sagrada</rdf:li>
      <rdf:li>sacred architecture</rdf:li>
      <rdf:li>sacred geometry</rdf:li>
     </rdf:Bag>
    </dc:subject>
    <dc:coverage>Global</dc:coverage>
    <dc:description>Estudios geometricos y sus misterios</dc:description>
    <cc:license rdf:resource="http://creativecommons.org/licenses/by-nd/4.0/"/>
   </cc:Work>
   <cc:License rdf:about="http://creativecommons.org/licenses/by-nd/4.0/">
    <cc:permits rdf:resource="http://creativecommons.org/ns#Reproduction"/>
    <cc:permits rdf:resource="http://creativecommons.org/ns#Distribution"/>
    <cc:requires rdf:resource="http://creativecommons.org/ns#Notice"/>
    <cc:requires rdf:resource="http://creativecommons.org/ns#Attribution"/>
   </cc:License>
  </rdf:RDF>
 </metadata>
</svg>
