<?xml version="1.0" encoding="UTF-8"?>
<!-- Created with Inkscape (http://www.inkscape.org/) -->
<svg id="svg1" width="210mm" height="130mm" inkscape:version="1.4 (86a8ad7, 2024-10-11)" sodipodi:docname="4.svg" version="1.1" viewBox="0 0 210 130" xmlns="http://www.w3.org/2000/svg" xmlns:cc="http://creativecommons.org/ns#" xmlns:dc="http://purl.org/dc/elements/1.1/" xmlns:inkscape="http://www.inkscape.org/namespaces/inkscape" xmlns:rdf="http://www.w3.org/1999/02/22-rdf-syntax-ns#" xmlns:sodipodi="http://sodipodi.sourceforge.net/DTD/sodipodi-0.dtd">
 <title id="title2">El Velo del Espejismo de la Esfinge de Giza</title>
 <sodipodi:namedview id="namedview1" bordercolor="#000000" borderopacity="0.25" inkscape:current-layer="layer1" inkscape:cx="512.28917" inkscape:cy="332.64542" inkscape:deskcolor="#d1d1d1" inkscape:document-units="mm" inkscape:pagecheckerboard="0" inkscape:pageopacity="0.0" inkscape:showpageshadow="2" inkscape:window-height="664" inkscape:window-maximized="1" inkscape:window-width="1366" inkscape:window-x="-8" inkscape:window-y="-8" inkscape:zoom="1.9705668" pagecolor="#ffffff" showgrid="false"/>
 <defs id="defs1">
  <pattern id="WMFhbasepattern" width="6" height="6" patternUnits="userSpaceOnUse"/>
 </defs>
 <g id="layer1" inkscape:groupmode="layer" inkscape:label="Capa 1">
  <g id="g22" transform="matrix(1.0587 0 0 1.0587 -4.8233 -92.517)" stroke-width=".094455">
   <g id="g21" transform="matrix(.26458 0 0 .26458 -88.127 21.137)" stroke-width=".357">
    <g id="g3" fill="none" stroke-linecap="round" stroke-linejoin="round" stroke-width=".357">
     <path id="path1" d="m513.56 644.96v-242.38h242.02v242.38z" stroke="#f0f"/>
     <g id="g1" stroke="#991b1e">
      <path id="path2" d="m513.56 402.57 1.3848 1.4255"/>
      <path id="path3" d="m518 407.05 2.0365 2.0772"/>
      <path id="path4" d="m523.13 412.18 2.0365 2.0772"/>
      <path id="path5" d="m528.26 417.36 2.0365 2.0365"/>
      <path id="path6" d="m533.4 422.49 2.0365 2.0365"/>
      <path id="path7" d="m538.53 427.62 2.0365 2.0365"/>
      <path id="path8" d="m543.66 432.75 2.0365 2.0365"/>
      <path id="path9" d="m548.79 437.89 2.0365 2.0772"/>
      <path id="path10" d="m553.92 443.02 2.0365 2.0772"/>
      <path id="path11" d="m559.06 448.15 2.0365 2.0772"/>
      <path id="path12" d="m564.19 453.32 2.0365 2.0365"/>
      <path id="path13" d="m569.32 458.45 2.0365 2.0365"/>
      <path id="path14" d="m574.45 463.59 2.0365 2.0365"/>
      <path id="path15" d="m579.58 468.72 2.0365 2.0365"/>
      <path id="path16" d="m584.72 473.85 2.0365 2.0772"/>
      <path id="path17" d="m589.81 478.98 2.0772 2.0772"/>
      <path id="path18" d="m594.94 484.11 2.0772 2.0772"/>
      <path id="path19" d="m600.07 489.29 2.0772 2.0365"/>
      <path id="path20" d="m605.2 494.42 2.0772 2.0365"/>
      <path id="path21" d="m610.34 499.55 2.0772 2.0365"/>
      <path id="path22" d="m615.47 504.68 2.0772 2.0365"/>
      <path id="path23" d="m620.6 509.81 2.0772 2.0772"/>
      <path id="path24" d="m625.73 514.95 2.0772 2.0772"/>
      <path id="path25" d="m630.86 520.08 2.0365 2.0772"/>
      <path id="path26" d="m635.99 525.25 2.0365 2.0365"/>
      <path id="path27" d="m641.13 530.38 2.0365 2.0365"/>
      <path id="path28" d="m646.26 535.51 2.0365 2.0365"/>
      <path id="path29" d="m651.39 540.65 2.0365 2.0365"/>
      <path id="path30" d="m656.52 545.78 2.0365 2.0772"/>
      <path id="path31" d="m661.65 550.91 2.0365 2.0772"/>
      <path id="path32" d="m666.79 556.04 2.0365 2.0772"/>
      <path id="path33" d="m671.92 561.22 2.0365 2.0365"/>
      <path id="path34" d="m677.05 566.35 2.0365 2.0365"/>
      <path id="path35" d="m682.18 571.48 2.0365 2.0365"/>
      <path id="path36" d="m687.31 576.61 2.0365 2.0772"/>
      <path id="path37" d="m692.45 581.74 2.0365 2.0772"/>
      <path id="path38" d="m697.58 586.87 2.0365 2.0772"/>
      <path id="path39" d="m702.67 592.01 2.0772 2.0772"/>
      <path id="path40" d="m707.8 597.18 2.0772 2.0365"/>
      <path id="path41" d="m712.93 602.31 2.0772 2.0365"/>
      <path id="path42" d="m718.07 607.44 2.0772 2.0365"/>
      <path id="path43" d="m723.2 612.58 2.0772 2.0772"/>
      <path id="path44" d="m728.33 617.71 2.0772 2.0772"/>
      <path id="path45" d="m733.46 622.84 2.0772 2.0772"/>
      <path id="path46" d="m738.59 628.01 2.0772 2.0365"/>
      <path id="path47" d="m743.73 633.14 2.0365 2.0365"/>
      <path id="path48" d="m748.86 638.28 2.0365 2.0365"/>
      <path id="path49" d="m753.99 643.41 1.5477 1.5477"/>
      <path id="path50" d="m755.58 402.57-1.4255 1.4255"/>
      <path id="path51" d="m751.1 407.05-2.0365 2.0772"/>
      <path id="path52" d="m745.97 412.18-2.0365 2.0772"/>
      <path id="path53" d="m740.83 417.36-2.0365 2.0365"/>
      <path id="path54" d="m735.7 422.49-2.0365 2.0365"/>
      <path id="path55" d="m730.57 427.62-2.0365 2.0365"/>
      <path id="path56" d="m725.44 432.75-2.0365 2.0365"/>
      <path id="path57" d="m720.31 437.89-2.0365 2.0772"/>
      <path id="path58" d="m715.17 443.02-2.0365 2.0772"/>
      <path id="path59" d="m710.04 448.15-2.0365 2.0772"/>
      <path id="path60" d="m704.91 453.32-2.0365 2.0365"/>
      <path id="path61" d="m699.78 458.45-2.0365 2.0365"/>
      <path id="path62" d="m694.65 463.59-2.0365 2.0365"/>
      <path id="path63" d="m689.51 468.72-2.0365 2.0365"/>
      <path id="path64" d="m684.38 473.85-2.0365 2.0772"/>
      <path id="path65" d="m679.29 478.98-2.0772 2.0772"/>
      <path id="path66" d="m674.16 484.11-2.0772 2.0772"/>
      <path id="path67" d="m669.03 489.29-2.0772 2.0365"/>
      <path id="path68" d="m663.89 494.42-2.0772 2.0365"/>
      <path id="path69" d="m658.76 499.55-2.0772 2.0365"/>
      <path id="path70" d="m653.63 504.68-2.0772 2.0365"/>
      <path id="path71" d="m648.5 509.81-2.0772 2.0772"/>
      <path id="path72" d="m643.37 514.95-2.0772 2.0772"/>
      <path id="path73" d="m638.24 520.08-2.0365 2.0772"/>
      <path id="path74" d="m633.1 525.25-2.0365 2.0365"/>
      <path id="path75" d="m627.97 530.38-2.0365 2.0365"/>
      <path id="path76" d="m622.84 535.51-2.0365 2.0365"/>
      <path id="path77" d="m617.71 540.65-2.0365 2.0365"/>
      <path id="path78" d="m612.58 545.78-2.0365 2.0772"/>
      <path id="path79" d="m607.44 550.91-2.0365 2.0772"/>
      <path id="path80" d="m602.31 556.04-2.0365 2.0772"/>
      <path id="path81" d="m597.18 561.22-2.0365 2.0365"/>
      <path id="path82" d="m592.05 566.35-2.0365 2.0365"/>
      <path id="path83" d="m586.92 571.48-2.0365 2.0365"/>
      <path id="path84" d="m581.78 576.61-2.0365 2.0772"/>
      <path id="path85" d="m576.65 581.74-2.0365 2.0772"/>
      <path id="path86" d="m571.52 586.87-2.0365 2.0772"/>
      <path id="path87" d="m566.43 592.01-2.0772 2.0772"/>
      <path id="path88" d="m561.3 597.18-2.0772 2.0365"/>
      <path id="path89" d="m556.16 602.31-2.0772 2.0365"/>
      <path id="path90" d="m551.03 607.44-2.0772 2.0365"/>
      <path id="path91" d="m545.9 612.58-2.0772 2.0772"/>
      <path id="path92" d="m540.77 617.71-2.0772 2.0772"/>
      <path id="path93" d="m535.64 622.84-2.0772 2.0772"/>
      <path id="path94" d="m530.5 628.01-2.0772 2.0365"/>
      <path id="path95" d="m525.37 633.14-2.0365 2.0365"/>
      <path id="path96" d="m520.24 638.28-2.0365 2.0365"/>
      <path id="path97" d="m515.11 643.41-1.5477 1.5477"/>
      <path id="path98" d="m755.58 523.78-0.0407-3.462-0.16292-3.462-0.24438-3.462-0.32584-3.4213-0.44802-3.4213-0.57022-3.4213-0.61095-3.4213-0.73313-3.3806-0.85533-3.3398-0.89605-3.3398-1.0182-3.2991-1.1404-3.2991-1.1812-3.2176-1.3034-3.2176-1.3848-3.1769-1.507-3.1362-1.5477-3.0547-1.6699-3.0547-1.7514-2.9733-1.8328-2.9325-1.9143-2.8918-1.955-2.8511-2.0772-2.7696-2.1587-2.6882-2.2401-2.6474-2.2809-2.6067-2.3623-2.4845-2.4438-2.4438-2.5252-2.403-2.566-2.2809-2.6474-2.2401-2.7289-2.1587-2.7696-2.0772-2.8104-1.9958-2.8918-1.9143-2.9325-1.8328-2.9733-1.7106-3.0547-1.6699-3.0547-1.5885-3.1362-1.4663-3.1362-1.3848-3.2176-1.3034-3.2584-1.2219-3.2584-1.0997-3.2991-1.0182-3.3398-0.93678-3.3398-0.85533-3.3806-0.73313-3.3806-0.61095-3.4213-0.57022-3.4213-0.44802-3.462-0.32584-3.4213-0.24438-3.462-0.16292-3.462-0.0407-3.462 0.0407-3.462 0.16292-3.4213 0.24438-3.462 0.32584-3.4213 0.44802-3.4213 0.57022-3.3806 0.61095-3.3806 0.73313-3.3398 0.85533-3.3398 0.93678-3.2991 1.0182-3.2584 1.0997-3.2584 1.2219-3.2176 1.3034-3.1362 1.3848-3.1362 1.4663-3.0547 1.5885-3.0547 1.6699-2.9733 1.7106-2.9325 1.8328-2.8918 1.9143-2.8104 1.9958-2.7696 2.0772-2.7289 2.1587-2.6474 2.2401-2.566 2.2809-2.5252 2.403-2.4438 2.4438-2.3623 2.4845-2.2809 2.6067-2.2401 2.6474-2.1587 2.6882-2.0772 2.7696-1.955 2.8511-1.9143 2.8918-1.8328 2.9325-1.7514 2.9733-1.6699 3.0547-1.5477 3.0547-1.507 3.1362-1.3848 3.1769-1.3034 3.2176-1.1812 3.2176-1.1404 3.2991-1.0182 3.2991-0.89606 3.3398-0.85532 3.3398-0.73314 3.3806-0.61094 3.4213-0.57022 3.4213-0.44803 3.4213-0.32584 3.4213-0.24437 3.462-0.16292 3.462-0.0407 3.462 0.0407 3.462 0.16292 3.462 0.24437 3.462 0.32584 3.4213 0.44803 3.4213 0.57022 3.4213 0.61094 3.4213 0.73314 3.3806 0.85532 3.3398 0.89606 3.3398 1.0182 3.2991 1.1404 3.2991 1.1812 3.2176 1.3034 3.2176 1.3848 3.1769 1.507 3.1362 1.5477 3.0547 1.6699 3.0547 1.7514 2.9733 1.8328 2.9326 1.9143 2.8918 1.955 2.8511 2.0772 2.7696 2.1587 2.6882 2.2401 2.6474 2.2809 2.6067 2.3623 2.4845 2.4438 2.4438 2.5252 2.403 2.566 2.2809 2.6474 2.2401 2.7289 2.1587 2.7696 2.0772 2.8104 1.9958 2.8918 1.9143 2.9325 1.8328 2.9733 1.7106 3.0547 1.6699 3.0547 1.5885 3.1362 1.4663 3.1362 1.3848 3.2176 1.3034 3.2584 1.2219 3.2584 1.0997 3.2991 1.0182 3.3398 0.93679 3.3398 0.85532 3.3806 0.73314 3.3806 0.61094 3.4213 0.57022 3.4213 0.44803 3.462 0.32583 3.4213 0.24438 3.462 0.16292 3.462 0.0407 3.462-0.0407 3.462-0.16292 3.4213-0.24438 3.462-0.32583 3.4213-0.44803 3.4213-0.57022 3.3806-0.61094 3.3806-0.73314 3.3398-0.85532 3.3398-0.93679 3.2991-1.0182 3.2584-1.0997 3.2584-1.2219 3.2176-1.3034 3.1362-1.3848 3.1362-1.4663 3.0547-1.5885 3.0547-1.6699 2.9733-1.7106 2.9325-1.8328 2.8918-1.9143 2.8104-1.9958 2.7696-2.0772 2.7289-2.1587 2.6474-2.2401 2.566-2.2809 2.5252-2.403 2.4438-2.4438 2.3623-2.4845 2.2809-2.6067 2.2401-2.6474 2.1587-2.6882 2.0772-2.7696 1.955-2.8511 1.9143-2.8918 1.8328-2.9326 1.7514-2.9733 1.6699-3.0547 1.5477-3.0547 1.507-3.1362 1.3848-3.1769 1.3034-3.2176 1.1812-3.2176 1.1404-3.2991 1.0182-3.2991 0.89605-3.3398 0.85533-3.3398 0.73313-3.3806 0.61095-3.4213 0.57022-3.4213 0.44802-3.4213 0.32584-3.4213 0.24438-3.462 0.16292-3.462z"/>
     </g>
     <path id="path99" d="m634.57 402.57-100.24 242.38" stroke="#0ff"/>
     <path id="path100" d="m634.57 402.57 100.28 242.38" stroke="#0ff"/>
     <g id="g2" stroke="#212830">
      <path id="path101" d="m534.33 660.11v27.126"/>
      <path id="path102" d="m734.85 660.11v27.126"/>
      <path id="path103" d="m519.83 675.14h-14.541"/>
      <path id="path104" d="m749.35 675.14h14.541"/>
     </g>
    </g>
    <g id="g4">
     <path id="path105" d="m519.83 672.69v4.8468l14.5-2.403z" fill="#212830" fill-rule="evenodd"/>
     <path id="path106" d="m749.35 672.69v4.8468l-14.5-2.403z" fill="#212830" fill-rule="evenodd"/>
     <text id="text107" transform="translate(579.3 682.55)" fill="#000000" font-family="Arial" font-size="21px" font-weight="400" letter-spacing="0px" stroke-width=".357" word-spacing="0px" style="line-height:125%" xml:space="preserve"><tspan id="tspan107" x="0" y="0" sodipodi:role="line"><tspan id="tspan106" dx="0" dy="0" fill="#212830" font-family="Arial" font-size="21px" font-weight="400" stroke-width=".357">0.82842712</tspan></tspan></text>
    </g>
    <g id="g5" fill="none" stroke="#212830" stroke-linecap="round" stroke-linejoin="round" stroke-width=".357">
     <path id="path107" d="m520.36 639.17-153.35-63.62"/>
     <path id="path108" d="m620.6 396.79-153.35-63.62"/>
     <path id="path109" d="m383.76 566.75 32.38-78.283"/>
     <path id="path110" d="m472.87 351.25-32.339 78.242"/>
    </g>
    <path id="path111" d="m381.52 565.82 4.4803 1.8736-7.8201 12.504z" fill="#212830" fill-rule="evenodd"/>
    <path id="path112" d="m470.63 350.32 4.4803 1.8328 3.3398-14.337z" fill="#212830" fill-rule="evenodd"/>
    <g id="g6" font-weight="400" letter-spacing="0px" stroke-width=".357" word-spacing="0px">
     <text id="text113" transform="translate(372.27 466.4)" font-family="Arial" font-size="21px" style="line-height:125%" xml:space="preserve"><tspan id="tspan113" x="0" y="0" sodipodi:role="line"><tspan id="tspan112" dx="0" dy="0" fill="#212830" font-family="Arial" font-size="21px" font-weight="400" stroke-width=".357">1.08239220</tspan></tspan></text>
     <text id="text115" transform="translate(906.89 426.85)" font-family="Garamond" font-size="33.25px" style="line-height:125%" xml:space="preserve"><tspan id="tspan115" x="0" y="0" sodipodi:role="line"><tspan id="tspan114" dx="0" dy="0" fill="#00ffff" font-family="Garamond" font-size="33.25px" font-weight="400" stroke-width=".357">A</tspan></tspan></text>
     <text id="text117" transform="translate(929.37 426.85)" font-family="Garamond" font-size="33.25px" style="line-height:125%" xml:space="preserve"><tspan id="tspan117" x="0" y="0" sodipodi:role="line"><tspan id="tspan116" dx="0" dy="0" fill="#212830" font-family="Garamond" font-size="33.25px" font-weight="400" stroke-width=".357">=</tspan></tspan></text>
     <text id="text119" transform="translate(951.49,426.85)" font-family="Arial" font-size="33.062px" style="line-height:125%" xml:space="preserve"><tspan id="tspan119" x="0" y="0" sodipodi:role="line"><tspan id="tspan118" fill="#212830" font-family="Arial" font-size="33.062px" font-weight="400" stroke-width=".357">√2</tspan></tspan></text>
     <text id="text121" transform="translate(906.24 463.83)" font-family="Garamond" font-size="33.25px" style="line-height:125%" xml:space="preserve"><tspan id="tspan121" x="0" y="0" sodipodi:role="line"><tspan id="tspan120" dx="0" dy="0" fill="#00ffff" font-family="Garamond" font-size="33.25px" font-weight="400" stroke-width=".357">P</tspan></tspan></text>
     <text id="text123" transform="translate(924.93 463.83)" font-family="Garamond" font-size="33.25px" style="line-height:125%" xml:space="preserve"><tspan id="tspan123" x="0" y="0" sodipodi:role="line"><tspan id="tspan122" dx="0" dy="0" fill="#212830" font-family="Garamond" font-size="33.25px" font-weight="400" stroke-width=".357">=2.99321153</tspan></tspan></text>
    </g>
    <path id="path123" d="m685.32 522.03-1.1812 0.4073 1.0182-0.73314z" fill="#212830" fill-rule="evenodd"/>
    <g id="g7" stroke-width=".357">
     <path id="path124" d="m685.24 521.87 218.76-113.96h1.9143" fill="none" stroke="#212830" stroke-linecap="round" stroke-linejoin="round"/>
     <text id="text125" transform="translate(801.03 351.33)" fill="#000000" font-family="Arial" font-size="16.938px" font-weight="400" letter-spacing="0px" word-spacing="0px" style="line-height:125%" xml:space="preserve"><tspan id="tspan125" x="0" y="0" sodipodi:role="line"><tspan id="tspan124" dx="0" dy="0" fill="#991b1e" font-family="Arial" font-size="16.938px" font-weight="400" stroke-width=".357">R0.5000</tspan></tspan></text>
     <path id="path125" d="m782.99 345.35h-7.2499l-61.502 77.753" fill="none" stroke="#991b1e" stroke-linecap="round" stroke-linejoin="round"/>
    </g>
    <path id="path126" d="m713.3 422.33 1.9143 1.507-5.4578 4.9283z" fill="#991b1e" fill-rule="evenodd"/>
    <g id="g8" fill="none" stroke="#212830" stroke-linecap="round" stroke-linejoin="round" stroke-width=".357">
     <path id="path127" d="m513.56 397.73v-121.42"/>
     <path id="path128" d="m755.58 397.73v-121.42"/>
     <path id="path129" d="m520.85 281.16h69.852"/>
     <path id="path130" d="m748.33 281.16h-69.852"/>
    </g>
    <g id="g9">
     <path id="path131" d="m520.85 279.98v2.4031l-7.2906-1.2219z" fill="#212830" fill-rule="evenodd"/>
     <path id="path132" d="m748.33 279.98v2.4031l7.2499-1.2219z" fill="#212830" fill-rule="evenodd"/>
     <text id="text133" transform="translate(608.18 287.14)" fill="#000000" font-family="Arial" font-size="16.938px" font-weight="400" letter-spacing="0px" stroke-width=".357" word-spacing="0px" style="line-height:125%" xml:space="preserve"><tspan id="tspan133" x="0" y="0" sodipodi:role="line"><tspan id="tspan132" dx="0" dy="0" fill="#212830" font-family="Arial" font-size="16.938px" font-weight="400" stroke-width=".357">1.0000</tspan></tspan></text>
    </g>
    <path id="path133" d="m598.61 451.9 1.4663 1.059 1.5477 1.0182 1.507 0.93678 1.5885 0.93678" fill="none" stroke="#212830" stroke-linecap="round" stroke-linejoin="round" stroke-width=".357"/>
    <path id="path134" d="m664.42 455.85 1.5885-0.93678 1.507-0.93678 1.5477-1.0182 1.4663-1.059" fill="none" stroke="#212830" stroke-linecap="round" stroke-linejoin="round" stroke-width=".357"/>
    <g id="g10">
     <path id="path135" d="m605.24 454.75-1.059 2.1994 7.0462 2.0772z" fill="#212830" fill-rule="evenodd"/>
     <path id="path136" d="m664.99 456.95-1.059-2.1994-5.9873 4.2766z" fill="#212830" fill-rule="evenodd"/>
     <text id="text137" transform="translate(620.11 467.25)" fill="#000000" font-family="Arial" font-size="10.125px" font-weight="400" letter-spacing="0px" stroke-width=".357" word-spacing="0px" style="line-height:125%" xml:space="preserve"><tspan id="tspan137" x="0" y="0" sodipodi:role="line"><tspan id="tspan136" dx="0" dy="0" fill="#212830" font-family="Arial" font-size="10.125px" font-weight="400" stroke-width=".357">45.00°</tspan></tspan></text>
    </g>
    <g id="g11" fill="none" stroke="#212830" stroke-linecap="round" stroke-linejoin="round" stroke-width=".357">
     <path id="path137" d="m613.15 555.51-1.1812-1.3848-1.2219-1.3441-2.5252-2.6068"/>
     <path id="path138" d="m613.15 555.51h7.2499"/>
     <path id="path139" d="m602.88 545.25-1.7921-1.4663-1.7921-1.3848-1.8736-1.3441-1.8736-1.3034-1.955-1.2626-1.955-1.1812-1.955-1.1404-2.0365-1.0997"/>
    </g>
    <g id="g12">
     <path id="path140" d="m603.7 544.35-1.6292 1.7921 6.1502 4.0322z" fill="#212830" fill-rule="evenodd"/>
     <path id="path141" d="m587.12 536.17 1.0182-2.1994-7.087-1.955z" fill="#212830" fill-rule="evenodd"/>
     <text id="text142" transform="translate(622.47 559.14)" fill="#000000" font-family="Arial" font-size="10.125px" font-weight="400" letter-spacing="0px" stroke-width=".357" word-spacing="0px" style="line-height:125%" xml:space="preserve"><tspan id="tspan142" x="0" y="0" sodipodi:role="line"><tspan id="tspan141" dx="0" dy="0" fill="#212830" font-family="Arial" font-size="10.125px" font-weight="400" stroke-width=".357">22.50°</tspan></tspan></text>
    </g>
    <path id="path142" d="m563.21 556.12-4.2359-1.4663" fill="none" stroke="#212830" stroke-linecap="round" stroke-linejoin="round" stroke-width=".357"/>
    <path id="path143" d="m525.66 547.98-2.403-0.16292-2.4438-0.16292" fill="none" stroke="#212830" stroke-linecap="round" stroke-linejoin="round" stroke-width=".357"/>
    <g id="g13">
     <path id="path144" d="m563.66 554.98-0.85533 2.2809 7.2092 1.4663z" fill="#212830" fill-rule="evenodd"/>
     <path id="path145" d="m520.81 548.87 0.0407-2.403-7.2906 1.0182z" fill="#212830" fill-rule="evenodd"/>
     <text id="text146" transform="translate(527.78 553.92)" fill="#000000" font-family="Arial" font-size="10.125px" font-weight="400" letter-spacing="0px" stroke-width=".357" word-spacing="0px" style="line-height:125%" xml:space="preserve"><tspan id="tspan146" x="0" y="0" sodipodi:role="line"><tspan id="tspan145" dx="0" dy="0" fill="#212830" font-family="Arial" font-size="10.125px" font-weight="400" stroke-width=".357">22.50°</tspan></tspan></text>
    </g>
    <path id="path146" d="m544.35 639.62 1.6292 0.20364 1.6292 0.12219 1.6292 0.0407 1.6699-0.0407 1.6292-0.16292 1.6292-0.24437 1.6292-0.32584 1.5885-0.4073 1.5477-0.48876 1.5477-0.57021 1.507-0.65168 1.4663-0.73313 1.4255-0.8146 1.3848-0.89605 1.3441-0.97752 1.2626-1.0182 1.2219-1.0997 1.1404-1.1812 1.0997-1.2219 1.059-1.3034 0.93678-1.3441 0.89605-1.3848 0.77387-1.4255 0.73314-1.4663 0.65167-1.507 0.57022-1.5477" fill="none" stroke="#212830" stroke-linecap="round" stroke-linejoin="round" stroke-width=".357"/>
    <path id="path147" d="m579.42 606.91-0.12219-1.4255-0.48876-2.7696-0.36657-1.3848-0.40729-1.3441-0.44803-1.3441-0.52949-1.3441-0.61094-1.2626-0.65168-1.2626-0.6924-1.2219" fill="none" stroke="#212830" stroke-linecap="round" stroke-linejoin="round" stroke-width=".357"/>
    <g id="g14">
     <path id="path148" d="m543.99 640.84 0.65168-2.3216-7.2906-0.81459z" fill="#212830" fill-rule="evenodd"/>
     <path id="path149" d="m574.17 594.29 1.8736-1.507-5.4171-4.969z" fill="#212830" fill-rule="evenodd"/>
     <text id="text150" transform="translate(561.58 616.65)" fill="#000000" font-family="Arial" font-size="10.125px" font-weight="400" letter-spacing="0px" stroke-width=".357" word-spacing="0px" style="line-height:125%" xml:space="preserve"><tspan id="tspan150" x="0" y="0" sodipodi:role="line"><tspan id="tspan149" dx="0" dy="0" fill="#212830" font-family="Arial" font-size="10.125px" font-weight="400" stroke-width=".357">157.50°</tspan></tspan></text>
    </g>
    <path id="path150" d="m579.01 478.29-0.44803 0.97751-0.40729 0.97752-0.36657 1.0182-0.28511 1.0182-0.28511 1.059-0.20365 1.059-0.16292 1.059-0.0815 1.059" fill="none" stroke="#212830" stroke-linecap="round" stroke-linejoin="round" stroke-width=".357"/>
    <path id="path151" d="m579.3 498.78 0.6924 1.2219 0.73314 1.1404 0.81459 1.0997 0.89606 1.059 0.93678 0.97752 1.0182 0.93678" fill="none" stroke="#212830" stroke-linecap="round" stroke-linejoin="round" stroke-width=".357"/>
    <g id="g15">
     <path id="path152" d="m578.04 477.56 1.955 1.4255 3.2584-6.5982z" fill="#212830" fill-rule="evenodd"/>
     <path id="path153" d="m585 504.19-1.2626 2.0365 6.8019 2.8104z" fill="#212830" fill-rule="evenodd"/>
     <text id="text154" transform="translate(559.34 496.25)" fill="#000000" font-family="Arial" font-size="10.125px" font-weight="400" letter-spacing="0px" stroke-width=".357" word-spacing="0px" style="line-height:125%" xml:space="preserve"><tspan id="tspan154" x="0" y="0" sodipodi:role="line"><tspan id="tspan153" dx="0" dy="0" fill="#212830" font-family="Arial" font-size="10.125px" font-weight="400" stroke-width=".357">112.50°</tspan></tspan></text>
    </g>
    <path id="path154" d="m710.53 467.94-0.85533-1.6292-0.89605-1.5477-0.97752-1.5477-1.0182-1.507" fill="none" stroke="#212830" stroke-linecap="round" stroke-linejoin="round" stroke-width=".357"/>
    <path id="path155" d="m646.26 449.66-1.5477 0.97752-1.4663 1.059-1.4255 1.0997-1.4255 1.1812" fill="none" stroke="#212830" stroke-linecap="round" stroke-linejoin="round" stroke-width=".357"/>
    <g id="g16">
     <path id="path156" d="m705.85 462.49 1.8736-1.5477-5.6614-4.7654z" fill="#212830" fill-rule="evenodd"/>
     <path id="path157" d="m645.65 448.56 1.1404 2.1587 5.9058-4.3988z" fill="#212830" fill-rule="evenodd"/>
     <text id="text158" transform="translate(664.26 447.33)" fill="#000000" font-family="Arial" font-size="10.125px" font-weight="400" letter-spacing="0px" stroke-width=".357" word-spacing="0px" style="line-height:125%" xml:space="preserve"><tspan id="tspan158" x="0" y="0" sodipodi:role="line"><tspan id="tspan157" dx="0" dy="0" fill="#212830" font-family="Arial" font-size="10.125px" font-weight="400" stroke-width=".357">67.50°</tspan></tspan></text>
    </g>
    <g id="g17" fill="none" stroke="#212830" stroke-linecap="round" stroke-linejoin="round" stroke-width=".357">
     <path id="path158" d="m735.29 438.09h91.031"/>
     <path id="path159" d="m735.29 609.44h91.031"/>
     <path id="path160" d="m814.23 452.63v38.245"/>
     <path id="path161" d="m814.23 594.9v-38.245"/>
    </g>
    <path id="path162" d="m811.78 452.63h4.8468l-2.403-14.541z" fill="#212830" fill-rule="evenodd"/>
    <path id="path163" d="m811.78 594.9h4.8468l-2.403 14.541z" fill="#212830" fill-rule="evenodd"/>
    <g id="g19" stroke-width=".357">
     <g id="g18" font-weight="400" letter-spacing="0px" word-spacing="0px">
      <text id="text164" transform="translate(721.08,531.03)" font-family="Arial" font-size="21px" style="line-height:125%" xml:space="preserve"><tspan id="tspan164" x="0" y="0" sodipodi:role="line"><tspan id="tspan163" dx="0" dy="0" fill="#212830" font-family="Arial" font-size="21px" font-weight="400" stroke-width=".357">0.70710678 = </tspan></tspan></text>
      <text id="text166" transform="translate(855,533.44)" font-family="'Arial Unicode MS'" font-size="27.625px" style="line-height:125%" xml:space="preserve"><tspan id="tspan166" x="0" y="0" sodipodi:role="line">√<tspan id="tspan165" fill="#212830" font-family="'Arial Unicode MS'" font-size="27.625px" font-weight="400" stroke-width=".357"/></tspan></text>
      <text id="text168" transform="translate(871.54 533.44)" font-size="27.625px" style="line-height:125%" xml:space="preserve"><tspan id="tspan168" x="0" y="0" sodipodi:role="line"><tspan id="tspan167" dx="0" dy="0" fill="#212830" font-size="27.625px" font-weight="400" stroke-width=".357">2-1</tspan></tspan></text>
     </g>
     <path id="path168" d="m707.19 596.98-1.9143 1.1404-1.8328 1.2219-1.7514 1.3034-1.7514 1.3441-1.6699 1.4256-1.6292 1.4663-1.5477 1.5477-1.507 1.6292" fill="none" stroke="#212830" stroke-linecap="round" stroke-linejoin="round"/>
     <path id="path169" d="m685.32 620.31-0.77387 1.6292-0.73314 1.7106-0.6924 1.6699-0.61095 1.7106-0.57021 1.7514-0.48876 1.7514-0.44803 1.7921-0.40729 1.7514-0.32584 1.8328-0.24438 1.7921" fill="none" stroke="#212830" stroke-linecap="round" stroke-linejoin="round"/>
    </g>
    <g id="g20">
     <path id="path170" d="m706.62 595.88 1.059 2.1994 5.9873-4.3174z" fill="#212830" fill-rule="evenodd"/>
     <path id="path171" d="m681.16 637.79-2.403-0.16292 0.73313 7.3314z" fill="#212830" fill-rule="evenodd"/>
     <text id="text172" transform="translate(674.24 617.75)" fill="#000000" font-family="Arial" font-size="10.125px" font-weight="400" letter-spacing="0px" stroke-width=".357" word-spacing="0px" style="line-height:125%" xml:space="preserve"><tspan id="tspan172" x="0" y="0" sodipodi:role="line"><tspan id="tspan171" dx="0" dy="0" fill="#212830" font-family="Arial" font-size="10.125px" font-weight="400" stroke-width=".357">67.50°</tspan></tspan></text>
    </g>
   </g>
  </g>
 </g>
 <metadata id="metadata2">
  <rdf:RDF>
   <cc:Work rdf:about="">
    <dc:title>El Velo del Espejismo de la Esfinge de Giza</dc:title>
    <dc:date>12-01-2025</dc:date>
    <dc:creator>
     <cc:Agent>
      <dc:title>Arq. Miguel Hernando Ibáñez Sánchez</dc:title>
     </cc:Agent>
    </dc:creator>
    <dc:rights>
     <cc:Agent>
      <dc:title>El Velo del Espejismo de la Esfinge de Giza II © 2025 by ISAN atelier is licensed under Creative Commons Attribution-NoDerivatives 4.0 International</dc:title>
     </cc:Agent>
    </dc:rights>
    <dc:publisher>
     <cc:Agent>
      <dc:title>ISAN atelier</dc:title>
     </cc:Agent>
    </dc:publisher>
    <dc:identifier>Miguel Hernando, I. S. (2025). El Velo del Espejismo de la Esfinge de Giza II. https://doi.org/10.5281/zenodo.14635023</dc:identifier>
    <dc:source>Sáchica, Boyacá - Colombia</dc:source>
    <dc:relation>Lo Oculto del Sendero de la Serpiente</dc:relation>
    <dc:language>Español</dc:language>
    <dc:subject>
     <rdf:Bag>
      <rdf:li>Arquitectura sagrada</rdf:li>
      <rdf:li>geometria sgrada</rdf:li>
      <rdf:li>sacred architecture</rdf:li>
      <rdf:li>sacred geometry</rdf:li>
     </rdf:Bag>
    </dc:subject>
    <dc:coverage>Global</dc:coverage>
    <dc:description>LAs condiciones naturales que motivaron a la construcción de la Gran Pirámide de Giza</dc:description>
    <cc:license rdf:resource="http://creativecommons.org/licenses/by-nd/4.0/"/>
   </cc:Work>
   <cc:License rdf:about="http://creativecommons.org/licenses/by-nd/4.0/">
    <cc:permits rdf:resource="http://creativecommons.org/ns#Reproduction"/>
    <cc:permits rdf:resource="http://creativecommons.org/ns#Distribution"/>
    <cc:requires rdf:resource="http://creativecommons.org/ns#Notice"/>
    <cc:requires rdf:resource="http://creativecommons.org/ns#Attribution"/>
   </cc:License>
  </rdf:RDF>
 </metadata>
</svg>
