<?xml version="1.0" encoding="UTF-8"?>
<!-- Created with Inkscape (http://www.inkscape.org/) -->
<svg id="svg1" width="210mm" height="140mm" inkscape:version="1.4 (86a8ad7, 2024-10-11)" sodipodi:docname="4.svg" version="1.1" viewBox="0 0 210 140" xmlns="http://www.w3.org/2000/svg" xmlns:cc="http://creativecommons.org/ns#" xmlns:dc="http://purl.org/dc/elements/1.1/" xmlns:inkscape="http://www.inkscape.org/namespaces/inkscape" xmlns:rdf="http://www.w3.org/1999/02/22-rdf-syntax-ns#" xmlns:sodipodi="http://sodipodi.sourceforge.net/DTD/sodipodi-0.dtd">
 <title id="title2">Coordenada 12.6 N, 12.6 E</title>
 <sodipodi:namedview id="namedview1" bordercolor="#000000" borderopacity="0.25" inkscape:current-layer="layer1" inkscape:cx="396.84014" inkscape:cy="561.25984" inkscape:deskcolor="#d1d1d1" inkscape:document-units="mm" inkscape:pagecheckerboard="0" inkscape:pageopacity="0.0" inkscape:showpageshadow="2" inkscape:window-height="745" inkscape:window-maximized="1" inkscape:window-width="1311" inkscape:window-x="-8" inkscape:window-y="-8" inkscape:zoom="0.49264169" pagecolor="#ffffff"/>
 <defs id="defs1">
  <pattern id="WMFhbasepattern" width="6" height="6" patternUnits="userSpaceOnUse"/>
 </defs>
 <g id="layer1" inkscape:groupmode="layer" inkscape:label="Capa 1">
  <g id="g2" transform="matrix(1.2938 0 0 1.2938 208.15 -41.147)" stroke-width=".15459">
   <g id="g1" transform="matrix(.26458 0 0 .26458 -187.34 -38.258)" stroke-width=".58426">
    <text id="text2" transform="translate(110.02 412.72)" fill="#000000" font-family="Arial" font-size="40.312px" font-weight="400" letter-spacing="0px" stroke-width=".58426" word-spacing="0px" style="line-height:125%" xml:space="preserve"><tspan id="tspan2" x="0" y="0" sodipodi:role="line"><tspan id="tspan1" dx="0" dy="0" fill="#212830" font-family="Arial" font-size="40.312px" font-weight="400" stroke-width=".58426">AMBROSÍA</tspan></tspan></text>
    <g fill="none" stroke-linecap="round" stroke-linejoin="round" stroke-width=".58426">
     <path id="path2" d="m635.45 492.82-0.0399-3.8352-0.1598-3.8352-0.2397-3.7953-0.3196-3.8352-0.43945-3.7953-0.5593-3.7953-0.59925-3.7952-0.7191-3.7553-0.83895-3.7154-0.91885-3.7154-0.99876-3.7154-1.0786-3.6754-1.1985-3.6355-1.2784-3.5955-1.3982-3.5955-1.4382-3.5156-1.558-3.5156-1.638-3.4357-1.7578-3.4357-1.7978-3.3558-1.9176-3.3558-1.9576-3.2759-2.0774-3.196-2.1573-3.196-2.1972-3.1161-2.3171-3.0362-2.357-2.9963-2.4769-2.9563-2.5169-2.8764-2.5968-2.7965-2.6767-2.7566-2.7566-2.6766-2.7965-2.5968-2.8764-2.5168-2.9164-2.4769-2.9963-2.3571-3.0762-2.3171-3.1161-2.2372-3.156-2.1573-3.236-2.0374-3.236-1.9975-3.3558-1.9176-3.3558-1.7978-3.3958-1.7178-3.4756-1.638-3.4757-1.5581-3.5556-1.4782-3.5556-1.3583-3.5955-1.3184-3.6354-1.1586-3.6754-1.1186-3.7154-0.99875-3.7154-0.91885-3.7154-0.83895-3.7553-0.7191-3.7953-0.59925-3.7553-0.5593-3.8352-0.43945-3.7953-0.31961-3.8352-0.2397-3.7953-0.1598-3.8352-0.0399-3.8352 0.0399-3.7952 0.1598-3.8352 0.2397-3.7953 0.31961-3.8352 0.43945-3.7553 0.5593-3.7952 0.59925-3.7553 0.7191-3.7154 0.83895-3.7154 0.91885-3.7154 0.99875-3.6754 1.1186-3.6355 1.1586-3.5955 1.3184-3.5556 1.3583-3.5556 1.4782-3.4756 1.5581-3.4757 1.638-3.3958 1.7178-3.3558 1.7978-3.3558 1.9176-3.236 1.9975-3.236 2.0374-3.1561 2.1573-3.1161 2.2372-3.0762 2.3171-2.9962 2.3571-2.9164 2.4769-2.8764 2.5168-2.7965 2.5968-2.7566 2.6766-2.6766 2.7566-2.5968 2.7965-2.5168 2.8764-2.4769 2.9563-2.357 2.9963-2.3171 3.0362-2.1973 3.1161-2.1573 3.196-2.0774 3.196-1.9576 3.2759-1.9176 3.3558-1.7978 3.3558-1.7578 3.4357-1.638 3.4357-1.558 3.5156-1.4382 3.5156-1.3982 3.5955-1.2784 3.5955-1.1985 3.6355-1.0786 3.6754-0.99875 3.7154-0.91885 3.7154-0.83895 3.7154-0.71911 3.7553-0.59925 3.7952-0.5593 3.7953-0.43945 3.7953-0.3196 3.8352-0.2397 3.7953-0.1598 3.8352-0.0399 3.8352 0.0399 3.8352 0.1598 3.8352 0.2397 3.7953 0.3196 3.8352 0.43945 3.7953 0.5593 3.7953 0.59925 3.7952 0.71911 3.7553 0.83895 3.7154 0.91885 3.7154 0.99875 3.7154 1.0786 3.6754 1.1985 3.6355 1.2784 3.5955 1.3982 3.5955 1.4382 3.5156 1.558 3.5156 1.638 3.4357 1.7578 3.4357 1.7978 3.3558 1.9176 3.3558 1.9576 3.2759 2.0774 3.196 2.1573 3.196 2.1973 3.1161 2.3171 3.0362 2.357 2.9963 2.4769 2.9563 2.5168 2.8764 2.5968 2.7965 2.6766 2.7566 2.7566 2.6766 2.7965 2.5968 2.8764 2.5168 2.9164 2.4769 2.9962 2.3571 3.0762 2.3171 3.1161 2.2372 3.1561 2.1573 3.236 2.0374 3.236 1.9975 3.3558 1.9176 3.3558 1.7978 3.3958 1.7178 3.4757 1.638 3.4756 1.5581 3.5556 1.4782 3.5556 1.3583 3.5955 1.3184 3.6355 1.1586 3.6754 1.1186 3.7154 0.99875 3.7154 0.91885 3.7154 0.83895 3.7553 0.7191 3.7952 0.59925 3.7553 0.5593 3.8352 0.43946 3.7953 0.3196 3.8352 0.2397 3.7952 0.1598 3.8352 0.0399 3.8352-0.0399 3.7953-0.1598 3.8352-0.2397 3.7953-0.3196 3.8352-0.43946 3.7553-0.5593 3.7953-0.59925 3.7553-0.7191 3.7154-0.83895 3.7154-0.91885 3.7154-0.99875 3.6754-1.1186 3.6354-1.1586 3.5955-1.3184 3.5556-1.3583 3.5556-1.4782 3.4757-1.5581 3.4756-1.638 3.3958-1.7178 3.3558-1.7978 3.3558-1.9176 3.236-1.9975 3.236-2.0374 3.156-2.1573 3.1161-2.2372 3.0762-2.3171 2.9963-2.3571 2.9164-2.4769 2.8764-2.5168 2.7965-2.5968 2.7566-2.6766 2.6767-2.7566 2.5968-2.7965 2.5169-2.8764 2.4769-2.9563 2.357-2.9963 2.3171-3.0362 2.1972-3.1161 2.1573-3.196 2.0774-3.196 1.9576-3.2759 1.9176-3.3558 1.7978-3.3558 1.7578-3.4357 1.638-3.4357 1.558-3.5156 1.4382-3.5156 1.3982-3.5955 1.2784-3.5955 1.1985-3.6355 1.0786-3.6754 0.99876-3.7154 0.91885-3.7154 0.83895-3.7154 0.7191-3.7553 0.59925-3.7952 0.5593-3.7953 0.43945-3.7953 0.3196-3.8352 0.2397-3.7953 0.1598-3.8352z" stroke="#212830"/>
     <g stroke="#0f0">
      <path id="path3" d="m484.43 341.61-151.05 151.21 151.05 151.21 151.05-151.21z"/>
      <path id="path4" d="m484.43 341.61v302.42"/>
      <path id="path5" d="m333.38 492.82h302.1"/>
     </g>
    </g>
    <text id="text6" transform="translate(299.43 353.92)" fill="#000000" font-family="Garamond" font-size="25.625px" font-weight="400" letter-spacing="0px" stroke-width=".58426" word-spacing="0px" style="line-height:125%" xml:space="preserve"><tspan id="tspan6" x="0" y="0" sodipodi:role="line"><tspan id="tspan5" dx="0" dy="0" fill="#212830" font-family="Garamond" font-size="25.625px" font-weight="400" stroke-width=".58426">R3.6</tspan></tspan></text>
    <path id="path6" d="m347.77 345.69h12.584l18.537 21.973" fill="none" stroke="#212830" stroke-linecap="round" stroke-linejoin="round" stroke-width=".58426"/>
    <path id="path7" d="m380.48 366.3-3.196 2.7166 9.7079 8.2697z" fill="#212830" fill-rule="evenodd"/>
    <g fill="none" stroke-linecap="round" stroke-linejoin="round" stroke-width=".58426">
     <g stroke="#0f0">
      <path id="path8" d="m484.43 492.82v-151.21"/>
      <path id="path9" d="m559.94 417.24-0.0399-2.7166-0.1598-2.6767-0.2397-2.6766-0.3196-2.6766-0.43945-2.6767-0.51935-2.6367-0.6392-2.6367-0.7191-2.5968-0.799-2.5568-0.8789-2.5568-0.99875-2.5168-1.0787-2.4769-1.1586-2.437-1.2384-2.397-1.3583-2.3171-1.3982-2.3171-1.5181-2.2372-1.558-2.1972-1.638-2.1174-1.7578-2.0774-1.7978-1.9975-1.8776-1.9576-1.9176-1.8776-1.9975-1.7978-2.0774-1.7178-2.1174-1.6779-2.1973-1.5581-2.2372-1.5181-2.3171-1.3982-2.3171-1.3583-2.397-1.2384-2.437-1.1586-2.4769-1.0786-2.5168-0.99875-2.5169-0.8789-2.5968-0.799-2.5968-0.7191-2.5968-0.6392-2.6367-0.51935-2.6767-0.43945-2.6766-0.31961-2.6766-0.2397-2.7166-0.1598-2.6766-0.0399-2.6767 0.0399-2.7166 0.1598-2.6767 0.2397-2.6766 0.31961-2.6766 0.43945-2.6367 0.51935-2.5968 0.6392-2.5968 0.7191-2.5968 0.799-2.5168 0.8789-2.5169 0.99875-2.4769 1.0786-2.437 1.1586-2.397 1.2384-2.3171 1.3583-2.3171 1.3982-2.2372 1.5181-2.1972 1.5581-2.1174 1.6779-2.0774 1.7178-1.9975 1.7978-1.9176 1.8776-1.8776 1.9576-1.7978 1.9975-1.7578 2.0774-1.638 2.1174-1.558 2.1972-1.5181 2.2372-1.3982 2.3171-1.3583 2.3171-1.2384 2.397-1.1586 2.437-1.0786 2.4769-0.99875 2.5168-0.8789 2.5568-0.79901 2.5568-0.7191 2.5968-0.6392 2.6367-0.51935 2.6367-0.43945 2.6767-0.3196 2.6766-0.2397 2.6766-0.1598 2.6767-0.04 2.7166 0.04 2.7166 0.1598 2.6766 0.2397 2.6766 0.3196 2.6767 0.43945 2.6766 0.51935 2.6367 0.6392 2.6367 0.7191 2.5968 0.79901 2.5568 0.8789 2.5568 0.99875 2.5169 1.0786 2.4769 1.1586 2.437 1.2384 2.397 1.3583 2.3171 1.3982 2.3171 1.5181 2.2372 1.558 2.1972 1.638 2.1174 1.7578 2.0774 1.7978 1.9975 1.8776 1.9576 1.9176 1.8776 1.9975 1.7978 2.0774 1.7178 2.1174 1.6779 2.1972 1.558 2.2372 1.5181 2.3171 1.3982 2.3171 1.3583 2.397 1.2384 2.437 1.1586 2.4769 1.0786 2.5169 0.99875 2.5168 0.8789 2.5968 0.79901 2.5968 0.7191 2.5968 0.6392 2.6367 0.51935 2.6766 0.43945 2.6766 0.3196 2.6767 0.2397 2.7166 0.1598 2.6767 0.0399 2.6766-0.0399 2.7166-0.1598 2.6766-0.2397 2.6766-0.3196 2.6767-0.43945 2.6367-0.51935 2.5968-0.6392 2.5968-0.7191 2.5968-0.79901 2.5169-0.8789 2.5168-0.99875 2.4769-1.0786 2.437-1.1586 2.397-1.2384 2.3171-1.3583 2.3171-1.3982 2.2372-1.5181 2.1973-1.558 2.1174-1.6779 2.0774-1.7178 1.9975-1.7978 1.9176-1.8776 1.8776-1.9576 1.7978-1.9975 1.7578-2.0774 1.638-2.1174 1.558-2.1972 1.5181-2.2372 1.3982-2.3171 1.3583-2.3171 1.2384-2.397 1.1586-2.437 1.0787-2.4769 0.99875-2.5169 0.8789-2.5568 0.799-2.5568 0.7191-2.5968 0.6392-2.6367 0.51935-2.6367 0.43945-2.6766 0.3196-2.6767 0.2397-2.6766 0.1598-2.6766z"/>
      <path id="path10" d="m408.93 341.61v151.21h151.01v-151.21z"/>
     </g>
     <path id="path11" d="m408.93 492.82 75.506-151.21 75.506 151.21" stroke="#f00"/>
     <path id="path12" d="m457.31 485.71-0.3196-1.9975-0.43945-1.9975-0.4794-1.9576-0.59925-1.9176-0.6392-1.9176-0.75905-1.8776-0.799-1.8377-0.8789-1.8377" stroke="#212830"/>
     <path id="path13" d="m448.28 463.78-1.1985-1.598-1.2784-1.5181-1.3583-1.4782-1.3982-1.4382-1.4382-1.3583-1.5181-1.3184-1.558-1.2384-1.598-1.1586" stroke="#212830"/>
    </g>
    <g>
     <path id="path14" d="m458.51 485.63-2.3571 0.1598 1.7179 7.0312z" fill="#212830" fill-rule="evenodd"/>
     <path id="path15" d="m436.33 453.67 1.1985-2.0374-6.7116-2.6367z" fill="#212830" fill-rule="evenodd"/>
     <text id="text16" transform="translate(423.23 470.17)" fill="#000000" font-family="Arial" font-size="8.8125px" font-weight="400" letter-spacing="0px" stroke-width=".58426" word-spacing="0px" style="line-height:125%" xml:space="preserve"><tspan id="tspan16" x="0" y="0" sodipodi:role="line"><tspan id="tspan15" dx="0" dy="0" fill="#212830" font-family="Arial" font-size="8.8125px" font-weight="400" stroke-width=".58426">63.43494882°</tspan></tspan></text>
    </g>
    <g fill="none" stroke="#212830" stroke-linecap="round" stroke-linejoin="round" stroke-width=".58426">
     <path id="path16" d="m562.3 491.67 111.1-55.61"/>
     <path id="path17" d="m486.79 340.45 111.06-55.61"/>
     <path id="path18" d="m661.01 428.14-25.968-51.935"/>
     <path id="path19" d="m596.73 299.51 25.968 51.975"/>
    </g>
    <g>
     <path id="path20" d="m662.89 427.23-3.7553 1.8776 7.5106 10.347z" fill="#212830" fill-rule="evenodd"/>
     <path id="path21" d="m598.61 298.55-3.7553 1.8776-3.7553-12.185z" fill="#212830" fill-rule="evenodd"/>
     <text id="text22" transform="translate(596.33 372.05)" fill="#000000" font-family="Garamond" font-size="25.625px" font-weight="400" letter-spacing="0px" stroke-width=".58426" word-spacing="0px" style="line-height:125%" xml:space="preserve"><tspan id="tspan22" x="0" y="0" sodipodi:role="line"><tspan id="tspan21" dx="0" dy="0" fill="#212830" font-family="Garamond" font-size="25.625px" font-weight="400" stroke-width=".58426">4.0249</tspan></tspan></text>
    </g>
    <g fill="none" stroke="#212830" stroke-linecap="round" stroke-linejoin="round" stroke-width=".58426">
     <path id="path22" d="m410.05 406.01 1.1586 1.3583 1.1985 1.3184 1.2385 1.2784 1.2384 1.2784"/>
     <path id="path23" d="m410.01 406.01h-7.1111"/>
     <path id="path24" d="m420.11 416.12 1.638 1.3982 1.7178 1.3583 3.4357 2.6367 1.7978 1.2384 1.7978 1.1985 1.8377 1.1985 1.8377 1.1186"/>
    </g>
    <g>
     <path id="path25" d="m419.28 417 1.638-1.7578-6.0325-3.995z" fill="#212830" fill-rule="evenodd"/>
     <path id="path26" d="m434.74 425.23-1.1186 2.1174 6.8315 2.357z" fill="#212830" fill-rule="evenodd"/>
     <text id="text27" transform="translate(348.52 409.13)" fill="#000000" font-family="Arial" font-size="8.8125px" font-weight="400" letter-spacing="0px" stroke-width=".58426" word-spacing="0px" style="line-height:125%" xml:space="preserve"><tspan id="tspan27" x="0" y="0" sodipodi:role="line"><tspan id="tspan26" dx="0" dy="0" fill="#212830" font-family="Arial" font-size="8.8125px" font-weight="400" stroke-width=".58426">18.43494882°</tspan></tspan></text>
    </g>
    <g fill="none" stroke="#212830" stroke-linecap="round" stroke-linejoin="round" stroke-width=".58426">
     <path id="path27" d="m333.38 495.46v18.617"/>
     <path id="path28" d="m408.93 495.46v18.617"/>
     <path id="path29" d="m320.8 506.49h-12.584"/>
     <path id="path30" d="m421.51 506.49h12.584"/>
    </g>
    <g>
     <path id="path31" d="m320.8 504.41v4.1948l12.584-2.1174z" fill="#212830" fill-rule="evenodd"/>
     <path id="path32" d="m421.51 504.41v4.1948l-12.584-2.1174z" fill="#212830" fill-rule="evenodd"/>
     <text id="text33" transform="translate(337.78 514.72)" fill="#000000" font-family="Garamond" font-size="25.625px" font-weight="400" letter-spacing="0px" stroke-width=".58426" word-spacing="0px" style="line-height:125%" xml:space="preserve"><tspan id="tspan33" x="0" y="0" sodipodi:role="line"><tspan id="tspan32" dx="0" dy="0" fill="#212830" font-family="Garamond" font-size="25.625px" font-weight="400" stroke-width=".58426">1.8000</tspan></tspan></text>
    </g>
    <g fill="none" stroke="#212830" stroke-linecap="round" stroke-linejoin="round" stroke-width=".58426">
     <path id="path33" d="m487.07 644.03h190.68"/>
     <path id="path34" d="m487.07 492.82h190.68"/>
     <path id="path35" d="m670.2 631.41v-50.617"/>
     <path id="path36" d="m670.2 505.41v50.657"/>
    </g>
    <path id="path37" d="m668.12 631.41h4.1948l-2.1174 12.624z" fill="#212830" fill-rule="evenodd"/>
    <path id="path38" d="m668.12 505.41h4.1948l-2.1174-12.584z" fill="#212830" fill-rule="evenodd"/>
    <g fill="#000000" font-weight="400" letter-spacing="0px" stroke-width=".58426" word-spacing="0px">
     <text id="text39" transform="translate(637.28 576.68)" font-family="Garamond" font-size="25.625px" style="line-height:125%" xml:space="preserve"><tspan id="tspan39" x="0" y="0" sodipodi:role="line"><tspan id="tspan38" dx="0" dy="0" fill="#212830" font-family="Garamond" font-size="25.625px" font-weight="400" stroke-width=".58426">3.6000</tspan></tspan></text>
     <g font-family="Arial" font-size="17.625px">
      <text id="text41" transform="translate(612.55 285.88)" style="line-height:125%" xml:space="preserve"><tspan id="tspan41" x="0" y="0" sodipodi:role="line"><tspan id="tspan40" dx="0" dy="0" fill="#00ff00" font-family="Arial" font-size="17.625px" font-weight="400" stroke-width=".58426">A</tspan></tspan></text>
      <text id="text43" transform="translate(624.3 285.88)" style="line-height:125%" xml:space="preserve"><tspan id="tspan43" x="0" y="0" sodipodi:role="line"><tspan id="tspan42" dx="0" dy="0" fill="#212830" font-family="Arial" font-size="17.625px" font-weight="400" stroke-width=".58426">=12.96</tspan></tspan></text>
      <text id="text45" transform="translate(611.2 306.94)" style="line-height:125%" xml:space="preserve"><tspan id="tspan45" x="0" y="0" sodipodi:role="line"><tspan id="tspan44" dx="0" dy="0" fill="#00ff00" font-family="Arial" font-size="17.625px" font-weight="400" stroke-width=".58426">P</tspan></tspan></text>
      <text id="text47" transform="translate(622.94 306.94)" style="line-height:125%" xml:space="preserve"><tspan id="tspan47" x="0" y="0" sodipodi:role="line"><tspan id="tspan46" dx="0" dy="0" fill="#212830" font-family="Arial" font-size="17.625px" font-weight="400" stroke-width=".58426">=14.4</tspan></tspan></text>
     </g>
    </g>
    <g fill="none" stroke="#212830" stroke-linecap="round" stroke-linejoin="round" stroke-width=".58426">
     <path id="path47" d="m559.94 341.61 27.446-62.082h20.974"/>
     <path id="path48" d="m559.94 341.29v-23.85"/>
     <path id="path49" d="m408.93 341.29v-23.85"/>
     <path id="path50" d="m552.83 317.76h-55.251"/>
     <path id="path51" d="m416.04 317.76h55.251"/>
    </g>
    <g>
     <path id="path52" d="m552.83 316.56v2.397l7.1111-1.1985z" fill="#212830" fill-rule="evenodd"/>
     <path id="path53" d="m416.04 316.56v2.397l-7.1111-1.1985z" fill="#212830" fill-rule="evenodd"/>
     <text id="text54" transform="translate(471.01 320.88)" fill="#000000" font-family="Arial" font-size="8.8125px" font-weight="400" letter-spacing="0px" stroke-width=".58426" word-spacing="0px" style="line-height:125%" xml:space="preserve"><tspan id="tspan54" x="0" y="0" sodipodi:role="line"><tspan id="tspan53" dx="0" dy="0" fill="#212830" font-family="Arial" font-size="8.8125px" font-weight="400" stroke-width=".58426">3.6000</tspan></tspan></text>
    </g>
    <g fill="none" stroke="#212830" stroke-linecap="round" stroke-linejoin="round" stroke-width=".58426">
     <path id="path54" d="m558.1 494.7-179.1 179.26"/>
     <path id="path55" d="m407.05 343.49-179.06 179.26"/>
     <path id="path56" d="m375.45 659.7-54.252-54.292"/>
     <path id="path57" d="m242.22 526.34 54.252 54.292"/>
    </g>
    <g>
     <path id="path58" d="m376.93 658.22-2.9563 2.9563 10.387 7.4307z" fill="#212830" fill-rule="evenodd"/>
     <path id="path59" d="m243.7 524.82-2.9563 2.9962-7.4307-10.427z" fill="#212830" fill-rule="evenodd"/>
     <text id="text60" transform="translate(275.74 601.21)" fill="#000000" font-family="Garamond" font-size="25.625px" font-weight="400" letter-spacing="0px" stroke-width=".58426" word-spacing="0px" style="line-height:125%" xml:space="preserve"><tspan id="tspan60" x="0" y="0" sodipodi:role="line"><tspan id="tspan59" dx="0" dy="0" fill="#212830" font-family="Garamond" font-size="25.625px" font-weight="400" stroke-width=".58426">5.0912</tspan></tspan></text>
    </g>
   </g>
  </g>
 </g>
 <metadata id="metadata2">
  <rdf:RDF>
   <cc:Work rdf:about="">
    <dc:title>Coordenada 12.6 N, 12.6 E</dc:title>
    <dc:date>03-02-2025</dc:date>
    <dc:creator>
     <cc:Agent>
      <dc:title>Miguel Hernando Ibáñez Sánchez</dc:title>
     </cc:Agent>
    </dc:creator>
    <dc:rights>
     <cc:Agent>
      <dc:title>Coordenada 12.6 N, 12.6 E © 2025 by Miguel Hernando Ibáñez Sánchez is licensed under Creative Commons Attribution-NoDerivatives 4.0 International</dc:title>
     </cc:Agent>
    </dc:rights>
    <dc:publisher>
     <cc:Agent>
      <dc:title>ISAN atelier academiae</dc:title>
     </cc:Agent>
    </dc:publisher>
    <dc:source>Sáchica, Boyacá - Colombia</dc:source>
    <dc:relation>Lo Oculto del Sendero de la Serpiente</dc:relation>
    <dc:language>Español</dc:language>
    <dc:subject>
     <rdf:Bag>
      <rdf:li>arquitectura sagrada</rdf:li>
      <rdf:li>geometria sagrada</rdf:li>
      <rdf:li>sacred architecture</rdf:li>
      <rdf:li>sacred geometry</rdf:li>
     </rdf:Bag>
    </dc:subject>
    <dc:coverage>Global</dc:coverage>
    <dc:description>Estudios geométricos</dc:description>
    <cc:license rdf:resource="http://creativecommons.org/licenses/by-nd/4.0/"/>
   </cc:Work>
   <cc:License rdf:about="http://creativecommons.org/licenses/by-nd/4.0/">
    <cc:permits rdf:resource="http://creativecommons.org/ns#Reproduction"/>
    <cc:permits rdf:resource="http://creativecommons.org/ns#Distribution"/>
    <cc:requires rdf:resource="http://creativecommons.org/ns#Notice"/>
    <cc:requires rdf:resource="http://creativecommons.org/ns#Attribution"/>
   </cc:License>
  </rdf:RDF>
 </metadata>
</svg>
