<?xml version="1.0" encoding="UTF-8" standalone="no"?>
<!-- Created with Inkscape (http://www.inkscape.org/) -->

<svg
   width="210mm"
   height="170mm"
   viewBox="0 0 210 170"
   version="1.1"
   id="svg1"
   xml:space="preserve"
   inkscape:version="1.3 (0e150ed6c4, 2023-07-21)"
   sodipodi:docname="Estudio Geometrico Keops primitivo.svg"
   xmlns:inkscape="http://www.inkscape.org/namespaces/inkscape"
   xmlns:sodipodi="http://sodipodi.sourceforge.net/DTD/sodipodi-0.dtd"
   xmlns="http://www.w3.org/2000/svg"
   xmlns:svg="http://www.w3.org/2000/svg"><sodipodi:namedview
     id="namedview1"
     pagecolor="#ffffff"
     bordercolor="#000000"
     borderopacity="0.25"
     inkscape:showpageshadow="2"
     inkscape:pageopacity="0.0"
     inkscape:pagecheckerboard="0"
     inkscape:deskcolor="#d1d1d1"
     inkscape:document-units="mm"
     inkscape:zoom="0.74564394"
     inkscape:cx="396.30175"
     inkscape:cy="561.25984"
     inkscape:window-width="1920"
     inkscape:window-height="1051"
     inkscape:window-x="-9"
     inkscape:window-y="-9"
     inkscape:window-maximized="1"
     inkscape:current-layer="layer1" /><defs
     id="defs1"><pattern
       id="WMFhbasepattern"
       patternUnits="userSpaceOnUse"
       width="6"
       height="6"
       x="0"
       y="0" /><pattern
       id="WMFhbasepattern-3"
       patternUnits="userSpaceOnUse"
       width="6"
       height="6"
       x="0"
       y="0" /></defs><g
     inkscape:label="Capa 1"
     inkscape:groupmode="layer"
     id="layer1"><rect
       style="fill:#ffffff;stroke-width:0.15;stroke-dasharray:none"
       id="rect1"
       width="209.35484"
       height="169.25806"
       x="0"
       y="1.0645161" /><g
       id="g1"
       transform="matrix(0.21736326,0,0,0.21736326,-16.264559,-43.281574)"
       style="stroke-width:0.690089;stroke-dasharray:none"><path
         style="fill:none;stroke:#00ffff;stroke-width:0.690089;stroke-linecap:round;stroke-linejoin:round;stroke-miterlimit:4;stroke-dasharray:none;stroke-opacity:1"
         d="m 835.69291,638.95159 -0.0469,-5.49242 -0.18778,-5.49242 -0.28166,-5.49242 -0.4225,-5.49242 -0.51638,-5.44548 -0.61027,-5.44548 -0.7511,-5.44547 -0.84498,-5.44548 -0.98582,-5.39853 -1.07971,-5.39854 -1.22054,-5.35159 -1.26748,-5.35158 -1.45526,-5.30465 -1.5022,-5.2577 -1.64303,-5.2577 -1.78386,-5.21076 -1.83081,-5.16382 -1.97164,-5.11687 -2.06552,-5.11687 -2.20636,-5.02298 -2.30024,-5.02298 -2.34719,-4.9291 -2.53497,-4.88215 -2.5819,-4.88215 -2.6758,-4.78826 -2.81662,-4.69438 -2.86357,-4.69438 -3.0044,-4.60049 -3.09829,-4.55354 -3.19218,-4.45966 -3.23912,-4.41271 -3.37995,-4.36577 -3.47384,-4.27189 -3.52078,-4.17799 -3.66161,-4.13105 -3.70856,-4.03717 -3.80245,-3.94327 -3.84938,-3.89634 -3.99022,-3.80244 -4.03717,-3.70856 -4.13105,-3.66161 -4.178,-3.52078 -4.27188,-3.47384 -4.31882,-3.37995 -4.41272,-3.28607 -4.5066,-3.14523 -4.5066,-3.09829 -4.60049,-3.0044 -4.69438,-2.91051 -4.69437,-2.76968 -4.78827,-2.72274 -4.83521,-2.58191 -4.92909,-2.48802 -4.9291,-2.39413 -4.97603,-2.30025 -5.06993,-2.15941 -5.06993,-2.11247 -5.11687,-1.92469 -5.16381,-1.87775 -5.21076,-1.73692 -5.2577,-1.64304 -5.2577,-1.54914 -5.30465,-1.40831 -5.35159,-1.31443 -5.35159,-1.22054 -5.35159,-1.0797 -5.44547,-0.98582 -5.39854,-0.84499 -5.44547,-0.7511 -5.44548,-0.61027 -5.49242,-0.51638 -5.44548,-0.42249 -5.49242,-0.28167 -5.49242,-0.18777 -5.49242,-0.0469 -5.49242,0.0469 -5.49242,0.18777 -5.49242,0.28167 -5.44548,0.42249 -5.49242,0.51638 -5.44548,0.61027 -5.44547,0.7511 -5.39854,0.84499 -5.44547,0.98582 -5.35159,1.0797 -5.35159,1.22054 -5.35159,1.31443 -5.30465,1.40831 -5.2577,1.54914 -5.2577,1.64304 -5.21076,1.73692 -5.16381,1.87775 -5.11687,1.92469 -5.06993,2.11247 -5.06992,2.15941 -4.97604,2.30025 -4.9291,2.39413 -4.92909,2.48802 -4.83521,2.58191 -4.74132,2.72274 -4.74132,2.76968 -4.69438,2.91051 -4.60049,3.0044 -4.5066,3.09829 -4.5066,3.14523 -4.41271,3.28607 -4.31883,3.37995 -4.27188,3.47384 -4.178,3.52078 -4.13105,3.66161 -4.03716,3.70856 -3.99022,3.80244 -3.84939,3.89634 -3.80245,3.94327 -3.70856,4.03717 -3.66161,4.13105 -3.52078,4.17799 -3.47384,4.27189 -3.37995,4.36577 -3.23912,4.41271 -3.19218,4.45966 -3.09829,4.55354 -3.0044,4.60049 -2.86357,4.69438 -2.81662,4.69438 -2.6758,4.78826 -2.5819,4.88215 -2.53497,4.88215 -2.34719,4.9291 -2.30024,5.02298 -2.20636,5.02298 -2.06552,5.11687 -1.97164,5.11687 -1.83081,5.16382 -1.78386,5.21076 -1.64303,5.2577 -1.5022,5.2577 -1.45526,5.30465 -1.26748,5.35158 -1.22054,5.35159 -1.07971,5.39854 -0.98581,5.39853 -0.84499,5.44548 -0.7511,5.44547 -0.61027,5.44548 -0.51638,5.44548 -0.4225,5.49242 -0.28166,5.49242 -0.18777,5.49242 -0.0469,5.49242 0.0469,5.49242 0.18777,5.49242 0.28166,5.49242 0.4225,5.49242 0.51638,5.44548 0.61027,5.44547 0.7511,5.44548 0.84499,5.44548 0.98581,5.39853 1.07971,5.39853 1.22054,5.35159 1.26748,5.35159 1.45526,5.30465 1.5022,5.2577 1.64303,5.2577 1.78386,5.21076 1.83081,5.16381 1.97164,5.11687 2.06552,5.11687 2.20636,5.02299 2.30024,5.02298 2.34719,4.9291 2.53497,4.88215 2.5819,4.88215 2.6758,4.74132 2.81662,4.74132 2.86357,4.69438 3.0044,4.60049 3.09829,4.55354 3.19218,4.45966 3.23912,4.41271 3.37995,4.36577 3.47384,4.27188 3.52078,4.178 3.66161,4.13105 3.70856,4.03717 3.80245,3.94327 3.84939,3.89633 3.99022,3.80245 4.03716,3.70856 4.13105,3.66161 4.178,3.52078 4.27188,3.47384 4.31883,3.37995 4.41271,3.28607 4.5066,3.14523 4.5066,3.09829 4.60049,3.0044 4.69438,2.91051 4.69437,2.76968 4.78827,2.72274 4.83521,2.58191 4.92909,2.48802 4.9291,2.39413 4.97604,2.30024 5.06992,2.15942 5.06993,2.11247 5.11687,1.92469 5.16381,1.87775 5.21076,1.73692 5.2577,1.64303 5.2577,1.54915 5.30465,1.40831 5.35159,1.31443 5.35159,1.22053 5.35159,1.07971 5.44547,0.98582 5.39854,0.84499 5.44547,0.7511 5.44548,0.61027 5.49242,0.51638 5.44548,0.42249 5.49242,0.28166 5.49242,0.18778 5.49242,0.0469 5.49242,-0.0469 5.49242,-0.18778 5.49242,-0.28166 5.44548,-0.42249 5.49242,-0.51638 5.44548,-0.61027 5.44547,-0.7511 5.39854,-0.84499 5.44547,-0.98582 5.35159,-1.07971 5.35159,-1.22053 5.35159,-1.31443 5.30465,-1.40831 5.2577,-1.54915 5.2577,-1.64303 5.21076,-1.73692 5.16381,-1.87775 5.11687,-1.92469 5.06993,-2.11247 5.06993,-2.15942 4.97603,-2.30024 4.9291,-2.39413 4.92909,-2.48802 4.83521,-2.58191 4.78827,-2.72274 4.69437,-2.76968 4.69438,-2.91051 4.60049,-3.0044 4.5066,-3.09829 4.5066,-3.14523 4.41272,-3.28607 4.31882,-3.37995 4.27188,-3.47384 4.178,-3.52078 4.13105,-3.66161 4.03717,-3.70856 3.99022,-3.80245 3.84938,-3.89633 3.80245,-3.94327 3.70856,-4.03717 3.66161,-4.13105 3.52078,-4.178 3.47384,-4.27188 3.37995,-4.36577 3.23912,-4.41271 3.19218,-4.45966 3.09829,-4.55354 3.0044,-4.60049 2.86357,-4.69438 2.81662,-4.69438 2.6758,-4.78826 2.5819,-4.88215 2.53497,-4.88215 2.34719,-4.9291 2.30024,-5.02298 2.20636,-5.02299 2.06552,-5.11687 1.97164,-5.11687 1.83081,-5.16381 1.78386,-5.21076 1.64303,-5.2577 1.5022,-5.2577 1.45526,-5.30465 1.26748,-5.35159 1.22054,-5.35159 1.07971,-5.39853 0.98582,-5.39853 0.84498,-5.44548 0.7511,-5.44548 0.61027,-5.44547 0.51638,-5.44548 0.4225,-5.49242 0.28166,-5.49242 0.18778,-5.49242 z"
         id="path1" /><path
         style="fill:none;stroke:#264c00;stroke-width:0.690089;stroke-linecap:round;stroke-linejoin:round;stroke-miterlimit:4;stroke-dasharray:none;stroke-opacity:1"
         d="m 320.06259,700.91736 47.31932,-47.36626 14.59951,-14.59951"
         id="path2" /><path
         style="fill:none;stroke:#264c00;stroke-width:0.690089;stroke-linecap:round;stroke-linejoin:round;stroke-miterlimit:4;stroke-dasharray:none;stroke-opacity:1"
         d="m 343.62836,700.91736 23.75355,-23.80049 38.11833,-38.16528"
         id="path3" /><path
         style="fill:none;stroke:#264c00;stroke-width:0.690089;stroke-linecap:round;stroke-linejoin:round;stroke-miterlimit:4;stroke-dasharray:none;stroke-opacity:1"
         d="m 367.14719,700.91736 0.23472,-0.23472 61.6841,-61.73105"
         id="path4" /><path
         style="fill:none;stroke:#264c00;stroke-width:0.690089;stroke-linecap:round;stroke-linejoin:round;stroke-miterlimit:4;stroke-dasharray:none;stroke-opacity:1"
         d="m 390.71296,700.91736 61.91882,-61.96577"
         id="path5" /><path
         style="fill:none;stroke:#264c00;stroke-width:0.690089;stroke-linecap:round;stroke-linejoin:round;stroke-miterlimit:4;stroke-dasharray:none;stroke-opacity:1"
         d="m 414.27873,700.91736 61.87188,-61.96577"
         id="path6" /><path
         style="fill:none;stroke:#264c00;stroke-width:0.690089;stroke-linecap:round;stroke-linejoin:round;stroke-miterlimit:4;stroke-dasharray:none;stroke-opacity:1"
         d="m 437.79756,700.91736 61.91882,-61.96577"
         id="path7" /><path
         style="fill:none;stroke:#264c00;stroke-width:0.690089;stroke-linecap:round;stroke-linejoin:round;stroke-miterlimit:4;stroke-dasharray:none;stroke-opacity:1"
         d="m 461.36333,700.91736 61.87188,-61.96577"
         id="path8" /><path
         style="fill:none;stroke:#264c00;stroke-width:0.690089;stroke-linecap:round;stroke-linejoin:round;stroke-miterlimit:4;stroke-dasharray:none;stroke-opacity:1"
         d="m 484.88215,700.91736 61.91883,-61.96577"
         id="path9" /><path
         style="fill:none;stroke:#264c00;stroke-width:0.690089;stroke-linecap:round;stroke-linejoin:round;stroke-miterlimit:4;stroke-dasharray:none;stroke-opacity:1"
         d="M 508.44792,700.91736 570.3198,638.95159"
         id="path10" /><path
         style="fill:none;stroke:#264c00;stroke-width:0.690089;stroke-linecap:round;stroke-linejoin:round;stroke-miterlimit:4;stroke-dasharray:none;stroke-opacity:1"
         d="m 531.96675,700.91736 61.91882,-61.96577"
         id="path11" /><path
         style="fill:none;stroke:#264c00;stroke-width:0.690089;stroke-linecap:round;stroke-linejoin:round;stroke-miterlimit:4;stroke-dasharray:none;stroke-opacity:1"
         d="m 555.53252,700.91736 61.91882,-61.96577"
         id="path12" /><path
         style="fill:none;stroke:#264c00;stroke-width:0.690089;stroke-linecap:round;stroke-linejoin:round;stroke-miterlimit:4;stroke-dasharray:none;stroke-opacity:1"
         d="m 579.09829,700.91736 61.87188,-61.96577"
         id="path13" /><path
         style="fill:none;stroke:#264c00;stroke-width:0.690089;stroke-linecap:round;stroke-linejoin:round;stroke-miterlimit:4;stroke-dasharray:none;stroke-opacity:1"
         d="m 602.61711,700.91736 61.91883,-61.96577"
         id="path14" /><path
         style="fill:none;stroke:#264c00;stroke-width:0.690089;stroke-linecap:round;stroke-linejoin:round;stroke-miterlimit:4;stroke-dasharray:none;stroke-opacity:1"
         d="m 626.18289,700.91736 61.87188,-61.96577"
         id="path15" /><path
         style="fill:none;stroke:#264c00;stroke-width:0.690089;stroke-linecap:round;stroke-linejoin:round;stroke-miterlimit:4;stroke-dasharray:none;stroke-opacity:1"
         d="m 649.70171,700.91736 61.91883,-61.96577"
         id="path16" /><path
         style="fill:none;stroke:#264c00;stroke-width:0.690089;stroke-linecap:round;stroke-linejoin:round;stroke-miterlimit:4;stroke-dasharray:none;stroke-opacity:1"
         d="m 673.26748,700.91736 61.91883,-61.96577"
         id="path17" /><path
         style="fill:none;stroke:#264c00;stroke-width:0.690089;stroke-linecap:round;stroke-linejoin:round;stroke-miterlimit:4;stroke-dasharray:none;stroke-opacity:1"
         d="m 696.83325,700.91736 61.87188,-61.96577"
         id="path18" /><path
         style="fill:none;stroke:#264c00;stroke-width:0.690089;stroke-linecap:round;stroke-linejoin:round;stroke-miterlimit:4;stroke-dasharray:none;stroke-opacity:1"
         d="m 720.35208,700.91736 59.28997,-59.33692 1.1736,-1.17359"
         id="path19" /><path
         style="fill:none;stroke:#264c00;stroke-width:0.690089;stroke-linecap:round;stroke-linejoin:round;stroke-miterlimit:4;stroke-dasharray:none;stroke-opacity:1"
         d="m 743.91785,700.91736 35.7242,-35.77115 11.50123,-11.54817"
         id="path20" /><path
         style="fill:none;stroke:#264c00;stroke-width:0.690089;stroke-linecap:round;stroke-linejoin:round;stroke-miterlimit:4;stroke-dasharray:none;stroke-opacity:1"
         d="m 767.43667,700.91736 12.20538,-12.20538 21.8758,-21.92274"
         id="path21" /><path
         style="fill:none;stroke:#264c00;stroke-width:0.690089;stroke-linecap:round;stroke-linejoin:round;stroke-miterlimit:4;stroke-dasharray:none;stroke-opacity:1"
         d="m 791.00244,700.91736 20.88998,-20.88998"
         id="path22" /><path
         style="fill:none;stroke:#264c00;stroke-width:0.690089;stroke-linecap:round;stroke-linejoin:round;stroke-miterlimit:4;stroke-dasharray:none;stroke-opacity:1"
         d="m 814.56822,700.91736 7.69877,-7.69878"
         id="path23" /><path
         style="fill:none;stroke:#ff0000;stroke-width:0.690089;stroke-linecap:round;stroke-linejoin:round;stroke-miterlimit:4;stroke-dasharray:none;stroke-opacity:1"
         d="M 573.51198,376.58289 318.70122,700.91736"
         id="path24" /><path
         style="fill:none;stroke:#ff0000;stroke-width:0.690089;stroke-linecap:round;stroke-linejoin:round;stroke-miterlimit:4;stroke-dasharray:none;stroke-opacity:1"
         d="M 318.70122,700.91736 H 828.32274"
         id="path25" /><path
         style="fill:none;stroke:#ff0000;stroke-width:0.690089;stroke-linecap:round;stroke-linejoin:round;stroke-miterlimit:4;stroke-dasharray:none;stroke-opacity:1"
         d="M 828.32274,700.91736 573.51198,376.58289"
         id="path26" /><path
         style="fill:#264c00;fill-opacity:1;fill-rule:evenodd;stroke:none;stroke-width:0.690089;stroke-dasharray:none"
         d="m 529.43178,432.68068 h 88.1604 v 0 z"
         id="path27" /><path
         style="fill:#264c00;fill-opacity:1;fill-rule:evenodd;stroke:none;stroke-width:0.690089;stroke-dasharray:none"
         d="M 617.59218,432.68068 Z"
         id="path28" /><path
         style="fill:#264c00;fill-opacity:1;fill-rule:evenodd;stroke:none;stroke-width:0.690089;stroke-dasharray:none"
         d="m 529.43178,432.68068 h 88.1604 v 0 z"
         id="path29" /><path
         style="fill:#264c00;fill-opacity:1;fill-rule:evenodd;stroke:none;stroke-width:0.690089;stroke-dasharray:none"
         d="M 617.59218,432.68068 Z"
         id="path30" /><path
         style="fill:#264c00;fill-opacity:1;fill-rule:evenodd;stroke:none;stroke-width:0.690089;stroke-dasharray:none"
         d="m 573.51198,376.58289 v 0 l -44.0802,56.09779 z"
         id="path31" /><path
         style="fill:#264c00;fill-opacity:1;fill-rule:evenodd;stroke:none;stroke-width:0.690089;stroke-dasharray:none"
         d="m 573.51198,376.58289 -44.0802,56.09779 h 88.1604 z"
         id="path32" /><path
         style="fill:#264c00;fill-opacity:1;fill-rule:evenodd;stroke:none;stroke-width:0.690089;stroke-dasharray:none"
         d="m 367.38191,638.95159 h 412.26014 v 0 z"
         id="path33" /><path
         style="fill:#264c00;fill-opacity:1;fill-rule:evenodd;stroke:none;stroke-width:0.690089;stroke-dasharray:none"
         d="M 779.64205,638.95159 Z"
         id="path34" /><path
         style="fill:#264c00;fill-opacity:1;fill-rule:evenodd;stroke:none;stroke-width:0.690089;stroke-dasharray:none"
         d="m 529.43178,432.68068 h 88.1604 L 367.38191,638.95159 Z"
         id="path35" /><path
         style="fill:#264c00;fill-opacity:1;fill-rule:evenodd;stroke:none;stroke-width:0.690089;stroke-dasharray:none"
         d="M 617.59218,432.68068 367.38191,638.95159 h 412.26014 z"
         id="path36" /><path
         style="fill:none;stroke:#264c00;stroke-width:0.690089;stroke-linecap:round;stroke-linejoin:round;stroke-miterlimit:4;stroke-dasharray:none;stroke-opacity:1"
         d="m 529.43178,432.68068 h 88.1604 l -44.0802,-56.09779 -44.0802,56.09779 -162.04987,206.27091 H 779.64205 L 617.59218,432.68068 Z"
         id="path37" /><path
         style="fill:none;stroke:#264c00;stroke-width:0.690089;stroke-linecap:round;stroke-linejoin:round;stroke-miterlimit:4;stroke-dasharray:none;stroke-opacity:1"
         d="M 573.51198,376.58289 367.38191,638.95159"
         id="path38" /><path
         style="fill:none;stroke:#264c00;stroke-width:0.690089;stroke-linecap:round;stroke-linejoin:round;stroke-miterlimit:4;stroke-dasharray:none;stroke-opacity:1"
         d="M 779.64205,638.95159 573.51198,376.58289"
         id="path39" /><path
         style="fill:none;stroke:#ff00ff;stroke-width:0.690089;stroke-linecap:round;stroke-linejoin:round;stroke-miterlimit:4;stroke-dasharray:none;stroke-opacity:1"
         d="M 779.64205,432.68068 V 845.26944 H 367.38191 V 432.68068 Z"
         id="path40" /><path
         style="fill:none;stroke:#212830;stroke-width:0.690089;stroke-linecap:round;stroke-linejoin:round;stroke-miterlimit:4;stroke-dasharray:none;stroke-opacity:1"
         d="M 305.83863,690.77751 160.50073,576.42249"
         id="path41" /><path
         style="fill:none;stroke:#212830;stroke-width:0.690089;stroke-linecap:round;stroke-linejoin:round;stroke-miterlimit:4;stroke-dasharray:none;stroke-opacity:1"
         d="M 560.64939,366.44303 415.26455,252.08802"
         id="path42" /><path
         style="fill:none;stroke:#212830;stroke-width:0.690089;stroke-linecap:round;stroke-linejoin:round;stroke-miterlimit:4;stroke-dasharray:none;stroke-opacity:1"
         d="M 183.7379,568.01956 275.18435,451.64597"
         id="path43" /><path
         style="fill:none;stroke:#212830;stroke-width:0.690089;stroke-linecap:round;stroke-linejoin:round;stroke-miterlimit:4;stroke-dasharray:none;stroke-opacity:1"
         d="M 412.6357,276.68655 324.94474,388.31883"
         id="path44" /><path
         style="fill:#212830;fill-opacity:1;fill-rule:evenodd;stroke:none;stroke-width:0.690089;stroke-dasharray:none"
         d="m 181.01516,565.86015 5.49242,4.31882 -15.72616,14.3648 z"
         id="path45" /><path
         style="fill:#212830;fill-opacity:1;fill-rule:evenodd;stroke:none;stroke-width:0.690089;stroke-dasharray:none"
         d="m 409.86601,274.52714 5.49243,4.31883 10.23374,-18.63668 z"
         id="path46" /><text
         xml:space="preserve"
         style="font-style:normal;font-variant:normal;font-weight:400;font-size:22px;line-height:125%;font-family:Arial;text-align:start;letter-spacing:0px;word-spacing:0px;text-anchor:start;fill:#000000;fill-opacity:1;stroke:none;stroke-width:0.690089;stroke-dasharray:none"
         transform="translate(259.64597,427.75159)"
         x="0"
         y="0"
         id="text47"><tspan
           sodipodi:role="line"
           x="0"
           y="0"
           id="tspan47"><tspan
             dx="0"
             dy="0"
             style="font-style:normal;font-variant:normal;font-weight:400;font-size:22px;font-family:Arial;fill:#212830;stroke-width:0.690089;stroke-dasharray:none"
             id="tspan46">1.57230</tspan></tspan></text><path
         style="fill:none;stroke:#212830;stroke-width:0.690089;stroke-linecap:round;stroke-linejoin:round;stroke-miterlimit:4;stroke-dasharray:none;stroke-opacity:1"
         d="m 318.70122,717.30073 v 41.77995"
         id="path47" /><path
         style="fill:none;stroke:#212830;stroke-width:0.690089;stroke-linecap:round;stroke-linejoin:round;stroke-miterlimit:4;stroke-dasharray:none;stroke-opacity:1"
         d="m 828.32274,717.30073 v 41.77995"
         id="path48" /><path
         style="fill:none;stroke:#212830;stroke-width:0.690089;stroke-linecap:round;stroke-linejoin:round;stroke-miterlimit:4;stroke-dasharray:none;stroke-opacity:1"
         d="M 339.68509,745.93643 H 511.87482"
         id="path49" /><path
         style="fill:none;stroke:#212830;stroke-width:0.690089;stroke-linecap:round;stroke-linejoin:round;stroke-miterlimit:4;stroke-dasharray:none;stroke-opacity:1"
         d="M 807.33888,745.93643 H 635.14914"
         id="path50" /><path
         style="fill:#212830;fill-opacity:1;fill-rule:evenodd;stroke:none;stroke-width:0.690089;stroke-dasharray:none"
         d="m 339.68509,742.46259 v 6.99462 l -20.98387,-3.52078 z"
         id="path51" /><path
         style="fill:#212830;fill-opacity:1;fill-rule:evenodd;stroke:none;stroke-width:0.690089;stroke-dasharray:none"
         d="m 807.33888,742.46259 v 6.99462 l 20.98386,-3.52078 z"
         id="path52" /><text
         xml:space="preserve"
         style="font-style:normal;font-variant:normal;font-weight:400;font-size:22px;line-height:125%;font-family:Arial;text-align:start;letter-spacing:0px;word-spacing:0px;text-anchor:start;fill:#000000;fill-opacity:1;stroke:none;stroke-width:0.690089;stroke-dasharray:none"
         transform="translate(533.0934,753.68215)"
         x="0"
         y="0"
         id="text53"><tspan
           sodipodi:role="line"
           x="0"
           y="0"
           id="tspan53"><tspan
             dx="0"
             dy="0"
             style="font-style:normal;font-variant:normal;font-weight:400;font-size:22px;font-family:Arial;fill:#212830;stroke-width:0.690089;stroke-dasharray:none"
             id="tspan52">1.94347</tspan></tspan></text><path
         style="fill:none;stroke:#212830;stroke-width:0.690089;stroke-linecap:round;stroke-linejoin:round;stroke-miterlimit:4;stroke-dasharray:none;stroke-opacity:1"
         d="M 367.38191,861.65281 V 966.80685"
         id="path53" /><path
         style="fill:none;stroke:#212830;stroke-width:0.690089;stroke-linecap:round;stroke-linejoin:round;stroke-miterlimit:4;stroke-dasharray:none;stroke-opacity:1"
         d="M 779.64205,861.65281 V 966.80685"
         id="path54" /><path
         style="fill:none;stroke:#212830;stroke-width:0.690089;stroke-linecap:round;stroke-linejoin:round;stroke-miterlimit:4;stroke-dasharray:none;stroke-opacity:1"
         d="M 388.36577,953.70954 H 511.92176"
         id="path55" /><path
         style="fill:none;stroke:#212830;stroke-width:0.690089;stroke-linecap:round;stroke-linejoin:round;stroke-miterlimit:4;stroke-dasharray:none;stroke-opacity:1"
         d="M 758.65819,953.70954 H 635.1022"
         id="path56" /><path
         style="fill:#212830;fill-opacity:1;fill-rule:evenodd;stroke:none;stroke-width:0.690089;stroke-dasharray:none"
         d="m 388.36577,950.18875 v 6.99462 l -20.98386,-3.47383 z"
         id="path57" /><path
         style="fill:#212830;fill-opacity:1;fill-rule:evenodd;stroke:none;stroke-width:0.690089;stroke-dasharray:none"
         d="m 758.65819,950.18875 v 6.99462 l 20.98386,-3.47383 z"
         id="path58" /><text
         xml:space="preserve"
         style="font-style:normal;font-variant:normal;font-weight:400;font-size:22px;line-height:125%;font-family:Arial;text-align:start;letter-spacing:0px;word-spacing:0px;text-anchor:start;fill:#000000;fill-opacity:1;stroke:none;stroke-width:0.690089;stroke-dasharray:none"
         transform="translate(533.0934,961.45526)"
         x="0"
         y="0"
         id="text59"><tspan
           sodipodi:role="line"
           x="0"
           y="0"
           id="tspan59"><tspan
             dx="0"
             dy="0"
             style="font-style:normal;font-variant:normal;font-weight:400;font-size:22px;font-family:Arial;fill:#212830;stroke-width:0.690089;stroke-dasharray:none"
             id="tspan58">1.57230</tspan></tspan></text><path
         style="fill:none;stroke:#264c00;stroke-width:0.690089;stroke-linecap:round;stroke-linejoin:round;stroke-miterlimit:4;stroke-dasharray:none;stroke-opacity:1"
         d="M 586.42152,366.44303 773.72714,219.08655"
         id="path59" /><path
         style="fill:none;stroke:#264c00;stroke-width:0.690089;stroke-linecap:round;stroke-linejoin:round;stroke-miterlimit:4;stroke-dasharray:none;stroke-opacity:1"
         d="M 841.18533,690.77751 1028.491,543.42103"
         id="path60" /><path
         style="fill:none;stroke:#264c00;stroke-width:0.690089;stroke-linecap:round;stroke-linejoin:round;stroke-miterlimit:4;stroke-dasharray:none;stroke-opacity:1"
         d="m 776.35599,243.68509 87.45623,111.30366"
         id="path61" /><path
         style="fill:none;stroke:#264c00;stroke-width:0.690089;stroke-linecap:round;stroke-linejoin:round;stroke-miterlimit:4;stroke-dasharray:none;stroke-opacity:1"
         d="M 1005.2068,535.01809 917.75061,423.66748"
         id="path62" /><path
         style="fill:#264c00;fill-opacity:1;fill-rule:evenodd;stroke:none;stroke-width:0.690089;stroke-dasharray:none"
         d="m 779.12567,241.52567 -5.49242,4.31883 -10.23374,-18.68362 z"
         id="path63" /><path
         style="fill:#264c00;fill-opacity:1;fill-rule:evenodd;stroke:none;stroke-width:0.690089;stroke-dasharray:none"
         d="m 1007.9765,532.85868 -5.4924,4.31883 15.7262,14.36479 z"
         id="path64" /><text
         xml:space="preserve"
         style="font-style:normal;font-variant:normal;font-weight:400;font-size:29.3125px;line-height:125%;font-family:Arial;text-align:start;letter-spacing:0px;word-spacing:0px;text-anchor:start;fill:#000000;fill-opacity:1;stroke:none;stroke-width:0.690089;stroke-dasharray:none"
         transform="translate(754.29242,399.67922)"
         x="0"
         y="0"
         id="text65"><tspan
           sodipodi:role="line"
           x="0"
           y="0"
           id="tspan65"><tspan
             dx="0"
             dy="0"
             style="font-style:normal;font-variant:normal;font-weight:400;font-size:29.3125px;font-family:Arial;fill:#264c00;stroke-width:0.690089;stroke-dasharray:none"
             id="tspan64">Lado Arista Pirámide</tspan></tspan></text><text
         xml:space="preserve"
         style="font-style:normal;font-variant:normal;font-weight:400;font-size:33px;line-height:125%;font-family:Arial;text-align:start;letter-spacing:0px;word-spacing:0px;text-anchor:start;fill:#000000;fill-opacity:1;stroke:none;stroke-width:0.690089;stroke-dasharray:none"
         transform="translate(756.82738,353.01711)"
         x="0"
         y="0"
         id="text67"><tspan
           sodipodi:role="line"
           x="0"
           y="0"
           id="tspan67"><tspan
             dx="0"
             dy="0"
             style="font-style:normal;font-variant:normal;font-weight:400;font-size:33px;font-family:Arial;fill:#212830;stroke-width:0.690089;stroke-dasharray:none"
             id="tspan66">R1.0</tspan></tspan></text><path
         style="fill:none;stroke:#212830;stroke-width:0.690089;stroke-linecap:round;stroke-linejoin:round;stroke-miterlimit:4;stroke-dasharray:none;stroke-opacity:1"
         d="m 735.84352,341.422 h -34.50367 l -16.00782,37.17947"
         id="path67" /><path
         style="fill:#212830;fill-opacity:1;fill-rule:evenodd;stroke:none;stroke-width:0.690089;stroke-dasharray:none"
         d="m 682.13985,377.2401 6.4313,2.76968 -11.50122,17.88557 z"
         id="path68" /><path
         style="fill:none;stroke:#212830;stroke-width:0.690089;stroke-linecap:round;stroke-linejoin:round;stroke-miterlimit:4;stroke-dasharray:none;stroke-opacity:1"
         d="M 367.38191,638.95159 H 779.64205"
         id="path69" /><path
         style="fill:none;stroke:#00ffff;stroke-width:0.690089;stroke-linecap:round;stroke-linejoin:round;stroke-miterlimit:4;stroke-dasharray:none;stroke-opacity:1"
         d="m 511.78093,467.88851 2.86357,1.83081 2.86357,1.78386 2.95746,1.64303 2.95745,1.59609 3.05135,1.5022 3.05134,1.40831 3.14523,1.31443 3.14524,1.17359 3.19217,1.12665 3.23912,0.98582"
         id="path70" /><path
         style="fill:none;stroke:#00ffff;stroke-width:0.690089;stroke-linecap:round;stroke-linejoin:round;stroke-miterlimit:4;stroke-dasharray:none;stroke-opacity:1"
         d="m 604.77653,482.2533 3.23912,-0.98582 3.19217,-1.12665 3.14524,-1.17359 3.14523,-1.31443 3.05134,-1.40831 3.05135,-1.5022 2.95746,-1.59609 2.95745,-1.64303 2.86357,-1.78386 2.86357,-1.83081"
         id="path71" /><path
         style="fill:#00ffff;fill-opacity:1;fill-rule:evenodd;stroke:none;stroke-width:0.690089;stroke-dasharray:none"
         d="m 511.02983,468.92127 1.54914,-2.11247 -7.13545,-3.56772 z"
         id="path72" /><path
         style="fill:#00ffff;fill-opacity:1;fill-rule:evenodd;stroke:none;stroke-width:0.690089;stroke-dasharray:none"
         d="m 634.49193,466.8088 1.5022,2.11247 5.58631,-5.68019 z"
         id="path73" /><text
         xml:space="preserve"
         style="font-style:normal;font-variant:normal;font-weight:400;font-size:11px;line-height:125%;font-family:Arial;text-align:start;letter-spacing:0px;word-spacing:0px;text-anchor:start;fill:#000000;fill-opacity:1;stroke:none;stroke-width:0.690089;stroke-dasharray:none"
         transform="translate(565.29682,490.70318)"
         x="0"
         y="0"
         id="text74"><tspan
           sodipodi:role="line"
           x="0"
           y="0"
           id="tspan74"><tspan
             dx="0"
             dy="0"
             style="font-style:normal;font-variant:normal;font-weight:400;font-size:11px;font-family:Arial;fill:#00ffff;stroke-width:0.690089;stroke-dasharray:none"
             id="tspan73">76°</tspan></tspan></text><path
         style="fill:none;stroke:#212830;stroke-width:0.690089;stroke-linecap:round;stroke-linejoin:round;stroke-miterlimit:4;stroke-dasharray:none;stroke-opacity:1"
         d="M 565.67237,376.58289 H 124.49487"
         id="path74" /><path
         style="fill:none;stroke:#212830;stroke-width:0.690089;stroke-linecap:round;stroke-linejoin:round;stroke-miterlimit:4;stroke-dasharray:none;stroke-opacity:1"
         d="M 565.67237,700.91736 H 124.49487"
         id="path75" /><path
         style="fill:none;stroke:#212830;stroke-width:0.690089;stroke-linecap:round;stroke-linejoin:round;stroke-miterlimit:4;stroke-dasharray:none;stroke-opacity:1"
         d="M 129.75257,397.56675 V 504.41076"
         id="path76" /><path
         style="fill:none;stroke:#212830;stroke-width:0.690089;stroke-linecap:round;stroke-linejoin:round;stroke-miterlimit:4;stroke-dasharray:none;stroke-opacity:1"
         d="M 129.75257,679.9335 V 573.08949"
         id="path77" /><path
         style="fill:#212830;fill-opacity:1;fill-rule:evenodd;stroke:none;stroke-width:0.690089;stroke-dasharray:none"
         d="m 126.23178,397.56675 h 6.99463 l -3.47384,-20.98386 z"
         id="path78" /><path
         style="fill:#212830;fill-opacity:1;fill-rule:evenodd;stroke:none;stroke-width:0.690089;stroke-dasharray:none"
         d="m 126.23178,679.9335 h 6.99463 l -3.47384,20.98386 z"
         id="path79" /><text
         xml:space="preserve"
         style="font-style:normal;font-variant:normal;font-weight:400;font-size:29.3125px;line-height:125%;font-family:Arial;text-align:start;letter-spacing:0px;word-spacing:0px;text-anchor:start;fill:#000000;fill-opacity:1;stroke:none;stroke-width:0.690089;stroke-dasharray:none"
         transform="translate(86.000978,549.05428)"
         x="0"
         y="0"
         id="text80"><tspan
           sodipodi:role="line"
           x="0"
           y="0"
           id="tspan80"><tspan
             dx="0"
             dy="0"
             style="font-style:normal;font-variant:normal;font-weight:400;font-size:29.3125px;font-family:Arial;fill:#212830;stroke-width:0.690089;stroke-dasharray:none"
             id="tspan79">1.2361</tspan></tspan></text><path
         style="fill:none;stroke:#ff0000;stroke-width:0.690089;stroke-linecap:round;stroke-linejoin:round;stroke-miterlimit:4;stroke-dasharray:none;stroke-opacity:1"
         d="m 408.78631,698.80489 -0.0939,-2.91051 -0.23472,-2.95746 -0.28166,-2.91051 -0.42249,-2.95746 -0.46944,-2.86357 -0.61027,-2.91051 -0.70416,-2.86357 -0.7511,-2.81663 -0.89193,-2.81663 -0.93887,-2.81662 -1.07971,-2.72274 -1.12665,-2.72274"
         id="path80" /><path
         style="fill:none;stroke:#ff0000;stroke-width:0.690089;stroke-linecap:round;stroke-linejoin:round;stroke-miterlimit:4;stroke-dasharray:none;stroke-opacity:1"
         d="m 398.22396,658.4802 -1.40831,-2.58191 -1.5022,-2.48802 -1.59609,-2.48802 -1.68998,-2.44108 -1.73692,-2.34718 -1.8308,-2.30025 -1.87775,-2.2533 -1.97164,-2.20636 -2.06553,-2.11247 -2.11247,-2.01858 -2.15941,-2.01858 -2.2533,-1.87775"
         id="path81" /><path
         style="fill:#ff0000;fill-opacity:1;fill-rule:evenodd;stroke:none;stroke-width:0.690089;stroke-dasharray:none"
         d="m 409.2088,698.80489 h -0.70415 l 0.37555,2.11247 z"
         id="path82" /><path
         style="fill:#ff0000;fill-opacity:1;fill-rule:evenodd;stroke:none;stroke-width:0.690089;stroke-dasharray:none"
         d="m 375.83178,631.58142 0.46944,-0.56333 -1.87775,-1.03276 z"
         id="path83" /><text
         xml:space="preserve"
         style="font-style:normal;font-variant:normal;font-weight:400;font-size:7.3125px;line-height:125%;font-family:Arial;text-align:start;letter-spacing:0px;word-spacing:0px;text-anchor:start;fill:#000000;fill-opacity:1;stroke:none;stroke-width:0.690089;stroke-dasharray:none"
         transform="translate(385.17359,664.0665)"
         x="0"
         y="0"
         id="text84"><tspan
           sodipodi:role="line"
           x="0"
           y="0"
           id="tspan84"><tspan
             dx="0"
             dy="0"
             style="font-style:normal;font-variant:normal;font-weight:400;font-size:7.3125px;font-family:Arial;fill:#ff0000;stroke-width:0.690089;stroke-dasharray:none"
             id="tspan83">51.8273°</tspan></tspan></text></g></g></svg>
