<?xml version="1.0" encoding="UTF-8"?>
<!-- Created with Inkscape (http://www.inkscape.org/) -->
<svg id="svg1" width="210mm" height="220mm" inkscape:version="1.4 (86a8ad7, 2024-10-11)" sodipodi:docname="8.svg" version="1.1" viewBox="0 0 210 220" xmlns="http://www.w3.org/2000/svg" xmlns:cc="http://creativecommons.org/ns#" xmlns:dc="http://purl.org/dc/elements/1.1/" xmlns:inkscape="http://www.inkscape.org/namespaces/inkscape" xmlns:rdf="http://www.w3.org/1999/02/22-rdf-syntax-ns#" xmlns:sodipodi="http://sodipodi.sourceforge.net/DTD/sodipodi-0.dtd">
 <title id="title2">Los Secretos de las Catedrales. La Catedral Nacional de Washignton D.C</title>
 <sodipodi:namedview id="namedview1" bordercolor="#000000" borderopacity="0.25" inkscape:current-layer="layer1" inkscape:cx="397.85508" inkscape:cy="561.25984" inkscape:deskcolor="#d1d1d1" inkscape:document-units="mm" inkscape:pagecheckerboard="0" inkscape:pageopacity="0.0" inkscape:showpageshadow="2" inkscape:window-height="664" inkscape:window-maximized="1" inkscape:window-width="1366" inkscape:window-x="-8" inkscape:window-y="-8" inkscape:zoom="0.49264169" pagecolor="#ffffff"/>
 <defs id="defs1">
  <pattern id="WMFhbasepattern" width="6" height="6" patternUnits="userSpaceOnUse"/>
 </defs>
 <g id="layer1" inkscape:groupmode="layer" inkscape:label="Capa 1">
  <g id="g2" transform="matrix(1.6175 0 0 1.6175 228.53 -46.068)" stroke-width=".061824">
   <g id="g1" transform="matrix(.26458 0 0 .26458 -214.59 29.994)" stroke-width=".23366">
    <g fill="none" stroke-linecap="round" stroke-linejoin="round" stroke-width=".23366">
     <g stroke="#f0f">
      <path id="path1" d="m577.22 304.5 1.7514-2.2401 1.6699-2.2809 1.5885-2.3623 1.507-2.4031 1.3848-2.4438 1.3441-2.5252 1.2219-2.5252 1.1404-2.6067 1.059-2.6067 0.97752-2.6882 0.85532-2.6882 0.77387-2.7289 0.6924-2.7289 0.57022-2.7696 0.48875-2.8104 0.36657-2.8104 0.28511-2.8104 0.20365-2.8104 0.0815-2.8511v-2.8104l-0.12219-2.8511-0.20365-2.8104-0.32584-2.8104-0.4073-2.8104-0.52948-2.7696-0.61095-2.7696-0.6924-2.7696-0.77387-2.6882-0.89605-2.6882-1.0182-2.6474-1.059-2.6474-1.1812-2.566-1.2626-2.5252-1.3441-2.4845-1.4255-2.4438-1.5477-2.403-1.5885-2.3216-1.6699-2.2809-1.7921-2.1994-1.8328-2.1587-1.9143-2.0772-1.9958-2.0365-2.0365-1.955-2.1179-1.8328-2.1994-1.8328-2.2401-1.7106-2.3216-1.6292-2.3623-1.5477-2.4031-1.4663-2.4845-1.3848-2.5252-1.3034-2.5252-1.1812-2.6067-1.1404-2.6474-1.0182-2.6882-0.93679-2.6882-0.81459-2.7289-0.73314-2.7289-0.65167-2.8104-0.52949-2.7696-0.44803-2.8104-0.36656-2.8104-0.24438-2.8511-0.16292-2.8104-0.0407-2.8104 0.0407-2.8511 0.16292-2.8104 0.24438-2.8104 0.36656-2.7696 0.44803-2.8104 0.52949-2.7289 0.65167-2.7289 0.73314-2.6882 0.81459-2.6882 0.93679-2.6474 1.0182-2.6067 1.1404-2.5252 1.1812-2.5252 1.3034-2.4845 1.3848-2.4031 1.4663-2.3623 1.5477-2.3216 1.6292-2.2401 1.7106-2.1994 1.8328-2.118 1.8328-2.0365 1.955-1.9958 2.0365-1.9143 2.0772-1.8328 2.1587-1.7921 2.1994-1.6699 2.2809-1.5885 2.3216-1.5477 2.403-1.4255 2.4438-1.3441 2.4845-1.2626 2.5252-1.1812 2.566-1.059 2.6474-1.0182 2.6474-0.89605 2.6882-0.77387 2.6882-0.6924 2.7696-0.61095 2.7696-0.52949 2.7696-0.40729 2.8104-0.32584 2.8104-0.20365 2.8104-0.12219 2.8511v2.8104l0.0815 2.8511 0.20365 2.8104 0.28511 2.8104 0.36656 2.8104 0.48876 2.8104 0.57022 2.7696 0.6924 2.7289 0.77387 2.7289 0.85532 2.6882 0.97752 2.6882 1.059 2.6067 1.1404 2.6067 1.2219 2.5252 1.3441 2.5252 1.3848 2.4438 1.507 2.4031 1.5885 2.3623 1.6699 2.2809 1.7514 2.2401"/>
      <path id="path2" d="m595.22 173.26h-160.8v161.05h160.8z"/>
      <path id="path3" d="m514.82 173.26 76.613 161.05"/>
      <path id="path4" d="m514.82 173.26-76.653 161.05"/>
     </g>
     <g stroke="#0ff">
      <path id="path5" d="m577.26 203.08v3.3806"/>
      <path id="path6" d="m577.26 209.35v1.955"/>
      <path id="path7" d="m577.26 214.2v1.9143"/>
      <path id="path8" d="m577.26 219v1.955"/>
      <path id="path9" d="m577.26 223.85v1.9143"/>
      <path id="path10" d="m577.26 228.66v1.9143"/>
      <path id="path11" d="m577.26 233.5v1.9143"/>
      <path id="path12" d="m577.26 238.31v1.9143"/>
      <path id="path13" d="m577.26 243.12v1.955"/>
      <path id="path14" d="m577.26 247.96v1.9143"/>
      <path id="path15" d="m577.26 252.77v1.955"/>
      <path id="path16" d="m577.26 257.62v1.9143"/>
      <path id="path17" d="m577.26 262.42v1.955"/>
      <path id="path18" d="m577.26 267.27v1.9143"/>
      <path id="path19" d="m577.26 272.07v1.9143"/>
      <path id="path20" d="m577.26 276.88v1.955"/>
      <path id="path21" d="m577.26 281.73v1.9143"/>
      <path id="path22" d="m577.26 286.53v1.955"/>
      <path id="path23" d="m577.26 291.38v1.9143"/>
      <path id="path24" d="m577.26 296.19v1.955"/>
      <path id="path25" d="m577.26 301.03v3.5028h-3.1362"/>
      <path id="path26" d="m571.23 304.54h-1.9143"/>
      <path id="path27" d="m566.43 304.54h-1.955"/>
      <path id="path28" d="m561.58 304.54h-1.9143"/>
      <path id="path29" d="m556.78 304.54h-1.955"/>
      <path id="path30" d="m551.93 304.54h-1.9143"/>
      <path id="path31" d="m547.12 304.54h-1.9143"/>
      <path id="path32" d="m542.28 304.54h-1.9143"/>
      <path id="path33" d="m537.47 304.54h-1.9143"/>
      <path id="path34" d="m532.66 304.54h-1.955"/>
      <path id="path35" d="m527.82 304.54h-1.9143"/>
      <path id="path36" d="m523.01 304.54h-1.955"/>
      <path id="path37" d="m518.16 304.54h-1.9143"/>
      <path id="path38" d="m513.36 304.54h-1.955"/>
      <path id="path39" d="m508.51 304.54h-1.9143"/>
      <path id="path40" d="m503.7 304.54h-1.9143"/>
      <path id="path41" d="m498.9 304.54h-1.955"/>
      <path id="path42" d="m494.05 304.54h-1.9143"/>
      <path id="path43" d="m489.25 304.54h-1.955"/>
      <path id="path44" d="m484.4 304.54h-1.9143"/>
      <path id="path45" d="m479.59 304.54h-1.955"/>
      <path id="path46" d="m474.75 304.54h-1.9143"/>
      <path id="path47" d="m469.94 304.54h-1.955"/>
      <path id="path48" d="m465.09 304.54h-1.9143"/>
      <path id="path49" d="m460.29 304.54h-1.9143"/>
      <path id="path50" d="m455.48 304.54h-3.0955v-3.3398"/>
      <path id="path51" d="m452.39 298.3v-1.955"/>
      <path id="path52" d="m452.39 293.46v-1.9143"/>
      <path id="path53" d="m452.39 288.65v-1.955"/>
      <path id="path54" d="m452.39 283.8v-1.9143"/>
      <path id="path55" d="m452.39 279v-1.9143"/>
      <path id="path56" d="m452.39 274.15v-1.9143"/>
      <path id="path57" d="m452.39 269.35v-1.9143"/>
      <path id="path58" d="m452.39 264.54v-1.955"/>
      <path id="path59" d="m452.39 259.69v-1.9143"/>
      <path id="path60" d="m452.39 254.89v-1.955"/>
      <path id="path61" d="m452.39 250.04v-1.9143"/>
      <path id="path62" d="m452.39 245.23v-1.955"/>
      <path id="path63" d="m452.39 240.39v-1.9143"/>
      <path id="path64" d="m452.39 235.58v-1.9143"/>
      <path id="path65" d="m452.39 230.77v-1.955"/>
      <path id="path66" d="m452.39 225.93v-1.9143"/>
      <path id="path67" d="m452.39 221.12v-1.955"/>
      <path id="path68" d="m452.39 216.27v-1.9143"/>
      <path id="path69" d="m452.39 211.47v-1.955"/>
      <path id="path70" d="m452.39 206.62v-3.5435"/>
      <path id="path71" d="m452.39 203.08h3.0955"/>
      <path id="path72" d="m458.37 203.08h1.9143"/>
      <path id="path73" d="m463.18 203.08h1.955"/>
      <path id="path74" d="m468.03 203.08h1.9143"/>
      <path id="path75" d="m472.83 203.08h1.955"/>
      <path id="path76" d="m477.68 203.08h1.9143"/>
      <path id="path77" d="m482.48 203.08h1.9143"/>
      <path id="path78" d="m487.33 203.08h1.9143"/>
      <path id="path79" d="m492.14 203.08h1.9143"/>
      <path id="path80" d="m496.94 203.08h1.955"/>
      <path id="path81" d="m501.79 203.08h1.9143"/>
      <path id="path82" d="m506.6 203.08h1.955"/>
      <path id="path83" d="m511.44 203.08h1.9143"/>
      <path id="path84" d="m516.25 203.08h1.955"/>
      <path id="path85" d="m521.1 203.08h1.9143"/>
      <path id="path86" d="m525.9 203.08h1.9143"/>
      <path id="path87" d="m530.71 203.08h1.955"/>
      <path id="path88" d="m535.56 203.08h1.9143"/>
      <path id="path89" d="m540.36 203.08h1.955"/>
      <path id="path90" d="m545.21 203.08h1.9143"/>
      <path id="path91" d="m550.01 203.08h1.955"/>
      <path id="path92" d="m554.86 203.08h1.9143"/>
      <path id="path93" d="m559.67 203.08h1.955"/>
      <path id="path94" d="m564.51 203.08h1.9143"/>
      <path id="path95" d="m569.32 203.08h1.9143"/>
      <path id="path96" d="m574.13 203.08h3.1362"/>
     </g>
     <g stroke="#212830">
      <path id="path97" d="m454.38 200.59 161.66-199.62"/>
      <path id="path98" d="m579.3 302.01 161.62-199.58"/>
      <path id="path99" d="m617.75 6.5168 82.437 66.96"/>
      <path id="path100" d="m735.17 101.87-18.817-15.274"/>
     </g>
    </g>
    <g fill="#212830" fill-rule="evenodd">
     <path id="path101" d="m618.28 5.9058-1.0182 1.2219-3.2584-3.6657z"/>
     <path id="path102" d="m735.66 101.25-1.0182 1.2626 4.2766 2.403z"/>
     <path id="path103" d="m669.07 76.45-1.0997 0.61095v1.3441l0.2851-0.12219 1.1812-0.57022 0.32583-0.20365 0.97752-0.77386z"/>
     <path id="path104" d="m672.12 74.25h-0.89606l-0.32583 0.52949-0.89606 0.97751-0.93678 0.6924 1.6699 0.28511v8.8384h1.3848z"/>
     <path id="path105" d="m676.4 85.573v-1.5885h1.5885v1.5885z"/>
     <path id="path106" d="m681.65 74.902-0.65168 0.73314-0.57021 1.1404-0.16292 0.61095-0.20365 1.1812-0.0407 1.4255 0.0407 1.3441 0.20365 1.3034 0.36657 1.0997 0.48875 0.85532 0.32584 0.32584 2.2401-0.28511-0.65168-0.12219-0.93678-0.8146-0.0407-0.04073-0.32584-0.81459-0.24438-1.2219-0.0407-1.6292v-0.24438l0.0815-1.5477 0.24438-1.1812 0.36657-0.8146 0.40729-0.44803 1.0997-0.36657z"/>
     <path id="path107" d="m683.69 74.25-0.97752 0.12219-1.059 0.52949 1.9958 0.48876 0.6924 0.12219 0.93679 0.8146h0.0407l0.32583 0.8146 0.20365 1.2219 0.0815 1.6292v0.08146l-0.0815 1.5885-0.20365 1.2219-0.36656 0.8146-0.52949 0.57022-1.059 0.36657-2.2401 0.28511 0.97751 0.65168 1.2626 0.20365 0.97751-0.16292 1.059-0.52949 0.65168-0.6924 0.57022-1.1812 0.16291-0.57022 0.16292-1.2219 0.0815-1.4255v-0.20365l-0.0815-1.3848-0.16292-1.059-0.20364-0.57022-0.48876-1.0997-0.20365-0.28511-0.93678-0.77386-0.36657-0.16292z"/>
     <path id="path108" d="m690.41 74.902-0.65167 0.73314-0.57022 1.1404-0.16292 0.61095-0.20365 1.1812-0.0815 1.4255 0.0815 1.3441 0.20365 1.3034 0.32584 1.0997 0.52949 0.85532 0.32583 0.32584 2.2401-0.28511-0.69241-0.12219-0.93678-0.8146v-0.04073l-0.36657-0.81459-0.20365-1.2219-0.0815-1.6292v-0.24438l0.12219-1.5477 0.20365-1.1812 0.4073-0.8146 0.4073-0.44803 1.0997-0.36657z"/>
     <path id="path109" d="m692.45 74.25-1.0182 0.12219-1.0182 0.52949 1.9958 0.48876 0.69241 0.12219 0.93678 0.8146 0.36657 0.8146 0.20365 1.2219 0.0815 1.6292v0.08146l-0.0815 1.5885-0.20365 1.2219-0.36657 0.8146-0.52949 0.57022-1.059 0.36657-2.2401 0.28511 0.97752 0.65168 1.2626 0.20365 0.97751-0.16292 1.059-0.52949 0.65167-0.6924 0.57022-1.1812 0.16292-0.57022 0.16292-1.2219 0.0815-1.4255v-0.20365l-0.0815-1.3848-0.20365-1.059-0.16292-0.57022-0.52949-1.0997-0.16292-0.28511-0.93678-0.77386-0.36657-0.16292z"/>
     <path id="path110" d="m699.13 74.902-0.65168 0.73314-0.57021 1.1404-0.16292 0.61095-0.16292 1.1812-0.0815 1.4255 0.0815 1.3441 0.20365 1.3034 0.32583 1.0997 0.48876 0.85532 0.32584 0.32584 2.2401-0.28511-0.65167-0.12219-0.93679-0.8146v-0.04073l-0.36656-0.81459-0.20365-1.2219-0.0815-1.6292v-0.24438l0.0815-1.5477 0.24438-1.1812 0.40729-0.8146 0.4073-0.44803 1.0997-0.36657z"/>
     <path id="path111" d="m701.16 74.25-0.97751 0.12219-1.059 0.52949 2.0365 0.48876 0.69241 0.12219 0.93678 0.8146 0.36657 0.8146 0.20365 1.2219 0.0407 1.6292v0.08146l-0.0407 1.5885-0.24438 1.2219-0.32584 0.8146-0.52948 0.57022-1.0997 0.36657-2.2401 0.28511 1.0182 0.65168 1.2219 0.20365 1.0182-0.16292 1.059-0.52949 0.61095-0.6924 0.57021-1.1812 0.16292-0.57022 0.20365-1.2219 0.0407-1.4255v-0.20365l-0.0407-1.3848-0.20365-1.059-0.16292-0.57022-0.52948-1.0997-0.20365-0.28511-0.93679-0.77386-0.32583-0.16292z"/>
     <path id="path112" d="m707.88 74.902-0.65167 0.73314-0.57022 1.1404-0.16292 0.61095-0.20365 1.1812-0.0407 1.4255 0.0407 1.3441 0.20365 1.3034 0.36657 1.0997 0.48876 0.85532 0.32583 0.32584 2.2401-0.28511-0.65168-0.12219-0.93678-0.8146-0.0407-0.04073-0.32584-0.81459-0.24438-1.2219-0.0407-1.6292v-0.24438l0.0815-1.5477 0.24438-1.1812 0.36657-0.8146 0.4073-0.44803 1.1404-0.36657z"/>
     <path id="path113" d="m709.92 74.25-0.97751 0.12219-1.059 0.52949 2.0365 0.48876 0.65167 0.12219 0.93679 0.8146h0.0407l0.32584 0.8146 0.24438 1.2219 0.0407 1.6292v0.08146l-0.0815 1.5885-0.20365 1.2219-0.36657 0.8146-0.48876 0.57022-1.0997 0.36657-2.2401 0.28511 1.0182 0.65168 1.2219 0.20365 1.0182-0.16292 1.0182-0.52949 0.65167-0.6924 0.57022-1.1812 0.16292-0.57022 0.20365-1.2219 0.0407-1.4255v-0.20365l-0.0815-1.3848-0.16292-1.059-0.16292-0.57022-0.52949-1.0997-0.20365-0.28511-0.93678-0.77386-0.32584-0.16292z"/>
     <path id="path114" d="m716.64 74.902-0.65168 0.73314-0.57022 1.1404-0.16291 0.61095-0.20365 1.1812-0.0407 1.4255 0.0407 1.3441 0.20365 1.3034 0.36656 1.0997 0.48876 0.85532 0.32584 0.32584 2.2401-0.28511-0.65167-0.12219-0.97752-0.8146v-0.04073l-0.36656-0.81459-0.20365-1.2219-0.0815-1.6292v-0.24438l0.12219-1.5477 0.24438-1.1812 0.36656-0.8146 0.4073-0.44803 1.0997-0.36657z"/>
     <path id="path115" d="m718.68 74.25-0.97751 0.12219-1.059 0.52949 1.9958 0.48876 0.69241 0.12219 0.93678 0.8146h0.0407l0.32584 0.8146 0.20365 1.2219 0.0815 1.6292v0.08146l-0.0815 1.5885-0.20365 1.2219-0.36657 0.8146-0.52948 0.57022-1.059 0.36657-2.2401 0.28511 0.97751 0.65168 1.2626 0.20365 0.97752-0.16292 1.059-0.52949 0.65168-0.6924 0.57021-1.1812 0.16292-0.57022 0.16292-1.2219 0.0815-1.4255v-0.20365l-0.0815-1.3848-0.16292-1.059-0.20365-0.57022-0.52948-1.0997-0.16292-0.28511-0.93679-0.77386-0.36656-0.16292z"/>
     <path id="path116" d="m725.36 74.902-0.61095 0.73314-0.61094 1.1404-0.16292 0.61095-0.16292 1.1812-0.0815 1.4255 0.0815 1.3441 0.20365 1.3034 0.32584 1.0997 0.52948 0.85532 0.28511 0.32584 2.2401-0.28511-0.65168-0.12219-0.93678-0.8146v-0.04073l-0.36657-0.81459-0.20365-1.2219-0.0815-1.6292v-0.24438l0.0815-1.5477 0.24438-1.1812 0.4073-0.8146 0.4073-0.44803 1.0997-0.36657z"/>
     <path id="path117" d="m727.39 74.25-0.97752 0.12219-1.059 0.52949 2.0365 0.48876 0.6924 0.12219 0.93679 0.8146 0.36657 0.8146 0.20364 1.2219 0.0815 1.6292v0.08146l-0.0815 1.5885-0.20364 1.2219-0.36657 0.8146-0.52949 0.57022-1.0997 0.36657-2.2401 0.28511 1.0182 0.65168 1.2219 0.20365 1.0182-0.16292 1.059-0.52949 0.65168-0.6924 0.57022-1.1812 0.12219-0.57022 0.20364-1.2219 0.0815-1.4255v-0.20365l-0.0815-1.3848-0.20364-1.059-0.16292-0.57022-0.52949-1.0997-0.16292-0.28511-0.97751-0.77386-0.32584-0.16292z"/>
     <path id="path118" d="m734.11 74.902-0.65168 0.73314-0.57022 1.1404-0.16292 0.61095-0.16291 1.1812-0.0815 1.4255 0.0407 1.3441 0.20364 1.3034 0.36657 1.0997 0.48876 0.85532 0.32584 0.32584 2.2401-0.28511-0.65167-0.12219-0.93679-0.8146-0.0407-0.04073-0.32584-0.81459-0.20364-1.2219-0.0815-1.6292v-0.24438l0.0815-1.5477 0.24437-1.1812 0.36657-0.8146 0.4073-0.44803 1.1404-0.36657z"/>
     <path id="path119" d="m736.15 74.25-0.97751 0.12219-1.059 0.52949 2.0365 0.48876 0.65168 0.12219 0.97751 0.8146 0.36657 0.8146 0.20365 1.2219 0.0407 1.6292v0.08146l-0.0407 1.5885-0.24438 1.2219-0.32584 0.8146-0.52948 0.57022-1.0997 0.36657-2.2401 0.28511 1.0182 0.65168 1.2219 0.20365 1.0182-0.16292 1.0182-0.52949 0.65168-0.6924 0.57021-1.1812 0.16292-0.57022 0.20365-1.2219 0.0407-1.4255v-0.20365l-0.0815-1.3848-0.16292-1.059-0.16292-0.57022-0.52948-1.0997-0.20365-0.28511-0.93679-0.77386-0.32584-0.16292z"/>
     <path id="path120" d="m742.87 74.902-0.65168 0.73314-0.57021 1.1404-0.16292 0.61095-0.20365 1.1812-0.0407 1.4255 0.0407 1.3441 0.20365 1.3034 0.36657 1.0997 0.48875 0.85532 0.32584 0.32584 2.2401-0.28511-0.65168-0.12219-0.93678-0.8146-0.0407-0.04073-0.32584-0.81459-0.24438-1.2219-0.0407-1.6292v-0.24438l0.0815-1.5477 0.24438-1.1812 0.36657-0.8146 0.40729-0.44803 1.0997-0.36657z"/>
     <path id="path121" d="m744.91 74.25-0.97752 0.12219-1.059 0.52949 1.9958 0.48876 0.6924 0.12219 0.93679 0.8146h0.0407l0.32583 0.8146 0.20365 1.2219 0.0815 1.6292v0.08146l-0.0815 1.5885-0.20365 1.2219-0.36656 0.8146-0.52949 0.57022-1.059 0.36657-2.2401 0.28511 0.97751 0.65168 1.2626 0.20365 0.97751-0.16292 1.059-0.52949 0.65168-0.6924 0.57022-1.1812 0.16292-0.57022 0.16291-1.2219 0.0815-1.4255v-0.20365l-0.0815-1.3848-0.16291-1.059-0.20365-0.57022-0.48876-1.0997-0.20365-0.28511-0.93678-0.77386-0.32584-0.16292z"/>
    </g>
    <path id="path122" d="m480.53 222.95 1.0182 0.69241 1.0182 0.65167 1.0182 0.61095 1.0182 0.65168" fill="none" stroke="#212830" stroke-linecap="round" stroke-linejoin="round" stroke-width=".23366"/>
    <path id="path123" d="m545.05 225.56 1.0182-0.65168 1.0182-0.61095 1.0182-0.65167 1.0182-0.69241" fill="none" stroke="#212830" stroke-linecap="round" stroke-linejoin="round" stroke-width=".23366"/>
    <g fill="#212830" fill-rule="evenodd">
     <path id="path124" d="m484.97 224.87-0.77387 1.4255 4.6432 1.5477z"/>
     <path id="path125" d="m545.41 226.29-0.73313-1.4255-3.9101 2.9733z"/>
     <path id="path126" d="m493.48 235.83-1.2626 0.12219v0.0407l0.32584 1.059 0.65168 0.85533 2.1179-0.24438-0.24438-0.0407-0.93678-0.44803-0.28511-0.28511z"/>
     <path id="path127" d="m497.76 232.93-2.4438 0.16292 0.57022 0.0815 0.93678 0.52948 0.32584 0.48876 0.24438 1.0997-0.12219 0.8146-0.48876 0.89605-0.44802 0.36657-1.0182 0.28511-2.1179 0.24438 0.0815 0.0815 0.93678 0.48875 1.0997 0.16292 0.8146-0.0815 0.93678-0.40729 0.8146-0.69241 0.12219-0.20365 0.48875-0.97751 0.12219-1.0997v-0.32584l-0.24438-1.059z"/>
     <path id="path128" d="m495.64 232.04-0.81459 0.12218-1.0182 0.48876 3.7879 0.16292-0.89606-0.57022z"/>
     <path id="path129" d="m498.17 228.94h-4.8061l-0.89606 4.969 1.0997 0.12219 0.73314-0.6924 1.0182-0.24438 2.4438-0.16292-0.16292-0.12219-3.7879-0.16292 0.52949-2.566h3.8286z"/>
     <path id="path130" d="m501.14 229.31-0.57022 0.61095-0.48876 1.0182-0.12219 0.48876-0.16292 1.059-0.0815 1.2219 0.0815 1.1404 0.16292 1.0997 0.28511 0.93678 0.44803 0.73314 0.28511 0.28511 1.9143-0.24438-0.57021-0.12219-0.8146-0.6924-0.32583-0.69241-0.16292-1.059-0.0815-1.3848v-0.24437l0.0815-1.3034 0.20365-1.0182 0.32583-0.6924 0.36657-0.4073 0.93678-0.28511z"/>
     <path id="path131" d="m502.89 228.78-0.85532 0.0815-0.89605 0.44802 1.7106 0.44803 0.61095 0.0815 0.77387 0.69241h0.0407l0.2851 0.73313 0.16292 1.0182 0.0815 1.4255v0.0407l-0.0815 1.3848-0.16292 1.0182-0.32583 0.69241-0.44803 0.48875-0.89606 0.32584-1.9143 0.24438 0.81459 0.52948 1.0997 0.20365 0.85533-0.12219 0.89605-0.44802 0.52949-0.61095 0.48876-1.0182 0.16292-0.48876 0.16291-1.0182 0.0407-1.2219v-0.16291l-0.0815-1.2219-0.12219-0.89605-0.16292-0.52949-0.44803-0.93678-0.16292-0.20365-0.81459-0.69241-0.28511-0.12218z"/>
     <path id="path132" d="m507.9 238.47v-1.3441h1.3441v1.3441z"/>
     <path id="path133" d="m512.3 236.11-1.1404 0.12219 0.24438 0.93678 0.61095 0.8146 1.8736-0.32584h-0.0407l-1.0182-0.36657-0.12219-0.12219z"/>
     <path id="path134" d="m515.15 233.83-1.0182 0.32584-2.3216 0.16292 0.0815 0.0815 0.85532 0.57022 1.059 0.20365h0.32583l1.0182-0.32584 0.20365-0.16292 0.77386-0.77387z"/>
     <path id="path135" d="m511.85 229.68-0.28511 0.28511-0.44803 0.93678-0.16292 1.1404 0.0407 0.32583 0.24438 1.0997 0.57022 0.85532 2.3216-0.16292-0.48875-0.0815-0.89606-0.52948-0.32584-0.4073-0.24437-1.059 0.12218-0.77387 0.48876-0.93678 0.36657-0.32584 0.97751-0.28511z"/>
     <path id="path136" d="m514.01 228.78h-0.24437l-1.059 0.24437-0.85532 0.65168 2.2809 0.0815 0.4073 0.0407 0.93678 0.52949 0.32584 0.52948 0.20365 1.0997-0.0815 0.6924-0.44803 0.89606-0.32583 0.2851 0.97751 0.0815v0.61095l-0.16292 1.059-0.0407 0.12219-0.4073 1.0182-0.65167 0.6924-0.97752 0.24438-1.8736 0.32584 0.73313 0.44802 1.0997 0.20365 0.89606-0.12219 0.97751-0.44802 0.65168-0.69241 0.52949-0.97751 0.20364-0.61095 0.16292-1.059 0.0407-1.3034v-0.65168l-0.12219-1.1812-0.2851-0.89606-0.4073-0.6924-0.77387-0.73314-0.65167-0.32583z"/>
     <path id="path137" d="m519.71 235.83-1.2626 0.12219 0.0407 0.0407 0.2851 1.059 0.65168 0.85533 2.1587-0.24438-0.28511-0.0407-0.93679-0.44803-0.2851-0.28511z"/>
     <path id="path138" d="m523.99 232.93-2.4438 0.16292 0.57021 0.0815 0.93679 0.52948 0.32583 0.48876 0.24438 1.0997-0.12219 0.8146-0.48875 0.89605-0.4073 0.36657-1.0182 0.28511-2.1587 0.24438 0.0815 0.0815 0.93678 0.48875 1.1404 0.16292 0.77386-0.0815 0.93678-0.40729 0.8146-0.69241 0.12219-0.20365 0.48876-0.97751 0.12219-1.0997v-0.32584l-0.24438-1.059z"/>
     <path id="path139" d="m521.87 232.04-0.81459 0.12218-1.0182 0.48876 3.8286 0.16292-0.93678-0.57022z"/>
     <path id="path140" d="m524.4 228.94h-4.7654l-0.93679 4.969 1.0997 0.12219 0.73313-0.6924 1.0182-0.24438 2.4438-0.16292-0.12219-0.12219-3.8286-0.16292 0.52948-2.566h3.8286z"/>
     <path id="path141" d="m531.44 233.06-2.2401 0.20365 0.40729 0.0407 0.93679 0.52948 0.32584 0.44803 0.20365 1.0997-0.0815 0.77387-0.44803 0.89605-0.32584 0.28511-0.97751 0.32584 1.9958 0.24438 0.65168-0.89606 0.24438-0.57021 0.16292-1.0997-0.0407-0.32583-0.24438-1.059z"/>
     <path id="path142" d="m529.45 232.2h-0.24438l-1.059 0.32584-0.2851 0.16292-0.77387 0.77387 1.0997 0.0815 1.0182-0.28511 2.2401-0.20365-0.0407-0.0815-0.89605-0.57022z"/>
     <path id="path143" d="m531.24 229.39-1.955 0.32584 0.24438 0.0407 0.93678 0.48876h0.0407l0.4073 1.0182 1.1812-0.0815-0.24438-0.93678z"/>
     <path id="path144" d="m529.36 228.78-0.65168 0.0407-0.97751 0.36656-0.77387 0.69241-0.44803 0.65168-0.32583 0.93678-0.20365 1.1404-0.0815 1.3441 0.0407 0.61095 0.12219 1.2219 0.32584 1.0182 0.44802 0.73313 0.4073 0.4073 0.93678 0.52948 1.059 0.16292 0.57021-0.0407 1.0182-0.36656 0.40729-0.32584-1.9958-0.24438-0.97752-0.28511-0.0407-0.0407-0.6924-0.81459-0.0407-0.12219-0.20365-1.059 0.0407-0.61094 0.48876-0.89606 0.36656-0.2851-1.0997-0.0815v-0.0407l0.0815-1.2626 0.24438-0.89605 0.20365-0.4073 0.6924-0.81459 0.97752-0.32584 1.955-0.32584-0.77386-0.44802z"/>
     <path id="path145" d="m534.29 229.19-0.24438 0.24438-0.32584 1.0182 0.0407 0.36656 0.52949 0.93679 0.24437 0.24438 1.0182 0.2851 0.36656-0.0407 0.93679-0.48875-1.3034-0.16292-0.77387-0.32584-0.32584-0.81459 0.32584-0.77387 0.77387-0.32584z"/>
     <path id="path146" d="m535.56 228.62-0.32584 0.0407-0.93678 0.52948 1.2626 0.16292 0.81459 0.32584 0.32584 0.77387-0.32584 0.81459-0.81459 0.32584 1.3034 0.16292 0.24438-0.28511 0.28511-1.0182-0.0407-0.32584-0.48876-0.93679-0.28511-0.24437z"/>
    </g>
    <g fill="none" stroke-linecap="round" stroke-linejoin="round" stroke-width=".23366">
     <g stroke="#f00">
      <path id="path147" d="m678.56 179.46-124.88-101.46"/>
      <path id="path148" d="m475.97 429.58-124.88-101.42"/>
      <path id="path149" d="m351.09 328.16 101.29-125.08"/>
      <path id="path150" d="m475.97 429.58 101.29-125.04"/>
      <path id="path151" d="m452.39 203.08 101.29-125.08"/>
     </g>
     <g stroke="#212830">
      <path id="path152" d="m348.57 326.12-61.868-50.26"/>
      <path id="path153" d="m551.15 75.961-61.868-50.26"/>
      <path id="path154" d="m292.24 274.11 92.945-114.74"/>
      <path id="path155" d="m488.72 31.484-92.905 114.78"/>
     </g>
    </g>
    <g fill="#212830" fill-rule="evenodd">
     <path id="path156" d="m291.58 273.62 1.2626 1.0182-3.6657 3.2584z"/>
     <path id="path157" d="m488.11 30.955 1.2626 1.0182 2.4031-4.2359z"/>
     <path id="path158" d="m350.76 148.01-0.65167 0.97751-0.28511 1.3034 1.4255 0.12218 0.0407-0.61094 0.57021-1.0182 0.36657-0.32583 1.2219-0.28511z"/>
     <path id="path159" d="m353.49 147.03h-0.32583l-1.2626 0.24437-0.97751 0.57022-0.16292 0.16292 2.6882 0.16292 0.48876 0.0407 1.059 0.52948 0.20365 0.24438 0.36657 1.1404-0.0815 0.48875-0.57022 1.1812-0.44802 0.48875-0.85533 0.85533-1.1812 1.0182-1.0182 0.89605-0.77387 0.8146-0.32584 0.44803-0.61094 1.059-0.16292 0.97751h7.4535v-1.3441h-5.4985l0.57021-0.73313 0.44803-0.44803 1.1404-0.97751 0.4073-0.32584 1.0182-0.93679 0.73314-0.73313 0.28511-0.32584 0.61094-1.059 0.0407-0.0815 0.24438-1.2219v-0.0407l-0.24438-1.2219-0.6924-0.97751-0.24438-0.20365-1.0182-0.52949z"/>
     <path id="path160" d="m359.28 158.36v-1.5885h1.5477v1.5885z"/>
     <path id="path161" d="m364.49 147.69-0.65167 0.69241-0.57022 1.1812-0.16292 0.61095-0.20365 1.1812-0.0407 1.4255 0.0407 1.3441 0.20365 1.3034 0.36657 1.0997 0.48876 0.85532 0.32584 0.32584 2.2401-0.32584-0.65167-0.12219-0.93679-0.77386-0.0407-0.0407-0.32584-0.8146-0.24437-1.2219-0.0407-1.6292v-0.24438l0.0815-1.5477 0.24438-1.1812 0.36657-0.8146 0.4073-0.44802 1.1404-0.36657z"/>
     <path id="path162" d="m366.53 147.03-0.97751 0.12218-1.059 0.52949 2.0365 0.48876 0.65168 0.12219 0.93678 0.77386 0.0407 0.0407 0.32584 0.8146 0.20365 1.2219 0.0815 1.6292v0.0815l-0.0815 1.5885-0.20365 1.2219-0.36657 0.8146-0.52949 0.52948-1.059 0.36657-2.2401 0.32584 0.97751 0.61094 1.2626 0.20365 0.97751-0.12219 1.059-0.52948 0.65167-0.69241 0.57022-1.1812 0.16292-0.57022 0.16292-1.2219 0.0815-1.4255v-0.20365l-0.0815-1.3848-0.16292-1.059-0.20365-0.61095-0.48876-1.059-0.20365-0.28511-0.93678-0.77387-0.32584-0.16292z"/>
     <path id="path163" d="m373.25 147.69-0.65168 0.69241-0.57021 1.1812-0.16292 0.61095-0.20365 1.1812-0.0815 1.4255 0.0815 1.3441 0.20365 1.3034 0.36656 1.0997 0.48876 0.85532 0.32584 0.32584 2.2401-0.32584-0.69241-0.12219-0.93678-0.77386v-0.0407l-0.36657-0.8146-0.20365-1.2219-0.0815-1.6292v-0.24438l0.12219-1.5477 0.24438-1.1812 0.36657-0.8146 0.40729-0.44802 1.0997-0.36657z"/>
     <path id="path164" d="m375.28 147.03-1.0182 0.12218-1.0182 0.52949 1.9958 0.48876 0.6924 0.12219 0.93679 0.77386v0.0407l0.36656 0.8146 0.20365 1.2219 0.0815 1.6292v0.0815l-0.0815 1.5885-0.20365 1.2219-0.36656 0.8146-0.52949 0.52948-1.059 0.36657-2.2401 0.32584 0.97751 0.61094 1.2626 0.20365 0.97751-0.12219 1.059-0.52948 0.65168-0.69241 0.57021-1.1812 0.16292-0.57022 0.16292-1.2219 0.0815-1.4255v-0.20365l-0.0815-1.3848-0.20365-1.059-0.16292-0.61095-0.52948-1.059-0.16292-0.28511-0.93678-0.77387-0.36657-0.16292z"/>
     <path id="path165" d="m381.96 147.69-0.65167 0.69241-0.57022 1.1812-0.16292 0.61095-0.16292 1.1812-0.0815 1.4255 0.0815 1.3441 0.20365 1.3034 0.32584 1.0997 0.52949 0.85532 0.2851 0.32584 2.2401-0.32584-0.65168-0.12219-0.93678-0.77386v-0.0407l-0.36657-0.8146-0.20365-1.2219-0.0815-1.6292v-0.24438l0.0815-1.5477 0.24438-1.1812 0.4073-0.8146 0.4073-0.44802 1.0997-0.3666z"/>
     <path id="path166" d="m384 147.03-0.97751 0.12218-1.059 0.52949 2.0365 0.48876 0.69241 0.12219 0.93678 0.77386v0.0407l0.36657 0.8146 0.20365 1.2219 0.0815 1.6292v0.0815l-0.0815 1.5885-0.24438 1.2219-0.32584 0.8146-0.52949 0.52948-1.0997 0.36657-2.2401 0.32584 1.0182 0.61094 1.2219 0.20365 1.0182-0.12219 1.059-0.52948 0.61094-0.69241 0.57022-1.1812 0.16292-0.57022 0.20365-1.2219 0.0407-1.4255v-0.20365l-0.0407-1.3848-0.20365-1.059-0.16292-0.61095-0.52949-1.059-0.20365-0.28511-0.93678-0.77387-0.32584-0.16292z"/>
     <path id="path167" d="m390.72 147.69-0.65168 0.69241-0.57021 1.1812-0.16292 0.61095-0.20365 1.1812-0.0407 1.4255 0.0407 1.3441 0.20365 1.3034 0.36656 1.0997 0.48876 0.85532 0.32584 0.32584 2.2401-0.32584-0.65167-0.12219-0.93679-0.77386-0.0407-0.0407-0.32583-0.8146-0.20365-1.2219-0.0815-1.6292v-0.24438l0.0815-1.5477 0.24438-1.1812 0.36656-0.8146 0.4073-0.44802 1.1404-0.36657z"/>
     <path id="path168" d="m392.76 147.03-0.97751 0.12218-1.059 0.52949 2.0365 0.48876 0.65168 0.12219 0.93678 0.77386 0.0407 0.0407 0.32584 0.8146 0.24438 1.2219 0.0407 1.6292v0.0815l-0.0815 1.5885-0.20365 1.2219-0.36657 0.8146-0.48875 0.52948-1.0997 0.36657-2.2401 0.32584 1.0182 0.61094 1.2219 0.20365 1.0182-0.12219 1.0182-0.52948 0.65168-0.69241 0.57021-1.1812 0.16292-0.57022 0.20365-1.2219 0.0407-1.4255v-0.20365l-0.0815-1.3848-0.16292-1.059-0.16292-0.61095-0.52948-1.059-0.20365-0.28511-0.93679-0.77387-0.32583-0.16292z"/>
     <path id="path169" d="m399.48 147.69-0.65167 0.69241-0.57022 1.1812-0.16292 0.61095-0.20365 1.1812-0.0407 1.4255 0.0407 1.3441 0.20365 1.3034 0.36657 1.0997 0.48876 0.85532 0.32583 0.32584 2.2401-0.32584-0.65168-0.12219-0.93678-0.77386-0.0407-0.0407-0.36657-0.8146-0.20365-1.2219-0.0407-1.6292v-0.24438l0.0815-1.5477 0.24438-1.1812 0.36657-0.8146 0.4073-0.44802 1.0997-0.36657z"/>
     <path id="path170" d="m401.51 147.03-0.97752 0.12218-1.059 0.52949 1.9958 0.48876 0.6924 0.12219 0.93679 0.77386 0.0407 0.0407 0.32584 0.8146 0.20364 1.2219 0.0815 1.6292v0.0815l-0.0815 1.5885-0.20364 1.2219-0.36657 0.8146-0.52949 0.52948-1.059 0.36657-2.2401 0.32584 0.97752 0.61094 1.2626 0.20365 0.97751-0.12219 1.059-0.52948 0.65167-0.69241 0.57022-1.1812 0.16292-0.57022 0.16292-1.2219 0.0815-1.4255v-0.20365l-0.0815-1.3848-0.16292-1.059-0.20365-0.61095-0.52949-1.059-0.16292-0.28511-0.93678-0.77387-0.36657-0.16292z"/>
     <path id="path171" d="m408.23 147.69-0.65168 0.69241-0.57022 1.1812-0.20364 0.61095-0.16292 1.1812-0.0815 1.4255 0.0815 1.3441 0.20364 1.3034 0.32584 1.0997 0.52949 0.85532 0.32584 0.32584 2.1994-0.32584-0.65167-0.12219-0.93679-0.77386v-0.0407l-0.36656-0.8146-0.20365-1.2219-0.0815-1.6292v-0.24438l0.12219-1.5477 0.20365-1.1812 0.40729-0.8146 0.4073-0.44802 1.0997-0.36657z"/>
     <path id="path172" d="m410.23 147.03-0.97751 0.12218-1.0182 0.52949 1.9958 0.48876 0.69241 0.12219 0.93678 0.77386v0.0407l0.36657 0.8146 0.20365 1.2219 0.0815 1.6292v0.0815l-0.0815 1.5885-0.20365 1.2219-0.36657 0.8146-0.52948 0.52948-1.0997 0.36657-2.1994 0.32584 0.97751 0.61094 1.2219 0.20365 1.0182-0.12219 1.059-0.52948 0.65168-0.69241 0.57021-1.1812 0.16292-0.57022 0.16292-1.2219 0.0815-1.4255v-0.20365l-0.0815-1.3848-0.20365-1.059-0.16292-0.61095-0.52948-1.059-0.16292-0.28511-0.97752-0.77387-0.32583-0.16292z"/>
     <path id="path173" d="m416.95 147.69-0.65168 0.69241-0.57021 1.1812-0.16292 0.61095-0.16292 1.1812-0.0815 1.4255 0.0407 1.3441 0.20365 1.3034 0.36657 1.0997 0.48875 0.85532 0.32584 0.32584 2.2401-0.32584-0.65168-0.12219-0.93678-0.77386v-0.0407l-0.36657-0.8146-0.20365-1.2219-0.0815-1.6292v-0.24438l0.0815-1.5477 0.24438-1.1812 0.36657-0.8146 0.40729-0.44802 1.1404-0.36657z"/>
     <path id="path174" d="m418.99 147.03-0.97752 0.12218-1.059 0.52949 2.0365 0.48876 0.65167 0.12219 0.97752 0.77386v0.0407l0.36657 0.8146 0.20364 1.2219 0.0407 1.6292v0.0815l-0.0407 1.5885-0.24437 1.2219-0.32584 0.8146-0.52949 0.52948-1.0997 0.36657-2.2401 0.32584 1.0182 0.61094 1.2219 0.20365 1.0182-0.12219 1.059-0.52948 0.61095-0.69241 0.57022-1.1812 0.16292-0.57022 0.20364-1.2219 0.0407-1.4255v-0.20365l-0.0407-1.3848-0.20364-1.059-0.16292-0.61095-0.52949-1.059-0.20365-0.28511-0.93678-0.77387-0.32584-0.16292z"/>
     <path id="path175" d="m425.71 147.69-0.65167 0.69241-0.57022 1.1812-0.16292 0.61095-0.20364 1.1812-0.0407 1.4255 0.0407 1.3441 0.20364 1.3034 0.36657 1.0997 0.48876 0.85532 0.32584 0.32584 2.2401-0.32584-0.65167-0.12219-0.93679-0.77386-0.0407-0.0407-0.32584-0.8146-0.24437-1.2219-0.0407-1.6292v-0.24438l0.0815-1.5477 0.24437-1.1812 0.36657-0.8146 0.4073-0.44802 1.1404-0.36657z"/>
     <path id="path176" d="m427.74 147.03-0.97751 0.12218-1.059 0.52949 2.0365 0.48876 0.65168 0.12219 0.93678 0.77386 0.0407 0.0407 0.32584 0.8146 0.20365 1.2219 0.0815 1.6292v0.0815l-0.0815 1.5885-0.20365 1.2219-0.36657 0.8146-0.52948 0.52948-1.059 0.36657-2.2401 0.32584 0.97751 0.61094 1.2626 0.20365 0.97752-0.12219 1.059-0.52948 0.65167-0.69241 0.57022-1.1812 0.16292-0.57022 0.20365-1.2219 0.0407-1.4255v-0.20365l-0.0815-1.3848-0.16292-1.059-0.20365-0.61095-0.48876-1.059-0.20364-0.28511-0.93679-0.77387-0.32584-0.16292z"/>
    </g>
    <g fill="none" stroke="#212830" stroke-linecap="round" stroke-linejoin="round" stroke-width=".23366">
     <path id="path177" d="m556.82 78.69 198.6 44.029"/>
     <path id="path178" d="m479.1 430.31 198.6 43.988"/>
     <path id="path179" d="m751.22 126.75-36.046 163.08"/>
     <path id="path180" d="m675.62 468.88 36.657-165.93"/>
    </g>
    <g fill="#212830" fill-rule="evenodd">
     <path id="path181" d="m750.45 126.55 1.5477 0.36656 0.28511-4.8876z"/>
     <path id="path182" d="m674.81 468.72 1.5885 0.36657-1.8328 4.521z"/>
     <path id="path183" d="m687.11 291.62-0.65167 0.97751-0.28511 1.2626 1.4255 0.16292 0.0407-0.65167 0.57022-1.0182 0.36656-0.32584 1.2219-0.2851z"/>
     <path id="path184" d="m689.84 290.61h-0.32584l-1.2626 0.24438-0.97752 0.57022-0.16292 0.20365 2.6882 0.12219 0.48875 0.0407 1.059 0.52948 0.20365 0.24438 0.36656 1.1404-0.0815 0.48876-0.57021 1.1812-0.44803 0.52949-0.85532 0.85532-1.1812 1.0182-1.0182 0.89605-0.77387 0.8146-0.32583 0.40729-0.61095 1.059-0.12219 0.97751h7.4128v-1.3441h-5.4985l0.57022-0.73314 0.44802-0.40729 1.1404-1.0182 0.40729-0.32583 1.0182-0.93679 0.73313-0.73313 0.28511-0.32584 0.61095-1.0182 0.0407-0.12218 0.24437-1.2219v-0.0407l-0.24437-1.1812-0.69241-1.0182-0.24438-0.20365-1.0182-0.52949z"/>
     <path id="path185" d="m695.62 301.93v-1.5885h1.5477v1.5885z"/>
     <path id="path186" d="m700.23 291.62-0.65168 0.97751-0.2851 1.2626 1.4255 0.16292 0.0407-0.65167 0.57021-1.0182 0.36657-0.32584 1.2219-0.2851z"/>
     <path id="path187" d="m702.95 290.61h-0.32583l-1.2626 0.24438-0.97751 0.57022-0.16292 0.20365 2.6882 0.12219 0.48876 0.0407 1.059 0.52948 0.20365 0.24438 0.36657 1.1404-0.0815 0.48876-0.57022 1.1812-0.44802 0.52949-0.85533 0.85532-1.1812 1.0182-1.0182 0.89605-0.77387 0.8146-0.32584 0.40729-0.61094 1.059-0.12219 0.97751h7.4128v-1.3441h-5.4985l0.57021-0.73314 0.44803-0.40729 1.1404-1.0182 0.4073-0.32583 1.0182-0.93679 0.73314-0.73313 0.28511-0.32584 0.61094-1.0182 0.0407-0.12218 0.24438-1.2219v-0.0407l-0.24438-1.1812-0.6924-1.0182-0.24438-0.20365-1.0182-0.52949z"/>
     <path id="path188" d="m709.35 298.75-1.3848 0.20365v0.16292l0.36657 1.1812 0.73313 0.93679 0.16292 0.12219 1.059 0.57021 1.2626 0.20365 0.52949-0.0407 1.1812-0.32584 0.97751-0.65167-2.6882-0.12219-0.32584-0.0407-1.059-0.48876-0.36657-0.44803z"/>
     <path id="path189" d="m714.36 296.35-2.6882 0.0815 0.52948 0.0407 1.0182 0.57021 0.32584 0.4073 0.32583 1.1812-0.0815 0.65168-0.61094 1.0182-0.44803 0.36657-1.1812 0.32584 2.6882 0.12219 0.24438-0.28511 0.65168-1.0182 0.20364-1.2219-0.0815-0.73313-0.48876-1.0997z"/>
     <path id="path190" d="m710.82 295.37-0.12219 1.2219 0.97752-0.16292 2.6882-0.0815-1.1404-0.52949 0.28511-0.12219-2.4438-0.32584z"/>
     <path id="path191" d="m709.23 291.38-0.73313 0.93678-0.4073 1.2219 1.3848 0.24438 0.12219-0.52948 0.57022-1.0182 0.20365-0.12219 1.1404-0.36656z"/>
     <path id="path192" d="m711.47 290.61-1.1812 0.16292-1.059 0.61095 2.2809 0.36657h0.24438l1.0997 0.48875 0.12219 0.12219 0.36657 1.1404-0.0407 0.48875-0.65168 0.93679-0.36657 0.20364-1.2219 0.24438 2.4438 0.32584 0.89605-0.81459 0.0815-0.16292 0.28511-1.1812v-0.2851l-0.4073-1.1812-0.20365-0.2851-0.97751-0.77387-0.44803-0.20365z"/>
     <path id="path193" d="m723.12 295.62-2.6474 0.20365 0.48876 0.0815 1.059 0.61095 0.36657 0.52948 0.28511 1.3034-0.12219 0.85533-0.52949 1.059-0.32584 0.32584-1.1812 0.4073 2.3216 0.28511 0.77386-1.059 0.28511-0.65167 0.16292-1.3034v-0.36656l-0.28511-1.2626z"/>
     <path id="path194" d="m720.75 294.6-0.28511 0.0407-1.2626 0.32584-0.32584 0.20364-0.85532 0.93679 1.2626 0.0815 1.1812-0.36657 2.6474-0.20365-0.0815-0.0815-1.059-0.6924z"/>
     <path id="path195" d="m722.83 291.34-2.2401 0.4073h0.28511l1.0997 0.61094 0.52949 1.1812 1.3441-0.12218-0.28511-1.0997z"/>
     <path id="path196" d="m720.67 290.61-0.73313 0.0815-1.1812 0.4073-0.93678 0.8146-0.48876 0.77386-0.36657 1.0997-0.24437 1.3034-0.0815 1.5477v0.77386l0.20365 1.4255 0.32583 1.1404 0.57022 0.85533 0.48876 0.48876 1.059 0.61094 1.2626 0.20365 0.61095-0.0815 1.1812-0.4073 0.48876-0.36656-2.3216-0.28511-1.1404-0.36657h-0.0407l-0.8146-0.97751-0.0407-0.12219-0.24437-1.2626 0.0815-0.6924 0.57021-1.059 0.4073-0.32584-1.2626-0.0815v-0.0815l0.0815-1.4255 0.28511-1.0997 0.24437-0.44803 0.77387-0.93679 1.1812-0.36656 2.2401-0.4073-0.85533-0.52949z"/>
     <path id="path197" d="m727.07 291.26-0.65168 0.73313-0.57021 1.1404-0.16292 0.61094-0.16292 1.1812-0.0815 1.4255 0.0407 1.3441 0.20365 1.3441 0.36657 1.059 0.48875 0.85533 0.32584 0.36657 2.2401-0.32584-0.65168-0.12219-0.93678-0.8146-0.0407-0.0407-0.32584-0.81459-0.20365-1.2219-0.0815-1.6292v-0.24438l0.0815-1.507 0.24438-1.2219 0.36657-0.8146 0.40729-0.44803 1.1404-0.36656z"/>
     <path id="path198" d="m729.1 290.61-0.97752 0.12219-1.059 0.52949 2.0365 0.48876 0.65167 0.12219 0.97752 0.81459 0.36656 0.8146 0.20365 1.2626 0.0407 1.5885v0.0815l-0.0407 1.6292-0.24438 1.1812-0.32583 0.81459-0.52949 0.57022-1.0997 0.36657-2.2401 0.32584 1.0182 0.61094 1.2219 0.20365 1.0182-0.12219 1.0182-0.57022 0.65168-0.6924 0.57022-1.1812 0.16292-0.57022 0.20364-1.1812 0.0407-1.4663v-0.16292l-0.0815-1.3848-0.16291-1.0997-0.16292-0.57021-0.52949-1.0997-0.20365-0.2851-0.93678-0.77387-0.32584-0.16292z"/>
     <path id="path199" d="m741.57 290.81h-7.2906v1.3034h5.4985l-0.57022 0.77387-0.73313 1.0182-0.65168 1.1812-0.0815 0.12219-0.52948 1.1404-0.48876 1.1812-0.36657 1.1812-0.16292 0.8146-0.24438 1.3034-0.0815 1.0997h1.4256l0.0407-0.65167 0.20365-1.2626 0.28511-1.1812 0.12219-0.44803 0.4073-1.1812 0.48876-1.1404 0.61094-1.1404 0.65168-1.1404 0.73313-1.059 0.73314-0.85532z"/>
    </g>
    <g fill="none" stroke-linecap="round" stroke-linejoin="round" stroke-width=".23366">
     <g stroke="#0ff">
      <path id="path200" d="m475.97 429.58 0.44802-2.1994"/>
      <path id="path201" d="m477.07 424.57 0.4073-1.8736"/>
      <path id="path202" d="m478.09 419.84 0.44803-1.8736"/>
      <path id="path203" d="m479.14 415.16 0.40729-1.9143"/>
      <path id="path204" d="m480.16 410.43 0.44803-1.8736"/>
      <path id="path205" d="m481.22 405.71 0.4073-1.8736"/>
      <path id="path206" d="m482.28 401.03 0.40729-1.8736"/>
      <path id="path207" d="m483.3 396.3 0.4073-1.8736"/>
      <path id="path208" d="m484.36 391.58 0.4073-1.8736"/>
      <path id="path209" d="m485.38 386.89 0.44802-1.8736"/>
      <path id="path210" d="m486.44 382.17 0.4073-1.8736"/>
      <path id="path211" d="m487.45 377.48 0.44803-1.9143"/>
      <path id="path212" d="m488.51 372.76 0.40729-1.8736"/>
      <path id="path213" d="m489.57 368.03 0.4073-1.8736"/>
      <path id="path214" d="m490.59 363.35 0.4073-1.9143"/>
      <path id="path215" d="m491.65 358.63 0.40729-1.8736"/>
      <path id="path216" d="m492.67 353.9 0.4073-1.8736"/>
      <path id="path217" d="m493.73 349.22 0.4073-1.9143"/>
      <path id="path218" d="m494.74 344.49 0.44802-1.8736"/>
      <path id="path219" d="m495.8 339.77 0.4073-1.8736"/>
      <path id="path220" d="m496.82 335.08 0.44803-1.9143"/>
      <path id="path221" d="m497.88 330.36 0.40729-1.8736"/>
      <path id="path222" d="m498.94 325.63 0.4073-1.8736"/>
      <path id="path223" d="m499.96 320.95 0.4073-1.9143"/>
      <path id="path224" d="m501.02 316.23 0.40729-1.8736"/>
      <path id="path225" d="m502.03 311.5 0.44803-1.8736"/>
      <path id="path226" d="m503.09 306.82 0.4073-1.8736"/>
      <path id="path227" d="m504.11 302.09 0.44802-1.8736"/>
      <path id="path228" d="m505.17 297.37 0.4073-1.8736"/>
      <path id="path229" d="m506.23 292.68 0.4073-1.8736"/>
      <path id="path230" d="m507.25 287.96 0.40729-1.8736"/>
      <path id="path231" d="m508.31 283.28 0.4073-1.9143"/>
      <path id="path232" d="m509.33 278.55 0.4073-1.8736"/>
      <path id="path233" d="m510.38 273.83 0.40729-1.8736"/>
      <path id="path234" d="m511.4 269.14 0.44803-1.9143"/>
      <path id="path235" d="m512.46 264.42 0.4073-1.8736"/>
      <path id="path236" d="m513.48 259.69 0.44802-1.8736"/>
      <path id="path237" d="m514.54 255.01 0.4073-1.9143"/>
      <path id="path238" d="m515.6 250.28 0.4073-1.8736"/>
      <path id="path239" d="m516.62 245.56 0.40729-1.8736"/>
      <path id="path240" d="m517.68 240.88 0.4073-1.9143"/>
      <path id="path241" d="m518.69 236.15 0.44803-1.8736"/>
      <path id="path242" d="m519.75 231.43 0.40729-1.8736"/>
      <path id="path243" d="m520.77 226.74 0.44803-1.9143"/>
      <path id="path244" d="m521.83 222.02 0.4073-1.8736"/>
      <path id="path245" d="m522.89 217.29 0.40729-1.8736"/>
      <path id="path246" d="m523.91 212.61 0.4073-1.8736"/>
      <path id="path247" d="m524.97 207.88 0.4073-1.8736"/>
      <path id="path248" d="m525.98 203.2 0.4073-1.9143"/>
      <path id="path249" d="m527.04 198.48 0.4073-1.8736"/>
      <path id="path250" d="m528.06 193.75 0.44803-1.8736"/>
      <path id="path251" d="m529.12 189.07 0.4073-1.9143"/>
      <path id="path252" d="m530.14 184.34 0.44803-1.8736"/>
      <path id="path253" d="m531.2 179.62 0.4073-1.8736"/>
      <path id="path254" d="m532.26 174.93 0.4073-1.9143"/>
      <path id="path255" d="m533.27 170.21 0.4073-1.8736"/>
      <path id="path256" d="m534.33 165.48 0.4073-1.8736"/>
      <path id="path257" d="m535.35 160.8 0.44803-1.9143"/>
      <path id="path258" d="m536.41 156.08 0.4073-1.8736"/>
      <path id="path259" d="m537.43 151.35 0.44802-1.8736"/>
      <path id="path260" d="m538.49 146.67 0.4073-1.9143"/>
      <path id="path261" d="m539.55 141.94 0.4073-1.8736"/>
      <path id="path262" d="m540.57 137.22 0.40729-1.8736"/>
      <path id="path263" d="m541.62 132.53 0.4073-1.8736"/>
      <path id="path264" d="m542.64 127.81 0.4073-1.8736"/>
      <path id="path265" d="m543.7 123.09 0.40729-1.8736"/>
      <path id="path266" d="m544.72 118.4 0.44803-1.8736"/>
      <path id="path267" d="m545.78 113.68 0.4073-1.8736"/>
      <path id="path268" d="m546.84 108.99 0.40729-1.9143"/>
      <path id="path269" d="m547.86 104.27 0.4073-1.8736"/>
      <path id="path270" d="m548.91 99.543 0.4073-1.8736"/>
      <path id="path271" d="m549.93 94.86 0.40729-1.9143"/>
      <path id="path272" d="m550.99 90.135 0.4073-1.8736"/>
      <path id="path273" d="m552.01 85.41 0.44803-1.8736"/>
      <path id="path274" d="m553.07 80.726 0.12218-0.48876 0.44803-2.1994"/>
     </g>
     <path id="path275" d="m537.1 209.03 0.6924-0.73313 0.65168-0.8146 0.61094-0.85532 0.52949-0.89606 0.44803-0.93678 0.4073-0.97752 0.32583-0.97751 0.24438-1.0182 0.20365-1.0182 0.0815-1.059" stroke="#0f0"/>
     <path id="path276" d="m540.73 194.57-0.36656-0.97751-0.4073-0.93678-0.44803-0.93679-1.1404-1.7106-0.69241-0.81459-0.6924-0.73314-0.77387-0.6924-0.81459-0.65168-0.85533-0.57022" stroke="#0f0"/>
    </g>
    <g fill="#0f0" fill-rule="evenodd">
     <path id="path277" d="m537.55 209.72-0.89605-1.3034-3.5028 3.4213z"/>
     <path id="path278" d="m534.25 187.32 0.61094-1.507-4.8061-1.059z"/>
     <path id="path279" d="m535.39 195.71-0.48876 0.24437v0.57022l0.12219-0.0407 0.48876-0.24438 0.16292-0.0815 0.40729-0.32583z"/>
     <path id="path280" d="m536.66 194.73h-0.36657l-0.12219 0.24438-0.40729 0.4073-0.36657 0.32584 0.6924 0.12219v3.7879h0.57022z"/>
     <path id="path281" d="m540.69 194.77h-0.48875l-2.1994 3.1362v0.52949h2.0772v1.1812h0.61094v-1.1812h0.65168v-0.52949h-2.7696l1.507-2.1994z"/>
     <path id="path282" d="m540.69 194.77-0.61094 0.93679v2.1994h-1.507 2.1179z"/>
     <path id="path283" d="m542.36 195.18-0.24437 0.4073-0.12219 0.57021 0.57021 0.0407 0.0407-0.24438 0.24438-0.44802 0.16292-0.12219 0.52949-0.12219z"/>
     <path id="path284" d="m543.54 194.73-0.12219 0.0407-0.52949 0.0815-0.44803 0.24438-0.0815 0.0815 1.1812 0.0815h0.20364l0.44803 0.20365 0.0815 0.12219 0.16292 0.48875-0.0407 0.20365-0.24438 0.52949-0.16292 0.20365-0.36656 0.36657-0.52949 0.44802-0.44803 0.36657-0.32584 0.36657-0.12219 0.16292-0.24437 0.44802-0.0815 0.44803h3.1769v-0.57021h-2.3623l0.24438-0.32584 0.20365-0.20365 0.48876-0.4073 0.16291-0.16292 0.44803-0.36657 0.28511-0.32583 0.12219-0.16292 0.28511-0.44803v-0.0407l0.12219-0.52949-0.12219-0.52948-0.28511-0.4073-0.0815-0.0815-0.44803-0.24438z"/>
     <path id="path285" d="m546.1 194.93-0.12219 0.16292-0.16292 0.48876 0.0407 0.20365 0.24438 0.44802 0.12219 0.12219 0.52949 0.16292 0.16291-0.0407 0.44803-0.24438-0.61094-0.0815-0.4073-0.16292-0.16292-0.40729 0.16292-0.36657 0.4073-0.16292z"/>
     <path id="path286" d="m546.76 194.69h-0.20365l-0.44803 0.24438 0.65168 0.12219 0.36656 0.16292 0.16292 0.36657-0.16292 0.40729-0.36656 0.16292 0.61094 0.0815 0.12219-0.12219 0.16292-0.52948v-0.16292l-0.28511-0.48876-0.12219-0.0815z"/>
    </g>
    <path id="path287" d="m506.23 270.2-0.77386-0.0407-0.77387-0.0815h-0.77386l-0.73314-0.0407" fill="none" stroke="#f00" stroke-linecap="round" stroke-linejoin="round" stroke-width=".23366"/>
    <path id="path288" d="m493.4 271.18-0.73313 0.16292-0.73314 0.20364-0.73313 0.24438-0.69241 0.20365" fill="none" stroke="#f00" stroke-linecap="round" stroke-linejoin="round" stroke-width=".23366"/>
    <g fill="#f00" fill-rule="evenodd">
     <path id="path289" d="m506.39 269.39-0.24438 1.6292 4.8876-0.0815z"/>
     <path id="path290" d="m490.79 272.73-0.61094-1.4663-4.1544 2.5252z"/>
     <path id="path291" d="m494.13 271.3-0.57022 0.0815v0.0815l0.16292 0.48875 0.32584 0.4073 0.0407 0.0407 0.44803 0.24438 0.52948 0.0815h0.24438l0.52949-0.12219 0.4073-0.28511-1.1812-0.0815h-0.12218l-0.44803-0.20365-0.16292-0.20365z"/>
     <path id="path292" d="m496.29 270.28h-1.1404l0.20365 0.0407 0.44803 0.24438 0.16292 0.16292 0.12219 0.52949-0.0407 0.24437-0.24438 0.44803-0.20365 0.16292-0.52949 0.12219 1.1812 0.0815 0.12219-0.12219 0.24437-0.44803 0.0815-0.52948v-0.32584l-0.24437-0.44803z"/>
     <path id="path293" d="m494.78 269.83-0.0815 0.52948 0.44802-0.0815h1.1404l-0.48876-0.24438 0.12219-0.0407-1.059-0.16291z"/>
     <path id="path294" d="m494.09 268.12-0.28511 0.40729-0.20365 0.52949 0.61095 0.0815 0.0407-0.20365 0.24438-0.44803 0.0815-0.0407 0.48875-0.16291z"/>
     <path id="path295" d="m495.07 267.8-0.52948 0.0815-0.44803 0.24438 0.97751 0.16292h0.12219l0.44803 0.20364 0.0407 0.0815 0.20365 0.48876-0.0407 0.20365-0.28511 0.4073-0.16292 0.0815-0.52948 0.0815 1.059 0.16291 0.40727-0.40726 0.12219-0.52949v-0.12219l-0.16292-0.48876-0.0815-0.16291-0.4073-0.32584-0.20365-0.0815z"/>
     <path id="path296" d="m498 270.12-0.48876 0.36657-0.0815 0.16292-0.12219 0.61095 0.0815 0.57021 0.32584 0.48876 1.1812-0.0815-0.52949-0.12219-0.36656-0.36657-0.12219-0.48875 0.0407-0.16292 0.24437-0.52949 0.12219-0.12219 0.57022-0.16292z"/>
     <path id="path297" d="m499.88 268.16-1.0182 0.12219h0.0407l0.52949 0.24437h0.0407l0.20364 0.52949-0.24437 0.52949-0.52949 0.20365 0.73314 0.20364 0.44802-0.36656h0.0407l0.16292-0.57022-0.0815-0.4073z"/>
     <path id="path298" d="m498.86 267.8-0.48876 0.0815-0.48875 0.28511-0.24438 0.32583-0.16292 0.57022v0.0407l0.20365 0.52949 0.0407 0.0815 0.48875 0.32583-0.20364 0.0815 0.85532 0.16292 0.20365 0.0407 0.52949 0.24438 0.12218 0.16292 0.16292 0.57022-0.0407 0.16292-0.24437 0.52948-0.12219 0.0815-0.57022 0.16292-1.1812 0.0815 0.0407 0.0407 0.48875 0.28511 0.65168 0.0815h0.0407l0.61095-0.12219 0.48875-0.28511 0.32584-0.44803 0.12219-0.61094-0.0407-0.20365-0.20365-0.57022-0.16292-0.16292-0.52948-0.28511 0.0815-0.0407-0.73314-0.20364h-0.0407l-0.52949-0.20365h-0.0407l-0.20364-0.57022 0.24437-0.52949 0.52949-0.20364 1.0182-0.12219-0.40729-0.24438z"/>
     <path id="path299" d="m501.46 268-0.12219 0.16292-0.16291 0.48875 0.0407 0.16292 0.24437 0.48876 0.12219 0.12219 0.52949 0.16292 0.16292-0.0407 0.44803-0.24438-0.61095-0.0815-0.4073-0.16292-0.16292-0.4073 0.16292-0.40729 0.4073-0.16292z"/>
     <path id="path300" d="m502.12 267.76h-0.20365l-0.44803 0.24438 0.65168 0.0815 0.36657 0.16292 0.16292 0.40729-0.16292 0.4073-0.36657 0.16292 0.61095 0.0815 0.12218-0.12219 0.16292-0.52949v-0.16292l-0.2851-0.48875-0.12219-0.12219z"/>
    </g>
    <g fill="none" stroke-linecap="round" stroke-linejoin="round" stroke-width=".23366">
     <path id="path301" d="m514.82 173.26 52.256 161.05" stroke="#f0f"/>
     <path id="path302" d="m514.82 173.26-52.256 161.05" stroke="#f0f"/>
     <path id="path303" d="m493.07 255.95 1.7514 0.44803 1.7921 0.4073 1.7514 0.36657 1.7921 0.32583 1.7921 0.28511 1.7921 0.24438" stroke="#212830"/>
     <path id="path304" d="m525.9 258.02 1.7921-0.24438 1.7921-0.28511 1.7921-0.32583 1.7514-0.36657 1.7921-0.4073 1.7514-0.44803" stroke="#212830"/>
    </g>
    <g fill="#212830" fill-rule="evenodd">
     <path id="path305" d="m492.83 256.76 0.44803-1.5477-4.8468-0.61095z"/>
     <path id="path306" d="m536.33 255.21 0.48876 1.5477 4.3988-2.1587z"/>
     <path id="path307" d="m506.56 260.83-1.2219 0.16292 0.0407 0.12219 0.28511 1.0182 0.65167 0.8146 0.12219 0.12219 0.89606 0.48876 1.0997 0.16291 0.44803-0.0407 1.0182-0.2851 0.85532-0.57022-2.3216-0.0815-0.24438-0.0407-0.93678-0.4073-0.32584-0.36656z"/>
     <path id="path308" d="m510.83 258.76-2.3216 0.0815 0.48876 0.0407 0.89605 0.48875 0.24438 0.32584 0.28511 1.0182-0.0815 0.57022-0.48876 0.89605-0.4073 0.28511-1.0182 0.28511 2.3216 0.0815 0.20365-0.20365 0.52949-0.89605 0.20365-1.0182-0.0815-0.65167-0.4073-0.93679z"/>
     <path id="path309" d="m507.82 257.94-0.12219 1.0182 0.8146-0.12218 2.3216-0.0815-0.97751-0.44803 0.24438-0.12219-2.0772-0.24438z"/>
     <path id="path310" d="m506.43 254.52-0.61094 0.77387-0.36657 1.059 1.1812 0.20365 0.12219-0.44803 0.48876-0.85532 0.16292-0.12219 0.97751-0.32584z"/>
     <path id="path311" d="m508.39 253.87-1.059 0.12219-0.85533 0.52948h-0.0407l1.955 0.28511 0.20365 0.0407 0.93678 0.4073 0.12219 0.12219 0.32584 0.97751-0.0407 0.4073-0.57022 0.77386-0.32583 0.20365-1.0182 0.20365 2.0772 0.24438 0.77386-0.69241 0.0407-0.12219 0.28511-1.0182v-0.24438l-0.36657-0.97751-0.16291-0.28511-0.85533-0.65168-0.36657-0.16291z"/>
     <path id="path312" d="m518.33 258.15-2.2401 0.20365 0.4073 0.0407 0.93678 0.52948 0.28511 0.44803 0.24438 1.0997-0.0815 0.77387-0.48876 0.89605-0.28511 0.28511-0.97751 0.32584 1.9958 0.24438 0.65167-0.89606 0.24438-0.57021 0.12219-1.0997v-0.32584l-0.24438-1.059z"/>
     <path id="path313" d="m516.29 257.29h-0.20365l-1.059 0.32583-0.28511 0.16292-0.77387 0.77387 1.0997 0.0815 1.0182-0.28511 2.2401-0.20365-0.0815-0.0815-0.89606-0.57022z"/>
     <path id="path314" d="m518.12 254.48-1.955 0.32584 0.24438 0.0407 0.93678 0.48876h0.0407l0.4073 1.0182 1.1812-0.0815-0.24438-0.93678z"/>
     <path id="path315" d="m516.25 253.87-0.65168 0.0407-0.97751 0.36656-0.81459 0.69241-0.4073 0.65168-0.32584 0.93678-0.20365 1.1404-0.0815 1.3441v0.61095l0.16292 1.2219 0.32584 1.0182 0.44803 0.73313 0.40729 0.4073 0.93679 0.52949 1.059 0.16291 0.57022-0.0407 0.97751-0.36656 0.44803-0.32584-1.9958-0.24438-0.97751-0.28511-0.0407-0.0407-0.69241-0.81459-0.0407-0.12219-0.24438-1.059 0.0815-0.61095 0.48876-0.89606 0.36657-0.2851-1.0997-0.0815v-0.0407l0.0815-1.2626 0.24438-0.89606 0.20365-0.4073 0.69241-0.81459 0.97751-0.32584 1.955-0.32584-0.77387-0.44802z"/>
     <path id="path316" d="m521.18 254.28-0.24438 0.24438-0.32584 1.0182 0.0407 0.36656 0.52949 0.93679 0.24438 0.24438 1.0182 0.2851 0.36657-0.0407 0.93678-0.48875-1.3034-0.16292-0.77386-0.32584-0.32584-0.81459 0.32584-0.77387 0.77386-0.32584z"/>
     <path id="path317" d="m522.44 253.71-0.32584 0.0407-0.93678 0.52948 1.2626 0.16292 0.77387 0.32584 0.32583 0.77387-0.32583 0.81459-0.77387 0.32584 1.3034 0.16292 0.20365-0.28511 0.32584-1.0182-0.0407-0.32584-0.48876-0.93679-0.28511-0.24437z"/>
    </g>
    <g fill="none" stroke="#212830" stroke-linecap="round" stroke-linejoin="round" stroke-width=".23366">
     <path id="path318" d="m443.67 311.62 2.1587 1.059 2.1587 1.059"/>
     <path id="path319" d="m443.63 311.62h-4.8061"/>
     <path id="path320" d="m452.39 315.78 2.4438 1.059 2.4438 0.97751 2.4845 0.97751 2.4845 0.93679"/>
    </g>
    <g fill="#212830" fill-rule="evenodd">
     <path id="path321" d="m452.02 316.51 0.65167-1.4663-4.7246-1.2626z"/>
     <path id="path322" d="m462.49 318.95-0.52949 1.5477 4.8468 0.77387z"/>
     <path id="path323" d="m420.86 306.86h-6.2316v1.1404h4.7246l-0.52949 0.61095-0.61095 0.89605-0.57021 1.0182-0.0407 0.0815-0.48876 0.97751-0.36657 1.0182-0.32584 1.0182-0.16291 0.73313-0.20365 1.059-0.0815 0.97751h1.2219l0.0407-0.57022 0.16292-1.0997 0.24438-0.97751 0.12219-0.36657 0.32583-1.0182 0.44803-1.0182 0.48876-0.97751 0.61094-0.97752 0.61095-0.89605 0.61095-0.73314z"/>
     <path id="path324" d="m422.69 316.39v-1.3441h1.3441v1.3441z"/>
     <path id="path325" d="m427.01 313.74-1.2219 0.12219v0.0407l0.28511 1.059 0.65168 0.85532 2.1587-0.24438h-0.24437l-0.97752-0.44802-0.24438-0.32584z"/>
     <path id="path326" d="m431.29 310.85-2.4438 0.16292 0.61094 0.0815 0.89606 0.52949 0.36656 0.48876 0.20365 1.0997-0.12219 0.81459-0.48875 0.89606-0.4073 0.36657-1.0182 0.2851-2.1587 0.24438 0.12219 0.0815 0.89605 0.48876 1.1404 0.16292 0.77387-0.0815 0.97751-0.4073 0.77387-0.6924 0.16292-0.20365 0.44802-0.93679 0.16292-1.1404v-0.32584l-0.2851-1.059z"/>
     <path id="path327" d="m429.17 309.99-0.81459 0.0815-1.0182 0.48876 3.8286 0.16292-0.89605-0.57022z"/>
     <path id="path328" d="m431.74 306.86h-4.8061l-0.93679 4.969 1.0997 0.12219 0.73313-0.65168 1.0182-0.28511 2.4438-0.16292-0.12219-0.12218-3.8286-0.16292 0.52949-2.566h3.8693z"/>
     <path id="path329" d="m434.1 307.1-0.24438 0.24438-0.2851 1.0182 0.0407 0.36657 0.48876 0.93678 0.28511 0.24438 1.0182 0.28511h0.32584l0.93679-0.52949-1.2626-0.16292-0.81459-0.32583-0.32584-0.8146 0.32584-0.77386 0.81459-0.32584z"/>
     <path id="path330" d="m435.4 306.57h-0.36656l-0.93679 0.52949 1.3034 0.16292 0.77387 0.32584 0.32584 0.77386-0.32584 0.8146-0.77387 0.32583 1.2626 0.16292 0.24437-0.28511 0.28511-1.0182v-0.32584l-0.52948-0.93678-0.24438-0.24438z"/>
    </g>
    <g fill="none" stroke="#212830" stroke-linecap="round" stroke-linejoin="round" stroke-width=".23366">
     <path id="path331" d="m570.18 343.88 10.182 31.443"/>
     <path id="path332" d="m595.75 343.39 10.305 21.668"/>
     <path id="path333" d="m582.48 366.08 2.6474-0.93678 5.2949-2.0365 2.6067-1.059 2.6067-1.0997 2.6067-1.1404"/>
    </g>
    <g fill="#212830" fill-rule="evenodd">
     <path id="path334" d="m582.72 366.89-0.52949-1.507-4.3174 2.2809z"/>
     <path id="path335" d="m597.91 359.11 0.65168 1.4663 4.0322-2.7696z"/>
     <path id="path336" d="m611.48 345.71h-6.2724v1.1404h4.7246l-0.48875 0.65167-0.61095 0.85533-0.57021 1.0182-0.0815 0.0815-0.44803 0.97751-0.4073 1.0182-0.28511 1.0182-0.20365 0.73314-0.20364 1.0997-0.0407 0.93678h1.1812l0.0815-0.57021 0.16292-1.059 0.24438-1.0182 0.0815-0.36657 0.36657-1.0182 0.44803-0.97752 0.48876-0.97751 0.57021-0.97751 0.65168-0.89606 0.61094-0.73313z"/>
     <path id="path337" d="m613.31 355.24v-1.3441h1.3441v1.3441z"/>
     <path id="path338" d="m617.63 352.6-1.2626 0.12219 0.0407 0.0407 0.28511 1.059 0.65168 0.85533 2.1587-0.24438h-0.24437l-0.97752-0.44803-0.28511-0.32584z"/>
     <path id="path339" d="m621.9 349.71-2.4438 0.20365 0.61095 0.0407 0.89605 0.52948 0.32584 0.48876 0.24438 1.0997-0.12219 0.8146-0.48876 0.89605-0.40729 0.36657-1.0182 0.28511-2.1587 0.24438 0.0815 0.0815 0.93678 0.48875 1.1404 0.16292 0.77387-0.0815 0.97751-0.36657 0.77387-0.73313 0.12219-0.20365 0.48875-0.93678 0.16292-1.0997-0.0407-0.32583-0.24438-1.059z"/>
     <path id="path340" d="m619.78 348.85-0.81459 0.12219-1.0182 0.48876 3.8286 0.12219-0.93678-0.57022z"/>
     <path id="path341" d="m622.31 345.71h-4.7654l-0.93679 4.969 1.0997 0.12219 0.73314-0.65167 1.0182-0.24438 2.4438-0.20365-0.12219-0.12219-3.8286-0.12219 0.52949-2.6067h3.8286z"/>
     <path id="path342" d="m624.71 345.96-0.24438 0.28511-0.32584 1.0182 0.0407 0.36657 0.52949 0.89606 0.24438 0.24437 1.0182 0.32584 0.36657-0.0407 0.93678-0.52948-1.3034-0.16292-0.77386-0.32584-0.32584-0.77387 0.32584-0.81459 0.77386-0.32584z"/>
     <path id="path343" d="m625.98 345.43-0.32584 0.0407-0.93678 0.48876 1.2626 0.16292 0.8146 0.32584 0.32584 0.81459-0.32584 0.77387-0.8146 0.32584 1.3034 0.16292 0.24438-0.24438 0.28511-1.0182-0.0407-0.36656-0.48876-0.93679-0.2851-0.24438z"/>
    </g>
    <path id="path344" d="m577.26 304.54-124.88-101.46" fill="none" stroke="#f00" stroke-linecap="round" stroke-linejoin="round" stroke-width=".23366"/>
   </g>
  </g>
 </g>
 <metadata id="metadata2">
  <rdf:RDF>
   <cc:Work rdf:about="">
    <dc:title>Los Secretos de las Catedrales. La Catedral Nacional de Washignton D.C</dc:title>
    <dc:date>16-01-2025</dc:date>
    <dc:creator>
     <cc:Agent>
      <dc:title>Miguel Hernando Ibáñez Sánchez</dc:title>
     </cc:Agent>
    </dc:creator>
    <dc:rights>
     <cc:Agent>
      <dc:title>Secretos de las catedrales. La Catedral Nacional de Washington D.C © 2025 by ISAN atelier is licensed under Creative Commons Attribution-NoDerivatives 4.0 International</dc:title>
     </cc:Agent>
    </dc:rights>
    <dc:publisher>
     <cc:Agent>
      <dc:title>ISAN atelier</dc:title>
     </cc:Agent>
    </dc:publisher>
    <dc:identifier>10.5281/zenodo.14675978</dc:identifier>
    <dc:source>Sáchica, Boyacá - Colombia</dc:source>
    <dc:relation>En Búsqueda de las Claves Sacras de la Ciudad de Washignton D.C</dc:relation>
    <dc:language>Español</dc:language>
    <dc:subject>
     <rdf:Bag>
      <rdf:li>arquitectura sagrada</rdf:li>
      <rdf:li>geometria sagrada</rdf:li>
      <rdf:li>sacred architecture</rdf:li>
      <rdf:li>sacred geometry</rdf:li>
     </rdf:Bag>
    </dc:subject>
    <dc:coverage>Global</dc:coverage>
    <dc:description>Estudios geometricos y sus misterios</dc:description>
    <cc:license rdf:resource="http://creativecommons.org/licenses/by-nd/4.0/"/>
   </cc:Work>
   <cc:License rdf:about="http://creativecommons.org/licenses/by-nd/4.0/">
    <cc:permits rdf:resource="http://creativecommons.org/ns#Reproduction"/>
    <cc:permits rdf:resource="http://creativecommons.org/ns#Distribution"/>
    <cc:requires rdf:resource="http://creativecommons.org/ns#Notice"/>
    <cc:requires rdf:resource="http://creativecommons.org/ns#Attribution"/>
   </cc:License>
  </rdf:RDF>
 </metadata>
</svg>
