<?xml version="1.0" encoding="UTF-8"?>
<!-- Created with Inkscape (http://www.inkscape.org/) -->
<svg id="svg1" width="210mm" height="170mm" inkscape:version="1.4 (86a8ad7, 2024-10-11)" sodipodi:docname="Doble cubo  1 x 2 .svg" version="1.1" viewBox="0 0 210 170" xmlns="http://www.w3.org/2000/svg" xmlns:cc="http://creativecommons.org/ns#" xmlns:dc="http://purl.org/dc/elements/1.1/" xmlns:inkscape="http://www.inkscape.org/namespaces/inkscape" xmlns:rdf="http://www.w3.org/1999/02/22-rdf-syntax-ns#" xmlns:sodipodi="http://sodipodi.sourceforge.net/DTD/sodipodi-0.dtd">
 <title id="title2">Los Secretos de las Catedrales. La Catedral Nacional de Washignton D.C</title>
 <sodipodi:namedview id="namedview1" bordercolor="#000000" borderopacity="0.25" inkscape:current-layer="layer1" inkscape:cx="397.85508" inkscape:cy="561.25984" inkscape:deskcolor="#d1d1d1" inkscape:document-units="mm" inkscape:pagecheckerboard="0" inkscape:pageopacity="0.0" inkscape:showpageshadow="2" inkscape:window-height="664" inkscape:window-maximized="1" inkscape:window-width="1366" inkscape:window-x="-8" inkscape:window-y="-8" inkscape:zoom="0.49264169" pagecolor="#ffffff"/>
 <defs id="defs1">
  <pattern id="WMFhbasepattern" width="6" height="6" patternUnits="userSpaceOnUse"/>
 </defs>
 <g id="layer1" inkscape:groupmode="layer" inkscape:label="Capa 1">
  <g id="g2" transform="matrix(2.1067 0 0 2.1067 282.46 -95.093)" stroke-width=".047468">
   <g id="g1" transform="matrix(.26458 0 0 .26458 -170.76 -19.185)" stroke-width=".1794">
    <g fill="none" stroke-linecap="round" stroke-linejoin="round" stroke-width=".1794">
     <g stroke="#0f0">
      <path id="path1" d="m314.67 474.23-67.435-38.994 134.87-77.987 67.476 38.994z"/>
      <path id="path2" d="m247.23 435.24 202.35-38.994"/>
      <path id="path3" d="m247.23 435.24v-87.179"/>
      <path id="path4" d="m247.23 348.06 67.435 38.994"/>
      <path id="path5" d="m314.67 387.05 134.91-77.987"/>
      <path id="path6" d="m449.58 309.06-67.476-38.994"/>
      <path id="path7" d="m382.1 270.07-134.87 77.987"/>
      <path id="path8" d="m449.58 309.06v87.179"/>
      <path id="path9" d="m382.1 270.07v87.179"/>
      <path id="path10" d="m314.67 387.05v87.179"/>
     </g>
     <g stroke="#212830">
      <path id="path11" d="m245.87 436.02-34.872 20.198"/>
      <path id="path12" d="m313.31 475.01-34.872 20.198"/>
      <path id="path13" d="m219.08 459.31 19.744 11.459"/>
      <path id="path14" d="m273.04 490.51-19.744-11.418"/>
     </g>
    </g>
    <g fill="#212830" fill-rule="evenodd">
     <path id="path15" d="m217.97 459.97 2.2258-1.2778-7.8729-3.2563z"/>
     <path id="path16" d="m271.92 491.17 2.2258-1.2778 5.6471 4.5341z"/>
     <path id="path17" d="m220.98 484.53-0.53585 1.1129 1.5663 0.94805 0.28853-0.37098 0.6183-1.1541 0.20609-0.45342 0.2061-1.1129z"/>
     <path id="path18" d="m222.01 480.82-1.0717 0.61829 0.28854 0.65951 0.0412 1.2366v0.0824l-0.28854 1.1129 2.3495-1.0305 10.552 6.1005 1.69-0.94804z"/>
     <path id="path19" d="m240.72 485.69-1.8961-1.1129 1.8961-1.0717 1.8961 1.0717z"/>
     <path id="path20" d="m240.14 471.84-2.9266 1.7724 1.1129-0.41219 1.9373-0.0824 0.32975 0.0412 1.3602 0.37097 1.6076 0.70073 1.8961 0.98927 0.53585 0.32975 1.6076 1.0305 1.0305 0.90683 0.49463 0.74195v0.82438l-0.82439 0.94803-2.0198 1.7312 1.7724-0.28854 1.6076-0.65951 1.1129-0.86561 0.53585-1.0305-0.12366-1.0305-0.65951-1.1129-0.65951-0.61829-1.1542-0.90683-1.5251-0.94805-0.49464-0.28853-1.6076-0.82439-1.4015-0.57707-1.0717-0.32976-1.7724-0.32975z"/>
     <path id="path21" d="m235.9 472.83-1.1129 0.82439-0.53585 1.0305 0.0824 1.0305 0.70073 1.1129 0.65951 0.65951 1.1542 0.90682 1.5251 0.94805 0.28854 0.16488 1.7724 0.90682 1.69 0.65951 1.5663 0.45342 1.5251 0.2061h1.0717l2.0198-1.7312-1.0717 0.37097-1.9373 0.0824-0.32975-0.0412-1.3602-0.37097-1.6488-0.65951-1.8961-1.0305-0.70073-0.41219-1.4839-1.0305-1.0305-0.90682-0.45342-0.78317-0.0412-0.65951 0.86561-0.94805 2.9266-1.7724-1.9373 0.12366-0.70073 0.16487z"/>
     <path id="path22" d="m250.66 465.78-2.9266 1.7724 1.0717-0.4122 1.9373-0.0824 0.32975 0.0412 1.3602 0.37097 1.6076 0.70073 1.9373 0.98927 0.49463 0.32975 1.6076 1.0305 1.0305 0.90682 0.49463 0.74195v0.82439l-0.82439 0.94805-2.0198 1.7312 1.7724-0.28853 1.6076-0.65951 1.1129-0.86561 0.53586-1.0305-0.0824-1.0305-0.70073-1.1129-0.65951-0.61829-1.1542-0.90682-1.5251-0.94805-0.49464-0.28854-1.6076-0.82438-1.4015-0.57708-1.0305-0.32975-1.8136-0.32976z"/>
     <path id="path23" d="m246.37 466.77-1.1129 0.82439-0.53585 1.0305 0.0824 1.0305 0.70073 1.1129 0.65951 0.65951 1.1541 0.90683 1.5251 0.94805 0.28854 0.16487 1.7724 0.90683 1.69 0.65951 1.5663 0.45342 1.5251 0.20609h1.0717l2.0198-1.7312-1.0717 0.37097-1.9373 0.0824-0.32975-0.0412-1.3602-0.37097-1.6076-0.65951-1.8961-1.0305-0.70073-0.41219-1.5251-1.0305-0.98927-0.90683-0.49463-0.78316v-0.65951l0.86561-0.94805 2.9266-1.7724-1.9373 0.12366-0.74194 0.16488z"/>
     <path id="path24" d="m261.12 459.72-2.9266 1.7724 1.0717-0.4122 1.9785-0.0824 0.28854 0.0412 1.3602 0.37098 1.6488 0.70073 1.8961 0.98926 0.49463 0.32976 1.6076 1.0305 1.0305 0.90683 0.49464 0.74195 0.0412 0.82439-0.86561 0.94804-2.0198 1.7312 1.7724-0.28854 1.6076-0.65951 1.1129-0.8656 0.57708-1.0305-0.12366-1.0305-0.70073-1.1129-0.61829-0.61829-1.1954-0.90683-1.5251-0.94804-0.49464-0.28854-1.6076-0.82439-1.4015-0.57707-1.0305-0.32975-1.8136-0.32976z"/>
     <path id="path25" d="m256.84 460.71-1.1129 0.82439-0.53585 1.0305 0.0824 1.0305 0.70073 1.1129 0.65951 0.65951 1.1541 0.90683 1.5663 0.94804 0.24732 0.16488 1.7724 0.90683 1.69 0.65951 1.6076 0.45341 1.4839 0.2061h1.0717l2.0198-1.7312-1.0717 0.37098-1.9373 0.0824-0.32975-0.0412-1.3602-0.37098-1.6076-0.65951-1.8961-1.0305-0.70073-0.4122-1.5251-1.0305-0.98927-0.90683-0.49463-0.78317v-0.65951l0.86561-0.94804 2.9266-1.7724-1.9373 0.12366-0.74195 0.16488z"/>
    </g>
    <g fill="none" stroke="#212830" stroke-linecap="round" stroke-linejoin="round" stroke-width=".1794">
     <path id="path26" d="m316.03 475.01 39.942 23.124"/>
     <path id="path27" d="m450.9 397.03 39.983 23.124"/>
     <path id="path28" d="m361.37 493.44 37.51-21.681"/>
     <path id="path29" d="m482.8 423.24-37.551 21.723"/>
    </g>
    <g fill="#212830" fill-rule="evenodd">
     <path id="path30" d="m360.26 492.82 2.2671 1.2778-7.8729 3.2563z"/>
     <path id="path31" d="m481.65 422.62 2.2671 1.2778 5.6058-4.5341z"/>
     <path id="path32" d="m394.96 467.59 0.45342 1.0305 1.1129 1.0305 1.8961-0.90683-0.74195-0.53585-0.53585-1.0305 0.16488-0.53585 1.0305-0.98926z"/>
     <path id="path33" d="m397.03 464.83-0.57707 0.37097-1.0717 0.98927-0.4122 0.98926v0.4122l3.38-1.9373 0.74195-0.32976 1.7724-0.32975 0.70073 0.0412 1.69 0.49463 0.57707 0.45341 0.6183 1.1541 0.12365 0.82439-0.0412 1.1129-0.16487 1.4427-0.0412 0.16487-0.12366 1.2366 0.0412 1.0305 0.12366 0.61829 0.57707 1.0305 0.94805 0.78317 8.9034-5.1524-1.5663-0.90683-6.6363 3.8334-0.2061-0.94805 0.0412-0.65951 0.16488-1.4015 0.12365-0.70073 0.0824-1.2366v-0.94805l-0.0824-0.49463-0.45341-1.0717-0.16488-0.2061-1.1129-0.90683-0.24732-0.16488-1.6488-0.53585-1.8961-0.2061-0.78317 0.0412-1.7312 0.37098z"/>
     <path id="path34" d="m417.51 468.66-1.8961-1.0717 1.8961-1.1129 1.8961 1.1129z"/>
     <path id="path35" d="m416.93 454.86-2.9266 1.7724 1.1129-0.4122 1.9373-0.0824 0.32976 0.0412 1.319 0.37098 1.6488 0.65951 1.8961 1.0305 0.49463 0.28854 1.6076 1.0717 1.0717 0.90683 0.45342 0.74195 0.0412 0.82439-0.86561 0.90682-2.0198 1.7724 1.8136-0.28854 1.6076-0.70073 1.1129-0.82438 0.53586-1.0305-0.12366-1.0305-0.70073-1.1129-0.61829-0.65951-1.1954-0.90683-1.5251-0.94804-0.49464-0.28854-1.6076-0.82439-1.4015-0.53585-1.0305-0.32975-1.8136-0.37098z"/>
     <path id="path36" d="m412.65 455.8-1.0717 0.82439-0.57707 1.0305 0.12366 1.0305 0.65951 1.1129 0.65951 0.65951 1.1954 0.90683 1.5251 0.94804 0.24732 0.16488 1.7724 0.90683 1.69 0.70073 1.6076 0.45341 1.4839 0.2061h1.0717l2.0198-1.7724-1.0305 0.4122-1.9785 0.0824-0.28853-0.0412-1.3602-0.37098-1.6488-0.70073-1.8961-0.98926-0.70073-0.45342-1.5251-1.0305-0.98927-0.86561-0.49463-0.78317v-0.65951l0.86561-0.94804 2.9266-1.7724-1.9373 0.0824-0.70073 0.16488z"/>
     <path id="path37" d="m427.4 448.8-2.9266 1.7724 1.1129-0.41219 1.9373-0.0824 0.32976 0.0412 1.3602 0.37097 1.6076 0.65951 1.8961 1.0305 0.53585 0.28854 1.6076 1.0717 1.0305 0.90683 0.49464 0.74195v0.82438l-0.82439 0.90683-2.0198 1.7724 1.7724-0.28854 1.6076-0.70073 1.1129-0.82439 0.53586-1.0305-0.12366-1.0305-0.65951-1.1129-0.65951-0.65951-1.1542-0.90683-1.5663-0.94805-0.49464-0.28853-1.5663-0.82439-1.4014-0.53585-1.0717-0.32976-1.7724-0.37097z"/>
     <path id="path38" d="m423.16 449.74-1.1129 0.82439-0.53585 1.0305 0.0824 1.0305 0.70073 1.1129 0.65951 0.65951 1.1541 0.90682 1.5251 0.94805 0.28854 0.16488 1.7724 0.90683 1.6488 0.70073 1.6076 0.45341 1.4839 0.2061h1.1129l2.0198-1.7724-1.0717 0.4122-1.9373 0.0824-0.32975-0.0412-1.3602-0.37098-1.6488-0.70073-1.8961-0.98927-0.70073-0.45341-1.4839-1.0305-1.0305-0.86561-0.45341-0.78317-0.0412-0.65951 0.86561-0.94805 2.9266-1.7724-1.9373 0.0824-0.70073 0.16487z"/>
     <path id="path39" d="m437.87 442.74-2.8854 1.7724 1.0717-0.41219 1.9373-0.0824 0.32976 0.0412 1.3602 0.37097 1.6076 0.65951 1.8961 1.0305 0.53585 0.28853 1.6076 1.0717 1.0305 0.90682 0.49464 0.74195v0.82439l-0.82439 0.90683-2.0198 1.7724 1.7724-0.28853 1.6076-0.70073 1.1129-0.82439 0.53585-1.0305-0.0824-1.0305-0.70073-1.1129-0.65951-0.65952-1.1542-0.90682-1.5251-0.94805-0.49463-0.28853-1.6076-0.82439-1.4015-0.53586-1.0305-0.32975-1.8136-0.37097z"/>
     <path id="path40" d="m433.63 443.69-1.1129 0.82439-0.53585 1.0305 0.0824 1.0305 0.70073 1.1129 0.65951 0.65952 1.1541 0.90682 1.5251 0.94805 0.28854 0.16488 1.7724 0.90682 1.69 0.70073 1.5663 0.4122 1.5251 0.24731h1.0717l2.0198-1.7724-1.0717 0.41219-1.9373 0.0824-0.32975-0.0412-1.3602-0.37097-1.6076-0.70073-1.8961-0.98927-0.70073-0.45341-1.5251-1.0305-0.98927-0.8656-0.49463-0.78317v-0.65951l0.86561-0.94805 2.8854-1.7724-1.8961 0.0824-0.74195 0.16488z"/>
    </g>
    <g fill="none" stroke="#212830" stroke-linecap="round" stroke-linejoin="round" stroke-width=".1794">
     <path id="path41" d="m247.81 436.31 57.79 100.16"/>
     <path id="path42" d="m450.16 397.31 57.79 100.16"/>
     <path id="path43" d="m314.05 533.71 70.403-13.602"/>
     <path id="path44" d="m498.26 498.18-70.403 13.602"/>
    </g>
    <g fill="#212830" fill-rule="evenodd">
     <path id="path45" d="m313.51 532.84 1.0305 1.7312-9.5629 0.8656z"/>
     <path id="path46" d="m497.77 497.31 1.0305 1.7312 8.5324-2.5968z"/>
     <path id="path47" d="m379.01 525.18 0.45342 1.0305 1.1541 1.0305 1.8549-0.90683-0.74195-0.53585-0.53585-1.0305 0.16488-0.53586 1.0717-0.98926z"/>
     <path id="path48" d="m381.07 522.46-0.57707 0.37097-1.0717 0.94805-0.4122 1.0305v0.37097l3.4212-1.9373 0.70073-0.32976 1.7724-0.32975 0.70073 0.0412 1.69 0.53585 0.57707 0.45341 0.6183 1.1129 0.12365 0.82439-0.0412 1.1129-0.16487 1.4427-0.0412 0.16488-0.12366 1.2778 0.0412 0.98926 0.12366 0.61829 0.57707 1.0717 0.94804 0.78317 8.9034-5.1936-1.5663-0.90682-6.6363 3.8334-0.20609-0.94805 0.0412-0.65951 0.20609-1.4015 0.0824-0.70073 0.0824-1.2366v-0.90683l-0.0824-0.53585-0.45341-1.0717-0.16488-0.16488-1.1129-0.94805-0.24732-0.12365-1.6488-0.57708-1.8961-0.16487-0.78317 0.0412-1.7312 0.37097z"/>
     <path id="path49" d="m401.56 526.29-1.8961-1.1129 1.8961-1.0717 1.8961 1.0717z"/>
     <path id="path50" d="m394.72 516.11 0.49463 1.0305 1.1129 0.98926 1.8549-0.86561-0.74195-0.57707-0.49464-0.98926 0.12366-0.57707 1.0717-0.94805z"/>
     <path id="path51" d="m396.78 513.35-0.57708 0.37098-1.0305 0.98926-0.45341 0.98927v0.41219l3.4212-1.9373 0.74195-0.32976 1.7724-0.32975h0.70073l1.6488 0.53585 0.57707 0.45341 0.65951 1.1542 0.0824 0.78317v1.1541l-0.2061 1.4427-0.0412 0.16488-0.12366 1.2366 0.0412 1.0305 0.12366 0.6183 0.57707 1.0305 0.94805 0.78317 8.9034-5.1524-1.5663-0.90682-6.6363 3.7922-0.2061-0.90683 0.0412-0.65951 0.2061-1.4427 0.0824-0.70073 0.12366-1.1954-0.0412-0.94804-0.0824-0.53586-0.45342-1.0305-0.12365-0.2061-1.1542-0.90683-0.24731-0.16487-1.6488-0.57708-1.8961-0.16487-0.78317 0.0412-1.7312 0.37097z"/>
     <path id="path52" d="m414.21 514.58-1.4427 1.0717 0.45341 0.20609 1.7724 0.49464 1.8961 0.12366 0.57707-0.0412 1.8136-0.37098 1.6076-0.70073 0.78317-0.53585 0.90683-0.98927 0.32975-1.0717-3.38 1.8136-0.53585 0.24732-1.7724 0.32975-1.0717-0.0412z"/>
     <path id="path53" d="m417.22 509.43-3.009 1.9373 0.82438-0.41219 1.8137-0.28854 0.98926 0.0824 1.6488 0.57707 0.74195 0.57707 0.45341 1.0717-0.16487 0.65951-0.98927 0.94804 3.38-1.8136-0.0412-0.49463-0.53585-1.0717-1.1541-0.90683-1.0717-0.49463-1.7724-0.37097z"/>
     <path id="path54" d="m411.95 511.2 1.2778 0.94805 0.98927-0.78317 3.009-1.9373-1.8549 0.41219 0.16488-0.37097-3.2976 1.5663z"/>
     <path id="path55" d="m411.49 506.38-3.0502 1.8136 0.41219-0.20609 1.7724-0.37098 0.41219 0.0412 1.69 0.49464 0.61829 0.45341 0.24731 1.0305-0.24731 0.45342-1.1129 0.94804 3.2976-1.5663 0.0824-1.1129-0.12366-0.20609-1.0305-0.94805-0.45341-0.24732-1.7724-0.49463z"/>
     <path id="path56" d="m407.04 507.45-0.16488 0.0824-1.1129 0.94805-0.49464 1.0305-0.0412 0.16487 0.28854 1.0717 0.94805 1.0717 1.9373-0.78317-0.53585-0.53585-0.45342-1.0305 0.0824-0.28854 0.94805-0.98927 3.0502-1.8136-1.9785 0.16488-0.90682 0.2061z"/>
     <path id="path57" d="m426.95 502.88-2.8854 1.9373 0.82439-0.37097 1.8549-0.24732 1.2778 0.16488 1.6488 0.70073 1.0305 0.74195 0.53585 1.0305-0.0824 0.57708-0.86561 0.94804 3.1327-1.5251-0.32976-1.1541-0.61829-0.74195-1.1954-0.90683-0.82439-0.41219-1.6488-0.53585z"/>
     <path id="path58" d="m422.91 503.78-0.45341 0.32975-0.90683 0.98927-0.2061 0.45341 0.0824 1.1542 1.6488-0.94805 0.98926-0.94805 2.8854-1.9373h-0.61829l-1.8549 0.28854z"/>
     <path id="path59" d="m421.55 500.07-2.2671 1.8549 0.57707-0.28853 1.8137-0.28854 0.16488 0.0412 1.8549 0.45342 1.5251-1.0305-0.0412-0.0412-1.8137-0.57707z"/>
     <path id="path60" d="m418.05 501.06-1.0717 0.78317-0.70073 0.98926-0.0824 1.1129 0.0824 0.24731 0.45341 0.90683 0.86561 0.94805 1.2366 0.98926 1.6076 1.0305 1.4839 0.78317 1.69 0.70073 1.6076 0.45341 1.5251 0.2061 1.5663-0.0412 1.7724-0.37098 1.5663-0.65951 0.82438-0.57707 0.78317-1.0305 0.16488-0.70073-3.1327 1.5251-0.0824 0.0412-1.7312 0.49463-0.24732 0.0412-1.9373-0.12365-0.41219-0.0824-1.6076-0.65951-0.82439-0.61829-0.49463-1.0717 0.12366-0.61829-1.6488 0.94805-0.45341-0.24732-1.3602-0.94805-0.82439-0.8656-0.32976-0.57708-0.12365-1.1129 0.0412-0.0412 0.90682-0.98927 2.2671-1.8549h-0.0824l-1.8136 0.28854z"/>
    </g>
    <g fill="#0f0" fill-rule="evenodd">
     <path id="path61" d="m157.58 420.89-2.9678 2.0198 1.1541-0.45341 1.1541-0.12366 1.1542 0.2061 1.2778 0.57707 4.9051 2.8441 0.16488 0.0412h0.24731l0.82439-0.4122 0.4122-0.28853 0.24731-0.16488 0.0412-0.16488-0.0824-0.0824-5.07-2.9678-0.20609-0.0824-1.5251-0.70073z"/>
     <path id="path62" d="m153.67 421.92-1.2778 1.1542-0.16488 0.24731-0.45341 1.2778 1.8549-0.61829 0.98927-1.0717 2.9678-2.0198-1.8961 0.2061h-0.12366z"/>
     <path id="path63" d="m145.55 422.09-0.45342 0.24732-0.20609 0.2061-0.0824 0.16487 0.0824 0.0824 12.448 7.1722 0.16488 0.0824 0.24731-0.0412 0.32976-0.12366 0.45341-0.28854 0.45341-0.24731 0.24732-0.2061 0.0412-0.12366-0.0824-0.12366-5.8532-3.38v-0.32975l0.28853-1.1954-1.8549 0.61829-4.9876-2.8854-0.2061-0.0412h-0.20609l-0.37098 0.16488z"/>
     <path id="path64" d="m179.18 412.73-8.6148 4.9876-0.12366 0.24731 0.37097 0.37098 0.65952 0.20609 0.41219-0.0824 8.5736-4.9463 0.16487-0.24732-0.37097-0.37098-0.61829-0.24731z"/>
     <path id="path65" d="m175.55 410.67-8.5736 4.9463-0.16488 0.28853 0.37098 0.32976 0.65951 0.24731 0.45341-0.0824 8.5736-4.9875 0.16488-0.24732-0.4122-0.37098-0.57707-0.20609z"/>
     <path id="path66" d="m183.96 404.61-2.1434 1.2366-0.16488 0.12365v0.16488l0.12366 0.16488 0.28853 0.2061 0.32976 0.12365 0.28853 0.0824h0.24732l0.2061-0.0824 1.1954-0.65951 10.099 2.5144-0.0824-1.5251-9.3156-2.5556h-0.49463z"/>
     <path id="path67" d="m188.08 398.39-0.49464 0.32976-0.28853 0.24731-0.0824 0.12366 0.0412 0.16488 7.131 7.6668-0.0412 0.0412 0.0824 1.5251 0.28853 0.0412 0.32976-0.0824 0.41219-0.16488 0.57707-0.32975 0.53585-0.32976 0.28854-0.24732 0.12366-0.16487-0.0824-0.16488-7.5019-8.8622-0.2061-0.16488-0.2061-0.0412-0.37097 0.12366z"/>
     <path id="path68" d="m201.32 402.63-0.0824 0.0824v0.12366l0.12366 0.16488 0.28853 0.16487 0.28854 0.16488 0.24731 0.0824 0.2061 0.0824h0.24732l0.53585-0.12366 1.0305-0.32975 1.2778-0.53586 1.3602-0.70073 0.61829-0.37097 1.3602-1.0717 0.2061-0.20609 0.74194-1.2366 0.0412-0.2061-4.328 2.3907-1.5251 0.74195-1.2778 0.4122-0.90683 0.20609z"/>
     <path id="path69" d="m197.69 399.87 0.57707-0.16488 0.90683-0.57707 1.1129-0.74195z"/>
     <path id="path70" d="m199.96 397.11-0.90683 0.53585-0.74195 0.49464 3.5036-1.9373z"/>
     <path id="path71" d="m198.8 392.37-6.5127 3.751-0.37098 0.37097 0.28854 0.37098 4.9051 2.8441 0.57707 0.16488 2.5968-1.4839 1.8136-0.8656 1.6076-0.4122h1.4427l1.2366 0.49463 0.90683 0.82439 0.0824 0.86561-0.65951 0.90683-1.2366 0.90682 4.328-2.3907-0.20609-1.1954-0.16488-0.28854-1.1541-0.90683-0.0824-0.0824-1.6488-0.57707-2.0198-0.12366-0.0824 0.0412-2.1434 0.45342-0.49463 0.16487-3.5036 1.9373-3.38-1.9373 5.2761-3.0502 0.12366-0.28854-0.41219-0.37097-0.32976-0.16488-0.32975-0.0412h-0.24732z"/>
     <path id="path72" d="m222.96 394.92 0.0412 0.16488-0.0824 0.16488-0.2061 0.2061-0.37098 0.24731-0.53585 0.24732-0.37097 0.12366-0.28854-0.0412-0.16488-0.12366-8.5324-12.902-0.0824-0.20609 0.0824-0.16488 0.20609-0.16488 0.4122-0.24731 0.49463-0.24732 0.37097-0.12366h0.24732l0.2061 0.16488z"/>
     <path id="path73" d="m223.74 379.22 0.12366 0.12366 0.2061 0.16487 0.37097 0.16488 0.28854 0.0824h0.2061l0.20609-0.0412 0.28854-0.32975 0.37097-0.61829 0.6183-0.78317 1.1541-0.82439z"/>
     <path id="path74" d="m226.38 376.17-1.1542 0.82439-0.82439 0.78317-0.53585 0.70073-0.2061 0.41219v0.2061l0.0824 0.12366 3.8334-2.061 1.2366-0.53585 1.1954-0.2061 1.1129 0.0824 0.90682 0.32975 0.74195 0.57707 0.57708 0.82439 0.0412 0.0824 0.24731 1.1954 0.0412 0.49464-0.12366 1.319-0.45341 3.1327-0.0412 0.28854 0.0824 0.2061 0.16488 0.16487 0.32975 0.2061 0.37098 0.16488 0.37097 0.0824 0.28854-0.0824 0.28853-0.12366 8.1614-4.699 0.12365-0.12366v-0.16488l-0.12365-0.16488-0.28854-0.20609-0.28854-0.16488-0.32975-0.0412h-0.24732l-0.24731 0.0824-6.389 3.7098 0.32975-2.5144 0.12366-1.1129 0.0412-1.1542-0.0412-0.37097-0.28854-1.1541-0.70073-0.98927-1.0305-0.74195-1.4839-0.57707-1.7724-0.12366-1.9785 0.4122-0.24732 0.0824z"/>
    </g>
    <path id="path75" d="m314.67 474.23 67.435-204.16" fill="none" stroke="#f00" stroke-linecap="round" stroke-linejoin="round" stroke-width=".1794"/>
    <g fill="#f00" fill-rule="evenodd">
     <path id="path76" d="m444.8 271.39 0.70073 1.5251 1.69 1.5251 2.8029-1.319-1.1541-0.82438-0.74195-1.5251 0.2061-0.82439 1.5663-1.4427z"/>
     <path id="path77" d="m447.89 267.27-0.86561 0.53585-1.6076 1.4839-0.61829 1.4839v0.61829l5.07-2.8854 1.1129-0.53585 2.6793-0.49463 1.0305 0.0412 2.5144 0.78317 0.86561 0.70073 0.94804 1.7312 0.16488 1.1954-0.0412 1.69-0.28854 2.1434-0.0412 0.24731-0.20609 1.8961 0.0824 1.5251 0.20609 0.90683 0.82439 1.6076 1.4427 1.1541 13.396-7.7492-2.3907-1.3602-9.9339 5.7295-0.32976-1.4015 0.0824-0.98927 0.28853-2.1434 0.12366-1.0305 0.16488-1.8549-0.0412-1.3602-0.12366-0.82439-0.70073-1.5663-0.20609-0.28854-1.69-1.4015-0.37097-0.20609-2.4732-0.86561-2.8441-0.24732-1.1541 0.0824-2.5968 0.53585z"/>
     <path id="path78" d="m478.6 273-2.8441-1.6076 2.8441-1.6488 2.8441 1.6488z"/>
     <path id="path79" d="m482.14 264.59-2.3907 1.6076 1.2366 0.53586 2.3495 0.57707 2.5144 0.12366 3.9983-2.8854-1.0717 0.49463-2.4319 0.41219-1.7724-0.12365z"/>
     <path id="path80" d="m485.07 255.89-4.7814 3.1739 1.9373-0.82439 2.4319-0.28854 2.3495 0.32976 2.1846 0.90682 0.24731 0.16488 1.5251 1.2778 0.57707 1.3602-0.32975 1.319-1.3602 1.2366-3.9983 2.8854 1.6076-0.16488 2.3083-0.57707 2.1434-0.98927 0.65951-0.41219 1.4015-1.2366 0.74195-1.3602 0.0412-1.4839-0.4122-1.1129-1.0717-1.3602-1.6488-1.1954-1.8136-0.82439-2.2671-0.61829z"/>
     <path id="path81" d="m478.76 257.42-0.37098 0.2061-1.4015 1.2366-0.78317 1.4839 8.8622-4.4517-1.8961 0.0824-2.3495 0.49463z"/>
     <path id="path82" d="m477.57 250.53-10.058 5.8119 8.4088 7.131 2.638-1.1541-0.0412-0.2061 0.16488-1.4839 0.16488-0.32975 1.4427-1.2366 4.7814-3.1739-8.8622 4.4517-4.328-3.7922 8.0378-4.6578z"/>
     <path id="path83" d="m378.6 321.84-15.746 6.4714 11.253-9.0683z"/>
    </g>
    <path id="path84" d="m376.37 320.52 73.371-42.456 0.70073-0.37097" fill="none" stroke="#f00" stroke-linecap="round" stroke-linejoin="round" stroke-width=".1794"/>
   </g>
  </g>
 </g>
 <metadata id="metadata2">
  <rdf:RDF>
   <cc:Work rdf:about="">
    <dc:title>Los Secretos de las Catedrales. La Catedral Nacional de Washignton D.C</dc:title>
    <dc:date>16-01-2025</dc:date>
    <dc:creator>
     <cc:Agent>
      <dc:title>Miguel Hernando Ibáñez Sánchez</dc:title>
     </cc:Agent>
    </dc:creator>
    <dc:rights>
     <cc:Agent>
      <dc:title>Secretos de las catedrales. La Catedral Nacional de Washington D.C © 2025 by ISAN atelier is licensed under Creative Commons Attribution-NoDerivatives 4.0 International</dc:title>
     </cc:Agent>
    </dc:rights>
    <dc:publisher>
     <cc:Agent>
      <dc:title>ISAN atelier</dc:title>
     </cc:Agent>
    </dc:publisher>
    <dc:identifier>10.5281/zenodo.14675978</dc:identifier>
    <dc:source>Sáchica, Boyacá - Colombia</dc:source>
    <dc:relation>En Búsqueda de las Claves Sacras de la Ciudad de Washignton D.C</dc:relation>
    <dc:language>Español</dc:language>
    <dc:subject>
     <rdf:Bag>
      <rdf:li>arquitectura sagrada</rdf:li>
      <rdf:li>geometria sagrada</rdf:li>
      <rdf:li>sacred architecture</rdf:li>
      <rdf:li>sacred geometry</rdf:li>
     </rdf:Bag>
    </dc:subject>
    <dc:coverage>Global</dc:coverage>
    <dc:description>Estudios geometricos y sus misterios</dc:description>
    <cc:license rdf:resource="http://creativecommons.org/licenses/by-nd/4.0/"/>
   </cc:Work>
   <cc:License rdf:about="http://creativecommons.org/licenses/by-nd/4.0/">
    <cc:permits rdf:resource="http://creativecommons.org/ns#Reproduction"/>
    <cc:permits rdf:resource="http://creativecommons.org/ns#Distribution"/>
    <cc:requires rdf:resource="http://creativecommons.org/ns#Notice"/>
    <cc:requires rdf:resource="http://creativecommons.org/ns#Attribution"/>
   </cc:License>
  </rdf:RDF>
 </metadata>
</svg>
