<?xml version="1.0" encoding="UTF-8"?>
<!-- Created with Inkscape (http://www.inkscape.org/) -->
<svg id="svg1" width="210mm" height="190mm" inkscape:version="1.4 (86a8ad7, 2024-10-11)" sodipodi:docname="1.svg" version="1.1" viewBox="0 0 210 190" xmlns="http://www.w3.org/2000/svg" xmlns:cc="http://creativecommons.org/ns#" xmlns:dc="http://purl.org/dc/elements/1.1/" xmlns:inkscape="http://www.inkscape.org/namespaces/inkscape" xmlns:rdf="http://www.w3.org/1999/02/22-rdf-syntax-ns#" xmlns:sodipodi="http://sodipodi.sourceforge.net/DTD/sodipodi-0.dtd">
 <title id="title1">399 1/7</title>
 <sodipodi:namedview id="namedview1" bordercolor="#000000" borderopacity="0.25" inkscape:current-layer="layer1" inkscape:cx="397.94365" inkscape:cy="560.83816" inkscape:deskcolor="#d1d1d1" inkscape:document-units="mm" inkscape:pagecheckerboard="0" inkscape:pageopacity="0.0" inkscape:showpageshadow="2" inkscape:window-height="745" inkscape:window-maximized="1" inkscape:window-width="1366" inkscape:window-x="-8" inkscape:window-y="-8" inkscape:zoom="0.45735119" pagecolor="#ffffff"/>
 <defs id="defs1">
  <pattern id="WMFhbasepattern" width="6" height="6" patternUnits="userSpaceOnUse"/>
 </defs>
 <g id="layer1" inkscape:groupmode="layer" inkscape:label="Capa 1">
  <g id="g2" transform="matrix(2.5265 0 0 2.5265 336.75 -111.61)" stroke-width=".079161">
   <g id="g1" transform="matrix(.26458 0 0 .26458 -251.29 -91.964)" stroke-width=".29919">
    <g fill="none" stroke-linecap="round" stroke-linejoin="round" stroke-width=".29919">
     <path id="path1" d="m610.58 542.11-119.79 87.162 45.74 141.01h148.09l45.78-141.01z" stroke="#0f0"/>
     <g stroke="#f00">
      <path id="path2" d="m684.63 770.28-0.69241-1.6699"/>
      <path id="path3" d="m683.08 766.49-0.57022-1.3848"/>
      <path id="path4" d="m681.65 762.99-0.52949-1.4255"/>
      <path id="path5" d="m680.27 759.49-0.57022-1.4255"/>
      <path id="path6" d="m678.84 755.98-0.52949-1.4255"/>
      <path id="path7" d="m677.46 752.44-0.57022-1.3848"/>
      <path id="path8" d="m676.03 748.94-0.57021-1.3848"/>
      <path id="path9" d="m674.65 745.44-0.57021-1.3848"/>
      <path id="path10" d="m673.22 741.93-0.57021-1.3848"/>
      <path id="path11" d="m671.84 738.43-0.57022-1.3848"/>
      <path id="path12" d="m670.41 734.93-0.57022-1.4255"/>
      <path id="path13" d="m669.03 731.42-0.57022-1.4255"/>
      <path id="path14" d="m667.6 727.92-0.57022-1.4255"/>
      <path id="path15" d="m666.18 724.42-0.52949-1.4255"/>
      <path id="path16" d="m664.79 720.88-0.57022-1.3848"/>
      <path id="path17" d="m663.37 717.37-0.57021-1.3848"/>
      <path id="path18" d="m661.98 713.87-0.57021-1.3848"/>
      <path id="path19" d="m660.55 710.37-0.57021-1.3848"/>
      <path id="path20" d="m659.17 706.86-0.57021-1.4255"/>
      <path id="path21" d="m657.74 703.36-0.57022-1.4255"/>
      <path id="path22" d="m656.36 699.86-0.57022-1.4255"/>
      <path id="path23" d="m654.93 696.36-0.57022-1.4256"/>
      <path id="path24" d="m653.51 692.81-0.52949-1.3848"/>
      <path id="path25" d="m652.12 689.31-0.57022-1.3848"/>
      <path id="path26" d="m650.7 685.81-0.52949-1.3848"/>
      <path id="path27" d="m649.31 682.3-0.57021-1.3848"/>
      <path id="path28" d="m647.89 678.8-0.57021-1.4255"/>
      <path id="path29" d="m646.5 675.3-0.57021-1.4255"/>
      <path id="path30" d="m645.08 671.8-0.57022-1.4255"/>
      <path id="path31" d="m643.69 668.29-0.57022-1.4255"/>
      <path id="path32" d="m642.27 664.75-0.57022-1.3848"/>
      <path id="path33" d="m640.88 661.25-0.57022-1.3848"/>
      <path id="path34" d="m639.46 657.74-0.57022-1.3848"/>
      <path id="path35" d="m638.03 654.24-0.52949-1.3848"/>
      <path id="path36" d="m636.65 650.74-0.57021-1.4256"/>
      <path id="path37" d="m635.22 647.24-0.52948-1.4255"/>
      <path id="path38" d="m633.84 643.73-0.57021-1.4255"/>
      <path id="path39" d="m632.41 640.23-0.57021-1.4255"/>
      <path id="path40" d="m631.03 636.69-0.57022-1.3848"/>
      <path id="path41" d="m629.6 633.18-0.57022-1.3848"/>
      <path id="path42" d="m628.22 629.68-0.57022-1.3848"/>
      <path id="path43" d="m626.79 626.18-0.57022-1.3848"/>
      <path id="path44" d="m625.41 622.68-0.57022-1.4255"/>
      <path id="path45" d="m623.98 619.17-0.57022-1.4256"/>
      <path id="path46" d="m622.55 615.67-0.52948-1.4255"/>
      <path id="path47" d="m621.17 612.17-0.57021-1.4255"/>
      <path id="path48" d="m619.74 608.62-0.52948-1.3848"/>
      <path id="path49" d="m618.36 605.12-0.57022-1.3848"/>
      <path id="path50" d="m616.93 601.62-0.57022-1.3848"/>
      <path id="path51" d="m615.55 598.12-0.57022-1.3848"/>
      <path id="path52" d="m614.12 594.61-0.57022-1.3848"/>
      <path id="path53" d="m612.74 591.11-0.57022-1.4255"/>
      <path id="path54" d="m611.31 587.61-0.0815-0.20365-0.69241-1.7106"/>
     </g>
     <path id="path55" d="m603.53 580.56 7.0462 21.79 7.087-21.79-18.532 13.482h22.89z" stroke="#00f"/>
     <g stroke="#212830">
      <path id="path56" d="m612.94 584.76 9.8973-3.9915"/>
      <path id="path57" d="m686.99 769.34 9.8973-3.9508"/>
      <path id="path58" d="m621.9 585.25 35.639 88.791"/>
      <path id="path59" d="m693.14 762.79-25.945-64.72"/>
     </g>
    </g>
    <g>
     <path id="path60" d="m622.51 585-1.1812 0.44803-0.81459-3.7471z" fill="#212830" fill-rule="evenodd"/>
     <path id="path61" d="m693.75 762.58-1.1812 0.44803 1.9958 3.2991z" fill="#212830" fill-rule="evenodd"/>
     <text id="text62" transform="translate(648.58 687.93)" fill="#000000" font-family="Arial" font-size="5.3125px" font-weight="400" letter-spacing="0px" stroke-width=".29919" word-spacing="0px" style="line-height:125%" xml:space="preserve"><tspan id="tspan62" x="0" y="0" sodipodi:role="line"><tspan id="tspan61" dx="0" dy="0" fill="#212830" font-family="Arial" font-size="5.3125px" font-weight="400" stroke-width=".29919">1.57714881</tspan></tspan></text>
    </g>
    <g fill="none" stroke-linecap="round" stroke-linejoin="round" stroke-width=".29919">
     <path id="path62" d="m736.56 668.25-0.0407-3.5435-0.16292-3.5435-0.24438-3.5028-0.32584-3.5435-0.44802-3.5028-0.57022-3.5028-0.61094-3.462-0.77387-3.462-0.81459-3.4213-0.93679-3.4213-1.0182-3.3806-1.1404-3.3806-1.1812-3.2991-1.3034-3.2991-1.4255-3.2584-1.4663-3.1769-1.5885-3.1769-1.6699-3.1362-1.7514-3.0547-1.8328-3.014-1.9143-2.9733-1.9958-2.9325-2.118-2.8511-2.1587-2.7696-2.2401-2.7289-2.3216-2.6882-2.3623-2.6067-2.4845-2.5252-2.5252-2.4845-2.6067-2.4031-2.6474-2.2809-2.7696-2.2809-2.7696-2.1587-2.8511-2.0772-2.9325-1.9958-2.9326-1.9143-3.0547-1.8736-3.0547-1.7514-3.0955-1.6699-3.1769-1.5477-3.2176-1.507-3.2176-1.3848-3.2991-1.3034-3.2991-1.2219-3.3806-1.1404-3.3806-1.0182-3.3806-0.93678-3.462-0.8146-3.462-0.77386-3.462-0.61095-3.5028-0.57021-3.5028-0.44803-3.5028-0.32584-3.5435-0.24438-3.5028-0.16292-3.5435-0.0407-3.5435 0.0407-3.5028 0.16292-3.5435 0.24438-3.5028 0.32584-3.5028 0.44803-3.5028 0.57021-3.462 0.61095-3.462 0.77386-3.462 0.8146-3.3806 0.93678-3.3806 1.0182-3.3806 1.1404-3.2991 1.2219-3.2991 1.3034-3.2176 1.3848-3.2176 1.507-3.1769 1.5477-3.0955 1.6699-3.0547 1.7514-3.0547 1.8736-2.9326 1.9143-2.9325 1.9958-2.8511 2.0772-2.7696 2.1587-2.7696 2.2809-2.6474 2.2809-2.6067 2.4031-2.5252 2.4845-2.4845 2.5252-2.3623 2.6067-2.3216 2.6882-2.2401 2.7289-2.1587 2.7696-2.118 2.8511-1.9958 2.9325-1.9143 2.9733-1.8328 3.014-1.7514 3.0547-1.6699 3.1362-1.5885 3.1769-1.4663 3.1769-1.4255 3.2584-1.3034 3.2991-1.1812 3.2991-1.1404 3.3806-1.0182 3.3806-0.93678 3.4213-0.8146 3.4213-0.77386 3.462-0.61095 3.462-0.57022 3.5028-0.44802 3.5028-0.32584 3.5435-0.24438 3.5028-0.16292 3.5435-0.0407 3.5435 0.0407 3.5435 0.16292 3.5435 0.24438 3.5028 0.32584 3.5435 0.44802 3.5028 0.57022 3.5028 0.61095 3.462 0.77386 3.462 0.8146 3.4213 0.93678 3.4213 1.0182 3.3806 1.1404 3.3806 1.1812 3.2991 1.3034 3.2991 1.4255 3.2584 1.4663 3.1769 1.5885 3.1769 1.6699 3.1362 1.7514 3.0547 1.8328 3.014 1.9143 2.9733 1.9958 2.9325 2.118 2.8511 2.1587 2.7696 2.2401 2.7289 2.3216 2.6882 2.3623 2.6067 2.4845 2.5252 2.5252 2.4845 2.6067 2.4031 2.6474 2.2809 2.7696 2.2809 2.7696 2.1587 2.8511 2.0772 2.9325 1.9958 2.9326 1.9143 3.0547 1.8736 3.0547 1.7514 3.0955 1.6699 3.1769 1.5477 3.2176 1.507 3.2176 1.3848 3.2991 1.3034 3.2991 1.2219 3.3806 1.1404 3.3806 1.0182 3.3806 0.93679 3.462 0.81459 3.462 0.77387 3.462 0.61094 3.5028 0.57022 3.5028 0.44803 3.5028 0.32584 3.5435 0.24437 3.5028 0.16292 3.5435 0.0407 3.5435-0.0407 3.5028-0.16292 3.5435-0.24437 3.5028-0.32584 3.5028-0.44803 3.5028-0.57022 3.462-0.61094 3.462-0.77387 3.462-0.81459 3.3806-0.93679 3.3806-1.0182 3.3806-1.1404 3.2991-1.2219 3.2991-1.3034 3.2176-1.3848 3.2176-1.507 3.1769-1.5477 3.0955-1.6699 3.0547-1.7514 3.0547-1.8736 2.9326-1.9143 2.9325-1.9958 2.8511-2.0772 2.7696-2.1587 2.7696-2.2809 2.6474-2.2809 2.6067-2.4031 2.5252-2.4845 2.4845-2.5252 2.3623-2.6067 2.3216-2.6882 2.2401-2.7289 2.1587-2.7696 2.118-2.8511 1.9958-2.9325 1.9143-2.9733 1.8328-3.014 1.7514-3.0547 1.6699-3.1362 1.5885-3.1769 1.4663-3.1769 1.4255-3.2584 1.3034-3.2991 1.1812-3.2991 1.1404-3.3806 1.0182-3.3806 0.93679-3.4213 0.81459-3.4213 0.77387-3.462 0.61094-3.462 0.57022-3.5028 0.44802-3.5028 0.32584-3.5435 0.24438-3.5028 0.16292-3.5435z" stroke="#0ff"/>
     <g stroke="#0f0">
      <path id="path63" d="m536.53 770.28 0.36657-0.97752"/>
      <path id="path64" d="m537.59 767.63 0.48876-1.0997"/>
      <path id="path65" d="m538.77 764.82 0.44802-1.0997"/>
      <path id="path66" d="m539.91 762.05 0.44803-1.1404"/>
      <path id="path67" d="m541.05 759.24 0.44803-1.0997"/>
      <path id="path68" d="m542.19 756.43 0.48876-1.0997"/>
      <path id="path69" d="m543.38 753.66 0.44802-1.1404"/>
      <path id="path70" d="m544.52 750.85 0.44803-1.0997"/>
      <path id="path71" d="m545.66 748.04 0.44803-1.0997"/>
      <path id="path72" d="m546.8 745.27 0.48875-1.1404"/>
      <path id="path73" d="m547.98 742.46 0.44803-1.0997"/>
      <path id="path74" d="m549.12 739.69 0.44803-1.1404"/>
      <path id="path75" d="m550.26 736.88 0.44803-1.1404"/>
      <path id="path76" d="m551.4 734.07 0.48875-1.0997"/>
      <path id="path77" d="m552.58 731.3 0.44803-1.1404"/>
      <path id="path78" d="m553.72 728.49 0.44803-1.1404"/>
      <path id="path79" d="m554.86 725.68 0.44803-1.0997"/>
      <path id="path80" d="m556 722.91 0.48875-1.1404"/>
      <path id="path81" d="m557.18 720.1 0.44803-1.1404"/>
      <path id="path82" d="m558.32 717.29 0.44803-1.0997"/>
      <path id="path83" d="m559.46 714.52 0.44802-1.1404"/>
      <path id="path84" d="m560.6 711.71 0.48875-1.0997"/>
      <path id="path85" d="m561.79 708.9 0.44803-1.0997"/>
      <path id="path86" d="m562.93 706.13 0.44803-1.1404"/>
      <path id="path87" d="m564.07 703.32 0.44802-1.0997"/>
      <path id="path88" d="m565.21 700.51 0.48876-1.0997"/>
      <path id="path89" d="m566.39 697.74 0.44803-1.1404"/>
      <path id="path90" d="m567.53 694.93 0.44803-1.0997"/>
      <path id="path91" d="m568.67 692.12 0.44802-1.0997"/>
      <path id="path92" d="m569.81 689.35 0.48876-1.1404"/>
      <path id="path93" d="m570.99 686.54 0.44803-1.0997"/>
      <path id="path94" d="m572.13 683.73 0.44803-1.0997"/>
      <path id="path95" d="m573.27 680.96 0.44802-1.1404"/>
      <path id="path96" d="m574.41 678.15 0.48876-1.0997"/>
      <path id="path97" d="m575.55 675.38 0.48876-1.1404"/>
      <path id="path98" d="m576.73 672.57 0.44802-1.1404"/>
      <path id="path99" d="m577.87 669.76 0.44803-1.0997"/>
      <path id="path100" d="m579.01 666.99 0.48876-1.1404"/>
      <path id="path101" d="m580.15 664.18 0.48876-1.1404"/>
      <path id="path102" d="m581.34 661.37 0.44802-1.0997"/>
      <path id="path103" d="m582.48 658.6 0.44803-1.1404"/>
      <path id="path104" d="m583.62 655.79 0.44803-1.1404"/>
      <path id="path105" d="m584.76 652.98 0.48876-1.0997"/>
      <path id="path106" d="m585.94 650.21 0.44802-1.1404"/>
      <path id="path107" d="m587.08 647.4 0.44803-1.0997"/>
      <path id="path108" d="m588.22 644.59 0.44803-1.0997"/>
      <path id="path109" d="m589.36 641.82 0.48875-1.1404"/>
      <path id="path110" d="m590.54 639.01 0.44802-1.0997"/>
      <path id="path111" d="m591.68 636.2 0.44803-1.0997"/>
      <path id="path112" d="m592.82 633.43 0.44803-1.1404"/>
      <path id="path113" d="m593.96 630.62 0.48875-1.0997"/>
      <path id="path114" d="m595.14 627.81 0.44803-1.0997"/>
      <path id="path115" d="m596.28 625.04 0.44803-1.1404"/>
      <path id="path116" d="m597.42 622.23 0.44803-1.0997"/>
      <path id="path117" d="m598.56 619.42 0.48875-1.0997"/>
      <path id="path118" d="m599.75 616.65 0.44803-1.1404"/>
      <path id="path119" d="m600.89 613.84 0.44803-1.0997"/>
      <path id="path120" d="m602.03 611.07 0.44803-1.1404"/>
      <path id="path121" d="m603.17 608.26 0.48875-1.1404"/>
      <path id="path122" d="m604.35 605.45 0.44803-1.0997"/>
      <path id="path123" d="m605.49 602.68 0.44803-1.1404"/>
      <path id="path124" d="m606.63 599.87 0.44802-1.1404"/>
      <path id="path125" d="m607.77 597.06 0.48876-1.0997"/>
      <path id="path126" d="m608.95 594.29 0.44803-1.1404"/>
      <path id="path127" d="m610.09 591.48 0.0815-0.16292 0.4073-1.0182"/>
     </g>
     <path id="path128" d="m673.67 747.39-1.1812 0.61095-1.1812 0.6924-1.0997 0.69241-1.0997 0.81459-1.0182 0.85533-0.97751 0.89605-0.97751 0.93679-0.89606 0.97751" stroke="#212830"/>
     <path id="path129" d="m662.27 758.27-0.61094 1.2219-0.52949 1.2219-0.48876 1.2626-0.4073 1.3034-0.32583 1.3441-0.28511 1.3034-0.20365 1.3848-0.12219 1.3441" stroke="#212830"/>
    </g>
    <g>
     <path id="path130" d="m673.59 747.15 0.20365 0.48876 1.3848-0.93678z" fill="#212830" fill-rule="evenodd"/>
     <path id="path131" d="m659.58 768.65h-0.52949l0.20365 1.6292z" fill="#212830" fill-rule="evenodd"/>
     <text id="text132" transform="translate(659.5 758.06)" fill="#000000" font-family="Garamond" font-size="6.125px" font-weight="400" letter-spacing="0px" stroke-width=".29919" word-spacing="0px" style="line-height:125%" xml:space="preserve"><tspan id="tspan132" x="0" y="0" sodipodi:role="line"><tspan id="tspan131" dx="0" dy="0" fill="#212830" font-family="Garamond" font-size="6.125px" font-weight="400" stroke-width=".29919">68°</tspan></tspan></text>
    </g>
    <path id="path132" d="m683 705.85-1.6699 0.0407-1.6292 0.12219-1.6699 0.12219-1.6292 0.20365" fill="none" stroke="#212830" stroke-linecap="round" stroke-linejoin="round" stroke-width=".29919"/>
    <path id="path133" d="m668.38 707.88-1.5885 0.44803-1.5477 0.44803-1.5477 0.52948-1.5477 0.57022" fill="none" stroke="#212830" stroke-linecap="round" stroke-linejoin="round" stroke-width=".29919"/>
    <g>
     <path id="path134" d="m683 705.52v0.57021l1.6292-0.32583z" fill="#212830" fill-rule="evenodd"/>
     <path id="path135" d="m662.27 710.08-0.20365-0.48876-1.4255 0.85533z" fill="#212830" fill-rule="evenodd"/>
     <text id="text136" transform="translate(668.38 708.98)" fill="#000000" font-family="Garamond" font-size="6.125px" font-weight="400" letter-spacing="0px" stroke-width=".29919" word-spacing="0px" style="line-height:125%" xml:space="preserve"><tspan id="tspan136" x="0" y="0" sodipodi:role="line"><tspan id="tspan135" dx="0" dy="0" fill="#212830" font-family="Garamond" font-size="6.125px" font-weight="400" stroke-width=".29919">22°</tspan></tspan></text>
    </g>
    <g fill="none" stroke="#212830" stroke-linecap="round" stroke-linejoin="round" stroke-width=".29919">
     <path id="path136" d="m534.01 566.22h-70.381"/>
     <path id="path137" d="m534.01 770.28h-70.381"/>
     <path id="path138" d="m466.15 570.01v86.225"/>
     <path id="path139" d="m466.15 766.53v-86.266"/>
    </g>
    <g>
     <path id="path140" d="m465.54 570.01h1.2626l-0.65167-3.7879z" fill="#212830" fill-rule="evenodd"/>
     <path id="path141" d="m465.54 766.53h1.2626l-0.65167 3.7471z" fill="#212830" fill-rule="evenodd"/>
     <text id="text142" transform="translate(452.02 670.13)" fill="#000000" font-family="Arial" font-size="5.3125px" font-weight="400" letter-spacing="0px" stroke-width=".29919" word-spacing="0px" style="line-height:125%" xml:space="preserve"><tspan id="tspan142" x="0" y="0" sodipodi:role="line"><tspan id="tspan141" dx="0" dy="0" fill="#212830" font-family="Arial" font-size="5.3125px" font-weight="400" stroke-width=".29919">1.61803399</tspan></tspan></text>
    </g>
    <g fill="none" stroke="#212830" stroke-linecap="round" stroke-linejoin="round" stroke-width=".29919">
     <path id="path142" d="m536.53 563.7v-42.888"/>
     <path id="path143" d="m684.63 563.7v-42.888"/>
     <path id="path144" d="m540.32 523.34h56.94"/>
     <path id="path145" d="m680.88 523.34h-56.981"/>
    </g>
    <g>
     <path id="path146" d="m540.32 522.73v1.2626l-3.7879-0.65168z" fill="#212830" fill-rule="evenodd"/>
     <path id="path147" d="m680.88 522.73v1.2626l3.7471-0.65168z" fill="#212830" fill-rule="evenodd"/>
     <text id="text148" transform="translate(606.75 525.25)" fill="#000000" font-family="Arial" font-size="5.3125px" font-weight="400" letter-spacing="0px" stroke-width=".29919" word-spacing="0px" style="line-height:125%" xml:space="preserve"><tspan id="tspan148" x="0" y="0" sodipodi:role="line"><tspan id="tspan147" dx="0" dy="0" fill="#212830" font-family="Arial" font-size="5.3125px" font-weight="400" stroke-width=".29919">1.2</tspan></tspan></text>
    </g>
    <g fill="none" stroke="#212830" stroke-linecap="round" stroke-linejoin="round" stroke-width=".29919">
     <path id="path148" d="m736.56 585.69h19.591"/>
     <path id="path149" d="m736.56 770.28h19.591"/>
     <path id="path150" d="m753.62 589.48v76.49"/>
     <path id="path151" d="m753.62 766.53v-76.49"/>
    </g>
    <g>
     <path id="path152" d="m753.01 589.48h1.2626l-0.65168-3.7879z" fill="#212830" fill-rule="evenodd"/>
     <path id="path153" d="m753.01 766.53h1.2626l-0.65168 3.7471z" fill="#212830" fill-rule="evenodd"/>
     <text id="text154" transform="translate(749.75 679.9)" fill="#000000" font-family="Arial" font-size="5.3125px" font-weight="400" letter-spacing="0px" stroke-width=".29919" word-spacing="0px" style="line-height:125%" xml:space="preserve"><tspan id="tspan154" x="0" y="0" sodipodi:role="line"><tspan id="tspan153" dx="0" dy="0" fill="#212830" font-family="Arial" font-size="5.3125px" font-weight="400" stroke-width=".29919">1.5</tspan></tspan></text>
    </g>
    <path id="path154" d="m594.37 634.08 1.5885 0.57022 1.5885 0.48875 1.5885 0.44803 1.6292 0.4073 1.6292 0.32584 1.6699 0.2851 1.6292 0.20365 1.6699 0.20365" fill="none" stroke="#212830" stroke-linecap="round" stroke-linejoin="round" stroke-width=".29919"/>
    <path id="path155" d="m615.34 637.01 1.6699-0.16292 1.6292-0.20365 1.6292-0.24437 1.6292-0.32584 1.6292-0.4073 1.5885-0.4073 1.5885-0.48875 1.5477-0.57022" fill="none" stroke="#212830" stroke-linecap="round" stroke-linejoin="round" stroke-width=".29919"/>
    <path id="path156" d="m594.25 634.32 0.20365-0.52949-1.6292-0.32584z" fill="#212830" fill-rule="evenodd"/>
    <path id="path157" d="m628.17 633.96 0.20365 0.48876 1.4255-0.8146z" fill="#212830" fill-rule="evenodd"/>
    <g fill="#000000" font-weight="400" letter-spacing="0px" stroke-width=".29919" word-spacing="0px">
     <text id="text158" transform="translate(607.32 639.17)" font-family="Garamond" font-size="6.125px" style="line-height:125%" xml:space="preserve"><tspan id="tspan158" x="0" y="0" sodipodi:role="line"><tspan id="tspan157" dx="0" dy="0" fill="#212830" font-family="Garamond" font-size="6.125px" font-weight="400" stroke-width=".29919">44°</tspan></tspan></text>
     <text id="text160" transform="translate(692.2 550.01)" font-family="Arial" font-size="7.0625px" style="line-height:125%" xml:space="preserve"><tspan id="tspan160" x="0" y="0" sodipodi:role="line"><tspan id="tspan159" dx="0" dy="0" fill="#212830" font-family="Arial" font-size="7.0625px" font-weight="400" stroke-width=".29919">A=0.102</tspan></tspan></text>
     <text id="text162" transform="translate(691.67 558.45)" font-family="Arial" font-size="7.0625px" style="line-height:125%" xml:space="preserve"><tspan id="tspan162" x="0" y="0" sodipodi:role="line"><tspan id="tspan161" dx="0" dy="0" fill="#212830" font-family="Arial" font-size="7.0625px" font-weight="400" stroke-width=".29919">P=0.91</tspan></tspan></text>
    </g>
    <g fill="none" stroke-linecap="round" stroke-linejoin="round" stroke-width=".29919">
     <path id="path162" d="m684.63 770.28v-204.06h-148.09v204.06" stroke="#00f"/>
     <path id="path163" d="m617.46 590.7 60.932-43.214h12.585" stroke="#00f"/>
     <path id="path164" d="m649.48 590.3-0.0407-1.955-0.16292-1.9143-0.24437-1.9143-0.32584-1.9143-0.44803-1.9143-0.48876-1.8736-0.65167-1.8328-0.69241-1.7921-0.81459-1.7921-0.85533-1.7106-0.97751-1.6699-1.059-1.6699-1.1404-1.5477-1.1812-1.5477-1.3034-1.4255-1.3441-1.3848-1.4255-1.3441-1.507-1.2219-1.5477-1.1812-1.5885-1.0997-1.6292-1.0182-1.7106-0.93678-1.7514-0.8146-1.7921-0.77386-1.8328-0.65168-1.8328-0.57021-1.8736-0.48876-1.9143-0.36657-1.9143-0.32584-1.955-0.16291-1.9143-0.12219h-1.955l-1.9143 0.12219-1.955 0.16291-1.9143 0.32584-1.9143 0.36657-1.8736 0.48876-1.8328 0.57021-1.8328 0.65168-1.7921 0.77386-1.7514 0.8146-1.6699 0.93678-1.6699 1.0182-1.5885 1.0997-1.5477 1.1812-1.507 1.2219-1.4255 1.3441-1.3441 1.3848-1.3034 1.4255-1.1812 1.5477-1.1404 1.5477-1.059 1.6699-0.97751 1.6699-0.85533 1.7106-0.81459 1.7921-0.69241 1.7921-0.65167 1.8328-0.48876 1.8736-0.44803 1.9143-0.32584 1.9143-0.24437 1.9143-0.16292 1.9143-0.0407 1.955 0.0407 1.955 0.16292 1.9143 0.24437 1.9143 0.32584 1.9143 0.44803 1.9143 0.48876 1.8736 0.65167 1.8328 0.69241 1.7921 0.81459 1.7921 0.85533 1.7106 0.97751 1.6699 1.059 1.6699 1.1404 1.5477 1.1812 1.5477 1.3034 1.4255 1.3441 1.3848 1.4255 1.3441 1.507 1.2219 1.5477 1.1812 1.5885 1.0997 1.6699 1.0182 1.6699 0.93679 1.7514 0.81459 1.7921 0.77387 1.8328 0.65167 1.8328 0.57022 1.8736 0.48876 1.9143 0.36657 1.9143 0.32583 1.955 0.16292 1.9143 0.12219h1.955l1.9143-0.12219 1.955-0.16292 1.9143-0.32583 1.9143-0.36657 1.8736-0.48876 1.8328-0.57022 1.8328-0.65167 1.7921-0.77387 1.7514-0.81459 1.6699-0.93679 1.6699-1.0182 1.5885-1.0997 1.5477-1.1812 1.507-1.2219 1.4255-1.3441 1.3441-1.3848 1.3034-1.4255 1.1812-1.5477 1.1404-1.5477 1.059-1.6699 0.97751-1.6699 0.85533-1.7106 0.81459-1.7921 0.69241-1.7921 0.65167-1.8328 0.48876-1.8736 0.44803-1.9143 0.32584-1.9143 0.24437-1.9143 0.16292-1.9143z" stroke="#0ff"/>
     <path id="path165" d="m610.58 551.32-37.023 26.963 14.174 43.54h45.739l14.133-43.54z" stroke="#0ff"/>
     <path id="path166" d="m573.56 578.28 59.913 43.54-22.89-70.503-22.849 70.503 59.873-43.54z" stroke="#0f0"/>
     <path id="path167" d="m622.59 590.3-0.0407-1.059-0.16291-1.0997-0.24438-1.0182-0.32584-1.059-0.4073-0.97752-0.52949-0.93678-0.57021-0.89606-0.69241-0.85532-0.73313-0.77387-0.8146-0.73313-0.85532-0.61095-0.93679-0.57021-0.97751-0.44803-1.0182-0.4073-1.0182-0.28511-1.059-0.16292-1.0997-0.12218h-1.059l-1.0997 0.12218-1.059 0.16292-1.0182 0.28511-1.0182 0.4073-0.97751 0.44803-0.93679 0.57021-0.85532 0.61095-0.8146 0.73313-0.73313 0.77387-0.69241 0.85532-0.57021 0.89606-0.52949 0.93678-0.4073 0.97752-0.32584 1.059-0.24437 1.0182-0.16292 1.0997-0.0407 1.059 0.0407 1.059 0.16292 1.0997 0.24437 1.0182 0.32584 1.059 0.4073 0.97752 0.52949 0.93678 0.57021 0.89605 0.69241 0.85533 0.73313 0.77386 0.8146 0.73314 0.85532 0.61095 0.93679 0.57021 0.97751 0.44803 1.0182 0.4073 1.0182 0.2851 1.059 0.16292 1.0997 0.12219h1.059l1.0997-0.12219 1.059-0.16292 1.0182-0.2851 1.0182-0.4073 0.97751-0.44803 0.93679-0.57021 0.85532-0.61095 0.8146-0.73314 0.73313-0.77386 0.69241-0.85533 0.57021-0.89605 0.52949-0.93678 0.4073-0.97752 0.32584-1.059 0.24438-1.0182 0.16291-1.0997z" stroke="#cd6928"/>
    </g>
    <g stroke-width=".29919">
     <text id="text168" transform="translate(547.45 538.49)" fill="#000000" font-family="Arial" font-size="7.0625px" font-weight="400" letter-spacing="0px" word-spacing="0px" style="line-height:125%" xml:space="preserve"><tspan id="tspan168" x="0" y="0" sodipodi:role="line"><tspan id="tspan167" dx="0" dy="0" fill="#212830" font-family="Arial" font-size="7.0625px" font-weight="400" stroke-width=".29919">A=0.107</tspan></tspan></text>
     <text id="text170" transform="translate(546.92 546.92)" fill="#000000" font-family="Arial" font-size="7.0625px" font-weight="400" letter-spacing="0px" word-spacing="0px" style="line-height:125%" xml:space="preserve"><tspan id="tspan170" x="0" y="0" sodipodi:role="line"><tspan id="tspan169" dx="0" dy="0" fill="#212830" font-family="Arial" font-size="7.0625px" font-weight="400" stroke-width=".29919">P=2.94</tspan></tspan></text>
     <path id="path170" d="m610.58 602.35-11.445-8.3089 4.3988-13.482h14.133l4.3581 13.482z" fill="none" stroke="#f0f" stroke-linecap="round" stroke-linejoin="round"/>
     <text id="text172" transform="translate(647.24 532.13)" fill="#000000" font-family="Arial" font-size="7.0625px" font-weight="400" letter-spacing="0px" word-spacing="0px" style="line-height:125%" xml:space="preserve"><tspan id="tspan172" x="0" y="0" sodipodi:role="line"><tspan id="tspan171" dx="0" dy="0" fill="#212830" font-family="Arial" font-size="7.0625px" font-weight="400" stroke-width=".29919">A=0.022</tspan></tspan></text>
     <text id="text174" transform="translate(646.71 540.57)" fill="#000000" font-family="Arial" font-size="7.0625px" font-weight="400" letter-spacing="0px" word-spacing="0px" style="line-height:125%" xml:space="preserve"><tspan id="tspan174" x="0" y="0" sodipodi:role="line"><tspan id="tspan173" dx="0" dy="0" fill="#212830" font-family="Arial" font-size="7.0625px" font-weight="400" stroke-width=".29919">P=0.56</tspan></tspan></text>
     <path id="path174" d="m603.21 574.09-15.762-38.123h-12.626" fill="none" stroke="#0f0" stroke-linecap="round" stroke-linejoin="round"/>
     <path id="path175" d="m620.19 588.38 13.196-58.773h12.585" fill="none" stroke="#f0f" stroke-linecap="round" stroke-linejoin="round"/>
     <text id="text176" transform="translate(657.38 583.58)" fill="#000000" font-family="Arial" font-size="5.3125px" font-weight="400" letter-spacing="0px" word-spacing="0px" style="line-height:125%" xml:space="preserve"><tspan id="tspan176" x="0" y="0" sodipodi:role="line"><tspan id="tspan175" dx="0" dy="0" fill="#212830" font-family="Arial" font-size="5.3125px" font-weight="400" stroke-width=".29919">R0.30901699</tspan></tspan></text>
     <path id="path176" d="m656.52 581.66-6.4353 1.2219" fill="none" stroke="#0ff" stroke-linecap="round" stroke-linejoin="round"/>
    </g>
    <path id="path177" d="m650.05 582.68 0.0815 0.40729-1.2626 0.0407z" fill="#0ff" fill-rule="evenodd"/>
    <text id="text178" transform="translate(660.03 572.46)" fill="#000000" font-family="Arial" font-size="5.3125px" font-weight="400" letter-spacing="0px" stroke-width=".29919" word-spacing="0px" style="line-height:125%" xml:space="preserve"><tspan id="tspan178" x="0" y="0" sodipodi:role="line"><tspan id="tspan177" dx="0" dy="0" fill="#212830" font-family="Arial" font-size="5.3125px" font-weight="400" stroke-width=".29919">Ø0.61803399</tspan></tspan></text>
    <path id="path178" d="m659.01 570.62h-1.2626l-10.06 4.1952" fill="none" stroke="#0ff" stroke-linecap="round" stroke-linejoin="round" stroke-width=".29919"/>
    <path id="path179" d="m647.6 574.62 0.16291 0.4073-1.2219 0.2851z" fill="#0ff" fill-rule="evenodd"/>
    <g stroke-width=".29919">
     <text id="text180" transform="translate(645.73 601.17)" fill="#000000" font-family="Arial" font-size="5.3125px" font-weight="400" letter-spacing="0px" word-spacing="0px" style="line-height:125%" xml:space="preserve"><tspan id="tspan180" x="0" y="0" sodipodi:role="line"><tspan id="tspan179" dx="0" dy="0" fill="#212830" font-family="Arial" font-size="5.3125px" font-weight="400" stroke-width=".29919">R0.0955</tspan></tspan></text>
     <path id="path180" d="m490.79 629.27h239.61" fill="none" stroke="#0ff" stroke-linecap="round" stroke-linejoin="round"/>
     <path id="path181" d="m644.91 599.3-21.465-5.6207" fill="none" stroke="#0ff" stroke-linecap="round" stroke-linejoin="round"/>
    </g>
    <path id="path182" d="m623.49 593.47-0.0815 0.4073-1.1812-0.52949z" fill="#0ff" fill-rule="evenodd"/>
    <text id="text183" transform="translate(652.57 611.84)" fill="#000000" font-family="Arial" font-size="5.3125px" font-weight="400" letter-spacing="0px" stroke-width=".29919" word-spacing="0px" style="line-height:125%" xml:space="preserve"><tspan id="tspan183" x="0" y="0" sodipodi:role="line"><tspan id="tspan182" dx="0" dy="0" fill="#212830" font-family="Arial" font-size="5.3125px" font-weight="400" stroke-width=".29919">Ø0.1910</tspan></tspan></text>
    <path id="path183" d="m651.55 610.01h-10.956l-18.899-12.423" fill="none" stroke="#0ff" stroke-linecap="round" stroke-linejoin="round" stroke-width=".29919"/>
    <path id="path184" d="m621.82 597.42-0.24438 0.36657-0.93678-0.89605z" fill="#0ff" fill-rule="evenodd"/>
   </g>
  </g>
 </g>
 <metadata id="metadata1">
  <rdf:RDF>
   <cc:Work rdf:about="">
    <dc:rights>
     <cc:Agent>
      <dc:title>399 1/7 © 2025 by Miguel Hernando Ibáñez Sánchez is licensed under Creative Commons Attribution-NoDerivatives 4.0 International</dc:title>
     </cc:Agent>
    </dc:rights>
    <dc:title>399 1/7</dc:title>
    <dc:date>09 de marzo del 2025</dc:date>
    <dc:publisher>
     <cc:Agent>
      <dc:title>ISAN atelier academiae</dc:title>
     </cc:Agent>
    </dc:publisher>
    <dc:creator>
     <cc:Agent>
      <dc:title>Miguel Hernando Ibáñez Sánchez</dc:title>
     </cc:Agent>
    </dc:creator>
    <dc:source>Sáhica - Boyacá, Colombia</dc:source>
    <dc:relation>Lo Oculto del Sendero de la Serpiente</dc:relation>
    <dc:language>Español - Catstellano</dc:language>
    <dc:subject>
     <rdf:Bag>
      <rdf:li>Geometria sagrada</rdf:li>
      <rdf:li>sacred geometry</rdf:li>
      <rdf:li>arquitectura sagrada</rdf:li>
      <rdf:li>sacred architecture</rdf:li>
     </rdf:Bag>
    </dc:subject>
    <dc:coverage>Global</dc:coverage>
    <dc:description>Estudios geométricos</dc:description>
    <cc:license rdf:resource="http://creativecommons.org/licenses/by-nd/4.0/"/>
   </cc:Work>
   <cc:License rdf:about="http://creativecommons.org/licenses/by-nd/4.0/">
    <cc:permits rdf:resource="http://creativecommons.org/ns#Reproduction"/>
    <cc:permits rdf:resource="http://creativecommons.org/ns#Distribution"/>
    <cc:requires rdf:resource="http://creativecommons.org/ns#Notice"/>
    <cc:requires rdf:resource="http://creativecommons.org/ns#Attribution"/>
   </cc:License>
  </rdf:RDF>
 </metadata>
</svg>
