<?xml version="1.0" encoding="UTF-8"?>
<!-- Created with Inkscape (http://www.inkscape.org/) -->
<svg id="svg1" width="210mm" height="180mm" inkscape:version="1.4 (86a8ad7, 2024-10-11)" sodipodi:docname="1.svg" version="1.1" viewBox="0 0 210 180" xmlns="http://www.w3.org/2000/svg" xmlns:cc="http://creativecommons.org/ns#" xmlns:dc="http://purl.org/dc/elements/1.1/" xmlns:inkscape="http://www.inkscape.org/namespaces/inkscape" xmlns:rdf="http://www.w3.org/1999/02/22-rdf-syntax-ns#" xmlns:sodipodi="http://sodipodi.sourceforge.net/DTD/sodipodi-0.dtd">
 <title id="title2">El piramidión de Keops</title>
 <sodipodi:namedview id="namedview1" bordercolor="#000000" borderopacity="0.25" inkscape:current-layer="layer1" inkscape:cx="396.84014" inkscape:cy="561.25984" inkscape:deskcolor="#d1d1d1" inkscape:document-units="mm" inkscape:pagecheckerboard="0" inkscape:pageopacity="0.0" inkscape:showpageshadow="2" inkscape:window-height="745" inkscape:window-maximized="1" inkscape:window-width="1366" inkscape:window-x="-8" inkscape:window-y="-8" inkscape:zoom="0.49264169" pagecolor="#ffffff"/>
 <defs id="defs1">
  <pattern id="WMFhbasepattern" width="6" height="6" patternUnits="userSpaceOnUse"/>
 </defs>
 <g id="layer1" inkscape:groupmode="layer" inkscape:label="Capa 1">
  <g id="g2" transform="matrix(.90839 0 0 .90839 182.29 8.2664)" stroke-width=".22017">
   <g id="g1" transform="matrix(.26458 0 0 .26458 -237.49 -19.87)" stroke-width=".83214">
    <g fill="none" stroke-linecap="round" stroke-linejoin="round" stroke-width=".83214">
     <path id="path1" d="m600.9 182.06-212.82 154.82 81.296 250.48h263.05l81.296-250.48z" stroke="#00f"/>
     <path id="path2" d="m670 267.6-0.0425-2.6773-0.16999-2.6773-0.25498-2.6773-0.38247-2.6773-0.42496-2.6348-0.59496-2.5923-0.67994-2.6348-0.76494-2.5498-0.84994-2.5498-0.97742-2.5073-1.0624-2.4648-1.1474-2.4223-1.2324-2.3798-1.3599-2.2948-1.4024-2.2948-1.5299-2.2098-1.6149-2.1248-1.6574-2.0823-1.7849-2.0398-1.8274-1.9548-1.9124-1.8699-1.9973-1.8274-2.0398-1.6999-2.1248-1.6574-2.1673-1.5724-2.2523-1.4449-2.2948-1.4024-2.3373-1.2749-2.4223-1.2324-2.4223-1.1049-2.4648-1.0199-2.5498-0.89243-2.5498-0.84994-2.5498-0.72244-2.6348-0.59495-2.6348-0.50996-2.6348-0.42497-2.6773-0.29748-2.6348-0.21248-2.6773-0.12749h-2.7198l-2.6773 0.12749-2.6348 0.21248-2.6773 0.29748-2.6348 0.42497-2.6348 0.50996-2.6348 0.59495-2.5498 0.72244-2.5498 0.84994-2.5498 0.89243-2.4648 1.0199-2.4223 1.1049-2.4223 1.2324-2.3373 1.2749-2.2948 1.4024-2.2523 1.4449-2.1673 1.5724-2.1248 1.6574-2.0398 1.6999-1.9973 1.8274-1.9124 1.8699-1.8274 1.9548-1.7849 2.0398-1.6574 2.0823-1.6149 2.1248-1.5299 2.2098-1.4024 2.2948-1.3599 2.2948-1.2324 2.3798-1.1474 2.4223-1.0624 2.4648-0.97742 2.5073-0.84994 2.5498-0.76494 2.5498-0.67994 2.6348-0.59496 2.5923-0.42496 2.6348-0.38247 2.6773-0.25498 2.6773-0.16999 2.6773-0.0425 2.6773 0.0425 2.6773 0.16999 2.6773 0.25498 2.6773 0.38247 2.6773 0.42496 2.6348 0.59496 2.5923 0.67994 2.6348 0.76494 2.5498 0.84994 2.5498 0.97742 2.5073 1.0624 2.4648 1.1474 2.4223 1.2324 2.3798 1.3599 2.2948 1.4024 2.2948 1.5299 2.2098 1.6149 2.1248 1.6574 2.0823 1.7849 2.0398 1.8274 1.9548 1.9124 1.8698 1.9973 1.8274 2.0398 1.6999 2.1248 1.6574 2.1673 1.5724 2.2523 1.4449 2.2948 1.4024 2.3373 1.2749 2.4223 1.2324 2.4223 1.1049 2.4648 1.0199 2.5498 0.89243 2.5498 0.84993 2.5498 0.72245 2.6348 0.59495 2.6348 0.50996 2.6348 0.42497 2.6773 0.29748 2.6348 0.21248 2.6773 0.12749h2.7198l2.6773-0.12749 2.6348-0.21248 2.6773-0.29748 2.6348-0.42497 2.6348-0.50996 2.6348-0.59495 2.5498-0.72245 2.5498-0.84993 2.5498-0.89243 2.4648-1.0199 2.4223-1.1049 2.4223-1.2324 2.3373-1.2749 2.2948-1.4024 2.2523-1.4449 2.1673-1.5724 2.1248-1.6574 2.0398-1.6999 1.9973-1.8274 1.9124-1.8698 1.8274-1.9548 1.7849-2.0398 1.6574-2.0823 1.6149-2.1248 1.5299-2.2098 1.4024-2.2948 1.3599-2.2948 1.2324-2.3798 1.1474-2.4223 1.0624-2.4648 0.97742-2.5073 0.84994-2.5498 0.76494-2.5498 0.67994-2.6348 0.59496-2.5923 0.42496-2.6348 0.38247-2.6773 0.25498-2.6773 0.16999-2.6773z" stroke="#0ff"/>
     <g stroke="#f00">
      <path id="path3" d="m732.43 587.35-1.2324-3.0173"/>
      <path id="path4" d="m729.71 580.59-1.0199-2.4648"/>
      <path id="path5" d="m727.2 574.39-1.0199-2.5073"/>
      <path id="path6" d="m724.7 568.14-1.0199-2.5073"/>
      <path id="path7" d="m722.19 561.89-0.97742-2.4648"/>
      <path id="path8" d="m719.68 555.69-0.97742-2.5073"/>
      <path id="path9" d="m717.22 549.44-1.0199-2.4648"/>
      <path id="path10" d="m714.71 543.24-1.0199-2.5073"/>
      <path id="path11" d="m712.2 536.99-1.0199-2.5073"/>
      <path id="path12" d="m709.69 530.74-0.97743-2.4648"/>
      <path id="path13" d="m707.19 524.54-0.97742-2.5073"/>
      <path id="path14" d="m704.72 518.29-1.0199-2.5073"/>
      <path id="path15" d="m702.22 512.04-1.0199-2.4648"/>
      <path id="path16" d="m699.71 505.84-1.0199-2.5073"/>
      <path id="path17" d="m697.2 499.59-0.97742-2.4648"/>
      <path id="path18" d="m694.69 493.39-0.97743-2.5073"/>
      <path id="path19" d="m692.19 487.14-0.97742-2.5073"/>
      <path id="path20" d="m689.72 480.89-1.0199-2.4648"/>
      <path id="path21" d="m687.21 474.69-1.0199-2.5073"/>
      <path id="path22" d="m684.71 468.44-0.97743-2.5073"/>
      <path id="path23" d="m682.2 462.24-0.97742-2.5073"/>
      <path id="path24" d="m679.69 455.99-0.97742-2.5073"/>
      <path id="path25" d="m677.23 449.74-1.0199-2.4648"/>
      <path id="path26" d="m674.72 443.54-1.0199-2.5073"/>
      <path id="path27" d="m672.21 437.29-1.0199-2.5073"/>
      <path id="path28" d="m669.71 431.04-0.97742-2.4648"/>
      <path id="path29" d="m667.2 424.84-0.97743-2.5073"/>
      <path id="path30" d="m664.73 418.59-1.0199-2.4648"/>
      <path id="path31" d="m662.23 412.39-1.0199-2.5073"/>
      <path id="path32" d="m659.72 406.14-1.0199-2.5073"/>
      <path id="path33" d="m657.21 399.89-0.97743-2.4648"/>
      <path id="path34" d="m654.7 393.69-0.97742-2.5073"/>
      <path id="path35" d="m652.2 387.44-0.97743-2.5073"/>
      <path id="path36" d="m649.73 381.2-1.0199-2.4648"/>
      <path id="path37" d="m647.22 374.99-1.0199-2.5073"/>
      <path id="path38" d="m644.72 368.74-0.97742-2.4648"/>
      <path id="path39" d="m642.21 362.54-0.97743-2.5073"/>
      <path id="path40" d="m639.7 356.29-0.97742-2.5073"/>
      <path id="path41" d="m637.24 350.05-1.0199-2.4648"/>
      <path id="path42" d="m634.73 343.84-1.0199-2.5073"/>
      <path id="path43" d="m632.22 337.59-1.0199-2.5073"/>
      <path id="path44" d="m629.72 331.39-0.97742-2.5073"/>
      <path id="path45" d="m627.21 325.14-0.97742-2.5073"/>
      <path id="path46" d="m624.74 318.9-1.0199-2.4648"/>
      <path id="path47" d="m622.24 312.69-1.0199-2.5073"/>
      <path id="path48" d="m619.73 306.44-1.0199-2.5073"/>
      <path id="path49" d="m617.22 300.2-0.97742-2.4648"/>
      <path id="path50" d="m614.71 293.99-0.97743-2.5073"/>
      <path id="path51" d="m612.25 287.75-1.0199-2.4648"/>
      <path id="path52" d="m609.74 281.54-1.0199-2.5073"/>
      <path id="path53" d="m607.24 275.29-1.0199-2.5073"/>
      <path id="path54" d="m604.73 269.05-0.97743-2.4648"/>
      <path id="path55" d="m602.22 262.84-0.12749-0.33998-1.1899-3.0598"/>
      <path id="path56" d="m524.79 670.85-131.57-327.9"/>
      <path id="path57" d="m404.95 719.04-131.57-327.9"/>
     </g>
     <path id="path58" d="m600.9 198.37-65.742 47.851 25.116 77.429h81.254l25.116-77.429z" stroke="#0ff"/>
     <path id="path59" d="m535.16 246.23 106.37 77.429-40.627-125.28-40.627 125.28 106.37-77.429z" stroke="#0f0"/>
     <path id="path60" d="m622.24 267.6-0.0425-1.4449-0.16999-1.4449-0.21248-1.4449-0.38247-1.4449-0.42497-1.3599-0.55245-1.3599-0.59496-1.3174-0.72244-1.2749-0.80744-1.2324-0.89243-1.1474-0.93492-1.1049-1.0199-1.0624-1.1049-0.93493-1.1899-0.89243-1.1899-0.80744-1.2749-0.72244-1.3174-0.59496-1.3599-0.55245-1.4024-0.42497-1.4024-0.33997-1.4449-0.25498-1.4449-0.16999-1.4449-0.0425-1.4449 0.0425-1.4449 0.16999-1.4449 0.25498-1.4024 0.33997-1.4024 0.42497-1.3599 0.55245-1.3174 0.59496-1.2749 0.72244-1.1899 0.80744-1.1899 0.89243-1.1049 0.93493-1.0199 1.0624-0.93492 1.1049-0.89243 1.1474-0.80744 1.2324-0.72244 1.2749-0.59496 1.3174-0.55246 1.3599-0.42496 1.3599-0.38247 1.4449-0.21249 1.4449-0.16998 1.4449-0.0425 1.4449 0.0425 1.4449 0.16998 1.4449 0.21249 1.4449 0.38247 1.4449 0.42496 1.3599 0.55246 1.3599 0.59496 1.3174 0.72244 1.2749 0.80744 1.2324 0.89243 1.1474 0.93492 1.1049 1.0199 1.0624 1.1049 0.93493 1.1899 0.89243 1.1899 0.80744 1.2749 0.72244 1.3174 0.59495 1.3599 0.55246 1.4024 0.42497 1.4024 0.33997 1.4449 0.25498 1.4449 0.16999 1.4449 0.0425 1.4449-0.0425 1.4449-0.16999 1.4449-0.25498 1.4024-0.33997 1.4024-0.42497 1.3599-0.55246 1.3174-0.59495 1.2749-0.72244 1.1899-0.80744 1.1899-0.89243 1.1049-0.93493 1.0199-1.0624 0.93492-1.1049 0.89243-1.1474 0.80744-1.2324 0.72244-1.2749 0.59496-1.3174 0.55245-1.3599 0.42497-1.3599 0.38247-1.4449 0.21248-1.4449 0.16999-1.4449z" stroke="#cd6928"/>
     <path id="path61" d="m600.9 289.02-20.313-14.789 7.7344-23.926h25.116l7.7769 23.926z" stroke="#f0f"/>
     <path id="path62" d="m588.32 250.31 12.579 38.714 12.537-38.714-32.85 23.926h40.627z" stroke="#00f"/>
     <g stroke="#212830">
      <path id="path63" d="m605.07 257.78 17.594-7.0969"/>
      <path id="path64" d="m736.59 585.69 17.594-7.0969"/>
      <path id="path65" d="m621 258.59 63.278 157.71"/>
      <path id="path66" d="m747.56 574-46.151-114.95"/>
     </g>
    </g>
    <g>
     <path id="path67" d="m622.02 258.17-2.0398 0.84993-1.4874-6.6295z" fill="#212830" fill-rule="evenodd"/>
     <path id="path68" d="m748.58 573.62-2.0823 0.80743 3.5272 5.822z" fill="#212830" fill-rule="evenodd"/>
     <text id="text69" transform="translate(668.39 440.99)" fill="#000000" font-family="Arial" font-size="9.375px" font-weight="400" letter-spacing="0px" stroke-width=".83214" word-spacing="0px" style="line-height:125%" xml:space="preserve"><tspan id="tspan69" x="0" y="0" sodipodi:role="line"><tspan id="tspan68" dx="0" dy="0" fill="#212830" font-family="Arial" font-size="9.375px" font-weight="400" stroke-width=".83214">1.57714881</tspan></tspan></text>
    </g>
    <g fill="none" stroke-linecap="round" stroke-linejoin="round" stroke-width=".83214">
     <g stroke="#f00">
      <path id="path69" d="m273.38 391.14 3.0173-1.1899"/>
      <path id="path70" d="m280.14 388.46 2.4648-1.0199"/>
      <path id="path71" d="m286.34 385.95 2.5073-1.0199"/>
      <path id="path72" d="m292.59 383.45 2.4648-1.0199"/>
      <path id="path73" d="m298.79 380.94 2.5073-1.0199"/>
      <path id="path74" d="m305.04 378.43 2.5073-1.0199"/>
      <path id="path75" d="m311.25 375.93 2.5073-1.0199"/>
      <path id="path76" d="m317.49 373.42 2.5073-1.0199"/>
      <path id="path77" d="m323.74 370.91 2.4648-1.0199"/>
      <path id="path78" d="m329.94 368.4 2.5073-1.0199"/>
      <path id="path79" d="m336.19 365.9 2.4648-0.97742"/>
      <path id="path80" d="m342.4 363.39 2.5073-0.97742"/>
      <path id="path81" d="m348.64 360.88 2.5073-0.97743"/>
      <path id="path82" d="m354.85 358.37 2.5073-0.97742"/>
      <path id="path83" d="m361.09 355.87 2.5073-0.97743"/>
      <path id="path84" d="m367.34 353.36 2.4648-0.97742"/>
      <path id="path85" d="m373.55 350.85 2.5073-0.97742"/>
      <path id="path86" d="m379.79 348.39 2.4648-1.0199"/>
      <path id="path87" d="m386 345.88 2.5073-1.0199"/>
      <path id="path88" d="m392.24 343.37 2.5073-1.0199"/>
      <path id="path89" d="m398.45 340.87 2.5073-1.0199"/>
      <path id="path90" d="m404.7 338.36 2.5073-1.0199"/>
      <path id="path91" d="m410.94 335.85 2.4648-1.0199"/>
      <path id="path92" d="m417.15 333.34 2.5073-1.0199"/>
      <path id="path93" d="m423.39 330.84 2.4648-1.0199"/>
      <path id="path94" d="m429.6 328.33 2.5073-1.0199"/>
      <path id="path95" d="m435.85 325.82 2.5073-0.97743"/>
      <path id="path96" d="m442.05 323.31 2.5073-0.97742"/>
      <path id="path97" d="m448.3 320.81 2.5073-0.97743"/>
      <path id="path98" d="m454.54 318.3 2.4648-0.97742"/>
      <path id="path99" d="m460.75 315.79 2.5073-0.97742"/>
      <path id="path100" d="m467 313.29 2.4648-0.97742"/>
      <path id="path101" d="m473.2 310.78 2.5073-0.97742"/>
      <path id="path102" d="m479.45 308.31 2.5073-1.0199"/>
      <path id="path103" d="m485.65 305.81 2.5073-1.0199"/>
      <path id="path104" d="m491.9 303.3 2.5073-1.0199"/>
      <path id="path105" d="m498.15 300.79 2.4648-1.0199"/>
      <path id="path106" d="m504.35 298.28 2.5073-1.0199"/>
      <path id="path107" d="m510.6 295.78 2.4648-1.0199"/>
      <path id="path108" d="m516.8 293.27 2.5073-1.0199"/>
      <path id="path109" d="m523.05 290.76 2.4648-1.0199"/>
      <path id="path110" d="m529.25 288.25 2.5073-1.0199"/>
      <path id="path111" d="m535.5 285.75 2.5073-0.97743"/>
      <path id="path112" d="m541.75 283.24 2.4648-0.97742"/>
      <path id="path113" d="m547.95 280.73 2.5073-0.97743"/>
      <path id="path114" d="m554.2 278.23 2.4648-0.97742"/>
      <path id="path115" d="m560.4 275.72 2.5073-0.97742"/>
      <path id="path116" d="m566.65 273.21 2.4648-0.97743"/>
      <path id="path117" d="m572.86 270.75 2.5073-1.0199"/>
      <path id="path118" d="m579.1 268.24 2.5073-1.0199"/>
      <path id="path119" d="m585.35 265.73 2.4648-1.0199"/>
      <path id="path120" d="m591.55 263.22 2.5073-1.0199"/>
      <path id="path121" d="m597.8 260.72 0.0425-0.0425 3.0173-1.2324"/>
      <path id="path122" d="m356.8 599.03 327.48-131.7"/>
      <path id="path123" d="m404.95 719.04 327.48-131.7"/>
      <path id="path124" d="m321.53 511.11 327.52-131.65"/>
      <path id="path125" d="m502.91 489.22-43.899 17.679"/>
     </g>
     <path id="path126" d="m459.01 506.9 273.42 80.446" stroke="#0f0"/>
     <path id="path127" d="m459.01 506.9 141.9-247.46" stroke="#0f0"/>
     <path id="path128" d="m939.73 504.01-207.3 83.336" stroke="#f0f"/>
     <path id="path129" d="m824.65 406.1-0.0425-4.8021-0.16999-4.8446-0.25498-4.8021-0.33997-4.8021-0.46747-4.8021-0.59495-4.8021-0.67995-4.7596-0.76494-4.7596-0.84993-4.7171-0.97742-4.7171-1.1049-4.7171-1.1899-4.6746-1.2749-4.6321-1.3599-4.6321-1.4874-4.5896-1.5724-4.5471-1.6574-4.5046-1.7849-4.5046-1.8698-4.4196-1.9548-4.4197-2.0398-4.3772-2.1673-4.2922-2.2523-4.2497-2.3373-4.2497-2.4223-4.1647-2.5073-4.0797-2.5923-4.0797-2.6773-3.9947-2.7623-3.9522-2.8473-3.8672-2.9748-3.8247-3.0173-3.7397-3.1023-3.6972-3.1448-3.6122-3.2722-3.5697-3.3147-3.4847-3.3997-3.3997-3.4847-3.3147-3.5697-3.2722-3.6122-3.1872-3.6547-3.1022-3.7822-3.0173-3.7822-2.9323-3.9097-2.8898-3.9097-2.7623-3.9947-2.6773-4.0797-2.5923-4.0797-2.5498-4.1647-2.4223-4.2072-2.3373-4.2922-2.2098-4.2922-2.1673-4.3347-2.0398-4.4196-1.9974-4.4197-1.8698-4.5046-1.7424-4.5046-1.6999-4.5471-1.5724-4.5896-1.4874-4.5896-1.3599-4.6746-1.2749-4.6321-1.1899-4.7171-1.0624-4.7171-0.97743-4.7171-0.89243-4.7596-0.76494-4.7596-0.67994-4.8021-0.59496-4.7596-0.42496-4.8021-0.38247-4.8021-0.25498-4.8446-0.16999-4.8021-0.0425-4.8021 0.0425-4.8446 0.16999-4.8021 0.25498-4.8021 0.38247-4.7596 0.42496-4.8021 0.59496-4.7596 0.67994-4.7596 0.76494-4.7171 0.89243-4.7171 0.97743-4.7171 1.0624-4.6321 1.1899-4.6746 1.2749-4.5896 1.3599-4.5896 1.4874-4.5472 1.5724-4.5046 1.6999-4.5046 1.7424-4.4197 1.8698-4.4196 1.9974-4.3347 2.0398-4.2922 2.1673-4.2922 2.2098-4.2072 2.3373-4.1647 2.4223-4.0797 2.5498-4.0797 2.5923-3.9947 2.6773-3.9097 2.7623-3.9097 2.8898-3.7822 2.9323-3.7822 3.0173-3.6547 3.1022-3.6122 3.1872-3.5697 3.2722-3.4847 3.3147-3.3997 3.3997-3.3147 3.4847-3.2722 3.5697-3.1448 3.6122-3.1023 3.6972-3.0173 3.7397-2.9748 3.8247-2.8473 3.8672-2.7623 3.9522-2.6773 3.9947-2.5923 4.0797-2.5073 4.0797-2.4223 4.1647-2.3373 4.2497-2.2523 4.2497-2.1673 4.2922-2.0398 4.3772-1.9548 4.4197-1.8698 4.4196-1.7849 4.5046-1.6574 4.5046-1.5724 4.5471-1.4874 4.5896-1.3599 4.6321-1.2749 4.6321-1.1899 4.6746-1.1049 4.7171-0.97742 4.7171-0.84993 4.7171-0.76494 4.7596-0.67995 4.7596-0.59496 4.8021-0.46746 4.8021-0.33997 4.8021-0.25498 4.8021-0.16999 4.8446-0.0425 4.8021 0.0425 4.8021 0.16999 4.8446 0.25498 4.8021 0.33997 4.8021 0.46746 4.8021 0.59496 4.8021 0.67995 4.7596 0.76494 4.7596 0.84993 4.7171 0.97742 4.7171 1.1049 4.7171 1.1899 4.6746 1.2749 4.6321 1.3599 4.6321 1.4874 4.5896 1.5724 4.5472 1.6574 4.5046 1.7849 4.5046 1.8698 4.4197 1.9548 4.4196 2.0398 4.3772 2.1673 4.2922 2.2523 4.2497 2.3373 4.2497 2.4223 4.1647 2.5073 4.0797 2.5923 4.0797 2.6773 3.9947 2.7623 3.9522 2.8473 3.8672 2.9748 3.8247 3.0173 3.7397 3.1023 3.6972 3.1448 3.6122 3.2722 3.5697 3.3147 3.4847 3.3997 3.3997 3.4847 3.3147 3.5697 3.2722 3.6122 3.1872 3.6547 3.1023 3.7822 3.0173 3.7822 2.9323 3.9097 2.8898 3.9097 2.7623 3.9947 2.6773 4.0797 2.5923 4.0797 2.5498 4.1647 2.4223 4.2072 2.3373 4.2922 2.2098 4.2922 2.1673 4.3347 2.0398 4.4196 1.9973 4.4197 1.8699 4.5046 1.7424 4.5046 1.6999 4.5472 1.5724 4.5896 1.4874 4.5896 1.3599 4.6746 1.2749 4.6321 1.1899 4.7171 1.0624 4.7171 0.97742 4.7171 0.89243 4.7596 0.76494 4.7596 0.67995 4.8021 0.59495 4.7596 0.42497 4.8021 0.38247 4.8021 0.25498 4.8446 0.16999 4.8021 0.0425 4.8021-0.0425 4.8446-0.16999 4.8021-0.25498 4.8021-0.38247 4.7596-0.42497 4.8021-0.59495 4.7596-0.67995 4.7596-0.76494 4.7171-0.89243 4.7171-0.97742 4.7171-1.0624 4.6321-1.1899 4.6746-1.2749 4.5896-1.3599 4.5896-1.4874 4.5471-1.5724 4.5046-1.6999 4.5046-1.7424 4.4197-1.8699 4.4196-1.9973 4.3347-2.0398 4.2922-2.1673 4.2922-2.2098 4.2072-2.3373 4.1647-2.4223 4.0797-2.5498 4.0797-2.5923 3.9947-2.6773 3.9097-2.7623 3.9097-2.8898 3.7822-2.9323 3.7822-3.0173 3.6547-3.1023 3.6122-3.1872 3.5697-3.2722 3.4847-3.3147 3.3997-3.3997 3.3147-3.4847 3.2722-3.5697 3.1448-3.6122 3.1023-3.6972 3.0173-3.7397 2.9748-3.8247 2.8473-3.8672 2.7623-3.9522 2.6773-3.9947 2.5923-4.0797 2.5073-4.0797 2.4223-4.1647 2.3373-4.2497 2.2523-4.2497 2.1673-4.2922 2.0398-4.3772 1.9548-4.4196 1.8698-4.4197 1.7849-4.5046 1.6574-4.5046 1.5724-4.5472 1.4874-4.5896 1.3599-4.6321 1.2749-4.6321 1.1899-4.6746 1.1049-4.7171 0.97742-4.7171 0.84993-4.7171 0.76494-4.7596 0.67995-4.7596 0.59495-4.8021 0.46747-4.8021 0.33997-4.8021 0.25498-4.8021 0.16999-4.8446z" stroke="#0ff"/>
     <path id="path130" d="m732.43 587.35v-362.5h-263.05v362.5" stroke="#00f"/>
     <g stroke="#0f0">
      <path id="path131" d="m469.38 587.35 0.67995-1.7424"/>
      <path id="path132" d="m471.29 582.63 0.84993-1.9973"/>
      <path id="path133" d="m473.33 577.66 0.84993-1.9973"/>
      <path id="path134" d="m475.37 572.69 0.84994-1.9548"/>
      <path id="path135" d="m477.45 567.71 0.80744-1.9548"/>
      <path id="path136" d="m479.49 562.78 0.80744-1.9973"/>
      <path id="path137" d="m481.53 557.81 0.80744-1.9973"/>
      <path id="path138" d="m483.57 552.84 0.80744-1.9973"/>
      <path id="path139" d="m485.61 547.87 0.80744-1.9974"/>
      <path id="path140" d="m487.65 542.9 0.80744-1.9974"/>
      <path id="path141" d="m489.69 537.92 0.80744-1.9973"/>
      <path id="path142" d="m491.73 532.95 0.80744-1.9548"/>
      <path id="path143" d="m493.77 527.98 0.80744-1.9548"/>
      <path id="path144" d="m495.81 523.05 0.84994-1.9974"/>
      <path id="path145" d="m497.85 518.08 0.84993-1.9974"/>
      <path id="path146" d="m499.89 513.1 0.84993-1.9973"/>
      <path id="path147" d="m501.97 508.13 0.80744-1.9973"/>
      <path id="path148" d="m504.01 503.16 0.80744-1.9973"/>
      <path id="path149" d="m506.05 498.19 0.80744-1.9973"/>
      <path id="path150" d="m508.09 493.22 0.80743-1.9548"/>
      <path id="path151" d="m510.13 488.24 0.80743-1.9548"/>
      <path id="path152" d="m512.17 483.31 0.80743-1.9973"/>
      <path id="path153" d="m514.21 478.34 0.80743-1.9973"/>
      <path id="path154" d="m516.25 473.37 0.80743-1.9974"/>
      <path id="path155" d="m518.29 468.4 0.80744-1.9974"/>
      <path id="path156" d="m520.33 463.43 0.80744-1.9973"/>
      <path id="path157" d="m522.37 458.45 0.84993-1.9973"/>
      <path id="path158" d="m524.41 453.48 0.84993-1.9973"/>
      <path id="path159" d="m526.45 448.51 0.84993-1.9548"/>
      <path id="path160" d="m528.53 443.54 0.80744-1.9548"/>
      <path id="path161" d="m530.57 438.61 0.80744-1.9973"/>
      <path id="path162" d="m532.61 433.64 0.80744-1.9973"/>
      <path id="path163" d="m534.65 428.66 0.80744-1.9973"/>
      <path id="path164" d="m536.69 423.69 0.80744-1.9973"/>
      <path id="path165" d="m538.73 418.72 0.80744-1.9974"/>
      <path id="path166" d="m540.77 413.75 0.80744-1.9974"/>
      <path id="path167" d="m542.81 408.78 0.80744-1.9548"/>
      <path id="path168" d="m544.85 403.8 0.80744-1.9548"/>
      <path id="path169" d="m546.89 398.87 0.80744-1.9974"/>
      <path id="path170" d="m548.93 393.9 0.84994-1.9974"/>
      <path id="path171" d="m550.97 388.93 0.84993-1.9973"/>
      <path id="path172" d="m553.01 383.96 0.84993-1.9973"/>
      <path id="path173" d="m555.09 378.99 0.80744-1.9973"/>
      <path id="path174" d="m557.13 374.01 0.80744-1.9973"/>
      <path id="path175" d="m559.17 369.04 0.80744-1.9548"/>
      <path id="path176" d="m561.21 364.07 0.80743-1.9548"/>
      <path id="path177" d="m563.25 359.14 0.80743-1.9973"/>
      <path id="path178" d="m565.29 354.17 0.80743-1.9973"/>
      <path id="path179" d="m567.33 349.2 0.80743-1.9973"/>
      <path id="path180" d="m569.37 344.22 0.80743-1.9974"/>
      <path id="path181" d="m571.41 339.25 0.80744-1.9974"/>
      <path id="path182" d="m573.45 334.28 0.80744-1.9973"/>
      <path id="path183" d="m575.49 329.31 0.84993-1.9548"/>
      <path id="path184" d="m577.53 324.33 0.84993-1.9548"/>
      <path id="path185" d="m579.57 319.41 0.84993-1.9974"/>
      <path id="path186" d="m581.65 314.43 0.80744-1.9973"/>
      <path id="path187" d="m583.69 309.46 0.80744-1.9973"/>
      <path id="path188" d="m585.73 304.49 0.80744-1.9973"/>
      <path id="path189" d="m587.77 299.52 0.80744-1.9973"/>
      <path id="path190" d="m589.81 294.54 0.80744-1.9974"/>
      <path id="path191" d="m591.85 289.57 0.80744-1.9548"/>
      <path id="path192" d="m593.89 284.6 0.80744-1.9548"/>
      <path id="path193" d="m595.93 279.67 0.80744-1.9973"/>
      <path id="path194" d="m597.97 274.7 0.80744-1.9973"/>
      <path id="path195" d="m600.01 269.73 0.16999-0.33998 0.67995-1.7849"/>
     </g>
     <g stroke="#f0f">
      <path id="path196" d="m424.46 582.76h3.2298"/>
      <path id="path197" d="m431.72 582.76h2.6773"/>
      <path id="path198" d="m438.44 582.76h2.6773"/>
      <path id="path199" d="m445.15 582.76h2.6773"/>
      <path id="path200" d="m451.87 582.76h2.6773"/>
      <path id="path201" d="m458.58 582.76h2.6773"/>
      <path id="path202" d="m465.3 582.76h2.6773"/>
      <path id="path203" d="m472.01 582.76h2.6773"/>
      <path id="path204" d="m478.73 582.76h2.6773"/>
      <path id="path205" d="m485.44 582.76h2.6773"/>
      <path id="path206" d="m492.15 582.76h2.6773"/>
      <path id="path207" d="m498.87 582.76h2.6773"/>
      <path id="path208" d="m505.58 582.76h2.6773"/>
      <path id="path209" d="m512.3 582.76h2.6773"/>
      <path id="path210" d="m519.01 582.76h2.6773"/>
      <path id="path211" d="m525.73 582.76h2.6773"/>
      <path id="path212" d="m532.44 582.76h2.6773"/>
      <path id="path213" d="m539.16 582.76h2.6773"/>
      <path id="path214" d="m545.87 582.76h2.6773"/>
      <path id="path215" d="m552.58 582.76h2.6773"/>
      <path id="path216" d="m559.3 582.76h2.6773"/>
      <path id="path217" d="m566.01 582.76h2.6773"/>
      <path id="path218" d="m572.73 582.76h2.6773"/>
      <path id="path219" d="m579.4 582.76h2.7198"/>
      <path id="path220" d="m586.11 582.76h2.7198"/>
      <path id="path221" d="m592.83 582.76h2.7198"/>
      <path id="path222" d="m599.54 582.76h2.7198"/>
      <path id="path223" d="m606.26 582.76h2.7198"/>
      <path id="path224" d="m612.97 582.76h2.7198"/>
      <path id="path225" d="m619.69 582.76h2.7198"/>
      <path id="path226" d="m626.4 582.76h2.6773"/>
      <path id="path227" d="m633.12 582.76h2.6773"/>
      <path id="path228" d="m639.83 582.76h2.6773"/>
      <path id="path229" d="m646.54 582.76h2.6773"/>
      <path id="path230" d="m653.26 582.76h2.6773"/>
      <path id="path231" d="m659.97 582.76h2.6773"/>
      <path id="path232" d="m666.69 582.76h2.6773"/>
      <path id="path233" d="m673.4 582.76h2.6773"/>
      <path id="path234" d="m680.12 582.76h2.6773"/>
      <path id="path235" d="m686.83 582.76h2.6773"/>
      <path id="path236" d="m693.55 582.76h2.6773"/>
      <path id="path237" d="m700.26 582.76h2.6773"/>
      <path id="path238" d="m706.97 582.76h2.6773"/>
      <path id="path239" d="m713.69 582.76h2.6773"/>
      <path id="path240" d="m720.4 582.76h2.6773"/>
      <path id="path241" d="m727.12 582.76h2.6773"/>
      <path id="path242" d="m733.83 582.76h2.6773"/>
      <path id="path243" d="m740.55 582.76h2.6773"/>
      <path id="path244" d="m747.26 582.76h2.6773"/>
      <path id="path245" d="m753.98 582.76h2.6773"/>
      <path id="path246" d="m760.69 582.76h2.6773"/>
      <path id="path247" d="m767.41 582.76h2.6773"/>
      <path id="path248" d="m774.08 582.76h3.2297"/>
      <path id="path249" d="m777.35 582.76v-3.2298"/>
      <path id="path250" d="m777.35 575.49v-2.6773"/>
      <path id="path251" d="m777.35 568.78v-2.6773"/>
      <path id="path252" d="m777.35 562.06v-2.6773"/>
      <path id="path253" d="m777.35 555.35v-2.6773"/>
      <path id="path254" d="m777.35 548.63v-2.6773"/>
      <path id="path255" d="m777.35 541.92v-2.6773"/>
      <path id="path256" d="m777.35 535.2v-2.6773"/>
      <path id="path257" d="m777.35 528.49v-2.6773"/>
      <path id="path258" d="m777.35 521.77v-2.6773"/>
      <path id="path259" d="m777.35 515.06v-2.6773"/>
      <path id="path260" d="m777.35 508.35v-2.6773"/>
      <path id="path261" d="m777.35 501.63v-2.6773"/>
      <path id="path262" d="m777.35 494.92v-2.6773"/>
      <path id="path263" d="m777.35 488.2v-2.6773"/>
      <path id="path264" d="m777.35 481.49v-2.6773"/>
      <path id="path265" d="m777.35 474.77v-2.6773"/>
      <path id="path266" d="m777.35 468.06v-2.6773"/>
      <path id="path267" d="m777.35 461.34v-2.6773"/>
      <path id="path268" d="m777.35 454.63v-2.6773"/>
      <path id="path269" d="m777.35 447.92v-2.6773"/>
      <path id="path270" d="m777.35 441.2v-2.6773"/>
      <path id="path271" d="m777.35 434.49v-2.6773"/>
      <path id="path272" d="m777.35 427.81v-2.7198"/>
      <path id="path273" d="m777.35 421.1v-2.7198"/>
      <path id="path274" d="m777.35 414.39v-2.7198"/>
      <path id="path275" d="m777.35 407.67v-2.7198"/>
      <path id="path276" d="m777.35 400.96v-2.7198"/>
      <path id="path277" d="m777.35 394.24v-2.7198"/>
      <path id="path278" d="m777.35 387.53v-2.7198"/>
      <path id="path279" d="m777.35 380.81v-2.6773"/>
      <path id="path280" d="m777.35 374.1v-2.6773"/>
      <path id="path281" d="m777.35 367.38v-2.6773"/>
      <path id="path282" d="m777.35 360.67v-2.6773"/>
      <path id="path283" d="m777.35 353.95v-2.6773"/>
      <path id="path284" d="m777.35 347.24v-2.6773"/>
      <path id="path285" d="m777.35 340.53v-2.6773"/>
      <path id="path286" d="m777.35 333.81v-2.6773"/>
      <path id="path287" d="m777.35 327.1v-2.6773"/>
      <path id="path288" d="m777.35 320.38v-2.6773"/>
      <path id="path289" d="m777.35 313.67v-2.6773"/>
      <path id="path290" d="m777.35 306.95v-2.6773"/>
      <path id="path291" d="m777.35 300.24v-2.6773"/>
      <path id="path292" d="m777.35 293.52v-2.6773"/>
      <path id="path293" d="m777.35 286.81v-2.6773"/>
      <path id="path294" d="m777.35 280.1v-2.6773"/>
      <path id="path295" d="m777.35 273.38v-2.6773"/>
      <path id="path296" d="m777.35 266.67v-2.6773"/>
      <path id="path297" d="m777.35 259.95v-2.6773"/>
      <path id="path298" d="m777.35 253.24v-2.6773"/>
      <path id="path299" d="m777.35 246.52v-2.6773"/>
      <path id="path300" d="m777.35 239.81v-2.6773"/>
      <path id="path301" d="m777.35 233.09v-3.6547"/>
      <path id="path302" d="m777.35 229.4h-3.2722"/>
      <path id="path303" d="m770.04 229.4h-2.6773"/>
      <path id="path304" d="m763.33 229.4h-2.6773"/>
      <path id="path305" d="m756.61 229.4h-2.6773"/>
      <path id="path306" d="m749.9 229.4h-2.6773"/>
      <path id="path307" d="m743.18 229.4h-2.6773"/>
      <path id="path308" d="m736.47 229.4h-2.6773"/>
      <path id="path309" d="m729.75 229.4h-2.6773"/>
      <path id="path310" d="m723.04 229.4h-2.6773"/>
      <path id="path311" d="m716.32 229.4h-2.6773"/>
      <path id="path312" d="m709.61 229.4h-2.6773"/>
      <path id="path313" d="m702.9 229.4h-2.6773"/>
      <path id="path314" d="m696.18 229.4h-2.6773"/>
      <path id="path315" d="m689.47 229.4h-2.6773"/>
      <path id="path316" d="m682.75 229.4h-2.6773"/>
      <path id="path317" d="m676.04 229.4h-2.6773"/>
      <path id="path318" d="m669.32 229.4h-2.6773"/>
      <path id="path319" d="m662.61 229.4h-2.6773"/>
      <path id="path320" d="m655.89 229.4h-2.6773"/>
      <path id="path321" d="m649.18 229.4h-2.6773"/>
      <path id="path322" d="m642.46 229.4h-2.6773"/>
      <path id="path323" d="m635.75 229.4h-2.6773"/>
      <path id="path324" d="m629.04 229.4h-2.6773"/>
      <path id="path325" d="m622.36 229.4h-2.7198"/>
      <path id="path326" d="m615.65 229.4h-2.7198"/>
      <path id="path327" d="m608.93 229.4h-2.7198"/>
      <path id="path328" d="m602.22 229.4h-2.7198"/>
      <path id="path329" d="m595.51 229.4h-2.7198"/>
      <path id="path330" d="m588.79 229.4h-2.7198"/>
      <path id="path331" d="m582.08 229.4h-2.7198"/>
      <path id="path332" d="m575.36 229.4h-2.6773"/>
      <path id="path333" d="m568.65 229.4h-2.6773"/>
      <path id="path334" d="m561.93 229.4h-2.6773"/>
      <path id="path335" d="m555.22 229.4h-2.6773"/>
      <path id="path336" d="m548.5 229.4h-2.6773"/>
      <path id="path337" d="m541.79 229.4h-2.6773"/>
      <path id="path338" d="m535.08 229.4h-2.6773"/>
      <path id="path339" d="m528.36 229.4h-2.6773"/>
      <path id="path340" d="m521.65 229.4h-2.6773"/>
      <path id="path341" d="m514.93 229.4h-2.6773"/>
      <path id="path342" d="m508.22 229.4h-2.6773"/>
      <path id="path343" d="m501.5 229.4h-2.6773"/>
      <path id="path344" d="m494.79 229.4h-2.6773"/>
      <path id="path345" d="m488.07 229.4h-2.6773"/>
      <path id="path346" d="m481.36 229.4h-2.6773"/>
      <path id="path347" d="m474.65 229.4h-2.6773"/>
      <path id="path348" d="m467.93 229.4h-2.6773"/>
      <path id="path349" d="m461.22 229.4h-2.6773"/>
      <path id="path350" d="m454.5 229.4h-2.6773"/>
      <path id="path351" d="m447.79 229.4h-2.6773"/>
      <path id="path352" d="m441.07 229.4h-2.6773"/>
      <path id="path353" d="m434.36 229.4h-2.6773"/>
      <path id="path354" d="m427.69 229.4h-3.2298"/>
      <path id="path355" d="m424.46 229.4v3.2722"/>
      <path id="path356" d="m424.46 236.71v2.6773"/>
      <path id="path357" d="m424.46 243.42v2.6773"/>
      <path id="path358" d="m424.46 250.14v2.6773"/>
      <path id="path359" d="m424.46 256.85v2.6773"/>
      <path id="path360" d="m424.46 263.56v2.6773"/>
      <path id="path361" d="m424.46 270.28v2.6773"/>
      <path id="path362" d="m424.46 276.99v2.6773"/>
      <path id="path363" d="m424.46 283.71v2.6773"/>
      <path id="path364" d="m424.46 290.42v2.6773"/>
      <path id="path365" d="m424.46 297.14v2.6773"/>
      <path id="path366" d="m424.46 303.85v2.6773"/>
      <path id="path367" d="m424.46 310.57v2.6773"/>
      <path id="path368" d="m424.46 317.28v2.6773"/>
      <path id="path369" d="m424.46 323.99v2.6773"/>
      <path id="path370" d="m424.46 330.71v2.6773"/>
      <path id="path371" d="m424.46 337.42v2.6773"/>
      <path id="path372" d="m424.46 344.14v2.6773"/>
      <path id="path373" d="m424.46 350.85v2.6773"/>
      <path id="path374" d="m424.46 357.57v2.6773"/>
      <path id="path375" d="m424.46 364.28v2.6773"/>
      <path id="path376" d="m424.46 371v2.6773"/>
      <path id="path377" d="m424.46 377.71v2.6773"/>
      <path id="path378" d="m424.46 384.38v2.7198"/>
      <path id="path379" d="m424.46 391.1v2.7198"/>
      <path id="path380" d="m424.46 397.81v2.7198"/>
      <path id="path381" d="m424.46 404.53v2.7198"/>
      <path id="path382" d="m424.46 411.24v2.7198"/>
      <path id="path383" d="m424.46 417.95v2.7198"/>
      <path id="path384" d="m424.46 424.67v2.7198"/>
      <path id="path385" d="m424.46 431.38v2.6773"/>
      <path id="path386" d="m424.46 438.1v2.6773"/>
      <path id="path387" d="m424.46 444.81v2.6773"/>
      <path id="path388" d="m424.46 451.53v2.6773"/>
      <path id="path389" d="m424.46 458.24v2.6773"/>
      <path id="path390" d="m424.46 464.96v2.6773"/>
      <path id="path391" d="m424.46 471.67v2.6773"/>
      <path id="path392" d="m424.46 478.39v2.6773"/>
      <path id="path393" d="m424.46 485.1v2.6773"/>
      <path id="path394" d="m424.46 491.81v2.6773"/>
      <path id="path395" d="m424.46 498.53v2.6773"/>
      <path id="path396" d="m424.46 505.24v2.6773"/>
      <path id="path397" d="m424.46 511.96v2.6773"/>
      <path id="path398" d="m424.46 518.67v2.6773"/>
      <path id="path399" d="m424.46 525.39v2.6773"/>
      <path id="path400" d="m424.46 532.1v2.6773"/>
      <path id="path401" d="m424.46 538.82v2.6773"/>
      <path id="path402" d="m424.46 545.53v2.6773"/>
      <path id="path403" d="m424.46 552.24v2.6773"/>
      <path id="path404" d="m424.46 558.96v2.6773"/>
      <path id="path405" d="m424.46 565.67v2.6773"/>
      <path id="path406" d="m424.46 572.39v2.6773"/>
      <path id="path407" d="m424.46 579.1v3.6547"/>
     </g>
    </g>
    <text id="text408" transform="translate(494.15 266.71)" fill="#000000" font-family="Arial" font-size="9.375px" font-weight="400" letter-spacing="0px" stroke-width=".83214" word-spacing="0px" style="line-height:125%" xml:space="preserve"><tspan id="tspan408" x="0" y="0" sodipodi:role="line"><tspan id="tspan407" dx="0" dy="0" fill="#212830" font-family="Arial" font-size="9.375px" font-weight="400" stroke-width=".83214">Ø0.1910</tspan></tspan></text>
    <path id="path408" d="m530.15 263.48 42.709 2.5073" fill="none" stroke="#212830" stroke-linecap="round" stroke-linejoin="round" stroke-width=".83214"/>
    <path id="path409" d="m572.94 264.84-0.12749 2.2523 6.757-0.72244z" fill="#212830" fill-rule="evenodd"/>
    <g fill="none" stroke="#212830" stroke-linecap="round" stroke-linejoin="round" stroke-width=".83214">
     <path id="path410" d="m406.61 723.17 15.766 39.394"/>
     <path id="path411" d="m734.09 591.51 15.809 39.352"/>
     <path id="path412" d="m426.96 755.89 116.23-46.704"/>
     <path id="path413" d="m741.99 629.25-116.19 46.704"/>
    </g>
    <g>
     <path id="path414" d="m426.54 754.87 0.84993 2.0823-6.672 1.4449z" fill="#212830" fill-rule="evenodd"/>
     <path id="path415" d="m741.61 628.19 0.80744 2.0823 5.822-3.5697z" fill="#212830" fill-rule="evenodd"/>
     <text id="text416" transform="translate(560.06 695.88)" fill="#000000" font-family="Arial" font-size="9.375px" font-weight="400" letter-spacing="0px" stroke-width=".83214" word-spacing="0px" style="line-height:125%" xml:space="preserve"><tspan id="tspan416" x="0" y="0" sodipodi:role="line"><tspan id="tspan415" dx="0" dy="0" fill="#212830" font-family="Arial" font-size="9.375px" font-weight="400" stroke-width=".83214">1.57714881</tspan></tspan></text>
    </g>
    <g fill="none" stroke="#212830" stroke-linecap="round" stroke-linejoin="round" stroke-width=".83214">
     <path id="path416" d="m526.45 674.97 7.8194 19.548"/>
     <path id="path417" d="m734.09 591.51 7.8194 19.506"/>
     <path id="path418" d="m538.82 687.85 73.944-29.748"/>
     <path id="path419" d="m734.05 609.36-73.902 29.705"/>
    </g>
    <g>
     <path id="path420" d="m538.43 686.79 0.84994 2.0823-6.672 1.4874z" fill="#212830" fill-rule="evenodd"/>
     <path id="path421" d="m733.62 608.34 0.80743 2.0398 5.822-3.5272z" fill="#212830" fill-rule="evenodd"/>
     <text id="text422" transform="translate(629.63 651.9)" fill="#000000" font-family="Arial" font-size="9.375px" font-weight="400" letter-spacing="0px" stroke-width=".83214" word-spacing="0px" style="line-height:125%" xml:space="preserve"><tspan id="tspan422" x="0" y="0" sodipodi:role="line"><tspan id="tspan421" dx="0" dy="0" fill="#212830" font-family="Arial" font-size="9.375px" font-weight="400" stroke-width=".83214">1.0</tspan></tspan></text>
    </g>
    <path id="path422" d="m712.97 546.68-1.6999 0.84993-1.6574 0.93493-1.6149 0.97743-1.5724 1.1049-1.5299 1.1049-1.4874 1.1899-1.4024 1.2749-1.3599 1.3174-1.3174 1.3599-1.2749 1.4449" fill="none" stroke="#212830" stroke-linecap="round" stroke-linejoin="round" stroke-width=".83214"/>
    <path id="path423" d="m692.78 565.97-0.89243 1.7424-0.80744 1.7424-0.72244 1.7849-0.63745 1.8274-0.59496 1.8698-0.50996 1.8699-0.38247 1.8698-0.33997 1.9124-0.25498 1.9124-0.16999 1.9548" fill="none" stroke="#212830" stroke-linecap="round" stroke-linejoin="round" stroke-width=".83214"/>
    <g>
     <path id="path424" d="m712.75 546.17 0.42496 0.89243 2.4648-1.6149z" fill="#212830" fill-rule="evenodd"/>
     <path id="path425" d="m687.94 584.46-0.97742-0.0425 0.38247 2.9323z" fill="#212830" fill-rule="evenodd"/>
     <text id="text426" transform="translate(687.77 565.59)" fill="#000000" font-family="Garamond" font-size="10.938px" font-weight="400" letter-spacing="0px" stroke-width=".83214" word-spacing="0px" style="line-height:125%" xml:space="preserve"><tspan id="tspan426" x="0" y="0" sodipodi:role="line"><tspan id="tspan425" dx="0" dy="0" fill="#212830" font-family="Garamond" font-size="10.938px" font-weight="400" stroke-width=".83214">68°</tspan></tspan></text>
    </g>
    <g fill="none" stroke="#212830" stroke-linecap="round" stroke-linejoin="round" stroke-width=".83214">
     <path id="path426" d="m746.41 587.35h38.884"/>
     <path id="path427" d="m780.71 584.46-0.16999-2.1248-0.25498-2.1248-0.38247-2.0823-0.42497-2.0398-0.55245-2.0823-0.63745-1.9974-0.72245-1.9973-0.76494-1.9548-0.89243-1.9124-0.97742-1.9124-1.0624-1.8274-1.1049-1.7849-1.2324-1.7424-1.2749-1.6999-1.3599-1.6149-1.4024-1.5724-1.4874-1.4874-1.5724-1.4449"/>
     <path id="path428" d="m752.79 543.45-1.8699-0.80743-1.8698-0.76494-1.9548-0.63745-1.9124-0.59496-1.9973-0.46746-1.9974-0.42497-1.9973-0.33997-1.9973-0.21248-2.0398-0.16999-2.0398-0.085h-1.9974l-2.0398 0.12749-2.0398 0.16998-1.9973 0.25498-1.9974 0.38247-1.9973 0.42497-1.9548 0.50996-1.9548 0.59495"/>
    </g>
    <g>
     <path id="path429" d="m781.22 584.41-0.97743 0.0425 0.55246 2.8898z" fill="#212830" fill-rule="evenodd"/>
     <path id="path430" d="m717.3 541.83-0.33997-0.89243-2.5498 1.4449z" fill="#212830" fill-rule="evenodd"/>
     <text id="text431" transform="translate(749.51 550.8)" fill="#000000" font-family="Garamond" font-size="10.938px" font-weight="400" letter-spacing="0px" stroke-width=".83214" word-spacing="0px" style="line-height:125%" xml:space="preserve"><tspan id="tspan431" x="0" y="0" sodipodi:role="line"><tspan id="tspan430" dx="0" dy="0" fill="#212830" font-family="Garamond" font-size="10.938px" font-weight="400" stroke-width=".83214">112°</tspan></tspan></text>
    </g>
    <path id="path431" d="m698.65 521.09-2.0823 1.1049-2.0398 1.1474-1.9973 1.2324-1.9548 1.2749-1.9124 1.3599-1.8699 1.4024-1.8274 1.4874-1.7849 1.5299" fill="none" stroke="#212830" stroke-linecap="round" stroke-linejoin="round" stroke-width=".83214"/>
    <path id="path432" d="m672.76 542.98-1.4024 1.9973-1.3599 2.0398-1.2749 2.0823-1.2324 2.0823-1.1474 2.1673-1.0624 2.1673-1.0199 2.2523-0.93492 2.2523" fill="none" stroke="#212830" stroke-linecap="round" stroke-linejoin="round" stroke-width=".83214"/>
    <g>
     <path id="path433" d="m698.14 520.03 0.93493 2.0398 5.652-3.7822z" fill="#212830" fill-rule="evenodd"/>
     <path id="path434" d="m664.35 560.36-2.1248-0.72244-1.1049 6.7145z" fill="#212830" fill-rule="evenodd"/>
     <text id="text435" transform="translate(664.65 540.6)" fill="#000000" font-family="Garamond" font-size="10.25px" font-weight="400" letter-spacing="0px" stroke-width=".83214" word-spacing="0px" style="line-height:125%" xml:space="preserve"><tspan id="tspan435" x="0" y="0" sodipodi:role="line"><tspan id="tspan434" dx="0" dy="0" fill="#212830" font-family="Garamond" font-size="10.25px" font-weight="400" stroke-width=".83214">51.74°</tspan></tspan></text>
    </g>
    <path id="path435" d="m614.71 559.72-0.50996 2.3373-0.50996 2.3798" fill="none" stroke="#212830" stroke-linecap="round" stroke-linejoin="round" stroke-width=".83214"/>
    <path id="path436" d="m612.08 575.79-0.21248 2.4223-0.16999 2.4223" fill="none" stroke="#212830" stroke-linecap="round" stroke-linejoin="round" stroke-width=".83214"/>
    <g>
     <path id="path437" d="m613.61 559.43 2.1673 0.55246 0.63745-6.7995z" fill="#212830" fill-rule="evenodd"/>
     <path id="path438" d="m612.84 580.63-2.2523-0.0425 0.93492 6.757z" fill="#212830" fill-rule="evenodd"/>
     <text id="text439" transform="translate(599.84 573.41)" fill="#000000" font-family="Garamond" font-size="10.25px" font-weight="400" letter-spacing="0px" stroke-width=".83214" word-spacing="0px" style="line-height:125%" xml:space="preserve"><tspan id="tspan439" x="0" y="0" sodipodi:role="line"><tspan id="tspan438" dx="0" dy="0" fill="#212830" font-family="Garamond" font-size="10.25px" font-weight="400" stroke-width=".83214">16.38°</tspan></tspan></text>
    </g>
    <path id="path439" d="m729.54 472.82-2.9323 0.12749-2.9323 0.16999-2.9323 0.25498-2.9323 0.33997" fill="none" stroke="#212830" stroke-linecap="round" stroke-linejoin="round" stroke-width=".83214"/>
    <path id="path440" d="m703.58 476.47-2.8048 0.76494-2.7623 0.84993-2.7623 0.89243-2.7623 1.0199" fill="none" stroke="#212830" stroke-linecap="round" stroke-linejoin="round" stroke-width=".83214"/>
    <g>
     <path id="path441" d="m729.54 472.31v0.97742l2.8898-0.55245z" fill="#212830" fill-rule="evenodd"/>
     <path id="path442" d="m692.65 480.38-0.33998-0.89243-2.5498 1.4874z" fill="#212830" fill-rule="evenodd"/>
     <text id="text443" transform="translate(703.58 478.43)" fill="#000000" font-family="Garamond" font-size="10.938px" font-weight="400" letter-spacing="0px" stroke-width=".83214" word-spacing="0px" style="line-height:125%" xml:space="preserve"><tspan id="tspan443" x="0" y="0" sodipodi:role="line"><tspan id="tspan442" dx="0" dy="0" fill="#212830" font-family="Garamond" font-size="10.938px" font-weight="400" stroke-width=".83214">22°</tspan></tspan></text>
    </g>
    <path id="path443" d="m757.63 500.23-2.5923-0.67995-2.5923-0.63745-2.6348-0.55245-2.6773-0.50996-2.6348-0.38247-2.6773-0.29748-2.6773-0.25498-2.6773-0.16999" fill="none" stroke="#212830" stroke-linecap="round" stroke-linejoin="round" stroke-width=".83214"/>
    <path id="path444" d="m722.27 497.21-2.6773 0.38247-2.6348 0.38247-2.6348 0.50996-2.6348 0.59495-2.5923 0.63745-2.5923 0.72244-2.5923 0.80744-2.5073 0.89243" fill="none" stroke="#212830" stroke-linecap="round" stroke-linejoin="round" stroke-width=".83214"/>
    <g>
     <path id="path445" d="m757.8 499.76-0.29748 0.93492 2.9323 0.38247z" fill="#212830" fill-rule="evenodd"/>
     <path id="path446" d="m701.58 502.61-0.33997-0.93492-2.5498 1.4874z" fill="#212830" fill-rule="evenodd"/>
     <text id="text447" transform="translate(722.19 500.23)" fill="#000000" font-family="Garamond" font-size="10.938px" font-weight="400" letter-spacing="0px" stroke-width=".83214" word-spacing="0px" style="line-height:125%" xml:space="preserve"><tspan id="tspan447" x="0" y="0" sodipodi:role="line"><tspan id="tspan446" dx="0" dy="0" fill="#212830" font-family="Garamond" font-size="10.938px" font-weight="400" stroke-width=".83214">40°</tspan></tspan></text>
    </g>
    <g fill="none" stroke="#212830" stroke-linecap="round" stroke-linejoin="round" stroke-width=".83214">
     <path id="path447" d="m464.91 224.85h-223.28"/>
     <path id="path448" d="m464.91 587.35h-223.28"/>
     <path id="path449" d="m246.1 231.56v153.16"/>
     <path id="path450" d="m246.1 580.63v-153.2"/>
    </g>
    <g>
     <path id="path451" d="m244.99 231.56h2.2098l-1.1049-6.7145z" fill="#212830" fill-rule="evenodd"/>
     <path id="path452" d="m244.99 580.63h2.2098l-1.1049 6.7145z" fill="#212830" fill-rule="evenodd"/>
     <text id="text453" transform="translate(221.03 409.41)" fill="#000000" font-family="Arial" font-size="9.375px" font-weight="400" letter-spacing="0px" stroke-width=".83214" word-spacing="0px" style="line-height:125%" xml:space="preserve"><tspan id="tspan453" x="0" y="0" sodipodi:role="line"><tspan id="tspan452" dx="0" dy="0" fill="#212830" font-family="Arial" font-size="9.375px" font-weight="400" stroke-width=".83214">1.61803399</tspan></tspan></text>
    </g>
    <g fill="none" stroke="#212830" stroke-linecap="round" stroke-linejoin="round" stroke-width=".83214">
     <path id="path453" d="m469.38 220.35v-76.154"/>
     <path id="path454" d="m732.43 220.35v-76.154"/>
     <path id="path455" d="m476.09 148.65h101.14"/>
     <path id="path456" d="m725.72 148.65h-101.14"/>
    </g>
    <g>
     <path id="path457" d="m476.09 147.55v2.2523l-6.7145-1.1474z" fill="#212830" fill-rule="evenodd"/>
     <path id="path458" d="m725.72 147.55v2.2523l6.7145-1.1474z" fill="#212830" fill-rule="evenodd"/>
     <text id="text459" transform="translate(594.1 152.05)" fill="#000000" font-family="Arial" font-size="9.375px" font-weight="400" letter-spacing="0px" stroke-width=".83214" word-spacing="0px" style="line-height:125%" xml:space="preserve"><tspan id="tspan459" x="0" y="0" sodipodi:role="line"><tspan id="tspan458" dx="0" dy="0" fill="#212830" font-family="Arial" font-size="9.375px" font-weight="400" stroke-width=".83214">1.2</tspan></tspan></text>
    </g>
    <g fill="none" stroke="#212830" stroke-linecap="round" stroke-linejoin="round" stroke-width=".83214">
     <path id="path459" d="m781.85 229.4h98.635"/>
     <path id="path460" d="m781.85 582.76h98.635"/>
     <path id="path461" d="m875.98 236.11v148.61"/>
     <path id="path462" d="m875.98 576.04v-148.61"/>
    </g>
    <g>
     <path id="path463" d="m874.88 236.11h2.2098l-1.1049-6.7145z" fill="#212830" fill-rule="evenodd"/>
     <path id="path464" d="m874.88 576.04h2.2098l-1.1049 6.7145z" fill="#212830" fill-rule="evenodd"/>
     <text id="text465" transform="translate(851.55 409.41)" fill="#000000" font-family="Arial" font-size="9.375px" font-weight="400" letter-spacing="0px" stroke-width=".83214" word-spacing="0px" style="line-height:125%" xml:space="preserve"><tspan id="tspan465" x="0" y="0" sodipodi:role="line"><tspan id="tspan464" dx="0" dy="0" fill="#212830" font-family="Arial" font-size="9.375px" font-weight="400" stroke-width=".83214">1.57714881</tspan></tspan></text>
    </g>
    <g fill="none" stroke="#212830" stroke-linecap="round" stroke-linejoin="round" stroke-width=".83214">
     <path id="path465" d="m824.69 259.44h131.06"/>
     <path id="path466" d="m824.69 587.35h131.06"/>
     <path id="path467" d="m951.25 266.16v135.9"/>
     <path id="path468" d="m951.25 580.63v-135.86"/>
    </g>
    <g>
     <path id="path469" d="m950.14 266.16h2.2523l-1.1474-6.7145z" fill="#212830" fill-rule="evenodd"/>
     <path id="path470" d="m950.14 580.63h2.2523l-1.1474 6.7145z" fill="#212830" fill-rule="evenodd"/>
     <text id="text471" transform="translate(944.4 426.71)" fill="#000000" font-family="Arial" font-size="9.375px" font-weight="400" letter-spacing="0px" stroke-width=".83214" word-spacing="0px" style="line-height:125%" xml:space="preserve"><tspan id="tspan471" x="0" y="0" sodipodi:role="line"><tspan id="tspan470" dx="0" dy="0" fill="#212830" font-family="Arial" font-size="9.375px" font-weight="400" stroke-width=".83214">1.5</tspan></tspan></text>
    </g>
    <g fill="none" stroke="#212830" stroke-linecap="round" stroke-linejoin="round" stroke-width=".83214">
     <path id="path471" d="m824.69 182.06h131.06"/>
     <path id="path472" d="m824.69 259.44h131.06"/>
     <path id="path473" d="m951.25 188.77v26.305"/>
     <path id="path474" d="m951.25 252.73v-26.305"/>
    </g>
    <path id="path475" d="m950.14 188.77h2.2523l-1.1474-6.7145z" fill="#212830" fill-rule="evenodd"/>
    <path id="path476" d="m950.14 252.73h2.2523l-1.1474 6.7145z" fill="#212830" fill-rule="evenodd"/>
    <g fill="#000000" font-family="Arial" font-weight="400" letter-spacing="0px" stroke-width=".83214" word-spacing="0px">
     <text id="text477" transform="translate(942.11 224.08)" font-size="9.375px" style="line-height:125%" xml:space="preserve"><tspan id="tspan477" x="0" y="0" sodipodi:role="line"><tspan id="tspan476" dx="0" dy="0" fill="#212830" font-family="Arial" font-size="9.375px" font-weight="400" stroke-width=".83214">0.35</tspan></tspan></text>
     <g font-size="21.938px">
      <text id="text479" transform="translate(365.05 121.03)" style="line-height:125%" xml:space="preserve"><tspan id="tspan479" x="0" y="0" sodipodi:role="line"><tspan id="tspan478" dx="0" dy="0" fill="#212830" font-family="Arial" font-size="21.938px" font-weight="400" stroke-width=".83214">A=0.107</tspan></tspan></text>
      <text id="text481" transform="translate(377.29 147.25)" style="line-height:125%" xml:space="preserve"><tspan id="tspan481" x="0" y="0" sodipodi:role="line"><tspan id="tspan480" dx="0" dy="0" fill="#212830" font-family="Arial" font-size="21.938px" font-weight="400" stroke-width=".83214">P=2.94</tspan></tspan></text>
      <text id="text483" transform="translate(914.4 134.25)" style="line-height:125%" xml:space="preserve"><tspan id="tspan483" x="0" y="0" sodipodi:role="line"><tspan id="tspan482" dx="0" dy="0" fill="#212830" font-family="Arial" font-size="21.938px" font-weight="400" stroke-width=".83214">A=0.102</tspan></tspan></text>
      <text id="text485" transform="translate(912.7 160.47)" style="line-height:125%" xml:space="preserve"><tspan id="tspan485" x="0" y="0" sodipodi:role="line"><tspan id="tspan484" dx="0" dy="0" fill="#212830" font-family="Arial" font-size="21.938px" font-weight="400" stroke-width=".83214">P=0.91</tspan></tspan></text>
     </g>
    </g>
    <path id="path485" d="m587.77 238.83-96.807-125.58h-22.396" fill="none" stroke="#0f0" stroke-linecap="round" stroke-linejoin="round" stroke-width=".83214"/>
    <g fill="#000000" font-family="Arial" font-size="21.938px" font-weight="400" letter-spacing="0px" stroke-width=".83214" word-spacing="0px">
     <text id="text487" transform="translate(153.63 345.92)" style="line-height:125%" xml:space="preserve"><tspan id="tspan487" x="0" y="0" sodipodi:role="line"><tspan id="tspan486" dx="0" dy="0" fill="#212830" font-family="Arial" font-size="21.938px" font-weight="400" stroke-width=".83214">A=2.38</tspan></tspan></text>
     <text id="text489" transform="translate(165.78 372.14)" style="line-height:125%" xml:space="preserve"><tspan id="tspan489" x="0" y="0" sodipodi:role="line"><tspan id="tspan488" dx="0" dy="0" fill="#212830" font-family="Arial" font-size="21.938px" font-weight="400" stroke-width=".83214">P=5.9</tspan></tspan></text>
     <text id="text491" transform="translate(726.23 77.386)" style="line-height:125%" xml:space="preserve"><tspan id="tspan491" x="0" y="0" sodipodi:role="line"><tspan id="tspan490" dx="0" dy="0" fill="#212830" font-family="Arial" font-size="21.938px" font-weight="400" stroke-width=".83214">A=0.022</tspan></tspan></text>
     <text id="text493" transform="translate(724.57 103.56)" style="line-height:125%" xml:space="preserve"><tspan id="tspan493" x="0" y="0" sodipodi:role="line"><tspan id="tspan492" dx="0" dy="0" fill="#212830" font-family="Arial" font-size="21.938px" font-weight="400" stroke-width=".83214">P=0.56</tspan></tspan></text>
    </g>
    <g fill="none" stroke-linecap="round" stroke-linejoin="round" stroke-width=".83214">
     <path id="path493" d="m613.1 268.32 256.59-141.85h22.353" stroke="#00f"/>
     <path id="path494" d="m410.99 407.46-143.6-69.312h-22.396" stroke="#00f"/>
     <path id="path495" d="m617.99 264.16 63.49-194.59h22.396" stroke="#f0f"/>
     <path id="path496" d="m388.08 336.87h425.65" stroke="#00f"/>
    </g>
    <text id="text497" transform="translate(673.74 279.84)" fill="#000000" font-family="Arial" font-size="9.375px" font-weight="400" letter-spacing="0px" stroke-width=".83214" word-spacing="0px" style="line-height:125%" xml:space="preserve"><tspan id="tspan497" x="0" y="0" sodipodi:role="line"><tspan id="tspan496" dx="0" dy="0" fill="#ff0000" font-family="Arial" font-size="9.375px" font-weight="400" stroke-width=".83214">R0.0955</tspan></tspan></text>
    <path id="path497" d="m672.25 276.53-46.831-5.8646" fill="none" stroke="#f00" stroke-linecap="round" stroke-linejoin="round" stroke-width=".83214"/>
    <path id="path498" d="m625.51 270.11-0.12749 1.1474-3.2722-0.97743z" fill="#f00" fill-rule="evenodd"/>
   </g>
  </g>
 </g>
 <metadata id="metadata2">
  <rdf:RDF>
   <cc:Work rdf:about="">
    <dc:title>El piramidión de Keops</dc:title>
    <dc:date>24-02-2025</dc:date>
    <dc:creator>
     <cc:Agent>
      <dc:title>Miguel Hernando Ibáñez Sánchez</dc:title>
     </cc:Agent>
    </dc:creator>
    <dc:publisher>
     <cc:Agent>
      <dc:title>ISAN atelier academiae</dc:title>
     </cc:Agent>
    </dc:publisher>
    <dc:source>Sáchica, Boyacá - Colombia</dc:source>
    <dc:relation>El Sendero Ocukto de la Serpiente</dc:relation>
    <dc:language>Español</dc:language>
    <dc:subject>
     <rdf:Bag>
      <rdf:li>geometria sagrada</rdf:li>
      <rdf:li>sacred geometry</rdf:li>
      <rdf:li>arquitectura sagrada</rdf:li>
      <rdf:li>sacred architecture</rdf:li>
     </rdf:Bag>
    </dc:subject>
    <dc:coverage>Global</dc:coverage>
    <dc:rights>
     <cc:Agent>
      <dc:title>El Piramidión de keops © 2025 by ISAN atelier academiae is licensed under Creative Commons Attribution-NoDerivatives 4.0 International</dc:title>
     </cc:Agent>
    </dc:rights>
    <dc:identifier>Ibáñez Sánchez, M. H. (2024). El_Piramidin_de_Keops_. ISAN atelier. https://doi.org/10.5281/zenodo.14293480</dc:identifier>
    <dc:description>Estudios geométricos</dc:description>
   </cc:Work>
  </rdf:RDF>
 </metadata>
</svg>
