<?xml version="1.0" encoding="UTF-8"?>
<!-- Created with Inkscape (http://www.inkscape.org/) -->
<svg id="svg1" width="210mm" height="120mm" inkscape:version="1.4 (86a8ad7, 2024-10-11)" sodipodi:docname="10.svg" version="1.1" viewBox="0 0 210 120" xmlns="http://www.w3.org/2000/svg" xmlns:cc="http://creativecommons.org/ns#" xmlns:dc="http://purl.org/dc/elements/1.1/" xmlns:inkscape="http://www.inkscape.org/namespaces/inkscape" xmlns:rdf="http://www.w3.org/1999/02/22-rdf-syntax-ns#" xmlns:sodipodi="http://sodipodi.sourceforge.net/DTD/sodipodi-0.dtd">
 <title id="title2">La Cuerda como recurso de Investigación arquitectónica -Uxmal -Hipótesis 2da parte</title>
 <sodipodi:namedview id="namedview1" bordercolor="#000000" borderopacity="0.25" inkscape:current-layer="g6" inkscape:cx="222.03153" inkscape:cy="487.90368" inkscape:deskcolor="#d1d1d1" inkscape:document-units="mm" inkscape:pagecheckerboard="0" inkscape:pageopacity="0.0" inkscape:showpageshadow="2" inkscape:window-height="705" inkscape:window-maximized="1" inkscape:window-width="1366" inkscape:window-x="-8" inkscape:window-y="-8" inkscape:zoom="0.35355339" pagecolor="#ffffff"/>
 <defs id="defs1">
  <pattern id="WMFhbasepattern" width="6" height="6" patternUnits="userSpaceOnUse"/>
  <pattern id="WMFhbasepattern-4" width="6" height="6" patternUnits="userSpaceOnUse"/>
 </defs>
 <g id="layer1" inkscape:groupmode="layer" inkscape:label="Capa 1">
  <g id="g18" transform="matrix(3.486 0 0 3.486 266.29 -247.21)" stroke-width=".028686">
   <g id="g17">
    <g id="g3" fill="none" stroke-linecap="round" stroke-linejoin="round" stroke-width=".028686">
     <path id="path1" d="m-63.587 101.01v-19.03h19.004v19.03z" stroke="#f0f"/>
     <g id="g1" stroke="#991b1e">
      <path id="path2" d="m-63.587 81.975 0.10773 0.11204"/>
      <path id="path3" d="m-63.238 82.329 0.15944 0.15945"/>
      <path id="path4" d="m-62.837 82.734 0.16376 0.15944"/>
      <path id="path5" d="m-62.432 83.134 0.15945 0.16376"/>
      <path id="path6" d="m-62.031 83.54 0.16376 0.15945"/>
      <path id="path7" d="m-61.626 83.94 0.15944 0.16375"/>
      <path id="path8" d="m-61.225 84.345 0.16376 0.16376"/>
      <path id="path9" d="m-60.82 84.75 0.15944 0.15945"/>
      <path id="path10" d="m-60.419 85.151 0.16376 0.16376"/>
      <path id="path11" d="m-60.014 85.556 0.15945 0.15945"/>
      <path id="path12" d="m-59.614 85.961 0.16376 0.15944"/>
      <path id="path13" d="m-59.209 86.362 0.15944 0.16376"/>
      <path id="path14" d="m-58.808 86.767 0.16376 0.15945"/>
      <path id="path15" d="m-58.403 87.168 0.15945 0.16376"/>
      <path id="path16" d="m-58.002 87.573 0.16376 0.15944"/>
      <path id="path17" d="m-57.597 87.978 0.15945 0.15945"/>
      <path id="path18" d="m-57.196 88.379 0.16376 0.16376"/>
      <path id="path19" d="m-56.791 88.784 0.15944 0.15944"/>
      <path id="path20" d="m-56.39 89.189 0.16376 0.15945"/>
      <path id="path21" d="m-55.985 89.59 0.15945 0.16375"/>
      <path id="path22" d="m-55.584 89.995 0.16376 0.15945"/>
      <path id="path23" d="m-55.179 90.396 0.15944 0.16376"/>
      <path id="path24" d="m-54.779 90.801 0.16376 0.15944"/>
      <path id="path25" d="m-54.373 91.206 0.15945 0.15945"/>
      <path id="path26" d="m-53.973 91.607 0.16375 0.16376"/>
      <path id="path27" d="m-53.568 92.012 0.15945 0.15944"/>
      <path id="path28" d="m-53.167 92.412 0.16376 0.16376"/>
      <path id="path29" d="m-52.762 92.818 0.15944 0.16376"/>
      <path id="path30" d="m-52.361 93.223 0.16376 0.15944"/>
      <path id="path31" d="m-51.956 93.623 0.15945 0.16376"/>
      <path id="path32" d="m-51.555 94.028 0.16376 0.15945"/>
      <path id="path33" d="m-51.15 94.434 0.15944 0.15944"/>
      <path id="path34" d="m-50.749 94.834 0.16376 0.16376"/>
      <path id="path35" d="m-50.344 95.239 0.15945 0.15944"/>
      <path id="path36" d="m-49.943 95.64 0.16376 0.16376"/>
      <path id="path37" d="m-49.538 96.045 0.15945 0.16376"/>
      <path id="path38" d="m-49.138 96.45 0.16376 0.15944"/>
      <path id="path39" d="m-48.733 96.851 0.15944 0.16376"/>
      <path id="path40" d="m-48.332 97.256 0.16376 0.15945"/>
      <path id="path41" d="m-47.927 97.661 0.15945 0.15944"/>
      <path id="path42" d="m-47.526 98.062 0.16376 0.16376"/>
      <path id="path43" d="m-47.121 98.467 0.15945 0.15945"/>
      <path id="path44" d="m-46.72 98.868 0.15945 0.16376"/>
      <path id="path45" d="m-46.315 99.273 0.15944 0.15945"/>
      <path id="path46" d="m-45.914 99.678 0.15944 0.15945"/>
      <path id="path47" d="m-45.509 100.08 0.15945 0.16376"/>
      <path id="path48" d="m-45.108 100.48 0.15945 0.15945"/>
      <path id="path49" d="m-44.703 100.89 0.0086 9e-3 0.11204 0.10774"/>
      <path id="path50" d="m-44.583 81.975-0.11204 0.11204"/>
      <path id="path51" d="m-44.936 82.329-0.15945 0.15945"/>
      <path id="path52" d="m-45.337 82.734-0.16376 0.15944"/>
      <path id="path53" d="m-45.742 83.134-0.15944 0.16376"/>
      <path id="path54" d="m-46.143 83.54-0.16376 0.15945"/>
      <path id="path55" d="m-46.548 83.94-0.15945 0.16375"/>
      <path id="path56" d="m-46.948 84.345-0.16376 0.16376"/>
      <path id="path57" d="m-47.354 84.75-0.15945 0.15945"/>
      <path id="path58" d="m-47.754 85.151-0.16376 0.16376"/>
      <path id="path59" d="m-48.159 85.556-0.15945 0.15945"/>
      <path id="path60" d="m-48.56 85.961-0.16376 0.15944"/>
      <path id="path61" d="m-48.965 86.362-0.15945 0.16376"/>
      <path id="path62" d="m-49.366 86.767-0.16376 0.15945"/>
      <path id="path63" d="m-49.771 87.168-0.15944 0.16376"/>
      <path id="path64" d="m-50.172 87.573-0.16376 0.15944"/>
      <path id="path65" d="m-50.577 87.978-0.15945 0.15945"/>
      <path id="path66" d="m-50.978 88.379-0.16376 0.16376"/>
      <path id="path67" d="m-51.383 88.784-0.15944 0.15944"/>
      <path id="path68" d="m-51.784 89.189-0.16376 0.15945"/>
      <path id="path69" d="m-52.189 89.59-0.15944 0.16375"/>
      <path id="path70" d="m-52.589 89.995-0.16376 0.15945"/>
      <path id="path71" d="m-52.994 90.396-0.15945 0.16376"/>
      <path id="path72" d="m-53.395 90.801-0.16376 0.15944"/>
      <path id="path73" d="m-53.8 91.206-0.15944 0.15945"/>
      <path id="path74" d="m-54.201 91.607-0.16376 0.16376"/>
      <path id="path75" d="m-54.606 92.012-0.15945 0.15944"/>
      <path id="path76" d="m-55.007 92.412-0.16375 0.16376"/>
      <path id="path77" d="m-55.412 92.818-0.15945 0.16376"/>
      <path id="path78" d="m-55.813 93.223-0.16376 0.15944"/>
      <path id="path79" d="m-56.218 93.623-0.15944 0.16376"/>
      <path id="path80" d="m-56.619 94.028-0.16376 0.15945"/>
      <path id="path81" d="m-57.024 94.434-0.15945 0.15944"/>
      <path id="path82" d="m-57.424 94.834-0.16376 0.16376"/>
      <path id="path83" d="m-57.83 95.239-0.15944 0.15944"/>
      <path id="path84" d="m-58.23 95.64-0.16376 0.16376"/>
      <path id="path85" d="m-58.635 96.045-0.15945 0.16376"/>
      <path id="path86" d="m-59.036 96.45-0.16375 0.15944"/>
      <path id="path87" d="m-59.441 96.851-0.15945 0.16376"/>
      <path id="path88" d="m-59.842 97.256-0.16376 0.15945"/>
      <path id="path89" d="m-60.247 97.661-0.15944 0.15944"/>
      <path id="path90" d="m-60.648 98.062-0.16376 0.16376"/>
      <path id="path91" d="m-61.053 98.467-0.15945 0.15945"/>
      <path id="path92" d="m-61.454 98.868-0.15945 0.16376"/>
      <path id="path93" d="m-61.859 99.273-0.15944 0.15945"/>
      <path id="path94" d="m-62.26 99.678-0.15945 0.15945"/>
      <path id="path95" d="m-62.665 100.08-0.15944 0.16376"/>
      <path id="path96" d="m-63.065 100.48-0.15944 0.15945"/>
      <path id="path97" d="m-63.47 100.89-0.0086 9e-3 -0.11204 0.10774"/>
      <path id="path98" d="m-44.583 91.49-0.0043-0.31458-0.01724-0.31458-0.02586-0.31458-0.03448-0.31027-0.0474-0.31027-0.05602-0.31027-0.06895-0.31027-0.07757-0.30165-0.08619-0.30165-0.09481-0.30165-0.10773-0.29734-0.11635-0.28873-0.12928-0.28873-0.13359-0.28442-0.14652-0.28011-0.15514-0.2758-0.15944-0.26718-0.17237-0.26287-0.18099-0.25856-0.18961-0.24994-0.19823-0.24563-0.20254-0.23701-0.21547-0.2327-0.21978-0.22409-0.2284-0.21547-0.2327-0.21116-0.24132-0.20254-0.24994-0.19392-0.25425-0.1853-0.25856-0.17237-0.26718-0.16806-0.27149-0.15945-0.2758-0.15083-0.28011-0.14221-0.28442-0.12928-0.29304-0.12066-0.29304-0.11204-0.29734-0.10342-0.29734-0.0905-0.30596-0.08188-0.30596-0.07326-0.30596-0.06464-0.31027-0.05171-0.31027-0.03878-0.31458-0.03017-0.31458-0.02155-0.31458-0.01293h-0.31027l-0.31458 0.01293-0.31458 0.02155-0.31458 0.03017-0.31027 0.03878-0.31027 0.05171-0.30596 0.06464-0.30596 0.07326-0.30596 0.08188-0.29734 0.0905-0.29734 0.10342-0.29304 0.11204-0.29304 0.12066-0.28442 0.12928-0.28011 0.14221-0.2758 0.15083-0.27149 0.15945-0.26718 0.16806-0.25856 0.17237-0.25425 0.1853-0.24994 0.19392-0.24132 0.20254-0.2327 0.21116-0.2284 0.21547-0.21978 0.22409-0.21547 0.2327-0.20254 0.23701-0.19823 0.24563-0.18961 0.24994-0.18099 0.25856-0.17237 0.26287-0.15945 0.26718-0.15514 0.2758-0.14652 0.28011-0.13359 0.28442-0.12928 0.28873-0.11635 0.28873-0.10773 0.29734-0.09481 0.30165-0.08619 0.30165-0.07757 0.30165-0.06895 0.31027-0.05602 0.31027-0.0474 0.31027-0.03448 0.31027-0.02586 0.31458-0.01724 0.31458-0.0043 0.31458 0.0043 0.31458 0.01724 0.31458 0.02586 0.31458 0.03448 0.31027 0.0474 0.31027 0.05602 0.31027 0.06895 0.31027 0.07757 0.30166 0.08619 0.30165 0.09481 0.30165 0.10773 0.29734 0.11635 0.28872 0.12928 0.28873 0.13359 0.28442 0.14652 0.28011 0.15514 0.2758 0.15945 0.26718 0.17237 0.26287 0.18099 0.25856 0.18961 0.24994 0.19823 0.24563 0.20254 0.23701 0.21547 0.2327 0.21978 0.22409 0.2284 0.21547 0.2327 0.21116 0.24132 0.20254 0.24994 0.19392 0.25425 0.1853 0.25856 0.17237 0.26718 0.16806 0.27149 0.15944 0.2758 0.15083 0.28011 0.14221 0.28442 0.12928 0.29304 0.12066 0.29304 0.11204 0.29734 0.10342 0.29734 0.0905 0.30596 0.0819 0.30596 0.0733 0.30596 0.0646 0.31027 0.0517 0.31027 0.0388 0.31458 0.0302 0.31458 0.0215 0.31458 0.0129h0.31027l0.31458-0.0129 0.31458-0.0215 0.31458-0.0302 0.31027-0.0388 0.31027-0.0517 0.30596-0.0646 0.30596-0.0733 0.30596-0.0819 0.29734-0.0905 0.29734-0.10342 0.29304-0.11204 0.29304-0.12066 0.28442-0.12928 0.28011-0.14221 0.2758-0.15083 0.27149-0.15944 0.26718-0.16806 0.25856-0.17237 0.25425-0.1853 0.24994-0.19392 0.24132-0.20254 0.2327-0.21116 0.2284-0.21547 0.21978-0.22409 0.21547-0.2327 0.20254-0.23701 0.19823-0.24563 0.18961-0.24994 0.18099-0.25856 0.17237-0.26287 0.15944-0.26718 0.15514-0.2758 0.14652-0.28011 0.13359-0.28442 0.12928-0.28873 0.11635-0.28872 0.10773-0.29734 0.09481-0.30165 0.08619-0.30165 0.07757-0.30166 0.06895-0.31027 0.05602-0.31027 0.0474-0.31027 0.03448-0.31027 0.02586-0.31458 0.01724-0.31458z"/>
     </g>
     <path id="path99" d="m-54.085 81.975-7.8732 19.03" stroke="#0ff"/>
     <path id="path100" d="m-54.085 81.975 7.8732 19.03" stroke="#0ff"/>
     <g id="g2" stroke="#212830">
      <path id="path101" d="m-61.958 102.2v2.1288"/>
      <path id="path102" d="m-46.212 102.2v2.1288"/>
      <path id="path103" d="m-63.858 103.38h-1.9004"/>
      <path id="path104" d="m-44.311 103.38h1.9004"/>
     </g>
    </g>
    <g id="g4">
     <path id="path105" d="m-63.858 103.06v0.63347l1.9004-0.31889z" fill="#212830" fill-rule="evenodd"/>
     <path id="path106" d="m-44.311 103.06v0.63347l-1.9004-0.31889z" fill="#212830" fill-rule="evenodd"/>
     <text id="text107" x="-59.686871" y="104.12529" fill="#000000" font-family="Arial" font-size="2.1293px" font-weight="400" letter-spacing="0px" stroke-width=".028686" word-spacing="0px" style="line-height:125%" xml:space="preserve"><tspan id="tspan107" x="-59.686871" y="104.12529" stroke-width=".028686" sodipodi:role="line"><tspan id="tspan106" dx="0" dy="0" fill="#212830" font-family="Arial" font-size="2.1293px" font-weight="400" stroke-width=".028686">0.82842712</tspan></tspan></text>
    </g>
    <g id="g5" fill="none" stroke="#212830" stroke-linecap="round" stroke-linejoin="round" stroke-width=".028686">
     <path id="path107" d="m-63.057 100.55-12.04-4.9945"/>
     <path id="path108" d="m-55.184 81.518-12.04-4.9945"/>
     <path id="path109" d="m-73.494 94.162 2.1805-5.266"/>
     <path id="path110" d="m-67.073 78.644-2.1805 5.2703"/>
    </g>
    <path id="path111" d="m-73.787 94.041 0.58607 0.24132-1.017 1.6375z" fill="#212830" fill-rule="evenodd"/>
    <path id="path112" d="m-67.366 78.523 0.58607 0.24132 0.43094-1.8789z" fill="#212830" fill-rule="evenodd"/>
    <g id="g6" font-weight="400" letter-spacing="0px" stroke-width=".028686" word-spacing="0px">
     <text id="text113" x="-75.963249" y="87.155098" font-family="Arial" font-size="2.1293px" style="line-height:125%" xml:space="preserve"><tspan id="tspan113" x="-75.963249" y="87.155098" stroke-width=".028686" sodipodi:role="line"><tspan id="tspan112" dx="0" dy="0" fill="#212830" font-family="Arial" font-size="2.1293px" font-weight="400" stroke-width=".028686">1.08239220</tspan></tspan></text>
     <text id="text115" x="-32.701778" y="83.879997" font-family="Garamond" font-size="2.612px" style="line-height:125%" xml:space="preserve"><tspan id="tspan115" x="-32.701778" y="83.879997" stroke-width=".028686" sodipodi:role="line"><tspan id="tspan114" dx="0" dy="0" fill="#00ffff" font-family="Garamond" font-size="2.612px" font-weight="400" stroke-width=".028686">A</tspan></tspan></text>
     <text id="text117" x="-30.934948" y="83.879997" font-family="Garamond" font-size="2.612px" style="line-height:125%" xml:space="preserve"><tspan id="tspan117" x="-30.934948" y="83.879997" stroke-width=".028686" sodipodi:role="line"><tspan id="tspan116" dx="0" dy="0" fill="#212830" font-family="Garamond" font-size="2.612px" font-weight="400" stroke-width=".028686">=</tspan></tspan></text>
     <text id="text119" x="-29.198282" y="83.879997" font-family="Arial" font-size="2.5922px" style="line-height:125%" xml:space="preserve"><tspan id="tspan119" x="-29.198282" y="83.879997" stroke-width=".028686" sodipodi:role="line"><tspan id="tspan118" fill="#212830" font-family="Arial" font-size="2.5922px" font-weight="400" stroke-width=".028686">√2</tspan></tspan></text>
     <text id="text121" x="-32.75349" y="86.7845" font-family="Garamond" font-size="2.612px" style="line-height:125%" xml:space="preserve"><tspan id="tspan121" x="-32.75349" y="86.7845" stroke-width=".028686" sodipodi:role="line"><tspan id="tspan120" dx="0" dy="0" fill="#00ffff" font-family="Garamond" font-size="2.612px" font-weight="400" stroke-width=".028686">P</tspan></tspan></text>
     <text id="text123" x="-31.284004" y="86.7845" font-family="Garamond" font-size="2.612px" style="line-height:125%" xml:space="preserve"><tspan id="tspan123" x="-31.284004" y="86.7845" stroke-width=".028686" sodipodi:role="line"><tspan id="tspan122" dx="0" dy="0" fill="#212830" font-family="Garamond" font-size="2.612px" font-weight="400" stroke-width=".028686">=2.99321153</tspan></tspan></text>
    </g>
    <path id="path123" d="m-50.103 91.357-0.0905 0.03017 0.07757-0.06033z" fill="#212830" fill-rule="evenodd"/>
    <g id="g7" stroke-width=".028686">
     <path id="path124" d="m-50.107 91.344 17.177-8.9548h0.15083" fill="none" stroke="#212830" stroke-linecap="round" stroke-linejoin="round"/>
     <text id="text125" x="-41.014496" y="77.950348" fill="#000000" font-family="Arial" font-size="1.3292px" font-weight="400" letter-spacing="0px" word-spacing="0px" style="line-height:125%" xml:space="preserve"><tspan id="tspan125" x="-41.014496" y="77.950348" stroke-width=".028686" sodipodi:role="line"><tspan id="tspan124" dx="0" dy="0" fill="#991b1e" font-family="Arial" font-size="1.3292px" font-weight="400" stroke-width=".028686">R0.5000</tspan></tspan></text>
     <path id="path125" d="m-42.432 77.481h-0.56883l-4.8265 6.102" fill="none" stroke="#991b1e" stroke-linecap="round" stroke-linejoin="round"/>
    </g>
    <path id="path126" d="m-47.905 83.527 0.15083 0.11635-0.43093 0.38784z" fill="#991b1e" fill-rule="evenodd"/>
    <g id="g8" fill="none" stroke="#212830" stroke-linecap="round" stroke-linejoin="round" stroke-width=".028686">
     <path id="path127" d="m-63.587 81.592v-9.5323"/>
     <path id="path128" d="m-44.583 81.592v-9.5323"/>
     <path id="path129" d="m-63.018 72.439h5.4858"/>
     <path id="path130" d="m-45.151 72.439h-5.4858"/>
    </g>
    <g id="g9">
     <path id="path131" d="m-63.018 72.344v0.18961l-0.56883-0.09481z" fill="#212830" fill-rule="evenodd"/>
     <path id="path132" d="m-45.151 72.344v0.18961l0.56883-0.09481z" fill="#212830" fill-rule="evenodd"/>
     <text id="text133" x="-56.15752" y="72.908417" fill="#000000" font-family="Arial" font-size="1.3292px" font-weight="400" letter-spacing="0px" stroke-width=".028686" word-spacing="0px" style="line-height:125%" xml:space="preserve"><tspan id="tspan133" x="-56.15752" y="72.908417" stroke-width=".028686" sodipodi:role="line"><tspan id="tspan132" dx="0" dy="0" fill="#212830" font-family="Arial" font-size="1.3292px" font-weight="400" stroke-width=".028686">1.0000</tspan></tspan></text>
    </g>
    <path id="path133" d="m-56.907 85.849 0.11635 0.08188 0.11635 0.07757 0.12066 0.07757 0.12497 0.06895" fill="none" stroke="#212830" stroke-linecap="round" stroke-linejoin="round" stroke-width=".028686"/>
    <path id="path134" d="m-51.74 86.155 0.12497-0.06895 0.12066-0.07757 0.11635-0.07757 0.11635-0.08188" fill="none" stroke="#212830" stroke-linecap="round" stroke-linejoin="round" stroke-width=".028686"/>
    <g id="g10">
     <path id="path135" d="m-56.39 86.069-0.08188 0.17237 0.5516 0.16376z" fill="#212830" fill-rule="evenodd"/>
     <path id="path136" d="m-51.697 86.242-0.08188-0.17237-0.47403 0.33613z" fill="#212830" fill-rule="evenodd"/>
     <text id="text137" x="-55.222393" y="87.055984" fill="#000000" font-family="Arial" font-size=".80014px" font-weight="400" letter-spacing="0px" stroke-width=".028686" word-spacing="0px" style="line-height:125%" xml:space="preserve"><tspan id="tspan137" x="-55.222393" y="87.055984" stroke-width=".028686" sodipodi:role="line"><tspan id="tspan136" dx="0" dy="0" fill="#212830" font-family="Arial" font-size=".80014px" font-weight="400" stroke-width=".028686">45.00°</tspan></tspan></text>
    </g>
    <g id="g11" fill="none" stroke="#212830" stroke-linecap="round" stroke-linejoin="round" stroke-width=".028686">
     <path id="path137" d="m-55.77 93.99-0.18962-0.21547-0.09911-0.10342-0.09912-0.10342"/>
     <path id="path138" d="m-55.77 93.985h0.56883"/>
     <path id="path139" d="m-56.576 93.184-0.1853-0.15083-0.19392-0.14652-0.19823-0.1379-0.20254-0.12928-0.20685-0.12066-0.21116-0.11635"/>
    </g>
    <g id="g12">
     <path id="path140" d="m-56.511 93.106-0.12928 0.14221 0.48265 0.31458z" fill="#212830" fill-rule="evenodd"/>
     <path id="path141" d="m-57.812 92.464 0.08188-0.17237-0.56022-0.15514z" fill="#212830" fill-rule="evenodd"/>
     <text id="text142" x="-55.03709" y="94.265511" fill="#000000" font-family="Arial" font-size=".80014px" font-weight="400" letter-spacing="0px" stroke-width=".028686" word-spacing="0px" style="line-height:125%" xml:space="preserve"><tspan id="tspan142" x="-55.03709" y="94.265511" stroke-width=".028686" sodipodi:role="line"><tspan id="tspan141" dx="0" dy="0" fill="#212830" font-family="Arial" font-size=".80014px" font-weight="400" stroke-width=".028686">22.50°</tspan></tspan></text>
    </g>
    <path id="path142" d="m-59.691 94.033-0.16376-0.05602-0.16806-0.05602" fill="none" stroke="#212830" stroke-linecap="round" stroke-linejoin="round" stroke-width=".028686"/>
    <path id="path143" d="m-62.634 93.395-0.19392-0.01293-0.18961-0.01293" fill="none" stroke="#212830" stroke-linecap="round" stroke-linejoin="round" stroke-width=".028686"/>
    <g id="g13">
     <path id="path144" d="m-59.657 93.942-0.06895 0.17668 0.56883 0.11635z" fill="#212830" fill-rule="evenodd"/>
     <path id="path145" d="m-63.022 93.464 0.0043-0.18961-0.56883 0.08188z" fill="#212830" fill-rule="evenodd"/>
     <text id="text146" x="-62.470707" y="93.860435" fill="#000000" font-family="Arial" font-size=".80014px" font-weight="400" letter-spacing="0px" stroke-width=".028686" word-spacing="0px" style="line-height:125%" xml:space="preserve"><tspan id="tspan146" x="-62.470707" y="93.860435" stroke-width=".028686" sodipodi:role="line"><tspan id="tspan145" dx="0" dy="0" fill="#212830" font-family="Arial" font-size=".80014px" font-weight="400" stroke-width=".028686">22.50°</tspan></tspan></text>
    </g>
    <path id="path146" d="m-61.174 100.59 0.15514 0.0215 0.15083 9e-3h0.15083l0.15514-0.0129 0.15083-0.0172 0.15083-0.0302 0.14652-0.0388 0.14221-0.0517 0.14221-0.056 0.1379-0.069 0.13359-0.0733 0.12928-0.0819 0.12066-0.0948 0.11635-0.09912 0.10773-0.10342 0.10342-0.11635 0.09481-0.11635 0.0905-0.12497 0.07757-0.13359 0.06895-0.13359 0.06464-0.14221 0.05171-0.14221" fill="none" stroke="#212830" stroke-linecap="round" stroke-linejoin="round" stroke-width=".028686"/>
    <path id="path147" d="m-58.416 98.023-0.01724-0.1379-0.02155-0.1379-0.03017-0.1379-0.03878-0.13359-0.0474-0.12928-0.05602-0.12928-0.06033-0.12497-0.06895-0.12066" fill="none" stroke="#212830" stroke-linecap="round" stroke-linejoin="round" stroke-width=".028686"/>
    <g id="g14">
     <path id="path148" d="m-61.199 100.69 0.05171-0.1853-0.57314-0.0603z" fill="#212830" fill-rule="evenodd"/>
     <path id="path149" d="m-58.829 97.028 0.14652-0.11635-0.42663-0.39215z" fill="#212830" fill-rule="evenodd"/>
     <text id="text150" x="-59.820461" y="98.786011" fill="#000000" font-family="Arial" font-size=".80014px" font-weight="400" letter-spacing="0px" stroke-width=".028686" word-spacing="0px" style="line-height:125%" xml:space="preserve"><tspan id="tspan150" x="-59.820461" y="98.786011" stroke-width=".028686" sodipodi:role="line"><tspan id="tspan149" dx="0" dy="0" fill="#212830" font-family="Arial" font-size=".80014px" font-weight="400" stroke-width=".028686">157.50°</tspan></tspan></text>
    </g>
    <path id="path150" d="m-58.446 87.918-0.0474 0.10342-0.04309 0.10342-0.03017 0.10773-0.02586 0.11204-0.02155 0.10774-0.01293 0.11204" fill="none" stroke="#212830" stroke-linecap="round" stroke-linejoin="round" stroke-width=".028686"/>
    <path id="path151" d="m-58.424 89.525 0.05171 0.09481 0.06033 0.0905 0.06033 0.08619 0.07326 0.08188 0.07326 0.07757 0.07757 0.07326" fill="none" stroke="#212830" stroke-linecap="round" stroke-linejoin="round" stroke-width=".028686"/>
    <g id="g15">
     <path id="path152" d="m-58.528 87.862 0.15514 0.11204 0.25856-0.52143z" fill="#212830" fill-rule="evenodd"/>
     <path id="path153" d="m-57.976 89.952-0.10342 0.16376 0.53436 0.21978z" fill="#212830" fill-rule="evenodd"/>
     <text id="text154" x="-59.997143" y="89.331314" fill="#000000" font-family="Arial" font-size=".80014px" font-weight="400" letter-spacing="0px" stroke-width=".028686" word-spacing="0px" style="line-height:125%" xml:space="preserve"><tspan id="tspan154" x="-59.997143" y="89.331314" stroke-width=".028686" sodipodi:role="line"><tspan id="tspan153" dx="0" dy="0" fill="#212830" font-family="Arial" font-size=".80014px" font-weight="400" stroke-width=".028686">112.50°</tspan></tspan></text>
    </g>
    <path id="path154" d="m-48.121 87.103-0.1379-0.24994-0.07757-0.12066-0.08188-0.11635" fill="none" stroke="#212830" stroke-linecap="round" stroke-linejoin="round" stroke-width=".028686"/>
    <path id="path155" d="m-53.167 85.668-0.12066 0.07757-0.11635 0.08188-0.11204 0.08619-0.11204 0.0948" fill="none" stroke="#212830" stroke-linecap="round" stroke-linejoin="round" stroke-width=".028686"/>
    <g id="g16">
     <path id="path156" d="m-48.487 86.677 0.14221-0.12066-0.43955-0.37491z" fill="#212830" fill-rule="evenodd"/>
     <path id="path157" d="m-53.214 85.587 0.08619 0.16806 0.46541-0.34475z" fill="#212830" fill-rule="evenodd"/>
     <text id="text158" x="-51.753372" y="85.487389" fill="#000000" font-family="Arial" font-size=".80014px" font-weight="400" letter-spacing="0px" stroke-width=".028686" word-spacing="0px" style="line-height:125%" xml:space="preserve"><tspan id="tspan158" x="-51.753372" y="85.487389" stroke-width=".028686" sodipodi:role="line"><tspan id="tspan157" dx="0" dy="0" fill="#212830" font-family="Arial" font-size=".80014px" font-weight="400" stroke-width=".028686">67.50°</tspan></tspan></text>
    </g>
   </g>
  </g>
 </g>
 <metadata id="metadata2">
  <rdf:RDF>
   <cc:Work rdf:about="">
    <dc:title>La Cuerda como recurso de Investigación arquitectónica -Uxmal -Hipótesis 2da parte</dc:title>
    <dc:date>13-01-2025</dc:date>
    <dc:creator>
     <cc:Agent>
      <dc:title>Arq. Miguel Hernanando Ibáñez Sánchez</dc:title>
     </cc:Agent>
    </dc:creator>
    <dc:rights>
     <cc:Agent>
      <dc:title>La Cuerda como recurso de Investigación arquitectónica -Uxmal -Hipótesis 2da parte © 2025 by ISAN atelier is licensed under Creative Commons Attribution-NoDerivatives 4.0 International</dc:title>
     </cc:Agent>
    </dc:rights>
    <dc:publisher>
     <cc:Agent>
      <dc:title>ISAN atelier</dc:title>
     </cc:Agent>
    </dc:publisher>
    <dc:identifier>Miguel Hernando, I. S. (2025). La Mano Divina ante las investigaciones de arqueología arquitectónica. https://doi.org/10.5281/zenodo.14641895</dc:identifier>
    <dc:source>Sáchica, Boyacá - Colombia</dc:source>
    <dc:relation>La Cuerda como recurso de Investigación arquitectónica -Uxmal -Hipótesis 1era parte</dc:relation>
    <dc:language>Español</dc:language>
    <dc:subject>
     <rdf:Bag>
      <rdf:li>Arquitectura sagrada. mexico sagrado</rdf:li>
      <rdf:li>geometria sagrada</rdf:li>
      <rdf:li>uxmal</rdf:li>
      <rdf:li>mesoamerica</rdf:li>
     </rdf:Bag>
    </dc:subject>
    <dc:coverage>Golbal</dc:coverage>
    <dc:description>Estudios geométricos a la ciudad antigua de Uxmal, México</dc:description>
    <cc:license rdf:resource="http://creativecommons.org/licenses/by-nd/4.0/"/>
   </cc:Work>
   <cc:License rdf:about="http://creativecommons.org/licenses/by-nd/4.0/">
    <cc:permits rdf:resource="http://creativecommons.org/ns#Reproduction"/>
    <cc:permits rdf:resource="http://creativecommons.org/ns#Distribution"/>
    <cc:requires rdf:resource="http://creativecommons.org/ns#Notice"/>
    <cc:requires rdf:resource="http://creativecommons.org/ns#Attribution"/>
   </cc:License>
  </rdf:RDF>
 </metadata>
</svg>
