<?xml version="1.0" encoding="UTF-8"?>
<!-- Created with Inkscape (http://www.inkscape.org/) -->
<svg id="svg1" width="210mm" height="140mm" inkscape:version="1.4 (86a8ad7, 2024-10-11)" sodipodi:docname="1.svg" version="1.1" viewBox="0 0 210 140" xmlns="http://www.w3.org/2000/svg" xmlns:cc="http://creativecommons.org/ns#" xmlns:dc="http://purl.org/dc/elements/1.1/" xmlns:inkscape="http://www.inkscape.org/namespaces/inkscape" xmlns:rdf="http://www.w3.org/1999/02/22-rdf-syntax-ns#" xmlns:sodipodi="http://sodipodi.sourceforge.net/DTD/sodipodi-0.dtd">
 <title id="title1">Coordenada 12.6 N, 12.6 E</title>
 <sodipodi:namedview id="namedview1" bordercolor="#000000" borderopacity="0.25" inkscape:current-layer="layer1" inkscape:cx="396.85039" inkscape:cy="560.48676" inkscape:deskcolor="#d1d1d1" inkscape:document-units="mm" inkscape:pagecheckerboard="0" inkscape:pageopacity="0.0" inkscape:showpageshadow="2" inkscape:window-height="745" inkscape:window-maximized="1" inkscape:window-width="1311" inkscape:window-x="-8" inkscape:window-y="-8" inkscape:zoom="0.38805556" pagecolor="#ffffff"/>
 <defs id="defs1">
  <pattern id="WMFhbasepattern" width="6" height="6" patternUnits="userSpaceOnUse"/>
 </defs>
 <g id="layer1" inkscape:groupmode="layer" inkscape:label="Capa 1">
  <g id="g1" transform="matrix(.28025 0 0 .28025 -49.431 -62.921)" stroke-width=".71365">
   <g fill="none" stroke-linecap="round" stroke-linejoin="round" stroke-width=".71365">
    <path id="path1" d="m564.88 663.33-136.34-78.779 272.64-157.56 136.3 78.779z" stroke="#0f0"/>
    <path id="path2" d="m428.54 584.55 408.94-78.779" stroke="#0f0"/>
    <path id="path3" d="m428.54 584.55v-176.16" stroke="#f00"/>
    <g stroke="#0f0">
     <path id="path4" d="m428.54 408.39 136.34 78.779"/>
     <path id="path5" d="m564.88 487.17 272.6-157.56"/>
     <path id="path6" d="m837.48 329.61-136.3-78.779"/>
     <path id="path7" d="m701.18 250.83-272.64 157.56"/>
     <path id="path8" d="m837.48 329.61v176.16"/>
     <path id="path9" d="m701.18 250.83v176.16"/>
     <path id="path10" d="m564.88 487.17v176.16"/>
    </g>
    <g stroke="#212830">
     <path id="path11" d="m428.02 584.87-55.304 31.947"/>
     <path id="path12" d="m564.32 663.65-55.264 31.947"/>
     <path id="path13" d="m388.87 625.56 41.765 24.109"/>
     <path id="path14" d="m493.93 686.29-41.765-24.148"/>
    </g>
   </g>
   <g fill="#212830" fill-rule="evenodd">
    <path id="path15" d="m386.26 627.07 5.2256-3.0087-18.21-7.5216z"/>
    <path id="path16" d="m491.32 687.8 5.2256-3.0087 13.024 10.53z"/>
    <path id="path17" d="m413.49 677.3-2.4544 1.6627 1.4252 0.59382 2.3357 0.55422 2.5336 0.11877 4.1171-2.9691-1.1876 0.51464-2.4148 0.39588-1.9002-0.11876z"/>
    <path id="path18" d="m416.5 668.36-4.9089 3.2462 2.0586-0.83134 2.4544-0.27711h0.11876l2.3357 0.3167 2.2169 0.9501 0.35629 0.23753 1.5043 1.2668 0.55422 1.3856-0.35629 1.3856-1.3856 1.2272-4.1171 2.9691 1.7419-0.15835 2.3357-0.59382 2.1377-1.0293 0.83134-0.51464 1.3856-1.2668 0.71258-1.346v-1.4647l-0.43547-1.2668-1.1084-1.3064-1.6627-1.2272-1.9794-0.91052-2.2961-0.59381z"/>
    <path id="path19" d="m410.01 669.9-0.47505 0.3167-1.346 1.2272-0.79175 1.5043 9.1052-4.5922-2.019 0.11876-2.3752 0.51464z"/>
    <path id="path20" d="m408.78 662.86-10.332 5.9777 8.6697 7.3633 2.692-1.2272-0.0396-0.23752 0.15835-1.5043 0.19794-0.35629 1.4647-1.2668 4.9089-3.2462-9.1052 4.5922-4.4734-3.8796 8.3134-4.8297z"/>
    <path id="path21" d="m434.12 671.96-2.8899-1.7023 2.8899-1.6627 2.9295 1.6627z"/>
    <path id="path22" d="m433.17 650.23-4.3151 3.0482 1.4648-0.67299 2.4148-0.35629 1.4647 0.0792 2.1773 0.79175 1.0689 0.87093 0.79175 1.5835 0.0792 0.39588 0.11876 1.2668-0.0792 1.5835-0.27711 1.9398-0.11876 0.83134-0.15835 1.6231 0.0792 1.3064 0.3167 1.1876 0.75217 1.3856 1.5043 1.1876 13.776-7.9571-2.494-1.3856-10.214 5.8986-0.27711-1.4252-0.0396-0.0792 0.11877-1.1876 0.23752-1.9794 0.19794-1.6231 0.11876-1.5835-0.0396-1.1876-0.19794-1.0689-0.6334-1.3856-0.39588-0.47505-1.5439-1.2272-1.0689-0.51464-2.2565-0.67299z"/>
    <path id="path23" d="m426.79 652.01-1.4648 0.98969-1.2272 1.3064-0.51464 1.346 0.0792 1.0293 0.79176 1.3856 1.5835 1.346 2.8899-1.346-1.346-1.0689-0.59382-1.3856 0.35629-1.0689 1.5043-1.2668 4.3151-3.0482-1.9002 0.19794-2.2961 0.59382z"/>
    <path id="path24" d="m453.67 653.91-2.2169 1.6627 1.4252 0.55423 2.3357 0.55423 2.5732 0.11876 1.7023-0.11876 2.3357-0.55423 2.1377-0.98969 1.7023-1.2272 1.0293-1.346 0.39587-1.4252-5.2256 2.7711-1.148 0.51464-2.4148 0.39588-2.0586-0.15835z"/>
    <path id="path25" d="m457.91 645.99-4.2359 2.9295 1.6231-0.67299 2.4544-0.35629 1.8606 0.19794 2.1773 0.83134 1.346 1.0689 0.51464 1.4252-0.35629 1.2272-1.4252 1.2668 5.2256-2.7711-0.19794-1.2668-0.87092-1.346-1.5835-1.2272-2.019-0.87093-2.3752-0.47505z"/>
    <path id="path26" d="m450.19 648.68 1.9398 1.4647 1.5439-1.2272 4.2359-2.9295-2.494 0.59381 0.39588-0.79175-5.186 2.6524z"/>
    <path id="path27" d="m439.86 646.82 0.55423 1.3856 1.3064 1.4252 3.0087-1.2272-1.0293-0.98969-0.51463-1.346 0.19793-0.71257 1.346-1.2668z"/>
    <path id="path28" d="m442.59 642.9-0.79175 0.51464-1.346 1.2668-0.59382 1.4252v0.71258l4.8693-2.7316 0.98969-0.47505 2.4148-0.43546 1.0293 0.0792 2.2169 0.71258 1.1085 0.91051 0.23752 1.3856-0.55422 0.9501-1.5439 1.2272 5.186-2.6524v-1.4647l-0.27711-0.59382-1.4648-1.2272-1.0293-0.51464-2.4148-0.59382-1.5835-0.11876-2.6128 0.19794-1.7418 0.47505z"/>
    <path id="path29" d="m473.35 635.82-4.4734 3.0482 1.6231-0.67299 2.494-0.27711 2.3357 0.35629 2.2169 0.9501 0.15835 0.0792 1.6231 1.3064 0.59381 1.346-0.19793 1.1084-1.2668 1.2272-4.7505 2.8899 2.5336-0.19794 2.2961-0.55423 2.0586-0.9501 1.5043-1.0689 0.95011-1.3856 0.23752-1.3064-0.47505-1.5043-0.0396-0.0396-1.1084-1.346-1.6627-1.2272-1.9002-0.91051-2.2961-0.63341z"/>
    <path id="path30" d="m467.09 637.28-0.9501 0.6334-1.148 1.346-0.35629 0.98969 0.19794 1.5439 2.2961-0.51464 0.35629-1.148 1.3856-1.2668 4.4734-3.0482-1.7814 0.0792-2.3753 0.47505z"/>
    <path id="path31" d="m465 631.54-3.4837 2.8107 1.1876-0.51463 2.494-0.31671 0.6334 0.0396 2.494 0.67299 2.3357-1.5835-0.83134-0.35629-2.3753-0.6334z"/>
    <path id="path32" d="m459.57 633.05-0.51464 0.35629-1.4647 1.2272-0.79175 1.3856-0.0792 1.4647 0.43547 1.148 0.87093 1.2272 1.3064 1.3064 1.7418 1.3064 2.1773 1.3856 1.0689 0.55422 2.3357 1.148 2.2169 0.83134 2.1377 0.51464 2.019 0.23753 0.67299 0.0396 4.7505-2.8899-0.39587 0.23753-2.3753 0.6334-0.79175 0.0792-2.5732-0.23752-0.98969-0.23753-2.1377-0.91051-1.4647-1.1876-0.59382-1.3856-2.2961 0.51464-1.346-0.83134-1.7023-1.2668-1.0689-1.1084-0.59381-1.148-0.0792-1.4252 0.15835-0.35629 1.3064-1.3064 3.4837-2.8107-0.91052 0.0396-2.3357 0.51464z"/>
   </g>
   <g fill="none" stroke="#212830" stroke-linecap="round" stroke-linejoin="round" stroke-width=".71365">
    <path id="path33" d="m837.99 506.09 63.617 36.777"/>
    <path id="path34" d="m565.39 663.65 63.617 36.777"/>
    <path id="path35" d="m885.5 551.57-78.423 45.328"/>
    <path id="path36" d="m644.09 691.08 78.423-45.328"/>
   </g>
   <g fill="#212830" fill-rule="evenodd">
    <path id="path37" d="m882.88 550.07 5.186 3.0087 13.024-10.53z"/>
    <path id="path38" d="m641.48 689.58 5.2256 3.0087-18.21 7.5216z"/>
    <path id="path39" d="m717.96 641.04-0.75217 1.5043 2.4544 1.4252 0.55422-0.79175 0.83134-1.5439 0.35629-0.98969 0.27711-1.4252z"/>
    <path id="path40" d="m719.62 635.06-1.6231 0.98969 0.43547 1.2272 0.0792 1.6627-0.0792 0.59381-0.47505 1.5043 3.7212-1.821 16.31 9.4219 2.5732-1.4647z"/>
    <path id="path41" d="m739.14 625.88-4.0775 2.7316 2.0586-0.71258 2.6524-0.0396 1.2668 0.23753 1.9398 0.6334 2.2565 0.98969 2.5336 1.3856 1.9398 1.1876 1.8606 1.3064 1.2272 1.1876 0.59381 0.9501-0.0396 1.5043-1.2272 1.2272 4.7109-2.0586-0.27711-1.4647-0.9897-1.5043-0.19793-0.19794-1.2272-1.148-1.6627-1.2272-2.0586-1.2668-1.4647-0.83134-2.0981-1.0293-1.8606-0.71258-1.9794-0.59381-2.4148-0.47505z"/>
    <path id="path42" d="m732.96 627.38-0.35629 0.23753-1.5043 1.2668-0.67299 1.3856-0.0396 0.35629 0.27712 1.4252 0.98969 1.5043 0.19793 0.23753 1.2272 1.148 1.6627 1.2272 2.0982 1.2668 1.9002 1.0689 2.2961 1.0689 2.2169 0.79175 2.0982 0.51464 2.019 0.27712 2.4148-0.0396 2.3357-0.51464 2.1377-0.9501 0.39588-0.23753 1.5043-1.2668 0.6334-1.3856 0.0396-0.35629-4.7109 2.0586-1.9794 0.67299-2.6524 0.0396-1.3064-0.23753-1.9398-0.6334-2.2169-0.98969-2.5732-1.3856-2.1377-1.3064-1.7814-1.346-1.1876-1.148-0.59382-1.0293 0.0396-1.2668 1.2668-1.2272 4.0775-2.7316-2.5732 0.19794-1.4252 0.35629z"/>
    <path id="path43" d="m764.71 633.2-2.9295-1.7023 2.9295-1.6627 2.9295 1.6627z"/>
    <path id="path44" d="m761.31 611.11-2.0981 1.1876 3.9984 13.301 2.3357 1.346 9.026-5.2256 4.988 2.8899 2.5732-1.4647-4.988-2.8899 2.8107-1.6231-2.3357-1.346-2.8503 1.6231-9.0656 5.2256-2.8503-9.1843z"/>
    <path id="path45" d="m761.31 611.11 1.5439 3.84 9.3823 5.4235-6.532 3.7608 9.0656-5.2256z"/>
    <path id="path46" d="m780.63 600.23-13.46 7.7988 2.4544 1.4252 10.214-5.8986 0.0792 0.71258 0.35628 1.4252 0.55423 1.5439 0.75217 1.5835 0.75216 1.2668 0.9501 1.4252 1.1085 1.3856 1.2668 1.346 0.35629 0.3167 1.5439 1.4252 1.5439 1.2272 1.5439 1.0293 2.6128-1.5439-0.19794-0.11876-1.7419-1.2272-1.5043-1.2668-1.3064-1.2668-0.23752-0.23752-1.148-1.346-1.0689-1.3856-0.91052-1.4647-0.83134-1.4647-0.51464-1.148-0.59381-1.5835-0.39588-1.4647-0.15835-1.346z"/>
    <path id="path47" d="m796.15 592.79-4.3546 3.0482 1.5043-0.67299 2.3753-0.39587 1.4647 0.11876 2.1773 0.75216 1.1085 0.91052 0.79175 1.5439 0.0792 0.43546 0.0792 1.2668-0.0792 1.5835-0.27712 1.9398-0.11876 0.83134-0.11876 1.5835 0.0792 1.346 0.27712 1.1876 0.79175 1.3856 1.4647 1.1876 13.776-7.9571-2.4544-1.4252-10.214 5.8986-0.3167-1.4252v-0.0792l0.0792-1.1876 0.27711-1.9398 0.19794-1.6627 0.11876-1.5439-0.0396-1.1876-0.19793-1.0689-0.67299-1.3856-0.39588-0.51464-1.5439-1.1876-1.0689-0.51464-2.2565-0.67299z"/>
    <path id="path48" d="m789.73 594.57-1.4252 0.9501-1.2668 1.3064-0.51464 1.3856 0.11876 1.0293 0.79176 1.3856 1.5439 1.346 2.9295-1.3856-1.3856-1.0689-0.59381-1.346 0.35629-1.0689 1.5043-1.2668 4.3546-3.0482-1.9398 0.15836-2.2961 0.59381z"/>
   </g>
   <g fill="#f00" fill-rule="evenodd">
    <path id="path49" d="m220.46 576.63-2.494 1.6627 1.4252 0.59382 2.3753 0.55422 2.494 0.11877 4.1171-2.9691-1.148 0.51464-2.4544 0.39588-1.8606-0.11876z"/>
    <path id="path50" d="m223.47 567.69-4.9484 3.2462 2.0586-0.83134 2.4544-0.27711h0.11876l2.3357 0.35629 2.2169 0.91051 0.35629 0.23753 1.5043 1.2668 0.55423 1.3856-0.35629 1.3856-1.3856 1.2272-4.1171 2.9691 1.7814-0.15835 2.2961-0.59382 2.1377-0.98969 0.83134-0.55423 1.3856-1.2668 0.71258-1.346 0.0396-1.4647-0.47505-1.2272-1.1085-1.346-1.6627-1.2272-1.9398-0.91052-2.3357-0.59381z"/>
    <path id="path51" d="m216.98 569.23-0.47505 0.3167-1.3856 1.2272-0.79176 1.5043 9.1447-4.5922-2.0586 0.11876-2.3753 0.51464z"/>
    <path id="path52" d="m215.71 562.18-10.332 5.9777 8.6697 7.3633 2.7316-1.2272-0.0792-0.23752 0.15835-1.5043 0.19794-0.35629 1.4647-1.2668 4.9484-3.2462-9.1447 4.5922-4.4734-3.8796 8.3134-4.8297z"/>
    <path id="path53" d="m241.05 571.29-2.8899-1.7023 2.8899-1.6627 2.9295 1.6627z"/>
    <path id="path54" d="m248.77 554.74-4.4734 2.8899 1.821-0.75216 2.4544-0.31671 2.1377 0.19794 2.1377 0.83134 1.2668 1.0293 0.55423 1.4252-0.39588 1.148-1.4647 1.2668-4.7109 3.0482 2.3357-0.19794 2.2961-0.59381 2.1773-1.0293 1.6627-1.1876 1.1085-1.3064 0.35628-1.4252-0.15835-1.1084-0.83134-1.3856-1.5835-1.1876-1.9398-0.87093-2.3753-0.47505z"/>
    <path id="path55" d="m230.8 555.37 0.67299 1.3856 1.5043 1.2272 1.0293 0.47505 2.3357 0.59381h1.3856l4.5526-2.6524-1.0293 0.47506-2.3753 0.39587-1.148-0.0792-2.2169-0.75217-0.6334-0.43546-0.6334-1.4252 0.15835-0.67299 1.3064-1.2668z"/>
    <path id="path56" d="m233.61 551.42-1.1085 0.71258-1.2668 1.3064-0.43546 1.3856v0.55423l4.9089-2.7316 0.98969-0.47505 2.4148-0.39588 1.1084 0.0792 2.2169 0.75216 0.6334 0.43547 0.71258 1.3856-0.15835 0.67299-1.346 1.3064-4.5526 2.6524 2.6128-0.43546-0.9501 1.346-0.11876 1.4252 0.75216 1.346 1.6231 1.2272 1.6231 0.75217 2.2565 0.59381 2.5732 0.19794 4.7109-3.0482-0.43547 0.23753-2.3357 0.71257-0.51464 0.0792-2.5732-0.11876-0.47505-0.0792-2.1773-0.83134-1.2272-0.98969-0.55423-1.4252 0.35629-1.148 1.4252-1.2668 4.4734-2.8899-2.5732 0.51464 0.51464-0.87093 0.11877-1.4252-0.27712-0.6334-1.4647-1.2668-0.75216-0.35628-2.2169-0.71258-2.5732-0.19794-1.4647 0.11876-2.3357 0.51464z"/>
    <path id="path57" d="m260.88 553.24-2.4544 1.7023 1.3856 0.55423 2.3753 0.55423 2.5336 0.11876 4.1171-2.9691-1.1876 0.55422-2.4148 0.39588-1.9002-0.15835z"/>
    <path id="path58" d="m263.89 544.29-4.9089 3.2858 2.0586-0.83134 2.4544-0.3167h0.0792l2.3753 0.35629 2.2169 0.9501 0.35629 0.19794 1.4647 1.3064 0.59381 1.346-0.35629 1.3856-1.3856 1.2272-4.1171 2.9691 1.7419-0.15835 2.2961-0.59382 2.1773-0.98969 0.83134-0.51464 1.3856-1.2668 0.67299-1.3856 0.0396-1.4647-0.43547-1.2272-1.1084-1.346-1.7023-1.1876-1.9398-0.91051-2.2961-0.6334z"/>
    <path id="path59" d="m257.4 545.87-0.47505 0.27712-1.346 1.2668-0.79175 1.4647 9.1052-4.5922-2.0586 0.11876-2.3357 0.55423z"/>
    <path id="path60" d="m256.17 538.79-10.372 6.0173 8.7093 7.3237 2.692-1.1876-0.0792-0.23752 0.19794-1.5439 0.19794-0.3167 1.4647-1.2668 4.9089-3.2858-9.1052 4.5922-4.4734-3.8796 8.3134-4.7901z"/>
    <path id="path61" d="m276.8 543.85-2.2169 1.7023 1.4252 0.55423 2.3357 0.55423 2.5732 0.11876 1.7023-0.11876 2.3357-0.59382 2.1377-0.9501 1.7023-1.2272 1.0293-1.346 0.39588-1.4252-5.2256 2.7711-1.148 0.51464-2.4148 0.39588-2.0586-0.15835z"/>
    <path id="path62" d="m280.99 535.98-4.1963 2.9295 1.6231-0.71258 2.4148-0.3167 1.9002 0.19794 2.1773 0.83134 1.3064 1.0689 0.55422 1.4252-0.39587 1.2272-1.3856 1.2668 5.2256-2.7711-0.19794-1.2668-0.87093-1.3856-1.5835-1.1876-2.019-0.91052-2.3753-0.43546z"/>
    <path id="path63" d="m273.31 538.67 1.9398 1.4252 1.5439-1.1876 4.1963-2.9295-2.4544 0.59381 0.39587-0.79175-5.186 2.6524z"/>
    <path id="path64" d="m262.98 536.81 0.55423 1.3856 1.3064 1.4252 3.0087-1.2272-1.0293-0.98969-0.51464-1.3856 0.19794-0.67298 1.346-1.3064z"/>
    <path id="path65" d="m265.71 532.89-0.83134 0.47505-1.3064 1.3064-0.59381 1.3856v0.75217l4.8693-2.7711 0.98969-0.43546 2.3753-0.43546 1.0689 0.0792 2.2169 0.71258 1.1084 0.87093 0.23753 1.4252-0.55423 0.9501-1.5439 1.2272 5.186-2.6524v-1.4647l-0.3167-0.59382-1.4252-1.2272-1.0293-0.51464-2.4148-0.63341-1.5835-0.11876-2.6128 0.23753-1.7418 0.47505z"/>
    <path id="path66" d="m297.3 526.71-4.4734 2.8503 1.8606-0.75216 2.4544-0.3167 2.0982 0.23752 2.1773 0.83134 1.2668 0.98969 0.51464 1.4252-0.35629 1.1876-1.4647 1.2272-4.7505 3.0482 2.3753-0.19794 2.2961-0.59381 2.1377-1.0293 1.7023-1.1876 1.0689-1.3064 0.39588-1.4252-0.15835-1.1084-0.87093-1.346-1.5835-1.2272-1.9398-0.87092-2.3753-0.47506z"/>
    <path id="path67" d="m279.37 527.31 0.6334 1.4252 1.5043 1.1876 1.0293 0.51464 2.3357 0.55423 1.3856 0.0396 4.5526-2.692-1.0293 0.47506-2.3752 0.39587-1.148-0.0792-2.2169-0.75217-0.59382-0.43546-0.67299-1.4252 0.15835-0.67299 1.346-1.2668z"/>
    <path id="path68" d="m282.14 523.39-1.1084 0.71258-1.2272 1.3064-0.47505 1.3856 0.0396 0.51464 4.9089-2.7316 0.95011-0.43546 2.4148-0.43547 1.1084 0.0792 2.2169 0.75216 0.6334 0.43547 0.71258 1.4252-0.15835 0.6334-1.346 1.3064-4.5526 2.692 2.6524-0.43546-0.95011 1.3064-0.11876 1.4647 0.71258 1.3064 1.6627 1.2272 1.5835 0.75217 2.2961 0.6334 2.5336 0.15835 4.7505-3.0482-0.47505 0.27712-2.2961 0.67299-0.55422 0.0792-2.5732-0.0792-0.47505-0.11877-2.1773-0.83134-1.2272-0.98969-0.55422-1.4252 0.35629-1.148 1.4252-1.2668 4.4734-2.8503-2.5732 0.47505 0.51464-0.83134 0.15835-1.4647-0.3167-0.59381-1.4648-1.2668-0.71257-0.39587-2.2565-0.67299-2.5732-0.23753-1.4648 0.11876-2.2961 0.55423z"/>
    <path id="path69" d="m302.37 511.79-2.0982 1.1876 3.9984 13.301 2.3357 1.346 9.026-5.2256 4.988 2.8899 2.5732-1.4647-4.988-2.8899 2.8107-1.6231-2.3357-1.346-2.8107 1.6231-9.1052 5.2256-2.8503-9.1843z"/>
    <path id="path70" d="m302.37 511.79 1.5439 3.84 9.3823 5.4235-6.532 3.7608 9.1052-5.2256z"/>
    <path id="path71" d="m329.65 507.99-4.4338 2.8899 1.821-0.75216 2.4544-0.35629 2.0981 0.23752 2.1773 0.83134 1.2668 1.0293 0.55423 1.3856-0.39588 1.1876-1.4647 1.2668-4.7109 3.0482 2.3357-0.19794 2.2961-0.6334 2.1773-0.98969 1.6627-1.1876 1.0689-1.346 0.39588-1.3856-0.15835-1.1084-0.83134-1.3856-1.5835-1.1876-1.9794-0.87092-2.3753-0.47506z"/>
    <path id="path72" d="m311.71 508.58 0.67299 1.4252 1.5043 1.2272 0.98969 0.47505 2.3357 0.55423 1.4252 0.0396 4.5526-2.692-1.0293 0.47505-2.3752 0.43546-1.148-0.0792-2.2169-0.79176-0.6334-0.43546-0.67299-1.3856 0.15835-0.67299 1.346-1.3064z"/>
    <path id="path73" d="m314.48 504.66-1.0689 0.71258-1.2668 1.3064-0.43546 1.3856v0.51464l4.9089-2.7316 0.9501-0.43546 2.4148-0.39588 1.148 0.0792 2.2169 0.71257 0.6334 0.47506 0.71258 1.3856-0.15835 0.67299-1.346 1.2668-4.5526 2.692 2.6128-0.43547-0.9501 1.346-0.11877 1.4252 0.75217 1.3064 1.6231 1.2668 1.5835 0.75217 2.2961 0.59381 2.5732 0.19794 4.7109-3.0482-0.47505 0.23753-2.2961 0.71257-0.55423 0.0792-2.5336-0.11876-0.47505-0.0792-2.1773-0.83134-1.2272-0.98969-0.55422-1.4252 0.3167-1.148 1.4647-1.2668 4.4338-2.8899-2.5336 0.51464 0.51464-0.87093 0.11876-1.4252-0.27711-0.6334-1.4648-1.2668-0.75216-0.35628-2.2169-0.71258-2.5732-0.19794-1.4648 0.11876-2.3357 0.51464z"/>
    <path id="path74" d="m336.85 493.82-4.0775 2.7316 2.019-0.71258 2.6524-0.0396 1.3064 0.23753 1.9398 0.6334 2.2169 0.98969 2.5732 1.3856 1.9002 1.1876 1.9002 1.346 1.2272 1.148 0.59381 0.9501-0.0396 1.5043-1.2272 1.2272 4.7109-2.0586-0.3167-1.4647-0.9501-1.5043-0.19794-0.19794-1.2272-1.148-1.6627-1.1876-2.0981-1.3064-1.4647-0.83134-2.0586-0.98969-1.8606-0.75217-2.019-0.59381-2.3752-0.43546z"/>
    <path id="path75" d="m330.68 495.32-0.39587 0.23753-1.5043 1.2668-0.6334 1.3856-0.0396 0.35629 0.27711 1.4252 0.9501 1.5043 0.23753 0.23753 1.2272 1.148 1.6627 1.2272 2.0586 1.2668 1.9398 1.0689 2.2961 1.0689 2.2169 0.79175 2.0981 0.51464 1.9794 0.27712 2.4544-0.0396 2.2961-0.51464 2.1377-0.9501 0.43546-0.23753 1.4648-1.2668 0.67299-1.3856 0.0396-0.35629-4.7109 2.0586-2.019 0.67299-2.6524 0.0396-1.2668-0.23753-1.9398-0.6334-2.2565-0.98969-2.5336-1.3856-2.1377-1.3064-1.821-1.346-1.1876-1.148-0.59381-1.0293 0.0792-1.2272 1.2668-1.2668 4.0775-2.7316-2.5732 0.19794-1.4647 0.35629z"/>
    <path id="path76" d="m353.04 484.47-4.1171 2.7316 2.0586-0.71258 2.6524-0.0396 1.3064 0.23753 1.9002 0.6334 2.2565 0.98969 2.5732 1.3856 1.9002 1.1876 1.8606 1.3064 1.2668 1.148 0.59381 0.98969-0.0792 1.5043-1.1876 1.1876 4.6713-2.0586-0.27712-1.4252-0.98969-1.5043-0.19794-0.19794-1.2272-1.148-1.6231-1.2272-2.0982-1.2668-1.4647-0.83134-2.0982-1.0293-1.821-0.71258-2.019-0.59381-2.3752-0.47505z"/>
    <path id="path77" d="m346.87 485.98-0.39587 0.19794-1.5043 1.3064-0.67299 1.346-0.0396 0.39588 0.27711 1.4252 0.98969 1.5043 0.19794 0.23753 1.2272 1.148 1.6627 1.2272 2.0981 1.2668 1.9398 1.0293 2.2961 1.0689 2.2169 0.83134 2.0981 0.51464 1.9794 0.27712 2.4148-0.0792 2.3357-0.47505 2.1377-0.9501 0.39588-0.23753 1.5043-1.2668 0.67299-1.3856v-0.39588l-4.6713 2.0586-2.019 0.71258-2.6524 0.0396-1.3064-0.23753-1.9002-0.6334-2.2565-0.98969-2.5732-1.3856-2.1377-1.346-1.7814-1.3064-1.1876-1.148-0.59381-1.0293 0.0396-1.2668 1.2668-1.2272 4.1171-2.7316-2.5732 0.15835-1.4647 0.39588z"/>
    <path id="path78" d="m407.95 491.72 20.586 5.0672-22.327-0.9501z"/>
   </g>
   <path id="path79" d="m407.08 493.78-42.319-5.8986-0.23752 0.11876" fill="none" stroke="#f00" stroke-linecap="round" stroke-linejoin="round" stroke-width=".71365"/>
   <path id="path80" d="m564.88 663.33 136.3-412.5" fill="none" stroke="#00f" stroke-linecap="round" stroke-linejoin="round" stroke-width=".71365"/>
   <g fill="#00f" fill-rule="evenodd">
    <path id="path81" d="m293.82 408.74-0.75216 1.5043 2.4544 1.4252 0.55423-0.79175 0.83134-1.5439 0.35629-0.98969 0.27711-1.4252z"/>
    <path id="path82" d="m295.48 402.76-1.6231 0.9501 0.43546 1.2668 0.0792 1.6627-0.11876 0.59382-0.43547 1.5043 3.7212-1.821 16.31 9.4218 2.5732-1.4647z"/>
    <path id="path83" d="m319.67 406.21-2.2169 1.7023 1.4252 0.55422 2.3753 0.55423 2.5336 0.11876 1.7023-0.15835 2.3357-0.55422 2.1377-0.95011v-0.0396l1.7023-1.1876 1.0293-1.346 0.39588-1.4647-5.2256 2.8107-1.1084 0.47505-2.4544 0.43546-2.019-0.19794z"/>
    <path id="path84" d="m323.91 398.33-4.2359 2.9295 1.6231-0.71258 2.4544-0.3167 1.8606 0.15835 2.1773 0.83134 1.346 1.1084 0.51464 1.4252-0.35629 1.2272-1.4252 1.2668 5.2256-2.8107-0.19794-1.2272-0.87093-1.3856-1.5835-1.1876-2.019-0.91051-2.3357-0.43547z"/>
    <path id="path85" d="m316.19 400.98 1.9794 1.4648 1.5043-1.1876 4.2359-2.9295-2.4544 0.59382 0.35629-0.79176-5.186 2.6524z"/>
    <path id="path86" d="m305.85 399.12 0.55423 1.4252 1.3064 1.4252 3.0087-1.2272-1.0293-0.98969-0.51464-1.3856 0.19794-0.67299 1.346-1.3064z"/>
    <path id="path87" d="m308.59 395.2-0.79176 0.51464-1.346 1.3064-0.59382 1.3856v0.71257l4.8693-2.7315 1.0293-0.47505 2.3753-0.39588 1.0689 0.0396 2.2169 0.75216 1.0689 0.87093 0.23753 1.3856-0.55423 0.98969-1.5439 1.2272 5.186-2.6524v-1.4647l-0.27712-0.59381-1.4647-1.2668-1.0293-0.47505-2.3753-0.6334-1.5835-0.11876-2.6524 0.23752-1.7419 0.47505z"/>
    <path id="path88" d="m340.57 400.9-2.9295-1.7023 2.9295-1.6627 2.9295 1.6627z"/>
    <path id="path89" d="m339.27 379.53-4.0775 2.7711 2.0586-0.71258 2.6128-0.0396 1.3064 0.23752 1.9398 0.6334 2.2169 0.9897 2.5732 1.3856 1.9002 1.148 1.9002 1.346 1.2272 1.148 0.59382 0.9897-0.0396 1.5043-1.2272 1.1876 4.7109-2.0586-0.27711-1.4252-0.98969-1.5043-0.19794-0.19794-1.2272-1.148-1.6627-1.2272-2.0586-1.2668-1.4647-0.83134-2.0981-1.0293-1.8606-0.75216-1.9794-0.55423-2.4148-0.47505z"/>
    <path id="path90" d="m333.09 381.03-0.35629 0.23752-1.5043 1.2668-0.67299 1.3856-0.0396 0.35629 0.27712 1.4648 0.9501 1.5043 0.23753 0.23752 1.2272 1.148 1.6627 1.1876 2.0586 1.3064 1.9398 1.0293 2.2961 1.0689 2.2169 0.79175 2.0982 0.55423 1.9794 0.23752 2.4544-0.0396 2.3357-0.47506 2.0982-0.9501 0.43546-0.23753 1.4647-1.3064 0.67299-1.3856 0.0396-0.35629-4.7109 2.0586-1.9794 0.67299-2.6524 0.0396-1.3064-0.19794-1.9398-0.6334-2.2565-1.0293-2.5336-1.346-2.1377-1.346-1.7814-1.3064-1.1876-1.1876-0.59382-0.98969 0.0396-1.2668 1.2668-1.2272 4.0775-2.7711-2.5732 0.19794-1.4647 0.35628z"/>
    <path id="path91" d="m364.44 375.01-4.4338 2.8899 1.821-0.75217 2.4544-0.3167 2.0982 0.19794 2.1773 0.83134 1.2668 1.0293 0.51464 1.4252-0.35629 1.148-1.4647 1.2668-4.7505 3.0482 2.3753-0.19793 2.2961-0.63341 2.1377-0.98969 1.7023-1.1876 1.0689-1.346 0.39587-1.3856-0.15835-1.1085-0.87092-1.3856-1.5835-1.1876-1.9398-0.87093-2.3753-0.47505z"/>
    <path id="path92" d="m346.51 375.61 0.6334 1.4252 1.5439 1.2272 0.98969 0.47506 2.3357 0.55422 1.4252 0.0396 4.5526-2.692-1.0293 0.51464-2.4148 0.39588-1.148-0.0792-2.2169-0.79175-0.59382-0.43547-0.67299-1.3856 0.15835-0.67299 1.346-1.3064z"/>
    <path id="path93" d="m349.28 371.69-1.0689 0.71257-1.2668 1.3064-0.47505 1.3856 0.0396 0.51464 4.9089-2.7315 0.9501-0.43547 2.4148-0.39587 1.148 0.0792 2.2169 0.71258 0.6334 0.47505 0.67299 1.3856-0.15835 0.67299-1.3064 1.2668-4.5526 2.692 2.6128-0.43546-0.9501 1.346-0.11876 1.4252 0.75216 1.3064 1.6231 1.2668 1.5835 0.75216 2.2961 0.59382 2.5336 0.19793 4.7505-3.0482-0.47505 0.23752-2.2961 0.71258-0.55422 0.0792-2.5732-0.11876-0.47505-0.0792-2.1377-0.83134-1.2668-0.98969-0.55422-1.4252 0.35628-1.148 1.4648-1.2668 4.4338-2.8899-2.5732 0.51464 0.55422-0.87093 0.11877-1.4252-0.31671-0.6334-1.4647-1.2668-0.71258-0.35629-2.2169-0.71258-2.5732-0.19794-1.5043 0.11877-2.2961 0.51464z"/>
    <path id="path94" d="m377.39 373.79-2.2565 1.5439 0.87093 0.35629 2.3753 0.6334 2.4544 0.15835 0.83134-0.0792 2.3357-0.47506 2.1773-0.98969 0.59381-0.35629 1.4252-1.2668 0.75216-1.3856 0.11877-0.59381-4.9485 2.3753-0.67299 0.35629-2.3752 0.51463-1.1876-0.0792z"/>
    <path id="path95" d="m378.73 366.62-0.27712 1.148-1.3856 1.2668-4.6318 3.1274 1.7814-0.0792 2.3752-0.47505 2.0982-0.91051 1.0293-0.71258 1.0689-1.3856 0.27712-0.87093-0.15836-1.4647z"/>
    <path id="path96" d="m362.46 366.34 0.43546 1.4252 1.0689 1.3064 1.7419 1.2668 2.019 0.9501 2.2961 0.6334 2.4148 0.23753 4.6318-3.1274-1.7418 0.71257-2.494 0.27712-2.2169-0.27712-2.2169-0.87092-0.23752-0.15835-1.5043-1.3064-0.59382-1.3856 0.27712-1.2668 1.3064-1.2272z"/>
    <path id="path97" d="m365.24 362.46-1.4252 1.0293-1.0293 1.346-0.3167 1.4647v0.0396l5.186-2.8107 1.5835-0.63341 2.5336-0.27711h0.11877l2.3357 0.39588 2.2169 0.9501 0.0396 0.0396 1.6231 1.2668 0.63341 1.346 2.1773-0.35629 0.51464 0.27712 1.2272 0.79175 1.5439 1.2272 0.59381 0.63341 0.87093 1.3064 0.0792 0.19794-0.0792 1.5043-0.11876 0.23752-1.4252 1.2668 4.9485-2.3753-0.23753-1.4647-0.91051-1.5043-0.43547-0.51464-1.2668-1.148-1.6627-1.2272-2.0982-1.3064-0.47505-0.27712-2.2961-1.148-2.0586-0.87092-1.9398-0.59382-0.51464-0.11876-2.6128-0.27712-2.5336 0.0792-0.3167 0.0396-2.4148 0.55422z"/>
    <path id="path98" d="m393.58 364.44-2.2565 1.5439 0.83134 0.35629 2.4148 0.6334 2.4148 0.15835 0.87093-0.0792 2.3357-0.47505 2.1773-0.98969 0.59381-0.35629 1.4252-1.2668 0.75216-1.3856 0.11877-0.6334-4.9485 2.4148-0.71257 0.35628-2.3357 0.47506-1.1876-0.0396z"/>
    <path id="path99" d="m394.93 357.28-0.27712 1.148-1.4252 1.2668-4.5922 3.1274 1.7814-0.0792 2.3752-0.47505 2.0982-0.91051 1.0293-0.75217 1.0689-1.346 0.27712-0.87093-0.15835-1.5043z"/>
    <path id="path100" d="m378.66 357 0.39588 1.4252 1.0689 1.3064 1.7814 1.2272 2.019 0.98969 2.2565 0.6334 2.4544 0.23753 4.5922-3.1274-1.7023 0.71257-2.494 0.27712-2.2565-0.27712-2.1773-0.91051-0.27711-0.15835-1.4647-1.2668-0.59382-1.3856 0.27712-1.3064 1.3064-1.1876z"/>
    <path id="path101" d="m381.39 353.12-1.3856 1.0293-1.0293 1.3064-0.3167 1.5043v0.0396l5.186-2.8107 1.5439-0.63341 2.5732-0.27711h0.11877l2.3357 0.39588 2.1773 0.9501 0.0396 0.0396 1.6627 1.2668 0.63341 1.346 2.1773-0.39588 0.51463 0.31671 1.2272 0.75216 1.5043 1.2668 0.59382 0.59382 0.91051 1.346 0.0396 0.19794-0.0396 1.5043-0.11876 0.23752-1.4252 1.2668 4.9485-2.4148-0.23753-1.4252-0.91051-1.5439-0.43547-0.47505-1.2668-1.148-1.6627-1.2272-2.1377-1.3064-0.43547-0.27712-2.2961-1.1876-2.0982-0.87093-1.9002-0.55423-0.51464-0.11876-2.6128-0.3167-2.5336 0.11876-0.3167 0.0396-2.4148 0.55422z"/>
    <path id="path102" d="m404.35 341.8-4.3546 3.0087 1.5043-0.6334 2.3753-0.39588 1.4647 0.11876 2.2169 0.75217 1.0689 0.91051 0.79175 1.5439 0.0792 0.39588 0.11877 1.2668-0.11877 1.6231-0.23752 1.9002-0.11877 0.83134-0.15835 1.6231 0.0792 1.3064 0.27711 1.1876 0.79176 1.3856 1.5043 1.2272 13.737-7.9571-2.4544-1.4252-10.214 5.8986-0.3167-1.4252v-0.0792l0.0792-1.1876 0.27711-1.9398 0.19794-1.6627 0.11876-1.5439-0.0396-1.2272-0.19794-1.0293-0.6334-1.3856-0.43546-0.51464-1.5439-1.2272-1.0293-0.51464-2.2565-0.67299z"/>
    <path id="path103" d="m397.93 343.58-1.4252 0.9501-1.2272 1.3064-0.51463 1.346 0.0792 1.0293 0.79175 1.3856 1.5835 1.346 2.8899-1.346-1.3856-1.0689-0.55423-1.346 0.35629-1.1085 1.4647-1.2668 4.3546-3.0087-1.9398 0.15835-2.2565 0.59381z"/>
    <path id="path104" d="m420.18 332.77-4.0775 2.7315 2.019-0.67299 2.6524-0.0792 1.3064 0.23753 1.9398 0.6334 2.2169 1.0293 2.5732 1.3856 1.9002 1.148 1.9002 1.346 1.2272 1.148 0.59382 0.9897-0.0792 1.5043-1.1876 1.1876 4.7109-2.0586-0.3167-1.4252-0.98969-1.5043-0.15835-0.23752-1.2272-1.1085-1.6627-1.2272-2.0981-1.3064-1.4647-0.79176-2.0586-1.0293-1.8606-0.75216-2.019-0.59381-2.3752-0.43547z"/>
    <path id="path105" d="m414.01 334.28-0.39587 0.23752-1.5043 1.2668-0.63341 1.3856-0.0396 0.35628 0.27711 1.4648 0.9501 1.5043 0.23753 0.23752 1.2272 1.1085 1.6627 1.2272 2.0586 1.3064 1.9398 1.0293 2.2961 1.0689 2.2169 0.79175 2.0981 0.55423 1.9794 0.23752 2.4544-0.0396 2.2961-0.47506 2.1377-0.9501 0.43546-0.27711 1.4648-1.2668 0.67299-1.3856 0.0396-0.35629-4.7109 2.0586-2.019 0.67299-2.6524 0.0396-1.2668-0.23752-1.9398-0.59382-2.2565-1.0293-2.5336-1.3856-2.1377-1.3064-1.821-1.3064-1.1876-1.1876-0.59381-1.0293 0.0792-1.2272 1.2668-1.2668 4.0775-2.7315-2.5732 0.19794-1.4648 0.35629z"/>
    <path id="path106" d="m434.24 322.68-2.0981 1.2272 3.9984 13.301 2.3357 1.346 9.026-5.2256 4.988 2.8899 2.5732-1.5043-4.988-2.8503 2.8107-1.6627-2.3357-1.346-2.8107 1.6231-9.0656 5.2652-2.8899-9.1843z"/>
    <path id="path107" d="m434.24 322.68 1.5439 3.8796 9.3823 5.4235-6.4924 3.7608 9.0656-5.2652z"/>
    <path id="path108" d="m447.54 319.87-0.79175 1.5439 2.494 1.4252 0.55423-0.79175 0.83134-1.5439 0.35629-0.98969 0.27711-1.4252z"/>
    <path id="path109" d="m449.2 313.93-1.6231 0.9501 0.43547 1.2668 0.0396 1.6627-0.0792 0.59382-0.43547 1.4647 3.7212-1.7814 16.31 9.4218 2.5336-1.4647z"/>
    <path id="path110" d="m648.37 343.15 20.665 4.988-22.367-0.83134z"/>
   </g>
   <path id="path111" d="m647.5 345.2-187.17-25.455-0.27711 0.15835" fill="none" stroke="#00f" stroke-linecap="round" stroke-linejoin="round" stroke-width=".71365"/>
  </g>
 </g>
 <metadata id="metadata1">
  <rdf:RDF>
   <cc:Work rdf:about="">
    <dc:rights>
     <cc:Agent>
      <dc:title>Coordenada 12.6 N, 12.6 E © 2025 by Miguel Hernando Ibáñez Sánchez is licensed under Creative Commons Attribution-NoDerivatives 4.0 International</dc:title>
     </cc:Agent>
    </dc:rights>
    <dc:title>Coordenada 12.6 N, 12.6 E</dc:title>
    <dc:date>03-02-2025</dc:date>
    <dc:creator>
     <cc:Agent>
      <dc:title>Miguel Hernando Ibáñez Sánchez</dc:title>
     </cc:Agent>
    </dc:creator>
    <dc:publisher>
     <cc:Agent>
      <dc:title>ISAN atelier academiae</dc:title>
     </cc:Agent>
    </dc:publisher>
    <dc:source>Sáchica, Boyacá - Colombia</dc:source>
    <dc:relation>Lo Oculto del Sendero de la Serpiente</dc:relation>
    <dc:language>Español</dc:language>
    <dc:subject>
     <rdf:Bag>
      <rdf:li>arquitectura sagrada</rdf:li>
      <rdf:li>geometria sagrada</rdf:li>
      <rdf:li>sacred architecture</rdf:li>
      <rdf:li>sacred geometry</rdf:li>
     </rdf:Bag>
    </dc:subject>
    <dc:coverage>Global</dc:coverage>
    <dc:description>Estudios geométricos</dc:description>
    <cc:license rdf:resource="http://creativecommons.org/licenses/by-nd/4.0/"/>
   </cc:Work>
   <cc:License rdf:about="http://creativecommons.org/licenses/by-nd/4.0/">
    <cc:permits rdf:resource="http://creativecommons.org/ns#Reproduction"/>
    <cc:permits rdf:resource="http://creativecommons.org/ns#Distribution"/>
    <cc:requires rdf:resource="http://creativecommons.org/ns#Notice"/>
    <cc:requires rdf:resource="http://creativecommons.org/ns#Attribution"/>
   </cc:License>
  </rdf:RDF>
 </metadata>
</svg>
