<?xml version="1.0" encoding="UTF-8"?>
<!-- Created with Inkscape (http://www.inkscape.org/) -->
<svg id="svg1" width="210mm" height="180mm" inkscape:version="1.4 (86a8ad7, 2024-10-11)" sodipodi:docname="4.svg" version="1.1" viewBox="0 0 210 180" xmlns="http://www.w3.org/2000/svg" xmlns:cc="http://creativecommons.org/ns#" xmlns:dc="http://purl.org/dc/elements/1.1/" xmlns:inkscape="http://www.inkscape.org/namespaces/inkscape" xmlns:rdf="http://www.w3.org/1999/02/22-rdf-syntax-ns#" xmlns:sodipodi="http://sodipodi.sourceforge.net/DTD/sodipodi-0.dtd">
 <title id="title1">399 1/7</title>
 <sodipodi:namedview id="namedview1" bordercolor="#000000" borderopacity="0.25" inkscape:current-layer="layer1" inkscape:cx="210.99759" inkscape:cy="589.26271" inkscape:deskcolor="#d1d1d1" inkscape:document-units="mm" inkscape:pagecheckerboard="0" inkscape:pageopacity="0.0" inkscape:showpageshadow="2" inkscape:window-height="745" inkscape:window-maximized="1" inkscape:window-width="1366" inkscape:window-x="-8" inkscape:window-y="-8" inkscape:zoom="0.45735119" pagecolor="#ffffff"/>
 <defs id="defs1">
  <pattern id="WMFhbasepattern" width="6" height="6" patternUnits="userSpaceOnUse"/>
  <pattern id="WMFhbasepattern-8" width="6" height="6" patternUnits="userSpaceOnUse"/>
 </defs>
 <g id="layer1" inkscape:groupmode="layer" inkscape:label="Capa 1">
  <g id="g4" transform="matrix(2.1034 0 0 2.1034 327.93 -92.874)" stroke-width=".095085">
   <g id="g3" transform="matrix(.26458 0 0 .26458 -259.35 -34.005)" stroke-width=".35937">
    <g fill="none" stroke-linecap="round" stroke-linejoin="round" stroke-width=".35937">
     <g stroke="#f00">
      <path id="path1" d="m520.11 322.87-4.5754 3.7098-4.4929 3.8334-4.4517 3.8746-4.3693 3.9571-4.328 3.9983-4.2456 4.0807-4.2044 4.1632-4.1219 4.2044-4.0807 4.2456-3.9983 4.3693-3.9158 4.3692-3.8746 4.4517-3.7922 4.5341-3.7098 4.5754-3.6273 4.6166-3.5861 4.699-3.5036 4.7402-3.4212 4.8227-3.38 4.8227-3.2563 4.9051-3.2151 4.9876-3.1327 4.9876-3.0502 5.0288-2.9678 5.1112-2.8854 5.1524-2.8029 5.1936"/>
      <path id="path2" d="m758.48 619.03-335.36-178.77"/>
      <path id="path3" d="m758.48 619.03-238.41-296.2"/>
     </g>
     <g stroke="#00f">
      <path id="path4" d="m520.07 322.83-25.144-20.816"/>
      <path id="path5" d="m423.08 440.26-25.144-20.816"/>
      <path id="path6" d="m491.29 305.15-4.2044 3.6273-4.1219 3.6685-4.1219 3.751-4.0395 3.7922-3.9571 3.8334-3.9571 3.8746-3.8746 3.9571-3.8334 3.9983-3.7922 4.0807-3.7097 4.0807-3.6685 4.1632-3.6273 4.2044"/>
      <path id="path7" d="m437.67 360.34-3.4624 4.328-3.38 4.4105-3.3388 4.4517-3.2563 4.4517-3.2151 4.5341-3.1327 4.5754-3.0914 4.5754-3.0502 4.6578-2.9266 4.699-2.9266 4.7402-2.8029 4.7402-2.8029 4.8227"/>
     </g>
    </g>
    <g>
     <path id="path8" d="m490.76 304.49 1.0305 1.2366 3.1327-3.7098z" fill="#00f" fill-rule="evenodd"/>
     <path id="path9" d="m400.98 415.7-1.4015-0.78316-1.6076 4.5341z" fill="#00f" fill-rule="evenodd"/>
     <text id="text10" transform="translate(424.72 360.18)" fill="#000000" font-family="Arial" font-size="11.125px" font-weight="400" letter-spacing="0px" stroke-width=".35937" word-spacing="0px" style="line-height:125%" xml:space="preserve"><tspan id="tspan10" x="0" y="0" sodipodi:role="line"><tspan id="tspan9" dx="0" dy="0" fill="#ff0000" font-family="Arial" font-size="11.125px" font-weight="400" stroke-width=".35937">961.51</tspan></tspan></text>
    </g>
    <g fill="none" stroke="#f00" stroke-linecap="round" stroke-linejoin="round" stroke-width=".35937">
     <path id="path10" d="m423.53 359.47-0.0412-0.78317-0.16488-0.78316-0.20609-0.74195-0.32976-0.70073-0.41219-0.70073-0.45342-0.6183-0.57707-0.53585-0.61829-0.49463-0.65951-0.41219-0.70073-0.32976-0.74195-0.2061-0.78317-0.16487-0.78317-0.0412-0.78316 0.0412-0.78317 0.16487-0.74195 0.2061-0.70073 0.32976-0.65951 0.41219-0.61829 0.49463-0.57708 0.53585-0.45341 0.6183-0.41219 0.70073-0.32976 0.70073-0.2061 0.74195-0.16487 0.78316-0.0412 0.78317"/>
     <path id="path11" d="m674.18 521.92-3.8746 3.5449-1.8961 1.8136-1.8549 1.8549-1.8137 1.8961-1.7724 1.9373"/>
     <path id="path12" d="m656.21 541.17-1.5663 2.1022-1.5663 2.1846-1.4839 2.1846-1.4427 2.2258-1.4015 2.2671-1.3602 2.2671"/>
    </g>
    <g>
     <path id="path13" d="m673.69 521.3 0.98926 1.2366 3.1739-3.7098z" fill="#f00" fill-rule="evenodd"/>
     <path id="path14" d="m648.05 554.77-1.3602-0.78317-1.6488 4.5754z" fill="#f00" fill-rule="evenodd"/>
     <text id="text15" transform="translate(646.57 540.96)" fill="#000000" font-family="Arial" font-size="11.125px" font-weight="400" letter-spacing="0px" stroke-width=".35937" word-spacing="0px" style="line-height:125%" xml:space="preserve"><tspan id="tspan15" x="0" y="0" sodipodi:role="line"><tspan id="tspan14" dx="0" dy="0" fill="#ff0000" font-family="Arial" font-size="11.125px" font-weight="400" stroke-width=".35937">23.1°</tspan></tspan></text>
    </g>
    <g fill="none" stroke="#0ff" stroke-linecap="round" stroke-linejoin="round" stroke-width=".35937">
     <path id="path15" d="m423.12 440.26 96.948-117.43"/>
     <path id="path16" d="m423.12 440.31 38.746 32.069"/>
     <path id="path17" d="m520.11 322.83 38.746 32.11"/>
     <path id="path18" d="m464.91 468.66 54.616-66.157"/>
     <path id="path19" d="m555.8 358.61-29.554 35.737"/>
    </g>
    <g>
     <path id="path20" d="m464.3 468.17 1.1954 0.98927-3.6273 3.1739z" fill="#0ff" fill-rule="evenodd"/>
     <path id="path21" d="m555.18 358.07 1.1954 1.0305 2.432-4.2044z" fill="#0ff" fill-rule="evenodd"/>
     <text id="text22" transform="translate(506.63 402.38)" fill="#000000" font-family="Arial" font-size="11.125px" font-weight="400" letter-spacing="0px" stroke-width=".35937" word-spacing="0px" style="line-height:125%" xml:space="preserve"><tspan id="tspan22" x="0" y="0" sodipodi:role="line"><tspan id="tspan21" dx="0" dy="0" fill="#ff0000" font-family="Arial" font-size="11.125px" font-weight="400" stroke-width=".35937">955.01</tspan></tspan></text>
    </g>
   </g>
  </g>
 </g>
 <metadata id="metadata1">
  <rdf:RDF>
   <cc:Work rdf:about="">
    <dc:title>399 1/7</dc:title>
    <dc:date>09 de marzo del 2025</dc:date>
    <dc:creator>
     <cc:Agent>
      <dc:title>Miguel Hernando Ibáñez Sánchez</dc:title>
     </cc:Agent>
    </dc:creator>
    <dc:rights>
     <cc:Agent>
      <dc:title>399 1/7 © 2025 by Miguel Hernando Ibáñez Sánchez is licensed under Creative Commons Attribution-NoDerivatives 4.0 International</dc:title>
     </cc:Agent>
    </dc:rights>
    <dc:publisher>
     <cc:Agent>
      <dc:title>ISAN atelier academiae</dc:title>
     </cc:Agent>
    </dc:publisher>
    <dc:source>Sáhica - Boyacá, Colombia</dc:source>
    <dc:relation>Lo Oculto del Sendero de la Serpiente</dc:relation>
    <dc:language>Español - Catstellano</dc:language>
    <dc:subject>
     <rdf:Bag>
      <rdf:li>Geometria sagrada</rdf:li>
      <rdf:li>sacred geometry</rdf:li>
      <rdf:li>arquitectura sagrada</rdf:li>
      <rdf:li>sacred architecture</rdf:li>
     </rdf:Bag>
    </dc:subject>
    <dc:coverage>Global</dc:coverage>
    <dc:description>Estudios geométricos</dc:description>
    <dc:identifier>10.5281/zenodo.14997039</dc:identifier>
    <cc:license rdf:resource="http://creativecommons.org/licenses/by-nd/4.0/"/>
   </cc:Work>
   <cc:License rdf:about="http://creativecommons.org/licenses/by-nd/4.0/">
    <cc:permits rdf:resource="http://creativecommons.org/ns#Reproduction"/>
    <cc:permits rdf:resource="http://creativecommons.org/ns#Distribution"/>
    <cc:requires rdf:resource="http://creativecommons.org/ns#Notice"/>
    <cc:requires rdf:resource="http://creativecommons.org/ns#Attribution"/>
   </cc:License>
  </rdf:RDF>
 </metadata>
</svg>
