<?xml version="1.0" encoding="UTF-8"?>
<!-- Created with Inkscape (http://www.inkscape.org/) -->
<svg id="svg1" width="210mm" height="110mm" inkscape:version="1.4 (86a8ad7, 2024-10-11)" sodipodi:docname="5.svg" version="1.1" viewBox="0 0 210 110" xmlns="http://www.w3.org/2000/svg" xmlns:cc="http://creativecommons.org/ns#" xmlns:dc="http://purl.org/dc/elements/1.1/" xmlns:inkscape="http://www.inkscape.org/namespaces/inkscape" xmlns:rdf="http://www.w3.org/1999/02/22-rdf-syntax-ns#" xmlns:sodipodi="http://sodipodi.sourceforge.net/DTD/sodipodi-0.dtd">
 <title id="title2">399 1/7</title>
 <sodipodi:namedview id="namedview1" bordercolor="#000000" borderopacity="0.25" inkscape:current-layer="layer1" inkscape:cx="397.94365" inkscape:cy="560.83816" inkscape:deskcolor="#d1d1d1" inkscape:document-units="mm" inkscape:pagecheckerboard="0" inkscape:pageopacity="0.0" inkscape:showpageshadow="2" inkscape:window-height="745" inkscape:window-maximized="1" inkscape:window-width="1366" inkscape:window-x="-8" inkscape:window-y="-8" inkscape:zoom="0.45735119" pagecolor="#ffffff"/>
 <defs id="defs1">
  <pattern id="WMFhbasepattern" width="6" height="6" patternUnits="userSpaceOnUse"/>
 </defs>
 <g id="layer1" inkscape:groupmode="layer" inkscape:label="Capa 1">
  <g id="g2" transform="matrix(1.64 0 0 1.64 230.06 -82.578)" stroke-width=".30488">
   <g id="g1" transform="matrix(.26458 0 0 .26458 -234.5 -40.661)" stroke-width="1.1523">
    <g fill="none" stroke-linecap="round" stroke-linejoin="round" stroke-width="1.1523">
     <path id="path1" d="m503.75 378.87 274.93 26.067" stroke="#f0f"/>
     <g stroke="#212830">
      <path id="path2" d="m778.79 405.22 16.74 33.887"/>
      <path id="path3" d="m667.64 460.21 16.74 33.887"/>
      <path id="path4" d="m788.65 441.59-41.504 20.528"/>
      <path id="path5" d="m690.57 490.14 41.504-20.569"/>
     </g>
    </g>
    <g>
     <path id="path6" d="m788.12 440.49 1.059 2.1994 5.9873-4.3174z" fill="#212830" fill-rule="evenodd"/>
     <path id="path7" d="m690 489.04 1.0997 2.1587-7.087 2.1587z" fill="#212830" fill-rule="evenodd"/>
     <text id="text8" transform="translate(724.13 469.45)" fill="#000000" font-family="Arial" font-size="10.188px" font-weight="400" letter-spacing="0px" stroke-width="1.1523" word-spacing="0px" style="line-height:125%" xml:space="preserve"><tspan id="tspan8" x="0" y="0" sodipodi:role="line"><tspan id="tspan7" dx="0" dy="0" fill="#212830" font-family="Arial" font-size="10.188px" font-weight="400" stroke-width="1.1523">26.712</tspan></tspan></text>
    </g>
    <g fill="none" stroke="#212830" stroke-linecap="round" stroke-linejoin="round" stroke-width="1.1523">
     <path id="path8" d="m778.71 404.65 2.2809-24.153"/>
     <path id="path9" d="m503.79 378.54 2.2809-24.153"/>
     <path id="path10" d="m773.66 380.62-115.1-10.916"/>
     <path id="path11" d="m513.24 355.9 115.1 10.916"/>
    </g>
    <g>
     <path id="path12" d="m773.78 379.4-0.24438 2.4438 7.3721-0.52948z" fill="#212830" fill-rule="evenodd"/>
     <path id="path13" d="m513.36 354.67-0.24438 2.4438-7.1277-1.9143z" fill="#212830" fill-rule="evenodd"/>
     <text id="text14" transform="translate(627.89 371.86)" fill="#000000" font-family="Arial" font-size="10.188px" font-weight="400" letter-spacing="0px" stroke-width="1.1523" word-spacing="0px" style="line-height:125%" xml:space="preserve"><tspan id="tspan14" x="0" y="0" sodipodi:role="line"><tspan id="tspan13" dx="0" dy="0" fill="#212830" font-family="Arial" font-size="10.188px" font-weight="400" stroke-width="1.1523">59.500</tspan></tspan></text>
    </g>
    <g fill="none" stroke-linecap="round" stroke-linejoin="round" stroke-width="1.1523">
     <path id="path14" d="m503.75 378.87 163.77 81.052" stroke="#f0f"/>
     <g stroke="#212830">
      <path id="path15" d="m667.4 460.21-14.866 30.099"/>
      <path id="path16" d="m503.62 379.11-14.866 30.099"/>
      <path id="path17" d="m646.38 486.31-67.815-33.602"/>
      <path id="path18" d="m495.64 411.7 67.856 33.561"/>
     </g>
    </g>
    <g>
     <path id="path19" d="m646.91 485.21-1.059 2.1994 7.0462 2.118z" fill="#212830" fill-rule="evenodd"/>
     <path id="path20" d="m496.21 410.6-1.0997 2.1587-5.9873-4.3174z" fill="#212830" fill-rule="evenodd"/>
     <text id="text21" transform="translate(555.43 452.59)" fill="#000000" font-family="Arial" font-size="10.188px" font-weight="400" letter-spacing="0px" stroke-width="1.1523" word-spacing="0px" style="line-height:125%" xml:space="preserve"><tspan id="tspan21" x="0" y="0" sodipodi:role="line"><tspan id="tspan20" dx="0" dy="0" fill="#212830" font-family="Arial" font-size="10.188px" font-weight="400" stroke-width="1.1523">39.367</tspan></tspan></text>
    </g>
    <path id="path21" d="m601.66 419.23 0.77386-1.9143 0.73314-1.9143 0.6924-1.955 0.65168-1.9143" fill="none" stroke="#212830" stroke-linecap="round" stroke-linejoin="round" stroke-width="1.1523"/>
    <path id="path22" d="m606.59 404.2 0.44802-2.0365 0.44803-1.9958 0.4073-2.0365 0.32584-2.0365" fill="none" stroke="#212830" stroke-linecap="round" stroke-linejoin="round" stroke-width="1.1523"/>
    <g>
     <path id="path23" d="m602.8 419.72-2.2401-1.0182-1.8736 7.1277z" fill="#212830" fill-rule="evenodd"/>
     <path id="path24" d="m607.04 395.93 2.4031 0.32584-0.24438-7.4128z" fill="#212830" fill-rule="evenodd"/>
     <text id="text25" transform="translate(598.08 411.49)" fill="#000000" font-family="Arial" font-size="10.188px" font-weight="400" letter-spacing="0px" stroke-width="1.1523" word-spacing="0px" style="line-height:125%" xml:space="preserve"><tspan id="tspan25" x="0" y="0" sodipodi:role="line"><tspan id="tspan24" dx="0" dy="0" fill="#212830" font-family="Arial" font-size="10.188px" font-weight="400" stroke-width="1.1523">21°</tspan></tspan></text>
    </g>
    <g fill="none" stroke-linecap="round" stroke-linejoin="round" stroke-width="1.1523">
     <path id="path25" d="m382.49 600.97 396.18-196.03" stroke="#f0f"/>
     <path id="path26" d="m706.05 405.34 0.0407 2.2809 0.12219 2.2401 0.20365 2.2809 0.24438 2.2401" stroke="#212830"/>
     <path id="path27" d="m708.05 421.84 0.57022 2.1994 0.61094 2.1587 0.69241 2.118 0.73313 2.1587" stroke="#212830"/>
    </g>
    <g>
     <path id="path28" d="m704.83 405.3 2.4031 0.12219-0.89606-7.3314z" fill="#212830" fill-rule="evenodd"/>
     <path id="path29" d="m711.75 429.98-2.1994 0.97751 3.9915 6.1909z" fill="#212830" fill-rule="evenodd"/>
     <text id="text30" transform="translate(699.66 421.72)" fill="#000000" font-family="Arial" font-size="10.188px" font-weight="400" letter-spacing="0px" stroke-width="1.1523" word-spacing="0px" style="line-height:125%" xml:space="preserve"><tspan id="tspan30" x="0" y="0" sodipodi:role="line"><tspan id="tspan29" dx="0" dy="0" fill="#212830" font-family="Arial" font-size="10.188px" font-weight="400" stroke-width="1.1523">32°</tspan></tspan></text>
    </g>
    <path id="path30" d="m684.75 443.34-0.85533-0.81459-0.85532-0.77387-0.89605-0.73313-0.93679-0.69241-0.97751-0.65167-0.97752-0.57022-1.059-0.57022-1.0182-0.48875" fill="none" stroke="#212830" stroke-linecap="round" stroke-linejoin="round" stroke-width="1.1523"/>
    <path id="path31" d="m657.91 438.05-1.059 0.48875-1.0182 0.52949-1.0182 0.61095-0.97751 0.65167-0.93679 0.69241-0.89605 0.73313-0.85533 0.77387-0.85532 0.81459" fill="none" stroke="#212830" stroke-linecap="round" stroke-linejoin="round" stroke-width="1.1523"/>
    <path id="path32" d="m685.77 442.69-1.9958 1.3848 5.1727 5.2541z" fill="#212830" fill-rule="evenodd"/>
    <path id="path33" d="m651.31 444.08-1.9958-1.4255-3.2176 6.6797z" fill="#212830" fill-rule="evenodd"/>
    <g fill="#000000" font-weight="400" letter-spacing="0px" stroke-width="1.1523" word-spacing="0px">
     <text id="text34" transform="translate(656.77 439.68)" font-family="Arial" font-size="10.188px" style="line-height:125%" xml:space="preserve"><tspan id="tspan34" x="0" y="0" sodipodi:role="line"><tspan id="tspan33" dx="0" dy="0" fill="#212830" font-family="Arial" font-size="10.188px" font-weight="400" stroke-width="1.1523">127°</tspan></tspan></text>
     <g font-family="Garamond" font-size="16px">
      <text id="text36" transform="translate(481.02 367.46)" style="line-height:125%" xml:space="preserve"><tspan id="tspan36" x="0" y="0" sodipodi:role="line"><tspan id="tspan35" dx="0" dy="0" fill="#00ffff" font-family="Garamond" font-size="16px" font-weight="400" stroke-width="1.1523">VG</tspan></tspan></text>
      <text id="text38" transform="translate(654.85 454.1)" style="line-height:125%" xml:space="preserve"><tspan id="tspan38" x="0" y="0" sodipodi:role="line"><tspan id="tspan37" dx="0" dy="0" fill="#00ffff" font-family="Garamond" font-size="16px" font-weight="400" stroke-width="1.1523">VX</tspan></tspan></text>
      <text id="text40" transform="translate(784.86 409.58)" style="line-height:125%" xml:space="preserve"><tspan id="tspan40" x="0" y="0" sodipodi:role="line"><tspan id="tspan39" dx="0" dy="0" fill="#00ffff" font-family="Garamond" font-size="16px" font-weight="400" stroke-width="1.1523">VD</tspan></tspan></text>
     </g>
    </g>
    <g fill="none" stroke-linecap="round" stroke-linejoin="round" stroke-width="1.1523">
     <path id="path40" d="m825.88 532.75h-461.18" stroke="#0ff"/>
     <path id="path41" d="m633.84 525.45-0.16292-2.118-0.16292-2.0772-0.24437-2.118-0.28511-2.0772-0.28511-2.1179-0.36657-2.0772" stroke="#212830"/>
     <path id="path42" d="m630.74 505.42-0.73313-2.8104-0.77387-2.7696-0.89605-2.7289-0.93679-2.7696-0.97751-2.6882-1.0997-2.6882" stroke="#212830"/>
    </g>
    <g>
     <path id="path43" d="m635.1 525.41-2.4438 0.0815 1.4663 7.2499z" fill="#212830" fill-rule="evenodd"/>
     <path id="path44" d="m624.26 489.45 2.1994-1.0182-4.1137-6.1502z" fill="#212830" fill-rule="evenodd"/>
     <text id="text45" transform="translate(614.2 512.75)" fill="#000000" font-family="Arial" font-size="10.188px" font-weight="400" letter-spacing="0px" stroke-width="1.1523" word-spacing="0px" style="line-height:125%" xml:space="preserve"><tspan id="tspan45" x="0" y="0" sodipodi:role="line"><tspan id="tspan44" dx="0" dy="0" fill="#212830" font-family="Arial" font-size="10.188px" font-weight="400" stroke-width="1.1523">26.300°</tspan></tspan></text>
    </g>
   </g>
  </g>
 </g>
 <metadata id="metadata2">
  <rdf:RDF>
   <cc:Work rdf:about="">
    <dc:title>399 1/7</dc:title>
    <dc:date>09 de marzo del 2025</dc:date>
    <dc:creator>
     <cc:Agent>
      <dc:title>Miguel Hernando Ibáñez Sánchez</dc:title>
     </cc:Agent>
    </dc:creator>
    <dc:rights>
     <cc:Agent>
      <dc:title>399 1/7 © 2025 by Miguel Hernando Ibáñez Sánchez is licensed under Creative Commons Attribution-NoDerivatives 4.0 International</dc:title>
     </cc:Agent>
    </dc:rights>
    <dc:publisher>
     <cc:Agent>
      <dc:title>ISAN atelier academiae</dc:title>
     </cc:Agent>
    </dc:publisher>
    <dc:identifier>10.5281/zenodo.14997039</dc:identifier>
    <dc:source>Sáhica - Boyacá, Colombia</dc:source>
    <dc:relation>Lo Oculto del Sendero de la Serpiente</dc:relation>
    <dc:language>Español - Catstellano</dc:language>
    <dc:subject>
     <rdf:Bag>
      <rdf:li>Geometria sagrada</rdf:li>
      <rdf:li>sacred geometry</rdf:li>
      <rdf:li>arquitectura sagrada</rdf:li>
      <rdf:li>sacred architecture</rdf:li>
     </rdf:Bag>
    </dc:subject>
    <dc:coverage>Global</dc:coverage>
    <dc:description>Estudios geométricos</dc:description>
    <cc:license rdf:resource="http://creativecommons.org/licenses/by-nd/4.0/"/>
   </cc:Work>
   <cc:License rdf:about="http://creativecommons.org/licenses/by-nd/4.0/">
    <cc:permits rdf:resource="http://creativecommons.org/ns#Reproduction"/>
    <cc:permits rdf:resource="http://creativecommons.org/ns#Distribution"/>
    <cc:requires rdf:resource="http://creativecommons.org/ns#Notice"/>
    <cc:requires rdf:resource="http://creativecommons.org/ns#Attribution"/>
   </cc:License>
  </rdf:RDF>
 </metadata>
</svg>
