<?xml version="1.0" encoding="UTF-8"?>
<!-- Created with Inkscape (http://www.inkscape.org/) -->
<svg id="svg1" width="210mm" height="180mm" inkscape:version="1.4 (86a8ad7, 2024-10-11)" sodipodi:docname="5.svg" version="1.1" viewBox="0 0 210 180" xmlns="http://www.w3.org/2000/svg" xmlns:cc="http://creativecommons.org/ns#" xmlns:dc="http://purl.org/dc/elements/1.1/" xmlns:inkscape="http://www.inkscape.org/namespaces/inkscape" xmlns:rdf="http://www.w3.org/1999/02/22-rdf-syntax-ns#" xmlns:sodipodi="http://sodipodi.sourceforge.net/DTD/sodipodi-0.dtd">
 <title id="title2">El Velo del Espejismo de la Esfinge de Giza</title>
 <sodipodi:namedview id="namedview1" bordercolor="#000000" borderopacity="0.25" inkscape:current-layer="layer1" inkscape:cx="397.94365" inkscape:cy="560.83816" inkscape:deskcolor="#d1d1d1" inkscape:document-units="mm" inkscape:pagecheckerboard="0" inkscape:pageopacity="0.0" inkscape:showpageshadow="2" inkscape:window-height="664" inkscape:window-maximized="1" inkscape:window-width="1366" inkscape:window-x="-8" inkscape:window-y="-8" inkscape:zoom="0.45735119" pagecolor="#ffffff"/>
 <defs id="defs1">
  <pattern id="WMFhbasepattern" width="6" height="6" patternUnits="userSpaceOnUse"/>
 </defs>
 <g id="layer1" inkscape:groupmode="layer" inkscape:label="Capa 1">
  <g id="g2" transform="matrix(1.4445 0 0 1.4445 240.51 -39.208)" stroke-width=".069228">
   <g id="g1" transform="matrix(.26458 0 0 .26458 -274.72 -26.381)" stroke-width=".26165">
    <g fill="none" stroke-linecap="round" stroke-linejoin="round" stroke-width=".26165">
     <g stroke="#f0f">
      <path id="path1" d="m755.9 402.17-0.0407-3.5842-0.16292-3.5435-0.24438-3.5842-0.32584-3.5435-0.44803-3.5435-0.57021-3.5435-0.65168-3.5435-0.73313-3.462-0.8146-3.5028-0.93678-3.4213-1.0182-3.4213-1.1404-3.4213-1.2219-3.3398-1.3034-3.3398-1.3848-3.2991-1.507-3.2176-1.5885-3.2176-1.6699-3.1769-1.7514-3.0955-1.8328-3.0547-1.9143-3.014-1.9958-2.9733-2.1179-2.8918-2.1587-2.8511-2.2401-2.7696-2.3216-2.6882-2.403-2.6474-2.4845-2.6067-2.5252-2.4845-2.6067-2.4438-2.6882-2.3623-2.7289-2.3216-2.8104-2.1994-2.8511-2.1179-2.9325-2.0772-2.9733-1.955-3.0547-1.8736-3.0547-1.8328-3.1362-1.7106-3.1769-1.6292-3.2176-1.507-3.2584-1.4663-3.3398-1.3441-3.3398-1.2626-3.3398-1.1812-3.4213-1.059-3.4213-1.0182-3.462-0.85532-3.5028-0.8146-3.462-0.6924-3.5435-0.57022-3.5435-0.48875-3.5435-0.4073-3.5435-0.28511-3.5842-0.20365-3.5435-0.12219h-3.5842l-3.5435 0.12219-3.5842 0.20365-3.5435 0.28511-3.5435 0.4073-3.5435 0.48875-3.5435 0.57022-3.462 0.6924-3.5028 0.8146-3.462 0.85532-3.4213 1.0182-3.4213 1.059-3.3398 1.1812-3.3398 1.2626-3.3398 1.3441-3.2584 1.4663-3.2176 1.507-3.1769 1.6292-3.1362 1.7106-3.0547 1.8328-3.0547 1.8736-2.9733 1.955-2.9325 2.0772-2.8511 2.1179-2.8104 2.1994-2.7289 2.3216-2.6882 2.3623-2.6067 2.4438-2.5252 2.4845-2.4845 2.6067-2.4031 2.6474-2.3216 2.6882-2.2401 2.7696-2.1587 2.8511-2.118 2.8918-1.9958 2.9733-1.9143 3.014-1.8328 3.0547-1.7514 3.0955-1.6699 3.1769-1.5885 3.2176-1.507 3.2176-1.3848 3.2991-1.3034 3.3398-1.2219 3.3398-1.1404 3.4213-1.0182 3.4213-0.93679 3.4213-0.81459 3.5028-0.73314 3.462-0.65167 3.5435-0.57022 3.5435-0.44803 3.5435-0.32583 3.5435-0.24438 3.5842-0.16292 3.5435-0.0407 3.5842 0.0407 3.5842 0.16292 3.5435 0.24438 3.5842 0.32583 3.5435 0.44803 3.5435 0.57022 3.5435 0.65167 3.5435 0.73314 3.462 0.81459 3.5028 0.93679 3.4213 1.0182 3.4213 1.1404 3.4213 1.2219 3.3398 1.3034 3.3398 1.3848 3.2991 1.507 3.2176 1.5885 3.2176 1.6699 3.1769 1.7514 3.0955 1.8328 3.0547 1.9143 3.014 1.9958 2.9733 2.118 2.8918 2.1587 2.8511 2.2401 2.7696 2.3216 2.6882 2.4031 2.6474 2.4845 2.6067 2.5252 2.4845 2.6067 2.4438 2.6882 2.3623 2.7289 2.3216 2.8104 2.1994 2.8511 2.1179 2.9325 2.0772 2.9733 1.955 3.0547 1.8736 3.0547 1.8328 3.1362 1.7106 3.1769 1.6292 3.2176 1.507 3.2584 1.4663 3.3398 1.3441 3.3398 1.2626 3.3398 1.1812 3.4213 1.059 3.4213 1.0182 3.462 0.85532 3.5028 0.8146 3.462 0.6924 3.5435 0.57022 3.5435 0.48875 3.5435 0.4073 3.5435 0.28511 3.5842 0.20365 3.5435 0.12219h3.5842l3.5435-0.12219 3.5842-0.20365 3.5435-0.28511 3.5435-0.4073 3.5435-0.48875 3.5435-0.57022 3.462-0.6924 3.5028-0.8146 3.462-0.85532 3.4213-1.0182 3.4213-1.059 3.3398-1.1812 3.3398-1.2626 3.3398-1.3441 3.2584-1.4663 3.2176-1.507 3.1769-1.6292 3.1362-1.7106 3.0547-1.8328 3.0547-1.8736 2.9733-1.955 2.9325-2.0772 2.8511-2.1179 2.8104-2.1994 2.7289-2.3216 2.6882-2.3623 2.6067-2.4438 2.5252-2.4845 2.4845-2.6067 2.403-2.6474 2.3216-2.6882 2.2401-2.7696 2.1587-2.8511 2.1179-2.8918 1.9958-2.9733 1.9143-3.014 1.8328-3.0547 1.7514-3.0955 1.6699-3.1769 1.5885-3.2176 1.507-3.2176 1.3848-3.2991 1.3034-3.3398 1.2219-3.3398 1.1404-3.4213 1.0182-3.4213 0.93678-3.4213 0.8146-3.5028 0.73313-3.462 0.65168-3.5435 0.57021-3.5435 0.44803-3.5435 0.32584-3.5435 0.24438-3.5842 0.16292-3.5435z"/>
      <path id="path2" d="m755.9 273.58h-256.8v257.21h256.8z"/>
      <path id="path3" d="m627.52 273.58 83.415 257.21"/>
      <path id="path4" d="m627.52 273.58-83.455 257.21"/>
     </g>
     <path id="path5" d="m600.32 382.41 3.91 0.89605 1.9958 0.4073 1.955 0.36657 1.9958 0.32584 1.9958 0.28511" stroke="#212830"/>
     <path id="path6" d="m642.88 384.69 1.9958-0.28511 1.9958-0.32584 1.955-0.36657 1.9958-0.4073 3.9101-0.89605" stroke="#212830"/>
    </g>
    <g>
     <path id="path7" d="m599.95 383.67 0.6924-2.4845-7.7386-0.89606z" fill="#212830" fill-rule="evenodd"/>
     <path id="path8" d="m654.36 381.19 0.73314 2.4845 7.0462-3.3806z" fill="#212830" fill-rule="evenodd"/>
     <text id="text9" transform="translate(611.48 393.37)" fill="#000000" font-family="Arial" font-size="21.562px" font-weight="400" letter-spacing="0px" stroke-width=".26165" word-spacing="0px" style="line-height:125%" xml:space="preserve"><tspan id="tspan9" x="0" y="0" sodipodi:role="line"><tspan id="tspan8" dx="0" dy="0" fill="#212830" font-family="Arial" font-size="21.562px" font-weight="400" stroke-width=".26165">36°</tspan></tspan></text>
     <text id="text11" transform="translate(763.36 227.23)" fill="#000000" font-family="Arial" font-size="21.562px" font-weight="400" letter-spacing="0px" stroke-width=".26165" word-spacing="0px" style="line-height:125%" xml:space="preserve"><tspan id="tspan11" x="0" y="0" sodipodi:role="line"><tspan id="tspan10" dx="0" dy="0" fill="#212830" font-family="Arial" font-size="21.562px" font-weight="400" stroke-width=".26165">R0.50</tspan></tspan></text>
    </g>
    <path id="path11" d="m741.97 219.61h-15.437l-30.384 56.003" fill="none" stroke="#212830" stroke-linecap="round" stroke-linejoin="round" stroke-width=".26165"/>
    <path id="path12" d="m693.91 274.4 4.521 2.4438-9.6122 12.341z" fill="#212830" fill-rule="evenodd"/>
    <g fill="none" stroke-linecap="round" stroke-linejoin="round" stroke-width=".26165">
     <path id="path13" d="m627.52 273.58 122.35 257.21" stroke="#f0f"/>
     <path id="path14" d="m627.52 273.58-122.39 257.21" stroke="#f0f"/>
     <g stroke="#212830">
      <path id="path15" d="m499.1 535.92v27.737"/>
      <path id="path16" d="m505.13 535.92v27.737"/>
      <path id="path17" d="m512.83 558.53h7.6979"/>
      <path id="path18" d="m491.4 558.53h-9.6937"/>
     </g>
    </g>
    <g>
     <path id="path19" d="m512.83 557.22v2.566l-7.6979-1.2626z" fill="#212830" fill-rule="evenodd"/>
     <path id="path20" d="m491.4 557.22v2.566l7.6979-1.2626z" fill="#212830" fill-rule="evenodd"/>
     <text id="text21" transform="translate(418.78 567.41)" fill="#000000" font-family="Arial" font-size="25.188px" font-weight="400" letter-spacing="0px" stroke-width=".26165" word-spacing="0px" style="line-height:125%" xml:space="preserve"><tspan id="tspan21" x="0" y="0" sodipodi:role="line"><tspan id="tspan20" dx="0" dy="0" fill="#212830" font-family="Arial" font-size="25.188px" font-weight="400" stroke-width=".26165">0.024</tspan></tspan></text>
    </g>
    <g fill="none" stroke="#212830" stroke-linecap="round" stroke-linejoin="round" stroke-width=".26165">
     <path id="path21" d="m505.13 535.92v27.737"/>
     <path id="path22" d="m749.88 535.92v27.737"/>
     <path id="path23" d="m512.83 558.53h69.118"/>
     <path id="path24" d="m742.18 558.53h-69.118"/>
    </g>
    <g>
     <path id="path25" d="m512.83 557.22v2.566l-7.6979-1.2626z" fill="#212830" fill-rule="evenodd"/>
     <path id="path26" d="m742.18 557.22v2.566l7.6979-1.2626z" fill="#212830" fill-rule="evenodd"/>
     <text id="text27" transform="translate(582.19 567.37)" fill="#000000" font-family="Arial" font-size="25.188px" font-weight="400" letter-spacing="0px" stroke-width=".26165" word-spacing="0px" style="line-height:125%" xml:space="preserve"><tspan id="tspan27" x="0" y="0" sodipodi:role="line"><tspan id="tspan26" dx="0" dy="0" fill="#212830" font-family="Arial" font-size="25.188px" font-weight="400" stroke-width=".26165">0.95300</tspan></tspan></text>
    </g>
    <g fill="none" stroke="#212830" stroke-linecap="round" stroke-linejoin="round" stroke-width=".26165">
     <path id="path27" d="m749.88 535.92v27.737"/>
     <path id="path28" d="m755.9 535.92v27.737"/>
     <path id="path29" d="m742.18 558.53h-7.6979"/>
     <path id="path30" d="m763.64 558.53h7.6979"/>
    </g>
    <g>
     <path id="path31" d="m742.18 557.22v2.566l7.6979-1.2626z" fill="#212830" fill-rule="evenodd"/>
     <path id="path32" d="m763.64 557.22v2.566l-7.7386-1.2626z" fill="#212830" fill-rule="evenodd"/>
     <text id="text33" transform="translate(771.54 567.37)" fill="#000000" font-family="Arial" font-size="25.188px" font-weight="400" letter-spacing="0px" stroke-width=".26165" word-spacing="0px" style="line-height:125%" xml:space="preserve"><tspan id="tspan33" x="0" y="0" sodipodi:role="line"><tspan id="tspan32" dx="0" dy="0" fill="#212830" font-family="Arial" font-size="25.188px" font-weight="400" stroke-width=".26165">0.02350000</tspan></tspan></text>
    </g>
    <g fill="none" stroke-linecap="round" stroke-linejoin="round" stroke-width=".26165">
     <path id="path33" d="m505.13 530.79h244.75" stroke="#0ff"/>
     <path id="path34" d="m570.46 429.37 3.014 1.059 3.0547 1.0182 3.0547 0.97751 3.0955 0.89606 3.0955 0.85532 3.1362 0.77387" stroke="#212830"/>
     <path id="path35" d="m666.13 434.95 3.1362-0.77387 3.0955-0.85532 3.0955-0.89606 3.0547-0.97751 3.0547-1.0182 3.014-1.059" stroke="#212830"/>
    </g>
    <g>
     <path id="path36" d="m569.44 431.74 1.9958-4.7246-15.192-3.625z" fill="#212830" fill-rule="evenodd"/>
     <path id="path37" d="m683.61 427.01 1.955 4.7246 13.237-8.3496z" fill="#212830" fill-rule="evenodd"/>
     <text id="text38" transform="translate(590.54 447.13)" fill="#000000" font-family="Arial" font-size="21.562px" font-weight="400" letter-spacing="0px" stroke-width=".26165" word-spacing="0px" style="line-height:125%" xml:space="preserve"><tspan id="tspan38" x="0" y="0" sodipodi:role="line"><tspan id="tspan37" dx="0" dy="0" fill="#212830" font-family="Arial" font-size="21.562px" font-weight="400" stroke-width=".26165">50.956°</tspan></tspan></text>
    </g>
    <g fill="none" stroke="#212830" stroke-linecap="round" stroke-linejoin="round" stroke-width=".26165">
     <path id="path38" d="m687.97 478.17 2.6882-0.81459 2.6882-0.85533"/>
     <path id="path39" d="m687.97 478.17h-5.6614"/>
     <path id="path40" d="m698.68 474.66 2.6067-0.93678 2.566-0.97751 2.566-1.0182 2.566-1.0182 2.5252-1.059 2.5252-1.0997"/>
    </g>
    <path id="path41" d="m699 475.56-0.61095-1.7921-5.0505 2.7289z" fill="#212830" fill-rule="evenodd"/>
    <path id="path42" d="m713.63 467.7 0.77386 1.7106 4.7654-3.2176z" fill="#212830" fill-rule="evenodd"/>
    <g fill="#000000" font-weight="400" letter-spacing="0px" stroke-width=".26165" word-spacing="0px">
     <text id="text43" transform="translate(609.19 482.61)" font-family="Arial" font-size="12.562px" style="line-height:125%" xml:space="preserve"><tspan id="tspan43" x="0" y="0" sodipodi:role="line"><tspan id="tspan42" dx="0" dy="0" fill="#212830" font-family="Arial" font-size="12.562px" font-weight="400" stroke-width=".26165">7.47779965°</tspan></tspan></text>
     <g font-family="Calibri" font-size="20.25px">
      <text id="text45" transform="translate(793.33 292.72)" style="line-height:125%" xml:space="preserve"><tspan id="tspan45" x="0" y="0" sodipodi:role="line"><tspan id="tspan44" dx="0" dy="0" fill="#212830" font-family="Calibri" font-size="20.25px" font-weight="400" stroke-width=".26165">666-235 = 431</tspan></tspan></text>
      <text id="text47" transform="translate(793.29 314.27)" style="line-height:125%" xml:space="preserve"><tspan id="tspan47" x="0" y="0" sodipodi:role="line"><tspan id="tspan46" dx="0" dy="0" fill="#212830" font-family="Calibri" font-size="20.25px" font-weight="400" stroke-width=".26165">235 - 171 = 64</tspan></tspan></text>
      <text id="text49" transform="translate(793.29 335.86)" style="line-height:125%" xml:space="preserve"><tspan id="tspan49" x="0" y="0" sodipodi:role="line"><tspan id="tspan48" dx="0" dy="0" fill="#212830" font-family="Calibri" font-size="20.25px" font-weight="400" stroke-width=".26165">235 - 172 = 63</tspan></tspan></text>
      <text id="text51" transform="translate(793.37 357.4)" style="line-height:125%" xml:space="preserve"><tspan id="tspan51" x="0" y="0" sodipodi:role="line"><tspan id="tspan50" dx="0" dy="0" fill="#212830" font-family="Calibri" font-size="20.25px" font-weight="400" stroke-width=".26165">363 - 235 = 128</tspan></tspan></text>
      <text id="text53" transform="translate(793.58 380.54)" style="line-height:125%" xml:space="preserve"><tspan id="tspan53" x="0" y="0" sodipodi:role="line"><tspan id="tspan52" dx="0" dy="0" fill="#212830" font-family="Calibri" font-size="20.25px" font-weight="400" stroke-width=".26165">936 / 235 = 3,98...</tspan></tspan></text>
     </g>
    </g>
    <g fill="none" stroke-linecap="round" stroke-linejoin="round" stroke-width=".26165">
     <path id="path53" d="m777.33 413.24h171.47v-144.26h-171.47z" stroke="#f0f"/>
     <path id="path54" d="m499.1 273.58 256.8 257.21" stroke="#00f"/>
     <path id="path55" d="m499.1 530.79 256.8-257.21" stroke="#00f"/>
     <g stroke="#212830">
      <path id="path56" d="m730.73 477.39-2.6882 0.97751-1.3034 0.57022-1.2626 0.57021"/>
      <path id="path57" d="m730.73 477.39h5.6614"/>
      <path id="path58" d="m720.55 482.28-0.77386 0.48875-0.77387 0.52949-0.73313 0.52949-0.73314 0.57021"/>
     </g>
    </g>
    <g>
     <path id="path59" d="m720.1 481.43 0.89606 1.6699 4.4803-3.5842z" fill="#212830" fill-rule="evenodd"/>
     <path id="path60" d="m718.19 485.09-1.2626-1.4255-3.6249 4.4395z" fill="#212830" fill-rule="evenodd"/>
     <text id="text61" transform="translate(737.57 481.83)" fill="#000000" font-family="Arial" font-size="12.562px" font-weight="400" letter-spacing="0px" stroke-width=".26165" word-spacing="0px" style="line-height:125%" xml:space="preserve"><tspan id="tspan61" x="0" y="0" sodipodi:role="line"><tspan id="tspan60" dx="0" dy="0" fill="#212830" font-family="Arial" font-size="12.562px" font-weight="400" stroke-width=".26165">19.52220035°</tspan></tspan></text>
    </g>
    <g fill="none" stroke="#212830" stroke-linecap="round" stroke-linejoin="round" stroke-width=".26165">
     <path id="path61" d="m767.27 542.15 2.6882 2.6882"/>
     <path id="path62" d="m764.33 531.28 0.69241-1.2219 0.61095-1.2626 0.52948-1.2626 0.44803-1.3441 0.36657-1.3441 0.2851-1.3441 0.24438-1.3848 0.12219-1.3848 0.0407-1.3848-0.0407-1.3848"/>
     <path id="path63" d="m761.69 503.62-0.93678-0.97751-0.97752-0.93679-1.0182-0.85532-1.0997-0.8146-1.0997-0.73313-1.1812-0.65168-1.2219-0.61094-1.2219-0.52949-1.2626-0.44803-1.3034-0.4073-1.3034-0.2851-1.3034-0.24438-1.3441-0.16292-1.3441-0.0815h-1.3441l-1.3441 0.0815-1.3441 0.16292-1.3441 0.24438"/>
    </g>
    <g>
     <path id="path64" d="m765.11 531.85-1.507-1.1404-2.7289 5.0505z" fill="#212830" fill-rule="evenodd"/>
     <path id="path65" d="m740.02 497.27-0.61095-1.7921-5.0505 2.6882z" fill="#212830" fill-rule="evenodd"/>
     <text id="text66" transform="translate(723.16 515.23)" fill="#000000" font-family="Arial" font-size="12.562px" font-weight="400" letter-spacing="0px" stroke-width=".26165" word-spacing="0px" style="line-height:125%" xml:space="preserve"><tspan id="tspan66" x="0" y="0" sodipodi:role="line"><tspan id="tspan65" dx="0" dy="0" fill="#212830" font-family="Arial" font-size="12.562px" font-weight="400" stroke-width=".26165">160.47779965°</tspan></tspan></text>
    </g>
    <g fill="none" stroke="#212830" stroke-linecap="round" stroke-linejoin="round" stroke-width=".26165">
     <path id="path66" d="m527.78 488.35v127.08"/>
     <path id="path67" d="m727.23 488.35v127.08"/>
     <path id="path68" d="m535.47 610.29h46.473"/>
     <path id="path69" d="m719.53 610.29h-46.432"/>
    </g>
    <g>
     <path id="path70" d="m535.47 608.99v2.6067l-7.6979-1.3034z" fill="#212830" fill-rule="evenodd"/>
     <path id="path71" d="m719.53 608.99v2.6067l7.6979-1.3034z" fill="#212830" fill-rule="evenodd"/>
     <text id="text72" transform="translate(582.15 619.17)" fill="#000000" font-family="Arial" font-size="25.188px" font-weight="400" letter-spacing="0px" stroke-width=".26165" word-spacing="0px" style="line-height:125%" xml:space="preserve"><tspan id="tspan72" x="0" y="0" sodipodi:role="line"><tspan id="tspan71" dx="0" dy="0" fill="#212830" font-family="Arial" font-size="25.188px" font-weight="400" stroke-width=".26165">0.77666</tspan></tspan></text>
    </g>
    <g fill="none" stroke="#212830" stroke-linecap="round" stroke-linejoin="round" stroke-width=".26165">
     <path id="path72" d="m505.13 535.92v99.706"/>
     <path id="path73" d="m544.07 535.92v99.706"/>
     <path id="path74" d="m536.37 630.5h-23.542"/>
     <path id="path75" d="m505.13 630.5h-7.6979"/>
    </g>
    <g>
     <path id="path76" d="m536.37 629.19v2.566l7.6979-1.2626z" fill="#212830" fill-rule="evenodd"/>
     <path id="path77" d="m512.83 629.19v2.566l-7.6979-1.2626z" fill="#212830" fill-rule="evenodd"/>
     <text id="text78" transform="translate(434.59 639.38)" fill="#000000" font-family="Arial" font-size="25.188px" font-weight="400" letter-spacing="0px" stroke-width=".26165" word-spacing="0px" style="line-height:125%" xml:space="preserve"><tspan id="tspan78" x="0" y="0" sodipodi:role="line"><tspan id="tspan77" dx="0" dy="0" fill="#212830" font-family="Arial" font-size="25.188px" font-weight="400" stroke-width=".26165">0.152</tspan></tspan></text>
    </g>
    <g fill="none" stroke="#0ff" stroke-linecap="round" stroke-linejoin="round" stroke-width=".26165">
     <path id="path78" d="m527.78 483.18h4.9283"/>
     <path id="path79" d="m537.35 483.18h3.0955"/>
     <path id="path80" d="m545.05 483.18h3.0955"/>
     <path id="path81" d="m552.74 483.18h3.0955"/>
     <path id="path82" d="m560.44 483.18h3.0955"/>
     <path id="path83" d="m568.18 483.18h3.0547"/>
     <path id="path84" d="m575.88 483.18h3.0547"/>
     <path id="path85" d="m583.58 483.18h3.0955"/>
     <path id="path86" d="m591.27 483.18h3.0955"/>
     <path id="path87" d="m598.97 483.18h3.0955"/>
     <path id="path88" d="m606.67 483.18h3.0955"/>
     <path id="path89" d="m614.41 483.18h3.0547"/>
     <path id="path90" d="m622.11 483.18h3.0547"/>
     <path id="path91" d="m629.8 483.18h3.0547"/>
     <path id="path92" d="m637.5 483.18h3.0955"/>
     <path id="path93" d="m645.2 483.18h3.0955"/>
     <path id="path94" d="m652.9 483.18h3.0955"/>
     <path id="path95" d="m660.6 483.18h3.0955"/>
     <path id="path96" d="m668.33 483.18h3.0547"/>
     <path id="path97" d="m676.03 483.18h3.0547"/>
     <path id="path98" d="m683.73 483.18h3.0955"/>
     <path id="path99" d="m691.43 483.18h3.0955"/>
     <path id="path100" d="m699.13 483.18h3.0955"/>
     <path id="path101" d="m706.82 483.18h3.0955"/>
     <path id="path102" d="m714.56 483.18h3.0547"/>
     <path id="path103" d="m722.26 483.18h4.9283"/>
    </g>
   </g>
  </g>
 </g>
 <metadata id="metadata2">
  <rdf:RDF>
   <cc:Work rdf:about="">
    <dc:title>El Velo del Espejismo de la Esfinge de Giza</dc:title>
    <dc:date>12-01-2025</dc:date>
    <dc:creator>
     <cc:Agent>
      <dc:title>Arq. Miguel Hernando Ibáñez Sánchez</dc:title>
     </cc:Agent>
    </dc:creator>
    <dc:rights>
     <cc:Agent>
      <dc:title>El Velo del Espejismo de la Esfinge de Giza II © 2025 by ISAN atelier is licensed under Creative Commons Attribution-NoDerivatives 4.0 International</dc:title>
     </cc:Agent>
    </dc:rights>
    <dc:publisher>
     <cc:Agent>
      <dc:title>ISAN atelier</dc:title>
     </cc:Agent>
    </dc:publisher>
    <dc:identifier>Miguel Hernando, I. S. (2025). El Velo del Espejismo de la Esfinge de Giza II. https://doi.org/10.5281/zenodo.14635023</dc:identifier>
    <dc:source>Sáchica, Boyacá - Colombia</dc:source>
    <dc:relation>Lo Oculto del Sendero de la Serpiente</dc:relation>
    <dc:language>Español</dc:language>
    <dc:subject>
     <rdf:Bag>
      <rdf:li>Arquitectura sagrada</rdf:li>
      <rdf:li>geometria sgrada</rdf:li>
      <rdf:li>sacred architecture</rdf:li>
      <rdf:li>sacred geometry</rdf:li>
     </rdf:Bag>
    </dc:subject>
    <dc:coverage>Global</dc:coverage>
    <dc:description>LAs condiciones naturales que motivaron a la construcción de la Gran Pirámide de Giza</dc:description>
    <cc:license rdf:resource="http://creativecommons.org/licenses/by-nd/4.0/"/>
   </cc:Work>
   <cc:License rdf:about="http://creativecommons.org/licenses/by-nd/4.0/">
    <cc:permits rdf:resource="http://creativecommons.org/ns#Reproduction"/>
    <cc:permits rdf:resource="http://creativecommons.org/ns#Distribution"/>
    <cc:requires rdf:resource="http://creativecommons.org/ns#Notice"/>
    <cc:requires rdf:resource="http://creativecommons.org/ns#Attribution"/>
   </cc:License>
  </rdf:RDF>
 </metadata>
</svg>
