<?xml version="1.0" encoding="UTF-8"?>
<!-- Created with Inkscape (http://www.inkscape.org/) -->
<svg id="svg1" width="210mm" height="210mm" inkscape:version="1.4 (86a8ad7, 2024-10-11)" sodipodi:docname="6.svg" version="1.1" viewBox="0 0 210 210" xmlns="http://www.w3.org/2000/svg" xmlns:cc="http://creativecommons.org/ns#" xmlns:dc="http://purl.org/dc/elements/1.1/" xmlns:inkscape="http://www.inkscape.org/namespaces/inkscape" xmlns:rdf="http://www.w3.org/1999/02/22-rdf-syntax-ns#" xmlns:sodipodi="http://sodipodi.sourceforge.net/DTD/sodipodi-0.dtd">
 <title id="title2">Los Secretos de las Catedrales. La Catedral Nacional de Washignton D.C</title>
 <sodipodi:namedview id="namedview1" bordercolor="#000000" borderopacity="0.25" inkscape:current-layer="layer1" inkscape:cx="396.84014" inkscape:cy="561.25984" inkscape:deskcolor="#d1d1d1" inkscape:document-units="mm" inkscape:pagecheckerboard="0" inkscape:pageopacity="0.0" inkscape:showpageshadow="2" inkscape:window-height="664" inkscape:window-maximized="1" inkscape:window-width="1366" inkscape:window-x="-8" inkscape:window-y="-8" inkscape:zoom="0.49264169" pagecolor="#ffffff"/>
 <defs id="defs1">
  <pattern id="WMFhbasepattern" width="6" height="6" patternUnits="userSpaceOnUse"/>
 </defs>
 <g id="layer1" inkscape:groupmode="layer" inkscape:label="Capa 1">
  <g id="g2" transform="matrix(2.0871 0 0 2.0871 225.74 -69.659)" stroke-width=".047913">
   <g id="g1" transform="matrix(.26458 0 0 .26458 -275.64 -18.008)" stroke-width=".18109">
    <g fill="none" stroke-linecap="round" stroke-linejoin="round" stroke-width=".18109">
     <g stroke="#f0f">
      <path id="path1" d="m769.18 435.28 1.5885 1.8736 1.6292 1.7921 1.7106 1.7106 1.7514 1.6699 1.8328 1.5885 1.8736 1.507 1.955 1.4663 1.9958 1.3848 2.0772 1.2626 2.1179 1.2219 2.118 1.1404 2.1994 1.059 2.2401 0.93679 2.2401 0.89605 2.3216 0.77387 2.3216 0.6924 2.3623 0.61095 2.3623 0.48875 2.403 0.44803 2.4031 0.32584 2.403 0.20365 2.4031 0.16292 2.4438 0.0407 2.4438-0.0407 2.403-0.16292 2.4031-0.20365 2.403-0.32584 2.4031-0.44803 2.3623-0.48875 2.3623-0.61095 2.3216-0.6924 2.3216-0.77387 2.2401-0.89605 2.2401-0.93679 2.1994-1.059 2.118-1.1404 2.118-1.2219 2.0772-1.2626 1.9958-1.3848 1.955-1.4663 1.8736-1.507 1.8328-1.5885 1.7514-1.6699 1.7106-1.7106 1.6292-1.7921 1.5885-1.8736"/>
      <path id="path2" d="m866.69 435.28 1.507-1.955 1.4663-2.0365 1.3441-2.0772 1.3034-2.1179 1.1812-2.1587 1.0997-2.2401 1.0182-2.2401 0.93678-2.3216 0.85532-2.3216 0.73314-2.3623 0.65168-2.403 0.57021-2.4031 0.44803-2.4438 0.36657-2.4845 0.28511-2.4438 0.16291-2.4845 0.0815-2.4845-0.0407-2.4845-0.12219-2.4845-0.20364-2.4845-0.32584-2.4438-0.4073-2.4438-0.52949-2.4438-0.61094-2.4031-0.69241-2.3623-0.77386-2.3623-0.89606-2.3216-0.97751-2.2809-1.059-2.2401-1.1812-2.1994-1.2219-2.1587-1.3441-2.0772-1.3848-2.0772-1.507-1.955-1.5477-1.955-1.6292-1.8736-1.7106-1.7921-1.7921-1.7106-1.8328-1.6699-1.9143-1.5885-1.955-1.507-2.0365-1.4255-2.0772-1.3441-2.1587-1.2626-2.1587-1.1812-2.2401-1.0997-2.2809-0.97752-2.2809-0.89605-2.3623-0.85532-2.3623-0.69241-2.403-0.65168-2.4438-0.52948-2.403-0.44803-2.4845-0.32584-2.4438-0.24438-2.4845-0.16292-2.4845-0.0407-2.4845 0.0407-2.4845 0.16292-2.4438 0.24438-2.4845 0.32584-2.4031 0.44803-2.4438 0.52948-2.4031 0.65168-2.3623 0.69241-2.3623 0.85532-2.2809 0.89605-2.2809 0.97752-2.2401 1.0997-2.1587 1.1812-2.1587 1.2626-2.0772 1.3441-2.0365 1.4255-1.955 1.507-1.9143 1.5885-1.8328 1.6699-1.7921 1.7106-1.7106 1.7921-1.6292 1.8736-1.5477 1.955-1.507 1.955-1.3848 2.0772-1.3441 2.0772-1.2219 2.1587-1.1812 2.1994-1.059 2.2401-0.97752 2.2809-0.89605 2.3216-0.77387 2.3623-0.6924 2.3623-0.61095 2.4031-0.52949 2.4438-0.40729 2.4438-0.32584 2.4438-0.20365 2.4845-0.12219 2.4845-0.0407 2.4845 0.0815 2.4845 0.16292 2.4845 0.28511 2.4438 0.36657 2.4845 0.44802 2.4438 0.57022 2.4031 0.65168 2.403 0.73313 2.3623 0.85533 2.3216 0.93678 2.3216 1.0182 2.2401 1.0997 2.2401 1.1812 2.1587 1.3034 2.1179 1.3441 2.0772 1.4663 2.0365 1.507 1.955"/>
      <path id="path3" d="m880.7 332.8h-125.57v125.73h125.57z"/>
      <path id="path4" d="m817.93 332.8 59.832 125.73"/>
      <path id="path5" d="m817.93 332.8-59.832 125.73"/>
     </g>
     <g stroke="#212830">
      <path id="path6" d="m758.1 461.06v13.563"/>
      <path id="path7" d="m877.77 461.06v13.563"/>
      <path id="path8" d="m761.85 472.1h33.806"/>
      <path id="path9" d="m873.98 472.1h-33.765"/>
     </g>
    </g>
    <g fill="#212830" fill-rule="evenodd">
     <path id="path10" d="m761.85 471.49v1.2626l-3.7471-0.65168z"/>
     <path id="path11" d="m873.98 471.49v1.2626l3.7879-0.65168z"/>
     <path id="path12" d="m797.57 468.11-0.48875 0.52948-0.48876 0.93679-0.12219 0.40729-0.12219 0.93679-0.0815 1.1812 0.0407 0.89605 0.16292 1.0997 0.28511 0.89605 0.40729 0.69241 0.16292 0.20365 1.8328-0.20365-0.48875-0.0815-0.77387-0.61095-0.28511-0.61094-0.16292-0.97752-0.0815-1.3034 0.0815-1.3034 0.20365-0.97752 0.28511-0.6924 0.28511-0.32584 0.89605-0.28511z"/>
     <path id="path13" d="m799.16 467.62-0.73313 0.0815-0.85533 0.4073 1.5477 0.40729 0.48876 0.0815 0.77386 0.61095 0.28511 0.61094 0.16292 0.97752 0.0815 1.3034-0.0407 1.2219-0.20365 0.97752-0.28511 0.6924-0.36656 0.4073-0.85533 0.28511-1.8328 0.20365 0.8146 0.52948 1.0182 0.16292 0.73314-0.0815 0.85532-0.44802 0.48876-0.48876 0.44803-0.97752 0.12219-0.36656 0.16291-0.93679 0.0407-1.1812v-0.0407l-0.0407-1.1404-0.16291-0.89606-0.12219-0.40729-0.4073-0.89606-0.12219-0.16292-0.77387-0.65167-0.20364-0.12219z"/>
     <path id="path14" d="m803.72 476.46v-1.2626h1.2219v1.2626z"/>
     <path id="path15" d="m807.71 474.3-1.0182 0.12219 0.20365 0.81459 0.57022 0.77387 1.7106-0.32584h-0.0407l-0.93679-0.32584-0.0815-0.0815z"/>
     <path id="path16" d="m810.32 472.22-0.93678 0.28511-2.118 0.16292 0.0407 0.0407 0.8146 0.57021 1.0182 0.16292h0.24438l0.93678-0.32584 0.20365-0.0815 0.69241-0.73313z"/>
     <path id="path17" d="m807.3 468.43-0.20365 0.24438-0.44803 0.85533-0.12218 1.059v0.28511l0.20364 0.97751 0.52949 0.8146 2.118-0.16292-0.4073-0.0407-0.85532-0.48876-0.24438-0.36657-0.24438-1.0182 0.0815-0.65168 0.44802-0.85532 0.32584-0.28511 0.93679-0.28511z"/>
     <path id="path18" d="m809.3 467.62h-0.20365l-0.97751 0.24438-0.8146 0.57021 2.118 0.0815h0.32583l0.85533 0.52949 0.28511 0.44803 0.20365 1.0182-0.0407 0.61095-0.44803 0.85532-0.28511 0.24438 0.89606 0.0815v0.52949l-0.16292 1.0182v0.0815l-0.4073 0.93678-0.61095 0.61095-0.85532 0.20365-1.7106 0.32584 0.65168 0.40729 1.0182 0.16292 0.81459-0.0815 0.89606-0.44802 0.57021-0.57022 0.52949-0.93679 0.12219-0.52948 0.16292-0.97752 0.0815-1.1812-0.0407-0.57021-0.12219-1.059-0.20365-0.85532-0.36657-0.61095-0.73313-0.6924-0.57022-0.28511z"/>
     <path id="path19" d="m814.47 474.05-1.1404 0.0815 0.28511 1.0182 0.61095 0.77387 1.955-0.24438h-0.20364l-0.89606-0.4073-0.24438-0.24438z"/>
     <path id="path20" d="m818.38 471.41-2.2401 0.16292 0.52949 0.0407 0.85533 0.48876 0.2851 0.44803 0.20365 1.0182-0.0815 0.69241-0.44802 0.85532-0.36657 0.32584-0.93679 0.24438-1.955 0.24438 0.0407 0.0407 0.85532 0.48875 1.059 0.12219 0.65168-0.0407 0.93678-0.36657 0.69241-0.65167 0.12219-0.16292 0.44803-0.89605 0.12218-1.0182v-0.24438l-0.24437-0.97751z"/>
     <path id="path21" d="m816.43 470.59-0.73313 0.12219-0.89606 0.44803 3.462 0.12219-0.81459-0.48876z"/>
     <path id="path22" d="m818.75 467.74h-4.3581l-0.85533 4.521 1.0182 0.16292 0.65168-0.61095 0.93678-0.24438 2.2401-0.16292-0.12219-0.12218-3.462-0.12219 0.44803-2.3623h3.5028z"/>
     <path id="path23" d="m821.27 473.97-1.0997 0.16292 0.28511 0.97751 0.61094 0.8146 0.0407 0.0407 0.85533 0.44802 1.0182 0.16292h0.32584l0.97751-0.24438 0.8146-0.52948-2.118-0.12219h-0.20365l-0.89605-0.4073-0.24438-0.28511z"/>
     <path id="path24" d="m825.23 472.1-2.1587 0.0407 0.36657 0.0407 0.85532 0.44803 0.24438 0.28511 0.24438 0.93678-0.0407 0.44803-0.44803 0.89605-0.36657 0.24438-0.93678 0.24438 2.118 0.12219 0.12219-0.16292 0.52948-0.8146 0.20365-0.97751-0.0815-0.52949-0.36657-0.89605z"/>
     <path id="path25" d="m822.41 471.32-0.12218 0.93678 0.77386-0.12219 2.1587-0.0407-0.93679-0.4073 0.16292-0.0815-1.8328-0.2851z"/>
     <path id="path26" d="m821.19 468.19-0.57021 0.6924-0.32584 1.0182 1.059 0.16292 0.0815-0.32583 0.48876-0.85533 0.0815-0.0815 0.93678-0.32584z"/>
     <path id="path27" d="m822.94 467.62-0.89605 0.12219-0.85533 0.44803 1.7514 0.2851 0.16292 0.0407 0.89605 0.36657 0.0407 0.0815 0.36657 0.89605-0.0407 0.32584-0.52948 0.77387-0.24438 0.16292-0.97752 0.20365 1.8328 0.2851 0.73314-0.6924 0.0407-0.0407 0.2851-0.97752v-0.16291l-0.32583-0.97752-0.12219-0.20365-0.8146-0.65167-0.28511-0.12219z"/>
     <path id="path28" d="m828.28 468.11-0.48876 0.52948-0.44803 0.93679-0.12219 0.40729-0.16292 0.93679-0.0407 1.1812v0.89605l0.16292 1.0997 0.28511 0.89605 0.4073 0.69241 0.20365 0.20365 1.7921-0.20365-0.48876-0.0815-0.77387-0.61095-0.24437-0.61094-0.20365-0.97752-0.0407-1.3034 0.0407-1.3034 0.20365-0.97752 0.32583-0.6924 0.28511-0.32584 0.89606-0.28511z"/>
     <path id="path29" d="m829.87 467.62-0.73314 0.0815-0.85532 0.4073 1.5885 0.40729 0.48875 0.0815 0.77387 0.61095 0.24438 0.61094 0.20365 0.97752 0.0407 1.3034-0.0407 1.2219-0.16292 0.97752-0.28511 0.6924-0.36657 0.4073-0.89605 0.28511-1.7921 0.20365 0.77386 0.52948 1.0182 0.16292 0.73313-0.0815 0.85533-0.44802 0.48875-0.48876 0.48876-0.97752 0.0815-0.36656 0.16292-0.93679 0.0407-1.1812v-0.0407l-0.0407-1.1404-0.12219-0.89606-0.12219-0.40729-0.44803-0.89606-0.12219-0.16292-0.73313-0.65167-0.24438-0.12219z"/>
     <path id="path30" d="m835.12 468.11-0.48875 0.52948-0.48876 0.93679-0.0815 0.40729-0.16292 0.93679-0.0815 1.1812 0.0407 0.89605 0.16292 1.0997 0.28511 0.89605 0.4073 0.69241 0.16292 0.20365 1.8328-0.20365-0.48875-0.0815-0.77387-0.61095-0.24438-0.61094-0.20365-0.97752-0.0407-1.3034 0.0407-1.3034 0.20365-0.97752 0.28511-0.6924 0.28511-0.32584 0.89605-0.28511z"/>
     <path id="path31" d="m836.71 467.62-0.73313 0.0815-0.85533 0.4073 1.5477 0.40729 0.48876 0.0815 0.8146 0.61095 0.24437 0.61094 0.16292 0.97752 0.0815 1.3034-0.0407 1.2219-0.16292 0.97752-0.2851 0.6924-0.4073 0.4073-0.85533 0.28511-1.8328 0.20365 0.81459 0.52948 1.0182 0.16292 0.73314-0.0815 0.85532-0.44802 0.48876-0.48876 0.44803-0.97752 0.12219-0.36656 0.16292-0.93679 0.0407-1.1812v-0.0407l-0.0407-1.1404-0.16292-0.89606-0.12219-0.40729-0.4073-0.89606-0.12219-0.16292-0.77386-0.65167-0.20365-0.12219z"/>
    </g>
    <g fill="none" stroke="#212830" stroke-linecap="round" stroke-linejoin="round" stroke-width=".18109">
     <path id="path32" d="m769.14 437.8v87.487"/>
     <path id="path33" d="m866.69 437.8v87.487"/>
     <path id="path34" d="m772.93 522.77h30.14"/>
     <path id="path35" d="m862.9 522.77h-15.274"/>
    </g>
    <g fill="#212830" fill-rule="evenodd">
     <path id="path36" d="m772.93 522.16v1.2219l-3.7879-0.61094z"/>
     <path id="path37" d="m862.9 522.16v1.2219l3.7879-0.61094z"/>
     <path id="path38" d="m804.98 518.77-0.48876 0.52949-0.48876 0.93678-0.12219 0.36657-0.12219 0.97752-0.0815 1.1812 0.0407 0.85532 0.16292 1.0997 0.28511 0.89605 0.4073 0.69241 0.16292 0.24437 1.8328-0.20364-0.48875-0.0815-0.77387-0.65168-0.28511-0.57022-0.16291-0.97751-0.0407-1.3034 0.0407-1.3034 0.20364-1.0182 0.28511-0.65167 0.28511-0.32584 0.89606-0.32584z"/>
     <path id="path39" d="m806.57 518.25-0.73313 0.0815-0.85532 0.44802 1.5477 0.36657 0.48875 0.0815 0.77387 0.65168 0.28511 0.57021 0.16291 0.97752 0.0815 1.3441-0.0407 1.1812-0.20364 1.0182-0.28511 0.65168-0.36657 0.4073-0.85533 0.32584-1.8328 0.20364 0.81459 0.52949 1.0182 0.16292 0.73314-0.0815 0.85532-0.44803 0.48876-0.52948 0.44803-0.93679 0.12219-0.36657 0.16292-0.97751 0.0407-1.1404v-0.0407l-0.0407-1.1812-0.16292-0.89606-0.12219-0.4073-0.4073-0.89605-0.12219-0.16292-0.77386-0.65167-0.20365-0.0815z"/>
     <path id="path40" d="m811.13 527.08v-1.2219h1.2219v1.2219z"/>
     <path id="path41" d="m819.69 518.41h-5.7022v1.0182h4.3174l-0.4073 0.52949-0.57021 0.81459-0.57022 0.97751-0.44803 0.89606-0.36656 0.97751-0.28511 0.97752-0.16292 0.52948-0.16292 1.059-0.0815 0.89605h1.0997l0.0407-0.4073 0.12219-1.059 0.24438-0.93678 0.0815-0.20365 0.32584-0.97752 0.4073-0.93678 0.44802-0.93678 0.48876-0.8146 0.61095-0.85532 0.57021-0.69241z"/>
     <path id="path42" d="m826.53 518.41h-5.7022v1.0182h4.3174l-0.4073 0.52949-0.61095 0.81459-0.52948 0.97751-0.44803 0.89606-0.36657 0.97751-0.32584 0.97752-0.12219 0.52948-0.20364 1.059-0.0815 0.89605h1.1404v-0.4073l0.16292-1.059 0.24438-0.93678 0.0407-0.20365 0.32583-0.97752 0.4073-0.93678 0.48876-0.93678 0.48876-0.8146 0.57021-0.85532 0.61095-0.69241z"/>
     <path id="path43" d="m832.6 522.16-2.0772 0.16292 0.4073 0.0407 0.81459 0.48876 0.28511 0.44802 0.20365 1.0182-0.0407 0.65167-0.44803 0.85533-0.24437 0.20365-0.93679 0.32584 1.8328 0.24437 0.61095-0.81459 0.20365-0.52949 0.12218-1.0182v-0.24438l-0.20364-1.0182z"/>
     <path id="path44" d="m830.76 521.38h-0.20365l-0.97751 0.28511-0.24438 0.16291-0.73314 0.73314 0.97752 0.0407 0.93678-0.28511 2.0772-0.16292-0.0407-0.0407-0.8146-0.52948z"/>
     <path id="path45" d="m832.39 518.82-1.7514 0.32584h0.20365l0.85533 0.44803 0.40729 0.93678 1.0997-0.0815-0.24438-0.81459z"/>
     <path id="path46" d="m830.68 518.25-0.52948 0.0407-0.93679 0.32583-0.73313 0.65168-0.36657 0.57022-0.32584 0.85532-0.20365 1.059-0.0407 1.2219v0.52948l0.12219 1.1404 0.28511 0.89605 0.44803 0.69241 0.36656 0.36656 0.8146 0.48876 1.0182 0.16292 0.48876-0.0407 0.93678-0.32584 0.36657-0.28511-1.8328-0.24437-0.89605-0.28511-0.65168-0.77387-0.0407-0.0407-0.20365-1.0182 0.0815-0.52949 0.44803-0.85532 0.28511-0.24438-0.97752-0.0407v-0.0407l0.0815-1.1404 0.24438-0.85533 0.16292-0.36657 0.61095-0.73313 0.93678-0.28511 1.7514-0.32584-0.65168-0.40729z"/>
     <path id="path47" d="m839.44 522.16-2.0772 0.16292 0.36657 0.0407 0.85532 0.48876 0.28511 0.44802 0.20365 1.0182-0.0815 0.65167-0.4073 0.85533-0.24438 0.20365-0.93678 0.32584 1.7921 0.24437 0.61094-0.81459 0.20365-0.52949 0.16292-1.0182v-0.24438l-0.24438-1.0182z"/>
     <path id="path48" d="m837.57 521.38h-0.20365l-0.97751 0.28511-0.24438 0.16291-0.69241 0.73314 0.97752 0.0407 0.93678-0.28511 2.0772-0.16292-0.0407-0.0407-0.85533-0.52948z"/>
     <path id="path49" d="m839.24 518.82-1.7921 0.32584h0.24438l0.85532 0.44803 0.4073 0.93678 1.059-0.0815-0.20365-0.81459z"/>
     <path id="path50" d="m837.53 518.25-0.57022 0.0407-0.89605 0.32583-0.73314 0.65168-0.36657 0.57022-0.32583 0.85532-0.20365 1.059-0.0407 1.2219v0.52948l0.12219 1.1404 0.28511 0.89605 0.40729 0.69241 0.36657 0.36656 0.85533 0.48876 1.0182 0.16292 0.44803-0.0407 0.93678-0.32584 0.36657-0.28511-1.7921-0.24437-0.89606-0.28511-0.65167-0.77387-0.0407-0.0407-0.20365-1.0182 0.0407-0.52949 0.48876-0.85532 0.28511-0.24438-0.97752-0.0407v-0.0407l0.0815-1.1404 0.20365-0.85533 0.16292-0.36657 0.65167-0.73313 0.89606-0.28511 1.7921-0.32584-0.69241-0.40729z"/>
     <path id="path51" d="m846.24 522.16-2.0365 0.16292 0.36656 0.0407 0.85533 0.48876 0.28511 0.44802 0.20364 1.0182-0.0815 0.65167-0.4073 0.85533-0.28511 0.20365-0.89605 0.32584 1.7921 0.24437 0.61095-0.81459 0.20365-0.52949 0.16292-1.0182v-0.24438l-0.24438-1.0182z"/>
     <path id="path52" d="m844.41 521.38h-0.20364l-0.97752 0.28511-0.24438 0.16291-0.6924 0.73314 0.97751 0.0407 0.93679-0.28511 2.0365-0.16292-0.0407-0.0407-0.81459-0.52948z"/>
     <path id="path53" d="m846.04 518.82-1.7514 0.32584h0.20364l0.89606 0.44803 0.4073 0.93678 1.059-0.0815-0.24438-0.81459z"/>
     <path id="path54" d="m844.37 518.25-0.57021 0.0407-0.89606 0.32583-0.77386 0.65168-0.36657 0.57022-0.28511 0.85532-0.20365 1.059-0.0815 1.2219 0.0407 0.52948 0.12219 1.1404 0.28511 0.89605 0.4073 0.69241 0.36657 0.36656 0.85532 0.48876 0.97752 0.16292 0.48875-0.0407 0.93679-0.32584 0.36656-0.28511-1.7921-0.24437-0.89606-0.28511-0.65167-0.77387-0.0407-0.0407-0.20365-1.0182 0.0407-0.52949 0.44802-0.85532 0.32584-0.24438-0.97751-0.0407v-0.0407l0.0815-1.1404 0.20365-0.85533 0.16292-0.36657 0.65167-0.73313 0.89606-0.28511 1.7514-0.32584-0.65167-0.40729z"/>
    </g>
    <g fill="none" stroke-linecap="round" stroke-linejoin="round" stroke-width=".18109">
     <path id="path55" d="m817.93 458.54 59.832-125.73" stroke="#f0f"/>
     <path id="path56" d="m817.93 458.54-59.832-125.73" stroke="#f0f"/>
     <g stroke="#0ff">
      <path id="path57" d="m866.69 356.06v2.6474"/>
      <path id="path58" d="m866.69 360.99v1.507"/>
      <path id="path59" d="m866.69 364.73v1.507"/>
      <path id="path60" d="m866.69 368.52v1.507"/>
      <path id="path61" d="m866.69 372.27v1.507"/>
      <path id="path62" d="m866.69 376.06v1.507"/>
      <path id="path63" d="m866.69 379.8v1.507"/>
      <path id="path64" d="m866.69 383.59v1.507"/>
      <path id="path65" d="m866.69 387.34v1.507"/>
      <path id="path66" d="m866.69 391.13v1.507"/>
      <path id="path67" d="m866.69 394.87v1.507"/>
      <path id="path68" d="m866.69 398.66v1.507"/>
      <path id="path69" d="m866.69 402.41v1.507"/>
      <path id="path70" d="m866.69 406.2v1.507"/>
      <path id="path71" d="m866.69 409.94v1.507"/>
      <path id="path72" d="m866.69 413.73v1.507"/>
      <path id="path73" d="m866.69 417.48v1.507"/>
      <path id="path74" d="m866.69 421.27v1.507"/>
      <path id="path75" d="m866.69 425.01v1.507"/>
      <path id="path76" d="m866.69 428.8v1.507"/>
      <path id="path77" d="m866.69 432.55v2.7289h-2.4438"/>
      <path id="path78" d="m861.96 435.28h-1.507"/>
      <path id="path79" d="m858.22 435.28h-1.507"/>
      <path id="path80" d="m854.43 435.28h-1.507"/>
      <path id="path81" d="m850.68 435.28h-1.507"/>
      <path id="path82" d="m846.89 435.28h-1.507"/>
      <path id="path83" d="m843.15 435.28h-1.507"/>
      <path id="path84" d="m839.36 435.28h-1.507"/>
      <path id="path85" d="m835.61 435.28h-1.507"/>
      <path id="path86" d="m831.82 435.28h-1.507"/>
      <path id="path87" d="m828.08 435.28h-1.507"/>
      <path id="path88" d="m824.29 435.28h-1.507"/>
      <path id="path89" d="m820.54 435.28h-1.507"/>
      <path id="path90" d="m816.75 435.28h-1.507"/>
      <path id="path91" d="m813.01 435.28h-1.507"/>
      <path id="path92" d="m809.22 435.28h-1.507"/>
      <path id="path93" d="m805.47 435.28h-1.507"/>
      <path id="path94" d="m801.72 435.28h-1.507"/>
      <path id="path95" d="m797.94 435.28h-1.507"/>
      <path id="path96" d="m794.19 435.28h-1.507"/>
      <path id="path97" d="m790.4 435.28h-1.507"/>
      <path id="path98" d="m786.65 435.28h-1.507"/>
      <path id="path99" d="m782.87 435.28h-1.507"/>
      <path id="path100" d="m779.12 435.28h-1.507"/>
      <path id="path101" d="m775.33 435.28h-1.507"/>
      <path id="path102" d="m771.58 435.28h-2.4845"/>
      <path id="path103" d="m769.14 435.28v-2.6067"/>
      <path id="path104" d="m769.14 430.39v-1.507"/>
      <path id="path105" d="m769.14 426.64v-1.507"/>
      <path id="path106" d="m769.14 422.86v-1.507"/>
      <path id="path107" d="m769.14 419.11v-1.507"/>
      <path id="path108" d="m769.14 415.32v-1.507"/>
      <path id="path109" d="m769.14 411.57v-1.507"/>
      <path id="path110" d="m769.14 407.79v-1.507"/>
      <path id="path111" d="m769.14 404.04v-1.507"/>
      <path id="path112" d="m769.14 400.25v-1.507"/>
      <path id="path113" d="m769.14 396.5v-1.507"/>
      <path id="path114" d="m769.14 392.72v-1.507"/>
      <path id="path115" d="m769.14 388.97v-1.507"/>
      <path id="path116" d="m769.14 385.18v-1.507"/>
      <path id="path117" d="m769.14 381.43v-1.507"/>
      <path id="path118" d="m769.14 377.65v-1.507"/>
      <path id="path119" d="m769.14 373.9v-1.507"/>
      <path id="path120" d="m769.14 370.11v-1.507"/>
      <path id="path121" d="m769.14 366.36v-1.507"/>
      <path id="path122" d="m769.14 362.58v-1.507"/>
      <path id="path123" d="m769.14 358.83v-2.7289"/>
      <path id="path124" d="m769.14 356.06h2.4031"/>
      <path id="path125" d="m773.82 356.06h1.507"/>
      <path id="path126" d="m777.57 356.06h1.507"/>
      <path id="path127" d="m781.36 356.06h1.507"/>
      <path id="path128" d="m785.11 356.06h1.507"/>
      <path id="path129" d="m788.89 356.06h1.507"/>
      <path id="path130" d="m792.64 356.06h1.507"/>
      <path id="path131" d="m796.43 356.06h1.507"/>
      <path id="path132" d="m800.18 356.06h1.507"/>
      <path id="path133" d="m803.96 356.06h1.507"/>
      <path id="path134" d="m807.71 356.06h1.507"/>
      <path id="path135" d="m811.5 356.06h1.507"/>
      <path id="path136" d="m815.25 356.06h1.507"/>
      <path id="path137" d="m819.03 356.06h1.507"/>
      <path id="path138" d="m822.78 356.06h1.507"/>
      <path id="path139" d="m826.57 356.06h1.507"/>
      <path id="path140" d="m830.32 356.06h1.507"/>
      <path id="path141" d="m834.06 356.06h1.507"/>
      <path id="path142" d="m837.85 356.06h1.507"/>
      <path id="path143" d="m841.6 356.06h1.507"/>
      <path id="path144" d="m845.39 356.06h1.507"/>
      <path id="path145" d="m849.13 356.06h1.507"/>
      <path id="path146" d="m852.92 356.06h1.507"/>
      <path id="path147" d="m856.67 356.06h1.507"/>
      <path id="path148" d="m860.46 356.06h1.507"/>
      <path id="path149" d="m864.2 356.06h2.4845"/>
     </g>
     <g stroke="#212830">
      <path id="path150" d="m770.73 354.1 126.26-155.87"/>
      <path id="path151" d="m868.28 433.32 126.22-155.87"/>
      <path id="path152" d="m898.34 202.55 38.204 31.077"/>
      <path id="path153" d="m990.02 277.04-40.852-33.195"/>
     </g>
    </g>
    <g>
     <path id="path154" d="m898.7 202.06-0.77387 0.97751-2.5252-2.8511z" fill="#212830" fill-rule="evenodd"/>
     <path id="path155" d="m990.38 276.55-0.77387 0.97752 3.2991 1.8736z" fill="#212830" fill-rule="evenodd"/>
     <text id="text156" transform="translate(910.02 243.08)" fill="#000000" font-family="Arial" font-size="12.312px" font-weight="400" letter-spacing="0px" stroke-width=".18109" word-spacing="0px" style="line-height:125%" xml:space="preserve"><tspan id="tspan156" x="0" y="0" sodipodi:role="line"><tspan id="tspan155" dx="0" dy="0" fill="#212830" font-family="Arial" font-size="12.312px" font-weight="400" stroke-width=".18109">1.00000000</tspan></tspan></text>
    </g>
    <path id="path156" d="m789.14 370.11 1.0182 0.77386 1.0182 0.73314 1.0182 0.6924 1.059 0.65168" fill="none" stroke="#212830" stroke-linecap="round" stroke-linejoin="round" stroke-width=".18109"/>
    <path id="path157" d="m842.62 372.96 1.059-0.65168 1.0182-0.6924 1.0182-0.73314 1.0182-0.77386" fill="none" stroke="#212830" stroke-linecap="round" stroke-linejoin="round" stroke-width=".18109"/>
    <g fill="#212830" fill-rule="evenodd">
     <path id="path158" d="m793.62 372.27-0.77387 1.4663 4.8061 1.6699z"/>
     <path id="path159" d="m843.02 373.74-0.81459-1.4663-4.0322 3.1362z"/>
     <path id="path160" d="m801.28 381.64-0.97752 0.0815 0.24438 0.85533 0.48876 0.6924 1.6699-0.20364h-0.16292l-0.77386-0.36657-0.20365-0.20365z"/>
     <path id="path161" d="m804.62 379.4-1.9143 0.12219 0.44803 0.0407 0.6924 0.4073 0.28511 0.36656 0.16292 0.89606-0.0815 0.61094-0.36657 0.73314-0.32584 0.24438-0.81459 0.24438-1.6699 0.20364 0.0407 0.0407 0.73314 0.36657 0.89605 0.16292 0.57022-0.0815 0.77386-0.28511 0.65168-0.57021 0.0815-0.12219 0.36656-0.77387 0.12219-0.85532v-0.24438l-0.20365-0.85532z"/>
     <path id="path162" d="m802.95 378.71-0.65168 0.0815-0.77386 0.36657 2.9733 0.12219-0.69241-0.44803z"/>
     <path id="path163" d="m804.94 376.26h-3.7471l-0.73314 3.8693 0.85533 0.12219 0.57021-0.52948 0.8146-0.20365 1.9143-0.12219-0.12219-0.12219-2.9733-0.12219 0.40729-1.9958h3.014z"/>
     <path id="path164" d="m807.22 376.55-0.4073 0.44802-0.40729 0.8146-0.0815 0.32584-0.12219 0.85532-0.0815 0.97752 0.0407 0.77386 0.12219 0.93678 0.24438 0.77387 0.36656 0.57022 0.16292 0.20364 1.5477-0.16291-0.4073-0.0815-0.65167-0.52949-0.24438-0.52949-0.16292-0.81459-0.0407-1.1404 0.0407-1.0997 0.16292-0.85532 0.28511-0.57022 0.24438-0.28511 0.77386-0.2851z"/>
     <path id="path165" d="m808.61 376.14-0.61094 0.0407-0.77387 0.36657 1.3848 0.32584 0.4073 0.0815 0.65168 0.52949 0.24437 0.52949 0.16292 0.81459 0.0407 1.1404-0.0407 1.059-0.16292 0.85532-0.24437 0.57022-0.32584 0.32584-0.73314 0.28511-1.5477 0.16291 0.69241 0.44803 0.85532 0.16292 0.61095-0.0815 0.73313-0.36657 0.44803-0.44802 0.36657-0.8146 0.12219-0.32584 0.12219-0.81459 0.0407-1.0182v-0.0407l-0.0407-0.97752-0.12219-0.77386-0.12219-0.32584-0.36657-0.77387-0.0815-0.16291-0.65167-0.57022-0.20365-0.0815z"/>
     <path id="path166" d="m812.52 383.71v-1.059h1.059v1.059z"/>
     <path id="path167" d="m815.94 381.88-0.89606 0.0815 0.20365 0.69241 0.48876 0.6924 1.4663-0.2851h-0.0407l-0.77387-0.28511-0.0815-0.0815z"/>
     <path id="path168" d="m818.18 380.09-0.81459 0.24438-1.7921 0.12219 0.0407 0.0407 0.6924 0.48876 0.85533 0.16292 0.20365-0.0407 0.81459-0.24438 0.16292-0.0815 0.61095-0.65168z"/>
     <path id="path169" d="m815.61 376.83-0.20365 0.20364-0.36657 0.73314-0.12219 0.89605v0.24438l0.20365 0.85533 0.44803 0.6924 1.7921-0.12219-0.32584-0.0407-0.73314-0.40729-0.24438-0.32584-0.20364-0.85533 0.0815-0.57021 0.40729-0.73314 0.28511-0.28511 0.77387-0.24437z"/>
     <path id="path170" d="m817.28 376.14h-0.16292l-0.8146 0.20365-0.6924 0.48876 1.7921 0.0407 0.2851 0.0407 0.73314 0.44802 0.24438 0.36657 0.16292 0.89605-0.0407 0.52949-0.36657 0.73314-0.24438 0.20364 0.77387 0.0407v0.44803l-0.12219 0.89606-0.0407 0.0815-0.32584 0.77386-0.52949 0.52949-0.73313 0.20365-1.4663 0.2851 0.57021 0.32584 0.85533 0.16292 0.6924-0.0815 0.77387-0.36657 0.52948-0.52948 0.4073-0.77387 0.12219-0.44802 0.16292-0.85533 0.0407-1.0182-0.0407-0.48876-0.0815-0.93678-0.20365-0.69241-0.32584-0.52949-0.61094-0.61094-0.48876-0.24438z"/>
     <path id="path171" d="m821.76 381.64-0.97752 0.0815 0.20365 0.85533 0.52949 0.6924 1.6699-0.20364h-0.16292l-0.77386-0.36657-0.20365-0.20365z"/>
     <path id="path172" d="m825.1 379.4-1.9143 0.12219 0.44803 0.0407 0.6924 0.4073 0.28511 0.36656 0.16292 0.89606-0.0815 0.61094-0.36657 0.73314-0.32584 0.24438-0.81459 0.24438-1.6699 0.20364 0.0407 0.0407 0.73314 0.36657 0.89605 0.16292 0.57022-0.0815 0.77386-0.28511 0.65168-0.57021 0.0815-0.12219 0.36656-0.77387 0.12219-0.85532v-0.24438l-0.20365-0.85532z"/>
     <path id="path173" d="m823.43 378.71-0.65168 0.0815-0.77386 0.36657 2.9733 0.12219-0.69241-0.44803z"/>
     <path id="path174" d="m825.43 376.26h-3.7471l-0.73314 3.8693 0.85533 0.12219 0.57021-0.52948 0.8146-0.20365 1.9143-0.12219-0.12219-0.12219-2.9733-0.12219 0.40729-1.9958h3.014z"/>
     <path id="path175" d="m830.93 379.48-1.7921 0.12219 0.32584 0.0407 0.73313 0.4073 0.24438 0.36656 0.16292 0.89606-0.0407 0.57021-0.36657 0.69241-0.20364 0.20365-0.8146 0.28511 1.5477 0.20364 0.52949-0.6924 0.16292-0.44803 0.16292-0.89605-0.0407-0.20365-0.16292-0.85533z"/>
     <path id="path176" d="m829.34 378.79-0.16292 0.0407-0.85532 0.20365-0.20365 0.12219-0.61095 0.65168 0.85533 0.0407 0.77386-0.24438 1.7921-0.12219-0.0407-0.0407-0.73313-0.48876z"/>
     <path id="path177" d="m830.76 376.63-1.5477 0.24438h0.20365l0.73314 0.40729 0.36656 0.77387 0.89606-0.0407-0.16292-0.73314z"/>
     <path id="path178" d="m829.3 376.14h-0.48876l-0.77386 0.28511-0.65168 0.57021-0.28511 0.48876-0.2851 0.73314-0.16292 0.89605-0.0815 1.059 0.0407 0.44803 0.0815 0.97752 0.24438 0.77386 0.36656 0.61095 0.32584 0.2851 0.73314 0.4073 0.85532 0.16292 0.4073-0.0407 0.77386-0.28511 0.32584-0.24438-1.5477-0.20364-0.77386-0.24438-0.52949-0.65168-0.0407-0.0815-0.16292-0.81459 0.0407-0.48876 0.36657-0.73313 0.28511-0.20365-0.85533-0.0407 0.0815-1.0182 0.16292-0.73313 0.16292-0.28511 0.52949-0.65168 0.77386-0.24437 1.5477-0.24438-0.61094-0.36657z"/>
     <path id="path179" d="m833.13 376.42-0.16292 0.20365-0.24438 0.81459v0.24438l0.4073 0.77387 0.16292 0.16291 0.85532 0.24438h0.24438l0.73313-0.40729-0.97751-0.16292-0.61095-0.24438-0.2851-0.61095 0.2851-0.61094 0.61095-0.24438z"/>
     <path id="path180" d="m834.15 376.02-0.24438 0.0407-0.77386 0.36657 1.0182 0.16292 0.61095 0.24438 0.24437 0.61094-0.24437 0.61095-0.61095 0.24438 0.97751 0.16292 0.16292-0.20365 0.28511-0.8146-0.0407-0.24438-0.4073-0.77386-0.16292-0.16292z"/>
    </g>
    <g fill="none" stroke="#212830" stroke-linecap="round" stroke-linejoin="round" stroke-width=".18109">
     <path id="path181" d="m869.21 435.28h67.978"/>
     <path id="path182" d="m869.21 356.06h67.978"/>
     <path id="path183" d="m934.67 431.53v-30.751"/>
     <path id="path184" d="m934.67 359.85v30.71"/>
    </g>
    <g fill="#212830" fill-rule="evenodd">
     <path id="path185" d="m934.01 431.53h1.2626l-0.61095 3.7471z"/>
     <path id="path186" d="m934.01 359.85h1.2626l-0.61095-3.7879z"/>
     <path id="path187" d="m924.52 391.66-0.48876 0.52949-0.44803 0.93678-0.12219 0.4073-0.16292 0.97751-0.0407 1.1404v0.89605l0.16292 1.0997 0.28511 0.89606 0.4073 0.6924 0.16292 0.20365 1.8328-0.16292-0.48876-0.0815-0.77387-0.65167-0.24438-0.57022-0.20364-0.97751-0.0407-1.3441 0.0407-1.3034 0.20364-0.97751 0.28511-0.69241 0.28511-0.32583 0.93679-0.28511z"/>
     <path id="path188" d="m926.11 391.17-0.73314 0.0815-0.85532 0.4073 1.5885 0.4073 0.48875 0.0815 0.77387 0.61094 0.24438 0.61095 0.20364 0.97751 0.0407 1.3034-0.0407 1.2219-0.16291 1.0182-0.28511 0.65168-0.36657 0.4073-0.89605 0.32583-1.8328 0.16292 0.81459 0.52949 1.0182 0.16292 0.73313-0.0815 0.85533-0.4073 0.48875-0.52949 0.44803-0.93678 0.12219-0.4073 0.16292-0.93678 0.0407-1.1812v-0.0407l-0.0407-1.1404-0.16292-0.89605-0.12219-0.4073-0.4073-0.89605-0.12219-0.16292-0.77386-0.65168-0.20365-0.12219z"/>
     <path id="path189" d="m930.67 400.01v-1.2219h1.2219v1.2219z"/>
     <path id="path190" d="m938.49 395.08-2.0772 0.16292 0.4073 0.0407 0.81459 0.48876 0.28511 0.40729 0.20365 1.0182-0.0407 0.65167-0.44803 0.85533-0.24438 0.24438-0.93678 0.32583 1.8328 0.20365 0.61094-0.81459 0.20365-0.48876 0.12219-1.0182v-0.28511l-0.20365-0.97752z"/>
     <path id="path191" d="m936.66 394.3h-0.20365l-0.97751 0.28511-0.24438 0.12219-0.73314 0.73314 0.97752 0.0815 0.93678-0.28511 2.0772-0.16292-0.0407-0.0407-0.8146-0.57022z"/>
     <path id="path192" d="m938.29 391.74-1.7514 0.32584h0.20365l0.85532 0.44803 0.4073 0.93678 1.0997-0.0815-0.24438-0.85532z"/>
     <path id="path193" d="m936.58 391.17-0.52949 0.0407-0.93678 0.32584-0.73314 0.65168-0.36656 0.57021-0.32584 0.85533-0.20365 1.0182-0.0407 1.2626v0.48876l0.12219 1.1404 0.28511 0.93679 0.44802 0.6924 0.36657 0.36657 0.8146 0.48876 1.0182 0.12219h0.44803l0.97751-0.36657 0.36657-0.28511-1.8328-0.20365-0.89605-0.28511-0.65168-0.77386-0.0407-0.0815-0.20365-0.97751 0.0815-0.52949 0.44803-0.85532 0.28511-0.24438-0.97752-0.0815 0.0815-1.1812 0.24438-0.85532 0.16292-0.32584 0.61095-0.73313 0.93678-0.28511 1.7514-0.32584-0.69241-0.4073z"/>
     <path id="path194" d="m941.39 397.52-1.059 0.16292 0.2851 0.97752 0.57022 0.81459 0.0815 0.0407 0.81459 0.48876 1.0182 0.16292 0.36657-0.0407 0.97751-0.24438 0.81459-0.52949-2.1179-0.0815-0.20365-0.0407-0.89606-0.36656-0.24437-0.32584z"/>
     <path id="path195" d="m945.34 395.65-2.1179 0.0407 0.36656 0.0407 0.85533 0.44802 0.20365 0.28511 0.28511 0.97751-0.0407 0.44803-0.48876 0.85533-0.32584 0.24437-0.93678 0.28511 2.1179 0.0815 0.12219-0.12219 0.52949-0.85532 0.16292-0.97752-0.0407-0.52948-0.36657-0.89606z"/>
     <path id="path196" d="m942.57 394.87-0.12219 0.93678 0.77387-0.12218 2.1179-0.0407-0.89605-0.4073 0.16292-0.0815-1.8736-0.28511z"/>
     <path id="path197" d="m941.35 391.74-0.57022 0.69241-0.36657 1.0182 1.0997 0.16292 0.0815-0.32584 0.44802-0.85532 0.12219-0.0815 0.93679-0.28511z"/>
     <path id="path198" d="m943.06 391.17-0.89606 0.12219-0.81459 0.44803 1.7514 0.32584h0.12219l0.89605 0.36657 0.0815 0.0815 0.32584 0.89605v0.32584l-0.52949 0.81459-0.24438 0.12219-1.0182 0.20365 1.8736 0.28511 0.73313-0.69241 0.0407-0.0407 0.28511-0.97751-0.0407-0.16292-0.28511-0.97751-0.16292-0.20365-0.77386-0.65168-0.32584-0.12219z"/>
    </g>
    <g fill="none" stroke-linecap="round" stroke-linejoin="round" stroke-width=".18109">
     <g stroke="#f00">
      <path id="path199" d="m866.69 435.28-2.6882-2.1587"/>
      <path id="path200" d="m859.6 429.58-2.9325-2.403"/>
      <path id="path201" d="m852.27 423.63-2.8918-2.3623"/>
      <path id="path202" d="m844.98 417.68-2.9325-2.3623"/>
      <path id="path203" d="m837.65 411.74-2.8918-2.3623"/>
      <path id="path204" d="m830.36 405.79-2.9325-2.3623"/>
      <path id="path205" d="m823.03 399.88-2.8918-2.4031"/>
      <path id="path206" d="m815.74 393.94-2.9325-2.3623"/>
      <path id="path207" d="m808.4 387.99-2.8918-2.3623"/>
      <path id="path208" d="m801.11 382.04-2.9325-2.3623"/>
      <path id="path209" d="m793.78 376.14-2.8918-2.403"/>
      <path id="path210" d="m786.49 370.19-2.9325-2.3623"/>
      <path id="path211" d="m779.16 364.25-2.8918-2.3623"/>
      <path id="path212" d="m771.87 358.3-0.0815-0.0407-2.6882-2.1587"/>
      <path id="path213" d="m945.79 337.61-97.507-79.219"/>
      <path id="path214" d="m787.59 532.95-97.548-79.219"/>
      <path id="path215" d="m690.04 453.73 79.097-97.67"/>
      <path id="path216" d="m787.59 532.95 79.097-97.67"/>
      <path id="path217" d="m769.14 356.06 79.138-97.67"/>
      <path id="path218" d="m866.69 435.28 79.097-97.67"/>
     </g>
     <g stroke="#212830">
      <path id="path219" d="m688.09 452.14-48.305-39.263"/>
      <path id="path220" d="m846.32 256.8-48.346-39.263"/>
      <path id="path221" d="m644.1 411.53 72.58-89.605"/>
      <path id="path222" d="m797.57 222.06-72.58 89.605"/>
     </g>
    </g>
    <g fill="#212830" fill-rule="evenodd">
     <path id="path223" d="m643.61 411.17 0.97751 0.77386-2.8511 2.5252z"/>
     <path id="path224" d="m797.08 221.65 0.97751 0.8146 1.8736-3.3398z"/>
     <path id="path225" d="m689.84 313.01-0.52949 0.77387-0.24438 1.059 1.0997 0.12219 0.0815-0.44803 0.4073-0.85532 0.28511-0.20365 0.97751-0.28511z"/>
     <path id="path226" d="m691.92 312.27h-0.12219l-1.059 0.20364-0.81459 0.44803-0.0815 0.0815 2.0772 0.16292 0.32584 0.0407 0.85533 0.4073 0.16291 0.16292 0.28511 0.93678-0.0407 0.32584-0.44802 0.97751-0.28511 0.32584-0.69241 0.69241-0.97751 0.85532-0.73314 0.65168-0.65167 0.65167-0.24438 0.28511-0.48876 0.89605-0.12219 0.73314h5.8244v-1.0182h-4.3174l0.44803-0.61095 0.32584-0.28511 0.93678-0.81459 0.20365-0.16292 0.85533-0.77387 0.81459-0.81459 0.48876-0.85533 0.0407-0.0407 0.20365-1.0182-0.20365-0.89605-0.57022-0.8146-0.0815-0.12219-0.85532-0.44803z"/>
     <path id="path227" d="m696.44 321.11v-1.2219h1.2219v1.2219z"/>
     <path id="path228" d="m700.51 312.8-0.44803 0.52949-0.48876 0.93678-0.12218 0.4073-0.16292 0.93678-0.0407 1.1812 0.0407 0.85532 0.16292 1.0997 0.24437 0.93679 0.4073 0.6924 0.20365 0.20365 1.7921-0.20365-0.44803-0.0815-0.77386-0.61094-0.28511-0.61095-0.16292-0.97751-0.0815-1.3034 0.0815-1.3034 0.16292-0.97752 0.32584-0.6924 0.2851-0.32584 0.89606-0.32584z"/>
     <path id="path229" d="m702.1 312.27-0.69241 0.0815-0.89605 0.44802 1.5885 0.36657 0.48876 0.0815 0.77386 0.65168 0.28511 0.57021 0.16292 0.97752 0.0815 1.3441-0.0815 1.1812-0.16292 1.0182-0.28511 0.69241-0.36657 0.4073-0.89605 0.2851-1.7921 0.20365 0.81459 0.52949 0.97752 0.16292 0.77386-0.0815 0.85533-0.44803 0.44803-0.48875 0.48875-0.97752 0.12219-0.36657 0.16292-0.97751 0.0407-1.1404v-0.0407l-0.0407-1.1404-0.16292-0.89605-0.12219-0.4073-0.40729-0.89605-0.12219-0.20365-0.77387-0.65168-0.24438-0.0815z"/>
     <path id="path230" d="m707.35 312.8-0.48876 0.52949-0.44803 0.93678-0.12219 0.4073-0.16292 0.93678-0.0407 1.1812v0.85532l0.16292 1.0997 0.28511 0.93679 0.4073 0.6924 0.20365 0.20365 1.7921-0.20365-0.48876-0.0815-0.77387-0.61094-0.24438-0.61095-0.20364-0.97751-0.0407-1.3034 0.0815-1.3034 0.16291-0.97752 0.32584-0.6924 0.28511-0.32584 0.89606-0.32584z"/>
     <path id="path231" d="m708.94 312.27-0.73314 0.0815-0.85532 0.44802 1.5885 0.36657 0.48875 0.0815 0.77387 0.65168 0.24438 0.57021 0.20364 0.97752 0.0407 1.3441-0.0407 1.1812-0.16291 1.0182-0.28511 0.69241-0.36657 0.4073-0.89605 0.2851-1.7921 0.20365 0.77386 0.52949 1.0182 0.16292 0.73313-0.0815 0.85533-0.44803 0.48875-0.48875 0.48876-0.97752 0.0815-0.36657 0.16292-0.97751 0.0407-1.1404v-0.0407l-0.0407-1.1404-0.12219-0.89605-0.12219-0.4073-0.44803-0.89605-0.12219-0.20365-0.73313-0.65168-0.24438-0.0815z"/>
     <path id="path232" d="m714.2 312.8-0.48876 0.52949-0.48875 0.93678-0.0815 0.4073-0.16292 0.93678-0.0815 1.1812 0.0407 0.85532 0.16292 1.0997 0.28511 0.93679 0.40729 0.6924 0.16292 0.20365 1.8328-0.20365-0.48876-0.0815-0.77386-0.61094-0.24438-0.61095-0.20365-0.97751-0.0407-1.3034 0.0407-1.3034 0.20365-0.97752 0.28511-0.6924 0.28511-0.32584 0.93678-0.32584z"/>
     <path id="path233" d="m715.78 312.27-0.73313 0.0815-0.85533 0.44802 1.5885 0.36657 0.48876 0.0815 0.77386 0.65168 0.24438 0.57021 0.16292 0.97752 0.0815 1.3441-0.0407 1.1812-0.16292 1.0182-0.28511 0.69241-0.40729 0.4073-0.85533 0.2851-1.8328 0.20365 0.8146 0.52949 1.0182 0.16292 0.73314-0.0815 0.85532-0.44803 0.48876-0.48875 0.44803-0.97752 0.12218-0.36657 0.16292-0.97751 0.0407-1.1404v-0.0407l-0.0407-1.1404-0.16292-0.89605-0.12218-0.4073-0.4073-0.89605-0.12219-0.20365-0.77387-0.65168-0.20364-0.0815z"/>
     <path id="path234" d="m721 312.8-0.44803 0.52949-0.48876 0.93678-0.12218 0.4073-0.16292 0.93678-0.0407 1.1812 0.0407 0.85532 0.16292 1.0997 0.24437 0.93679 0.4073 0.6924 0.20365 0.20365 1.7921-0.20365-0.44803-0.0815-0.77386-0.61094-0.28511-0.61095-0.16292-0.97751-0.0815-1.3034 0.0815-1.3034 0.16292-0.97752 0.32584-0.6924 0.2851-0.32584 0.89606-0.32584z"/>
     <path id="path235" d="m722.59 312.27-0.69241 0.0815-0.89605 0.44802 1.5885 0.36657 0.48876 0.0815 0.77386 0.65168 0.28511 0.57021 0.16292 0.97752 0.0815 1.3441-0.0815 1.1812-0.16292 1.0182-0.28511 0.69241-0.36657 0.4073-0.89605 0.2851-1.7921 0.20365 0.81459 0.52949 0.97752 0.16292 0.77386-0.0815 0.85533-0.44803 0.48876-0.48875 0.44802-0.97752 0.12219-0.36657 0.16292-0.97751 0.0407-1.1404v-0.0407l-0.0407-1.1404-0.16292-0.89605-0.12219-0.4073-0.4073-0.89605-0.12218-0.20365-0.77387-0.65168-0.24438-0.0815z"/>
     <path id="path236" d="m727.84 312.8-0.48876 0.52949-0.44803 0.93678-0.12219 0.4073-0.16292 0.93678-0.0407 1.1812 0.0407 0.85532 0.12219 1.0997 0.28511 0.93679 0.4073 0.6924 0.20365 0.20365 1.7921-0.20365-0.48876-0.0815-0.73314-0.61094-0.28511-0.61095-0.16291-0.97751-0.0815-1.3034 0.0815-1.3034 0.16291-0.97752 0.32584-0.6924 0.28511-0.32584 0.89606-0.32584z"/>
     <path id="path237" d="m729.43 312.27-0.73314 0.0815-0.85532 0.44802 1.5885 0.36657 0.48875 0.0815 0.77387 0.65168 0.24438 0.57021 0.20364 0.97752 0.0407 1.3441-0.0407 1.1812-0.16291 1.0182-0.28511 0.69241-0.36657 0.4073-0.89605 0.2851-1.7921 0.20365 0.77386 0.52949 1.0182 0.16292 0.73313-0.0815 0.85532-0.44803 0.48876-0.48875 0.48876-0.97752 0.0815-0.36657 0.16292-0.97751 0.0815-1.1404v-0.0407l-0.0815-1.1404-0.12219-0.89605-0.12219-0.4073-0.44803-0.89605-0.12219-0.20365-0.73313-0.65168-0.24438-0.0815z"/>
     <path id="path238" d="m734.68 312.8-0.48876 0.52949-0.48875 0.93678-0.0815 0.4073-0.16292 0.93678-0.0815 1.1812 0.0407 0.85532 0.16292 1.0997 0.28511 0.93679 0.40729 0.6924 0.16292 0.20365 1.8328-0.20365-0.48876-0.0815-0.77386-0.61094-0.24438-0.61095-0.20365-0.97751-0.0407-1.3034 0.0407-1.3034 0.20365-0.97752 0.28511-0.6924 0.28511-0.32584 0.93678-0.32584z"/>
     <path id="path239" d="m736.27 312.27-0.73313 0.0815-0.85533 0.44802 1.5885 0.36657 0.48876 0.0815 0.77386 0.65168 0.24438 0.57021 0.20365 0.97752 0.0407 1.3441-0.0407 1.1812-0.16292 1.0182-0.28511 0.69241-0.40729 0.4073-0.85533 0.2851-1.8328 0.20365 0.8146 0.52949 1.0182 0.16292 0.73314-0.0815 0.85532-0.44803 0.48876-0.48875 0.44803-0.97752 0.12218-0.36657 0.16292-0.97751 0.0407-1.1404v-0.0407l-0.0407-1.1404-0.16292-0.89605-0.12218-0.4073-0.4073-0.89605-0.12219-0.20365-0.77387-0.65168-0.20364-0.0815z"/>
     <path id="path240" d="m741.53 312.8-0.48876 0.52949-0.48876 0.93678-0.12218 0.4073-0.16292 0.93678-0.0407 1.1812 0.0407 0.85532 0.16292 1.0997 0.24437 0.93679 0.4073 0.6924 0.20365 0.20365 1.8328-0.20365-0.48876-0.0815-0.77386-0.61094-0.28511-0.61095-0.16292-0.97751-0.0815-1.3034 0.0815-1.3034 0.16292-0.97752 0.32584-0.6924 0.2851-0.32584 0.89606-0.32584z"/>
     <path id="path241" d="m743.11 312.27-0.73314 0.0815-0.85532 0.44802 1.5477 0.36657 0.48876 0.0815 0.77386 0.65168 0.28511 0.57021 0.16292 0.97752 0.0815 1.3441-0.0815 1.1812-0.16292 1.0182-0.28511 0.69241-0.36657 0.4073-0.85532 0.2851-1.8328 0.20365 0.81459 0.52949 1.0182 0.16292 0.73313-0.0815 0.85533-0.44803 0.48875-0.48875 0.44803-0.97752 0.12219-0.36657 0.16292-0.97751 0.0407-1.1404v-0.0407l-0.0407-1.1404-0.16292-0.89605-0.12219-0.4073-0.4073-0.89605-0.12218-0.20365-0.77387-0.65168-0.24438-0.0815z"/>
     <path id="path242" d="m748.33 312.8-0.48876 0.52949-0.44803 0.93678-0.12219 0.4073-0.16292 0.93678-0.0407 1.1812 0.0407 0.85532 0.12219 1.0997 0.28511 0.93679 0.4073 0.6924 0.20365 0.20365 1.7921-0.20365-0.44802-0.0815-0.77387-0.61094-0.28511-0.61095-0.16291-0.97751-0.0815-1.3034 0.0815-1.3034 0.16291-0.97752 0.32584-0.6924 0.28511-0.32584 0.89605-0.32584z"/>
     <path id="path243" d="m749.92 312.27-0.73313 0.0815-0.85532 0.44802 1.5884 0.36657 0.48876 0.0815 0.77387 0.65168 0.24438 0.57021 0.20364 0.97752 0.0407 1.3441-0.0407 1.1812-0.16291 1.0182-0.28511 0.69241-0.36657 0.4073-0.89606 0.2851-1.7921 0.20365 0.77386 0.52949 1.0182 0.16292 0.73314-0.0815 0.85532-0.44803 0.48876-0.48875 0.48876-0.97752 0.0815-0.36657 0.16292-0.97751 0.0815-1.1404v-0.0407l-0.0815-1.1404-0.12219-0.89605-0.12219-0.4073-0.44803-0.89605-0.12219-0.20365-0.73313-0.65168-0.24438-0.0815z"/>
    </g>
    <g fill="none" stroke="#212830" stroke-linecap="round" stroke-linejoin="round" stroke-width=".18109">
     <path id="path244" d="m850.72 258.92 155.1 34.376"/>
     <path id="path245" d="m790.03 533.52 155.1 34.376"/>
     <path id="path246" d="m1002.5 296.43-28.144 127.36"/>
     <path id="path247" d="m943.5 563.66 28.633-129.6"/>
    </g>
    <g fill="#212830" fill-rule="evenodd">
     <path id="path248" d="m1001.9 296.31 1.2219 0.28511 0.2036-3.8286z"/>
     <path id="path249" d="m942.89 563.5 1.2219 0.28511-1.4255 3.5435z"/>
     <path id="path250" d="m952.51 425.14-0.52949 0.77386-0.24438 1.059 1.0997 0.12219 0.0815-0.44803 0.40729-0.85533 0.28511-0.20364 0.97751-0.28511z"/>
     <path id="path251" d="m954.58 424.4h-0.12218l-1.059 0.20365-0.81459 0.44803-0.0815 0.0815 2.0772 0.16292 0.32584 0.0407 0.85533 0.40729 0.16292 0.16292 0.2851 0.93679-0.0407 0.32584-0.44802 0.97751-0.28511 0.32584-0.69241 0.6924-0.97751 0.85533-0.73314 0.65167-0.65167 0.65168-0.24438 0.28511-0.48876 0.89605-0.12219 0.73314h5.8244v-1.0182h-4.3174l0.44803-0.61094 0.32584-0.28511 0.93678-0.8146 0.20365-0.16291 0.85533-0.77387 0.61094-0.61095 0.16292-0.20364 0.52949-0.85533 0.0407-0.0407 0.20365-1.0182-0.20365-0.89606-0.57022-0.81459-0.0815-0.12219-0.85532-0.44803z"/>
     <path id="path252" d="m959.1 433.24v-1.2219h1.2219v1.2219z"/>
     <path id="path253" d="m962.77 425.14-0.52948 0.77386-0.24438 1.059 1.0997 0.12219 0.0407-0.44803 0.44803-0.85533 0.24438-0.20364 0.97751-0.28511z"/>
     <path id="path254" d="m964.85 424.4h-0.16292l-1.0182 0.20365-0.8146 0.44803-0.0815 0.0815 2.0365 0.16292 0.32584 0.0407 0.89605 0.40729 0.12219 0.16292 0.32584 0.93679-0.0407 0.32584-0.48876 0.97751-0.28511 0.32584-0.6924 0.6924-0.93679 0.85533-0.77386 0.65167-0.65168 0.65168-0.20365 0.28511-0.48875 0.89605-0.12219 0.73314h5.7836v-1.0182h-4.3174l0.48876-0.61094 0.2851-0.28511 0.93679-0.8146 0.20365-0.16291 0.89605-0.77387 0.57022-0.61095 0.20365-0.20364 0.52948-0.85533v-0.0407l0.20365-1.0182-0.16292-0.89606-0.57021-0.81459-0.12219-0.12219-0.8146-0.44803z"/>
     <path id="path255" d="m969.82 430.8-1.059 0.12219v0.0407l0.28511 0.97752 0.57022 0.77386 0.0815 0.0407 0.81459 0.48876 1.0182 0.16292h0.36656l0.97752-0.24438 0.81459-0.57022-2.1179-0.0815h-0.20365l-0.89606-0.4073-0.24437-0.2851z"/>
     <path id="path256" d="m973.77 428.92-2.1179 0.0407 0.36656 0.0407 0.85533 0.44803 0.24438 0.28511 0.24438 0.93678-0.0407 0.44803-0.48876 0.85533-0.32584 0.2851-0.93678 0.24438 2.1179 0.0815 0.12219-0.12219 0.52949-0.81459 0.16292-0.97752-0.0407-0.52948-0.36657-0.89606z"/>
     <path id="path257" d="m971 428.15-0.12219 0.93678 0.77387-0.12219 2.1179-0.0407-0.89605-0.44802 0.16292-0.0815-1.8736-0.24438z"/>
     <path id="path258" d="m969.78 425.01-0.57022 0.6924-0.32584 0.97752 1.059 0.20365 0.0815-0.36657 0.44802-0.8146 0.12219-0.0814 0.93679-0.32584z"/>
     <path id="path259" d="m971.49 424.4-0.85533 0.16292-0.85532 0.44803 1.7514 0.28511h0.16292l0.89605 0.40729 0.0407 0.0407 0.32584 0.93679v0.32584l-0.52949 0.77386-0.24438 0.16292-1.0182 0.20365 1.8736 0.24438 0.73313-0.65168 0.0407-0.0815 0.28511-0.93678-0.0407-0.20365-0.28511-0.93678-0.16292-0.20365-0.77386-0.65168-0.32584-0.12219z"/>
     <path id="path260" d="m980.57 428.35-2.0365 0.16292 0.36657 0.0407 0.85532 0.44802 0.28511 0.44803 0.20365 1.0182-0.0815 0.65168-0.4073 0.85533-0.2851 0.24437-0.89606 0.28511 1.7921 0.24438 0.61095-0.81459 0.20365-0.52949 0.16291-1.0182v-0.24438l-0.24437-0.97752z"/>
     <path id="path261" d="m978.74 427.54h-0.20365l-0.97751 0.28511-0.24438 0.16292-0.69241 0.73314 0.93679 0.0407 0.97751-0.24438 2.0365-0.16292-0.0407-0.0407-0.8146-0.57022z"/>
     <path id="path262" d="m980.36 425.01-1.7514 0.28511 0.20365 0.0407 0.89605 0.44802 0.4073 0.89606 1.059-0.0815-0.24438-0.8146z"/>
     <path id="path263" d="m978.69 424.4-0.57022 0.0407-0.89605 0.32584-0.77386 0.65168-0.36657 0.57021-0.28511 0.85533-0.20365 1.059-0.0815 1.2219 0.0407 0.52949 0.12219 1.1404 0.28511 0.93679 0.4073 0.6924 0.36656 0.32584 0.85533 0.48876 0.97751 0.16292 0.48876-0.0407 0.93678-0.32584 0.36657-0.28511-1.7921-0.24438-0.89605-0.24438v-0.0407l-0.65168-0.73313-0.0407-0.0815-0.20365-1.0182 0.0407-0.52949 0.44803-0.85533 0.28511-0.24437-0.93679-0.0407 0.0815-1.1812 0.20365-0.85532 0.16292-0.32584 0.65168-0.77386 0.89605-0.28511 1.7514-0.28511-0.65168-0.4073z"/>
     <path id="path264" d="m983.66 424.93-0.44803 0.52949-0.48875 0.93678-0.12219 0.4073-0.16292 0.93678-0.0407 1.1812 0.0407 0.85533 0.16292 1.0997 0.24437 0.93679 0.4073 0.6924 0.20365 0.20365 1.7921-0.20365-0.44803-0.0815-0.77386-0.61094-0.28511-0.61095-0.16292-0.97751-0.0815-1.3034 0.0815-1.3034 0.16292-0.97751 0.32584-0.69241 0.28511-0.32583 0.89605-0.32584z"/>
     <path id="path265" d="m985.25 424.4-0.69241 0.0815-0.89605 0.44803 1.5885 0.36657 0.48876 0.0815 0.77386 0.65167 0.28511 0.57022 0.16292 0.97751 0.0815 1.3441-0.0815 1.1812-0.16292 1.0182-0.28511 0.69241-0.36657 0.40729-0.89605 0.28511-1.7921 0.20365 0.8146 0.52949 0.97751 0.16292 0.77386-0.0815 0.85533-0.44803 0.48876-0.48876 0.44802-0.97751 0.12219-0.36657 0.16292-0.97751 0.0407-1.1404v-0.0407l-0.0407-1.1404-0.16292-0.89605-0.12219-0.4073-0.40729-0.89605-0.12219-0.20365-0.77387-0.65168-0.24438-0.0815z"/>
     <path id="path266" d="m994.99 424.57h-5.6614v1.059h4.2766l-0.4073 0.48875-0.57022 0.85533-0.57021 0.93678-0.44803 0.89606-0.36657 0.97751-0.28511 0.97751-0.16292 0.52949-0.16291 1.059-0.0815 0.89606h1.0997l0.0407-0.4073 0.12219-1.0182 0.24438-0.97752 0.0815-0.20365 0.32583-0.97751 0.4073-0.93678 0.44803-0.93679 0.48876-0.81459 0.61094-0.85533 0.57022-0.6924z"/>
    </g>
    <g fill="none" stroke-linecap="round" stroke-linejoin="round" stroke-width=".18109">
     <g stroke="#0ff">
      <path id="path267" d="m787.59 532.95 0.36656-1.7106"/>
      <path id="path268" d="m788.45 529.04 0.32584-1.4663"/>
      <path id="path269" d="m789.26 525.37 0.32584-1.4663"/>
      <path id="path270" d="m790.08 521.67 0.32584-1.4663"/>
      <path id="path271" d="m790.89 518 0.32584-1.4663"/>
      <path id="path272" d="m791.7 514.34 0.32584-1.4663"/>
      <path id="path273" d="m792.52 510.63 0.32584-1.4663"/>
      <path id="path274" d="m793.33 506.96 0.32584-1.4663"/>
      <path id="path275" d="m794.15 503.3 0.32584-1.4663"/>
      <path id="path276" d="m794.96 499.63 0.32584-1.507"/>
      <path id="path277" d="m795.74 495.93 0.32584-1.4663"/>
      <path id="path278" d="m796.55 492.26 0.32584-1.4663"/>
      <path id="path279" d="m797.37 488.59 0.32584-1.507"/>
      <path id="path280" d="m798.18 484.89 0.32584-1.4663"/>
      <path id="path281" d="m799 481.22 0.32584-1.4663"/>
      <path id="path282" d="m799.81 477.56 0.32584-1.4663"/>
      <path id="path283" d="m800.62 473.85 0.32584-1.4663"/>
      <path id="path284" d="m801.44 470.18 0.32584-1.4663"/>
      <path id="path285" d="m802.25 466.52 0.32584-1.4663"/>
      <path id="path286" d="m803.07 462.81 0.32584-1.4663"/>
      <path id="path287" d="m803.88 459.15 0.32584-1.4663"/>
      <path id="path288" d="m804.7 455.48 0.32583-1.4663"/>
      <path id="path289" d="m805.51 451.77 0.32584-1.4663"/>
      <path id="path290" d="m806.33 448.11 0.32583-1.4663"/>
      <path id="path291" d="m807.14 444.44 0.32584-1.4663"/>
      <path id="path292" d="m807.96 440.78 0.32583-1.507"/>
      <path id="path293" d="m808.77 437.07 0.32584-1.4663"/>
      <path id="path294" d="m809.59 433.41 0.32583-1.4663"/>
      <path id="path295" d="m810.4 429.74 0.32584-1.507"/>
      <path id="path296" d="m811.21 426.03 0.32583-1.4663"/>
      <path id="path297" d="m812.03 422.37 0.32584-1.4663"/>
      <path id="path298" d="m812.84 418.7 0.32583-1.4663"/>
      <path id="path299" d="m813.66 415 0.32584-1.4663"/>
      <path id="path300" d="m814.47 411.33 0.32584-1.4663"/>
      <path id="path301" d="m815.29 407.66 0.32584-1.4663"/>
      <path id="path302" d="m816.1 403.96 0.32584-1.4663"/>
      <path id="path303" d="m816.92 400.29 0.28511-1.4663"/>
      <path id="path304" d="m817.69 396.63 0.32584-1.4663"/>
      <path id="path305" d="m818.5 392.92 0.32584-1.4663"/>
      <path id="path306" d="m819.32 389.25 0.32584-1.4663"/>
      <path id="path307" d="m820.13 385.59 0.32584-1.4663"/>
      <path id="path308" d="m820.95 381.92 0.32584-1.507"/>
      <path id="path309" d="m821.76 378.22 0.32584-1.4663"/>
      <path id="path310" d="m822.58 374.55 0.32584-1.4663"/>
      <path id="path311" d="m823.39 370.89 0.32584-1.507"/>
      <path id="path312" d="m824.21 367.18 0.32584-1.4663"/>
      <path id="path313" d="m825.02 363.51 0.32584-1.4663"/>
      <path id="path314" d="m825.84 359.85 0.32584-1.507"/>
      <path id="path315" d="m826.65 356.14 0.32584-1.4663"/>
      <path id="path316" d="m827.47 352.48 0.32584-1.4663"/>
      <path id="path317" d="m828.28 348.81 0.32583-1.4663"/>
      <path id="path318" d="m829.09 345.1 0.32584-1.4663"/>
      <path id="path319" d="m829.91 341.44 0.32583-1.4663"/>
      <path id="path320" d="m830.72 337.77 0.32584-1.4663"/>
      <path id="path321" d="m831.54 334.07 0.32583-1.4663"/>
      <path id="path322" d="m832.35 330.4 0.32584-1.4663"/>
      <path id="path323" d="m833.17 326.73 0.32583-1.4663"/>
      <path id="path324" d="m833.98 323.03 0.32584-1.4663"/>
      <path id="path325" d="m834.8 319.36 0.32583-1.4663"/>
      <path id="path326" d="m835.61 315.7 0.32584-1.4663"/>
      <path id="path327" d="m836.43 312.03 0.32583-1.507"/>
      <path id="path328" d="m837.24 308.32 0.32584-1.4663"/>
      <path id="path329" d="m838.06 304.66 0.32584-1.4663"/>
      <path id="path330" d="m838.83 300.99 0.32584-1.507"/>
      <path id="path331" d="m839.64 297.29 0.32584-1.4663"/>
      <path id="path332" d="m840.46 293.62 0.32584-1.4663"/>
      <path id="path333" d="m841.27 289.96 0.32584-1.4663"/>
      <path id="path334" d="m842.09 286.25 0.32584-1.4663"/>
      <path id="path335" d="m842.9 282.58 0.32584-1.4663"/>
      <path id="path336" d="m843.72 278.92 0.32584-1.4663"/>
      <path id="path337" d="m844.53 275.21 0.32584-1.4663"/>
      <path id="path338" d="m845.35 271.55 0.32584-1.4663"/>
      <path id="path339" d="m846.16 267.88 0.32584-1.4663"/>
      <path id="path340" d="m846.97 264.17 0.32584-1.4663"/>
      <path id="path341" d="m847.79 260.51 0.0815-0.36656 0.4073-1.7106"/>
     </g>
     <g stroke="#212830">
      <path id="path342" d="m755.13 330.28v-22.564"/>
      <path id="path343" d="m880.7 330.28v-22.564"/>
      <path id="path344" d="m758.92 310.2h52.664"/>
      <path id="path345" d="m876.95 310.2h-42.115"/>
     </g>
    </g>
    <g fill="#212830" fill-rule="evenodd">
     <path id="path346" d="m758.92 309.59v1.2626l-3.7879-0.65167z"/>
     <path id="path347" d="m876.95 309.59v1.2626l3.7471-0.65167z"/>
     <path id="path348" d="m813.13 307.39-0.89605 0.52948v1.0182l0.20365-0.0407 0.93678-0.48876 0.20365-0.16292 0.8146-0.61094z"/>
     <path id="path349" d="m815.45 305.72h-0.69241l-0.20365 0.36657-0.73313 0.77386-0.69241 0.52949 1.2626 0.24438v6.924h1.059z"/>
     <path id="path350" d="m818.83 314.56v-1.2626h1.2219v1.2626z"/>
     <path id="path351" d="m822.9 306.21-0.48876 0.52949-0.44802 0.93678-0.12219 0.4073-0.16292 0.93679-0.0407 1.1812 0.0407 0.89605 0.12219 1.0997 0.28511 0.89605 0.40729 0.69241 0.20365 0.20364 1.7921-0.20364-0.44803-0.0815-0.77386-0.61095-0.28511-0.61095-0.16292-0.97751-0.0815-1.3034 0.0815-1.3034 0.16292-0.97752 0.32584-0.6924 0.28511-0.32584 0.89605-0.28511z"/>
     <path id="path352" d="m824.49 305.72-0.73313 0.0815-0.85533 0.40729 1.5885 0.4073 0.48876 0.0815 0.77386 0.61095 0.28511 0.61094 0.16292 0.97752 0.0407 1.3034-0.0407 1.2219-0.16292 0.97751-0.28511 0.69241-0.36656 0.4073-0.89606 0.28511-1.7921 0.20364 0.77387 0.52949 1.0182 0.16292 0.73314-0.0815 0.89605-0.44803 0.44803-0.48875 0.48875-0.97752 0.0815-0.36656 0.16292-0.93679 0.0815-1.1812v-0.0407l-0.0815-1.1404-0.12219-0.89606-0.12219-0.4073-0.44802-0.89605-0.0815-0.16292-0.77387-0.6924-0.24438-0.0815z"/>
     <path id="path353" d="m829.75 306.21-0.48876 0.52949-0.44803 0.93678-0.12219 0.4073-0.16291 0.93679-0.0407 1.1812v0.89605l0.16291 1.0997 0.28511 0.89605 0.4073 0.69241 0.20365 0.20364 1.7921-0.20364-0.48876-0.0815-0.77386-0.61095-0.24438-0.61095-0.20365-0.97751-0.0407-1.3034 0.0407-1.3034 0.20365-0.97752 0.32584-0.6924 0.24437-0.32584 0.93679-0.28511z"/>
     <path id="path354" d="m831.33 305.72-0.73314 0.0815-0.85532 0.40729 1.5885 0.4073 0.48875 0.0815 0.77387 0.61095 0.24438 0.61094 0.20365 0.97752 0.0407 1.3034-0.0407 1.2219-0.16292 0.97751-0.28511 0.69241-0.36657 0.4073-0.89605 0.28511-1.7921 0.20364 0.77386 0.52949 1.0182 0.16292 0.73313-0.0815 0.85533-0.44803 0.48875-0.48875 0.48876-0.97752 0.0815-0.36656 0.16292-0.93679 0.0407-1.1812v-0.0407l-0.0407-1.1404-0.16292-0.89606-0.12219-0.4073-0.4073-0.89605-0.12219-0.16292-0.77386-0.6924-0.20365-0.0815z"/>
    </g>
    <path id="path355" d="m731.22 450.06h5.4985l25.863-17.351" fill="none" stroke="#212830" stroke-linecap="round" stroke-linejoin="round" stroke-width=".18109"/>
    <g fill="#212830" fill-rule="evenodd">
     <path id="path356" d="m703.93 450.39-2.0365 0.0815 0.65168 0.0407 0.52948 0.24438 0.57022 0.57021 0.20365 0.28511 0.65167 0.93678 1.1404 1.8328h1.4663l-1.507-2.403-0.32584-0.4073-0.65168-0.77386z"/>
     <path id="path357" d="m705.85 446.4-2.5252 0.16292 0.61095 0.0407 0.81459 0.36657 0.12219 0.0815 0.32584 0.93678-0.24438 0.77387-0.65168 0.52949-0.20364 0.0815-1.059 0.0815h-2.4845l5.2541 0.12219 0.40729-0.61094 0.20365-0.97752-0.0407-0.36656-0.32584-0.97752z"/>
     <path id="path358" d="m703.28 445.58h-3.91v8.7976h1.1812v-3.91h1.3441l2.0365-0.0815 0.0407-0.0407 1.059-0.28511 0.77387-0.48876-5.2541-0.12219v-2.8918h2.7696l2.5252-0.16292-0.77386-0.57021-0.65168-0.16292z"/>
     <path id="path359" d="m709.06 446.07-0.48875 0.48875-0.44803 0.97752-0.12219 0.36656-0.16292 0.97752-0.0407 1.1404v0.89605l0.16292 1.0997 0.28511 0.89605 0.4073 0.69241 0.20365 0.24438 1.7921-0.20365-0.48875-0.0815-0.77387-0.65168-0.24438-0.57021-0.20364-0.97752-0.0407-1.3441 0.0407-1.2626 0.20364-1.0182 0.32584-0.6924 0.24438-0.28511 0.93678-0.32584z"/>
     <path id="path360" d="m710.65 445.54-0.73313 0.0815-0.85533 0.44803 1.5885 0.36656 0.48876 0.0815 0.77387 0.65168 0.24437 0.57021 0.20365 0.97752 0.0407 1.3034-0.0407 1.2219-0.16292 1.0182-0.2851 0.65167-0.36657 0.4073-0.89606 0.32584-1.7921 0.20365 0.77386 0.48875 1.0182 0.20365 0.73314-0.0815 0.85532-0.44802 0.48876-0.52949 0.48876-0.93679 0.0815-0.36656 0.16292-0.97752 0.0407-1.1812v-0.0407l-0.0407-1.1404-0.16292-0.89606-0.12219-0.40729-0.4073-0.89606-0.12219-0.16292-0.77386-0.65167-0.20365-0.12219z"/>
     <path id="path361" d="m715.21 454.38v-1.2219h1.2219v1.2219z"/>
     <path id="path362" d="m719.17 451.98-1.1404 0.0815v0.0407l0.28511 0.97751 0.57021 0.77387 1.955-0.20365h-0.20365l-0.89605-0.4073-0.20365-0.28511z"/>
     <path id="path363" d="m723.08 449.33-2.2401 0.16292 0.52949 0.0815 0.81459 0.44803 0.32584 0.44803 0.20365 1.0182-0.0815 0.73314-0.44803 0.81459-0.4073 0.32584-0.93678 0.28511-1.955 0.20365 0.0815 0.0815 0.85533 0.44802 1.0182 0.16292 0.69241-0.0815 0.89605-0.32584 0.73313-0.6924 0.12219-0.12219 0.44803-0.89605 0.12219-1.0182v-0.28511l-0.24438-0.97751z"/>
     <path id="path364" d="m721.12 448.56-0.73314 0.0815-0.93678 0.44803 3.5028 0.16292-0.85533-0.52949z"/>
     <path id="path365" d="m723.44 445.71h-4.3581l-0.85532 4.521 1.0182 0.12219 0.65168-0.61095 0.93678-0.24438 2.2401-0.16292-0.12219-0.0814-3.5028-0.16292 0.48876-2.3623h3.5028z"/>
     <path id="path366" d="m726.13 446.07-0.48876 0.48875-0.44803 0.97752-0.12219 0.36656-0.16292 0.97752-0.0407 1.1404v0.89605l0.16292 1.0997 0.28511 0.89605 0.4073 0.69241 0.20365 0.24438 1.7921-0.20365-0.48876-0.0815-0.77387-0.65168-0.24437-0.57021-0.20365-0.97752-0.0407-1.3441 0.0407-1.2626 0.20365-1.0182 0.32583-0.6924 0.28511-0.28511 0.89606-0.32584z"/>
     <path id="path367" d="m727.72 445.54-0.73314 0.0815-0.85532 0.44803 1.5885 0.36656 0.48875 0.0815 0.77387 0.65168 0.24438 0.57021 0.20365 0.97752 0.0407 1.3034-0.0407 1.2219-0.16292 1.0182-0.28511 0.65167-0.36657 0.4073-0.89605 0.32584-1.7921 0.20365 0.77386 0.48875 1.0182 0.20365 0.73313-0.0815 0.85533-0.44802 0.48875-0.52949 0.48876-0.93679 0.0815-0.36656 0.16292-0.97752 0.0407-1.1812v-0.0407l-0.0407-1.1404-0.12219-0.89606-0.12219-0.40729-0.44803-0.89606-0.12219-0.16292-0.73313-0.65167-0.24438-0.12219z"/>
     <path id="path368" d="m762.26 432.22 0.6924 1.0182 2.7696-2.6067z"/>
    </g>
    <g fill="none" stroke="#212830" stroke-linecap="round" stroke-linejoin="round" stroke-width=".18109">
     <path id="path369" d="m758.1 461.06v13.563"/>
     <path id="path370" d="m755.13 461.06v13.563"/>
     <path id="path371" d="m761.85 472.1h3.7879"/>
     <path id="path372" d="m751.38 472.1h-3.7879"/>
    </g>
    <g fill="#212830" fill-rule="evenodd">
     <path id="path373" d="m761.85 471.49v1.2626l-3.7471-0.65168z"/>
     <path id="path374" d="m751.38 471.49v1.2626l3.7471-0.65168z"/>
     <path id="path375" d="m698.11 468.11-0.44802 0.52948-0.48876 0.93679-0.12219 0.40729-0.16292 0.93679-0.0407 1.1812 0.0407 0.89605 0.16292 1.0997 0.24438 0.89605 0.4073 0.69241 0.20365 0.20365 1.8328-0.20365-0.48875-0.0815-0.77387-0.61095-0.28511-0.61094-0.16292-0.97752-0.0815-1.3034 0.0815-1.3034 0.16292-0.97752 0.32584-0.6924 0.28511-0.32584 0.89605-0.28511z"/>
     <path id="path376" d="m699.74 467.62-0.73313 0.0815-0.89606 0.4073 1.5885 0.40729 0.48876 0.0815 0.77387 0.61095 0.2851 0.61094 0.16292 0.97752 0.0815 1.3034-0.0815 1.2219-0.16292 0.97752-0.2851 0.6924-0.36657 0.4073-0.85533 0.28511-1.8328 0.20365 0.81459 0.52948 1.0182 0.16292 0.73314-0.0815 0.85532-0.44802 0.48876-0.48876 0.44803-0.97752 0.12219-0.36656 0.16292-0.93679 0.0407-1.1812v-0.0407l-0.0407-1.1404-0.16292-0.89606-0.12219-0.40729-0.4073-0.89606-0.12219-0.16292-0.77386-0.65167-0.24438-0.12219z"/>
     <path id="path377" d="m704.3 476.46v-1.2626h1.2219v1.2626z"/>
     <path id="path378" d="m708.37 468.11-0.48876 0.52948-0.44803 0.93679-0.12218 0.40729-0.16292 0.93679-0.0407 1.1812v0.89605l0.16292 1.0997 0.2851 0.89605 0.4073 0.69241 0.20365 0.20365 1.7921-0.20365-0.48876-0.0815-0.77386-0.61095-0.24438-0.61094-0.20365-0.97752-0.0407-1.3034 0.0407-1.3034 0.20365-0.97752 0.32584-0.6924 0.24437-0.32584 0.93679-0.28511z"/>
     <path id="path379" d="m709.96 467.62-0.73314 0.0815-0.85532 0.4073 1.5885 0.40729 0.48876 0.0815 0.77386 0.61095 0.24438 0.61094 0.20365 0.97752 0.0407 1.3034-0.0407 1.2219-0.16292 0.97752-0.28511 0.6924-0.36657 0.4073-0.89605 0.28511-1.7921 0.20365 0.77387 0.52948 1.0182 0.16292 0.73313-0.0815 0.85533-0.44802 0.48876-0.48876 0.48875-0.97752 0.0815-0.36656 0.16292-0.93679 0.0407-1.1812v-0.0407l-0.0407-1.1404-0.16292-0.89606-0.12219-0.40729-0.40729-0.89606-0.12219-0.16292-0.77387-0.65167-0.20365-0.12219z"/>
     <path id="path380" d="m714.77 468.31-0.52949 0.77387-0.24438 1.059 1.0997 0.12219 0.0407-0.44803 0.44802-0.85532 0.24438-0.20365 0.97752-0.24438z"/>
     <path id="path381" d="m716.84 467.62h-0.16292l-1.0182 0.16292-0.81459 0.48875-0.0815 0.0407 2.0365 0.20365h0.32583l0.89606 0.4073 0.12219 0.16292 0.32583 0.93678-0.0407 0.36657-0.44802 0.93679-0.28511 0.36656-0.69241 0.65168-0.97751 0.85532-0.77386 0.65168-0.65168 0.65167-0.20365 0.32584-0.48876 0.85533-0.12219 0.77386h5.8244v-1.059h-4.3174l0.44803-0.57022 0.28511-0.32584 0.93678-0.77386 0.24438-0.20365 0.85533-0.77386 0.57021-0.57022 0.20365-0.24438 0.52949-0.85532v-0.0407l0.20365-0.97752-0.16292-0.93678-0.57022-0.8146-0.12219-0.12218-0.81459-0.44803z"/>
     <path id="path382" d="m721.85 473.97-1.0997 0.16292 0.28511 0.97751 0.61094 0.8146 0.0407 0.0407 0.8146 0.44802 1.059 0.16292h0.32584l0.97751-0.24438 0.8146-0.52948-2.118-0.12219h-0.20365l-0.89605-0.4073-0.24438-0.28511z"/>
     <path id="path383" d="m725.8 472.1-2.1587 0.0407 0.36657 0.0407 0.85532 0.44803 0.24438 0.28511 0.24438 0.93678-0.0407 0.44803-0.48876 0.89605-0.32583 0.24438-0.93679 0.24438 2.118 0.12219 0.12219-0.16292 0.52948-0.8146 0.16292-0.97751-0.0407-0.52949-0.36656-0.89605z"/>
     <path id="path384" d="m722.99 471.32-0.12219 0.93678 0.77386-0.12219 2.1587-0.0407-0.93679-0.4073 0.16292-0.0815-1.8328-0.2851z"/>
     <path id="path385" d="m721.77 468.19-0.57021 0.6924-0.32584 1.0182 1.059 0.16292 0.0815-0.32583 0.44803-0.85533 0.12219-0.0815 0.93678-0.32584z"/>
     <path id="path386" d="m723.52 467.62-0.89605 0.12219-0.85533 0.44803 1.7514 0.2851 0.16292 0.0407 0.89606 0.36657 0.0407 0.0815 0.36656 0.89605-0.0407 0.32584-0.52948 0.77387-0.24438 0.16292-0.97752 0.20365 1.8328 0.2851 0.73314-0.6924 0.0407-0.0407 0.28511-0.97752v-0.16291l-0.32584-0.97752-0.12219-0.20365-0.8146-0.65167-0.32583-0.12219z"/>
     <path id="path387" d="m728.7 474.05-1.0997 0.0815 0.24438 1.0182 0.61094 0.77387 1.955-0.24438h-0.20365l-0.89605-0.4073-0.24438-0.24438z"/>
     <path id="path388" d="m732.61 471.41-2.1994 0.16292 0.48876 0.0407 0.85532 0.48876 0.28511 0.44803 0.24438 1.0182-0.12219 0.69241-0.44803 0.85532-0.36657 0.32584-0.93678 0.24438-1.955 0.24438 0.0815 0.0407 0.8146 0.48875 1.059 0.12219 0.6924-0.0407 0.89606-0.36657 0.73313-0.65167 0.0815-0.16292 0.44803-0.89605 0.16292-1.0182-0.0407-0.24438-0.20365-0.97751z"/>
     <path id="path389" d="m730.69 470.59-0.73314 0.12219-0.93678 0.44803 3.5028 0.12219-0.85533-0.48876z"/>
     <path id="path390" d="m733.01 467.74h-4.3988l-0.85532 4.521 1.0182 0.16292 0.65168-0.61095 0.97751-0.24438 2.1994-0.16292-0.0815-0.12218-3.5028-0.12219 0.44802-2.3623h3.5435z"/>
     <path id="path391" d="m735.7 468.11-0.48876 0.52948-0.48876 0.93679-0.12219 0.40729-0.12219 0.93679-0.0815 1.1812 0.0407 0.89605 0.16292 1.0997 0.28511 0.89605 0.4073 0.69241 0.16292 0.20365 1.8328-0.20365-0.48876-0.0815-0.77387-0.61095-0.28511-0.61094-0.16291-0.97752-0.0407-1.3034 0.0407-1.3034 0.20364-0.97752 0.28511-0.6924 0.28511-0.32584 0.89606-0.28511z"/>
     <path id="path392" d="m737.29 467.62-0.73314 0.0815-0.85532 0.4073 1.5477 0.40729 0.48875 0.0815 0.77387 0.61095 0.28511 0.61094 0.16291 0.97752 0.0815 1.3034-0.0407 1.2219-0.20364 0.97752-0.28511 0.6924-0.36657 0.4073-0.85532 0.28511-1.8328 0.20365 0.81459 0.52948 1.0182 0.16292 0.73313-0.0815 0.85533-0.44802 0.48875-0.48876 0.44803-0.97752 0.12219-0.36656 0.16292-0.93679 0.0407-1.1812v-0.0407l-0.0407-1.1404-0.16292-0.89606-0.12219-0.40729-0.4073-0.89606-0.12219-0.16292-0.77386-0.65167-0.20365-0.12219z"/>
     <path id="path393" d="m742.5 468.11-0.48875 0.52948-0.44803 0.93679-0.12219 0.40729-0.16292 0.93679-0.0407 1.1812 0.0407 0.89605 0.12219 1.0997 0.28511 0.89605 0.40729 0.69241 0.20365 0.20365 1.7921-0.20365-0.44803-0.0815-0.77386-0.61095-0.28511-0.61094-0.16292-0.97752-0.0815-1.3034 0.0815-1.3034 0.16292-0.97752 0.32584-0.6924 0.28511-0.32584 0.89605-0.28511z"/>
     <path id="path394" d="m744.09 467.62-0.6924 0.0815-0.89606 0.4073 1.5885 0.40729 0.48876 0.0815 0.77386 0.61095 0.28511 0.61094 0.16292 0.97752 0.0407 1.3034-0.0407 1.2219-0.16292 0.97752-0.28511 0.6924-0.36656 0.4073-0.89606 0.28511-1.7921 0.20365 0.8146 0.52948 0.97751 0.16292 0.73314-0.0815 0.89605-0.44802 0.44803-0.48876 0.48876-0.97752 0.12218-0.36656 0.12219-0.93679 0.0815-1.1812v-0.0407l-0.0815-1.1404-0.12219-0.89606-0.12218-0.40729-0.44803-0.89606-0.0815-0.16292-0.77387-0.65167-0.24437-0.12219z"/>
    </g>
    <path id="path395" d="m779.53 386.61-0.61095 0.61095-0.57022 0.65168-0.52948 0.6924-0.48876 0.73314-0.4073 0.77386-0.36656 0.77387-0.32584 0.81459-0.24438 0.85533" fill="none" stroke="#212830" stroke-linecap="round" stroke-linejoin="round" stroke-width=".18109"/>
    <path id="path396" d="m775.98 398.87 0.24438 0.85532 0.32584 0.81459 0.36656 0.77387 0.4073 0.77387 0.48876 0.73313 0.52948 0.69241 0.57022 0.65167 0.61095 0.61095" fill="none" stroke="#212830" stroke-linecap="round" stroke-linejoin="round" stroke-width=".18109"/>
    <g fill="#212830" fill-rule="evenodd">
     <path id="path397" d="m779.2 386.04 0.6924 1.0182 2.7696-2.6067z"/>
     <path id="path398" d="m779.89 404.28-0.6924 1.0182 3.462 1.6292z"/>
     <path id="path399" d="m765.84 394.47-0.36656 0.20365v0.44803h0.0815l0.40729-0.24438 0.0815-0.0407 0.32584-0.24438z"/>
     <path id="path400" d="m766.86 393.73h-0.32584l-0.0815 0.16292-0.32584 0.36656-0.28511 0.20365 0.52949 0.12219v2.9325h0.48876z"/>
     <path id="path401" d="m768.41 394.06-0.24438 0.32583-0.0815 0.44803 0.44803 0.0407 0.0407-0.20365 0.16292-0.36657 0.12218-0.0815 0.4073-0.0815z"/>
     <path id="path402" d="m769.3 393.73h-0.0815l-0.44802 0.0815-0.32584 0.20365-0.0407 0.0407 0.85532 0.0815h0.16292l0.36657 0.16291 0.0407 0.0815 0.16292 0.4073-0.0407 0.12219-0.20365 0.4073-0.12219 0.16292-0.28511 0.28511-0.4073 0.36656-0.32583 0.28511-0.28511 0.28511-0.0815 0.12219-0.20365 0.36657-0.0815 0.32583h2.5252v-0.44802h-1.8736l0.20364-0.24438 0.12219-0.12219 0.4073-0.36657 0.0815-0.0407 0.36657-0.36657 0.28511-0.24437 0.0815-0.0815 0.20364-0.36657v-0.0407l0.0815-0.4073-0.0407-0.4073-0.24437-0.32583-0.0815-0.0815-0.32584-0.16292z"/>
     <path id="path403" d="m771.46 396.63-0.44803 0.0407 0.12219 0.36657 0.24438 0.32584 0.73313-0.16292h-0.0407l-0.36656-0.12219-0.0407-0.0407z"/>
     <path id="path404" d="m772.6 395.73-0.4073 0.12218-0.89605 0.0407v0.0407l0.36657 0.24438 0.40729 0.0815h0.12219l0.4073-0.16292 0.0815-0.0407 0.28511-0.2851z"/>
     <path id="path405" d="m771.3 394.1-0.0815 0.0815-0.20365 0.36656-0.0407 0.44803v0.12219l0.0815 0.44803 0.24438 0.32583 0.89605-0.0407-0.16292-0.0407-0.36656-0.20364-0.12219-0.16292-0.12219-0.4073 0.0407-0.28511 0.20365-0.36657 0.16292-0.12219 0.36656-0.12218z"/>
     <path id="path406" d="m772.15 393.73h-0.0815l-0.40729 0.12219-0.36657 0.24438 0.89605 0.0407h0.16292l0.36657 0.20364 0.12219 0.20365 0.0815 0.44803-0.0407 0.24438-0.16292 0.36657-0.12219 0.12219 0.36657 0.0407v0.20369l-0.0407 0.44803-0.0407 0.0407-0.16292 0.4073-0.24438 0.24438-0.36657 0.0815-0.73313 0.16292 0.28511 0.16291 0.40729 0.0815 0.36657-0.0407 0.36657-0.20364 0.28511-0.24438 0.20365-0.4073 0.0407-0.20365 0.0815-0.44803 0.0407-0.48875-0.0407-0.24438-0.0407-0.44803-0.0815-0.36657-0.16292-0.2851-0.32584-0.28511-0.24438-0.12219z"/>
     <path id="path407" d="m774.15 397.52v-0.52948h0.52949v0.52948z"/>
     <path id="path408" d="m775.9 393.98-0.20365 0.20365-0.20365 0.40729-0.0407 0.16292-0.0815 0.4073-0.0407 0.48876 0.0407 0.40729 0.0407 0.44803 0.12219 0.4073 0.20365 0.28511 0.0815 0.0815 0.77387-0.0815-0.20365-0.0407-0.32584-0.24438-0.12219-0.24438-0.0815-0.44803-0.0407-0.57021 0.0407-0.52949 0.0815-0.44803 0.12219-0.28511 0.12219-0.12219 0.4073-0.12218z"/>
     <path id="path409" d="m776.59 393.73-0.32584 0.0407-0.36657 0.20365 0.69241 0.16292h0.20364l0.32584 0.2851 0.12219 0.24438 0.0815 0.44803v1.059l-0.0815 0.44803-0.12219 0.28511-0.16292 0.16292-0.36656 0.12219-0.77387 0.0815 0.32584 0.24437 0.44803 0.0815 0.2851-0.0407 0.36657-0.20364 0.24438-0.20365 0.16292-0.4073 0.0815-0.16292 0.0407-0.4073 0.0407-0.52948-0.0407-0.48876-0.0407-0.36657-0.0815-0.20365-0.16292-0.36656-0.0407-0.0815-0.32584-0.28511-0.12219-0.0407z"/>
     <path id="path410" d="m780.22 393.78h-0.36657l-1.7106 2.4438v0.4073h1.6292v0.89605h0.44802v-0.89605h0.52949v-0.4073h-2.1587l1.1812-1.7106z"/>
     <path id="path411" d="m780.22 393.78-0.44802 0.73313v1.7106h-1.1812 1.6292z"/>
     <path id="path412" d="m783.15 393.78h-0.36656l-1.7514 2.4438v0.4073h1.6699v0.89605h0.44802v-0.89605h0.48876v-0.4073h-2.118l1.1812-1.7106z"/>
     <path id="path413" d="m783.15 393.78-0.44802 0.73313v1.7106h-1.1812 1.6292z"/>
     <path id="path414" d="m784.45 393.9-0.0815 0.0815-0.12219 0.40729v0.16292l0.20365 0.36657 0.0814 0.0815 0.4073 0.12219h0.12219l0.4073-0.20365-0.52949-0.0815-0.28511-0.12219-0.12219-0.32584 0.12219-0.2851 0.28511-0.12219z"/>
     <path id="path415" d="m784.94 393.69h-0.12219l-0.36656 0.20365 0.48875 0.0815 0.32584 0.12219 0.12219 0.2851-0.12219 0.32584-0.32584 0.12219 0.52949 0.0815 0.0815-0.0815 0.12219-0.44803v-0.12219l-0.20365-0.36656-0.12219-0.0815z"/>
    </g>
    <path id="path416" d="m888.11 441.43-1.7921-0.48876-0.93679-0.20365-0.93678-0.16292" fill="none" stroke="#f00" stroke-linecap="round" stroke-linejoin="round" stroke-width=".18109"/>
    <path id="path417" d="m866.93 444.57-0.77386 0.52948-0.73314 0.57022-0.73313 0.61094-0.69241 0.65168" fill="none" stroke="#f00" stroke-linecap="round" stroke-linejoin="round" stroke-width=".18109"/>
    <g fill="#f00" fill-rule="evenodd">
     <path id="path418" d="m884.41 441.18 0.12219-1.2626-3.8286 0.36657z"/>
     <path id="path419" d="m866.61 443.99 0.65168 1.0997 2.9325-2.4438z"/>
     <path id="path420" d="m872.02 439.27-0.24438 0.32584-0.0815 0.44802 0.44803 0.0407 0.0407-0.20365 0.16292-0.36656 0.12219-0.0815 0.40729-0.12219z"/>
     <path id="path421" d="m872.92 438.94h-0.0815l-0.44802 0.0815-0.32584 0.20365-0.0407 0.0407 0.85532 0.0407 0.16292 0.0407 0.36657 0.16292 0.0815 0.0815 0.12219 0.36656-0.0407 0.16292-0.16292 0.4073-0.12219 0.16292-0.32584 0.28511-0.40729 0.36657-0.32584 0.2851-0.28511 0.28511-0.0815 0.12219-0.20365 0.36657-0.0407 0.32584h2.4845v-0.44803h-1.8736l0.20365-0.24438 0.12219-0.12219 0.40729-0.36657 0.0815-0.0815 0.4073-0.32583 0.32588-0.32588 0.20365-0.36657v-0.0407l0.12219-0.4073-0.0815-0.40729-0.24438-0.36657-0.0407-0.0407-0.36657-0.16292z"/>
     <path id="path422" d="m875.08 441.71-0.48876 0.0407 0.12219 0.4073 0.24438 0.36657 0.85532-0.12219h-0.12218l-0.36657-0.16292-0.0815-0.12219z"/>
     <path id="path423" d="m876.75 440.57-0.97751 0.0815h0.24437l0.36657 0.20365 0.12219 0.20365 0.0815 0.44802-0.0407 0.28511-0.20365 0.36657-0.16292 0.12219-0.36657 0.12219-0.85532 0.12219h0.0407l0.36657 0.20365 0.44802 0.0815 0.28511-0.0407 0.36657-0.16292 0.32584-0.28511 0.0407-0.0407 0.20365-0.4073 0.0407-0.4073v-0.12218l-0.0815-0.44803z"/>
     <path id="path424" d="m875.89 440.25-0.2851 0.0407-0.4073 0.16292 1.507 0.0815-0.36657-0.24438z"/>
     <path id="path425" d="m876.91 439.03h-1.8736l-0.36657 1.9143 0.44803 0.0815 0.24438-0.28511 0.4073-0.0815 0.97751-0.0815-0.0407-0.0407-1.507-0.0815 0.20365-0.97751h1.507z"/>
     <path id="path426" d="m877.85 439.11-0.0815 0.0815-0.16292 0.4073 0.0407 0.12219 0.20365 0.40729 0.0815 0.0815 0.4073 0.12219h0.12219l0.36657-0.20365-0.48876-0.0815-0.32584-0.12219-0.12219-0.32583 0.12219-0.28511 0.32584-0.12219z"/>
     <path id="path427" d="m878.34 438.9h-0.12219l-0.36657 0.20365 0.48876 0.0815 0.28511 0.12219 0.16292 0.28511-0.16292 0.32583-0.28511 0.12219 0.48876 0.0815 0.0815-0.12219 0.12218-0.40729v-0.12219l-0.20364-0.36657-0.0815-0.0815z"/>
    </g>
    <g fill="none" stroke="#f00" stroke-linecap="round" stroke-linejoin="round" stroke-width=".18109">
     <path id="path428" d="m884.08 471.85 11.364 23.868"/>
     <path id="path429" d="m882.08 476.29 0.93678-0.16292 0.89605-0.20364 0.89606-0.32584 0.89605-0.36657"/>
     <path id="path430" d="m882.08 476.33h3.7879"/>
     <path id="path431" d="m878.34 476.13 0.89605 0.16292 0.97752 0.0815h0.93678l0.93679-0.0815"/>
     <path id="path432" d="m876.99 453.77-0.89606 0.32583-0.85532 0.4073-0.8146 0.48876-0.77386 0.52949"/>
    </g>
    <g fill="#f00" fill-rule="evenodd">
     <path id="path433" d="m881.92 475.72 0.32583 1.1812 3.462-1.6292z"/>
     <path id="path434" d="m876.87 453.12 0.20365 1.2219 3.6249-1.2219z"/>
     <path id="path435" d="m897.56 475.11-0.4073 0.20365v0.44803h0.0815l0.4073-0.24438 0.12219-0.0407 0.32583-0.24438z"/>
     <path id="path436" d="m898.54 474.38h-0.28511l-0.0815 0.16291-0.32584 0.32584-0.2851 0.24438 0.52948 0.12219v2.9325h0.44803z"/>
     <path id="path437" d="m900.21 477.15-0.48876 0.0407 0.12219 0.4073 0.24438 0.36656 0.85533-0.12219h-0.0815l-0.4073-0.16292-0.0815-0.12218z"/>
     <path id="path438" d="m901.88 476.01-0.93678 0.0815h0.20364l0.36657 0.20365 0.12219 0.20365 0.12219 0.44803-0.0407 0.28511-0.20365 0.36657-0.16292 0.16291-0.40729 0.0815-0.85533 0.12219h0.0407l0.36657 0.20365 0.44803 0.0815 0.2851-0.0407 0.4073-0.16292 0.28511-0.28511 0.0815-0.0407 0.16292-0.40729 0.0815-0.4073v-0.12219l-0.12219-0.4073z"/>
     <path id="path439" d="m901.06 475.68-0.32583 0.0407-0.4073 0.20365 1.507 0.0407-0.36657-0.20365z"/>
     <path id="path440" d="m902.04 474.46h-1.8736l-0.36657 1.9143 0.44803 0.0815 0.28511-0.28511 0.4073-0.0815 0.93678-0.0815-0.0407-0.0407-1.507-0.0407 0.20365-1.0182h1.507z"/>
     <path id="path441" d="m903.14 477.15-0.48876 0.0407 0.12219 0.4073 0.24438 0.36656 0.85533-0.12219h-0.0815l-0.4073-0.16292-0.0815-0.12218z"/>
     <path id="path442" d="m904.81 476.01-0.93678 0.0815h0.20365l0.36656 0.20365 0.12219 0.20365 0.0815 0.44803v0.28511l-0.20365 0.36657-0.16292 0.16291-0.40729 0.0815-0.85533 0.12219h0.0407l0.36657 0.20365 0.44803 0.0815 0.2851-0.0407 0.4073-0.16292 0.32581-0.32581 0.20365-0.40729 0.0815-0.4073-0.0407-0.12219-0.0815-0.4073z"/>
     <path id="path443" d="m904 475.68-0.32584 0.0407-0.4073 0.20365 1.507 0.0407-0.36657-0.20365z"/>
     <path id="path444" d="m904.97 474.46h-1.8736l-0.36657 1.9143 0.44803 0.0815 0.28511-0.28511 0.4073-0.0815 0.93678-0.0815-0.0407-0.0407-1.507-0.0407 0.20365-1.0182h1.507z"/>
     <path id="path445" d="m905.91 474.54-0.0815 0.0815-0.12219 0.4073v0.12219l0.20365 0.4073 0.0815 0.0815 0.4073 0.12219h0.12219l0.4073-0.20365-0.52949-0.0815-0.28511-0.12219-0.12219-0.32584 0.12219-0.28511 0.28511-0.12219z"/>
     <path id="path446" d="m906.4 474.34h-0.12219l-0.36657 0.20364 0.48876 0.0815 0.32584 0.12219 0.12219 0.28511-0.12219 0.32584-0.32584 0.12219 0.52949 0.0815 0.0815-0.0815 0.12219-0.44803v-0.12219l-0.20365-0.36657-0.12219-0.0815z"/>
    </g>
    <path id="path447" d="m843.11 396.91-0.85532-0.16292-0.89606-0.12219-0.85532-0.0815-0.89605-0.0407" fill="none" stroke="#f00" stroke-linecap="round" stroke-linejoin="round" stroke-width=".18109"/>
    <path id="path448" d="m831.99 398.3-0.73313 0.36657-1.3848 0.89605-0.65168 0.48876" fill="none" stroke="#f00" stroke-linecap="round" stroke-linejoin="round" stroke-width=".18109"/>
    <g fill="#f00" fill-rule="evenodd">
     <path id="path449" d="m843.31 396.26-0.4073 1.2219 3.7879 0.61095z"/>
     <path id="path450" d="m829.66 400.45-0.89606-0.89606-2.2401 3.0955z"/>
     <path id="path451" d="m834.59 395h-2.4438v0.44803h1.8328l-0.16292 0.24438-0.24438 0.32583-0.24438 0.44803-0.20364 0.36657-0.16292 0.4073-0.12219 0.40729-0.0815 0.24438-0.0815 0.44803v0.4073h0.44803l0.0407-0.20365 0.0407-0.4073 0.12218-0.44803v-0.0815l0.16292-0.40729 0.16292-0.4073 0.20365-0.4073 0.20365-0.32584 0.24438-0.36656 0.28511-0.32584z"/>
     <path id="path452" d="m837.16 396.63-0.85532 0.0815h0.16291l0.36657 0.20365 0.12219 0.20365 0.0815 0.40729-0.0407 0.28511-0.16292 0.36657-0.12219 0.12219-0.40729 0.12219 0.77386 0.12219 0.28511-0.36657 0.0815-0.24438 0.0407-0.4073v-0.12219l-0.0815-0.40729z"/>
     <path id="path453" d="m836.39 396.3h-0.0815l-0.4073 0.12219-0.12219 0.0407-0.28511 0.32584 0.4073 0.0407 0.4073-0.12219 0.85532-0.0815-0.36657-0.24438z"/>
     <path id="path454" d="m837.08 395.2-0.73313 0.12219h0.0815l0.36656 0.20365 0.16292 0.40729 0.48876-0.0407-0.12219-0.36656z"/>
     <path id="path455" d="m836.34 394.96h-0.20365l-0.4073 0.16292-0.32584 0.24438-0.16292 0.24438-0.12219 0.36656-0.0815 0.44803-0.0407 0.52949v0.24438l0.0815 0.48875 0.12219 0.4073 0.16292 0.28511 0.16292 0.16292 0.36657 0.20365 0.4073 0.0407h0.20364l0.4073-0.16292 0.16292-0.0815-0.77386-0.12219-0.36657-0.12219-0.28511-0.32584v-0.0407l-0.12219-0.4073 0.0407-0.24437 0.20365-0.36657 0.12219-0.0815-0.4073-0.0407v-0.48876l0.12219-0.36657 0.0815-0.16291 0.24438-0.32584 0.4073-0.12219 0.73313-0.12219-0.28511-0.16292z"/>
     <path id="path456" d="m838.3 395.12-0.0815 0.0815-0.16292 0.4073 0.0407 0.12219 0.20365 0.40729 0.0815 0.0407 0.4073 0.16292 0.12219-0.0407 0.36657-0.20365-0.48876-0.0407-0.32584-0.12219-0.12219-0.32583 0.12219-0.28511 0.32584-0.16292z"/>
     <path id="path457" d="m838.79 394.92h-0.12219l-0.36657 0.20365 0.48876 0.0407 0.28511 0.16292 0.16292 0.28511-0.16292 0.32583-0.28511 0.12219 0.48876 0.0407 0.0815-0.0815 0.12219-0.40729v-0.12219l-0.20365-0.36657-0.0815-0.0815z"/>
    </g>
    <path id="path458" d="m829.34 409.74-0.20365 0.61094-0.12219 0.61095-0.12219 0.65167-0.0815 0.61095-0.0407 0.65168v0.65167" fill="none" stroke="#f00" stroke-linecap="round" stroke-linejoin="round" stroke-width=".18109"/>
    <path id="path459" d="m829.71 417.64 0.28511 0.52948 0.2851 0.57022 0.36657 0.52949 0.36657 0.48875 0.36657 0.48876 0.44802 0.44803" fill="none" stroke="#f00" stroke-linecap="round" stroke-linejoin="round" stroke-width=".18109"/>
    <g fill="#f00" fill-rule="evenodd">
     <path id="path460" d="m828.77 409.42 1.0997 0.61094 1.3034-3.5842z"/>
     <path id="path461" d="m832.19 420.21-0.73313 1.0182 3.4213 1.6699z"/>
     <path id="path462" d="m824.41 414.38-0.36657 0.20365v0.44802l0.0815-0.0407 0.4073-0.20365 0.0815-0.0407 0.36657-0.2851z"/>
     <path id="path463" d="m825.43 413.65h-0.28511l-0.12219 0.16292-0.28511 0.32584-0.32584 0.24438 0.57022 0.0815v2.9733h0.44803z"/>
     <path id="path464" d="m827.14 413.85-0.20364 0.24438-0.20365 0.4073-0.0407 0.16292-0.0407 0.40729-0.0407 0.48876v0.36657l0.0815 0.48875 0.12219 0.36657 0.16292 0.32584 0.0815 0.0815 0.77387-0.0815-0.20365-0.0407-0.32584-0.28511-0.12219-0.24438-0.0815-0.40729v-1.1404l0.0815-0.40729 0.16292-0.28511 0.12219-0.16292 0.36657-0.12219z"/>
     <path id="path465" d="m827.83 413.65-0.28511 0.0407-0.4073 0.16292 0.69241 0.16292 0.20365 0.0407 0.32584 0.28511 0.12219 0.24438 0.0815 0.40729 0.0407 0.57022-0.0407 0.52949-0.0815 0.40729-0.12219 0.28511-0.16292 0.20365-0.36657 0.12219-0.77387 0.0815 0.36657 0.20365 0.4073 0.0815 0.32584-0.0407 0.36657-0.16292 0.20364-0.24438 0.20365-0.4073 0.0407-0.16292 0.0815-0.40729v-0.97752l-0.0815-0.40729-0.0407-0.16292-0.20365-0.4073-0.0407-0.0407-0.32583-0.28511-0.0815-0.0407z"/>
     <path id="path466" d="m831.5 413.65h-0.4073l-1.7106 2.4438v0.44802h1.6292v0.89606h0.48876v-0.89606h0.48875v-0.44802h-2.1587l1.1812-1.7106z"/>
     <path id="path467" d="m831.5 413.65-0.48876 0.73314v1.7106h-1.1812 1.6699z"/>
     <path id="path468" d="m832.8 413.81-0.0815 0.0815-0.16292 0.4073 0.0407 0.12219 0.20365 0.36656 0.0815 0.0815 0.4073 0.16292 0.12218-0.0407 0.36657-0.20365-0.48875-0.0407-0.32584-0.12218-0.12219-0.32584 0.12219-0.32584 0.32584-0.12219z"/>
     <path id="path469" d="m833.29 413.61h-0.12219l-0.36657 0.20365 0.48876 0.0407 0.2851 0.12219 0.16292 0.32584-0.16292 0.32584-0.2851 0.12218 0.48875 0.0407 0.0815-0.0815 0.12219-0.40729v-0.12219l-0.20365-0.36657-0.0815-0.0815z"/>
    </g>
    <path id="path470" d="m835.33 360.7 0.57022-0.61095 0.52949-0.61094 0.44802-0.65168 0.4073-0.73314 0.36657-0.6924 0.32584-0.77387 0.24437-0.77386 0.20365-0.77387 0.12219-0.81459 0.0815-0.8146" fill="none" stroke="#212830" stroke-linecap="round" stroke-linejoin="round" stroke-width=".18109"/>
    <path id="path471" d="m838.18 349.42-0.2851-0.77387-0.28511-0.73313-0.36657-0.69241-0.44803-0.6924-0.44802-0.65168-0.52949-0.65167-0.57022-0.57022-1.2219-1.059-0.69241-0.44803" fill="none" stroke="#212830" stroke-linecap="round" stroke-linejoin="round" stroke-width=".18109"/>
    <g fill="#212830" fill-rule="evenodd">
     <path id="path472" d="m835.69 361.23-0.73314-1.0182-2.7289 2.6882z"/>
     <path id="path473" d="m833.09 343.76 0.48875-1.1812-3.7471-0.85532z"/>
     <path id="path474" d="m833.98 350.28-0.36657 0.24438v0.44803l0.0815-0.0407 0.4073-0.20365 0.0815-0.0815 0.32584-0.24438z"/>
     <path id="path475" d="m835 349.54h-0.32583l-0.0815 0.16292-0.32584 0.36657-0.28511 0.20364 0.52949 0.12219v2.9325h0.48875z"/>
     <path id="path476" d="m838.14 349.58h-0.40729l-1.7106 2.4438v0.4073h1.6292v0.89605h0.48875v-0.89605h0.48876v-0.4073h-2.1587l1.1812-1.7106z"/>
     <path id="path477" d="m838.14 349.58-0.48875 0.73313v1.7106h-1.1812 1.6699z"/>
     <path id="path478" d="m839.48 349.87-0.24438 0.32583-0.12219 0.44803 0.48876 0.0407 0.0407-0.16292 0.16292-0.36656 0.12219-0.12219 0.4073-0.0815z"/>
     <path id="path479" d="m840.34 349.54h-0.0407l-0.44803 0.0815-0.36656 0.20365v0.0407l0.85532 0.0815h0.16292l0.36657 0.16292 0.0407 0.0814 0.16292 0.4073-0.0407 0.16292-0.20365 0.4073-0.4073 0.4073-0.4073 0.36656-0.32584 0.28511-0.2851 0.28511-0.0815 0.12219-0.20365 0.4073-0.0815 0.2851h2.4845v-0.44802h-1.8328l0.20365-0.24438 0.12219-0.12219 0.4073-0.32584 0.0815-0.0815 0.36657-0.32584 0.36661-0.3666 0.20365-0.36657 0.0815-0.44803-0.0815-0.4073-0.20365-0.32583-0.0815-0.0407-0.32584-0.20365z"/>
     <path id="path480" d="m842.33 349.71-0.0407 0.12219-0.16292 0.40729 0.0407 0.12219 0.16292 0.36657 0.12219 0.0815 0.40729 0.12219h0.12219l0.36657-0.20365-0.48876-0.0815-0.32583-0.12219-0.12219-0.28511 0.12219-0.32583 0.32583-0.12219z"/>
     <path id="path481" d="m842.86 349.5h-0.12218l-0.4073 0.20365 0.52948 0.0815 0.28511 0.12219 0.12219 0.32583-0.12219 0.28511-0.28511 0.12219 0.48876 0.0815 0.0815-0.0815 0.12219-0.4073v-0.12218l-0.20365-0.4073-0.0815-0.0815z"/>
    </g>
    <path id="path482" d="m811.25 408.52-1.2219-0.0815-1.1812-0.0407" fill="none" stroke="#f00" stroke-linecap="round" stroke-linejoin="round" stroke-width=".18109"/>
    <path id="path483" d="m801.19 409.29-1.0997 0.28511-1.1404 0.36657" fill="none" stroke="#f00" stroke-linecap="round" stroke-linejoin="round" stroke-width=".18109"/>
    <g fill="#f00" fill-rule="evenodd">
     <path id="path484" d="m811.34 407.87-0.20364 1.2219 3.8286-0.0407z"/>
     <path id="path485" d="m799.16 410.47-0.44803-1.1812-3.2584 1.9958z"/>
     <path id="path486" d="m801.76 409.33-0.44803 0.0815 0.12219 0.4073 0.24438 0.36656h0.0407l0.36656 0.20365 0.4073 0.0815h0.16292l0.4073-0.12219 0.36656-0.24438-0.89605-0.0407h-0.0815l-0.4073-0.16291-0.12219-0.12219z"/>
     <path id="path487" d="m803.48 408.56h-0.93678 0.16292l0.36657 0.20365 0.12219 0.12219 0.12219 0.4073-0.0407 0.20365-0.20365 0.36657-0.12219 0.12218-0.4073 0.0815 0.89605 0.0407 0.0407-0.0407 0.24438-0.36656 0.0815-0.4073-0.0407-0.24438-0.16292-0.36657z"/>
     <path id="path488" d="m802.29 408.19-0.0815 0.40729 0.32584-0.0407h0.93678l-0.40729-0.20364 0.0815-0.0407-0.77387-0.12219z"/>
     <path id="path489" d="m801.76 406.85-0.24438 0.32584-0.16292 0.4073 0.48875 0.0815v-0.16292l0.20365-0.32584 0.0407-0.0407 0.4073-0.16292z"/>
     <path id="path490" d="m802.5 406.61-0.36657 0.0407-0.36656 0.20364 0.73313 0.12219 0.0815 0.0407 0.36657 0.16292h0.0407l0.12219 0.4073v0.12219l-0.20365 0.36657-0.12219 0.0407-0.4073 0.0815 0.77387 0.12219 0.32583-0.28511v-0.0407l0.12219-0.4073v-0.0815l-0.12219-0.4073-0.0815-0.0815-0.32584-0.2851-0.12219-0.0407z"/>
     <path id="path491" d="m804.78 408.4-0.36657 0.28511-0.0815 0.16292-0.0815 0.44803 0.0815 0.44803 0.24438 0.40729 0.89605-0.0815-0.36657-0.0815-0.2851-0.2851-0.12219-0.4073 0.0407-0.12219 0.20365-0.4073 0.0815-0.0815 0.44803-0.12219z"/>
     <path id="path492" d="m806.29 406.89-0.8146 0.0815 0.44803 0.20365 0.16292 0.4073-0.16292 0.4073-0.44803 0.20365 0.57022 0.12219 0.4073-0.24438v-0.0407l0.12218-0.44803-0.0407-0.28511z"/>
     <path id="path493" d="m805.47 406.61-0.4073 0.0407-0.36656 0.24437-0.20365 0.24438-0.12219 0.44803 0.16292 0.48876h0.0407l0.36657 0.28511-0.16292 0.0407 0.6924 0.16292h0.12219l0.44803 0.20365 0.0815 0.12219 0.12219 0.44803v0.12219l-0.20365 0.4073-0.12219 0.0815-0.44803 0.12218-0.89605 0.0815h0.0407l0.36657 0.24438 0.48875 0.0815h0.0407l0.48876-0.0815 0.36657-0.24438 0.24437-0.36656 0.12219-0.44803-0.0407-0.16292-0.16291-0.44803-0.0815-0.12219-0.44803-0.24437 0.0407-0.0407-0.57022-0.12219-0.44803-0.20365-0.16291-0.4073 0.16291-0.4073 0.44803-0.20365 0.8146-0.0815-0.32584-0.20364z"/>
     <path id="path494" d="m807.51 406.77-0.0815 0.0815-0.16292 0.4073 0.0407 0.16292 0.20365 0.36657 0.0815 0.0815 0.4073 0.12219h0.12219l0.36656-0.20365-0.48875-0.0815-0.32584-0.12219-0.12219-0.32584 0.12219-0.28511 0.32584-0.12219z"/>
     <path id="path495" d="m808 406.56h-0.12219l-0.36657 0.20365 0.48876 0.0815 0.2851 0.12219 0.16292 0.28511-0.16292 0.32584-0.2851 0.12219 0.48875 0.0815 0.0815-0.0815 0.12219-0.44803v-0.12219l-0.20365-0.36656-0.0815-0.0815z"/>
    </g>
    <path id="path496" d="m827.18 345.23h-0.81459l-0.8146 0.0407-0.77386 0.12219-0.77387 0.16291" fill="none" stroke="#212830" stroke-linecap="round" stroke-linejoin="round" stroke-width=".18109"/>
    <path id="path497" d="m817.93 349.66-0.44802 0.6924-0.4073 0.69241-0.36657 0.77386-0.28511 0.77387-0.24438 0.77386-0.16292 0.8146" fill="none" stroke="#212830" stroke-linecap="round" stroke-linejoin="round" stroke-width=".18109"/>
    <g fill="#212830" fill-rule="evenodd">
     <path id="path498" d="m827.18 344.9-0.0815 0.61094 1.9143-0.0407z"/>
     <path id="path499" d="m816.31 354.23-0.65167-0.0815 0.16292 1.9143z"/>
     <path id="path500" d="m815.29 346.37-0.4073 0.24438v0.44802l0.12219-0.0407 0.36657-0.20364 0.12219-0.0815 0.32584-0.24438z"/>
     <path id="path501" d="m816.31 345.67h-0.32583l-0.0815 0.12219-0.32584 0.36657-0.28511 0.20365 0.52949 0.12219v2.9733h0.48875z"/>
     <path id="path502" d="m818.02 345.88-0.20365 0.20365-0.20365 0.4073-0.0407 0.16292-0.0815 0.44802v0.85533l0.0815 0.48876 0.0815 0.36656 0.20365 0.32584 0.0815 0.0815 0.77387-0.0815-0.20365-0.0407-0.32584-0.28511-0.12219-0.24437-0.0815-0.4073-0.0407-0.57022 0.0407-0.57022 0.0815-0.40729 0.12219-0.28511 0.12219-0.16292 0.4073-0.12219z"/>
     <path id="path503" d="m818.71 345.67h-0.32584l-0.36657 0.20365 0.69241 0.16292 0.20365 0.0407 0.32583 0.24438 0.12219 0.28511 0.0815 0.40729v1.0997l-0.0815 0.4073-0.12219 0.2851-0.16291 0.16292-0.36657 0.16292-0.77387 0.0815 0.32584 0.20365 0.44803 0.0815 0.32584-0.0407 0.36656-0.16292 0.20365-0.24438 0.20365-0.4073 0.0407-0.16291 0.0407-0.4073 0.0407-0.48876v-0.0407l-0.0407-0.48876-0.0407-0.36656-0.0407-0.16292-0.20365-0.4073-0.0407-0.0815-0.32584-0.28511-0.12218-0.0407z"/>
     <path id="path504" d="m820.75 345.96-0.20364 0.32584-0.12219 0.44803 0.48875 0.0815v-0.20365l0.20365-0.36657 0.12219-0.0815 0.4073-0.12219z"/>
     <path id="path505" d="m821.64 345.67h-0.0407l-0.44803 0.0407-0.36657 0.20365-0.0407 0.0407 0.89606 0.0815h0.12219l0.4073 0.20365 0.0407 0.0407 0.12218 0.4073v0.16292l-0.20364 0.40729-0.12219 0.12219-0.28511 0.32584-0.4073 0.32584-0.32584 0.28511-0.40729 0.40729-0.20365 0.4073-0.0407 0.32584h2.4845v-0.44803h-1.8328l0.20365-0.28511 0.12219-0.12219 0.4073-0.32583 0.0815-0.0815 0.36657-0.32584 0.24437-0.28511 0.0815-0.0815 0.24438-0.36657 0.0815-0.44802-0.0815-0.4073-0.24438-0.32584-0.0407-0.0407-0.36656-0.20365z"/>
     <path id="path506" d="m823.64 345.8-0.0815 0.12219-0.12219 0.4073v0.12219l0.20365 0.36657 0.0815 0.0815 0.44802 0.12218h0.12219l0.36657-0.20364-0.48876-0.0815-0.32583-0.12219-0.12219-0.28511 0.12219-0.32584 0.32583-0.12219z"/>
     <path id="path507" d="m824.17 345.59-0.12219 0.0407-0.40729 0.16292 0.52948 0.0815 0.28511 0.12219 0.12219 0.32584-0.12219 0.28511-0.28511 0.12219 0.48876 0.0815 0.0815-0.0815 0.12219-0.4073v-0.12219l-0.20365-0.4073-0.0815-0.0815z"/>
    </g>
    <path id="path508" d="m813.17 359.81 0.24438 0.77387 0.28511 0.77386 0.32584 0.73314 0.36657 0.73313" fill="none" stroke="#212830" stroke-linecap="round" stroke-linejoin="round" stroke-width=".18109"/>
    <path id="path509" d="m817.77 366.89 0.57022 0.44803 0.57022 0.40729 1.2219 0.73314" fill="none" stroke="#212830" stroke-linecap="round" stroke-linejoin="round" stroke-width=".18109"/>
    <g fill="#212830" fill-rule="evenodd">
     <path id="path510" d="m812.52 359.89 1.2626-0.16292-1.1404-3.6657z"/>
     <path id="path511" d="m820.34 367.91-0.44803 1.1812 3.7471 0.69241z"/>
     <path id="path512" d="m814.47 362.98h-2.403v0.44803h1.8328l-0.16292 0.24438-0.28511 0.32584-0.4073 0.81459-0.16292 0.4073-0.12218 0.4073-0.0815 0.24438-0.0815 0.44802v0.4073h0.44802l0.0407-0.20365 0.0407-0.44803 0.12219-0.40729v-0.0815l0.32584-0.8146 0.20365-0.4073 0.20365-0.32583 0.24438-0.36657 0.24437-0.32584z"/>
     <path id="path513" d="m815.49 364.73-0.36657 0.28511-0.0815 0.12219-0.0815 0.48876 0.0815 0.44802 0.24438 0.36657 0.89605-0.0407-0.40729-0.12219-0.24438-0.28511-0.12219-0.36656v-0.12219l0.24438-0.4073 0.0815-0.0815 0.44802-0.16292z"/>
     <path id="path514" d="m816.96 363.23-0.77387 0.0815 0.44803 0.16292 0.16292 0.44803-0.16292 0.4073-0.44803 0.16291 0.57022 0.16292 0.36657-0.28511 0.16292-0.44802-0.0407-0.32584z"/>
     <path id="path515" d="m816.18 362.94-0.40729 0.0407-0.36657 0.24438-0.20365 0.20365-0.12219 0.48876 0.16292 0.44802v0.0407l0.4073 0.24438-0.16292 0.0815 0.6924 0.12219 0.12219 0.0407 0.4073 0.20365 0.12219 0.0815 0.12219 0.44803v0.16292l-0.20365 0.40729-0.12219 0.0815-0.44803 0.12219-0.89605 0.0407v0.0407l0.4073 0.20365 0.48875 0.0815h0.0407l0.48876-0.0815 0.36657-0.24438 0.24438-0.32584 0.12219-0.48875-0.0407-0.16292-0.16292-0.44803-0.12219-0.12219-0.4073-0.24438h0.0407l-0.57022-0.16292-0.44802-0.16291-0.16292-0.44803 0.16292-0.4073 0.44802-0.16292 0.77387-0.0815-0.28511-0.20365z"/>
     <path id="path516" d="m818.18 363.11-0.0815 0.0815-0.12219 0.4073 0.0407 0.12219 0.16292 0.36657 0.12219 0.0815 0.4073 0.16292 0.12219-0.0407 0.36656-0.20365-0.48875-0.0407-0.32584-0.16292-0.12219-0.28511 0.12219-0.32584 0.32584-0.12219z"/>
     <path id="path517" d="m818.71 362.86-0.12219 0.0407-0.4073 0.20365 0.52949 0.0407 0.28511 0.12219 0.12219 0.32584-0.12219 0.28511-0.28511 0.16292 0.48875 0.0407 0.0815-0.0815 0.12219-0.4073v-0.12219l-0.20365-0.36657-0.0815-0.0815z"/>
    </g>
    <g fill="none" stroke="#212830" stroke-linecap="round" stroke-linejoin="round" stroke-width=".18109">
     <path id="path518" d="m688.45 455.68-23.46 29"/>
     <path id="path519" d="m786 534.9-23.501 29"/>
     <path id="path520" d="m669.52 485.09 39.508 32.136"/>
     <path id="path521" d="m761.16 559.59-39.508-32.136"/>
    </g>
    <g>
     <path id="path522" d="m669.88 484.6-0.77386 0.97751-2.5252-2.8511z" fill="#212830" fill-rule="evenodd"/>
     <path id="path523" d="m761.56 559.1-0.77386 0.97751 3.2991 1.8736z" fill="#212830" fill-rule="evenodd"/>
     <text id="text524" transform="translate(703 526.68)" fill="#000000" font-family="Arial" font-size="12.312px" font-weight="400" letter-spacing="0px" stroke-width=".18109" word-spacing="0px" style="line-height:125%" xml:space="preserve"><tspan id="tspan524" x="0" y="0" sodipodi:role="line"><tspan id="tspan523" dx="0" dy="0" fill="#212830" font-family="Arial" font-size="12.312px" font-weight="400" stroke-width=".18109">1.00</tspan></tspan></text>
    </g>
   </g>
  </g>
 </g>
 <metadata id="metadata2">
  <rdf:RDF>
   <cc:Work rdf:about="">
    <dc:title>Los Secretos de las Catedrales. La Catedral Nacional de Washignton D.C</dc:title>
    <dc:date>16-01-2025</dc:date>
    <dc:creator>
     <cc:Agent>
      <dc:title>Miguel Hernando Ibáñez Sánchez</dc:title>
     </cc:Agent>
    </dc:creator>
    <dc:rights>
     <cc:Agent>
      <dc:title>Secretos de las catedrales. La Catedral Nacional de Washington D.C © 2025 by ISAN atelier is licensed under Creative Commons Attribution-NoDerivatives 4.0 International</dc:title>
     </cc:Agent>
    </dc:rights>
    <dc:publisher>
     <cc:Agent>
      <dc:title>ISAN atelier</dc:title>
     </cc:Agent>
    </dc:publisher>
    <dc:identifier>10.5281/zenodo.14675978</dc:identifier>
    <dc:source>Sáchica, Boyacá - Colombia</dc:source>
    <dc:relation>En Búsqueda de las Claves Sacras de la Ciudad de Washignton D.C</dc:relation>
    <dc:language>Español</dc:language>
    <dc:subject>
     <rdf:Bag>
      <rdf:li>arquitectura sagrada</rdf:li>
      <rdf:li>geometria sagrada</rdf:li>
      <rdf:li>sacred architecture</rdf:li>
      <rdf:li>sacred geometry</rdf:li>
     </rdf:Bag>
    </dc:subject>
    <dc:coverage>Global</dc:coverage>
    <dc:description>Estudios geometricos y sus misterios</dc:description>
    <cc:license rdf:resource="http://creativecommons.org/licenses/by-nd/4.0/"/>
   </cc:Work>
   <cc:License rdf:about="http://creativecommons.org/licenses/by-nd/4.0/">
    <cc:permits rdf:resource="http://creativecommons.org/ns#Reproduction"/>
    <cc:permits rdf:resource="http://creativecommons.org/ns#Distribution"/>
    <cc:requires rdf:resource="http://creativecommons.org/ns#Notice"/>
    <cc:requires rdf:resource="http://creativecommons.org/ns#Attribution"/>
   </cc:License>
  </rdf:RDF>
 </metadata>
</svg>
