<?xml version="1.0" encoding="UTF-8"?>
<!-- Created with Inkscape (http://www.inkscape.org/) -->
<svg id="svg1" width="210mm" height="130mm" inkscape:version="1.4 (86a8ad7, 2024-10-11)" sodipodi:docname="6.svg" version="1.1" viewBox="0 0 210 130" xmlns="http://www.w3.org/2000/svg" xmlns:cc="http://creativecommons.org/ns#" xmlns:dc="http://purl.org/dc/elements/1.1/" xmlns:inkscape="http://www.inkscape.org/namespaces/inkscape" xmlns:rdf="http://www.w3.org/1999/02/22-rdf-syntax-ns#" xmlns:sodipodi="http://sodipodi.sourceforge.net/DTD/sodipodi-0.dtd">
 <title id="title2">El Velo del Espejismo de la Esfinge de Giza II</title>
 <sodipodi:namedview id="namedview1" bordercolor="#000000" borderopacity="0.25" inkscape:current-layer="layer1" inkscape:cx="396.84014" inkscape:cy="561.25984" inkscape:deskcolor="#d1d1d1" inkscape:document-units="mm" inkscape:pagecheckerboard="0" inkscape:pageopacity="0.0" inkscape:showpageshadow="2" inkscape:window-height="664" inkscape:window-maximized="1" inkscape:window-width="1366" inkscape:window-x="-8" inkscape:window-y="-8" inkscape:zoom="0.49264169" pagecolor="#ffffff"/>
 <defs id="defs1">
  <pattern id="WMFhbasepattern" width="6" height="6" patternUnits="userSpaceOnUse"/>
 </defs>
 <g id="layer1" inkscape:groupmode="layer" inkscape:label="Capa 1">
  <g id="g2" transform="matrix(1.1882 0 0 1.1882 206.84 -45.529)" stroke-width=".08416">
   <g id="g1" transform="matrix(.26458 0 0 .26458 -215.02 -4.1569)" stroke-width=".31808">
    <g fill="none" stroke-linecap="round" stroke-linejoin="round" stroke-width=".31808">
     <path id="path1" d="m462.2 401.92h220.43" stroke="#f00"/>
     <g stroke="#212830">
      <path id="path2" d="m462.2 224.54v-49.487"/>
      <path id="path3" d="m682.63 224.54v-49.487"/>
      <path id="path4" d="m466.27 188.7h69.2"/>
      <path id="path5" d="m678.56 188.7h-69.2"/>
     </g>
    </g>
    <g>
     <path id="path6" d="m466.27 188.01v1.3848l-4.073-0.69241z" fill="#212830" fill-rule="evenodd"/>
     <path id="path7" d="m678.56 188.01v1.3848l4.073-0.69241z" fill="#212830" fill-rule="evenodd"/>
     <text id="text8" transform="translate(533.4 195.42)" fill="#000000" font-family="Arial" font-size="19.062px" font-weight="400" letter-spacing="0px" stroke-width=".31808" word-spacing="0px" style="line-height:125%" xml:space="preserve"><tspan id="tspan8" x="0" y="0" sodipodi:role="line"><tspan id="tspan7" dx="0" dy="0" fill="#212830" font-family="Arial" font-size="19.062px" font-weight="400" stroke-width=".31808">1.618051</tspan></tspan></text>
    </g>
    <g fill="none" stroke="#212830" stroke-linecap="round" stroke-linejoin="round" stroke-width=".31808">
     <path id="path8" d="m734.68 265.48h51.849"/>
     <path id="path9" d="m734.68 401.92h51.849"/>
     <path id="path10" d="m772.93 269.59v57.144"/>
     <path id="path11" d="m772.93 397.85v-57.144"/>
    </g>
    <g>
     <path id="path12" d="m772.24 269.59h1.3441l-0.65167-4.1137z" fill="#212830" fill-rule="evenodd"/>
     <path id="path13" d="m772.24 397.85h1.3441l-0.65167 4.073z" fill="#212830" fill-rule="evenodd"/>
     <text id="text14" transform="translate(732.61 340.42)" fill="#000000" font-family="Arial" font-size="19.062px" font-weight="400" letter-spacing="0px" stroke-width=".31808" word-spacing="0px" style="line-height:125%" xml:space="preserve"><tspan id="tspan14" x="0" y="0" sodipodi:role="line"><tspan id="tspan13" dx="0" dy="0" fill="#212830" font-family="Arial" font-size="19.062px" font-weight="400" stroke-width=".31808">1.000000</tspan></tspan></text>
    </g>
    <g fill="none" stroke-linecap="round" stroke-linejoin="round" stroke-width=".31808">
     <path id="path14" d="m462.2 401.92v-136.44" stroke="#f00"/>
     <g stroke="#0f0">
      <path id="path15" d="m462.2 265.48 220.43 136.44"/>
      <path id="path16" d="m462.2 538.37 220.43-136.44"/>
      <path id="path17" d="m462.2 265.48-220.47 136.44"/>
      <path id="path18" d="m462.2 538.37-220.47-136.44"/>
     </g>
    </g>
    <g fill="#000000" font-family="Arial" font-weight="400" letter-spacing="0px" stroke-width=".31808" word-spacing="0px">
     <g font-size="17.125px">
      <text id="text19" transform="translate(164.14 319.52)" style="line-height:125%" xml:space="preserve"><tspan id="tspan19" x="0" y="0" sodipodi:role="line"><tspan id="tspan18" dx="0" dy="0" fill="#00ff00" font-family="Arial" font-size="17.125px" font-weight="400" stroke-width=".31808">A</tspan></tspan></text>
      <text id="text21" transform="translate(175.59 319.52)" style="line-height:125%" xml:space="preserve"><tspan id="tspan21" x="0" y="0" sodipodi:role="line"><tspan id="tspan20" dx="0" dy="0" fill="#212830" font-family="Arial" font-size="17.125px" font-weight="400" stroke-width=".31808">=2.3512</tspan></tspan></text>
      <text id="text23" transform="translate(163.29 340.99)" style="line-height:125%" xml:space="preserve"><tspan id="tspan23" x="0" y="0" sodipodi:role="line"><tspan id="tspan22" dx="0" dy="0" fill="#00ff00" font-family="Arial" font-size="17.125px" font-weight="400" stroke-width=".31808">C</tspan></tspan></text>
      <text id="text25" transform="translate(175.63 340.99)" style="line-height:125%" xml:space="preserve"><tspan id="tspan25" x="0" y="0" sodipodi:role="line"><tspan id="tspan24" dx="0" dy="0" fill="#212830" font-family="Arial" font-size="17.125px" font-weight="400" stroke-width=".31808">=5.4356</tspan></tspan></text>
     </g>
     <text id="text27" transform="translate(238.02 340.99)" font-size="18.562px" style="line-height:125%" xml:space="preserve"><tspan id="tspan27" x="0" y="0" sodipodi:role="line"><tspan id="tspan26" dx="0" dy="0" fill="#212830" font-family="Arial" font-size="18.562px" font-weight="400" stroke-width=".31808">5.44</tspan></tspan></text>
    </g>
    <path id="path27" d="m580.03 401.92-0.0407-3.4213-0.16291-3.462-0.24438-3.4213-0.36657-3.3806-0.44803-3.4213-0.52948-3.3806-0.65168-3.3806-0.73314-3.3398-0.85532-3.3398-0.93678-3.2991-1.0182-3.2991-1.0997-3.2176-1.2219-3.2176-1.3441-3.1769-1.3848-3.1362-1.507-3.0955-1.5885-3.014-1.6699-3.014-1.7514-2.9325-1.8328-2.8918-1.9143-2.8511-1.9958-2.8104-2.1179-2.6882-2.1587-2.6882-2.2401-2.6067-2.3216-2.5252-2.3623-2.4438-2.4845-2.4031-2.5252-2.3216-2.566-2.2401-2.6882-2.1587-2.6882-2.1179-2.8104-1.9958-2.8104-1.9143-2.8918-1.8736-2.9325-1.7514-3.014-1.6699-3.0547-1.5885-3.0547-1.4663-3.1362-1.4256-3.1769-1.3034-3.2176-1.2219-3.2176-1.1404-3.2584-1.0182-3.2991-0.93678-3.3398-0.85532-3.3398-0.73314-3.3806-0.65168-3.3806-0.52948-3.3806-0.44803-3.4213-0.36657-3.4213-0.24438-3.4213-0.16291-3.4213-0.0407-3.4213 0.0407-3.4213 0.16291-3.4213 0.24438-3.4213 0.36657-3.3806 0.44803-3.3806 0.52948-3.3806 0.65168-3.3398 0.73314-3.3398 0.85532-3.2991 0.93678-3.2584 1.0182-3.2176 1.1404-3.2176 1.2219-3.1769 1.3034-3.1362 1.4256-3.0547 1.4663-3.0547 1.5885-2.9733 1.6699-2.9733 1.7514-2.8918 1.8736-2.8104 1.9143-2.8104 1.9958-2.6882 2.1179-2.6882 2.1587-2.566 2.2401-2.5252 2.3216-2.4845 2.4031-2.3623 2.4438-2.3216 2.5252-2.2401 2.6067-2.1587 2.6882-2.118 2.6882-1.9958 2.8104-1.9143 2.8511-1.8328 2.8918-1.7514 2.9325-1.6699 3.014-1.5885 3.014-1.507 3.0955-1.3848 3.1362-1.3441 3.1769-1.2219 3.2176-1.0997 3.2176-1.0182 3.2991-0.93678 3.2991-0.85533 3.3398-0.73313 3.3398-0.65168 3.3806-0.52949 3.3806-0.44802 3.4213-0.36657 3.3806-0.24438 3.4213-0.16292 3.462-0.0407 3.4213 0.0407 3.4213 0.16292 3.462 0.24438 3.4213 0.36657 3.3806 0.44802 3.4213 0.52949 3.3806 0.65168 3.3806 0.73313 3.3398 0.85533 3.3398 0.93678 3.2991 1.0182 3.2991 1.0997 3.2176 1.2219 3.2176 1.3441 3.1769 1.3848 3.1362 1.507 3.0955 1.5885 3.014 1.6699 3.014 1.7514 2.9325 1.8328 2.8918 1.9143 2.8511 1.9958 2.8104 2.118 2.6882 2.1587 2.6882 2.2401 2.6067 2.3216 2.5252 2.3623 2.4438 2.4845 2.403 2.5252 2.3216 2.566 2.2401 2.6882 2.1587 2.6882 2.1179 2.8104 1.9958 2.8104 1.9143 2.8918 1.8736 2.9325 1.7514 3.014 1.6699 3.0547 1.5885 3.0547 1.4663 3.1362 1.4255 3.1769 1.3034 3.2176 1.2219 3.2176 1.1404 3.2584 1.0182 3.2991 0.93678 3.3398 0.85533 3.3398 0.73313 3.3806 0.65168 3.3806 0.52948 3.3806 0.44803 3.4213 0.36657 3.4213 0.24438 3.4213 0.16292 3.4213 0.0407 3.4213-0.0407 3.4213-0.16292 3.4213-0.24438 3.4213-0.36657 3.3806-0.44803 3.3806-0.52948 3.3806-0.65168 3.3398-0.73313 3.3398-0.85533 3.2991-0.93678 3.2584-1.0182 3.2176-1.1404 3.2176-1.2219 3.1769-1.3034 3.1362-1.4255 3.0547-1.4663 3.0547-1.5885 3.014-1.6699 2.9325-1.7514 2.8918-1.8736 2.8104-1.9143 2.8104-1.9958 2.6882-2.1179 2.6882-2.1587 2.566-2.2401 2.5252-2.3216 2.4845-2.403 2.3623-2.4438 2.3216-2.5252 2.2401-2.6067 2.1587-2.6882 2.1179-2.6882 1.9958-2.8104 1.9143-2.8511 1.8328-2.8918 1.7514-2.9325 1.6699-3.014 1.5885-3.014 1.507-3.0955 1.3848-3.1362 1.3441-3.1769 1.2219-3.2176 1.0997-3.2176 1.0182-3.2991 0.93678-3.2991 0.85532-3.3398 0.73314-3.3398 0.65168-3.3806 0.52948-3.3806 0.44803-3.4213 0.36657-3.3806 0.24438-3.4213 0.16291-3.462z" fill="none" stroke="#0f0" stroke-linecap="round" stroke-linejoin="round" stroke-width=".31808"/>
    <g fill="#000000" font-family="Arial" font-size="17.125px" font-weight="400" letter-spacing="0px" stroke-width=".31808" word-spacing="0px">
     <text id="text29" transform="translate(173.31 209.15)" style="line-height:125%" xml:space="preserve"><tspan id="tspan29" x="0" y="0" sodipodi:role="line"><tspan id="tspan28" dx="0" dy="0" fill="#00ff00" font-family="Arial" font-size="17.125px" font-weight="400" stroke-width=".31808">A</tspan></tspan></text>
     <text id="text31" transform="translate(184.75 209.15)" style="line-height:125%" xml:space="preserve"><tspan id="tspan31" x="0" y="0" sodipodi:role="line"><tspan id="tspan30" dx="0" dy="0" fill="#212830" font-family="Arial" font-size="17.125px" font-weight="400" stroke-width=".31808">=3.2361</tspan></tspan></text>
     <text id="text33" transform="translate(172.45 229.84)" style="line-height:125%" xml:space="preserve"><tspan id="tspan33" x="0" y="0" sodipodi:role="line"><tspan id="tspan32" dx="0" dy="0" fill="#00ff00" font-family="Arial" font-size="17.125px" font-weight="400" stroke-width=".31808">C</tspan></tspan></text>
     <text id="text35" transform="translate(184.83 229.84)" style="line-height:125%" xml:space="preserve"><tspan id="tspan35" x="0" y="0" sodipodi:role="line"><tspan id="tspan34" dx="0" dy="0" fill="#212830" font-family="Arial" font-size="17.125px" font-weight="400" stroke-width=".31808">=7.6085</tspan></tspan></text>
    </g>
    <g fill="none" stroke="#212830" stroke-linecap="round" stroke-linejoin="round" stroke-width=".31808">
     <path id="path35" d="m345.18 387.75-46.717-74.332h-13.644"/>
     <path id="path36" d="m351.86 333.78-90.339-130.74h-13.604"/>
     <path id="path37" d="m619.01 364.65-1.1404 1.9958-1.0997 2.0772-0.97751 2.0772-0.97752 2.118-0.85532 2.1587-0.8146 2.1587-0.73313 2.2401-0.69241 2.1994-0.57021 2.2401-0.52949 2.2809-0.48876 2.2809-0.36656 2.2809-0.32584 2.2809-0.24438 2.3216"/>
     <path id="path38" d="m609.19 408.48 0.24438 2.3216 0.32584 2.2809 0.36656 2.2809 0.48876 2.2809 0.52949 2.2809 0.57021 2.2401 0.69241 2.1994 0.73313 2.2401 0.8146 2.1587 0.85532 2.1587 0.97752 2.118 0.97751 2.0772 1.0997 2.0772 1.1404 1.9958"/>
    </g>
    <g>
     <path id="path39" d="m618.77 364.49 0.48876 0.28511 0.6924-1.6699z" fill="#212830" fill-rule="evenodd"/>
     <path id="path40" d="m619.25 439.07-0.48876 0.32584 1.1812 1.3441z" fill="#212830" fill-rule="evenodd"/>
     <text id="text41" transform="translate(584.27 407.99)" fill="#000000" font-family="Arial" font-size="17.125px" font-weight="400" letter-spacing="0px" stroke-width=".31808" word-spacing="0px" style="line-height:125%" xml:space="preserve"><tspan id="tspan41" x="0" y="0" sodipodi:role="line"><tspan id="tspan40" dx="0" dy="0" fill="#212830" font-family="Arial" font-size="17.125px" font-weight="400" stroke-width=".31808">63.43°</tspan></tspan></text>
    </g>
    <path id="path41" d="m505.42 509.53-1.1812-1.7106-1.2219-1.6292-1.3034-1.5885-1.3848-1.5477-1.4255-1.4663-1.4663-1.4255-1.5477-1.3848-1.5885-1.3034-1.6699-1.2626-1.6699-1.1404-1.7514-1.1404-1.7514-1.0182" fill="none" stroke="#212830" stroke-linecap="round" stroke-linejoin="round" stroke-width=".31808"/>
    <path id="path42" d="m436.95 492.91-1.7514 1.0182-1.7514 1.1404-1.6699 1.1404-1.6699 1.2626-1.5885 1.3034-1.5477 1.3848-1.4663 1.4255-1.4255 1.4663-1.3848 1.5477-1.3034 1.5885-1.2219 1.6292-1.1812 1.7106" fill="none" stroke="#212830" stroke-linecap="round" stroke-linejoin="round" stroke-width=".31808"/>
    <g>
     <path id="path43" d="m505.7 509.37-0.52949 0.32584 1.2219 1.3441z" fill="#212830" fill-rule="evenodd"/>
     <path id="path44" d="m419.19 509.69-0.48876-0.32584-0.69241 1.6699z" fill="#212830" fill-rule="evenodd"/>
     <text id="text45" transform="translate(432.18 492.38)" fill="#000000" font-family="Arial" font-size="17.125px" font-weight="400" letter-spacing="0px" stroke-width=".31808" word-spacing="0px" style="line-height:125%" xml:space="preserve"><tspan id="tspan45" x="0" y="0" sodipodi:role="line"><tspan id="tspan44" dx="0" dy="0" fill="#212830" font-family="Arial" font-size="17.125px" font-weight="400" stroke-width=".31808">116.57°</tspan></tspan></text>
    </g>
   </g>
  </g>
 </g>
 <metadata id="metadata2">
  <rdf:RDF>
   <cc:Work rdf:about="">
    <dc:title>El Velo del Espejismo de la Esfinge de Giza II</dc:title>
    <dc:date>12-01-2025</dc:date>
    <dc:creator>
     <cc:Agent>
      <dc:title>Arq. Miguel Hernando Ibáñez Sánchez</dc:title>
     </cc:Agent>
    </dc:creator>
    <dc:rights>
     <cc:Agent>
      <dc:title>El Velo del Espejismo de la Esfinge de Giza II © 2025 by ISAN atelier is licensed under Creative Commons Attribution-NoDerivatives 4.0 International</dc:title>
     </cc:Agent>
    </dc:rights>
    <dc:publisher>
     <cc:Agent>
      <dc:title>ISAN atelier</dc:title>
     </cc:Agent>
    </dc:publisher>
    <dc:identifier>Miguel Hernando, I. S. (2025). El Velo del Espejismo de la Esfinge de Giza II. https://doi.org/10.5281/zenodo.14635023</dc:identifier>
    <dc:source>Sáchica, Boyacá - Colombia</dc:source>
    <dc:relation>Lo Oculto del Sendero de la Serpiente</dc:relation>
    <dc:language>Español</dc:language>
    <dc:subject>
     <rdf:Bag>
      <rdf:li>Arquitectura sagrada</rdf:li>
      <rdf:li>geometria sgrada</rdf:li>
      <rdf:li>sacred architecture</rdf:li>
      <rdf:li>sacred geometry</rdf:li>
     </rdf:Bag>
    </dc:subject>
    <dc:coverage>Global</dc:coverage>
    <dc:description>LAs condiciones naturales que motivaron a la construcción de la Gran Pirámide de Giza</dc:description>
    <cc:license rdf:resource="http://creativecommons.org/licenses/by-nd/4.0/"/>
   </cc:Work>
   <cc:License rdf:about="http://creativecommons.org/licenses/by-nd/4.0/">
    <cc:permits rdf:resource="http://creativecommons.org/ns#Reproduction"/>
    <cc:permits rdf:resource="http://creativecommons.org/ns#Distribution"/>
    <cc:requires rdf:resource="http://creativecommons.org/ns#Notice"/>
    <cc:requires rdf:resource="http://creativecommons.org/ns#Attribution"/>
   </cc:License>
  </rdf:RDF>
 </metadata>
</svg>
