<?xml version="1.0" encoding="UTF-8"?>
<!-- Created with Inkscape (http://www.inkscape.org/) -->
<svg id="svg1" width="210mm" height="140mm" inkscape:version="1.4 (86a8ad7, 2024-10-11)" sodipodi:docname="7.svg" version="1.1" viewBox="0 0 210 140" xmlns="http://www.w3.org/2000/svg" xmlns:cc="http://creativecommons.org/ns#" xmlns:dc="http://purl.org/dc/elements/1.1/" xmlns:inkscape="http://www.inkscape.org/namespaces/inkscape" xmlns:rdf="http://www.w3.org/1999/02/22-rdf-syntax-ns#" xmlns:sodipodi="http://sodipodi.sourceforge.net/DTD/sodipodi-0.dtd">
 <title id="title1">Los Secretos de las Catedrales. La Catedral Nacional de Washignton D.C</title>
 <sodipodi:namedview id="namedview1" bordercolor="#000000" borderopacity="0.25" inkscape:current-layer="layer1" inkscape:cx="396.84014" inkscape:cy="561.25984" inkscape:deskcolor="#d1d1d1" inkscape:document-units="mm" inkscape:pagecheckerboard="0" inkscape:pageopacity="0.0" inkscape:showpageshadow="2" inkscape:window-height="664" inkscape:window-maximized="1" inkscape:window-width="1366" inkscape:window-x="-8" inkscape:window-y="-8" inkscape:zoom="0.49264169" pagecolor="#ffffff"/>
 <defs id="defs1">
  <pattern id="WMFhbasepattern" width="6" height="6" patternUnits="userSpaceOnUse"/>
 </defs>
 <g id="layer1" inkscape:groupmode="layer" inkscape:label="Capa 1">
  <g id="g1" transform="matrix(.35507 0 0 .35507 -118.81 -64.238)" stroke-width=".28164">
   <g fill="none" stroke-linecap="round" stroke-linejoin="round" stroke-width=".28164">
    <g stroke="#f00">
     <path id="path1" d="m741.36 378.95h9.653"/>
     <path id="path2" d="m753.74 378.95h10.956"/>
     <path id="path3" d="m767.43 378.95h10.916"/>
     <path id="path4" d="m781.11 378.95h10.916"/>
     <path id="path5" d="m794.76 378.95h9.7344"/>
     <path id="path6" d="m804.49 378.95v-8.6347"/>
     <path id="path7" d="m804.49 367.59v-10.956"/>
     <path id="path8" d="m804.49 353.9v-10.956"/>
     <path id="path9" d="m804.49 340.22v-10.916"/>
     <path id="path10" d="m804.49 326.57v-10.956"/>
     <path id="path11" d="m804.49 312.89v-10.956"/>
     <path id="path12" d="m804.49 299.2v-10.956"/>
     <path id="path13" d="m804.49 285.52v-8.7569"/>
     <path id="path14" d="m804.49 276.72h-8.9605"/>
     <path id="path15" d="m792.8 276.72h-10.956"/>
     <path id="path16" d="m779.12 276.72h-10.956"/>
     <path id="path17" d="m765.43 276.72h-10.916"/>
     <path id="path18" d="m751.79 276.72h-8.9605"/>
     <path id="path19" d="m576.16 378.95v-102.23"/>
    </g>
    <g stroke="#0ff">
     <path id="path20" d="m804.45 378.95-0.0407-3.3398-0.16292-3.3806-0.24438-3.3398-0.12219-0.93679"/>
     <path id="path21" d="m803.6 365.22-0.36656-2.9733-0.52949-3.3398-0.65168-3.2991-0.32583-1.2626"/>
     <path id="path22" d="m801.11 351.66-0.61095-2.566-0.93678-3.2176-1.0182-3.2176-0.57022-1.5885"/>
     <path id="path23" d="m797 338.5-0.77387-2.118-1.2626-3.0955-1.3848-3.0547-0.97752-1.8736"/>
     <path id="path24" d="m791.38 325.92-0.85532-1.6699-1.6292-2.9325-1.7514-2.8511-1.3441-2.0772"/>
     <path id="path25" d="m784.29 314.11-0.85533-1.2626-1.955-2.6882-2.0772-2.6474-1.7921-2.1994"/>
     <path id="path26" d="m775.78 303.23-0.73313-0.85532-2.2809-2.4438-2.3216-2.403-2.3623-2.1994"/>
     <path id="path27" d="m766.04 293.5-0.52948-0.52949-2.5252-2.1587-2.6474-2.1179-2.6474-1.9958-0.24438-0.12219"/>
     <path id="path28" d="m755.21 284.95-0.24438-0.20365-2.8104-1.8736-2.8511-1.7514-2.8918-1.7106-0.57022-0.2851"/>
     <path id="path29" d="m743.44 277.82-2.9326-1.507-3.0547-1.4663-3.0547-1.3034-0.97751-0.36657"/>
     <path id="path30" d="m730.85 272.16-2.7289-1.059-3.1769-1.059-3.2176-0.97751-1.3441-0.32584"/>
     <path id="path31" d="m717.7 268.04-2.4438-0.61095-3.2584-0.6924-3.2991-0.57022-1.8328-0.24438"/>
     <path id="path32" d="m704.14 265.52-2.118-0.24438-3.3398-0.2851-3.3398-0.20365-2.1994-0.0407"/>
     <path id="path33" d="m690.41 264.66h-1.7514l-3.3398 0.12219-3.3398 0.20365-2.6067 0.24437"/>
     <path id="path34" d="m676.64 265.52-1.3441 0.12219-3.3398 0.52949-3.2991 0.57022-2.8918 0.65167"/>
     <path id="path35" d="m663.08 268-0.93679 0.20365-3.2176 0.85532-3.2176 0.97751-3.1769 1.059-0.0407 0.0407"/>
     <path id="path36" d="m649.92 272.12-0.52949 0.16292-3.1362 1.2626-3.0547 1.3034-3.0547 1.4663-0.36657 0.20365"/>
     <path id="path37" d="m637.34 277.74-0.16292 0.0815-2.9325 1.5885-2.8918 1.7106-2.8511 1.7514-0.69241 0.44803"/>
     <path id="path38" d="m625.53 284.86-2.566 1.8328-2.6474 1.9958-2.6474 2.1179-0.89606 0.77387"/>
     <path id="path39" d="m614.69 293.38-2.0365 1.8328-2.4438 2.3216-2.3216 2.403-1.059 1.1404"/>
     <path id="path40" d="m604.96 303.11-1.5885 1.7921-2.118 2.6067-2.0772 2.6474-1.1404 1.5477"/>
     <path id="path41" d="m596.45 313.99-1.1404 1.6292-1.7921 2.8511-1.7514 2.8511-1.1404 2.0365"/>
     <path id="path42" d="m589.32 325.76-2.2401 4.4803-1.3848 3.0547-1.0182 2.4845"/>
     <path id="path43" d="m583.66 338.34-0.44803 1.1812-1.0997 3.1362-1.0182 3.2176-0.85533 2.9325"/>
     <path id="path44" d="m579.54 351.5-0.20365 0.85532-0.73314 3.2584-0.65167 3.2991-0.52949 3.3398-0.0407 0.0407"/>
     <path id="path45" d="m577.02 365.06-0.0407 0.48876-0.32583 3.3398-0.24438 3.3398-0.16292 3.3806-0.0407 0.44803"/>
     <path id="path46" d="m576.2 378.79v0.16292l0.0407 3.3398 0.16292 3.3806 0.24438 3.3398 0.0407 0.81459"/>
     <path id="path47" d="m576.98 392.55 0.44803 3.0955 0.52949 3.3398 0.65167 3.2991 0.24438 1.1404"/>
     <path id="path48" d="m579.46 406.12 0.6924 2.6882 0.93679 3.2176 1.0182 3.2176 0.48876 1.4663"/>
     <path id="path49" d="m583.54 419.27 0.89606 2.2401 1.2626 3.0955 1.3848 3.0547 0.85532 1.7514"/>
     <path id="path50" d="m589.16 431.86 0.97751 1.7921 1.6292 2.9326 1.7514 2.8511 1.2219 1.955"/>
     <path id="path51" d="m596.24 443.71 0.97752 1.3441 1.955 2.6882 2.0772 2.6474 1.6699 2.0772"/>
     <path id="path52" d="m604.71 454.58 0.89605 0.93679 2.2809 2.4438 2.3216 2.403 2.1994 2.118"/>
     <path id="path53" d="m614.45 464.36 0.6924 0.57022 2.5252 2.1587 2.6474 2.118 2.6474 1.9958 0.0407 0.0815"/>
     <path id="path54" d="m625.24 472.87 0.44802 0.2851 2.8104 1.8736 2.8511 1.7514 2.8918 1.7106 0.36657 0.24438"/>
     <path id="path55" d="m637.05 480.04 0.12219 0.0407 2.9733 1.507 3.0547 1.4663 3.0547 1.3034 0.77387 0.32584"/>
     <path id="path56" d="m649.6 485.74 2.9325 1.059 3.1769 1.059 3.2176 0.97751 1.1404 0.32584"/>
     <path id="path57" d="m662.75 489.86 2.6474 0.61094 3.2584 0.69241 3.2991 0.57022 1.5885 0.2851"/>
     <path id="path58" d="m676.28 492.38 2.3623 0.24438 3.3398 0.28511 3.3398 0.20365 1.9958 0.0815"/>
     <path id="path59" d="m690.04 493.24h1.955l3.3398-0.12219 3.3398-0.20365 2.4031-0.20365"/>
     <path id="path60" d="m703.81 492.46 1.5477-0.20365 3.3398-0.52948 3.2991-0.57022 2.6882-0.57022"/>
     <path id="path61" d="m717.37 489.98 1.1404-0.28511 3.2176-0.85533 3.2176-0.97751 3.014-0.97751"/>
     <path id="path62" d="m730.53 485.91 0.73313-0.28511 3.1362-1.2626 3.0547-1.3034 3.0547-1.4663 0.16292-0.0815"/>
     <path id="path63" d="m743.11 480.29 0.36657-0.16292"/>
     <path id="path64" d="m743.48 480.08 2.9325-1.5885 2.8918-1.7106 2.8511-1.7514 0.48876-0.32584"/>
     <path id="path65" d="m754.93 473.2 0.0407-0.0407 2.7289-1.955 2.6474-1.9958 2.6474-2.118 0.73314-0.61094"/>
     <path id="path66" d="m765.8 464.69 2.1994-1.9958 2.4438-2.3216 2.3216-2.403 0.93678-0.97751"/>
     <path id="path67" d="m775.58 454.95 1.7106-1.955 2.118-2.6067 2.0772-2.6474 1.0182-1.3848"/>
     <path id="path68" d="m784.09 444.12 1.2626-1.8328 1.7921-2.8511 1.7514-2.8511 1.0182-1.8328"/>
     <path id="path69" d="m791.22 432.31 0.85533-1.6292 1.507-3.014 1.3848-3.0547 0.93678-2.2809"/>
     <path id="path70" d="m796.88 419.76 0.57021-1.3848 1.0997-3.1362 1.0182-3.2176 0.77386-2.7289"/>
     <path id="path71" d="m801.03 406.61 0.28511-1.059 0.73313-3.2584 0.65168-3.2991 0.48876-3.1769"/>
     <path id="path72" d="m803.56 393.08 0.12219-0.73313 0.32584-3.3398 0.24438-3.3398 0.16292-3.3806v-0.24438"/>
     <path id="path73" d="m804.41 379.32 0.0407-0.32584"/>
    </g>
    <path id="path74" d="m639.29 378.95h102.07v-102.23h-102.07z" stroke="#212830"/>
    <g stroke="#0ff">
     <path id="path75" d="m576.16 276.72 228.33 102.23"/>
     <path id="path76" d="m576.77 275.37 32.095-71.847"/>
     <path id="path77" d="m805.06 377.65 32.095-71.847"/>
     <path id="path78" d="m613.27 207.11 96.285 43.133"/>
     <path id="path79" d="m831.58 304.9-96.285-43.133"/>
    </g>
   </g>
   <g>
    <path id="path80" d="m613.63 206.3-0.77386 1.6699-4.6025-3.0955z" fill="#0ff" fill-rule="evenodd"/>
    <path id="path81" d="m831.95 304.05-0.73313 1.6699 5.3356 1.4255z" fill="#0ff" fill-rule="evenodd"/>
    <text id="text82" transform="translate(709.59 260.51)" fill="#000000" font-family="Arial" font-size="12.75px" font-weight="400" letter-spacing="0px" stroke-width=".28164" word-spacing="0px" style="line-height:125%" xml:space="preserve"><tspan id="tspan82" x="0" y="0" sodipodi:role="line"><tspan id="tspan81" dx="0" dy="0" fill="#00ffff" font-family="Arial" font-size="12.75px" font-weight="400" stroke-width=".28164">1.37</tspan></tspan></text>
   </g>
   <g fill="none" stroke-linecap="round" stroke-linejoin="round" stroke-width=".28164">
    <g stroke="#f00">
     <path id="path82" d="m576.16 378.95h63.131"/>
     <path id="path83" d="m576.16 276.72h63.131"/>
     <path id="path84" d="m576.16 378.95h228.33"/>
    </g>
    <path id="path85" d="m639.29 378.95h102.07v102.27h-102.07z" stroke="#212830"/>
    <g stroke="#0ff">
     <path id="path86" d="m639.29 481.22 4.5617-9.1235"/>
     <path id="path87" d="m645.08 469.65 4.8876-9.8159"/>
     <path id="path88" d="m651.19 457.39 4.8468-9.7751"/>
     <path id="path89" d="m657.26 445.18 4.8876-9.7751"/>
     <path id="path90" d="m663.37 432.96 4.8876-9.8159"/>
     <path id="path91" d="m669.47 420.7 4.8876-9.7751"/>
     <path id="path92" d="m675.58 408.48 4.8876-9.8159"/>
     <path id="path93" d="m681.69 396.22 4.8876-9.7751"/>
     <path id="path94" d="m687.8 384 4.8876-9.7751"/>
     <path id="path95" d="m693.91 371.78 4.8876-9.8159"/>
     <path id="path96" d="m700.02 359.52 4.8876-9.7751"/>
     <path id="path97" d="m706.13 347.3 4.8876-9.8159"/>
     <path id="path98" d="m712.24 335.04 4.8876-9.7751"/>
     <path id="path99" d="m718.35 322.82 4.8876-9.7751"/>
     <path id="path100" d="m724.46 310.61 4.8876-9.8159"/>
     <path id="path101" d="m730.57 298.35 4.8876-9.7751"/>
     <path id="path102" d="m736.68 286.13 0.0815-0.24438 4.5617-9.1235"/>
    </g>
   </g>
   <text id="text103" transform="translate(827.71 423.34)" fill="#000000" font-family="Garamond" font-size="22.25px" font-weight="400" letter-spacing="0px" stroke-width=".28164" word-spacing="0px" style="line-height:125%" xml:space="preserve"><tspan id="tspan103" x="0" y="0" sodipodi:role="line"><tspan id="tspan102" dx="0" dy="0" fill="#212830" font-family="Garamond" font-size="22.25px" font-weight="400" stroke-width=".28164">R0.626</tspan></tspan></text>
   <path id="path103" d="m826.37 416.18h-7.2906l-12.056-3.5028" fill="none" stroke="#212830" stroke-linecap="round" stroke-linejoin="round" stroke-width=".28164"/>
   <path id="path104" d="m807.34 411.53-0.65168 2.3216-6.6797-3.1769z" fill="#212830" fill-rule="evenodd"/>
   <text id="text105" transform="translate(822.21 460.37)" fill="#000000" font-family="Garamond" font-size="22.25px" font-weight="400" letter-spacing="0px" stroke-width=".28164" word-spacing="0px" style="line-height:125%" xml:space="preserve"><tspan id="tspan105" x="0" y="0" sodipodi:role="line"><tspan id="tspan104" dx="0" dy="0" fill="#212830" font-family="Garamond" font-size="22.25px" font-weight="400" stroke-width=".28164">Ø1.252</tspan></tspan></text>
   <path id="path105" d="m821.44 453.4h-7.2906l-19.672-11.852" fill="none" stroke="#212830" stroke-linecap="round" stroke-linejoin="round" stroke-width=".28164"/>
   <path id="path106" d="m795.09 440.53-1.2626 2.0772-5.6207-4.8061z" fill="#212830" fill-rule="evenodd"/>
   <g stroke-width=".28164">
    <text id="text107" transform="translate(766.7 390.72)" fill="#000000" font-family="Arial" font-size="12.75px" font-weight="400" letter-spacing="0px" word-spacing="0px" style="line-height:125%" xml:space="preserve"><tspan id="tspan107" x="0" y="0" sodipodi:role="line"><tspan id="tspan106" dx="0" dy="0" fill="#212830" font-family="Arial" font-size="12.75px" font-weight="400" stroke-width=".28164">CAPITOLIO</tspan></tspan></text>
    <path id="path107" d="m456.95 378.95v-102.23h284.42v102.23z" fill="none" stroke="#f00" stroke-linecap="round" stroke-linejoin="round"/>
    <text id="text109" transform="translate(341.8 288.49)" fill="#000000" font-family="Arial" font-size="12.75px" font-weight="400" letter-spacing="0px" word-spacing="0px" style="line-height:125%" xml:space="preserve"><tspan id="tspan109" x="0" y="0" sodipodi:role="line"><tspan id="tspan108" dx="0" dy="0" fill="#212830" font-family="Arial" font-size="12.75px" font-weight="400" stroke-width=".28164">CASA BLANCA</tspan></tspan></text>
   </g>
   <g fill="none" stroke-linecap="round" stroke-linejoin="round" stroke-width=".28164">
    <path id="path109" d="m741.36 378.95 5.9058 7.1277h18.247" stroke="#212830"/>
    <path id="path110" d="m456.95 276.72-5.9058 7.087h-18.206" stroke="#212830"/>
    <g stroke="#0ff">
     <path id="path111" d="m456.95 380.42v23.257"/>
     <path id="path112" d="m576.16 380.42v23.257"/>
     <path id="path113" d="m462.45 402.21h54.13"/>
     <path id="path114" d="m570.71 402.21h-27.452"/>
    </g>
   </g>
   <g>
    <path id="path115" d="m462.45 401.31v1.8328l-5.4985-0.93679z" fill="#0ff" fill-rule="evenodd"/>
    <path id="path116" d="m570.71 401.31v1.8328l5.4578-0.93679z" fill="#0ff" fill-rule="evenodd"/>
    <text id="text117" transform="translate(517.47 406.73)" fill="#000000" font-family="Arial" font-size="12.75px" font-weight="400" letter-spacing="0px" stroke-width=".28164" word-spacing="0px" style="line-height:125%" xml:space="preserve"><tspan id="tspan117" x="0" y="0" sodipodi:role="line"><tspan id="tspan116" dx="0" dy="0" fill="#00ffff" font-family="Arial" font-size="12.75px" font-weight="400" stroke-width=".28164">0.65</tspan></tspan></text>
   </g>
   <g fill="none" stroke="#212830" stroke-linecap="round" stroke-linejoin="round" stroke-width=".28164">
    <path id="path117" d="m639.29 380.42v23.134"/>
    <path id="path118" d="m741.36 380.42v23.134"/>
    <path id="path119" d="m644.75 402.08h32.299"/>
    <path id="path120" d="m735.9 402.08h-32.299"/>
   </g>
   <g>
    <path id="path121" d="m644.75 401.15v1.8328l-5.4578-0.89605z" fill="#212830" fill-rule="evenodd"/>
    <path id="path122" d="m735.9 401.15v1.8328l5.4578-0.89605z" fill="#212830" fill-rule="evenodd"/>
    <text id="text123" transform="translate(677.95 406.61)" fill="#000000" font-family="Arial" font-size="12.75px" font-weight="400" letter-spacing="0px" stroke-width=".28164" word-spacing="0px" style="line-height:125%" xml:space="preserve"><tspan id="tspan123" x="0" y="0" sodipodi:role="line"><tspan id="tspan122" dx="0" dy="0" fill="#212830" font-family="Arial" font-size="12.75px" font-weight="400" stroke-width=".28164">0.56</tspan></tspan></text>
   </g>
   <g fill="none" stroke="#212830" stroke-linecap="round" stroke-linejoin="round" stroke-width=".28164">
    <path id="path123" d="m805.96 378.95h45.74"/>
    <path id="path124" d="m805.96 276.72h45.74"/>
    <path id="path125" d="m850.23 373.49v-39.549"/>
    <path id="path126" d="m850.23 282.18v39.549"/>
   </g>
   <g>
    <path id="path127" d="m849.34 373.49h1.8328l-0.93678 5.4578z" fill="#212830" fill-rule="evenodd"/>
    <path id="path128" d="m849.34 282.18h1.8328l-0.93678-5.4578z" fill="#212830" fill-rule="evenodd"/>
    <text id="text129" transform="translate(837.85 332.35)" fill="#000000" font-family="Arial" font-size="12.75px" font-weight="400" letter-spacing="0px" stroke-width=".28164" word-spacing="0px" style="line-height:125%" xml:space="preserve"><tspan id="tspan129" x="0" y="0" sodipodi:role="line"><tspan id="tspan128" dx="0" dy="0" fill="#212830" font-family="Arial" font-size="12.75px" font-weight="400" stroke-width=".28164">0.56</tspan></tspan></text>
    <text id="text131" transform="translate(599.91 519.43)" fill="#000000" font-family="Arial" font-size="20.875px" font-weight="400" letter-spacing="0px" stroke-width=".28164" word-spacing="0px" style="line-height:125%" xml:space="preserve"><tspan id="tspan131" x="0" y="0" sodipodi:role="line"><tspan id="tspan130" dx="0" dy="0" fill="#212830" font-family="Arial" font-size="20.875px" font-weight="400" stroke-width=".28164">DOBLE CUADRADO - RAIZ DE 5</tspan></tspan></text>
   </g>
   <g fill="none" stroke="#0ff" stroke-linecap="round" stroke-linejoin="round" stroke-width=".28164">
    <path id="path131" d="m639.29 380.42v23.257"/>
    <path id="path132" d="m576.16 380.42v23.257"/>
    <path id="path133" d="m633.8 402.21h-12.748"/>
    <path id="path134" d="m581.66 402.21h12.748"/>
   </g>
   <g>
    <path id="path135" d="m633.8 401.31v1.8328l5.4985-0.93679z" fill="#0ff" fill-rule="evenodd"/>
    <path id="path136" d="m581.66 401.31v1.8328l-5.4985-0.93679z" fill="#0ff" fill-rule="evenodd"/>
    <text id="text137" transform="translate(595.31 406.73)" fill="#000000" font-family="Arial" font-size="12.75px" font-weight="400" letter-spacing="0px" stroke-width=".28164" word-spacing="0px" style="line-height:125%" xml:space="preserve"><tspan id="tspan137" x="0" y="0" sodipodi:role="line"><tspan id="tspan136" dx="0" dy="0" fill="#00ffff" font-family="Arial" font-size="12.75px" font-weight="400" stroke-width=".28164">0.35</tspan></tspan></text>
   </g>
   <g fill="none" stroke="#0ff" stroke-linecap="round" stroke-linejoin="round" stroke-width=".28164">
    <path id="path137" d="m741.36 275.25v-21.627"/>
    <path id="path138" d="m804.49 275.25v-21.627"/>
    <path id="path139" d="m746.86 255.09h12.748"/>
    <path id="path140" d="m799 255.09h-12.748"/>
   </g>
   <g>
    <path id="path141" d="m746.86 254.19v1.8328l-5.4985-0.93678z" fill="#0ff" fill-rule="evenodd"/>
    <path id="path142" d="m799 254.19v1.8328l5.4985-0.93678z" fill="#0ff" fill-rule="evenodd"/>
    <text id="text143" transform="translate(760.51 259.61)" fill="#000000" font-family="Arial" font-size="12.75px" font-weight="400" letter-spacing="0px" stroke-width=".28164" word-spacing="0px" style="line-height:125%" xml:space="preserve"><tspan id="tspan143" x="0" y="0" sodipodi:role="line"><tspan id="tspan142" dx="0" dy="0" fill="#00ffff" font-family="Arial" font-size="12.75px" font-weight="400" stroke-width=".28164">0.35</tspan></tspan></text>
   </g>
   <g fill="none" stroke="#212830" stroke-linecap="round" stroke-linejoin="round" stroke-width=".28164">
    <path id="path143" d="m741.36 240.18v-48.468"/>
    <path id="path144" d="m456.95 240.18v-48.468"/>
    <path id="path145" d="m735.9 195.38h-123.86"/>
    <path id="path146" d="m462.45 195.38h123.86"/>
   </g>
   <g>
    <path id="path147" d="m735.9 194.44v1.8328l5.4578-0.89605z" fill="#212830" fill-rule="evenodd"/>
    <path id="path148" d="m462.45 194.44v1.8328l-5.4985-0.89605z" fill="#212830" fill-rule="evenodd"/>
    <text id="text149" transform="translate(586.35 199.86)" fill="#000000" font-family="Arial" font-size="12.75px" font-weight="400" letter-spacing="0px" stroke-width=".28164" word-spacing="0px" style="line-height:125%" xml:space="preserve"><tspan id="tspan149" x="0" y="0" sodipodi:role="line"><tspan id="tspan148" dx="0" dy="0" fill="#212830" font-family="Arial" font-size="12.75px" font-weight="400" stroke-width=".28164">1.56</tspan></tspan></text>
   </g>
   <g fill="none" stroke="#212830" stroke-linecap="round" stroke-linejoin="round" stroke-width=".28164">
    <path id="path149" d="m742.83 378.95h17.636"/>
    <path id="path150" d="m742.83 481.22h17.636"/>
    <path id="path151" d="m759 384.45v39.508"/>
    <path id="path152" d="m759 475.72v-39.508"/>
   </g>
   <path id="path153" d="m758.1 384.45h1.8328l-0.93678-5.4985z" fill="#212830" fill-rule="evenodd"/>
   <path id="path154" d="m758.1 475.72h1.8328l-0.93678 5.4985z" fill="#212830" fill-rule="evenodd"/>
   <g fill="#000000" font-family="Arial" font-weight="400" letter-spacing="0px" stroke-width=".28164" word-spacing="0px">
    <text id="text155" transform="translate(746.62 434.59)" font-size="12.75px" style="line-height:125%" xml:space="preserve"><tspan id="tspan155" x="0" y="0" sodipodi:role="line"><tspan id="tspan154" dx="0" dy="0" fill="#212830" font-family="Arial" font-size="12.75px" font-weight="400" stroke-width=".28164">0.56</tspan></tspan></text>
    <g font-size="15.312px">
     <text id="text157" transform="translate(364.37 504.6)" style="line-height:125%" xml:space="preserve"><tspan id="tspan157" x="0" y="0" sodipodi:role="line"><tspan id="tspan156" dx="0" dy="0" fill="#212830" font-family="Arial" font-size="15.312px" font-weight="400" stroke-width=".28164">Á = 1.233   1.2315</tspan></tspan></text>
     <text id="text159" transform="translate(363.59 523.05)" style="line-height:125%" xml:space="preserve"><tspan id="tspan159" x="0" y="0" sodipodi:role="line"><tspan id="tspan158" dx="0" dy="0" fill="#212830" font-family="Arial" font-size="15.312px" font-weight="400" stroke-width=".28164">C= 3.94  3.9339</tspan></tspan></text>
     <text id="text161" transform="translate(362.7 559.63)" style="line-height:125%" xml:space="preserve"><tspan id="tspan161" x="0" y="0" sodipodi:role="line"><tspan id="tspan160" dx="0" dy="0" fill="#212830" font-family="Arial" font-size="15.312px" font-weight="400" stroke-width=".28164">116 + 278 = 394</tspan></tspan></text>
    </g>
   </g>
   <path id="path161" d="m607.69 457.8-70.096 38.653h-36.453" fill="none" stroke="#212830" stroke-linecap="round" stroke-linejoin="round" stroke-width=".28164"/>
   <path id="path162" d="m358.18 570.54h125.37v-31.728h-125.37z" fill="none" stroke="#f0f" stroke-linecap="round" stroke-linejoin="round" stroke-width=".28164"/>
  </g>
 </g>
 <metadata id="metadata1">
  <rdf:RDF>
   <cc:Work rdf:about="">
    <dc:title>Los Secretos de las Catedrales. La Catedral Nacional de Washignton D.C</dc:title>
    <dc:date>16-01-2025</dc:date>
    <dc:creator>
     <cc:Agent>
      <dc:title>Miguel Hernando Ibáñez Sánchez</dc:title>
     </cc:Agent>
    </dc:creator>
    <dc:rights>
     <cc:Agent>
      <dc:title>Secretos de las catedrales. La Catedral Nacional de Washington D.C © 2025 by ISAN atelier is licensed under Creative Commons Attribution-NoDerivatives 4.0 International</dc:title>
     </cc:Agent>
    </dc:rights>
    <dc:publisher>
     <cc:Agent>
      <dc:title>ISAN atelier</dc:title>
     </cc:Agent>
    </dc:publisher>
    <dc:identifier>10.5281/zenodo.14675978</dc:identifier>
    <dc:source>Sáchica, Boyacá - Colombia</dc:source>
    <dc:relation>En Búsqueda de las Claves Sacras de la Ciudad de Washignton D.C</dc:relation>
    <dc:language>Español</dc:language>
    <dc:subject>
     <rdf:Bag>
      <rdf:li>arquitectura sagrada</rdf:li>
      <rdf:li>geometria sagrada</rdf:li>
      <rdf:li>sacred architecture</rdf:li>
      <rdf:li>sacred geometry</rdf:li>
     </rdf:Bag>
    </dc:subject>
    <dc:coverage>Global</dc:coverage>
    <dc:description>Estudios geometricos y sus misterios</dc:description>
    <cc:license rdf:resource="http://creativecommons.org/licenses/by-nd/4.0/"/>
   </cc:Work>
   <cc:License rdf:about="http://creativecommons.org/licenses/by-nd/4.0/">
    <cc:permits rdf:resource="http://creativecommons.org/ns#Reproduction"/>
    <cc:permits rdf:resource="http://creativecommons.org/ns#Distribution"/>
    <cc:requires rdf:resource="http://creativecommons.org/ns#Notice"/>
    <cc:requires rdf:resource="http://creativecommons.org/ns#Attribution"/>
   </cc:License>
  </rdf:RDF>
 </metadata>
</svg>
