<?xml version="1.0" encoding="UTF-8"?>
<!-- Created with Inkscape (http://www.inkscape.org/) -->
<svg id="svg1" width="210mm" height="200mm" inkscape:version="1.4 (86a8ad7, 2024-10-11)" sodipodi:docname="9.svg" version="1.1" viewBox="0 0 210 200" xmlns="http://www.w3.org/2000/svg" xmlns:cc="http://creativecommons.org/ns#" xmlns:dc="http://purl.org/dc/elements/1.1/" xmlns:inkscape="http://www.inkscape.org/namespaces/inkscape" xmlns:rdf="http://www.w3.org/1999/02/22-rdf-syntax-ns#" xmlns:sodipodi="http://sodipodi.sourceforge.net/DTD/sodipodi-0.dtd">
 <title id="title2">Los Secretos de las Catedrales. La Catedral Nacional de Washignton D.C</title>
 <sodipodi:namedview id="namedview1" bordercolor="#000000" borderopacity="0.25" inkscape:current-layer="layer1" inkscape:cx="397.94365" inkscape:cy="560.83816" inkscape:deskcolor="#d1d1d1" inkscape:document-units="mm" inkscape:pagecheckerboard="0" inkscape:pageopacity="0.0" inkscape:showpageshadow="2" inkscape:window-height="664" inkscape:window-maximized="1" inkscape:window-width="1366" inkscape:window-x="-8" inkscape:window-y="-8" inkscape:zoom="0.45735119" pagecolor="#ffffff"/>
 <defs id="defs1">
  <pattern id="WMFhbasepattern" width="6" height="6" patternUnits="userSpaceOnUse"/>
 </defs>
 <g id="layer1" inkscape:groupmode="layer" inkscape:label="Capa 1">
  <g id="g2" transform="matrix(1.9047 0 0 1.9047 220.71 -61.796)" stroke-width=".052502">
   <g id="g1" transform="matrix(.26458 0 0 .26458 -233.91 2.4186)" stroke-width=".19843">
    <g fill="none" stroke-linecap="round" stroke-linejoin="round" stroke-width=".19843">
     <g stroke="#f00">
      <path id="path1" d="m579.14 308.24h142.76"/>
      <path id="path2" d="m579.14 165.28h142.76"/>
      <path id="path3" d="m650.49 165.28v142.96"/>
      <path id="path4" d="m721.89 165.28v142.96"/>
      <path id="path5" d="m579.14 165.28v142.96"/>
      <path id="path6" d="m579.14 308.24 4.4395-4.4395"/>
      <path id="path7" d="m589.48 297.9 3.9508-3.9508"/>
      <path id="path8" d="m599.3 288.04 3.9508-3.9508"/>
      <path id="path9" d="m609.15 278.18 3.91-3.91"/>
      <path id="path10" d="m618.97 268.37 3.9508-3.9508"/>
      <path id="path11" d="m628.79 258.51 3.9508-3.9508"/>
      <path id="path12" d="m638.64 248.66 3.9101-3.9508"/>
      <path id="path13" d="m648.46 238.8 3.9508-3.91"/>
      <path id="path14" d="m658.31 228.98 3.91-3.9508"/>
      <path id="path15" d="m668.13 219.13 3.9508-3.9508"/>
      <path id="path16" d="m677.95 209.27 3.9508-3.9508"/>
      <path id="path17" d="m687.8 199.41 3.91-3.91"/>
      <path id="path18" d="m697.62 189.6 3.9508-3.9508"/>
      <path id="path19" d="m707.43 179.74 3.9508-3.9508"/>
      <path id="path20" d="m717.29 169.88 4.6025-4.6025"/>
      <path id="path21" d="m579.14 165.28 4.4395 4.4803"/>
      <path id="path22" d="m589.48 175.67 3.9508 3.9508"/>
      <path id="path23" d="m599.3 185.52 3.9508 3.9508"/>
      <path id="path24" d="m609.15 195.38 3.91 3.91"/>
      <path id="path25" d="m618.97 205.2 3.9508 3.9508"/>
      <path id="path26" d="m628.79 215.05 3.9508 3.9508"/>
      <path id="path27" d="m638.64 224.91 3.9101 3.9508"/>
      <path id="path28" d="m648.46 234.77 3.9508 3.91"/>
      <path id="path29" d="m658.31 244.58 3.91 3.9508"/>
      <path id="path30" d="m668.13 254.44 3.9508 3.9508"/>
      <path id="path31" d="m677.95 264.3 3.9508 3.9508"/>
      <path id="path32" d="m687.8 274.15 3.91 3.91"/>
      <path id="path33" d="m697.62 283.97 3.9508 3.9508"/>
      <path id="path34" d="m707.43 293.82 3.9508 3.9508"/>
      <path id="path35" d="m717.29 303.68 4.5617 4.5617"/>
      <path id="path36" d="m721.85 236.76-0.0407-2.6474-0.16292-2.6474-0.24437-2.6067-0.32584-2.6067-0.44803-2.6067-0.52949-2.6067-0.61094-2.566-0.73314-2.5252-0.81459-2.5252-0.89606-2.4845-1.0182-2.4438-1.0997-2.4031-1.1404-2.3623-1.2626-2.3216-1.3441-2.2401-1.4663-2.2401-1.507-2.1587-1.5885-2.1179-1.6699-2.0365-1.7106-1.9958-1.8328-1.9143-1.8736-1.8328-1.955-1.7921-1.9958-1.7106-2.0772-1.6292-2.1587-1.5477-2.1587-1.4663-2.2401-1.3848-2.3216-1.3034-2.3216-1.2219-2.403-1.1404-2.403-1.059-2.4438-0.93679-2.5252-0.85532-2.5252-0.77387-2.5252-0.6924-2.566-0.57022-2.6067-0.48876-2.6067-0.36656-2.6067-0.32584-2.6474-0.16292-2.6474-0.12219h-2.6067l-2.6474 0.12219-2.6474 0.16292-2.6067 0.32584-2.6067 0.36656-2.6067 0.48876-2.566 0.57022-2.5252 0.6924-2.5252 0.77387-2.5252 0.85532-2.4438 0.93679-2.4031 1.059-2.403 1.1404-2.3216 1.2219-2.3216 1.3034-2.2401 1.3848-2.1587 1.4663-2.1587 1.5477-2.0772 1.6292-1.9958 1.7106-1.955 1.7921-1.8736 1.8328-1.8328 1.9143-1.7106 1.9958-1.6699 2.0365-1.5885 2.1179-1.507 2.1587-1.4663 2.2401-1.3441 2.2401-1.2626 2.3216-1.1404 2.3623-1.0997 2.4031-1.0182 2.4438-0.89605 2.4845-0.8146 2.5252-0.73313 2.5252-0.61095 2.566-0.52949 2.6067-0.44802 2.6067-0.32584 2.6067-0.24438 2.6067-0.16292 2.6474-0.0407 2.6474 0.0407 2.6474 0.16292 2.6474 0.24438 2.6067 0.32584 2.6067 0.44802 2.6067 0.52949 2.6067 0.61095 2.566 0.73313 2.5252 0.8146 2.5252 0.89605 2.4845 1.0182 2.4438 1.0997 2.403 1.1404 2.3623 1.2626 2.3216 1.3441 2.2401 1.4663 2.2401 1.507 2.1587 1.5885 2.118 1.6699 2.0365 1.7106 1.9958 1.8328 1.9143 1.8736 1.8328 1.955 1.7921 1.9958 1.7106 2.0772 1.6292 2.1587 1.5477 2.1587 1.4663 2.2401 1.3848 2.3216 1.3034 2.3216 1.2219 2.403 1.1404 2.4031 1.059 2.4438 0.93678 2.5252 0.85532 2.5252 0.77387 2.5252 0.6924 2.566 0.57022 2.6067 0.48876 2.6067 0.36657 2.6067 0.32583 2.6474 0.16292 2.6474 0.12219h2.6067l2.6474-0.12219 2.6474-0.16292 2.6067-0.32583 2.6067-0.36657 2.6067-0.48876 2.566-0.57022 2.5252-0.6924 2.5252-0.77387 2.5252-0.85532 2.4438-0.93678 2.403-1.059 2.403-1.1404 2.3216-1.2219 2.3216-1.3034 2.2401-1.3848 2.1587-1.4663 2.1587-1.5477 2.0772-1.6292 1.9958-1.7106 1.955-1.7921 1.8736-1.8328 1.8328-1.9143 1.7106-1.9958 1.6699-2.0365 1.5885-2.118 1.507-2.1587 1.4663-2.2401 1.3441-2.2401 1.2626-2.3216 1.1404-2.3623 1.0997-2.403 1.0182-2.4438 0.89606-2.4845 0.81459-2.5252 0.73314-2.5252 0.61094-2.566 0.52949-2.6067 0.44803-2.6067 0.32584-2.6067 0.24437-2.6067 0.16292-2.6474z"/>
     </g>
     <g stroke="#212830">
      <path id="path37" d="m579.14 163.41v-41.056"/>
      <path id="path38" d="m721.89 163.41v-41.056"/>
      <path id="path39" d="m581.95 124.23h59.221"/>
      <path id="path40" d="m719.08 124.23h-55.678"/>
     </g>
    </g>
    <g>
     <path id="path41" d="m581.95 123.74v0.93679l-2.8104-0.44803z" fill="#212830" fill-rule="evenodd"/>
     <path id="path42" d="m719.08 123.74v0.93679l2.8104-0.44803z" fill="#212830" fill-rule="evenodd"/>
     <text id="text43" transform="translate(640.6 127.44)" fill="#000000" font-family="Arial" font-size="9.0625px" font-weight="400" letter-spacing="0px" stroke-width=".19843" word-spacing="0px" style="line-height:125%" xml:space="preserve"><tspan id="tspan43" x="0" y="0" sodipodi:role="line"><tspan id="tspan42" dx="0" dy="0" fill="#212830" font-family="Arial" font-size="9.0625px" font-weight="400" stroke-width=".19843">1.539</tspan></tspan></text>
    </g>
    <g fill="none" stroke="#212830" stroke-linecap="round" stroke-linejoin="round" stroke-width=".19843">
     <path id="path43" d="m602.35 165.85-77.712 25.293"/>
     <path id="path44" d="m648.74 308.81-77.712 25.293"/>
     <path id="path45" d="m527.29 193.22 15.722 48.509"/>
     <path id="path46" d="m571.93 330.85-25.7-79.179"/>
    </g>
    <g>
     <path id="path47" d="m527.69 193.06-0.85533 0.28511-0.4073-2.7696z" fill="#212830" fill-rule="evenodd"/>
     <path id="path48" d="m572.38 330.73-0.89605 0.28511 1.3034 2.4845z" fill="#212830" fill-rule="evenodd"/>
     <text id="text49" transform="translate(511.65 248.98)" fill="#000000" font-family="Arial" font-size="9.0625px" font-weight="400" letter-spacing="0px" stroke-width=".19843" word-spacing="0px" style="line-height:125%" xml:space="preserve"><tspan id="tspan49" x="0" y="0" sodipodi:role="line"><tspan id="tspan48" dx="0" dy="0" fill="#212830" font-family="Arial" font-size="9.0625px" font-weight="400" stroke-width=".19843">1.61803399 </tspan></tspan></text>
     <text id="text51" transform="translate(562.07 249.27)" fill="#000000" font-family="Arial" font-size="9.875px" font-weight="400" letter-spacing="0px" stroke-width=".19843" word-spacing="0px" style="line-height:125%" xml:space="preserve"><tspan id="tspan51" x="0" y="0" sodipodi:role="line"><tspan id="tspan50" dx="0" dy="0" fill="#212830" font-family="Arial" font-size="9.875px" font-weight="400" stroke-width=".19843">= f</tspan></tspan></text>
    </g>
    <g fill="none" stroke="#212830" stroke-linecap="round" stroke-linejoin="round" stroke-width=".19843">
     <path id="path51" d="m604.14 453.04v27.981"/>
     <path id="path52" d="m696.89 453.04v27.981"/>
     <path id="path53" d="m606.91 479.19h19.876"/>
     <path id="path54" d="m694.12 479.19h-19.876"/>
    </g>
    <g>
     <path id="path55" d="m606.91 478.7v0.93678l-2.7696-0.44802z" fill="#212830" fill-rule="evenodd"/>
     <path id="path56" d="m694.12 478.7v0.93678l2.7696-0.44802z" fill="#212830" fill-rule="evenodd"/>
     <text id="text57" transform="translate(626.26 482.4)" fill="#000000" font-family="Arial" font-size="9.0625px" font-weight="400" letter-spacing="0px" stroke-width=".19843" word-spacing="0px" style="line-height:125%" xml:space="preserve"><tspan id="tspan57" x="0" y="0" sodipodi:role="line"><tspan id="tspan56" dx="0" dy="0" fill="#212830" font-family="Arial" font-size="9.0625px" font-weight="400" stroke-width=".19843">1.00000000</tspan></tspan></text>
    </g>
    <g fill="none" stroke-linecap="round" stroke-linejoin="round" stroke-width=".19843">
     <g stroke="#f00">
      <path id="path57" d="m579.14 308.24h142.76"/>
      <path id="path58" d="m579.14 451.16h142.76"/>
      <path id="path59" d="m650.49 451.16v-142.92"/>
      <path id="path60" d="m721.89 451.16v-142.92"/>
      <path id="path61" d="m579.14 451.16v-142.92"/>
      <path id="path62" d="m579.14 308.24 4.4395 4.4803"/>
      <path id="path63" d="m589.48 318.63 3.9508 3.9508"/>
      <path id="path64" d="m599.3 328.49 3.9508 3.9508"/>
      <path id="path65" d="m609.15 338.34 3.91 3.9101"/>
      <path id="path66" d="m618.97 348.16 3.9508 3.9508"/>
      <path id="path67" d="m628.83 358.01 3.9101 3.9508"/>
      <path id="path68" d="m638.64 367.87 3.9508 3.9101"/>
      <path id="path69" d="m648.46 377.69 3.9508 3.9508"/>
      <path id="path70" d="m658.31 387.54 3.91 3.9508"/>
      <path id="path71" d="m668.13 397.4 3.9508 3.9101"/>
      <path id="path72" d="m677.99 407.22 3.9101 3.9508"/>
      <path id="path73" d="m687.8 417.07 3.9508 3.9508"/>
      <path id="path74" d="m697.66 426.93 3.91 3.9508"/>
      <path id="path75" d="m707.48 436.79 3.9508 3.9101"/>
      <path id="path76" d="m717.29 446.6 4.6025 4.6025"/>
      <path id="path77" d="m579.14 451.16 4.4395-4.4395"/>
      <path id="path78" d="m589.48 440.82 3.9508-3.9508"/>
      <path id="path79" d="m599.3 430.96 3.9508-3.9508"/>
      <path id="path80" d="m609.15 421.1 3.91-3.91"/>
      <path id="path81" d="m618.97 411.29 3.9508-3.9508"/>
      <path id="path82" d="m628.83 401.43 3.9101-3.9508"/>
      <path id="path83" d="m638.64 391.58 3.9508-3.91"/>
      <path id="path84" d="m648.46 381.76 3.9508-3.9508"/>
      <path id="path85" d="m658.31 371.9 3.91-3.9508"/>
      <path id="path86" d="m668.13 362.05 3.9508-3.9101"/>
      <path id="path87" d="m677.99 352.23 3.9101-3.9508"/>
      <path id="path88" d="m687.8 342.37 3.9508-3.9508"/>
      <path id="path89" d="m697.66 332.52 3.91-3.9508"/>
      <path id="path90" d="m707.48 322.66 3.9508-3.9101"/>
      <path id="path91" d="m717.29 312.85 0.12219-0.12219 4.4803-4.4395"/>
      <path id="path92" d="m721.85 379.68-0.0407-2.6474-0.16292-2.6474-0.24437-2.6067-0.32584-2.6067-0.44803-2.6067-0.52949-2.6067-0.61094-2.566-0.73314-2.5252-0.81459-2.5252-0.89606-2.4845-1.0182-2.4438-1.0997-2.4031-1.1404-2.3623-1.2626-2.3216-1.3441-2.2401-1.4663-2.2401-1.507-2.1587-1.5885-2.1179-1.6699-2.0365-1.7106-1.9958-1.8328-1.9143-1.8736-1.8328-1.955-1.7921-1.9958-1.7106-2.0772-1.6292-2.1587-1.5477-2.1587-1.4663-2.2401-1.3848-2.3216-1.3034-2.3216-1.2219-2.403-1.1404-2.403-1.059-2.4438-0.93679-2.5252-0.85532-2.5252-0.77387-2.5252-0.6924-2.566-0.57022-2.6067-0.48875-2.6067-0.36657-2.6067-0.32584-2.6474-0.16292-2.6474-0.12219h-2.6067l-2.6474 0.12219-2.6474 0.16292-2.6067 0.32584-2.6067 0.36657-2.6067 0.48875-2.566 0.57022-2.5252 0.6924-2.5252 0.77387-2.5252 0.85532-2.4438 0.93679-2.4031 1.059-2.403 1.1404-2.3216 1.2219-2.3216 1.3034-2.2401 1.3848-2.1587 1.4663-2.1587 1.5477-2.0772 1.6292-1.9958 1.7106-1.955 1.7921-1.8736 1.8328-1.8328 1.9143-1.7106 1.9958-1.6699 2.0365-1.5885 2.1179-1.507 2.1587-1.4663 2.2401-1.3441 2.2401-1.2626 2.3216-1.1404 2.3623-1.0997 2.4031-1.0182 2.4438-0.89605 2.4845-0.8146 2.5252-0.73313 2.5252-0.61095 2.566-0.52949 2.6067-0.44802 2.6067-0.32584 2.6067-0.24438 2.6067-0.16292 2.6474-0.0407 2.6474 0.0407 2.6474 0.16292 2.6474 0.24438 2.6067 0.32584 2.6067 0.44802 2.6067 0.52949 2.6067 0.61095 2.566 0.73313 2.5252 0.8146 2.5252 0.89605 2.4845 1.0182 2.4438 1.0997 2.403 1.1404 2.3623 1.2626 2.3216 1.3441 2.2401 1.4663 2.2401 1.507 2.1587 1.5885 2.118 1.6699 2.0365 1.7106 1.9958 1.8328 1.9143 1.8736 1.8328 1.955 1.7921 1.9958 1.7106 2.0772 1.6292 2.1587 1.5477 2.1587 1.4663 2.2401 1.3848 2.3216 1.3034 2.3216 1.2219 2.403 1.1404 2.4031 1.059 2.4438 0.93678 2.5252 0.85533 2.5252 0.77386 2.5252 0.69241 2.566 0.57021 2.6067 0.48876 2.6067 0.36657 2.6067 0.32584 2.6474 0.16291 2.6474 0.12219h2.6067l2.6474-0.12219 2.6474-0.16291 2.6067-0.32584 2.6067-0.36657 2.6067-0.48876 2.566-0.57021 2.5252-0.69241 2.5252-0.77386 2.5252-0.85533 2.4438-0.93678 2.403-1.059 2.403-1.1404 2.3216-1.2219 2.3216-1.3034 2.2401-1.3848 2.1587-1.4663 2.1587-1.5477 2.0772-1.6292 1.9958-1.7106 1.955-1.7921 1.8736-1.8328 1.8328-1.9143 1.7106-1.9958 1.6699-2.0365 1.5885-2.118 1.507-2.1587 1.4663-2.2401 1.3441-2.2401 1.2626-2.3216 1.1404-2.3623 1.0997-2.403 1.0182-2.4438 0.89606-2.4845 0.81459-2.5252 0.73314-2.5252 0.61094-2.566 0.52949-2.6067 0.44803-2.6067 0.32584-2.6067 0.24437-2.6067 0.16292-2.6474z"/>
     </g>
     <g stroke="#212830">
      <path id="path93" d="m579.14 453.04v45.536"/>
      <path id="path94" d="m721.89 453.04v45.536"/>
      <path id="path95" d="m581.95 496.7h46.228"/>
      <path id="path96" d="m719.08 496.7h-43.459"/>
     </g>
    </g>
    <g>
     <path id="path97" d="m581.95 496.25v0.93678l-2.8104-0.48876z" fill="#212830" fill-rule="evenodd"/>
     <path id="path98" d="m719.08 496.25v0.93678l2.8104-0.48876z" fill="#212830" fill-rule="evenodd"/>
     <text id="text99" transform="translate(627.65 499.92)" fill="#000000" font-family="Arial" font-size="9.0625px" font-weight="400" letter-spacing="0px" stroke-width=".19843" word-spacing="0px" style="line-height:125%" xml:space="preserve"><tspan id="tspan99" x="0" y="0" sodipodi:role="line"><tspan id="tspan98" dx="0" dy="0" fill="#212830" font-family="Arial" font-size="9.0625px" font-weight="400" stroke-width=".19843">1.53884177</tspan></tspan></text>
    </g>
    <g fill="none" stroke="#212830" stroke-linecap="round" stroke-linejoin="round" stroke-width=".19843">
     <path id="path99" d="m698.64 450.59 92.497-30.099"/>
     <path id="path100" d="m652.29 307.63 92.497-30.099"/>
     <path id="path101" d="m788.53 418.42-22.483-69.241"/>
     <path id="path102" d="m743.85 280.79 18.98 58.447"/>
    </g>
    <g>
     <path id="path103" d="m788.98 418.29-0.89606 0.28511 1.3034 2.4845z" fill="#212830" fill-rule="evenodd"/>
     <path id="path104" d="m744.3 280.63-0.85532 0.28511-0.44803-2.7696z" fill="#212830" fill-rule="evenodd"/>
     <text id="text105" transform="translate(731.47 346.49)" fill="#000000" font-family="Arial" font-size="9.0625px" font-weight="400" letter-spacing="0px" stroke-width=".19843" word-spacing="0px" style="line-height:125%" xml:space="preserve"><tspan id="tspan105" x="0" y="0" sodipodi:role="line"><tspan id="tspan104" dx="0" dy="0" fill="#212830" font-family="Arial" font-size="9.0625px" font-weight="400" stroke-width=".19843">1.61803399 </tspan></tspan></text>
     <text id="text107" transform="translate(781.89 346.77)" fill="#000000" font-family="Arial" font-size="9.875px" font-weight="400" letter-spacing="0px" stroke-width=".19843" word-spacing="0px" style="line-height:125%" xml:space="preserve"><tspan id="tspan107" x="0" y="0" sodipodi:role="line"><tspan id="tspan106" dx="0" dy="0" fill="#212830" font-family="Arial" font-size="9.875px" font-weight="400" stroke-width=".19843">= f</tspan></tspan></text>
    </g>
    <g fill="none" stroke="#212830" stroke-linecap="round" stroke-linejoin="round" stroke-width=".19843">
     <path id="path107" d="m604.14 163.41v-27.981"/>
     <path id="path108" d="m696.89 163.41v-27.981"/>
     <path id="path109" d="m606.91 137.26h19.876"/>
     <path id="path110" d="m694.12 137.26h-19.876"/>
    </g>
    <g>
     <path id="path111" d="m606.91 136.81v0.93678l-2.7696-0.48875z" fill="#212830" fill-rule="evenodd"/>
     <path id="path112" d="m694.12 136.81v0.93678l2.7696-0.48875z" fill="#212830" fill-rule="evenodd"/>
     <text id="text113" transform="translate(626.26 140.48)" fill="#000000" font-family="Arial" font-size="9.0625px" font-weight="400" letter-spacing="0px" stroke-width=".19843" word-spacing="0px" style="line-height:125%" xml:space="preserve"><tspan id="tspan113" x="0" y="0" sodipodi:role="line"><tspan id="tspan112" dx="0" dy="0" fill="#212830" font-family="Arial" font-size="9.0625px" font-weight="400" stroke-width=".19843">1.00000000</tspan></tspan></text>
    </g>
    <g fill="none" stroke-linecap="round" stroke-linejoin="round" stroke-width=".19843">
     <path id="path113" d="m696.89 261.77h-92.742v92.905h92.742z" stroke="#00f"/>
     <g stroke="#212830">
      <path id="path114" d="m602.27 354.67h-53.56"/>
      <path id="path115" d="m602.27 451.16h-53.56"/>
      <path id="path116" d="m550.54 357.44v41.707"/>
      <path id="path117" d="m550.54 448.39v-41.667"/>
     </g>
    </g>
    <g>
     <path id="path118" d="m550.1 357.44h0.93679l-0.48876-2.7696z" fill="#212830" fill-rule="evenodd"/>
     <path id="path119" d="m550.1 448.39h0.93679l-0.48876 2.7696z" fill="#212830" fill-rule="evenodd"/>
     <text id="text120" transform="translate(526.27 406.12)" fill="#000000" font-family="Arial" font-size="9.0625px" font-weight="400" letter-spacing="0px" stroke-width=".19843" word-spacing="0px" style="line-height:125%" xml:space="preserve"><tspan id="tspan120" x="0" y="0" sodipodi:role="line"><tspan id="tspan119" dx="0" dy="0" fill="#212830" font-family="Arial" font-size="9.0625px" font-weight="400" stroke-width=".19843">1.03884177</tspan></tspan></text>
    </g>
    <g fill="none" stroke-linecap="round" stroke-linejoin="round" stroke-width=".19843">
     <path id="path120" d="m604.14 354.67v96.489h92.742v-285.88h-92.742z" stroke="#0ff"/>
     <g stroke="#0f0">
      <path id="path121" d="m604.14 451.16 46.35-142.92 46.391 142.92"/>
      <path id="path122" d="m650.49 308.24-46.35-142.96"/>
      <path id="path123" d="m650.49 308.24 46.391-142.96"/>
     </g>
     <g stroke="#212830">
      <path id="path124" d="m602.27 165.28h-143.04"/>
      <path id="path125" d="m602.27 451.16h-143.04"/>
      <path id="path126" d="m461.1 168.05v136.4"/>
      <path id="path127" d="m461.1 448.39v-136.4"/>
     </g>
    </g>
    <g>
     <path id="path128" d="m460.61 168.05h0.93679l-0.44803-2.7696z" fill="#212830" fill-rule="evenodd"/>
     <path id="path129" d="m460.61 448.39h0.93679l-0.44803 2.7696z" fill="#212830" fill-rule="evenodd"/>
     <text id="text130" transform="translate(452.26 311.42)" fill="#000000" font-family="Arial" font-size="9.0625px" font-weight="400" letter-spacing="0px" stroke-width=".19843" word-spacing="0px" style="line-height:125%" xml:space="preserve"><tspan id="tspan130" x="0" y="0" sodipodi:role="line"><tspan id="tspan129" dx="0" dy="0" fill="#212830" font-family="Arial" font-size="9.0625px" font-weight="400" stroke-width=".19843">3.08</tspan></tspan></text>
    </g>
    <g fill="none" stroke="#212830" stroke-linecap="round" stroke-linejoin="round" stroke-width=".19843">
     <path id="path130" d="m602.27 261.77h-94.982"/>
     <path id="path131" d="m602.27 354.67h-94.982"/>
     <path id="path132" d="m509.12 264.58v23.012"/>
     <path id="path133" d="m509.12 351.86v-56.696"/>
    </g>
    <g>
     <path id="path134" d="m508.67 264.58h0.89605l-0.44803-2.8104z" fill="#212830" fill-rule="evenodd"/>
     <path id="path135" d="m508.67 351.86h0.89605l-0.44803 2.8104z" fill="#212830" fill-rule="evenodd"/>
     <text id="text136" transform="translate(500 294.6)" fill="#000000" font-family="Arial" font-size="9.0625px" font-weight="400" letter-spacing="0px" stroke-width=".19843" word-spacing="0px" style="line-height:125%" xml:space="preserve"><tspan id="tspan136" x="0" y="0" sodipodi:role="line"><tspan id="tspan135" dx="0" dy="0" fill="#212830" font-family="Arial" font-size="9.0625px" font-weight="400" stroke-width=".19843">1.00</tspan></tspan></text>
    </g>
    <g fill="none" stroke="#212830" stroke-linecap="round" stroke-linejoin="round" stroke-width=".19843">
     <path id="path136" d="m602.27 165.28h-94.982"/>
     <path id="path137" d="m602.27 261.77h-94.982"/>
     <path id="path138" d="m509.12 168.05v41.707"/>
     <path id="path139" d="m509.12 259v-41.707"/>
    </g>
    <g>
     <path id="path140" d="m508.67 168.05h0.89605l-0.44803-2.7696z" fill="#212830" fill-rule="evenodd"/>
     <path id="path141" d="m508.67 259h0.89605l-0.44803 2.7696z" fill="#212830" fill-rule="evenodd"/>
     <text id="text142" transform="translate(500 216.72)" fill="#000000" font-family="Arial" font-size="9.0625px" font-weight="400" letter-spacing="0px" stroke-width=".19843" word-spacing="0px" style="line-height:125%" xml:space="preserve"><tspan id="tspan142" x="0" y="0" sodipodi:role="line"><tspan id="tspan141" dx="0" dy="0" fill="#212830" font-family="Arial" font-size="9.0625px" font-weight="400" stroke-width=".19843">1.04</tspan></tspan></text>
    </g>
    <g fill="none" stroke="#212830" stroke-linecap="round" stroke-linejoin="round" stroke-width=".19843">
     <path id="path142" d="m602.27 451.16h-94.982"/>
     <path id="path143" d="m602.27 354.67h-94.982"/>
     <path id="path144" d="m509.12 448.39v-41.667"/>
     <path id="path145" d="m509.12 357.44v41.707"/>
    </g>
    <g>
     <path id="path146" d="m508.67 448.39h0.89605l-0.44803 2.7696z" fill="#212830" fill-rule="evenodd"/>
     <path id="path147" d="m508.67 357.44h0.89605l-0.44803-2.7696z" fill="#212830" fill-rule="evenodd"/>
     <text id="text148" transform="translate(500 406.16)" fill="#000000" font-family="Arial" font-size="9.0625px" font-weight="400" letter-spacing="0px" stroke-width=".19843" word-spacing="0px" style="line-height:125%" xml:space="preserve"><tspan id="tspan148" x="0" y="0" sodipodi:role="line"><tspan id="tspan147" dx="0" dy="0" fill="#212830" font-family="Arial" font-size="9.0625px" font-weight="400" stroke-width=".19843">1.04</tspan></tspan></text>
    </g>
    <path id="path148" d="m669.19 241.61-1.955-0.48875-1.955-0.48876-1.955-0.4073-1.9958-0.32583-1.9958-0.28511-1.9958-0.24438" fill="none" stroke="#212830" stroke-linecap="round" stroke-linejoin="round" stroke-width=".19843"/>
    <path id="path149" d="m643.65 239.37-1.9958 0.24438-1.9958 0.28511-1.9958 0.32583-1.955 0.4073-3.91 0.97751" fill="none" stroke="#212830" stroke-linecap="round" stroke-linejoin="round" stroke-width=".19843"/>
    <g>
     <path id="path150" d="m669.35 241.12-0.28511 0.89605 2.8104 0.36657z" fill="#212830" fill-rule="evenodd"/>
     <path id="path151" d="m631.96 242.02-0.2851-0.89605-2.5252 1.2626z" fill="#212830" fill-rule="evenodd"/>
     <text id="text152" transform="translate(643.73 242.22)" fill="#000000" font-family="Arial" font-size="9.0625px" font-weight="400" letter-spacing="0px" stroke-width=".19843" word-spacing="0px" style="line-height:125%" xml:space="preserve"><tspan id="tspan152" x="0" y="0" sodipodi:role="line"><tspan id="tspan151" dx="0" dy="0" fill="#212830" font-family="Arial" font-size="9.0625px" font-weight="400" stroke-width=".19843">36°</tspan></tspan></text>
    </g>
    <path id="path152" d="m631.35 376.34 1.9958 0.52949 2.0365 0.48875 2.0772 0.4073 2.0365 0.36657 2.0772 0.28511 2.0772 0.24437" fill="none" stroke="#212830" stroke-linecap="round" stroke-linejoin="round" stroke-width=".19843"/>
    <path id="path153" d="m657.34 378.66 2.0772-0.24437 2.0772-0.28511 2.0365-0.36657 2.0772-0.4073 2.0365-0.48875 1.9958-0.52949" fill="none" stroke="#212830" stroke-linecap="round" stroke-linejoin="round" stroke-width=".19843"/>
    <g>
     <path id="path154" d="m631.19 376.79 0.28511-0.89606-2.8104-0.36657z" fill="#212830" fill-rule="evenodd"/>
     <path id="path155" d="m669.56 375.89 0.24437 0.89606 2.566-1.2626z" fill="#212830" fill-rule="evenodd"/>
     <text id="text156" transform="translate(643.73 382.21)" fill="#000000" font-family="Arial" font-size="9.0625px" font-weight="400" letter-spacing="0px" stroke-width=".19843" word-spacing="0px" style="line-height:125%" xml:space="preserve"><tspan id="tspan156" x="0" y="0" sodipodi:role="line"><tspan id="tspan155" dx="0" dy="0" fill="#212830" font-family="Arial" font-size="9.0625px" font-weight="400" stroke-width=".19843">36°</tspan></tspan></text>
    </g>
    <g fill="none" stroke="#212830" stroke-linecap="round" stroke-linejoin="round" stroke-width=".19843">
     <path id="path156" d="m605.9 451.73 156.81 51.034"/>
     <path id="path157" d="m698.64 165.85 156.85 51.034"/>
     <path id="path158" d="m761.81 499.55 44.314-136.53"/>
     <path id="path159" d="m852.84 218.96-44.273 136.49"/>
    </g>
    <g>
     <path id="path160" d="m761.36 499.43 0.89606 0.2851-1.3034 2.4845z" fill="#212830" fill-rule="evenodd"/>
     <path id="path161" d="m852.43 218.8 0.85533 0.28511 0.4073-2.7696z" fill="#212830" fill-rule="evenodd"/>
     <text id="text162" transform="translate(795.98 362.45)" fill="#000000" font-family="Arial" font-size="9.0625px" font-weight="400" letter-spacing="0px" stroke-width=".19843" word-spacing="0px" style="line-height:125%" xml:space="preserve"><tspan id="tspan162" x="0" y="0" sodipodi:role="line"><tspan id="tspan161" dx="0" dy="0" fill="#212830" font-family="Arial" font-size="9.0625px" font-weight="400" stroke-width=".19843">3.236</tspan></tspan></text>
    </g>
    <g fill="none" stroke="#212830" stroke-linecap="round" stroke-linejoin="round" stroke-width=".19843">
     <path id="path162" d="m577.3 308.24h-92.538"/>
     <path id="path163" d="m577.3 451.16h-92.538"/>
     <path id="path164" d="m486.64 311.01v64.882"/>
     <path id="path165" d="m486.64 448.39v-64.923"/>
    </g>
    <g>
     <path id="path166" d="m486.15 311.01h0.93678l-0.44802-2.7696z" fill="#212830" fill-rule="evenodd"/>
     <path id="path167" d="m486.15 448.39h0.93678l-0.44802 2.7696z" fill="#212830" fill-rule="evenodd"/>
     <text id="text168" transform="translate(477.52 382.9)" fill="#000000" font-family="Arial" font-size="9.0625px" font-weight="400" letter-spacing="0px" stroke-width=".19843" word-spacing="0px" style="line-height:125%" xml:space="preserve"><tspan id="tspan168" x="0" y="0" sodipodi:role="line"><tspan id="tspan167" dx="0" dy="0" fill="#212830" font-family="Arial" font-size="9.0625px" font-weight="400" stroke-width=".19843">1.54</tspan></tspan></text>
    </g>
    <g fill="none" stroke="#212830" stroke-linecap="round" stroke-linejoin="round" stroke-width=".19843">
     <path id="path168" d="m577.3 308.24h-92.538"/>
     <path id="path169" d="m602.27 165.28h-117.51"/>
     <path id="path170" d="m486.64 305.43v-64.882"/>
     <path id="path171" d="m486.64 168.05v64.923"/>
    </g>
    <g>
     <path id="path172" d="m486.15 305.43h0.93678l-0.44802 2.8104z" fill="#212830" fill-rule="evenodd"/>
     <path id="path173" d="m486.15 168.05h0.93678l-0.44802-2.7696z" fill="#212830" fill-rule="evenodd"/>
     <text id="text174" transform="translate(477.52 239.98)" fill="#000000" font-family="Arial" font-size="9.0625px" font-weight="400" letter-spacing="0px" stroke-width=".19843" word-spacing="0px" style="line-height:125%" xml:space="preserve"><tspan id="tspan174" x="0" y="0" sodipodi:role="line"><tspan id="tspan173" dx="0" dy="0" fill="#212830" font-family="Arial" font-size="9.0625px" font-weight="400" stroke-width=".19843">1.54</tspan></tspan></text>
    </g>
   </g>
  </g>
 </g>
 <metadata id="metadata2">
  <rdf:RDF>
   <cc:Work rdf:about="">
    <dc:title>Los Secretos de las Catedrales. La Catedral Nacional de Washignton D.C</dc:title>
    <dc:date>16-01-2025</dc:date>
    <dc:creator>
     <cc:Agent>
      <dc:title>Miguel Hernando Ibáñez Sánchez</dc:title>
     </cc:Agent>
    </dc:creator>
    <dc:rights>
     <cc:Agent>
      <dc:title>Secretos de las catedrales. La Catedral Nacional de Washington D.C © 2025 by ISAN atelier is licensed under Creative Commons Attribution-NoDerivatives 4.0 International</dc:title>
     </cc:Agent>
    </dc:rights>
    <dc:publisher>
     <cc:Agent>
      <dc:title>ISAN atelier</dc:title>
     </cc:Agent>
    </dc:publisher>
    <dc:identifier>10.5281/zenodo.14675978</dc:identifier>
    <dc:source>Sáchica, Boyacá - Colombia</dc:source>
    <dc:relation>En Búsqueda de las Claves Sacras de la Ciudad de Washignton D.C</dc:relation>
    <dc:language>Español</dc:language>
    <dc:subject>
     <rdf:Bag>
      <rdf:li>arquitectura sagrada</rdf:li>
      <rdf:li>geometria sagrada</rdf:li>
      <rdf:li>sacred architecture</rdf:li>
      <rdf:li>sacred geometry</rdf:li>
     </rdf:Bag>
    </dc:subject>
    <dc:coverage>Global</dc:coverage>
    <dc:description>Estudios geometricos y sus misterios</dc:description>
    <cc:license rdf:resource="http://creativecommons.org/licenses/by-nd/4.0/"/>
   </cc:Work>
   <cc:License rdf:about="http://creativecommons.org/licenses/by-nd/4.0/">
    <cc:permits rdf:resource="http://creativecommons.org/ns#Reproduction"/>
    <cc:permits rdf:resource="http://creativecommons.org/ns#Distribution"/>
    <cc:requires rdf:resource="http://creativecommons.org/ns#Notice"/>
    <cc:requires rdf:resource="http://creativecommons.org/ns#Attribution"/>
   </cc:License>
  </rdf:RDF>
 </metadata>
</svg>
