<?xml version="1.0" encoding="UTF-8"?>
<!-- Created with Inkscape (http://www.inkscape.org/) -->
<svg id="svg1" width="210mm" height="155mm" inkscape:version="1.4 (86a8ad7, 2024-10-11)" sodipodi:docname="Doble Cubo de Fi.svg" version="1.1" viewBox="0 0 210 155" xmlns="http://www.w3.org/2000/svg" xmlns:cc="http://creativecommons.org/ns#" xmlns:dc="http://purl.org/dc/elements/1.1/" xmlns:inkscape="http://www.inkscape.org/namespaces/inkscape" xmlns:rdf="http://www.w3.org/1999/02/22-rdf-syntax-ns#" xmlns:sodipodi="http://sodipodi.sourceforge.net/DTD/sodipodi-0.dtd">
 <title id="title2">Los Secretos de las Catedrales. La Catedral Nacional de Washignton D.C</title>
 <sodipodi:namedview id="namedview1" bordercolor="#000000" borderopacity="0.25" inkscape:current-layer="layer1" inkscape:cx="396.84014" inkscape:cy="561.25984" inkscape:deskcolor="#d1d1d1" inkscape:document-units="mm" inkscape:pagecheckerboard="0" inkscape:pageopacity="0.0" inkscape:showpageshadow="2" inkscape:window-height="664" inkscape:window-maximized="1" inkscape:window-width="1366" inkscape:window-x="-8" inkscape:window-y="-8" inkscape:zoom="0.49264169" pagecolor="#ffffff"/>
 <defs id="defs1">
  <pattern id="WMFhbasepattern" width="6" height="6" patternUnits="userSpaceOnUse"/>
 </defs>
 <g id="layer1" inkscape:groupmode="layer" inkscape:label="Capa 1">
  <g id="g2" transform="matrix(1.4974 0 0 1.4974 196.26 -49.772)" stroke-width=".066781">
   <g id="g1" transform="matrix(.26458 0 0 .26458 -191.46 -11.352)" stroke-width=".2524">
    <g fill="none" stroke-linecap="round" stroke-linejoin="round" stroke-width=".2524">
     <g stroke="#0f0">
      <path id="path1" d="m632.22 390.55v-91.054"/>
      <path id="path2" d="m632.22 299.5-127.37 73.659"/>
      <path id="path3" d="m504.86 373.16v91.054"/>
      <path id="path4" d="m504.86 464.21 127.37-73.659"/>
      <path id="path5" d="m504.86 373.16-206.1-119.17"/>
      <path id="path6" d="m298.76 253.99 127.37-73.659"/>
      <path id="path7" d="m426.13 180.33 206.1 119.17"/>
      <path id="path8" d="m426.13 271.39v-91.054"/>
      <path id="path9" d="m426.13 180.33-127.37 73.659"/>
      <path id="path10" d="m298.76 253.99v91.054"/>
      <path id="path11" d="m298.76 345.05 127.37-73.659"/>
      <path id="path12" d="m298.76 345.05 206.1 119.17"/>
      <path id="path13" d="m426.13 271.39 206.1 119.17"/>
     </g>
     <g stroke="#212830">
      <path id="path14" d="m506.42 465.12 58.861 34.006"/>
      <path id="path15" d="m633.79 391.46 58.861 34.047"/>
      <path id="path16" d="m571.59 493.68 29.596-17.106"/>
      <path id="path17" d="m683.21 429.14-29.596 17.106"/>
     </g>
    </g>
    <g fill="#212830" fill-rule="evenodd">
     <path id="path18" d="m570.27 492.9 2.638 1.5251-9.1919 3.7922z"/>
     <path id="path19" d="m681.89 428.39 2.638 1.4839 6.5539-5.2761z"/>
     <path id="path20" d="m598.09 472.7-0.65951 1.2778 1.8549 1.0717 0.37097-0.49463 0.70073-1.2778 0.24732-0.61829 0.24731-1.1954z"/>
     <path id="path21" d="m599.29 468.33-1.2366 0.70073 0.32976 0.86561 0.0412 1.3602v0.20609l-0.32976 1.2366 2.7617-1.2366 12.325 7.131 1.8961-1.1129z"/>
     <path id="path22" d="m621.14 473.98-2.2258-1.2778 2.2258-1.2778 2.1846 1.2778z"/>
     <path id="path23" d="m626.33 460.79-3.4212 2.3083 1.0717-0.45341 2.061-0.24732 1.6076 0.2061 1.8549 0.74195 1.2366 0.94805 0.57707 1.1129-0.12365 0.74195-0.98927 1.0717 3.6273-1.8549-0.37098-1.2366-0.74195-0.94805-1.3602-1.0305-1.0717-0.53586-1.9373-0.57707z"/>
     <path id="path24" d="m621.59 461.9-0.57707 0.37097-0.98926 1.1542-0.24732 0.57707 0.0824 1.319 1.7724-0.41219 0.16488-0.74195 1.1129-1.0717 3.4212-2.3083-0.94805 0.0412-2.0198 0.32975z"/>
     <path id="path25" d="m620.02 457.54-2.638 2.1846 0.70073-0.32975 2.061-0.32976h0.28853l2.1022 0.53585 1.7724-1.1954-0.24732-0.12366-2.0198-0.57707z"/>
     <path id="path26" d="m615.9 458.73-1.319 0.94804-0.74195 1.1542-0.0824 1.2366 0.12366 0.49463 0.61829 0.98927 0.98926 1.0717 1.4015 1.0717 1.8137 1.1541 1.9785 1.0305 1.8961 0.78317 1.8136 0.49464 1.69 0.20609 2.0198-0.0412 1.9373-0.45341 1.7724-0.74195 0.98926-0.74195 0.86561-1.1129 0.16488-0.90683-3.6273 1.8549-0.16488 0.0824-1.9373 0.57707-0.41219 0.0412-2.1434-0.16487-0.53585-0.12366-1.8137-0.74195-1.0305-0.78317-0.53586-1.1954-1.7724 0.41219-0.65951-0.41219-1.4839-1.0717-0.94805-0.94804-0.41219-0.74195-0.0824-1.1954 0.0412-0.16487 1.0717-1.0717 2.638-2.1846-0.28854 0.0412-2.0198 0.32976z"/>
     <path id="path27" d="m628.64 455.02-0.61829 1.2778 1.8549 1.0717 0.37097-0.45342 0.70073-1.319 0.2061-0.57707 0.28853-1.2366z"/>
     <path id="path28" d="m629.87 450.65-1.2366 0.70073 0.28854 0.86561 0.0824 1.3602-0.0412 0.2061-0.32976 1.2366 2.8029-1.2366 12.283 7.131 1.9373-1.1129z"/>
     <path id="path29" d="m651.64 447.31-3.5861 2.1846 1.1954-0.49463 2.061-0.32976 1.3602 0.16488 1.8549 0.65951 0.86561 0.65951 0.49463 1.1541-0.2061 0.78317-1.1954 1.0717-3.5861 2.3083 1.4015-0.0824 1.9373-0.45341 1.8136-0.82439 1.0305-0.70073 0.98927-1.1129 0.37097-1.1542-0.0412-0.61829-0.6183-1.1541-1.319-1.0305-1.2778-0.57708-1.9785-0.45341z"/>
     <path id="path30" d="m637.83 447.52 0.4122 1.2366 1.2366 1.0305 0.57707 0.28854 1.9785 0.49463 0.82439 0.0412 2.1846-0.32975-0.65951 0.8656-0.12366 1.2366 0.45341 0.8656 1.319 1.0717 0.86561 0.41219 1.8961 0.57707 2.1022 0.16488 3.5861-2.3083-0.16488 0.0824-1.9373 0.6183-0.16488 0.0412-2.1846-0.0412-0.12366-0.0412-1.8549-0.65951-0.8656-0.65951-0.49464-1.1542 0.2061-0.78317 1.1541-1.0717 3.5861-2.1846-2.1846 0.41219 0.37098-0.53585-3.2976 1.3602-0.61829 0.32976-1.9785 0.37097-0.65951-0.0412-1.8549-0.61829-0.37098-0.2061-0.61829-1.1954 0.0824-0.37097 1.0305-1.1129z"/>
     <path id="path31" d="m639.93 444.8-0.53585 0.37097-1.1541 1.0717-0.4122 1.1541v0.12366l3.7098-1.8137 0.57707-0.24731 1.9785-0.37098 0.65951 0.0412 1.8961 0.57707 0.32976 0.24732 0.65951 1.1541-0.0412 0.37098-1.0717 1.0717 3.2976-1.3602 0.12366-1.1954-0.12366-0.37098-1.1954-1.0717-0.2061-0.12366-1.8137-0.65951-2.1434-0.16488-0.74195 0.0412-1.9373 0.37098z"/>
    </g>
    <g fill="none" stroke="#212830" stroke-linecap="round" stroke-linejoin="round" stroke-width=".2524">
     <path id="path32" d="m503.29 465.12-49.752 28.771"/>
     <path id="path33" d="m297.19 345.95-49.752 28.771"/>
     <path id="path34" d="m447.23 488.41-86.726-50.164"/>
     <path id="path35" d="m256.88 378.35 86.767 50.164"/>
    </g>
    <g fill="#212830" fill-rule="evenodd">
     <path id="path36" d="m445.91 489.19 2.638-1.5251 6.5539 5.3173z"/>
     <path id="path37" d="m255.56 379.09 2.638-1.4839-9.1919-3.7922z"/>
     <path id="path38" d="m327.61 439.65-3.2976 2.3083 0.94804-0.45342 2.0198-0.37097 0.8656 0.0824 1.8961 0.57707 0.70073 0.57707 0.70073 1.2778v0.0824l0.12365 0.98927-0.0412 1.2778-0.20609 1.6076-0.0412 0.32975-0.16488 1.3602 0.0412 1.1541 0.2061 0.74195 0.61829 1.1954 1.1129 0.90682 10.429-6.018-1.8549-1.0717-7.7492 4.4517-0.2061-1.0717 0.0412-0.82439 0.2061-1.6076 0.12366-0.94804 0.12366-1.3602-0.0412-1.0305-0.12366-0.65951-0.53585-1.1954-0.16488-0.24732-1.2778-1.0305-0.45342-0.24732-1.8549-0.61829z"/>
     <path id="path39" d="m322.79 441.01-0.82439 0.49463-1.1129 1.0717-0.49464 1.1541 0.0412 0.57707 0.53586 1.1129 1.2778 1.1541 2.1846-1.0305-0.90683-0.70073-0.53585-1.1129 0.16488-0.70073 1.1954-1.0717 3.2976-2.3083-1.0717 0.0824-1.9373 0.41219z"/>
     <path id="path40" d="m346.66 445.46-2.1846-1.2778 2.1846-1.2778 2.2258 1.2778z"/>
     <path id="path41" d="m351.85 432.27-3.38 2.3083 1.0717-0.45341 2.061-0.28854 1.5663 0.24732 1.8549 0.74195 1.2366 0.94805 0.57707 1.1129-0.0824 0.74195-1.0305 1.0717 3.6685-1.8549-0.37097-1.2778-0.74195-0.90683-1.4015-1.0305-1.0717-0.53586-1.8961-0.57707z"/>
     <path id="path42" d="m347.15 433.38-0.57707 0.37097-1.0305 1.1542-0.24731 0.57707 0.12365 1.319 1.7724-0.41219 0.16488-0.74195 1.1129-1.0717 3.38-2.3083-0.90682 0.0412-2.061 0.32975z"/>
     <path id="path43" d="m345.54 429.01-2.638 2.1434 0.74195-0.28853 2.0198-0.32976h0.32976l2.061 0.53585 1.7724-1.1954-0.24732-0.12366-1.9785-0.57707z"/>
     <path id="path44" d="m341.46 430.21-1.319 0.94804-0.74195 1.1542-0.12366 1.1954 0.16488 0.49463 0.57707 1.0305 0.98927 1.0717 1.4015 1.0717 1.8549 1.1541 1.9785 1.0305 1.8961 0.78317 1.7724 0.49464 1.7312 0.20609 1.9785-0.0824 1.9785-0.41219 1.7312-0.74195 1.0305-0.74195 0.82439-1.1129 0.20609-0.90683-3.6685 1.8549-0.12366 0.0824-1.9785 0.53585-0.37098 0.0412-2.1846-0.12365-0.53585-0.16488-1.8136-0.70073-1.0305-0.82439-0.49463-1.1541-1.7724 0.41219-0.70073-0.41219-1.4839-1.0717-0.90683-0.94804-0.4122-0.74195-0.0824-1.2366 0.0412-0.12365 1.0305-1.1129 2.638-2.1434-0.28853 0.0412-1.9785 0.32976z"/>
     <path id="path45" d="m354.2 426.5-0.65951 1.2778 1.8961 1.0717 0.32976-0.49464 0.70073-1.2778 0.24731-0.61829 0.24732-1.1954z"/>
     <path id="path46" d="m355.39 422.13-1.2366 0.70073 0.32975 0.86561 0.0412 1.3602v0.2061l-0.32975 1.2366 2.7617-1.2366 12.325 7.131 1.9373-1.1129z"/>
     <path id="path47" d="m377.16 418.79-3.5861 2.1846 1.1954-0.49463 2.061-0.32976 1.4015 0.12366 1.8137 0.70073 0.8656 0.65951 0.53586 1.1541-0.24732 0.78317-1.1541 1.0717-3.5861 2.3083 1.4015-0.12366 1.9373-0.45341 1.8136-0.82439 1.0305-0.65951 0.98927-1.1129 0.37097-1.1954-0.0824-0.57708-0.61829-1.1541-1.2778-1.0305-1.2778-0.57708-1.9785-0.45341z"/>
     <path id="path48" d="m363.39 419 0.41219 1.2366 1.2366 1.0305 0.57707 0.28854 1.9373 0.49463 0.8656 0.0412 2.1846-0.32975-0.65951 0.8656-0.16488 1.1954 0.49464 0.90682 1.319 1.0717 0.82439 0.41219 1.8961 0.57707 2.1434 0.16488 3.5861-2.3083-0.2061 0.0824-1.8961 0.6183-0.2061 0.0412-2.1434-0.0412-0.16488-0.0412-1.8549-0.65951-0.82439-0.65951-0.53585-1.1542 0.2061-0.78317 1.1541-1.0717 3.5861-2.1846-2.1434 0.41219 0.32975-0.53585-3.2976 1.3602-0.57707 0.28854-1.9785 0.41219-0.65951-0.0412-1.8961-0.61829-0.32976-0.2061-0.61829-1.1954 0.0412-0.37097 1.0717-1.1129z"/>
     <path id="path49" d="m365.49 416.27-0.53586 0.37097-1.1541 1.0717-0.41219 1.1541v0.12366l3.7097-1.8137 0.53586-0.24731 2.0198-0.37098h0.65951l1.8549 0.61829 0.37097 0.2061 0.65952 1.1954-0.0824 0.37098-1.0717 1.0717 3.2976-1.3602 0.16488-1.1954-0.16488-0.37098-1.1541-1.0717-0.24732-0.12366-1.8136-0.65951-2.1434-0.16488h-0.70073l-1.9785 0.4122z"/>
    </g>
    <g fill="none" stroke-linecap="round" stroke-linejoin="round" stroke-width=".2524">
     <g stroke="#f0f">
      <path id="path50" d="m298.76 345.05 333.46 45.506"/>
      <path id="path51" d="m632.22 299.5v91.054"/>
      <path id="path52" d="m298.76 253.99v91.054"/>
      <path id="path53" d="m298.76 253.99 333.46 45.506"/>
     </g>
     <path id="path54" d="m298.76 345.05 333.46-45.547" stroke="#f00"/>
    </g>
    <path id="path55" d="m650.94 340.6-0.61829 2.3083 10.676 6.1829-3.5861 2.061-0.12366 0.12366v0.16488l0.12366 0.2061 0.28854 0.20609 0.41219 0.2061 0.32975 0.0412h0.24732l0.24732-0.0824 8.9446-5.1936 0.12366-0.12365 0.0412-0.16488-0.12366-0.16488-0.28854-0.24732-0.37097-0.16487-0.32976-0.0824h-0.28853l-0.24732 0.0824-3.1327 1.8136z" fill="#f0f" fill-rule="evenodd"/>
    <path id="path56" d="m649.58 341.05-0.41219 0.24731-0.24732 0.16488-0.16488 0.12366-0.0824 0.12366-1.8549 3.5036-0.0412 0.16488v0.16487l0.16488 0.16488 0.28854 0.16488 0.45341 0.24731 0.37097 0.0412 0.28854-0.12365 0.28854-0.28854 1.69-2.8441 0.61829-2.3083-0.16487-0.0412-0.28854 0.0412-0.37098 0.16488z" fill="#f0f" fill-rule="evenodd"/>
    <g fill="#f00" fill-rule="evenodd">
     <path id="path57" d="m673.53 250.74-2.5144 1.8961 1.7724 0.70073 2.5968 0.57707 2.8029 0.12366 2.1022-0.16488 2.5556-0.65951 2.3495-1.0717 0.2061-0.12366 1.8136-1.3602 1.1129-1.4839 0.41219-1.5663-5.9356 3.1327-1.319 0.61829-2.6793 0.45341-2.4319-0.24732z"/>
     <path id="path58" d="m678.22 241.79-4.699 3.2976 1.9373-0.78317 2.6793-0.37098 2.2258 0.2061 2.3907 0.94805 1.5251 1.2366 0.57708 1.6076-0.49464 1.4427-1.5663 1.3602 5.9356-3.1327-0.24732-1.5251-0.98926-1.4839-1.7312-1.319-2.3907-1.0717-2.5968-0.49463z"/>
     <path id="path59" d="m669.57 244.8 2.2258 1.6488h0.0412l1.69-1.3602 4.699-3.2976-2.7205 0.65951 0.49463-0.94804-5.9356 3.0502z"/>
     <path id="path60" d="m668.21 236.39-4.8227 3.2151 1.2366-0.57708 2.5968-0.45341 1.2778 0.0824 2.432 0.82439 1.2778 1.0717 0.24731 1.5251-0.65951 1.1129-1.7312 1.3602 5.9356-3.0502-0.0412-1.6076-0.37097-0.70073-1.6076-1.4015-1.2366-0.57707-2.638-0.65951z"/>
     <path id="path61" d="m660.95 238.25-1.0305 0.65951-1.4427 1.4427-0.61829 1.5251v0.90683l0.65951 1.5663 1.4427 1.5663 3.4212-1.4014-1.2366-1.1954-0.49463-1.4839 0.2061-0.82438 1.5251-1.4015 4.8227-3.2151-2.8854 0.28854-2.061 0.53585z"/>
     <path id="path62" d="m697.23 244.72-3.2976-1.9373 3.2976-1.8961 3.2976 1.8961z"/>
     <path id="path63" d="m696.15 220.07-4.9051 3.4624 1.4015-0.65951 2.9678-0.53586 1.3602 0.0824 2.8029 0.90683 1.0717 0.86561 1.0305 1.8961 0.0412 0.12366 0.16488 1.4427-0.0824 1.9373-0.28854 2.4319-0.0824 0.45342-0.20609 2.1022 0.0412 1.69 0.28853 1.1542 0.94805 1.7724 1.69 1.3602 15.581-9.027-2.7617-1.6076-11.583 6.6776-0.37098-1.6076 0.0824-1.2366 0.32976-2.432 0.16487-1.4015 0.16488-2.0198-0.0412-1.5663-0.16488-0.98927-0.78316-1.7724-0.28854-0.4122-1.9373-1.5251-0.65951-0.37097-2.7617-0.90683z"/>
     <path id="path64" d="m688.9 222.09-1.1954 0.78317-1.7312 1.6076-0.70073 1.7312 0.0412 0.82439 0.82439 1.7312 1.9373 1.69 3.2563-1.5251-1.4015-1.0305-0.78317-1.7312 0.28854-1.0305 1.8136-1.6076 4.9051-3.4624-1.6076 0.12365-2.8854 0.65952z"/>
     <path id="path65" d="m719.4 224.23-2.5144 1.8961 1.7312 0.70073 2.638 0.57707 2.8029 0.12366 2.1022-0.2061 2.5556-0.61829 2.3495-1.0717 0.2061-0.16488 1.8136-1.319 1.1129-1.4839 0.41219-1.6076-5.9356 3.1739-1.3602 0.61829-2.6793 0.41219-2.3907-0.2061z"/>
     <path id="path66" d="m724.1 215.29-4.699 3.2976 1.8961-0.82439 2.6793-0.37097 2.2258 0.24731 2.3907 0.90683 1.5251 1.2778 0.57708 1.5663-0.45342 1.4839-1.5663 1.3602 5.9356-3.1739-0.24732-1.5251-0.98926-1.4839-1.7724-1.319-2.3907-1.0305-2.5556-0.49463z"/>
     <path id="path67" d="m715.45 218.3 2.2258 1.6488 1.7312-1.3602 4.699-3.2976-2.7205 0.65951 0.45341-0.98927-5.8944 3.0915z"/>
     <path id="path68" d="m714.09 209.89-4.8227 3.1739 1.1954-0.53586 2.638-0.45341 1.2778 0.0824 2.432 0.82439 1.2778 1.0305 0.20609 1.5251-0.65951 1.1542-1.69 1.3602 5.8944-3.0915v-1.5663l-0.37097-0.74195-1.6076-1.3602-1.2778-0.61829-2.638-0.65951z"/>
     <path id="path69" d="m706.79 211.74-0.98927 0.65951-1.4427 1.4015-0.65951 1.5663 0.0412 0.90683 0.61829 1.5663 1.4839 1.5251 3.38-1.3602-1.1954-1.1954-0.53585-1.4839 0.24732-0.8656 1.5251-1.4015 4.8227-3.1739-2.8854 0.24732-2.1022 0.57707z"/>
     <path id="path70" d="m741.7 203.71-5.1112 3.4624 1.6076-0.70073 3.0914-0.37097 2.3907 0.32975 2.8029 1.1542 1.8549 1.4015 0.82439 1.69-0.12366 1.0717-1.5251 1.6076 5.4822-2.7617-0.57708-1.8961-1.1129-1.4427-2.061-1.5251-1.6076-0.78317-2.8441-0.90682z"/>
     <path id="path71" d="m734.61 205.36-0.86561 0.57707-1.5251 1.69-0.32975 0.94804 0.12366 1.9373 2.6793-0.57707 0.24732-1.1541 1.6488-1.6076 5.1112-3.4624-1.3602 0.0412-3.0915 0.49463z"/>
     <path id="path72" d="m732.22 198.84-3.9158 3.2151 1.0717-0.49464 3.0502-0.45341 0.45341 0.0412 3.1327 0.74195 2.638-1.7724-0.37097-0.16487-2.9678-0.90683z"/>
     <path id="path73" d="m726.08 200.57-1.9785 1.4839-1.1129 1.69-0.12366 1.8549 0.2061 0.74195 0.8656 1.4839 1.4839 1.6076 2.1434 1.6488 2.7205 1.7312 2.9678 1.5251 2.8441 1.1541 2.6793 0.74195 2.5556 0.32976 3.009-0.0824 2.9678-0.61829 2.638-1.1954 1.4839-1.0717 1.2778-1.69 0.28854-1.319-5.4822 2.7617-0.20609 0.0824-2.9266 0.86561-0.61829 0.0824-3.2563-0.24732-0.78317-0.2061-2.7205-1.0717-1.5663-1.1954-0.74195-1.7312-2.6793 0.57707-0.98927-0.65951-2.2671-1.5663-1.3602-1.4427-0.61829-1.1129-0.12366-1.8136 0.0412-0.2061 1.6076-1.6488 3.9158-3.2151-0.41219 0.0412-2.9678 0.53585z"/>
     <path id="path74" d="m580.95 301.44-18.384 7.5844 13.149-10.635z"/>
    </g>
    <g fill="none" stroke-linecap="round" stroke-linejoin="round" stroke-width=".2524">
     <path id="path75" d="m578.31 299.91 85.695-49.505 0.78317-0.49463" stroke="#f00"/>
     <g stroke="#212830">
      <path id="path76" d="m631.73 391.79-61.953 151.69"/>
      <path id="path77" d="m298.26 346.28-61.953 151.69"/>
      <path id="path78" d="m559.47 540.76-145.5-19.868"/>
      <path id="path79" d="m247.69 498.22 145.5 19.827"/>
     </g>
    </g>
    <g fill="#212830" fill-rule="evenodd">
     <path id="path80" d="m559.88 539.73-0.82439 2.061 11.253 0.45342z"/>
     <path id="path81" d="m248.1 497.15-0.8656 2.1022-10.387-2.5144z"/>
     <path id="path82" d="m383.01 534.24-1.2778 0.94805 0.90683 0.37097 1.2778 0.28854 1.4015 0.0412 1.0717-0.0824 1.2778-0.32976 1.1541-0.53585 0.12366-0.0412 0.90683-0.70073 0.53585-0.74195 0.2061-0.78317-2.9678 1.5663-0.65951 0.32976-1.319 0.20609-1.2366-0.12366z"/>
     <path id="path83" d="m385.36 529.79-2.3495 1.6488 0.94805-0.41219 1.319-0.16488 1.1129 0.0824 1.1954 0.49463 0.78317 0.61829 0.28853 0.78317-0.24731 0.74195-0.78317 0.65951 2.9678-1.5663-0.12366-0.74195-0.49464-0.78317-0.8656-0.61829-1.1954-0.53585-1.2778-0.24732z"/>
     <path id="path84" d="m381.03 531.28 1.1129 0.82439 0.8656-0.65951 2.3495-1.6488-1.3602 0.32976 0.2061-0.49463-2.9266 1.5251z"/>
     <path id="path85" d="m380.33 527.07-2.3907 1.6076 0.57707-0.28854 1.319-0.20609 0.65951 0.0412 1.1954 0.41219 0.65951 0.53585 0.12366 0.74195-0.37097 0.57707-0.82439 0.65951 2.9266-1.5251v-0.78315l-0.16488-0.37098-0.82439-0.70073-0.61829-0.28853-1.319-0.32976z"/>
     <path id="path86" d="m376.7 528.02-0.49463 0.32975-0.74195 0.70073-0.32975 0.78317 0.0412 0.45342 0.32975 0.78317 0.70073 0.78316 1.7312-0.70073-0.61829-0.61829-0.28854-0.74195 0.12366-0.41219 0.78317-0.70073 2.3907-1.6076-1.4427 0.16488-1.0305 0.24732z"/>
     <path id="path87" d="m394.84 531.24-1.6488-0.94804 1.6488-0.94805 1.6488 0.94805z"/>
     <path id="path88" d="m394.39 519.12-2.5968 1.5663 0.90682-0.37098 1.7312-0.0824 0.2061 0.0412 1.1954 0.28854 1.4427 0.61829 1.7312 0.90683 0.28854 0.16487 1.4839 0.98927 0.94805 0.82439 0.45341 0.65951 0.0412 0.70073-0.74195 0.82439-1.8961 1.5663 1.6076-0.24731 1.4839-0.61829 0.94805-0.74195 0.49463-0.90683-0.0824-0.86561-0.61829-1.0305-0.49463-0.49464-1.0305-0.82438-1.4015-0.86561-0.32975-0.16488-1.4427-0.74195-1.2778-0.53585-0.86561-0.28854-1.6488-0.28853z"/>
     <path id="path89" d="m390.6 519.98-0.90683 0.70073-0.53585 0.90682 0.0824 0.86561 0.6183 1.0305 0.49463 0.53586 1.0717 0.78317 1.3602 0.8656 0.0412 0.0412 1.6076 0.82439 1.5251 0.65951 1.4427 0.4122 1.3602 0.16487 0.82439 0.0412 1.8961-1.5663-0.90683 0.32975-1.7312 0.0824h-0.16488l-1.2366-0.32976-1.4427-0.57707-1.7312-0.94804-0.45341-0.24732-1.4015-0.94805-0.90683-0.82439-0.45341-0.70072-0.0412-0.53586 0.78317-0.8656 2.5968-1.5663-1.7312 0.12366-0.57708 0.12365z"/>
     <path id="path90" d="m403.87 512.52-7.6256 4.4517 1.3602 0.78317 5.8119-3.3388 0.16488 0.90682 0.32975 0.98927 0.49464 1.0717 0.12365 0.24732 0.6183 0.98926 0.74195 0.94805 0.82438 0.90683 0.74195 0.70073 1.0305 0.86561 1.0305 0.70073 1.5251-0.86561-0.74195-0.49463-1.0717-0.86561-0.90683-0.82439-0.41219-0.45341-0.74195-0.94805-0.65951-0.94805-0.53586-1.0305-0.0412-0.0824-0.49463-1.1129-0.28853-0.98927-0.16488-0.94805z"/>
     <path id="path91" d="m413.06 507.25-7.6668 4.4105 1.4015 0.78317 5.7707-3.3388 0.16488 0.90683 0.37097 1.0305 0.49463 1.0717 0.12366 0.2061 0.61829 0.98926 0.70073 0.94805 0.86561 0.90682 0.74195 0.70073 1.0305 0.86561 1.0305 0.70073 1.4839-0.86561-0.70073-0.49463-1.0717-0.82439-0.90683-0.8656-0.4122-0.45342-0.74195-0.94804-0.65951-0.94805-0.57707-1.0305-0.0412-0.0412-0.45341-1.1129-0.32976-1.0305-0.12365-0.94805z"/>
     <path id="path92" d="m422.21 501.93-7.6256 4.4105 1.4015 0.82439 5.7707-3.3388 0.16487 0.86561 0.32976 1.0305 0.49463 1.0717 0.12366 0.24732 0.61829 0.94805 0.74195 0.94804 0.82439 0.94805 0.74195 0.70073 1.0717 0.86561 1.0305 0.65951 1.4839-0.82439-0.74195-0.53585-1.0717-0.82439-1.319-1.319-0.74195-0.90683-0.65951-0.98926-0.53585-0.98927-0.0412-0.0824-0.49463-1.1129-0.28854-1.0305-0.12366-0.90682z"/>
    </g>
   </g>
  </g>
 </g>
 <metadata id="metadata2">
  <rdf:RDF>
   <cc:Work rdf:about="">
    <dc:title>Los Secretos de las Catedrales. La Catedral Nacional de Washignton D.C</dc:title>
    <dc:date>16-01-2025</dc:date>
    <dc:creator>
     <cc:Agent>
      <dc:title>Miguel Hernando Ibáñez Sánchez</dc:title>
     </cc:Agent>
    </dc:creator>
    <dc:rights>
     <cc:Agent>
      <dc:title>Secretos de las catedrales. La Catedral Nacional de Washington D.C © 2025 by ISAN atelier is licensed under Creative Commons Attribution-NoDerivatives 4.0 International</dc:title>
     </cc:Agent>
    </dc:rights>
    <dc:publisher>
     <cc:Agent>
      <dc:title>ISAN atelier</dc:title>
     </cc:Agent>
    </dc:publisher>
    <dc:identifier>10.5281/zenodo.14675978</dc:identifier>
    <dc:source>Sáchica, Boyacá - Colombia</dc:source>
    <dc:relation>En Búsqueda de las Claves Sacras de la Ciudad de Washignton D.C</dc:relation>
    <dc:language>Español</dc:language>
    <dc:subject>
     <rdf:Bag>
      <rdf:li>arquitectura sagrada</rdf:li>
      <rdf:li>geometria sagrada</rdf:li>
      <rdf:li>sacred architecture</rdf:li>
      <rdf:li>sacred geometry</rdf:li>
     </rdf:Bag>
    </dc:subject>
    <dc:coverage>Global</dc:coverage>
    <dc:description>Estudios geometricos y sus misterios</dc:description>
    <cc:license rdf:resource="http://creativecommons.org/licenses/by-nd/4.0/"/>
   </cc:Work>
   <cc:License rdf:about="http://creativecommons.org/licenses/by-nd/4.0/">
    <cc:permits rdf:resource="http://creativecommons.org/ns#Reproduction"/>
    <cc:permits rdf:resource="http://creativecommons.org/ns#Distribution"/>
    <cc:requires rdf:resource="http://creativecommons.org/ns#Notice"/>
    <cc:requires rdf:resource="http://creativecommons.org/ns#Attribution"/>
   </cc:License>
  </rdf:RDF>
 </metadata>
</svg>
