<?xml version="1.0" encoding="UTF-8"?>
<!-- Created with Inkscape (http://www.inkscape.org/) -->
<svg id="svg1" width="210mm" height="121mm" inkscape:version="1.4 (86a8ad7, 2024-10-11)" sodipodi:docname="Movimient- concepto según Aristóteles, y la Entrada a la Gran pirámide de Keops.svg" version="1.1" viewBox="0 0 210 121" xmlns="http://www.w3.org/2000/svg" xmlns:cc="http://creativecommons.org/ns#" xmlns:dc="http://purl.org/dc/elements/1.1/" xmlns:inkscape="http://www.inkscape.org/namespaces/inkscape" xmlns:rdf="http://www.w3.org/1999/02/22-rdf-syntax-ns#" xmlns:sodipodi="http://sodipodi.sourceforge.net/DTD/sodipodi-0.dtd">
 <title id="title1">Movimiento:  concepto según Aristóteles, y la Entrada a la Gran pirámide de Keops.</title>
 <sodipodi:namedview id="namedview1" bordercolor="#000000" borderopacity="0.25" inkscape:current-layer="layer1" inkscape:cx="396.85039" inkscape:cy="560.83816" inkscape:deskcolor="#d1d1d1" inkscape:document-units="mm" inkscape:pagecheckerboard="0" inkscape:pageopacity="0.0" inkscape:showpageshadow="2" inkscape:window-height="705" inkscape:window-maximized="1" inkscape:window-width="1366" inkscape:window-x="-8" inkscape:window-y="-8" inkscape:zoom="0.45735119" pagecolor="#ffffff"/>
 <defs id="defs1">
  <pattern id="EMFhbasepattern" width="6" height="6" patternUnits="userSpaceOnUse"/>
 </defs>
 <g id="layer1" inkscape:groupmode="layer" inkscape:label="Capa 1">
  <g fill="none" stroke-linecap="round" stroke-linejoin="round" stroke-width=".05">
   <path id="path1" d="m160.9 86.969h-57.039" stroke="#0f0"/>
   <path id="path2" d="m103.86 86.969h-35.258" stroke="#00f"/>
   <path id="path3" d="m103.86 86.969v-21.733" stroke="#f00"/>
   <g stroke="#00f">
    <path id="path4" d="m160.9 86.969-1.1117-0.41031"/>
    <path id="path5" d="m159.3 86.367-1.9763-0.75226"/>
    <path id="path6" d="m156.83 85.423-1.9763-0.75226"/>
    <path id="path7" d="m154.36 84.48-1.9763-0.75226"/>
    <path id="path8" d="m151.89 83.549-1.9763-0.75226"/>
    <path id="path9" d="m149.42 82.606-1.9764-0.75225"/>
    <path id="path10" d="m146.94 81.662-1.9763-0.75225"/>
    <path id="path11" d="m144.47 80.718-1.9763-0.75226"/>
    <path id="path12" d="m142 79.775-1.9763-0.75225"/>
    <path id="path13" d="m139.53 78.844-1.9626-0.75225"/>
    <path id="path14" d="m137.08 77.901-1.9763-0.75225"/>
    <path id="path15" d="m134.61 76.957-1.9763-0.75225"/>
    <path id="path16" d="m132.14 76.013-1.9763-0.75225"/>
    <path id="path17" d="m129.67 75.07-1.9763-0.75225"/>
    <path id="path18" d="m127.2 74.139-1.9763-0.75225"/>
    <path id="path19" d="m124.73 73.196-1.9763-0.75225"/>
    <path id="path20" d="m122.25 72.252-1.9763-0.75225"/>
    <path id="path21" d="m119.78 71.308-1.9763-0.75225"/>
    <path id="path22" d="m117.31 70.365-1.9763-0.75225"/>
    <path id="path23" d="m114.84 69.435-1.9763-0.75225"/>
    <path id="path24" d="m112.37 68.491-1.9763-0.75225"/>
    <path id="path25" d="m109.9 67.547-1.9763-0.75225"/>
    <path id="path26" d="m107.43 66.603-1.9763-0.75225"/>
    <path id="path27" d="m104.96 65.66-1.098-0.424"/>
   </g>
  </g>
  <g fill="#000000" font-family="Arial" font-weight="400" letter-spacing="0px" stroke-width=".05" word-spacing="0px">
   <g font-size="1.7206px">
    <text id="text28" x="102.1622" y="88.582733" style="line-height:125%" xml:space="preserve"><tspan id="tspan28" x="102.1622" y="88.582733" stroke-width=".05" sodipodi:role="line"><tspan id="tspan27" dx="0" dy="0" fill="#212830" font-family="Arial" font-size="1.7206px" font-weight="400" stroke-width=".05">H</tspan></tspan></text>
    <text id="text30" x="161.3007" y="87.84417" style="line-height:125%" xml:space="preserve"><tspan id="tspan30" x="161.3007" y="87.84417" stroke-width=".05" sodipodi:role="line"><tspan id="tspan29" dx="0" dy="0" fill="#212830" font-family="Arial" font-size="1.7206px" font-weight="400" stroke-width=".05">C</tspan></tspan></text>
    <text id="text32" x="67.055161" y="87.461205" style="line-height:125%" xml:space="preserve"><tspan id="tspan32" x="67.055161" y="87.461205" stroke-width=".05" sodipodi:role="line"><tspan id="tspan31" dx="0" dy="0" fill="#212830" font-family="Arial" font-size="1.7206px" font-weight="400" stroke-width=".05">D</tspan></tspan></text>
   </g>
   <text id="text34" x="106.34814" y="64.66111" font-size="3.9447px" style="line-height:125%" xml:space="preserve"><tspan id="tspan34" x="106.34814" y="64.66111" stroke-width=".05" sodipodi:role="line"><tspan id="tspan33" dx="0" dy="0" fill="#212830" font-family="Arial" font-size="3.9447px" font-weight="400" stroke-width=".05">T</tspan></tspan></text>
  </g>
  <g fill="none" stroke-linecap="round" stroke-linejoin="round" stroke-width=".05">
   <g stroke="#00f">
    <path id="path34" d="m103.86 65.236-1.6606 1.0258"/>
    <path id="path35" d="m101.75 66.549-1.7979 1.1079"/>
    <path id="path36" d="m99.5 67.93-1.7979 1.1079"/>
    <path id="path37" d="m97.249 69.311-1.7979 1.1079"/>
    <path id="path38" d="m94.998 70.706-1.7979 1.1079"/>
    <path id="path39" d="m92.761 72.088-1.8116 1.1079"/>
    <path id="path40" d="m90.51 73.469-1.7979 1.1079"/>
    <path id="path41" d="m88.259 74.864-1.7979 1.1079"/>
    <path id="path42" d="m86.009 76.246-1.7979 1.1079"/>
    <path id="path43" d="m83.758 77.627-1.7979 1.1079"/>
    <path id="path44" d="m81.507 79.022-1.7979 1.1079"/>
    <path id="path45" d="m79.256 80.404-1.7979 1.1079"/>
    <path id="path46" d="m77.019 81.785-1.7979 1.1079"/>
    <path id="path47" d="m74.768 83.18-1.7979 1.1079"/>
    <path id="path48" d="m72.517 84.562-1.7979 1.1079"/>
    <path id="path49" d="m70.267 85.943-0.01245 0.01401-1.6469 1.0258"/>
   </g>
   <g stroke="#212830">
    <path id="path50" d="m103.86 88.036v3.2279"/>
    <path id="path51" d="m160.9 88.036v3.2279"/>
    <path id="path52" d="m105.62 89.499h53.511"/>
   </g>
  </g>
  <path id="path53" d="m105.62 89.212v0.58813l-1.7568-0.30091z" fill="#212830" fill-rule="evenodd"/>
  <path id="path54" d="m105.62 89.212v0.58813l-1.7568-0.30091z" fill="none" stroke="#212830" stroke-linecap="round" stroke-linejoin="round" stroke-width=".05"/>
  <path id="path55" d="m159.13 89.212v0.58813l1.7705-0.30091z" fill="#212830" fill-rule="evenodd"/>
  <text id="text56" x="129.29538" y="91.974731" fill="#000000" font-family="Arial" font-size="1.9724px" font-weight="400" letter-spacing="0px" stroke-width=".05" word-spacing="0px" style="line-height:125%" xml:space="preserve"><tspan id="tspan56" x="129.29538" y="91.974731" stroke-width=".05" sodipodi:role="line"><tspan id="tspan55" dx="0" dy="0" fill="#212830" font-family="Arial" font-size="1.9724px" font-weight="400" stroke-width=".05">1.6180</tspan></tspan></text>
  <g fill="none" stroke="#212830" stroke-linecap="round" stroke-linejoin="round" stroke-width=".05">
   <path id="path56" d="m159.13 89.212v0.58813l1.7705-0.30091z"/>
   <path id="path57" d="m103.86 88.036v3.2279"/>
   <path id="path58" d="m68.606 88.036v3.2279"/>
   <path id="path59" d="m102.09 89.499h-31.731"/>
  </g>
  <path id="path60" d="m102.09 89.212v0.58813l1.7705-0.30091z" fill="#212830" fill-rule="evenodd"/>
  <path id="path61" d="m102.09 89.212v0.58813l1.7705-0.30091z" fill="none" stroke="#212830" stroke-linecap="round" stroke-linejoin="round" stroke-width=".05"/>
  <path id="path62" d="m70.363 89.212v0.58813l-1.7567-0.30091z" fill="#212830" fill-rule="evenodd"/>
  <g fill="#000000" font-family="Arial" font-weight="400" letter-spacing="0px" stroke-width=".05" word-spacing="0px">
   <text id="text63" x="83.153885" y="91.974731" font-size="1.9724px" style="line-height:125%" xml:space="preserve"><tspan id="tspan63" x="83.153885" y="91.974731" stroke-width=".05" sodipodi:role="line"><tspan id="tspan62" dx="0" dy="0" fill="#212830" font-family="Arial" font-size="1.9724px" font-weight="400" stroke-width=".05">1.0000</tspan></tspan></text>
   <text id="text65" x="99.856529" y="86.55851" font-size="2.1822px" style="line-height:125%" xml:space="preserve"><tspan id="tspan65" x="99.856529" y="86.55851" stroke-width=".05" sodipodi:role="line"><tspan id="tspan64" dx="0" dy="0" fill="#212830" font-family="Arial" font-size="2.1822px" font-weight="400" stroke-width=".05">v3</tspan></tspan></text>
   <text id="text67" x="101.29757" y="49.000587" font-size="4.4483px" style="line-height:125%" xml:space="preserve"><tspan id="tspan67" x="101.29757" y="49.000587" stroke-width=".05" sodipodi:role="line"><tspan id="tspan66" dx="0" dy="0" fill="#212830" font-family="Arial" font-size="4.4483px" font-weight="400" stroke-width=".05">1</tspan></tspan></text>
  </g>
  <g fill="none" stroke="#212830" stroke-linecap="round" stroke-linejoin="round" stroke-width=".05">
   <path id="path67" d="m70.363 89.212v0.58813l-1.7567-0.30091z"/>
   <path id="path68" d="m104.92 65.236h2.5116"/>
   <path id="path69" d="m104.92 86.969h2.5116"/>
   <path id="path70" d="m105.68 66.986v7.3447"/>
   <path id="path71" d="m105.68 85.218v-7.3447"/>
  </g>
  <path id="path72" d="m105.39 66.986h0.57642l-0.28821-1.7507z" fill="#212830" fill-rule="evenodd"/>
  <path id="path73" d="m105.39 66.986h0.57642l-0.28821-1.7507z" fill="none" stroke="#212830" stroke-linecap="round" stroke-linejoin="round" stroke-width=".05"/>
  <path id="path74" d="m105.39 85.218h0.57642l-0.28821 1.7507z" fill="#212830" fill-rule="evenodd"/>
  <text id="text75" x="103.20525" y="76.806572" fill="#000000" font-family="Arial" font-size="1.9724px" font-weight="400" letter-spacing="0px" stroke-width=".05" word-spacing="0px" style="line-height:125%" xml:space="preserve"><tspan id="tspan75" x="103.20525" y="76.806572" stroke-width=".05" sodipodi:role="line"><tspan id="tspan74" dx="0" dy="0" fill="#212830" font-family="Arial" font-size="1.9724px" font-weight="400" stroke-width=".05">0.618</tspan></tspan></text>
  <g fill="none" stroke-linecap="round" stroke-linejoin="round" stroke-width=".05">
   <path id="path75" d="m105.39 85.218h0.57642l-0.28821 1.7507z" stroke="#212830"/>
   <path id="path76" d="m103.86 85.97h1.0019v0.99844" stroke="#f00"/>
   <g stroke="#212830">
    <path id="path77" d="m160.9 88.036v7.8644"/>
    <path id="path78" d="m68.606 88.036v7.8644"/>
    <path id="path79" d="m159.13 94.149h-88.77"/>
   </g>
  </g>
  <path id="path80" d="m159.13 93.848v0.58813l1.7705-0.28721z" fill="#212830" fill-rule="evenodd"/>
  <path id="path81" d="m159.13 93.848v0.58813l1.7705-0.28721z" fill="none" stroke="#212830" stroke-linecap="round" stroke-linejoin="round" stroke-width=".05"/>
  <path id="path82" d="m70.363 93.848v0.58813l-1.7567-0.28721z" fill="#212830" fill-rule="evenodd"/>
  <text id="text83" x="111.75559" y="96.625053" fill="#000000" font-family="Arial" font-size="1.9724px" font-weight="400" letter-spacing="0px" stroke-width=".05" word-spacing="0px" style="line-height:125%" xml:space="preserve"><tspan id="tspan83" x="111.75559" y="96.625053" stroke-width=".05" sodipodi:role="line"><tspan id="tspan82" dx="0" dy="0" fill="#212830" font-family="Arial" font-size="1.9724px" font-weight="400" stroke-width=".05">2.6180</tspan></tspan></text>
  <g fill="none" stroke-linecap="round" stroke-linejoin="round" stroke-width=".05">
   <path id="path83" d="m70.363 93.848v0.58813l-1.7567-0.28721z" stroke="#212830"/>
   <g stroke="#0f0">
    <path id="path84" d="m103.86 65.222-0.42546 1.1626-0.13731 0.36929"/>
    <path id="path85" d="m103.12 67.246-0.10991 0.3009"/>
    <path id="path86" d="m103.03 67.547-0.3843 1.1762-0.16469 0.53341"/>
    <path id="path87" d="m102.33 69.763-0.0411 0.15043-0.32937 1.1899-0.19211 0.68386"/>
    <path id="path88" d="m101.64 72.293-0.28821 1.2036-0.19211 0.86167"/>
    <path id="path89" d="m101.05 74.864-0.19211 1.0532-0.19211 1.0258"/>
    <path id="path90" d="m100.58 77.463-0.12361 0.88903-0.16469 1.2036"/>
    <path id="path91" d="m100.24 80.075-0.0822 0.72489-0.10991 1.231-0.0125 0.13684"/>
    <path id="path92" d="m99.994 82.702-0.0411 0.56076-0.0548 1.231-0.01246 0.31458"/>
    <path id="path93" d="m99.857 85.328v0.41037l-0.01245 1.2309"/>
   </g>
   <path id="path94" d="m103.86 65.236v-13.445" stroke="#f00"/>
   <g stroke="#212830">
    <path id="path95" d="m68.249 86.969h-5.8054"/>
    <path id="path96" d="m68.249 51.791h-5.8054"/>
    <path id="path97" d="m63.157 85.916v-22.321"/>
    <path id="path98" d="m63.157 52.844v8.945"/>
   </g>
  </g>
  <path id="path99" d="m62.979 85.916h0.35684l-0.17841 1.0531z" fill="#212830" fill-rule="evenodd"/>
  <path id="path100" d="m62.979 85.916h0.35684l-0.17841 1.0531z" fill="none" stroke="#212830" stroke-linecap="round" stroke-linejoin="round" stroke-width=".05"/>
  <path id="path101" d="m62.979 52.844h0.35684l-0.17841-1.0532z" fill="#212830" fill-rule="evenodd"/>
  <text id="text102" x="59.300858" y="63.566925" fill="#000000" font-family="Arial" font-size="2.476px" font-weight="400" letter-spacing="0px" stroke-width=".05" word-spacing="0px" style="line-height:125%" xml:space="preserve"><tspan id="tspan102" x="59.300858" y="63.566925" stroke-width=".05" sodipodi:role="line"><tspan id="tspan101" dx="0" dy="0" fill="#212830" font-family="Arial" font-size="2.476px" font-weight="400" stroke-width=".05">1.0000</tspan></tspan></text>
  <g fill="none" stroke="#212830" stroke-linecap="round" stroke-linejoin="round" stroke-width=".05">
   <path id="path102" d="m62.979 52.844h0.35684l-0.17841-1.0532z"/>
   <path id="path103" d="m104.92 65.236h2.5116"/>
   <path id="path104" d="m104.92 51.791h2.5116"/>
   <path id="path105" d="m105.68 63.471v-3.1868"/>
   <path id="path106" d="m105.68 53.555v3.1868"/>
  </g>
  <path id="path107" d="m105.39 63.471h0.57642l-0.28821 1.7644z" fill="#212830" fill-rule="evenodd"/>
  <path id="path108" d="m105.39 63.471h0.57642l-0.28821 1.7644z" fill="none" stroke="#212830" stroke-linecap="round" stroke-linejoin="round" stroke-width=".05"/>
  <path id="path109" d="m105.39 53.555h0.57642l-0.28821-1.7644z" fill="#212830" fill-rule="evenodd"/>
  <text id="text110" x="103.21899" y="59.203873" fill="#000000" font-family="Arial" font-size="1.9724px" font-weight="400" letter-spacing="0px" stroke-width=".05" word-spacing="0px" style="line-height:125%" xml:space="preserve"><tspan id="tspan110" x="103.21899" y="59.203873" stroke-width=".05" sodipodi:role="line"><tspan id="tspan109" dx="0" dy="0" fill="#212830" font-family="Arial" font-size="1.9724px" font-weight="400" stroke-width=".05">0.382</tspan></tspan></text>
  <g fill="none" stroke-linecap="round" stroke-linejoin="round" stroke-width=".05">
   <path id="path110" d="m105.39 53.555h0.57642l-0.28821-1.7644z" stroke="#212830"/>
   <g stroke="#f00">
    <path id="path111" d="m68.606 86.969 0.68622-0.68387"/>
    <path id="path112" d="m69.512 86.066 0.89209-0.88903"/>
    <path id="path113" d="m70.637 84.945 0.89206-0.88901"/>
    <path id="path114" d="m71.749 83.823 0.90582-0.88903"/>
    <path id="path115" d="m72.874 82.715 0.89209-0.9027"/>
    <path id="path116" d="m74 81.594 0.89209-0.9027"/>
    <path id="path117" d="m75.111 80.472 0.90579-0.88903"/>
    <path id="path118" d="m76.237 79.351 0.89208-0.88903"/>
    <path id="path119" d="m77.362 78.229 0.89208-0.88902"/>
    <path id="path120" d="m78.474 77.121 0.90579-0.9027"/>
    <path id="path121" d="m79.599 76 0.90581-0.9027"/>
    <path id="path122" d="m80.725 74.878 0.89209-0.88902"/>
    <path id="path123" d="m81.85 73.757 0.89208-0.88903"/>
    <path id="path124" d="m82.962 72.649 0.90579-0.9027"/>
    <path id="path125" d="m84.087 71.527 0.89206-0.9027"/>
    <path id="path126" d="m85.213 70.406 0.89209-0.88903"/>
    <path id="path127" d="m86.324 69.284 0.90582-0.88903"/>
    <path id="path128" d="m87.45 68.163 0.89209-0.88903"/>
    <path id="path129" d="m88.575 67.055 0.89206-0.9027"/>
    <path id="path130" d="m89.687 65.933 0.90582-0.9027"/>
    <path id="path131" d="m90.812 64.812 0.89209-0.88902"/>
    <path id="path132" d="m91.938 63.69 0.89206-0.88903"/>
    <path id="path133" d="m93.049 62.568 0.90579-0.88902"/>
    <path id="path134" d="m94.175 61.461 0.89209-0.9027"/>
    <path id="path135" d="m95.3 60.339 0.89209-0.88903"/>
    <path id="path136" d="m96.412 59.218 0.90579-0.88903"/>
    <path id="path137" d="m97.537 58.096 0.90579-0.88903"/>
    <path id="path138" d="m98.662 56.988 0.89209-0.9027"/>
    <path id="path139" d="m99.788 55.867 0.89209-0.9027"/>
    <path id="path140" d="m100.9 54.745 0.90579-0.88902"/>
    <path id="path141" d="m102.02 53.624 0.89208-0.88902"/>
    <path id="path142" d="m103.15 52.502 0.0124-0.0137 0.68623-0.69754"/>
    <path id="path143" d="m68.606 30.058 0.79601 0.50606"/>
    <path id="path144" d="m69.677 30.728 1.0705 0.67019"/>
    <path id="path145" d="m71.022 31.562 1.0842 0.65651"/>
    <path id="path146" d="m72.367 32.396 1.0842 0.65651"/>
    <path id="path147" d="m73.725 33.217 1.0705 0.67019"/>
    <path id="path148" d="m75.07 34.051 1.0842 0.67019"/>
    <path id="path149" d="m76.415 34.886 1.0842 0.67019"/>
    <path id="path150" d="m77.774 35.72 1.0705 0.67019"/>
    <path id="path151" d="m79.119 36.554 1.0705 0.65651"/>
    <path id="path152" d="m80.464 37.375 1.0842 0.67019"/>
    <path id="path153" d="m81.809 38.209 1.0842 0.67019"/>
    <path id="path154" d="m83.168 39.044 1.0705 0.67019"/>
    <path id="path155" d="m84.513 39.878 1.0842 0.67019"/>
    <path id="path156" d="m85.858 40.712 1.0842 0.65651"/>
    <path id="path157" d="m87.216 41.546 1.0705 0.65651"/>
    <path id="path158" d="m88.561 42.367 1.0842 0.67019"/>
    <path id="path159" d="m89.906 43.201 1.0842 0.67019"/>
    <path id="path160" d="m91.265 44.036 1.0705 0.67019"/>
    <path id="path161" d="m92.61 44.87 1.0705 0.67019"/>
    <path id="path162" d="m93.955 45.704 1.0842 0.65651"/>
    <path id="path163" d="m95.3 46.539 1.0842 0.65651"/>
    <path id="path164" d="m96.659 47.359 1.0705 0.67019"/>
    <path id="path165" d="m98.004 48.194 1.0842 0.67019"/>
    <path id="path166" d="m99.349 49.028 1.0842 0.67019"/>
    <path id="path167" d="m100.71 49.862 1.0705 0.65651"/>
    <path id="path168" d="m102.05 50.697 1.0842 0.65651"/>
    <path id="path169" d="m103.4 51.517 1.0842 0.67019"/>
    <path id="path170" d="m104.76 52.352 1.0705 0.67019"/>
    <path id="path171" d="m106.1 53.186 1.0705 0.67019"/>
    <path id="path172" d="m107.45 54.02 1.0842 0.67019"/>
    <path id="path173" d="m108.79 54.854 1.0842 0.65651"/>
    <path id="path174" d="m110.15 55.689 1.0705 0.65651"/>
    <path id="path175" d="m111.49 56.509 1.0842 0.67019"/>
    <path id="path176" d="m112.84 57.344 1.0842 0.67019"/>
    <path id="path177" d="m114.2 58.178 1.0705 0.67019"/>
    <path id="path178" d="m115.54 59.012 1.0842 0.65651"/>
    <path id="path179" d="m116.89 59.847 1.0842 0.65651"/>
    <path id="path180" d="m118.25 60.667 1.0705 0.67019"/>
    <path id="path181" d="m119.59 61.502 1.0705 0.67019"/>
    <path id="path182" d="m120.94 62.336 1.0842 0.67019"/>
    <path id="path183" d="m122.28 63.17 1.0842 0.67019"/>
    <path id="path184" d="m123.64 64.005 1.0705 0.65651"/>
    <path id="path185" d="m124.99 64.839 1.0842 0.65651"/>
    <path id="path186" d="m126.33 65.66 1.0842 0.67019"/>
    <path id="path187" d="m127.69 66.494 1.0705 0.67019"/>
    <path id="path188" d="m129.03 67.328 1.0842 0.67019"/>
    <path id="path189" d="m130.38 68.163 1.0842 0.67019"/>
    <path id="path190" d="m131.72 68.997 1.0842 0.65651"/>
    <path id="path191" d="m133.08 69.831 1.0705 0.65651"/>
    <path id="path192" d="m134.43 70.652 1.0842 0.67019"/>
    <path id="path193" d="m135.77 71.486 1.0842 0.67019"/>
    <path id="path194" d="m137.13 72.32 1.0705 0.67019"/>
    <path id="path195" d="m138.48 73.155 1.0842 0.65651"/>
    <path id="path196" d="m139.82 73.989 1.0842 0.65651"/>
    <path id="path197" d="m141.18 74.81 1.0705 0.67019"/>
    <path id="path198" d="m142.53 75.644 1.0842 0.67019"/>
    <path id="path199" d="m143.87 76.478 1.0842 0.67019"/>
    <path id="path200" d="m145.22 77.313 1.0842 0.67019"/>
    <path id="path201" d="m146.57 78.147 1.0705 0.65651"/>
    <path id="path202" d="m147.92 78.981 1.0842 0.65651"/>
    <path id="path203" d="m149.26 79.802 1.0842 0.67019"/>
    <path id="path204" d="m150.62 80.636 1.0705 0.67017"/>
    <path id="path205" d="m151.97 81.471 1.0842 0.67019"/>
    <path id="path206" d="m153.31 82.305 1.0842 0.6565"/>
    <path id="path207" d="m154.67 83.139 1.0705 0.65652"/>
    <path id="path208" d="m156.02 83.96 1.0842 0.67019"/>
    <path id="path209" d="m157.36 84.794 1.0842 0.67019"/>
    <path id="path210" d="m158.71 85.628 1.0842 0.67019"/>
    <path id="path211" d="m160.07 86.463 0.0274 0.01401 0.796 0.50605"/>
   </g>
   <g stroke="#212830">
    <path id="path212" d="m68.249 86.969h-3.6919"/>
    <path id="path213" d="m68.249 30.058h-3.6919"/>
    <path id="path214" d="m65.257 85.916v-26.767"/>
    <path id="path215" d="m65.257 31.111v26.767"/>
   </g>
  </g>
  <path id="path216" d="m65.079 85.916h0.35683l-0.17839 1.0531z" fill="#212830" fill-rule="evenodd"/>
  <path id="path217" d="m65.079 85.916h0.35683l-0.17839 1.0531z" fill="none" stroke="#212830" stroke-linecap="round" stroke-linejoin="round" stroke-width=".05"/>
  <path id="path218" d="m65.079 31.111h0.35683l-0.17839-1.0532z" fill="#212830" fill-rule="evenodd"/>
  <text id="text219" x="62.567265" y="59.121803" fill="#000000" font-family="Arial" font-size="1.7206px" font-weight="400" letter-spacing="0px" stroke-width=".05" word-spacing="0px" style="line-height:125%" xml:space="preserve"><tspan id="tspan219" x="62.567265" y="59.121803" stroke-width=".05" sodipodi:role="line"><tspan id="tspan218" dx="0" dy="0" fill="#212830" font-family="Arial" font-size="1.7206px" font-weight="400" stroke-width=".05">1.6180</tspan></tspan></text>
  <g fill="none" stroke="#212830" stroke-linecap="round" stroke-linejoin="round" stroke-width=".05">
   <path id="path219" d="m65.079 31.111h0.35683l-0.17839-1.0532z"/>
   <path id="path220" d="m68.043 86.08-1.6469-2.6671"/>
   <path id="path221" d="m103.3 64.333-1.6469-2.6671"/>
   <path id="path222" d="m68.826 83.987 13.244-8.179"/>
   <path id="path223" d="m101.08 64.087-13.258 8.179"/>
  </g>
  <path id="path224" d="m68.675 83.727 0.30193 0.50607-1.6469 0.67019z" fill="#212830" fill-rule="evenodd"/>
  <path id="path225" d="m68.675 83.727 0.30193 0.50607-1.6469 0.67019z" fill="none" stroke="#212830" stroke-linecap="round" stroke-linejoin="round" stroke-width=".05"/>
  <path id="path226" d="m100.93 63.84 0.30194 0.49238 1.345-1.1762z" fill="#212830" fill-rule="evenodd"/>
  <text id="text227" x="81.863792" y="74.727631" fill="#000000" font-family="Arial" font-size="1.9724px" font-weight="400" letter-spacing="0px" stroke-width=".05" word-spacing="0px" style="line-height:125%" xml:space="preserve"><tspan id="tspan227" x="81.863792" y="74.727631" stroke-width=".05" sodipodi:role="line"><tspan id="tspan226" dx="0" dy="0" fill="#212830" font-family="Arial" font-size="1.9724px" font-weight="400" stroke-width=".05">1.1756</tspan></tspan></text>
  <g fill="none" stroke="#212830" stroke-linecap="round" stroke-linejoin="round" stroke-width=".05">
   <path id="path227" d="m100.93 63.84 0.30194 0.49238 1.345-1.1762z"/>
   <path id="path228" d="m161.45 86.08 2.0998-3.392"/>
   <path id="path229" d="m104.41 50.902 2.0998-3.392"/>
   <path id="path230" d="m161.12 83.262-24.141-14.895"/>
   <path id="path231" d="m107.09 49.931 24.141 14.895"/>
  </g>
  <path id="path232" d="m161.29 83.016-0.31567 0.49238 1.6607 0.68387z" fill="#212830" fill-rule="evenodd"/>
  <path id="path233" d="m161.29 83.016-0.31567 0.49238 1.6607 0.68387z" fill="none" stroke="#212830" stroke-linecap="round" stroke-linejoin="round" stroke-width=".05"/>
  <path id="path234" d="m107.24 49.684-0.31564 0.49238-1.345-1.1762z" fill="#212830" fill-rule="evenodd"/>
  <text id="text235" x="131.1619" y="67.30085" fill="#000000" font-family="Arial" font-size="1.9724px" font-weight="400" letter-spacing="0px" stroke-width=".05" word-spacing="0px" style="line-height:125%" xml:space="preserve"><tspan id="tspan235" x="131.1619" y="67.30085" stroke-width=".05" sodipodi:role="line"><tspan id="tspan234" dx="0" dy="0" fill="#212830" font-family="Arial" font-size="1.9724px" font-weight="400" stroke-width=".05">1.9021</tspan></tspan></text>
  <g fill="none" stroke="#212830" stroke-linecap="round" stroke-linejoin="round" stroke-width=".05">
   <path id="path235" d="m107.24 49.684-0.31564 0.49238-1.345-1.1762z"/>
   <path id="path236" d="m79.16 86.517-0.0274-0.45135-0.0411-0.43768-0.0685-0.43768-0.0822-0.43766-0.21982-0.84799"/>
   <path id="path237" d="m77.911 81.963-0.21952-0.36929-0.23321-0.38296-0.24692-0.35562-0.24717-0.34194-0.27448-0.34194-0.28821-0.32825"/>
  </g>
  <path id="path238" d="m79.242 86.517h-0.15101l0.09621 0.45135z" fill="#212830" fill-rule="evenodd"/>
  <path id="path239" d="m79.242 86.517h-0.15101l0.09621 0.45135z" fill="none" stroke="#212830" stroke-linecap="round" stroke-linejoin="round" stroke-width=".05"/>
  <path id="path240" d="m76.347 79.898 0.10991-0.10944-0.37055-0.27355z" fill="#212830" fill-rule="evenodd"/>
  <text id="text241" x="76.579887" y="83.809349" fill="#000000" font-family="Arial" font-size="2.476px" font-weight="400" letter-spacing="0px" stroke-width=".05" word-spacing="0px" style="line-height:125%" xml:space="preserve"><tspan id="tspan241" x="76.579887" y="83.809349" stroke-width=".05" sodipodi:role="line"><tspan id="tspan240" dx="0" dy="0" fill="#212830" font-family="Arial" font-size="2.476px" font-weight="400" stroke-width=".05">45°</tspan></tspan></text>
  <g fill="none" stroke="#212830" stroke-linecap="round" stroke-linejoin="round" stroke-width=".05">
   <path id="path241" d="m76.347 79.898 0.10991-0.10944-0.37055-0.27355z"/>
   <path id="path242" d="m85.473 86.517-0.0274-0.53342-0.0411-0.53341-0.0548-0.53342-0.0822-0.53341-0.0822-0.51974-0.10991-0.51974"/>
   <path id="path243" d="m84.526 81.402-0.19209-0.50605-0.19211-0.47872-0.21952-0.49238-0.23321-0.4787-0.23322-0.46503-0.26075-0.46503"/>
  </g>
  <path id="path244" d="m85.542 86.517h-0.15101l0.0822 0.45135z" fill="#212830" fill-rule="evenodd"/>
  <path id="path245" d="m85.542 86.517h-0.15101l0.0822 0.45135z" fill="none" stroke="#212830" stroke-linecap="round" stroke-linejoin="round" stroke-width=".05"/>
  <path id="path246" d="m83.126 78.557 0.12361-0.08208-0.30191-0.35561z" fill="#212830" fill-rule="evenodd"/>
  <text id="text247" x="82.989197" y="83.248596" fill="#000000" font-family="Arial" font-size="2.476px" font-weight="400" letter-spacing="0px" stroke-width=".05" word-spacing="0px" style="line-height:125%" xml:space="preserve"><tspan id="tspan247" x="82.989197" y="83.248596" stroke-width=".05" sodipodi:role="line"><tspan id="tspan246" dx="0" dy="0" fill="#212830" font-family="Arial" font-size="2.476px" font-weight="400" stroke-width=".05">32°</tspan></tspan></text>
  <g fill="none" stroke="#212830" stroke-linecap="round" stroke-linejoin="round" stroke-width=".05">
   <path id="path247" d="m83.126 78.557 0.12361-0.08208-0.30191-0.35561z"/>
   <path id="path248" d="m141.67 80.13-0.17839 0.54709-0.16471 0.54709-0.1647 0.54709-0.13731 0.54709"/>
   <path id="path249" d="m140.69 84.233-0.0825 0.56076-0.0411 0.57446-0.0411 0.57444-0.0274 0.57444"/>
  </g>
  <path id="path250" d="m141.61 80.103 0.13731 0.05464 0.0962-0.45135z" fill="#212830" fill-rule="evenodd"/>
  <path id="path251" d="m141.61 80.103 0.13731 0.05464 0.0962-0.45135z" fill="none" stroke="#212830" stroke-linecap="round" stroke-linejoin="round" stroke-width=".05"/>
  <path id="path252" d="m140.58 86.517h-0.15101l0.0685 0.45135z" fill="#212830" fill-rule="evenodd"/>
  <text id="text253" x="139.01227" y="84.164978" fill="#000000" font-family="Arial" font-size="2.476px" font-weight="400" letter-spacing="0px" stroke-width=".05" word-spacing="0px" style="line-height:125%" xml:space="preserve"><tspan id="tspan253" x="139.01227" y="84.164978" stroke-width=".05" sodipodi:role="line"><tspan id="tspan252" dx="0" dy="0" fill="#212830" font-family="Arial" font-size="2.476px" font-weight="400" stroke-width=".05">21°</tspan></tspan></text>
  <g fill="none" stroke="#212830" stroke-linecap="round" stroke-linejoin="round" stroke-width=".05">
   <path id="path253" d="m140.58 86.517h-0.15101l0.0685 0.45135z"/>
   <path id="path254" d="m147.62 79.31-0.23321 0.41032-0.41162 0.82065-0.17841 0.424-0.17839 0.42399-0.16471 0.424"/>
   <path id="path255" d="m145.9 83.755-0.0962 0.45136-0.0685 0.46502-0.0685 0.45136-0.0411 0.46502-0.0411 0.46503-0.0274 0.46503"/>
  </g>
  <path id="path256" d="m147.55 79.282 0.12361 0.06839 0.16471-0.424z" fill="#212830" fill-rule="evenodd"/>
  <path id="path257" d="m147.55 79.282 0.12361 0.06839 0.16471-0.424z" fill="none" stroke="#212830" stroke-linecap="round" stroke-linejoin="round" stroke-width=".05"/>
  <path id="path258" d="m145.64 86.517h-0.1647l0.0685 0.45135z" fill="#212830" fill-rule="evenodd"/>
  <text id="text259" x="144.29617" y="83.658897" fill="#000000" font-family="Arial" font-size="2.476px" font-weight="400" letter-spacing="0px" stroke-width=".05" word-spacing="0px" style="line-height:125%" xml:space="preserve"><tspan id="tspan259" x="144.29617" y="83.658897" stroke-width=".05" sodipodi:role="line"><tspan id="tspan258" dx="0" dy="0" fill="#212830" font-family="Arial" font-size="2.476px" font-weight="400" stroke-width=".05">32°</tspan></tspan></text>
  <g fill="none" stroke-linecap="round" stroke-linejoin="round" stroke-width=".05">
   <path id="path259" d="m145.64 86.517h-0.1647l0.0685 0.45135z" stroke="#212830"/>
   <g stroke="#0f0">
    <path id="path260" d="m68.606 30.058h92.297"/>
    <path id="path261" d="m103.86 63.116v-33.058"/>
    <path id="path262" d="m160.9 30.058v56.911"/>
    <path id="path263" d="m103.86 86.969h57.039"/>
    <path id="path264" d="m103.86 30.058-1.2489 0.64283-1.2489 0.67019-1.2215 0.69754-1.2077 0.7249-0.0411 0.02735"/>
    <path id="path265" d="m93.667 36.417-0.52153 0.39664-1.1117 0.88902-1.0842 0.9027-0.54897 0.47871"/>
    <path id="path266" d="m85.844 43.489-0.94697 1.0121-0.93329 1.0668-0.90581 1.0805"/>
    <path id="path267" d="m79.284 51.736-0.3843 0.58812-0.75485 1.1899-0.7274 1.2173-0.3431 0.6018"/>
    <path id="path268" d="m74.178 60.955v0.02735l-0.56269 1.2993-0.53526 1.2993-0.49408 1.2857"/>
    <path id="path269" d="m70.678 70.898-0.17839 0.7249-0.3294 1.3677-0.28821 1.3814-0.12361 0.62916"/>
    <path id="path270" d="m68.867 81.265v0.0822l-0.10976 1.3951-0.06865 1.4088-0.05496 1.4088-0.01401 1.4088"/>
    <path id="path271" d="m68.496 86.983h-0.10976"/>
    <path id="path272" d="m68.716 86.983h0.09606"/>
   </g>
  </g>
  <path id="path273" d="m68.496 86.955v0.0411l0.10975-0.01401z" fill="#0f0" fill-rule="evenodd"/>
  <path id="path274" d="m68.496 86.955v0.0411l0.10975-0.01401z" fill="none" stroke="#0f0" stroke-linecap="round" stroke-linejoin="round" stroke-width=".05"/>
  <path id="path275" d="m68.716 86.955v0.0411l-0.10975-0.01401z" fill="#0f0" fill-rule="evenodd"/>
  <text id="text276" x="69.086365" y="87.037224" fill="#000000" font-family="Arial" font-size=".1259px" font-weight="400" letter-spacing="0px" stroke-width=".05" word-spacing="0px" style="line-height:125%" xml:space="preserve"><tspan id="tspan276" x="69.086365" y="87.037224" stroke-width=".05" sodipodi:role="line"><tspan id="tspan275" dx="0" dy="0" fill="#00ff00" font-family="Arial" font-size=".1259px" font-weight="400" stroke-width=".05">0.00002101</tspan></tspan></text>
  <g fill="none" stroke-linecap="round" stroke-linejoin="round" stroke-width=".05">
   <path id="path276" d="m68.716 86.955v0.0411l-0.10975-0.01401z" stroke="#0f0"/>
   <path id="path277" d="m103.86 51.791h57.039" stroke="#0f0"/>
   <g stroke="#212830">
    <path id="path278" d="m161.96 86.969h9.5934"/>
    <path id="path279" d="m161.96 51.791h9.5934"/>
    <path id="path280" d="m169.8 85.218v-14.06"/>
    <path id="path281" d="m169.8 53.555v14.06"/>
   </g>
  </g>
  <path id="path282" d="m169.49 85.218h0.59015l-0.28821 1.7507z" fill="#212830" fill-rule="evenodd"/>
  <path id="path283" d="m169.49 85.218h0.59015l-0.28821 1.7507z" fill="none" stroke="#212830" stroke-linecap="round" stroke-linejoin="round" stroke-width=".05"/>
  <path id="path284" d="m169.49 53.555h0.59015l-0.28821-1.7644z" fill="#212830" fill-rule="evenodd"/>
  <text id="text285" x="166.70816" y="70.077324" fill="#000000" font-family="Arial" font-size="1.9724px" font-weight="400" letter-spacing="0px" stroke-width=".05" word-spacing="0px" style="line-height:125%" xml:space="preserve"><tspan id="tspan285" x="166.70816" y="70.077324" stroke-width=".05" sodipodi:role="line"><tspan id="tspan284" dx="0" dy="0" fill="#212830" font-family="Arial" font-size="1.9724px" font-weight="400" stroke-width=".05">1.0000</tspan></tspan></text>
  <g fill="none" stroke-linecap="round" stroke-linejoin="round" stroke-width=".05">
   <path id="path285" d="m169.49 53.555h0.59015l-0.28821-1.7644z" stroke="#212830"/>
   <path id="path286" d="m68.606 86.969v-56.911" stroke="#0f0"/>
   <g stroke="#212830">
    <path id="path287" d="m161.96 51.791h9.5934"/>
    <path id="path288" d="m161.96 30.058h9.5934"/>
    <path id="path289" d="m169.8 50.04v-7.3447"/>
    <path id="path290" d="m169.8 31.808v7.3447"/>
   </g>
  </g>
  <path id="path291" d="m169.49 50.04h0.59015l-0.28821 1.7507z" fill="#212830" fill-rule="evenodd"/>
  <path id="path292" d="m169.49 50.04h0.59015l-0.28821 1.7507z" fill="none" stroke="#212830" stroke-linecap="round" stroke-linejoin="round" stroke-width=".05"/>
  <path id="path293" d="m169.49 31.808h0.59015l-0.28821-1.7507z" fill="#212830" fill-rule="evenodd"/>
  <text id="text294" x="166.77678" y="41.628502" fill="#000000" font-family="Arial" font-size="1.9724px" font-weight="400" letter-spacing="0px" stroke-width=".05" word-spacing="0px" style="line-height:125%" xml:space="preserve"><tspan id="tspan294" x="166.77678" y="41.628502" stroke-width=".05" sodipodi:role="line"><tspan id="tspan293" dx="0" dy="0" fill="#212830" font-family="Arial" font-size="1.9724px" font-weight="400" stroke-width=".05">0.6180</tspan></tspan></text>
  <g fill="none" stroke="#212830" stroke-linecap="round" stroke-linejoin="round" stroke-width=".05">
   <path id="path294" d="m169.49 31.808h0.59015l-0.28821-1.7507z"/>
   <path id="path295" d="m161.96 86.969h21.19"/>
   <path id="path296" d="m161.96 30.058h21.19"/>
   <path id="path297" d="m181.39 85.218v-24.934"/>
   <path id="path298" d="m181.39 31.808v24.934"/>
  </g>
  <path id="path299" d="m181.09 85.218h0.59015l-0.28821 1.7507z" fill="#212830" fill-rule="evenodd"/>
  <path id="path300" d="m181.09 85.218h0.59015l-0.28821 1.7507z" fill="none" stroke="#212830" stroke-linecap="round" stroke-linejoin="round" stroke-width=".05"/>
  <path id="path301" d="m181.09 31.808h0.59015l-0.28821-1.7507z" fill="#212830" fill-rule="evenodd"/>
  <g fill="#000000" font-family="Arial" font-weight="400" letter-spacing="0px" stroke-width=".05" word-spacing="0px">
   <text id="text302" x="178.30527" y="59.217545" font-size="1.9724px" style="line-height:125%" xml:space="preserve"><tspan id="tspan302" x="178.30527" y="59.217545" stroke-width=".05" sodipodi:role="line"><tspan id="tspan301" dx="0" dy="0" fill="#212830" font-family="Arial" font-size="1.9724px" font-weight="400" stroke-width=".05">1.6180</tspan></tspan></text>
   <text id="text304" x="48.211525" y="41.751614" font-size="4.4483px" style="line-height:125%" xml:space="preserve"><tspan id="tspan304" x="48.211525" y="41.751614" stroke-width=".05" sodipodi:role="line"><tspan id="tspan303" dx="0" dy="0" fill="#00ff00" font-family="Arial" font-size="4.4483px" font-weight="400" stroke-width=".05">ARC</tspan></tspan></text>
   <text id="text306" x="48.074291" y="47.044727" font-size="4.4483px" style="line-height:125%" xml:space="preserve"><tspan id="tspan306" x="48.074291" y="47.044727" stroke-width=".05" sodipodi:role="line"><tspan id="tspan305" dx="0" dy="0" fill="#212830" font-family="Arial" font-size="4.4483px" font-weight="400" stroke-width=".05">2.0028</tspan></tspan></text>
  </g>
  <g stroke-width=".05">
   <path id="path306" d="m181.09 31.808h0.59015l-0.28821-1.7507z" fill="none" stroke="#212830" stroke-linecap="round" stroke-linejoin="round"/>
   <text id="text308" x="108.76362" y="72.128937" fill="#000000" font-family="Arial" font-size="1.0072px" font-weight="400" letter-spacing="0px" word-spacing="0px" style="line-height:125%" xml:space="preserve"><tspan id="tspan308" x="108.76362" y="72.128937" stroke-width=".05" sodipodi:role="line"><tspan id="tspan307" dx="0" dy="0" fill="#00ff00" font-family="Arial" font-size="1.0072px" font-weight="400" stroke-width=".05">ARC </tspan></tspan></text>
   <text id="text310" x="111.12424" y="72.128937" fill="#000000" font-family="Arial" font-size="1.0072px" font-weight="400" letter-spacing="0px" word-spacing="0px" style="line-height:125%" xml:space="preserve"><tspan id="tspan310" x="111.12424" y="72.128937" stroke-width=".05" sodipodi:role="line"><tspan id="tspan309" dx="0" dy="0" fill="#212830" font-family="Arial" font-size="1.0072px" font-weight="400" stroke-width=".05">0.6321</tspan></tspan></text>
   <path id="path310" d="m80.354 50.163-15.028-10.025h-3.5272" fill="none" stroke="#212830" stroke-linecap="round" stroke-linejoin="round"/>
   <path id="path311" d="m101.11 74.618 3.7879-2.8449h3.5272" fill="none" stroke="#212830" stroke-linecap="round" stroke-linejoin="round"/>
  </g>
  <g fill="#000000" font-family="Arial" font-weight="400" letter-spacing="0px" stroke-width=".05" word-spacing="0px">
   <text id="text312" x="17.400209" y="63.006157" font-size="7.8894px" style="line-height:125%" xml:space="preserve"><tspan id="tspan312" x="17.400209" y="63.006157" stroke-width=".05" sodipodi:role="line"><tspan id="tspan311" dx="0" dy="0" fill="#212830" font-family="Arial" font-size="7.8894px" font-weight="400" stroke-width=".05">Arithmetic</tspan></tspan></text>
   <text id="text314" x="4.1698718" y="68.777985" font-size="2.9795px" style="line-height:125%" xml:space="preserve"><tspan id="tspan314" x="4.1698718" y="68.777985" stroke-width=".05" sodipodi:role="line"><tspan id="tspan313" dx="0" dy="0" fill="#212830" font-family="Arial" font-size="2.9795px" font-weight="400" stroke-width=".05">Sacred Geometry philosophy and practice</tspan></tspan></text>
   <text id="text316" x="77.128883" y="113.10619" font-size="7.8894px" style="line-height:125%" xml:space="preserve"><tspan id="tspan316" x="77.128883" y="113.10619" stroke-width=".05" sodipodi:role="line"><tspan id="tspan315" dx="0" dy="0" fill="#212830" font-family="Arial" font-size="7.8894px" font-weight="400" stroke-width=".05">Geometry</tspan></tspan></text>
   <text id="text318" x="79.242455" y="65.851044" font-size="2.1822px" style="line-height:125%" xml:space="preserve"><tspan id="tspan318" x="79.242455" y="65.851044" stroke-width=".05" sodipodi:role="line"><tspan id="tspan317" dx="0" dy="0" fill="#212830" font-family="Arial" font-size="2.1822px" font-weight="400" stroke-width=".05">v2</tspan></tspan></text>
  </g>
  <g fill="none" stroke-linecap="round" stroke-linejoin="round" stroke-width=".05">
   <path id="path318" d="m68.606 51.791h35.258" stroke="#0f0"/>
   <g stroke="#212830">
    <path id="path319" d="m103.86 87.324v9.7245"/>
    <path id="path320" d="m99.843 87.324v9.7245"/>
    <path id="path321" d="m102.81 96.351h-1.9077"/>
    <path id="path322" d="m99.843 96.351h-1.0568"/>
   </g>
  </g>
  <path id="path323" d="m102.81 96.174v0.3556l1.0568-0.17778z" fill="#212830" fill-rule="evenodd"/>
  <path id="path324" d="m102.81 96.174v0.3556l1.0568-0.17778z" fill="none" stroke="#212830" stroke-linecap="round" stroke-linejoin="round" stroke-width=".05"/>
  <path id="path325" d="m100.9 96.174v0.3556l-1.0568-0.17778z" fill="#212830" fill-rule="evenodd"/>
  <text id="text326" x="81.506973" y="97.828636" fill="#000000" font-family="Arial" font-size="4.1965px" font-weight="400" letter-spacing="0px" stroke-width=".05" word-spacing="0px" style="line-height:125%" xml:space="preserve"><tspan id="tspan326" x="81.506973" y="97.828636" stroke-width=".05" sodipodi:role="line"><tspan id="tspan325" dx="0" dy="0" fill="#212830" font-family="Arial" font-size="4.1965px" font-weight="400" stroke-width=".05">0.114050</tspan></tspan></text>
  <g fill="none" stroke-linecap="round" stroke-linejoin="round" stroke-width=".05">
   <path id="path326" d="m100.9 96.174v0.3556l-1.0568-0.17778z" stroke="#212830"/>
   <path id="path327" d="m132.38 86.969v-35.178" stroke="#f00"/>
   <path id="path328" d="m160.9 69.38h-57.039" stroke="#00f"/>
   <path id="path329" d="m68.606 30.153v0.10943" stroke="#0ff"/>
   <path id="path330" d="m68.606 29.948v-0.10943h0.09605" stroke="#0ff"/>
  </g>
  <path id="path331" d="m68.579 30.153h0.0411l-0.01401-0.09574z" fill="#0ff" fill-rule="evenodd"/>
  <path id="path332" d="m68.579 30.153h0.0411l-0.01401-0.09574z" fill="none" stroke="#0ff" stroke-linecap="round" stroke-linejoin="round" stroke-width=".05"/>
  <path id="path333" d="m68.579 29.948h0.0411l-0.01401 0.10943z" fill="#0ff" fill-rule="evenodd"/>
  <g fill="#000000" font-family="Arial" font-weight="400" letter-spacing="0px" stroke-width=".05" word-spacing="0px">
   <text id="text334" x="68.97657" y="29.893368" font-size=".1259px" style="line-height:125%" xml:space="preserve"><tspan id="tspan334" x="68.97657" y="29.893368" stroke-width=".05" sodipodi:role="line"><tspan id="tspan333" dx="0" dy="0" fill="#00ffff" font-family="Arial" font-size=".1259px" font-weight="400" stroke-width=".05">0.00004697</tspan></tspan></text>
   <g font-size="4.4483px">
    <text id="text336" x="12.775084" y="27.417774" style="line-height:125%" xml:space="preserve"><tspan id="tspan336" x="12.775084" y="27.417774" stroke-width=".05" sodipodi:role="line"><tspan id="tspan335" dx="0" dy="0" fill="#00ff00" font-family="Arial" font-size="4.4483px" font-weight="400" stroke-width=".05">Proporción</tspan></tspan></text>
    <text id="text338" x="12.816263" y="32.69722" style="line-height:125%" xml:space="preserve"><tspan id="tspan338" x="12.816263" y="32.69722" stroke-width=".05" sodipodi:role="line"><tspan id="tspan337" dx="0" dy="0" fill="#00ff00" font-family="Arial" font-size="4.4483px" font-weight="400" stroke-width=".05">por</tspan></tspan></text>
    <text id="text340" x="12.91234" y="38.031368" style="line-height:125%" xml:space="preserve"><tspan id="tspan340" x="12.91234" y="38.031368" stroke-width=".05" sodipodi:role="line"><tspan id="tspan339" dx="0" dy="0" fill="#00ff00" font-family="Arial" font-size="4.4483px" font-weight="400" stroke-width=".05">SEMEJANZA</tspan></tspan></text>
   </g>
  </g>
  <g fill="none" stroke-linecap="round" stroke-linejoin="round" stroke-width=".05">
   <path id="path340" d="m68.579 29.948h0.0411l-0.01401 0.10943z" stroke="#0ff"/>
   <g stroke="#212830">
    <path id="path341" d="m103.86 55.634-60.456-29.803h-3.5272"/>
    <path id="path342" d="m67.851 86.23-2.4429-2.4482"/>
    <path id="path343" d="m103.11 51.052-2.4567-2.4482"/>
    <path id="path344" d="m67.892 83.782 14.616-14.594"/>
    <path id="path345" d="m100.65 51.093-14.616 14.58"/>
   </g>
  </g>
  <path id="path346" d="m67.686 83.577 0.41173 0.41033-1.4548 1.0395z" fill="#212830" fill-rule="evenodd"/>
  <path id="path347" d="m67.686 83.577 0.41173 0.41033-1.4548 1.0395z" fill="none" stroke="#212830" stroke-linecap="round" stroke-linejoin="round" stroke-width=".05"/>
  <path id="path348" d="m100.45 50.874 0.41173 0.424 1.0431-1.4498z" fill="#212830" fill-rule="evenodd"/>
  <g fill="#000000" font-family="Arial" font-weight="400" letter-spacing="0px" stroke-width=".05" word-spacing="0px">
   <text id="text349" x="81.205025" y="68.148842" font-size="1.9724px" style="line-height:125%" xml:space="preserve"><tspan id="tspan349" x="81.205025" y="68.148842" stroke-width=".05" sodipodi:role="line"><tspan id="tspan348" dx="0" dy="0" fill="#212830" font-family="Arial" font-size="1.9724px" font-weight="400" stroke-width=".05">1.4142</tspan></tspan></text>
   <text id="text351" x="162.01437" y="94.983711" font-size="9.8618px" style="line-height:125%" xml:space="preserve"><tspan id="tspan351" x="162.01437" y="94.983711" stroke-width=".05" sodipodi:role="line"><tspan id="tspan350" dx="0" dy="0" fill="#212830" font-family="Arial" font-size="9.8618px" font-weight="400" stroke-width=".05">Capitolio</tspan></tspan></text>
   <text id="text353" x="10.167449" y="93.520256" font-size="9.8618px" style="line-height:125%" xml:space="preserve"><tspan id="tspan353" x="10.167449" y="93.520256" stroke-width=".05" sodipodi:role="line"><tspan id="tspan352" dx="0" dy="0" fill="#212830" font-family="Arial" font-size="9.8618px" font-weight="400" stroke-width=".05">Rio Potomac</tspan></tspan></text>
   <text id="text355" x="106.34814" y="20.811634" font-size="3.9447px" style="line-height:125%" xml:space="preserve"><tspan id="tspan355" x="106.34814" y="20.811634" stroke-width=".05" sodipodi:role="line"><tspan id="tspan354" dx="0" dy="0" fill="#212830" font-family="Arial" font-size="3.9447px" font-weight="400" stroke-width=".05">T= Casa Blanca</tspan></tspan></text>
   <text id="text357" x="106.34814" y="15.518516" font-size="3.9447px" style="line-height:125%" xml:space="preserve"><tspan id="tspan357" x="106.34814" y="15.518516" stroke-width=".05" sodipodi:role="line"><tspan id="tspan356" dx="0" dy="0" fill="#212830" font-family="Arial" font-size="3.9447px" font-weight="400" stroke-width=".05">NOTA:</tspan></tspan></text>
  </g>
  <path id="path357" d="m100.45 50.874 0.41173 0.424 1.0431-1.4498z" fill="none" stroke="#212830" stroke-linecap="round" stroke-linejoin="round" stroke-width=".05"/>
  <path id="path358" d="m103.07 23.998h35.642v-14.306h-35.642z" fill="none" stroke="#212830" stroke-linecap="round" stroke-linejoin="round" stroke-width=".05"/>
 </g>
 <metadata id="metadata1">
  <rdf:RDF>
   <cc:Work rdf:about="">
    <dc:title>Movimiento:  concepto según Aristóteles, y la Entrada a la Gran pirámide de Keops.</dc:title>
    <dc:date>11/12/2022</dc:date>
    <dc:creator>
     <cc:Agent>
      <dc:title>ISAN atelier</dc:title>
     </cc:Agent>
    </dc:creator>
    <dc:rights>
     <cc:Agent>
      <dc:title>Movimiento: concepto según Aristóteles, y la Entrada a la Gran pirámide de Keops. © 2024 by ISAN atelier is licensed under Creative Commons Attribution-NoDerivatives 4.0 International nsed under Creative Commons Attribution-NoDerivatives 4.0 International</dc:title>
     </cc:Agent>
    </dc:rights>
    <dc:publisher>
     <cc:Agent>
      <dc:title>ISAN atelelier</dc:title>
     </cc:Agent>
    </dc:publisher>
    <dc:source>ISAN atelier</dc:source>
    <dc:relation>En búsqueda de las claves sacras de la ciudad de Washington D.C. Decodificando sus secretos</dc:relation>
    <dc:language>Español</dc:language>
    <dc:subject>
     <rdf:Bag>
      <rdf:li>arquitectura</rdf:li>
      <rdf:li>sagrado</rdf:li>
      <rdf:li>geometria</rdf:li>
     </rdf:Bag>
    </dc:subject>
    <dc:coverage>global</dc:coverage>
    <dc:description>estudios geosmetricos sagrados</dc:description>
    <cc:license rdf:resource="http://creativecommons.org/licenses/by-nd/4.0/"/>
   </cc:Work>
   <cc:License rdf:about="http://creativecommons.org/licenses/by-nd/4.0/">
    <cc:permits rdf:resource="http://creativecommons.org/ns#Reproduction"/>
    <cc:permits rdf:resource="http://creativecommons.org/ns#Distribution"/>
    <cc:requires rdf:resource="http://creativecommons.org/ns#Notice"/>
    <cc:requires rdf:resource="http://creativecommons.org/ns#Attribution"/>
   </cc:License>
  </rdf:RDF>
 </metadata>
</svg>
