<?xml version="1.0" encoding="UTF-8"?>
<!-- Created with Inkscape (http://www.inkscape.org/) -->
<svg id="svg1" width="210mm" height="130mm" inkscape:version="1.4 (86a8ad7, 2024-10-11)" sodipodi:docname="Triángulo invertido Entrada Keops.svg" version="1.1" viewBox="0 0 210 130" xmlns="http://www.w3.org/2000/svg" xmlns:cc="http://creativecommons.org/ns#" xmlns:dc="http://purl.org/dc/elements/1.1/" xmlns:inkscape="http://www.inkscape.org/namespaces/inkscape" xmlns:rdf="http://www.w3.org/1999/02/22-rdf-syntax-ns#" xmlns:sodipodi="http://sodipodi.sourceforge.net/DTD/sodipodi-0.dtd">
 <title id="title1">Movimiento:  concepto según Aristóteles, y la Entrada a la Gran pirámide de Keops</title>
 <sodipodi:namedview id="namedview1" bordercolor="#000000" borderopacity="0.25" inkscape:current-layer="layer1" inkscape:cx="355.30683" inkscape:cy="545.53263" inkscape:deskcolor="#d1d1d1" inkscape:document-units="mm" inkscape:pagecheckerboard="0" inkscape:pageopacity="0.0" inkscape:showpageshadow="2" inkscape:window-height="705" inkscape:window-maximized="1" inkscape:window-width="1366" inkscape:window-x="-8" inkscape:window-y="-8" inkscape:zoom="0.45735119" pagecolor="#ffffff"/>
 <defs id="defs1">
  <pattern id="EMFhbasepattern" width="6" height="6" patternUnits="userSpaceOnUse"/>
 </defs>
 <g id="layer1" inkscape:groupmode="layer" inkscape:label="Capa 1">
  <g id="g1" transform="translate(-4.6281 -31.24)">
   <path id="path1" d="m82.67 78.188 0.86652-2.2763 0.43328-1.1773 0.39394-1.1381" fill="none" stroke="#212830" stroke-linecap="round" stroke-linejoin="round" stroke-width=".05"/>
   <path id="path2" d="m85.585 69.2 0.3153-1.2166 0.23594-1.1774 0.23592-1.2166 0.23594-1.2166" fill="none" stroke="#212830" stroke-linecap="round" stroke-linejoin="round" stroke-width=".05"/>
   <path id="path3" d="m83.34 78.501-1.339-0.58836-1.1421 4.2778z" fill="#212830" fill-rule="evenodd"/>
   <path id="path4" d="m83.34 78.501-1.339-0.58836-1.1421 4.2778z" fill="none" stroke="#212830" stroke-linecap="round" stroke-linejoin="round" stroke-width=".05"/>
   <path id="path5" d="m85.9 64.295 1.4178 0.1959-0.15723-4.4348z" fill="#212830" fill-rule="evenodd"/>
   <text id="text6" x="80.504486" y="73.595741" fill="#000000" font-family="Arial" font-size="6.1412px" font-weight="400" letter-spacing="0px" stroke-width=".05" word-spacing="0px" style="line-height:125%" xml:space="preserve"><tspan id="tspan6" x="80.504486" y="73.595741" stroke-width=".05" sodipodi:role="line"><tspan id="tspan5" dx="0" dy="0" fill="#212830" font-family="Arial" font-size="6.1412px" font-weight="400" stroke-width=".05">21°</tspan></tspan></text>
   <g fill="none" stroke-linecap="round" stroke-linejoin="round" stroke-width=".05">
    <path id="path6" d="m85.9 64.295 1.4178 0.1959-0.15723-4.4348z" stroke="#212830"/>
    <path id="path7" d="m-48.941 187.02 237.9-117.34" stroke="#f0f"/>
    <path id="path8" d="m145.36 69.907 0.0364 1.3736 0.0788 1.3344 0.0788 1.3736 0.15724 1.3344" stroke="#212830"/>
    <path id="path9" d="m146.55 79.797 0.35465 1.2951 0.35461 1.2951 0.43327 1.2951 0.43325 1.2558" stroke="#212830"/>
   </g>
   <path id="path10" d="m144.62 69.907 1.4571 0.07873-0.55124-4.3956z" fill="#212830" fill-rule="evenodd"/>
   <path id="path11" d="m144.62 69.907 1.4571 0.07873-0.55124-4.3956z" fill="none" stroke="#212830" stroke-linecap="round" stroke-linejoin="round" stroke-width=".05"/>
   <path id="path12" d="m148.79 84.663-1.3389 0.58836 2.4022 3.7284z" fill="#212830" fill-rule="evenodd"/>
   <text id="text13" x="141.46613" y="79.718086" fill="#000000" font-family="Arial" font-size="6.1412px" font-weight="400" letter-spacing="0px" stroke-width=".05" word-spacing="0px" style="line-height:125%" xml:space="preserve"><tspan id="tspan13" x="141.46613" y="79.718086" stroke-width=".05" sodipodi:role="line"><tspan id="tspan12" dx="0" dy="0" fill="#212830" font-family="Arial" font-size="6.1412px" font-weight="400" stroke-width=".05">32°</tspan></tspan></text>
   <g fill="none" stroke="#212830" stroke-linecap="round" stroke-linejoin="round" stroke-width=".05">
    <path id="path13" d="m148.79 84.663-1.3389 0.58836 2.4022 3.7284z"/>
    <path id="path14" d="m132.57 92.708-0.6692-0.66703-0.70853-0.58836-0.74826-0.54905-0.7876-0.51046-0.82699-0.47112-0.827-0.3925"/>
    <path id="path15" d="m116.42 89.53-0.827 0.3925-0.82699 0.47112-0.78767 0.51047-0.74821 0.54904-0.70924 0.58836-0.62989 0.66703"/>
   </g>
   <path id="path16" d="m133.16 92.277-1.2208 0.82424 3.1111 3.1396z" fill="#212830" fill-rule="evenodd"/>
   <path id="path17" d="m133.16 92.277-1.2208 0.82424 3.1111 3.1396z" fill="none" stroke="#212830" stroke-linecap="round" stroke-linejoin="round" stroke-width=".05"/>
   <path id="path18" d="m112.44 93.101-1.1815-0.82424-1.9297 3.9639z" fill="#212830" fill-rule="evenodd"/>
   <text id="text19" x="115.75038" y="90.471436" fill="#000000" font-family="Arial" font-size="6.1412px" font-weight="400" letter-spacing="0px" stroke-width=".05" word-spacing="0px" style="line-height:125%" xml:space="preserve"><tspan id="tspan19" x="115.75038" y="90.471436" stroke-width=".05" sodipodi:role="line"><tspan id="tspan18" dx="0" dy="0" fill="#212830" font-family="Arial" font-size="6.1412px" font-weight="400" stroke-width=".05">127°</tspan></tspan></text>
   <g fill="none" stroke-linecap="round" stroke-linejoin="round" stroke-width=".05">
    <path id="path19" d="m112.44 93.101-1.1815-0.82424-1.9297 3.9639z" stroke="#212830"/>
    <path id="path20" d="m23.875 54.051 165.08 15.62" stroke="#f0f"/>
    <g stroke="#212830">
     <path id="path21" d="m189.04 69.828 10.042 20.29"/>
     <path id="path22" d="m122.29 102.76 10.042 20.29"/>
     <path id="path23" d="m194.95 91.61-24.928 12.284"/>
     <path id="path24" d="m136.03 120.65 24.928-12.284"/>
    </g>
   </g>
   <path id="path25" d="m194.59 90.982 0.66917 1.2951 3.5837-2.5902z" fill="#212830" fill-rule="evenodd"/>
   <path id="path26" d="m194.59 90.982 0.66917 1.2951 3.5837-2.5902z" fill="none" stroke="#212830" stroke-linecap="round" stroke-linejoin="round" stroke-width=".05"/>
   <path id="path27" d="m135.72 120.02 0.62986 1.2951-4.2138 1.2951z" fill="#212830" fill-rule="evenodd"/>
   <text id="text28" x="156.19458" y="108.32826" fill="#000000" font-family="Arial" font-size="6.1412px" font-weight="400" letter-spacing="0px" stroke-width=".05" word-spacing="0px" style="line-height:125%" xml:space="preserve"><tspan id="tspan28" x="156.19458" y="108.32826" stroke-width=".05" sodipodi:role="line"><tspan id="tspan27" dx="0" dy="0" fill="#212830" font-family="Arial" font-size="6.1412px" font-weight="400" stroke-width=".05">26.712</tspan></tspan></text>
   <g fill="none" stroke="#212830" stroke-linecap="round" stroke-linejoin="round" stroke-width=".05">
    <path id="path28" d="m135.72 120.02 0.62986 1.2951-4.2138 1.2951z"/>
    <path id="path29" d="m188.96 69.514 1.3783-14.482"/>
    <path id="path30" d="m23.875 53.894 1.3783-14.482"/>
    <path id="path31" d="m185.93 55.111-69.113-6.5148"/>
    <path id="path32" d="m29.546 40.315 69.113 6.5541"/>
   </g>
   <path id="path33" d="m186.01 54.405-0.15724 1.4521 4.45-0.31384z" fill="#212830" fill-rule="evenodd"/>
   <path id="path34" d="m186.01 54.405-0.15724 1.4521 4.45-0.31384z" fill="none" stroke="#212830" stroke-linecap="round" stroke-linejoin="round" stroke-width=".05"/>
   <path id="path35" d="m29.624 39.609-0.1181 1.4521-4.2925-1.1381z" fill="#212830" fill-rule="evenodd"/>
   <text id="text36" x="98.3834" y="49.891327" fill="#000000" font-family="Arial" font-size="6.1412px" font-weight="400" letter-spacing="0px" stroke-width=".05" word-spacing="0px" style="line-height:125%" xml:space="preserve"><tspan id="tspan36" x="98.3834" y="49.891327" stroke-width=".05" sodipodi:role="line"><tspan id="tspan35" dx="0" dy="0" fill="#212830" font-family="Arial" font-size="6.1412px" font-weight="400" stroke-width=".05">59.500</tspan></tspan></text>
   <g fill="none" stroke-linecap="round" stroke-linejoin="round" stroke-width=".05">
    <path id="path36" d="m29.624 39.609-0.1181 1.4521-4.2925-1.1381z" stroke="#212830"/>
    <path id="path37" d="m23.875 54.051 98.334 48.547" stroke="#f0f"/>
    <g stroke="#212830">
     <path id="path38" d="m122.13 102.76-8.9395 18.014"/>
     <path id="path39" d="m23.796 54.208-8.9395 18.014"/>
     <path id="path40" d="m109.49 118.38-40.72-20.094"/>
     <path id="path41" d="m18.991 73.714 40.72 20.094"/>
    </g>
   </g>
   <path id="path42" d="m109.84 117.71-0.66918 1.3343 4.2532 1.2559z" fill="#212830" fill-rule="evenodd"/>
   <path id="path43" d="m109.84 117.71-0.66918 1.3343 4.2532 1.2559z" fill="none" stroke="#212830" stroke-linecap="round" stroke-linejoin="round" stroke-width=".05"/>
   <path id="path44" d="m19.346 73.046-0.66948 1.3344-3.5837-2.5902z" fill="#212830" fill-rule="evenodd"/>
   <g fill="#000000" font-weight="400" letter-spacing="0px" stroke-width=".05" word-spacing="0px">
    <text id="text45" x="54.906868" y="98.202904" font-family="Arial" font-size="6.1412px" style="line-height:125%" xml:space="preserve"><tspan id="tspan45" x="54.906868" y="98.202904" stroke-width=".05" sodipodi:role="line"><tspan id="tspan44" dx="0" dy="0" fill="#212830" font-family="Arial" font-size="6.1412px" font-weight="400" stroke-width=".05">39.367</tspan></tspan></text>
    <g font-family="Garamond" font-size="9.6332px">
     <text id="text47" transform="rotate(-.3)" x="9.9619398" y="47.314705" style="line-height:125%" xml:space="preserve"><tspan id="tspan47" x="9.9619398" y="47.314705" stroke-width=".05" sodipodi:role="line"><tspan id="tspan46" dx="0" dy="0" fill="#00ffff" font-family="Garamond" font-size="9.6332px" font-weight="400" stroke-width=".05">VG</tspan></tspan></text>
     <text id="text49" transform="rotate(-.3)" x="114.08788" y="99.704269" style="line-height:125%" xml:space="preserve"><tspan id="tspan49" x="114.08788" y="99.704269" stroke-width=".05" sodipodi:role="line"><tspan id="tspan48" dx="0" dy="0" fill="#00ffff" font-family="Garamond" font-size="9.6332px" font-weight="400" stroke-width=".05">VX</tspan></tspan></text>
     <text id="text51" transform="rotate(-.3)" x="192.2793" y="73.465439" style="line-height:125%" xml:space="preserve"><tspan id="tspan51" x="192.2793" y="73.465439" stroke-width=".05" sodipodi:role="line"><tspan id="tspan50" dx="0" dy="0" fill="#00ffff" font-family="Garamond" font-size="9.6332px" font-weight="400" stroke-width=".05">VD</tspan></tspan></text>
    </g>
   </g>
   <g fill="none" stroke-linecap="round" stroke-linejoin="round" stroke-width=".05">
    <path id="path51" d="m19.346 73.046-0.66948 1.3344-3.5837-2.5902z" stroke="#212830"/>
    <path id="path52" d="m217.27 146.16h-276.93" stroke="#0ff"/>
    <path id="path53" d="m101.97 141.8-0.11786-1.8838-0.1966-1.8838-0.27598-1.8838-0.3153-1.8838" stroke="#212830"/>
    <path id="path54" d="m100.12 129.8-0.43326-1.6484-0.47258-1.6875-0.51192-1.6483-0.59056-1.6091-0.59054-1.6483-0.62988-1.6091" stroke="#212830"/>
   </g>
   <path id="path55" d="m102.72 141.77-1.4571 0.0364 0.86638 4.3563z" fill="#212830" fill-rule="evenodd"/>
   <path id="path56" d="m102.72 141.77-1.4571 0.0364 0.86638 4.3563z" fill="none" stroke="#212830" stroke-linecap="round" stroke-linejoin="round" stroke-width=".05"/>
   <path id="path57" d="m96.217 120.26 1.3389-0.58837-2.481-3.6891z" fill="#212830" fill-rule="evenodd"/>
   <text id="text58" x="90.192162" y="134.19121" fill="#000000" font-family="Arial" font-size="6.1412px" font-weight="400" letter-spacing="0px" stroke-width=".05" word-spacing="0px" style="line-height:125%" xml:space="preserve"><tspan id="tspan58" x="90.192162" y="134.19121" stroke-width=".05" sodipodi:role="line"><tspan id="tspan57" dx="0" dy="0" fill="#212830" font-family="Arial" font-size="6.1412px" font-weight="400" stroke-width=".05">26.300°</tspan></tspan></text>
   <path id="path58" d="m96.217 120.26 1.3389-0.58837-2.481-3.6891z" fill="none" stroke="#212830" stroke-linecap="round" stroke-linejoin="round" stroke-width=".05"/>
  </g>
 </g>
 <metadata id="metadata1">
  <rdf:RDF>
   <cc:Work rdf:about="">
    <dc:title>Movimiento:  concepto según Aristóteles, y la Entrada a la Gran pirámide de Keops</dc:title>
    <dc:date>01-09-2024</dc:date>
    <dc:creator>
     <cc:Agent>
      <dc:title>ISAN atelier</dc:title>
     </cc:Agent>
    </dc:creator>
    <dc:rights>
     <cc:Agent>
      <dc:title>Movimiento: concepto según Aristóteles, y la Entrada a la Gran pirámide de Keops. © 2024 by ISAN atelier is licensed under Creative Commons Attribution-NoDerivatives 4.0 International</dc:title>
     </cc:Agent>
    </dc:rights>
    <dc:publisher>
     <cc:Agent>
      <dc:title>ISAN atelelier</dc:title>
     </cc:Agent>
    </dc:publisher>
    <dc:source>ISAN atelier</dc:source>
    <dc:relation>En búsqueda de las claves sacras de la ciudad de Washington D.C. Decodificando sus secretos</dc:relation>
    <dc:language>Español</dc:language>
    <dc:subject>
     <rdf:Bag>
      <rdf:li>arquitectura</rdf:li>
      <rdf:li>sagrado</rdf:li>
      <rdf:li>geometria</rdf:li>
     </rdf:Bag>
    </dc:subject>
    <dc:coverage>global</dc:coverage>
    <dc:description>estudios geosmetricos sagrados</dc:description>
    <cc:license rdf:resource="http://creativecommons.org/licenses/by-nd/4.0/"/>
   </cc:Work>
   <cc:License rdf:about="http://creativecommons.org/licenses/by-nd/4.0/">
    <cc:permits rdf:resource="http://creativecommons.org/ns#Reproduction"/>
    <cc:permits rdf:resource="http://creativecommons.org/ns#Distribution"/>
    <cc:requires rdf:resource="http://creativecommons.org/ns#Notice"/>
    <cc:requires rdf:resource="http://creativecommons.org/ns#Attribution"/>
   </cc:License>
  </rdf:RDF>
 </metadata>
</svg>
