<?xml version="1.0" encoding="UTF-8" standalone="no"?>
<!-- Created with Inkscape (http://www.inkscape.org/) -->

<svg
   width="210mm"
   height="110mm"
   viewBox="0 0 210 110"
   version="1.1"
   id="svg1"
   xml:space="preserve"
   inkscape:version="1.4.3 (0d15f75, 2025-12-25)"
   sodipodi:docname="Estudio Geometrico_0.773_dentro_The_Son - Jomard.svg"
   xmlns:inkscape="http://www.inkscape.org/namespaces/inkscape"
   xmlns:sodipodi="http://sodipodi.sourceforge.net/DTD/sodipodi-0.dtd"
   xmlns="http://www.w3.org/2000/svg"
   xmlns:svg="http://www.w3.org/2000/svg"><sodipodi:namedview
     id="namedview1"
     pagecolor="#ffffff"
     bordercolor="#000000"
     borderopacity="0.25"
     inkscape:showpageshadow="2"
     inkscape:pageopacity="0.0"
     inkscape:pagecheckerboard="0"
     inkscape:deskcolor="#d1d1d1"
     inkscape:document-units="mm"
     inkscape:zoom="0.74208053"
     inkscape:cx="397.53098"
     inkscape:cy="561.25984"
     inkscape:window-width="1920"
     inkscape:window-height="1051"
     inkscape:window-x="-9"
     inkscape:window-y="-9"
     inkscape:window-maximized="1"
     inkscape:current-layer="layer1" /><defs
     id="defs1"><pattern
       id="WMFhbasepattern"
       patternUnits="userSpaceOnUse"
       width="6"
       height="6"
       x="0"
       y="0" /><pattern
       id="WMFhbasepattern-9"
       patternUnits="userSpaceOnUse"
       width="6"
       height="6"
       x="0"
       y="0" /></defs><g
     inkscape:label="Capa 1"
     inkscape:groupmode="layer"
     id="layer1"><rect
       style="fill:#ffffff;stroke-width:0.2;stroke-dasharray:none"
       id="rect2"
       width="208.57744"
       height="107.31933"
       x="0.35654262"
       y="1.0696279" /><g
       id="g2"><g
         id="g1"
         transform="matrix(0.3274166,0,0,0.3274166,-143.79362,-147.54556)"
         style="stroke-width:0.61084258;stroke-dasharray:none"><path
           style="fill:none;stroke:#7f3f00;stroke-width:0.61084258;stroke-linecap:round;stroke-linejoin:round;stroke-miterlimit:4;stroke-dasharray:none;stroke-opacity:1"
           d="m 820.57702,643.64597 142.56821,82.33936"
           id="path1" /><path
           style="fill:none;stroke:#00a5a5;stroke-width:0.61084258;stroke-linecap:round;stroke-linejoin:round;stroke-miterlimit:4;stroke-dasharray:none;stroke-opacity:1"
           d="m 1000.7002,643.64597 -0.047,-3.52079 -0.1878,-3.52078 -0.2816,-3.52078 -0.37559,-3.52078 -0.51638,-3.47384 -0.65721,-3.47384 -0.70416,-3.4269 -0.84499,-3.42689 -0.98581,-3.4269 -1.07971,-3.333 -1.1736,-3.33301 -1.26748,-3.28606 -1.40831,-3.23912 -1.45526,-3.19218 -1.59608,-3.14523 -1.68998,-3.09829 -1.83081,-3.05135 -1.87775,-2.95745 -1.97164,-2.91052 -2.11247,-2.86357 -2.15941,-2.76968 -2.2533,-2.72274 -2.34719,-2.62885 -2.44107,-2.53496 -2.53497,-2.48802 -2.5819,-2.39413 -2.6758,-2.30025 -2.72274,-2.20635 -2.81662,-2.11247 -2.86357,-2.06553 -2.95746,-1.92469 -3.0044,-1.87775 -3.05135,-1.73692 -3.14523,-1.64303 -3.14523,-1.54915 -3.23912,-1.40831 -3.23912,-1.36137 -3.28606,-1.22054 -3.37995,-1.12665 -3.37996,-1.03276 -3.37995,-0.89193 -3.42689,-0.79805 -3.47384,-0.65721 -3.47384,-0.56333 -3.52078,-0.46943 -3.47384,-0.32861 -3.52078,-0.23472 -3.52078,-0.14083 h -3.56773 l -3.52078,0.14083 -3.52079,0.23472 -3.47383,0.32861 -3.52079,0.46943 -3.47383,0.56333 -3.47384,0.65721 -3.4269,0.79805 -3.37995,0.89193 -3.37995,1.03276 -3.37995,1.12665 -3.28607,1.22054 -3.23911,1.36137 -3.23912,1.40831 -3.14524,1.54915 -3.14523,1.64303 -3.05134,1.73692 -3.0044,1.87775 -2.95746,1.92469 -2.86357,2.06553 -2.81663,2.11247 -2.72274,2.20635 -2.67579,2.30025 -2.58191,2.39413 -2.53496,2.48802 -2.44108,2.53496 -2.34719,2.62885 -2.2533,2.72274 -2.15941,2.76968 -2.11247,2.86357 -1.97164,2.91052 -1.87775,2.95745 -1.8308,3.05135 -1.68998,3.09829 -1.59609,3.14523 -1.45525,3.19218 -1.40832,3.23912 -1.26748,3.28606 -1.17359,3.33301 -1.07971,3.333 -0.98582,3.4269 -0.84499,3.42689 -0.70415,3.4269 -0.65722,3.47384 -0.51638,3.47384 -0.37555,3.52078 -0.28166,3.52078 -0.18778,3.52078 -0.0469,3.52079 0.0469,3.52078 0.18778,3.52078 0.28166,3.52078 0.37555,3.52079 0.51638,3.47383 0.65722,3.47384 0.70415,3.4269 0.84499,3.42689 0.98582,3.4269 1.07971,3.333 1.17359,3.33301 1.26748,3.28607 1.40832,3.23912 1.45525,3.19217 1.59609,3.14523 1.68998,3.09829 1.8308,3.05135 1.87775,2.95745 1.97164,2.91052 2.11247,2.86357 2.15941,2.76968 2.2533,2.72274 2.34719,2.62885 2.44108,2.53496 2.53496,2.48802 2.58191,2.39413 2.67579,2.30025 2.72274,2.20635 2.81663,2.11247 2.86357,2.06553 2.95746,1.92469 3.0044,1.87776 3.05134,1.73691 3.14523,1.64304 3.14524,1.54914 3.23912,1.40831 3.23911,1.36137 3.28607,1.22054 3.37995,1.12665 3.37995,1.03276 3.37995,0.89194 3.4269,0.79804 3.47384,0.65721 3.47383,0.56333 3.52079,0.46943 3.47383,0.32861 3.52079,0.23472 3.52078,0.14083 h 3.56773 l 3.52078,-0.14083 3.52078,-0.23472 3.47384,-0.32861 3.52078,-0.46943 3.47384,-0.56333 3.47384,-0.65721 3.42689,-0.79804 3.37995,-0.89194 3.37996,-1.03276 3.37995,-1.12665 3.28606,-1.22054 3.23912,-1.36137 3.23912,-1.40831 3.14523,-1.54914 3.14523,-1.64304 3.05135,-1.73691 3.0044,-1.87776 2.95746,-1.92469 2.86357,-2.06553 2.81662,-2.11247 2.72274,-2.20635 2.6758,-2.30025 2.5819,-2.39413 2.53497,-2.48802 2.44107,-2.53496 2.34719,-2.62885 2.2533,-2.72274 2.15941,-2.76968 2.11247,-2.86357 1.97164,-2.91052 1.87775,-2.95745 1.83081,-3.05135 1.68998,-3.09829 1.59608,-3.14523 1.45526,-3.19217 1.40831,-3.23912 1.26748,-3.28607 1.1736,-3.33301 1.07971,-3.333 0.98581,-3.4269 0.84499,-3.42689 0.70416,-3.4269 0.65721,-3.47384 0.51638,-3.47383 0.37559,-3.52079 0.2816,-3.52078 0.1878,-3.52078 z"
           id="path2" /><path
           style="fill:none;stroke:#00ff00;stroke-width:0.61084258;stroke-linecap:round;stroke-linejoin:round;stroke-miterlimit:4;stroke-dasharray:none;stroke-opacity:1"
           d="M 820.57702,725.98533 H 963.14523 V 561.3066 H 820.57702 Z"
           id="path3" /><path
           style="fill:none;stroke:#00004c;stroke-width:0.61084258;stroke-linecap:round;stroke-linejoin:round;stroke-miterlimit:4;stroke-dasharray:none;stroke-opacity:1"
           d="M 820.57702,725.98533 H 963.14523 V 643.64597 H 820.57702 Z"
           id="path4" /><path
           style="fill:none;stroke:#ff0000;stroke-width:0.61084258;stroke-linecap:round;stroke-linejoin:round;stroke-miterlimit:4;stroke-dasharray:none;stroke-opacity:1"
           d="M 963.14523,561.3066 H 513.42396 v 164.67873 h 449.72127 z"
           id="path5" /><path
           style="fill:none;stroke:#ff0000;stroke-width:0.61084258;stroke-linecap:round;stroke-linejoin:round;stroke-miterlimit:4;stroke-dasharray:none;stroke-opacity:1"
           d="M 678.0088,725.98533 H 963.14523 V 561.3066 H 678.0088 Z"
           id="path6" /><path
           style="fill:none;stroke:#212830;stroke-width:0.61084258;stroke-linecap:round;stroke-linejoin:round;stroke-miterlimit:4;stroke-dasharray:none;stroke-opacity:1"
           d="M 513.42396,555.57946 V 504.1291"
           id="path7" /><path
           style="fill:none;stroke:#212830;stroke-width:0.61084258;stroke-linecap:round;stroke-linejoin:round;stroke-miterlimit:4;stroke-dasharray:none;stroke-opacity:1"
           d="M 963.14523,555.57946 V 504.1291"
           id="path8" /><path
           style="fill:none;stroke:#212830;stroke-width:0.61084258;stroke-linecap:round;stroke-linejoin:round;stroke-miterlimit:4;stroke-dasharray:none;stroke-opacity:1"
           d="M 521.96773,509.85623 H 705.75257"
           id="path9" /><path
           style="fill:none;stroke:#212830;stroke-width:0.61084258;stroke-linecap:round;stroke-linejoin:round;stroke-miterlimit:4;stroke-dasharray:none;stroke-opacity:1"
           d="M 954.60147,509.85623 H 770.81663"
           id="path10" /><path
           style="fill:#212830;fill-opacity:1;fill-rule:evenodd;stroke:none;stroke-width:0.61084258;stroke-dasharray:none"
           d="m 521.96773,508.44792 v 2.81663 l -8.54377,-1.40832 z"
           id="path11" /><path
           style="fill:#212830;fill-opacity:1;fill-rule:evenodd;stroke:none;stroke-width:0.61084258;stroke-dasharray:none"
           d="m 954.60147,508.44792 v 2.81663 l 8.54376,-1.40832 z"
           id="path12" /><text
           xml:space="preserve"
           style="font-style:normal;font-variant:normal;font-weight:400;font-size:10.75px;line-height:125%;font-family:Arial;text-align:start;letter-spacing:0px;word-spacing:0px;text-anchor:start;fill:#000000;fill-opacity:1;stroke:none;stroke-width:0.61084258;stroke-dasharray:none"
           transform="translate(710.25917,513.65868)"
           x="0"
           y="0"
           id="text13"><tspan
             sodipodi:role="line"
             x="0"
             y="0"
             id="tspan13"><tspan
               dx="0"
               dy="0"
               style="font-style:normal;font-variant:normal;font-weight:400;font-size:10.75px;font-family:Arial;fill:#212830;stroke-width:0.61084258;stroke-dasharray:none"
               id="tspan12">1.57714881</tspan></tspan></text><path
           style="fill:none;stroke:#212830;stroke-width:0.61084258;stroke-linecap:round;stroke-linejoin:round;stroke-miterlimit:4;stroke-dasharray:none;stroke-opacity:1"
           d="M 507.69682,725.98533 H 468.12323"
           id="path13" /><path
           style="fill:none;stroke:#212830;stroke-width:0.61084258;stroke-linecap:round;stroke-linejoin:round;stroke-miterlimit:4;stroke-dasharray:none;stroke-opacity:1"
           d="M 507.69682,561.3066 H 468.12323"
           id="path14" /><path
           style="fill:none;stroke:#212830;stroke-width:0.61084258;stroke-linecap:round;stroke-linejoin:round;stroke-miterlimit:4;stroke-dasharray:none;stroke-opacity:1"
           d="M 473.80342,717.44156 V 653.26944"
           id="path15" /><path
           style="fill:none;stroke:#212830;stroke-width:0.61084258;stroke-linecap:round;stroke-linejoin:round;stroke-miterlimit:4;stroke-dasharray:none;stroke-opacity:1"
           d="m 473.80342,569.85037 v 64.17212"
           id="path16" /><path
           style="fill:#212830;fill-opacity:1;fill-rule:evenodd;stroke:none;stroke-width:0.61084258;stroke-dasharray:none"
           d="m 472.39511,717.44156 h 2.81663 l -1.40832,8.54377 z"
           id="path17" /><path
           style="fill:#212830;fill-opacity:1;fill-rule:evenodd;stroke:none;stroke-width:0.61084258;stroke-dasharray:none"
           d="m 472.39511,569.85037 h 2.81663 l -1.40832,-8.54377 z"
           id="path18" /><text
           xml:space="preserve"
           style="font-style:normal;font-variant:normal;font-weight:400;font-size:10.75px;line-height:125%;font-family:Arial;text-align:start;letter-spacing:0px;word-spacing:0px;text-anchor:start;fill:#000000;fill-opacity:1;stroke:none;stroke-width:0.61084258;stroke-dasharray:none"
           transform="translate(446.15354,647.44841)"
           x="0"
           y="0"
           id="text19"><tspan
             sodipodi:role="line"
             x="0"
             y="0"
             id="tspan19"><tspan
               dx="0"
               dy="0"
               style="font-style:normal;font-variant:normal;font-weight:400;font-size:10.75px;font-family:Arial;fill:#212830;stroke-width:0.61084258;stroke-dasharray:none"
               id="tspan18">0.57714881</tspan></tspan></text><path
           style="fill:none;stroke:#212830;stroke-width:0.61084258;stroke-linecap:round;stroke-linejoin:round;stroke-miterlimit:4;stroke-dasharray:none;stroke-opacity:1"
           d="m 678.0088,731.71247 v 47.03765"
           id="path19" /><path
           style="fill:none;stroke:#212830;stroke-width:0.61084258;stroke-linecap:round;stroke-linejoin:round;stroke-miterlimit:4;stroke-dasharray:none;stroke-opacity:1"
           d="m 963.14523,731.71247 v 47.03765"
           id="path20" /><path
           style="fill:none;stroke:#212830;stroke-width:0.61084258;stroke-linecap:round;stroke-linejoin:round;stroke-miterlimit:4;stroke-dasharray:none;stroke-opacity:1"
           d="M 686.55257,773.02298 H 805.22641"
           id="path21" /><path
           style="fill:none;stroke:#212830;stroke-width:0.61084258;stroke-linecap:round;stroke-linejoin:round;stroke-miterlimit:4;stroke-dasharray:none;stroke-opacity:1"
           d="M 954.60147,773.02298 H 835.88068"
           id="path22" /><path
           style="fill:#212830;fill-opacity:1;fill-rule:evenodd;stroke:none;stroke-width:0.61084258;stroke-dasharray:none"
           d="m 686.55257,771.61467 v 2.81663 l -8.54377,-1.40832 z"
           id="path23" /><path
           style="fill:#212830;fill-opacity:1;fill-rule:evenodd;stroke:none;stroke-width:0.61084258;stroke-dasharray:none"
           d="m 954.60147,771.61467 v 2.81663 l 8.54376,-1.40832 z"
           id="path24" /><text
           xml:space="preserve"
           style="font-style:normal;font-variant:normal;font-weight:400;font-size:10.75px;line-height:125%;font-family:Arial;text-align:start;letter-spacing:0px;word-spacing:0px;text-anchor:start;fill:#000000;fill-opacity:1;stroke:none;stroke-width:0.61084258;stroke-dasharray:none"
           transform="translate(809.73301,776.82543)"
           x="0"
           y="0"
           id="text25"><tspan
             sodipodi:role="line"
             x="0"
             y="0"
             id="tspan25"><tspan
               dx="0"
               dy="0"
               style="font-style:normal;font-variant:normal;font-weight:400;font-size:10.75px;font-family:Arial;fill:#212830;stroke-width:0.61084258;stroke-dasharray:none"
               id="tspan24">1.00</tspan></tspan></text><path
           style="fill:none;stroke:#212830;stroke-width:0.61084258;stroke-linecap:round;stroke-linejoin:round;stroke-miterlimit:4;stroke-dasharray:none;stroke-opacity:1"
           d="m 513.42396,731.71247 v 47.03765"
           id="path25" /><path
           style="fill:none;stroke:#212830;stroke-width:0.61084258;stroke-linecap:round;stroke-linejoin:round;stroke-miterlimit:4;stroke-dasharray:none;stroke-opacity:1"
           d="m 678.0088,731.71247 v 47.03765"
           id="path26" /><path
           style="fill:none;stroke:#212830;stroke-width:0.61084258;stroke-linecap:round;stroke-linejoin:round;stroke-miterlimit:4;stroke-dasharray:none;stroke-opacity:1"
           d="M 521.96773,773.02298 H 562.8088"
           id="path27" /><path
           style="fill:none;stroke:#212830;stroke-width:0.61084258;stroke-linecap:round;stroke-linejoin:round;stroke-miterlimit:4;stroke-dasharray:none;stroke-opacity:1"
           d="M 669.41809,773.02298 H 628.62396"
           id="path28" /><path
           style="fill:#212830;fill-opacity:1;fill-rule:evenodd;stroke:none;stroke-width:0.61084258;stroke-dasharray:none"
           d="m 521.96773,771.61467 v 2.81663 l -8.54377,-1.40832 z"
           id="path29" /><path
           style="fill:#212830;fill-opacity:1;fill-rule:evenodd;stroke:none;stroke-width:0.61084258;stroke-dasharray:none"
           d="m 669.41809,771.61467 v 2.81663 l 8.59071,-1.40832 z"
           id="path30" /><text
           xml:space="preserve"
           style="font-style:normal;font-variant:normal;font-weight:400;font-size:10.75px;line-height:125%;font-family:Arial;text-align:start;letter-spacing:0px;word-spacing:0px;text-anchor:start;fill:#000000;fill-opacity:1;stroke:none;stroke-width:0.61084258;stroke-dasharray:none"
           transform="translate(568.01956,776.82543)"
           x="0"
           y="0"
           id="text31"><tspan
             sodipodi:role="line"
             x="0"
             y="0"
             id="tspan31"><tspan
               dx="0"
               dy="0"
               style="font-style:normal;font-variant:normal;font-weight:400;font-size:10.75px;font-family:Arial;fill:#212830;stroke-width:0.61084258;stroke-dasharray:none"
               id="tspan30">0.57714881</tspan></tspan></text><path
           style="fill:none;stroke:#212830;stroke-width:0.61084258;stroke-linecap:round;stroke-linejoin:round;stroke-miterlimit:4;stroke-dasharray:none;stroke-opacity:1"
           d="M 820.57702,637.91883 V 614.68166"
           id="path31" /><path
           style="fill:none;stroke:#212830;stroke-width:0.61084258;stroke-linecap:round;stroke-linejoin:round;stroke-miterlimit:4;stroke-dasharray:none;stroke-opacity:1"
           d="M 963.14523,637.91883 V 614.68166"
           id="path32" /><path
           style="fill:none;stroke:#212830;stroke-width:0.61084258;stroke-linecap:round;stroke-linejoin:round;stroke-miterlimit:4;stroke-dasharray:none;stroke-opacity:1"
           d="m 829.12078,620.36186 h 47.03766"
           id="path33" /><path
           style="fill:none;stroke:#212830;stroke-width:0.61084258;stroke-linecap:round;stroke-linejoin:round;stroke-miterlimit:4;stroke-dasharray:none;stroke-opacity:1"
           d="M 954.60147,620.36186 H 907.56381"
           id="path34" /><path
           style="fill:#212830;fill-opacity:1;fill-rule:evenodd;stroke:none;stroke-width:0.61084258;stroke-dasharray:none"
           d="m 829.12078,618.95355 v 2.86356 l -8.54376,-1.45525 z"
           id="path35" /><path
           style="fill:#212830;fill-opacity:1;fill-rule:evenodd;stroke:none;stroke-width:0.61084258;stroke-dasharray:none"
           d="m 954.60147,618.95355 v 2.86356 l 8.54376,-1.45525 z"
           id="path36" /><text
           xml:space="preserve"
           style="font-style:normal;font-variant:normal;font-weight:400;font-size:10.75px;line-height:125%;font-family:Arial;text-align:start;letter-spacing:0px;word-spacing:0px;text-anchor:start;fill:#000000;fill-opacity:1;stroke:none;stroke-width:0.61084258;stroke-dasharray:none"
           transform="translate(881.41614,624.21125)"
           x="0"
           y="0"
           id="text37"><tspan
             sodipodi:role="line"
             x="0"
             y="0"
             id="tspan37"><tspan
               dx="0"
               dy="0"
               style="font-style:normal;font-variant:normal;font-weight:400;font-size:10.75px;font-family:Arial;fill:#212830;stroke-width:0.61084258;stroke-dasharray:none"
               id="tspan36">0.50</tspan></tspan></text><path
           style="fill:none;stroke:#212830;stroke-width:0.61084258;stroke-linecap:round;stroke-linejoin:round;stroke-miterlimit:4;stroke-dasharray:none;stroke-opacity:1"
           d="m 968.82543,725.98533 h 54.22007"
           id="path37" /><path
           style="fill:none;stroke:#212830;stroke-width:0.61084258;stroke-linecap:round;stroke-linejoin:round;stroke-miterlimit:4;stroke-dasharray:none;stroke-opacity:1"
           d="m 968.82543,643.64597 h 54.22007"
           id="path38" /><path
           style="fill:none;stroke:#212830;stroke-width:0.61084258;stroke-linecap:round;stroke-linejoin:round;stroke-miterlimit:4;stroke-dasharray:none;stroke-opacity:1"
           d="M 1017.3653,717.44156 V 694.43912"
           id="path39" /><path
           style="fill:none;stroke:#212830;stroke-width:0.61084258;stroke-linecap:round;stroke-linejoin:round;stroke-miterlimit:4;stroke-dasharray:none;stroke-opacity:1"
           d="m 1017.3653,652.18973 v 23.00245"
           id="path40" /><path
           style="fill:#212830;fill-opacity:1;fill-rule:evenodd;stroke:none;stroke-width:0.61084258;stroke-dasharray:none"
           d="m 1015.957,717.44156 h 2.8166 l -1.4083,8.54377 z"
           id="path41" /><path
           style="fill:#212830;fill-opacity:1;fill-rule:evenodd;stroke:none;stroke-width:0.61084258;stroke-dasharray:none"
           d="m 1015.957,652.18973 h 2.8166 l -1.4083,-8.54376 z"
           id="path42" /><text
           xml:space="preserve"
           style="font-style:normal;font-variant:normal;font-weight:400;font-size:10.75px;line-height:125%;font-family:Arial;text-align:start;letter-spacing:0px;word-spacing:0px;text-anchor:start;fill:#000000;fill-opacity:1;stroke:none;stroke-width:0.61084258;stroke-dasharray:none"
           transform="translate(1006.8968,688.61809)"
           x="0"
           y="0"
           id="text43"><tspan
             sodipodi:role="line"
             x="0"
             y="0"
             id="tspan43"><tspan
               dx="0"
               dy="0"
               style="font-style:normal;font-variant:normal;font-weight:400;font-size:10.75px;font-family:Arial;fill:#212830;stroke-width:0.61084258;stroke-dasharray:none"
               id="tspan42">0.29</tspan></tspan></text><path
           style="fill:none;stroke:#212830;stroke-width:0.61084258;stroke-linecap:round;stroke-linejoin:round;stroke-miterlimit:4;stroke-dasharray:none;stroke-opacity:1"
           d="M 823.44059,638.71687 928.12518,457.13839"
           id="path43" /><path
           style="fill:none;stroke:#212830;stroke-width:0.61084258;stroke-linecap:round;stroke-linejoin:round;stroke-miterlimit:4;stroke-dasharray:none;stroke-opacity:1"
           d="M 966.0088,721.05623 1070.6934,539.47775"
           id="path44" /><path
           style="fill:none;stroke:#212830;stroke-width:0.61084258;stroke-linecap:round;stroke-linejoin:round;stroke-miterlimit:4;stroke-dasharray:none;stroke-opacity:1"
           d="m 932.67873,466.38631 47.17848,27.22738"
           id="path45" /><path
           style="fill:none;stroke:#212830;stroke-width:0.61084258;stroke-linecap:round;stroke-linejoin:round;stroke-miterlimit:4;stroke-dasharray:none;stroke-opacity:1"
           d="m 1060.4597,540.18191 -47.1785,-27.27433"
           id="path46" /><path
           style="fill:#212830;fill-opacity:1;fill-rule:evenodd;stroke:none;stroke-width:0.61084258;stroke-dasharray:none"
           d="m 933.38289,465.11883 -1.40832,2.48802 -6.71296,-5.49242 z"
           id="path47" /><path
           style="fill:#212830;fill-opacity:1;fill-rule:evenodd;stroke:none;stroke-width:0.61084258;stroke-dasharray:none"
           d="m 1061.1638,538.91443 -1.4552,2.48801 8.1212,3.05135 z"
           id="path48" /><text
           xml:space="preserve"
           style="font-style:normal;font-variant:normal;font-weight:400;font-size:10.75px;line-height:125%;font-family:Arial;text-align:start;letter-spacing:0px;word-spacing:0px;text-anchor:start;fill:#000000;fill-opacity:1;stroke:none;stroke-width:0.61084258;stroke-dasharray:none"
           transform="translate(980.09193,507.08655)"
           x="0"
           y="0"
           id="text49"><tspan
             sodipodi:role="line"
             x="0"
             y="0"
             id="tspan49"><tspan
               dx="0"
               dy="0"
               style="font-style:normal;font-variant:normal;font-weight:400;font-size:10.75px;font-family:Arial;fill:#212830;stroke-width:0.61084258;stroke-dasharray:none"
               id="tspan48">0.5773</tspan></tspan></text><text
           xml:space="preserve"
           style="font-style:normal;font-variant:normal;font-weight:400;font-size:15.9375px;line-height:125%;font-family:Arial;text-align:start;letter-spacing:0px;word-spacing:0px;text-anchor:start;fill:#000000;fill-opacity:1;stroke:none;stroke-width:0.61084258;stroke-dasharray:none"
           transform="translate(1025.909,774.66602)"
           x="0"
           y="0"
           id="text51"><tspan
             sodipodi:role="line"
             x="0"
             y="0"
             id="tspan51"><tspan
               dx="0"
               dy="0"
               style="font-style:normal;font-variant:normal;font-weight:400;font-size:15.9375px;font-family:Arial;fill:#212830;stroke-width:0.61084258;stroke-dasharray:none"
               id="tspan50">R0.382</tspan></tspan></text><path
           style="fill:none;stroke:#212830;stroke-width:0.61084258;stroke-linecap:round;stroke-linejoin:round;stroke-miterlimit:4;stroke-dasharray:none;stroke-opacity:1"
           d="m 1021.4963,769.03276 h -19.1061 l -32.86062,-37.27335"
           id="path51" /><path
           style="fill:#212830;fill-opacity:1;fill-rule:evenodd;stroke:none;stroke-width:0.61084258;stroke-dasharray:none"
           d="m 970.60929,730.82054 -2.15941,1.87775 -4.55355,-7.37017 z"
           id="path52" /></g></g></g></svg>
