<?xml version="1.0" encoding="UTF-8" standalone="no"?>
<!-- Created with Inkscape (http://www.inkscape.org/) -->

<svg
   width="210mm"
   height="230mm"
   viewBox="0 0 210 230"
   version="1.1"
   id="svg1"
   xml:space="preserve"
   inkscape:export-filename="..\ISAN_atelier_academiae_Metabase\ISANatelierVault\Proyecto Operador ISAN atelier academiae C.A\Webpage\quartz-obsidian\quartz\content\imagenes\Lapis-Insaniae-imago\Keops_Historia.svg"
   inkscape:export-xdpi="96"
   inkscape:export-ydpi="96"
   inkscape:version="1.3 (0e150ed6c4, 2023-07-21)"
   sodipodi:docname="Keops_Historia.svg"
   xmlns:inkscape="http://www.inkscape.org/namespaces/inkscape"
   xmlns:sodipodi="http://sodipodi.sourceforge.net/DTD/sodipodi-0.dtd"
   xmlns="http://www.w3.org/2000/svg"
   xmlns:svg="http://www.w3.org/2000/svg"><sodipodi:namedview
     id="namedview1"
     pagecolor="#ffffff"
     bordercolor="#000000"
     borderopacity="0.25"
     inkscape:showpageshadow="2"
     inkscape:pageopacity="0.0"
     inkscape:pagecheckerboard="0"
     inkscape:deskcolor="#d1d1d1"
     inkscape:document-units="mm"
     inkscape:zoom="0.74564394"
     inkscape:cx="396.30175"
     inkscape:cy="561.25984"
     inkscape:window-width="1920"
     inkscape:window-height="1051"
     inkscape:window-x="-9"
     inkscape:window-y="-9"
     inkscape:window-maximized="1"
     inkscape:current-layer="layer1" /><defs
     id="defs1"><pattern
       id="WMFhbasepattern"
       patternUnits="userSpaceOnUse"
       width="6"
       height="6"
       x="0"
       y="0" /><pattern
       id="WMFhbasepattern-5"
       patternUnits="userSpaceOnUse"
       width="6"
       height="6"
       x="0"
       y="0" /></defs><g
     inkscape:label="Capa 1"
     inkscape:groupmode="layer"
     id="layer1"><rect
       style="fill:#ffffff;stroke-width:0.15;stroke-dasharray:none"
       id="rect1"
       width="209.35484"
       height="229.93547"
       x="0.3548387"
       y="0.3548387" /><g
       id="g1"
       transform="matrix(0.91015405,0,0,0.91015405,-594.62503,-268.93241)"
       style="stroke-width:0.164807;stroke-dasharray:none"><path
         style="fill:none;stroke:#00ffff;stroke-width:0.164807;stroke-linecap:round;stroke-linejoin:round;stroke-miterlimit:4;stroke-dasharray:none;stroke-opacity:1"
         d="m 878.59951,428.4088 -0.0469,-3.14523 -0.18778,-3.14523 -0.28166,-3.09829 -0.37555,-3.09829 -0.51638,-3.09829 -0.65721,-3.09829 -0.70416,-3.05134 -0.84499,-3.0044 -0.98582,-3.0044 -1.0797,-2.91052 -1.1736,-2.91051 -1.26748,-2.86357 -1.36137,-2.81663 -1.5022,-2.76968 -1.54914,-2.72274 -1.68998,-2.62885 -1.78386,-2.5819 -1.87775,-2.53497 -1.97164,-2.44107 -2.01858,-2.39414 -2.15942,-2.2533 -2.20635,-2.2533 -2.30025,-2.11247 -2.34719,-2.06552 -2.44107,-1.97164 -2.53497,-1.87775 -2.5819,-1.73692 -2.62885,-1.68998 -2.72274,-1.59608 -2.76968,-1.5022 -2.81663,-1.36137 -2.81663,-1.26749 -2.91051,-1.17359 -2.95746,-1.07971 -3.0044,-0.93887 -3.0044,-0.89193 -3.05134,-0.70416 -3.05135,-0.65721 -3.09829,-0.51638 -3.09829,-0.37555 -3.14523,-0.28167 -3.09829,-0.18777 -3.14523,-0.0469 -3.14523,0.0469 -3.09829,0.18777 -3.14523,0.28167 -3.09829,0.37555 -3.09829,0.51638 -3.05134,0.65721 -3.05135,0.70416 -3.0044,0.89193 -3.0044,0.93887 -2.95746,1.07971 -2.91051,1.17359 -2.81663,1.26749 -2.81662,1.36137 -2.76968,1.5022 -2.72274,1.59608 -2.62885,1.68998 -2.58191,1.73692 -2.53496,1.87775 -2.44108,1.97164 -2.34719,2.06552 -2.30024,2.11247 -2.20636,2.2533 -2.15941,2.2533 -2.01858,2.39414 -1.97164,2.44107 -1.87775,2.53497 -1.78387,2.5819 -1.68997,2.62885 -1.54915,2.72274 -1.5022,2.76968 -1.36137,2.81663 -1.26748,2.86357 -1.17359,2.91051 -1.07971,2.91052 -0.98582,3.0044 -0.84499,3.0044 -0.70415,3.05134 -0.65721,3.09829 -0.51639,3.09829 -0.37555,3.09829 -0.28166,3.09829 -0.18777,3.14523 -0.0469,3.14523 0.0469,3.14523 0.18777,3.14524 0.28166,3.09829 0.37555,3.09828 0.51639,3.09829 0.65721,3.09829 0.70415,3.05135 0.84499,3.0044 0.98582,3.0044 1.07971,2.91051 1.17359,2.91051 1.26748,2.86357 1.36137,2.81663 1.5022,2.76968 1.54915,2.72274 1.68997,2.62885 1.78387,2.58191 1.87775,2.53496 1.97164,2.44108 2.01858,2.39413 2.15941,2.2533 2.20636,2.2533 2.30024,2.11247 2.34719,2.06553 2.44108,1.97163 2.53496,1.87775 2.58191,1.73692 2.62885,1.68998 2.72274,1.59609 2.76968,1.5022 2.81662,1.36137 2.81663,1.26748 2.91051,1.17359 2.95746,1.07971 3.0044,0.93887 3.0044,0.89194 3.05135,0.70415 3.05134,0.65722 3.09829,0.51638 3.09829,0.37555 3.14523,0.28166 3.09829,0.18777 3.14523,0.047 3.14523,-0.047 3.09829,-0.18777 3.14523,-0.28166 3.09829,-0.37555 3.09829,-0.51638 3.05135,-0.65722 3.05134,-0.70415 3.0044,-0.89194 3.0044,-0.93887 2.95746,-1.07971 2.91051,-1.17359 2.81663,-1.26748 2.81663,-1.36137 2.76968,-1.5022 2.72274,-1.59609 2.62885,-1.68998 2.5819,-1.73692 2.53497,-1.87775 2.44107,-1.97163 2.34719,-2.06553 2.30025,-2.11247 2.20635,-2.2533 2.15942,-2.2533 2.01858,-2.39413 1.97164,-2.44108 1.87775,-2.53496 1.78386,-2.58191 1.68998,-2.62885 1.54914,-2.72274 1.5022,-2.76968 1.36137,-2.81663 1.26748,-2.86357 1.1736,-2.91051 1.0797,-2.91051 0.98582,-3.0044 0.84499,-3.0044 0.70416,-3.05135 0.65721,-3.09829 0.51638,-3.09829 0.37555,-3.09828 0.28166,-3.09829 0.18778,-3.14524 z"
         id="path1" /><path
         style="fill:none;stroke:#264c00;stroke-width:0.164807;stroke-linecap:round;stroke-linejoin:round;stroke-miterlimit:4;stroke-dasharray:none;stroke-opacity:1"
         d="m 709.93056,448.68851 15.49144,-15.49144 4.74133,-4.78827"
         id="path2" /><path
         style="fill:none;stroke:#264c00;stroke-width:0.164807;stroke-linecap:round;stroke-linejoin:round;stroke-miterlimit:4;stroke-dasharray:none;stroke-opacity:1"
         d="m 717.62934,448.68851 7.79266,-7.79267 12.4401,-12.48704"
         id="path3" /><path
         style="fill:none;stroke:#264c00;stroke-width:0.164807;stroke-linecap:round;stroke-linejoin:round;stroke-miterlimit:4;stroke-dasharray:none;stroke-opacity:1"
         d="m 725.32812,448.68851 0.0939,-0.0939 20.18582,-20.18582"
         id="path4" /><path
         style="fill:none;stroke:#264c00;stroke-width:0.164807;stroke-linecap:round;stroke-linejoin:round;stroke-miterlimit:4;stroke-dasharray:none;stroke-opacity:1"
         d="M 733.02689,448.68851 753.3066,428.4088"
         id="path5" /><path
         style="fill:none;stroke:#264c00;stroke-width:0.164807;stroke-linecap:round;stroke-linejoin:round;stroke-miterlimit:4;stroke-dasharray:none;stroke-opacity:1"
         d="M 740.72567,448.68851 761.00538,428.4088"
         id="path6" /><path
         style="fill:none;stroke:#264c00;stroke-width:0.164807;stroke-linecap:round;stroke-linejoin:round;stroke-miterlimit:4;stroke-dasharray:none;stroke-opacity:1"
         d="M 748.42445,448.68851 768.70416,428.4088"
         id="path7" /><path
         style="fill:none;stroke:#264c00;stroke-width:0.164807;stroke-linecap:round;stroke-linejoin:round;stroke-miterlimit:4;stroke-dasharray:none;stroke-opacity:1"
         d="M 756.17017,448.68851 776.40293,428.4088"
         id="path8" /><path
         style="fill:none;stroke:#264c00;stroke-width:0.164807;stroke-linecap:round;stroke-linejoin:round;stroke-miterlimit:4;stroke-dasharray:none;stroke-opacity:1"
         d="M 763.86895,448.68851 784.10171,428.4088"
         id="path9" /><path
         style="fill:none;stroke:#264c00;stroke-width:0.164807;stroke-linecap:round;stroke-linejoin:round;stroke-miterlimit:4;stroke-dasharray:none;stroke-opacity:1"
         d="M 771.56773,448.68851 791.80049,428.4088"
         id="path10" /><path
         style="fill:none;stroke:#264c00;stroke-width:0.164807;stroke-linecap:round;stroke-linejoin:round;stroke-miterlimit:4;stroke-dasharray:none;stroke-opacity:1"
         d="M 779.2665,448.68851 799.49927,428.4088"
         id="path11" /><path
         style="fill:none;stroke:#264c00;stroke-width:0.164807;stroke-linecap:round;stroke-linejoin:round;stroke-miterlimit:4;stroke-dasharray:none;stroke-opacity:1"
         d="M 786.96528,448.68851 807.24499,428.4088"
         id="path12" /><path
         style="fill:none;stroke:#264c00;stroke-width:0.164807;stroke-linecap:round;stroke-linejoin:round;stroke-miterlimit:4;stroke-dasharray:none;stroke-opacity:1"
         d="M 794.66406,448.68851 814.94377,428.4088"
         id="path13" /><path
         style="fill:none;stroke:#264c00;stroke-width:0.164807;stroke-linecap:round;stroke-linejoin:round;stroke-miterlimit:4;stroke-dasharray:none;stroke-opacity:1"
         d="m 802.36284,448.68851 20.2797,-20.27971"
         id="path14" /><path
         style="fill:none;stroke:#264c00;stroke-width:0.164807;stroke-linecap:round;stroke-linejoin:round;stroke-miterlimit:4;stroke-dasharray:none;stroke-opacity:1"
         d="M 810.10856,448.68851 830.34132,428.4088"
         id="path15" /><path
         style="fill:none;stroke:#264c00;stroke-width:0.164807;stroke-linecap:round;stroke-linejoin:round;stroke-miterlimit:4;stroke-dasharray:none;stroke-opacity:1"
         d="M 817.80733,448.68851 838.0401,428.4088"
         id="path16" /><path
         style="fill:none;stroke:#264c00;stroke-width:0.164807;stroke-linecap:round;stroke-linejoin:round;stroke-miterlimit:4;stroke-dasharray:none;stroke-opacity:1"
         d="M 825.50611,448.68851 845.73888,428.4088"
         id="path17" /><path
         style="fill:none;stroke:#264c00;stroke-width:0.164807;stroke-linecap:round;stroke-linejoin:round;stroke-miterlimit:4;stroke-dasharray:none;stroke-opacity:1"
         d="M 833.20489,448.68851 853.43765,428.4088"
         id="path18" /><path
         style="fill:none;stroke:#264c00;stroke-width:0.164807;stroke-linecap:round;stroke-linejoin:round;stroke-miterlimit:4;stroke-dasharray:none;stroke-opacity:1"
         d="m 840.90367,448.68851 19.38777,-19.43472 0.37555,-0.37555"
         id="path19" /><path
         style="fill:none;stroke:#264c00;stroke-width:0.164807;stroke-linecap:round;stroke-linejoin:round;stroke-miterlimit:4;stroke-dasharray:none;stroke-opacity:1"
         d="m 848.60244,448.68851 11.689,-11.73594 3.80245,-3.7555"
         id="path20" /><path
         style="fill:none;stroke:#264c00;stroke-width:0.164807;stroke-linecap:round;stroke-linejoin:round;stroke-miterlimit:4;stroke-dasharray:none;stroke-opacity:1"
         d="m 856.30122,448.68851 3.99022,-3.99022 7.1824,-7.1824"
         id="path21" /><path
         style="fill:none;stroke:#264c00;stroke-width:0.164807;stroke-linecap:round;stroke-linejoin:round;stroke-miterlimit:4;stroke-dasharray:none;stroke-opacity:1"
         d="m 864.04694,448.68851 6.80685,-6.85379"
         id="path22" /><path
         style="fill:none;stroke:#264c00;stroke-width:0.164807;stroke-linecap:round;stroke-linejoin:round;stroke-miterlimit:4;stroke-dasharray:none;stroke-opacity:1"
         d="m 871.74572,448.68851 2.48802,-2.53496"
         id="path23" /><path
         style="fill:none;stroke:#ff0000;stroke-width:0.164807;stroke-linecap:round;stroke-linejoin:round;stroke-miterlimit:4;stroke-dasharray:none;stroke-opacity:1"
         d="M 792.83325,342.54866 709.46112,448.68851"
         id="path24" /><path
         style="fill:none;stroke:#ff0000;stroke-width:0.164807;stroke-linecap:round;stroke-linejoin:round;stroke-miterlimit:4;stroke-dasharray:none;stroke-opacity:1"
         d="m 709.46112,448.68851 h 166.7912"
         id="path25" /><path
         style="fill:none;stroke:#ff0000;stroke-width:0.164807;stroke-linecap:round;stroke-linejoin:round;stroke-miterlimit:4;stroke-dasharray:none;stroke-opacity:1"
         d="M 876.25232,448.68851 792.83325,342.54866"
         id="path26" /><path
         style="fill:#264c00;fill-opacity:1;fill-rule:evenodd;stroke:none;stroke-width:0.164807;stroke-dasharray:none"
         d="m 778.42152,360.90367 h 28.87041 v 0 z"
         id="path27" /><path
         style="fill:#264c00;fill-opacity:1;fill-rule:evenodd;stroke:none;stroke-width:0.164807;stroke-dasharray:none"
         d="M 807.29193,360.90367 Z"
         id="path28" /><path
         style="fill:#264c00;fill-opacity:1;fill-rule:evenodd;stroke:none;stroke-width:0.164807;stroke-dasharray:none"
         d="m 778.42152,360.90367 h 28.87041 v 0 z"
         id="path29" /><path
         style="fill:#264c00;fill-opacity:1;fill-rule:evenodd;stroke:none;stroke-width:0.164807;stroke-dasharray:none"
         d="M 807.29193,360.90367 Z"
         id="path30" /><path
         style="fill:#264c00;fill-opacity:1;fill-rule:evenodd;stroke:none;stroke-width:0.164807;stroke-dasharray:none"
         d="m 792.83325,342.54866 v 0 l -14.41173,18.35501 z"
         id="path31" /><path
         style="fill:#264c00;fill-opacity:1;fill-rule:evenodd;stroke:none;stroke-width:0.164807;stroke-dasharray:none"
         d="m 792.83325,342.54866 -14.41173,18.35501 h 28.87041 z"
         id="path32" /><path
         style="fill:#264c00;fill-opacity:1;fill-rule:evenodd;stroke:none;stroke-width:0.164807;stroke-dasharray:none"
         d="m 725.422,428.4088 h 134.86944 v 0 z"
         id="path33" /><path
         style="fill:#264c00;fill-opacity:1;fill-rule:evenodd;stroke:none;stroke-width:0.164807;stroke-dasharray:none"
         d="M 860.29144,428.4088 Z"
         id="path34" /><path
         style="fill:#264c00;fill-opacity:1;fill-rule:evenodd;stroke:none;stroke-width:0.164807;stroke-dasharray:none"
         d="m 778.42152,360.90367 h 28.87041 L 725.422,428.4088 Z"
         id="path35" /><path
         style="fill:#264c00;fill-opacity:1;fill-rule:evenodd;stroke:none;stroke-width:0.164807;stroke-dasharray:none"
         d="M 807.29193,360.90367 725.422,428.4088 h 134.86944 z"
         id="path36" /><path
         style="fill:none;stroke:#264c00;stroke-width:0.164807;stroke-linecap:round;stroke-linejoin:round;stroke-miterlimit:4;stroke-dasharray:none;stroke-opacity:1"
         d="m 778.42152,360.90367 h 28.87041 L 792.83325,342.54866 778.42152,360.90367 725.422,428.4088 h 134.86944 l -52.99951,-67.50513 z"
         id="path37" /><path
         style="fill:none;stroke:#264c00;stroke-width:0.164807;stroke-linecap:round;stroke-linejoin:round;stroke-miterlimit:4;stroke-dasharray:none;stroke-opacity:1"
         d="M 792.83325,342.54866 725.422,428.4088"
         id="path38" /><path
         style="fill:none;stroke:#264c00;stroke-width:0.164807;stroke-linecap:round;stroke-linejoin:round;stroke-miterlimit:4;stroke-dasharray:none;stroke-opacity:1"
         d="M 860.29144,428.4088 792.83325,342.54866"
         id="path39" /><path
         style="fill:none;stroke:#ff00ff;stroke-width:0.164807;stroke-linecap:round;stroke-linejoin:round;stroke-miterlimit:4;stroke-dasharray:none;stroke-opacity:1"
         d="M 860.29144,360.90367 V 495.91394 H 725.422 V 360.90367 Z"
         id="path40" /><path
         style="fill:none;stroke:#212830;stroke-width:0.164807;stroke-linecap:round;stroke-linejoin:round;stroke-miterlimit:4;stroke-dasharray:none;stroke-opacity:1"
         d="M 705.28313,445.3555 657.68215,407.94132"
         id="path41" /><path
         style="fill:none;stroke:#212830;stroke-width:0.164807;stroke-linecap:round;stroke-linejoin:round;stroke-miterlimit:4;stroke-dasharray:none;stroke-opacity:1"
         d="M 788.65526,339.21565 741.10122,301.80147"
         id="path42" /><path
         style="fill:none;stroke:#212830;stroke-width:0.164807;stroke-linecap:round;stroke-linejoin:round;stroke-miterlimit:4;stroke-dasharray:none;stroke-opacity:1"
         d="m 665.28704,405.21858 29.95012,-38.11834"
         id="path43" /><path
         style="fill:none;stroke:#212830;stroke-width:0.164807;stroke-linecap:round;stroke-linejoin:round;stroke-miterlimit:4;stroke-dasharray:none;stroke-opacity:1"
         d="m 740.20929,309.87579 -28.72958,36.52225"
         id="path44" /><path
         style="fill:#212830;fill-opacity:1;fill-rule:evenodd;stroke:none;stroke-width:0.164807;stroke-dasharray:none"
         d="m 664.39511,404.51443 1.83081,1.40831 -5.16382,4.69437 z"
         id="path45" /><path
         style="fill:#212830;fill-opacity:1;fill-rule:evenodd;stroke:none;stroke-width:0.164807;stroke-dasharray:none"
         d="m 739.31736,309.12469 1.78386,1.45526 3.33301,-6.10269 z"
         id="path46" /><text
         xml:space="preserve"
         style="font-style:normal;font-variant:normal;font-weight:400;font-size:7.1875px;line-height:125%;font-family:Arial;text-align:start;letter-spacing:0px;word-spacing:0px;text-anchor:start;fill:#000000;fill-opacity:1;stroke:none;stroke-width:0.164807;stroke-dasharray:none"
         transform="translate(690.12029,359.30758)"
         x="0"
         y="0"
         id="text47"><tspan
           sodipodi:role="line"
           x="0"
           y="0"
           id="tspan47"><tspan
             dx="0"
             dy="0"
             style="font-style:normal;font-variant:normal;font-weight:400;font-size:7.1875px;font-family:Arial;fill:#212830;stroke-width:0.164807;stroke-dasharray:none"
             id="tspan46">1.57390</tspan></tspan></text><path
         style="fill:none;stroke:#212830;stroke-width:0.164807;stroke-linecap:round;stroke-linejoin:round;stroke-miterlimit:4;stroke-dasharray:none;stroke-opacity:1"
         d="m 709.46112,454.0401 v 13.66063"
         id="path47" /><path
         style="fill:none;stroke:#212830;stroke-width:0.164807;stroke-linecap:round;stroke-linejoin:round;stroke-miterlimit:4;stroke-dasharray:none;stroke-opacity:1"
         d="m 876.25232,454.0401 v 13.66063"
         id="path48" /><path
         style="fill:none;stroke:#212830;stroke-width:0.164807;stroke-linecap:round;stroke-linejoin:round;stroke-miterlimit:4;stroke-dasharray:none;stroke-opacity:1"
         d="m 716.31491,463.42885 h 56.37947"
         id="path49" /><path
         style="fill:none;stroke:#212830;stroke-width:0.164807;stroke-linecap:round;stroke-linejoin:round;stroke-miterlimit:4;stroke-dasharray:none;stroke-opacity:1"
         d="M 869.35159,463.42885 H 813.01907"
         id="path50" /><path
         style="fill:#212830;fill-opacity:1;fill-rule:evenodd;stroke:none;stroke-width:0.164807;stroke-dasharray:none"
         d="m 716.31491,462.25526 v 2.30024 l -6.85379,-1.12665 z"
         id="path51" /><path
         style="fill:#212830;fill-opacity:1;fill-rule:evenodd;stroke:none;stroke-width:0.164807;stroke-dasharray:none"
         d="m 869.35159,462.25526 v 2.30024 l 6.90073,-1.12665 z"
         id="path52" /><text
         xml:space="preserve"
         style="font-style:normal;font-variant:normal;font-weight:400;font-size:7.1875px;line-height:125%;font-family:Arial;text-align:start;letter-spacing:0px;word-spacing:0px;text-anchor:start;fill:#000000;fill-opacity:1;stroke:none;stroke-width:0.164807;stroke-dasharray:none"
         transform="translate(779.59511,465.96381)"
         x="0"
         y="0"
         id="text53"><tspan
           sodipodi:role="line"
           x="0"
           y="0"
           id="tspan53"><tspan
             dx="0"
             dy="0"
             style="font-style:normal;font-variant:normal;font-weight:400;font-size:7.1875px;font-family:Arial;fill:#212830;stroke-width:0.164807;stroke-dasharray:none"
             id="tspan52">1.94545</tspan></tspan></text><path
         style="fill:none;stroke:#212830;stroke-width:0.164807;stroke-linecap:round;stroke-linejoin:round;stroke-miterlimit:4;stroke-dasharray:none;stroke-opacity:1"
         d="m 725.422,501.26553 v 40.13691"
         id="path53" /><path
         style="fill:none;stroke:#212830;stroke-width:0.164807;stroke-linecap:round;stroke-linejoin:round;stroke-miterlimit:4;stroke-dasharray:none;stroke-opacity:1"
         d="m 860.29144,501.26553 v 40.13691"
         id="path54" /><path
         style="fill:none;stroke:#212830;stroke-width:0.164807;stroke-linecap:round;stroke-linejoin:round;stroke-miterlimit:4;stroke-dasharray:none;stroke-opacity:1"
         d="m 732.27579,537.08362 h 40.46553"
         id="path55" /><path
         style="fill:none;stroke:#212830;stroke-width:0.164807;stroke-linecap:round;stroke-linejoin:round;stroke-miterlimit:4;stroke-dasharray:none;stroke-opacity:1"
         d="M 853.43765,537.08362 H 812.97213"
         id="path56" /><path
         style="fill:#212830;fill-opacity:1;fill-rule:evenodd;stroke:none;stroke-width:0.164807;stroke-dasharray:none"
         d="m 732.27579,535.95697 v 2.30024 l -6.85379,-1.17359 z"
         id="path57" /><path
         style="fill:#212830;fill-opacity:1;fill-rule:evenodd;stroke:none;stroke-width:0.164807;stroke-dasharray:none"
         d="m 853.43765,535.95697 v 2.30024 l 6.85379,-1.17359 z"
         id="path58" /><text
         xml:space="preserve"
         style="font-style:normal;font-variant:normal;font-weight:400;font-size:7.1875px;line-height:125%;font-family:Arial;text-align:start;letter-spacing:0px;word-spacing:0px;text-anchor:start;fill:#000000;fill-opacity:1;stroke:none;stroke-width:0.164807;stroke-dasharray:none"
         transform="translate(779.64205,539.66553)"
         x="0"
         y="0"
         id="text59"><tspan
           sodipodi:role="line"
           x="0"
           y="0"
           id="tspan59"><tspan
             dx="0"
             dy="0"
             style="font-style:normal;font-variant:normal;font-weight:400;font-size:7.1875px;font-family:Arial;fill:#212830;stroke-width:0.164807;stroke-dasharray:none"
             id="tspan58">1.57390</tspan></tspan></text></g></g></svg>
