<?xml version="1.0" encoding="UTF-8" standalone="no"?>
<!-- Created with Inkscape (http://www.inkscape.org/) -->

<svg
   width="210mm"
   height="130mm"
   viewBox="0 0 210 130"
   version="1.1"
   id="svg1"
   xml:space="preserve"
   inkscape:version="1.4.3 (0d15f75, 2025-12-25)"
   sodipodi:docname="Vesica.svg"
   xmlns:inkscape="http://www.inkscape.org/namespaces/inkscape"
   xmlns:sodipodi="http://sodipodi.sourceforge.net/DTD/sodipodi-0.dtd"
   xmlns="http://www.w3.org/2000/svg"
   xmlns:svg="http://www.w3.org/2000/svg"><sodipodi:namedview
     id="namedview1"
     pagecolor="#ffffff"
     bordercolor="#000000"
     borderopacity="0.25"
     inkscape:showpageshadow="2"
     inkscape:pageopacity="0.0"
     inkscape:pagecheckerboard="0"
     inkscape:deskcolor="#d1d1d1"
     inkscape:document-units="mm"
     inkscape:zoom="0.74208053"
     inkscape:cx="396.18342"
     inkscape:cy="561.25984"
     inkscape:window-width="1920"
     inkscape:window-height="1051"
     inkscape:window-x="-9"
     inkscape:window-y="-9"
     inkscape:window-maximized="1"
     inkscape:current-layer="layer1" /><defs
     id="defs1"><pattern
       id="WMFhbasepattern"
       patternUnits="userSpaceOnUse"
       width="6"
       height="6"
       x="0"
       y="0" /></defs><g
     inkscape:label="Capa 1"
     inkscape:groupmode="layer"
     id="layer1"><rect
       style="fill:#ffffff;stroke-width:0.2;stroke-dasharray:none"
       id="rect1"
       width="208.22089"
       height="129.42497"
       x="1.0696279"
       y="0.71308523" /><g
       id="g1"
       transform="matrix(0.31093136,0,0,0.31093136,-118.55286,-139.58567)"
       style="stroke-width:0.643229;stroke-dasharray:none"><path
         style="fill:none;stroke:#33cc00;stroke-width:0.643229;stroke-linecap:round;stroke-linejoin:round;stroke-miterlimit:4;stroke-dasharray:none;stroke-opacity:1"
         d="m 724.62396,704.7198 -0.0469,-4.22493 -0.18778,-4.22494 -0.28166,-4.22494 -0.37555,-4.178 -0.51638,-4.22494 -0.61027,-4.17799 -0.7511,-4.13105 -0.84499,-4.13105 -0.93887,-4.13106 -1.07971,-4.0841 -1.1736,-4.03717 -1.26748,-4.03716 -1.40831,-3.99022 -1.5022,-3.94328 -1.59609,-3.89633 -1.68997,-3.89633 -1.83081,-3.80245 -1.92469,-3.7555 -1.97164,-3.70856 -2.11247,-3.66161 -2.20636,-3.61467 -2.34719,-3.52078 -2.39413,-3.47384 -2.48802,-3.4269 -2.58191,-3.333 -2.67579,-3.28607 -2.72274,-3.19217 -2.86357,-3.14523 -2.91051,-3.05135 -3.0044,-2.95746 -3.09829,-2.86357 -3.14523,-2.81662 -3.23912,-2.72274 -3.28607,-2.62885 -3.37995,-2.53496 -3.47384,-2.44108 -3.47384,-2.34719 -3.56772,-2.2533 -3.66162,-2.15941 -3.66161,-2.06553 -3.7555,-1.97164 -3.7555,-1.8308 -3.84939,-1.78387 -3.89633,-1.64303 -3.89634,-1.54914 -3.99022,-1.45526 -3.99022,-1.36137 -4.03716,-1.22054 -4.08411,-1.12665 -4.0841,-0.98582 -4.13106,-0.89193 -4.13105,-0.79804 -4.17799,-0.70416 -4.178,-0.56332 -4.22494,-0.4225 -4.17799,-0.3286 -4.22494,-0.23472 -4.22494,-0.14083 h -4.22494 l -4.22494,0.14083 -4.22494,0.23472 -4.17799,0.3286 -4.22494,0.4225 -4.178,0.56332 -4.17799,0.70416 -4.13105,0.79804 -4.13105,0.89193 -4.08411,0.98582 -4.08411,1.12665 -4.03716,1.22054 -3.99022,1.36137 -3.99022,1.45526 -3.89633,1.54914 -3.89634,1.64303 -3.84939,1.78387 -3.7555,1.8308 -3.7555,1.97164 -3.66161,2.06553 -3.66162,2.15941 -3.56772,2.2533 -3.47384,2.34719 -3.47384,2.44108 -3.37995,2.53496 -3.28606,2.62885 -3.23912,2.72274 -3.14524,2.81662 -3.09828,2.86357 -3.00441,2.95746 -2.91051,3.05135 -2.86357,3.14523 -2.72274,3.19217 -2.67579,3.28607 -2.58191,3.333 -2.48802,3.4269 -2.39413,3.47384 -2.34719,3.52078 -2.20636,3.61467 -2.11246,3.66161 -1.97164,3.70856 -1.9247,3.7555 -1.8308,3.80245 -1.68998,3.89633 -1.59609,3.89633 -1.5022,3.94328 -1.40831,3.99022 -1.26748,4.03716 -1.1736,4.03717 -1.0797,4.0841 -0.93888,4.13106 -0.84499,4.13105 -0.7511,4.13105 -0.61027,4.17799 -0.51638,4.22494 -0.37555,4.178 -0.28166,4.22494 -0.18778,4.22494 -0.0469,4.22493 0.0469,4.22494 0.18778,4.22494 0.28166,4.22494 0.37555,4.178 0.51638,4.22494 0.61027,4.17799 0.7511,4.13105 0.84499,4.13105 0.93888,4.13105 1.0797,4.08411 1.1736,4.03717 1.26748,4.03716 1.40831,3.99022 1.5022,3.94328 1.59609,3.89633 1.68998,3.89633 1.8308,3.80245 1.9247,3.7555 1.97164,3.70855 2.11246,3.66162 2.20636,3.61467 2.34719,3.52078 2.39413,3.47384 2.48802,3.42689 2.58191,3.33301 2.67579,3.28606 2.72274,3.19218 2.86357,3.14523 2.91051,3.05135 3.00441,2.95746 3.09828,2.86356 3.14524,2.81663 3.23912,2.72274 3.28606,2.62885 3.37995,2.53496 3.47384,2.44108 3.47384,2.34719 3.56772,2.2533 3.66162,2.15941 3.66161,2.06553 3.7555,1.97164 3.7555,1.8308 3.84939,1.78386 3.89634,1.64304 3.89633,1.54914 3.99022,1.45526 3.99022,1.36137 4.03716,1.22053 4.08411,1.12666 4.08411,0.98581 4.13105,0.89194 4.13105,0.79804 4.17799,0.70416 4.178,0.56332 4.22494,0.4225 4.17799,0.3286 4.22494,0.23472 4.22494,0.14083 h 4.22494 l 4.22494,-0.14083 4.22494,-0.23472 4.17799,-0.3286 4.22494,-0.4225 4.178,-0.56332 4.17799,-0.70416 4.13105,-0.79804 4.13106,-0.89194 4.0841,-0.98581 4.08411,-1.12666 4.03716,-1.22053 3.99022,-1.36137 3.99022,-1.45526 3.89634,-1.54914 3.89633,-1.64304 3.84939,-1.78386 3.7555,-1.8308 3.7555,-1.97164 3.66161,-2.06553 3.66162,-2.15941 3.56772,-2.2533 3.47384,-2.34719 3.47384,-2.44108 3.37995,-2.53496 3.28607,-2.62885 3.23912,-2.72274 3.14523,-2.81663 3.09829,-2.86356 3.0044,-2.95746 2.91051,-3.05135 2.86357,-3.14523 2.72274,-3.19218 2.67579,-3.28606 2.58191,-3.33301 2.48802,-3.42689 2.39413,-3.47384 2.34719,-3.52078 2.20636,-3.61467 2.11247,-3.66162 1.97164,-3.70855 1.92469,-3.7555 1.83081,-3.80245 1.68997,-3.89633 1.59609,-3.89633 1.5022,-3.94328 1.40831,-3.99022 1.26748,-4.03716 1.1736,-4.03717 1.07971,-4.08411 0.93887,-4.13105 0.84499,-4.13105 0.7511,-4.13105 0.61027,-4.17799 0.51638,-4.22494 0.37555,-4.178 0.28166,-4.22494 0.18778,-4.22494 z"
         id="path1" /><path
         style="fill:none;stroke:#33cc00;stroke-width:0.643229;stroke-linecap:round;stroke-linejoin:round;stroke-miterlimit:4;stroke-dasharray:none;stroke-opacity:1"
         d="M 567.40929,704.7198 H 724.62396"
         id="path2" /><path
         style="fill:none;stroke:#33cc00;stroke-width:0.643229;stroke-linecap:round;stroke-linejoin:round;stroke-miterlimit:4;stroke-dasharray:none;stroke-opacity:1"
         d="m 881.83863,704.7198 -0.0469,-4.22493 -0.18778,-4.22494 -0.28166,-4.22494 -0.37555,-4.178 -0.51638,-4.22494 -0.61027,-4.17799 -0.7511,-4.13105 -0.84499,-4.13105 -0.93887,-4.13106 -1.07971,-4.0841 -1.1736,-4.03717 -1.26748,-4.03716 -1.40831,-3.99022 -1.5022,-3.94328 -1.59609,-3.89633 -1.68997,-3.89633 -1.83081,-3.80245 -1.9247,-3.7555 -1.97163,-3.70856 -2.11247,-3.66161 -2.20636,-3.61467 -2.34719,-3.52078 -2.39413,-3.47384 -2.48802,-3.4269 -2.58191,-3.333 -2.67579,-3.28607 -2.72274,-3.19217 -2.86357,-3.14523 -2.91051,-3.05135 -3.0044,-2.95746 -3.09829,-2.86357 -3.14523,-2.81662 -3.23912,-2.72274 -3.28607,-2.62885 -3.37995,-2.53496 -3.47384,-2.44108 -3.47384,-2.34719 -3.56772,-2.2533 -3.66162,-2.15941 -3.66161,-2.06553 -3.7555,-1.97164 -3.7555,-1.8308 -3.84939,-1.78387 -3.89633,-1.64303 -3.89634,-1.54914 -3.99022,-1.45526 -3.99022,-1.36137 -4.03716,-1.22054 -4.08411,-1.12665 -4.08411,-0.98582 -4.13105,-0.89193 -4.13105,-0.79804 -4.17799,-0.70416 -4.178,-0.56332 -4.22494,-0.4225 -4.17799,-0.3286 -4.22494,-0.23472 -4.22494,-0.14083 h -4.22494 l -4.22494,0.14083 -4.22494,0.23472 -4.17799,0.3286 -4.22494,0.4225 -4.178,0.56332 -4.17799,0.70416 -4.13105,0.79804 -4.13105,0.89193 -4.08411,0.98582 -4.08411,1.12665 -4.03716,1.22054 -3.99022,1.36137 -3.99022,1.45526 -3.89633,1.54914 -3.89634,1.64303 -3.84939,1.78387 -3.7555,1.8308 -3.7555,1.97164 -3.66161,2.06553 -3.66162,2.15941 -3.56772,2.2533 -3.47384,2.34719 -3.47384,2.44108 -3.37995,2.53496 -3.28606,2.62885 -3.23912,2.72274 -3.14524,2.81662 -3.09828,2.86357 -3.00441,2.95746 -2.91051,3.05135 -2.86357,3.14523 -2.72274,3.19217 -2.67579,3.28607 -2.58191,3.333 -2.48802,3.4269 -2.39413,3.47384 -2.34719,3.52078 -2.20636,3.61467 -2.11247,3.66161 -1.97163,3.70856 -1.9247,3.7555 -1.8308,3.80245 -1.68998,3.89633 -1.59609,3.89633 -1.5022,3.94328 -1.40831,3.99022 -1.26748,4.03716 -1.1736,4.03717 -1.0797,4.0841 -0.93888,4.13106 -0.84499,4.13105 -0.7511,4.13105 -0.61027,4.17799 -0.51638,4.22494 -0.37555,4.178 -0.28166,4.22494 -0.18778,4.22494 -0.0469,4.22493 0.0469,4.22494 0.18778,4.22494 0.28166,4.22494 0.37555,4.178 0.51638,4.22494 0.61027,4.17799 0.7511,4.13105 0.84499,4.13105 0.93888,4.13105 1.0797,4.08411 1.1736,4.03717 1.26748,4.03716 1.40831,3.99022 1.5022,3.94328 1.59609,3.89633 1.68998,3.89633 1.8308,3.80245 1.9247,3.7555 1.97163,3.70855 2.11247,3.66162 2.20636,3.61467 2.34719,3.52078 2.39413,3.47384 2.48802,3.42689 2.58191,3.33301 2.67579,3.28606 2.72274,3.19218 2.86357,3.14523 2.91051,3.05135 3.00441,2.95746 3.09828,2.86356 3.14524,2.81663 3.23912,2.72274 3.28606,2.62885 3.37995,2.53496 3.47384,2.44108 3.47384,2.34719 3.56772,2.2533 3.66162,2.15941 3.66161,2.06553 3.7555,1.97164 3.7555,1.8308 3.84939,1.78386 3.89634,1.64304 3.89633,1.54914 3.99022,1.45526 3.99022,1.36137 4.03716,1.22053 4.08411,1.12666 4.08411,0.98581 4.13105,0.89194 4.13105,0.79804 4.17799,0.70416 4.178,0.56332 4.22494,0.4225 4.17799,0.3286 4.22494,0.23472 4.22494,0.14083 h 4.22494 l 4.22494,-0.14083 4.22494,-0.23472 4.17799,-0.3286 4.22494,-0.4225 4.178,-0.56332 4.17799,-0.70416 4.13105,-0.79804 4.13105,-0.89194 4.08411,-0.98581 4.08411,-1.12666 4.03716,-1.22053 3.99022,-1.36137 3.99022,-1.45526 3.89634,-1.54914 3.89633,-1.64304 3.84939,-1.78386 3.7555,-1.8308 3.7555,-1.97164 3.66161,-2.06553 3.66162,-2.15941 3.56772,-2.2533 3.47384,-2.34719 3.47384,-2.44108 3.37995,-2.53496 3.28607,-2.62885 3.23912,-2.72274 3.14523,-2.81663 3.09829,-2.86356 3.0044,-2.95746 2.91051,-3.05135 2.86357,-3.14523 2.72274,-3.19218 2.67579,-3.28606 2.58191,-3.33301 2.48802,-3.42689 2.39413,-3.47384 2.34719,-3.52078 2.20636,-3.61467 2.11247,-3.66162 1.97163,-3.70855 1.9247,-3.7555 1.83081,-3.80245 1.68997,-3.89633 1.59609,-3.89633 1.5022,-3.94328 1.40831,-3.99022 1.26748,-4.03716 1.1736,-4.03717 1.07971,-4.08411 0.93887,-4.13105 0.84499,-4.13105 0.7511,-4.13105 0.61027,-4.17799 0.51638,-4.22494 0.37555,-4.178 0.28166,-4.22494 0.18778,-4.22494 z"
         id="path3" /><path
         style="fill:none;stroke:#33cc00;stroke-width:0.643229;stroke-linecap:round;stroke-linejoin:round;stroke-miterlimit:4;stroke-dasharray:none;stroke-opacity:1"
         d="M 646.0401,568.489 V 840.99756"
         id="path4" /><path
         style="fill:none;stroke:#000000;stroke-width:0.643229;stroke-linecap:round;stroke-linejoin:round;stroke-miterlimit:4;stroke-dasharray:none;stroke-opacity:1"
         d="M 881.83863,568.489 H 990.18484"
         id="path5" /><path
         style="fill:none;stroke:#000000;stroke-width:0.643229;stroke-linecap:round;stroke-linejoin:round;stroke-miterlimit:4;stroke-dasharray:none;stroke-opacity:1"
         d="M 881.83863,840.99756 H 990.18484"
         id="path6" /><path
         style="fill:none;stroke:#000000;stroke-width:0.643229;stroke-linecap:round;stroke-linejoin:round;stroke-miterlimit:4;stroke-dasharray:none;stroke-opacity:1"
         d="M 987.03961,584.21516 V 692.74914"
         id="path7" /><path
         style="fill:none;stroke:#000000;stroke-width:0.643229;stroke-linecap:round;stroke-linejoin:round;stroke-miterlimit:4;stroke-dasharray:none;stroke-opacity:1"
         d="M 987.03961,825.27139 V 716.73741"
         id="path8" /><path
         style="fill:#000000;fill-opacity:1;fill-rule:evenodd;stroke:none;stroke-width:0.643229;stroke-dasharray:none"
         d="m 984.4577,584.21516 h 5.21076 L 987.03961,568.489 Z"
         id="path9" /><path
         style="fill:#000000;fill-opacity:1;fill-rule:evenodd;stroke:none;stroke-width:0.643229;stroke-dasharray:none"
         d="m 984.4577,825.27139 h 5.21076 l -2.62885,15.72617 z"
         id="path10" /><text
         xml:space="preserve"
         style="font-style:normal;font-variant:normal;font-weight:400;font-size:24.1875px;line-height:125%;font-family:Arial;text-align:start;letter-spacing:0px;word-spacing:0px;text-anchor:start;fill:#000000;fill-opacity:1;stroke:none;stroke-width:0.643229;stroke-dasharray:none"
         transform="translate(924.13496,713.26357)"
         x="0"
         y="0"
         id="text11"><tspan
           sodipodi:role="line"
           x="0"
           y="0"
           id="tspan11"><tspan
             dx="0"
             dy="0"
             style="font-style:normal;font-variant:normal;font-weight:400;font-size:24.1875px;font-family:Arial;fill:#000000;stroke-width:0.643229;stroke-dasharray:none"
             id="tspan10">1.73205081</tspan></tspan></text><path
         style="fill:none;stroke:#000000;stroke-width:0.643229;stroke-linecap:round;stroke-linejoin:round;stroke-miterlimit:4;stroke-dasharray:none;stroke-opacity:1"
         d="M 567.40929,515.95892 V 463.85134"
         id="path11" /><path
         style="fill:none;stroke:#000000;stroke-width:0.643229;stroke-linecap:round;stroke-linejoin:round;stroke-miterlimit:4;stroke-dasharray:none;stroke-opacity:1"
         d="M 724.62396,515.95892 V 463.85134"
         id="path12" /><path
         style="fill:none;stroke:#000000;stroke-width:0.643229;stroke-linecap:round;stroke-linejoin:round;stroke-miterlimit:4;stroke-dasharray:none;stroke-opacity:1"
         d="m 576.84499,466.99658 h 51.12176"
         id="path13" /><path
         style="fill:none;stroke:#000000;stroke-width:0.643229;stroke-linecap:round;stroke-linejoin:round;stroke-miterlimit:4;stroke-dasharray:none;stroke-opacity:1"
         d="M 715.18826,466.99658 H 664.0665"
         id="path14" /><path
         style="fill:#000000;fill-opacity:1;fill-rule:evenodd;stroke:none;stroke-width:0.643229;stroke-dasharray:none"
         d="m 576.84499,465.40049 v 3.14523 l -9.4357,-1.54914 z"
         id="path15" /><path
         style="fill:#000000;fill-opacity:1;fill-rule:evenodd;stroke:none;stroke-width:0.643229;stroke-dasharray:none"
         d="m 715.18826,465.40049 v 3.14523 l 9.4357,-1.54914 z"
         id="path16" /><text
         xml:space="preserve"
         style="font-style:normal;font-variant:normal;font-weight:400;font-size:24.1875px;line-height:125%;font-family:Arial;text-align:start;letter-spacing:0px;word-spacing:0px;text-anchor:start;fill:#000000;fill-opacity:1;stroke:none;stroke-width:0.643229;stroke-dasharray:none"
         transform="translate(628.48313,475.54034)"
         x="0"
         y="0"
         id="text17"><tspan
           sodipodi:role="line"
           x="0"
           y="0"
           id="tspan17"><tspan
             dx="0"
             dy="0"
             style="font-style:normal;font-variant:normal;font-weight:400;font-size:24.1875px;font-family:Arial;fill:#000000;stroke-width:0.643229;stroke-dasharray:none"
             id="tspan16">1.0</tspan></tspan></text><text
         xml:space="preserve"
         style="font-style:normal;font-variant:normal;font-weight:400;font-size:24.1875px;line-height:125%;font-family:Arial;text-align:start;letter-spacing:0px;word-spacing:0px;text-anchor:start;fill:#000000;fill-opacity:1;stroke:none;stroke-width:0.643229;stroke-dasharray:none"
         transform="translate(391.69878,542.99853)"
         x="0"
         y="0"
         id="text19"><tspan
           sodipodi:role="line"
           x="0"
           y="0"
           id="tspan19"><tspan
             dx="0"
             dy="0"
             style="font-style:normal;font-variant:normal;font-weight:400;font-size:24.1875px;font-family:Arial;fill:#000000;stroke-width:0.643229;stroke-dasharray:none"
             id="tspan18">R1.0</tspan></tspan></text><path
         style="fill:none;stroke:#000000;stroke-width:0.643229;stroke-linecap:round;stroke-linejoin:round;stroke-miterlimit:4;stroke-dasharray:none;stroke-opacity:1"
         d="m 444.74523,534.45477 h 9.4357 l 20.88997,31.45232"
         id="path19" /><path
         style="fill:#000000;fill-opacity:1;fill-rule:evenodd;stroke:none;stroke-width:0.643229;stroke-dasharray:none"
         d="m 476.38533,565.01516 -2.62885,1.78386 6.57213,6.94768 z"
         id="path20" /></g></g></svg>
